<svg width="32" height="32" viewBox="0 0 32 32" fill="none" xmlns="http://www.w3.org/2000/svg">
<path d="M29.3337 3.66663H2.66699C2.12033 3.66663 1.66699 3.21329 1.66699 2.66663C1.66699 2.11996 2.12033 1.66663 2.66699 1.66663H29.3337C29.8803 1.66663 30.3337 2.11996 30.3337 2.66663C30.3337 3.21329 29.8803 3.66663 29.3337 3.66663Z" fill="#76768D"/>
<path d="M22.227 29.7866C22.0537 30.1333 21.6937 30.3333 21.3337 30.3333C21.187 30.3333 21.027 30.2933 20.8937 30.2266L16.0003 27.7866L11.107 30.2266C10.9737 30.2933 10.8137 30.3333 10.667 30.3333C10.307 30.3333 9.94701 30.1333 9.77368 29.7866C9.52034 29.28 9.72034 28.68 10.227 28.44L15.0003 26.0533V22.6666H17.0003V26.0533L21.7737 28.44C22.2803 28.68 22.4803 29.28 22.227 29.7866Z" fill="#76768D"/>
<path d="M4 2.66663V18.8C4 21.3333 5.33333 22.6666 7.86667 22.6666H24.1333C26.6667 22.6666 28 21.3333 28 18.8V2.66663H4ZM22.64 11.44L18.44 14.9466C18.0533 15.2666 17.56 15.4 17.0933 15.32C16.6133 15.24 16.2 14.9466 15.9467 14.52L14.5467 12.1866L10.64 15.44C10.4533 15.6 10.2267 15.6666 10 15.6666C9.72 15.6666 9.42667 15.5466 9.22667 15.3066C8.86667 14.88 8.93333 14.2533 9.36 13.8933L13.56 10.3866C13.9467 10.0666 14.44 9.93329 14.9067 10.0133C15.3867 10.0933 15.8 10.3866 16.0533 10.8133L17.4533 13.1466L21.36 9.89329C21.7867 9.53329 22.4133 9.59996 22.7733 10.0266C23.12 10.4533 23.0667 11.08 22.64 11.44Z" fill="#76768D"/>
</svg>
