<svg width="32" height="32" viewBox="0 0 32 32" fill="none" xmlns="http://www.w3.org/2000/svg">
<path d="M29.333 14.6266V17.3733C29.333 18.1066 28.7463 18.7066 27.9996 18.7333H25.3863C23.9463 18.7333 22.6263 17.6799 22.5063 16.2399C22.4263 15.3999 22.7463 14.6133 23.3063 14.0666C23.7996 13.5599 24.4796 13.2666 25.2263 13.2666H27.9996C28.7463 13.2933 29.333 13.8933 29.333 14.6266Z" fill="#76768D"/>
<path d="M27.2937 20.7333H25.387C22.8537 20.7333 20.7203 18.8266 20.507 16.4C20.387 15.0133 20.8937 13.6266 21.907 12.64C22.7603 11.76 23.947 11.2666 25.227 11.2666H27.2937C27.6803 11.2666 28.0003 10.9466 27.9603 10.56C27.667 7.31996 25.5203 5.10663 22.3337 4.73329C22.0137 4.67996 21.6803 4.66663 21.3337 4.66663H9.33366C8.96033 4.66663 8.60033 4.69329 8.25366 4.74663C4.85366 5.17329 2.66699 7.70663 2.66699 11.3333V20.6666C2.66699 24.3466 5.65366 27.3333 9.33366 27.3333H21.3337C25.067 27.3333 27.6403 25 27.9603 21.44C28.0003 21.0533 27.6803 20.7333 27.2937 20.7333ZM17.3337 13H9.33366C8.78699 13 8.33366 12.5466 8.33366 12C8.33366 11.4533 8.78699 11 9.33366 11H17.3337C17.8803 11 18.3337 11.4533 18.3337 12C18.3337 12.5466 17.8803 13 17.3337 13Z" fill="#76768D"/>
</svg>
