<svg width="32" height="32" viewBox="0 0 32 32" fill="none" xmlns="http://www.w3.org/2000/svg">
<path d="M22.667 2.66663H9.33366C5.65366 2.66663 2.66699 5.63996 2.66699 9.30663V17.28V18.6133C2.66699 22.28 5.65366 25.2533 9.33366 25.2533H11.3337C11.6937 25.2533 12.1737 25.4933 12.4003 25.7866L14.4003 28.44C15.2803 29.6133 16.7203 29.6133 17.6003 28.44L19.6003 25.7866C19.8537 25.4533 20.2537 25.2533 20.667 25.2533H22.667C26.347 25.2533 29.3337 22.28 29.3337 18.6133V9.30663C29.3337 5.63996 26.347 2.66663 22.667 2.66663ZM10.667 16C9.92033 16 9.33366 15.4 9.33366 14.6666C9.33366 13.9333 9.93366 13.3333 10.667 13.3333C11.4003 13.3333 12.0003 13.9333 12.0003 14.6666C12.0003 15.4 11.4137 16 10.667 16ZM16.0003 16C15.2537 16 14.667 15.4 14.667 14.6666C14.667 13.9333 15.267 13.3333 16.0003 13.3333C16.7337 13.3333 17.3337 13.9333 17.3337 14.6666C17.3337 15.4 16.747 16 16.0003 16ZM21.3337 16C20.587 16 20.0003 15.4 20.0003 14.6666C20.0003 13.9333 20.6003 13.3333 21.3337 13.3333C22.067 13.3333 22.667 13.9333 22.667 14.6666C22.667 15.4 22.0803 16 21.3337 16Z" fill="#76768D"/>
</svg>
