<svg width="30" height="30" viewBox="0 0 30 30" fill="none" xmlns="http://www.w3.org/2000/svg">
<path d="M25.6291 4.35966C22.809 1.5498 19.0585 0.00157932 15.0626 0C6.82939 0 0.128541 6.66831 0.125246 14.8648C0.124188 17.4848 0.812004 20.0423 2.11914 22.2966L0 30L7.91849 27.9328C10.1003 29.1171 12.5566 29.7412 15.0567 29.7422H15.0628C23.2952 29.7422 29.9967 23.0731 30 14.8766C30.0016 10.9045 28.4493 7.16953 25.6291 4.35966ZM15.0628 27.2316H15.0577C12.8299 27.2307 10.6449 26.6351 8.73871 25.5093L8.28532 25.2416L3.58637 26.4683L4.84062 21.9088L4.54535 21.4414C3.30257 19.4741 2.64619 17.2003 2.64717 14.8657C2.64986 8.05322 8.21938 2.51072 15.0676 2.51072C18.3837 2.51198 21.5009 3.79892 23.845 6.13434C26.189 8.46976 27.4792 11.5742 27.4779 14.8757C27.4753 21.6887 21.9058 27.2316 15.0628 27.2316ZM21.8728 17.9777C21.4995 17.7918 19.6646 16.8932 19.3225 16.7692C18.9804 16.6452 18.7316 16.5833 18.4827 16.9552C18.2339 17.327 17.5187 18.1637 17.3009 18.4116C17.0832 18.6595 16.8655 18.6905 16.4923 18.5045C16.119 18.3186 14.9164 17.9264 13.4908 16.6609C12.3813 15.6761 11.6322 14.4596 11.4145 14.0877C11.1968 13.7159 11.3914 13.5149 11.5782 13.3297C11.7461 13.1633 11.9514 12.8958 12.1381 12.6789C12.3246 12.4621 12.3869 12.3071 12.5113 12.0592C12.6357 11.8113 12.5735 11.5943 12.4801 11.4084C12.3869 11.2225 11.6404 9.39423 11.3294 8.65053C11.0265 7.92623 10.7187 8.02423 10.4896 8.01285C10.2721 8.00207 10.0231 7.99981 9.77428 7.99981C9.5255 7.99981 9.12112 8.09274 8.77902 8.46461C8.43692 8.83648 7.47275 9.73512 7.47275 11.5634C7.47275 13.3916 8.8101 15.1579 8.99673 15.4058C9.18336 15.6537 11.6285 19.4056 15.3726 21.0145C16.2631 21.3972 16.9583 21.6257 17.5003 21.7969C18.3944 22.0796 19.208 22.0397 19.8512 21.9441C20.5683 21.8375 22.0593 21.0456 22.3704 20.1779C22.6815 19.3102 22.6815 18.5665 22.5881 18.4116C22.4948 18.2567 22.246 18.1637 21.8728 17.9777Z" fill="#AAADB2"/>
</svg>
