<?xml version="1.0"?>
<svg width="30" height="30" xmlns="http://www.w3.org/2000/svg" xmlns:svg="http://www.w3.org/2000/svg">
 <g class="layer">
  <title>Layer 1</title>
  <path d="m25.6291,4.35966c-2.8201,-2.80986 -6.5706,-4.35808 -10.5665,-4.35966c-8.23321,0 -14.93406,6.66831 -14.93735,14.8648c-0.00106,2.62 0.68675,5.1775 1.99389,7.4318l-2.11914,7.7034l7.91849,-2.0672c2.18181,1.1843 4.63811,1.8084 7.13821,1.8094l0.0061,0c8.2324,0 14.9339,-6.6691 14.9372,-14.8656c0.0016,-3.9721 -1.5507,-7.70707 -4.3709,-10.51694zm-10.5663,22.87194l-0.0051,0c-2.2278,-0.0009 -4.4128,-0.5965 -6.31899,-1.7223l-0.45339,-0.2677l-4.69895,1.2267l1.25425,-4.5595l-0.29527,-0.4674c-1.24278,-1.9673 -1.89916,-4.2411 -1.89818,-6.5757c0.00269,-6.81248 5.57221,-12.35498 12.42043,-12.35498c3.3161,0.00126 6.4333,1.2882 8.7774,3.62362c2.344,2.33542 3.6342,5.43986 3.6329,8.74136c-0.0026,6.813 -5.5721,12.3559 -12.4151,12.3559zm6.81,-9.2539c-0.3733,-0.1859 -2.2082,-1.0845 -2.5503,-1.2085c-0.3421,-0.124 -0.5909,-0.1859 -0.8398,0.186c-0.2488,0.3718 -0.964,1.2085 -1.1818,1.4564c-0.2177,0.2479 -0.4354,0.2789 -0.8086,0.0929c-0.3733,-0.1859 -1.5759,-0.5781 -3.0015,-1.8436c-1.1095,-0.9848 -1.8586,-2.2013 -2.0763,-2.5732c-0.2177,-0.3718 -0.0231,-0.5728 0.1637,-0.758c0.1679,-0.1664 0.3732,-0.4339 0.5599,-0.6508c0.1865,-0.2168 0.2488,-0.3718 0.3732,-0.6197c0.1244,-0.2479 0.0622,-0.4649 -0.0312,-0.6508c-0.0932,-0.1859 -0.8397,-2.01417 -1.1507,-2.75787c-0.3029,-0.7243 -0.6107,-0.6263 -0.8398,-0.63768c-0.2175,-0.01078 -0.4665,-0.01304 -0.71532,-0.01304c-0.24878,0 -0.65316,0.09293 -0.99526,0.4648c-0.3421,0.37187 -1.30627,1.27051 -1.30627,3.09879c0,1.8282 1.33735,3.5945 1.52398,3.8424c0.18663,0.2479 2.63177,3.9998 6.37587,5.6087c0.8905,0.3827 1.5857,0.6112 2.1277,0.7824c0.8941,0.2827 1.7077,0.2428 2.3509,0.1472c0.7171,-0.1066 2.2081,-0.8985 2.5192,-1.7662c0.3111,-0.8677 0.3111,-1.6114 0.2177,-1.7663c-0.0933,-0.1549 -0.3421,-0.2479 -0.7153,-0.4339z" fill="#25D366" id="svg_1"/>
 </g>
</svg>