<svg width="186" height="152" viewBox="0 0 186 152" fill="none" xmlns="http://www.w3.org/2000/svg">
<path d="M124.36 118.535C106.317 128.952 77.0631 128.952 59.02 118.535C49.8782 113.257 45.3683 106.317 45.4901 99.3998C45.6088 92.6644 50.1188 85.95 59.02 80.8109C77.0631 70.3937 106.317 70.3937 124.36 80.8109C133.261 85.95 137.771 92.6644 137.89 99.3998C138.012 106.317 133.502 113.257 124.36 118.535Z" fill="#C4C4C4"/>
<path d="M124.36 118.535C106.317 128.952 77.0631 128.952 59.02 118.535C49.8782 113.257 45.3683 106.317 45.4901 99.3998C45.6088 92.6644 50.1188 85.95 59.02 80.8109C77.0631 70.3937 106.317 70.3937 124.36 80.8109C133.261 85.95 137.771 92.6644 137.89 99.3998C138.012 106.317 133.502 113.257 124.36 118.535Z" fill="white"/>
<path d="M124.36 118.535C106.317 128.952 77.0631 128.952 59.02 118.535C49.8782 113.257 45.3683 106.317 45.4901 99.3998C45.6088 92.6644 50.1188 85.95 59.02 80.8109C77.0631 70.3937 106.317 70.3937 124.36 80.8109C133.261 85.95 137.771 92.6644 137.89 99.3998C138.012 106.317 133.502 113.257 124.36 118.535Z" fill="url(#paint0_linear_984_4345)" fill-opacity="0.75"/>
<path d="M59.02 80.8109C77.0631 70.3937 106.317 70.3937 124.36 80.8109C133.261 85.95 137.771 92.6644 137.89 99.3998L137.89 58.196L135.946 58.196L45.4901 58.196L45.4901 99.3998C45.6088 92.6644 50.1188 85.95 59.02 80.8109Z" fill="#C4C4C4"/>
<path d="M59.02 80.8109C77.0631 70.3937 106.317 70.3937 124.36 80.8109C133.261 85.95 137.771 92.6644 137.89 99.3998L137.89 58.196L135.946 58.196L45.4901 58.196L45.4901 99.3998C45.6088 92.6644 50.1188 85.95 59.02 80.8109Z" fill="white"/>
<path d="M59.02 80.8109C77.0631 70.3937 106.317 70.3937 124.36 80.8109C133.261 85.95 137.771 92.6644 137.89 99.3998L137.89 58.196L135.946 58.196L45.4901 58.196L45.4901 99.3998C45.6088 92.6644 50.1188 85.95 59.02 80.8109Z" fill="url(#paint1_linear_984_4345)" fill-opacity="0.75"/>
<path d="M14.9174 63.9186C11.6193 62.0144 9.97164 59.5181 9.97455 57.0224C9.97746 54.5311 11.6251 52.0402 14.9174 50.1394L81.8828 11.4769C88.4733 7.67192 99.1585 7.67192 105.749 11.4769L172.714 50.1394C176.006 52.0399 177.654 54.5302 177.657 57.0211C177.661 59.5173 176.013 62.0141 172.714 63.9186L105.749 102.581C99.1585 106.386 88.4733 106.386 81.8828 102.581L14.9174 63.9186Z" fill="#C4C4C4"/>
<path d="M14.9174 63.9186C11.6193 62.0144 9.97164 59.5181 9.97455 57.0224C9.97746 54.5311 11.6251 52.0402 14.9174 50.1394L81.8828 11.4769C88.4733 7.67192 99.1585 7.67192 105.749 11.4769L172.714 50.1394C176.006 52.0399 177.654 54.5302 177.657 57.0211C177.661 59.5173 176.013 62.0141 172.714 63.9186L105.749 102.581C99.1585 106.386 88.4733 106.386 81.8828 102.581L14.9174 63.9186Z" fill="white"/>
<path d="M14.9174 63.9186C11.6193 62.0144 9.97164 59.5181 9.97455 57.0224C9.97746 54.5311 11.6251 52.0402 14.9174 50.1394L81.8828 11.4769C88.4733 7.67192 99.1585 7.67192 105.749 11.4769L172.714 50.1394C176.006 52.0399 177.654 54.5302 177.657 57.0211C177.661 59.5173 176.013 62.0141 172.714 63.9186L105.749 102.581C99.1585 106.386 88.4733 106.386 81.8828 102.581L14.9174 63.9186Z" fill="url(#paint2_linear_984_4345)" fill-opacity="0.5"/>
<path d="M172.714 50.1394C176.006 52.0399 177.654 54.5302 177.657 57.0211L177.657 51.8036L172.714 50.1394Z" fill="#C4C4C4"/>
<path d="M172.714 50.1394C176.006 52.0399 177.654 54.5302 177.657 57.0211L177.657 51.8036L172.714 50.1394Z" fill="white"/>
<path d="M172.714 50.1394C176.006 52.0399 177.654 54.5302 177.657 57.0211L177.657 51.8036L172.714 50.1394Z" fill="url(#paint3_linear_984_4345)" fill-opacity="0.5"/>
<path d="M9.97455 57.0224C9.97746 54.5311 11.6251 52.0402 14.9174 50.1394L9.97455 51.9482L9.97455 57.0224Z" fill="#C4C4C4"/>
<path d="M9.97455 57.0224C9.97746 54.5311 11.6251 52.0402 14.9174 50.1394L9.97455 51.9482L9.97455 57.0224Z" fill="white"/>
<path d="M9.97455 57.0224C9.97746 54.5311 11.6251 52.0402 14.9174 50.1394L9.97455 51.9482L9.97455 57.0224Z" fill="url(#paint4_linear_984_4345)" fill-opacity="0.5"/>
<rect width="104.883" height="104.883" rx="14" transform="matrix(0.866025 -0.5 0.866025 0.5 2.98242 52.4417)" fill="#C4C4C4"/>
<rect width="104.883" height="104.883" rx="14" transform="matrix(0.866025 -0.5 0.866025 0.5 2.98242 52.4417)" fill="white"/>
<rect width="104.883" height="104.883" rx="14" transform="matrix(0.866025 -0.5 0.866025 0.5 2.98242 52.4417)" fill="url(#paint5_linear_984_4345)" fill-opacity="0.3"/>
<path d="M102.873 57.6347C97.9057 60.5027 89.8516 60.5027 84.8841 57.6347C82.3672 56.1815 81.1255 54.2709 81.159 52.3664C81.1917 50.5121 82.4334 48.6635 84.8841 47.2486C89.8516 44.3805 97.9057 44.3805 102.873 47.2486C105.324 48.6635 106.566 50.5121 106.598 52.3664C106.632 54.2709 105.39 56.1815 102.873 57.6347Z" fill="#F47F68"/>
<path d="M92.7194 52.4415L51.3609 76.2712C47.9528 78.2349 45.8525 81.8689 45.8525 85.8023V122.506" stroke="#F47F68" stroke-width="6"/>
<path d="M45.8507 111.398L57.778 142.139L33.9233 128.367L45.8507 111.398Z" fill="#C4C4C4"/>
<path d="M45.8507 111.398L57.778 142.139L33.9233 128.367L45.8507 111.398Z" fill="#D3B5B5"/>
<path d="M45.8507 111.398L57.778 142.139L33.9233 128.367L45.8507 111.398Z" fill="url(#paint6_linear_984_4345)" fill-opacity="0.75"/>
<defs>
<linearGradient id="paint0_linear_984_4345" x1="149.657" y1="125.524" x2="111.439" y2="141.014" gradientUnits="userSpaceOnUse">
<stop stop-color="#CCD1D3" stop-opacity="0.36"/>
<stop offset="1" stop-color="#C3C6CA"/>
</linearGradient>
<linearGradient id="paint1_linear_984_4345" x1="149.657" y1="125.524" x2="111.439" y2="141.014" gradientUnits="userSpaceOnUse">
<stop stop-color="#CCD1D3" stop-opacity="0.36"/>
<stop offset="1" stop-color="#C3C6CA"/>
</linearGradient>
<linearGradient id="paint2_linear_984_4345" x1="432.016" y1="-51.2268" x2="438.717" y2="33.5471" gradientUnits="userSpaceOnUse">
<stop stop-color="#BDC6CB" stop-opacity="0.36"/>
<stop offset="1" stop-color="#B7BEC8"/>
</linearGradient>
<linearGradient id="paint3_linear_984_4345" x1="432.016" y1="-51.2268" x2="438.717" y2="33.5471" gradientUnits="userSpaceOnUse">
<stop stop-color="#BDC6CB" stop-opacity="0.36"/>
<stop offset="1" stop-color="#B7BEC8"/>
</linearGradient>
<linearGradient id="paint4_linear_984_4345" x1="432.016" y1="-51.2268" x2="438.717" y2="33.5471" gradientUnits="userSpaceOnUse">
<stop stop-color="#BDC6CB" stop-opacity="0.36"/>
<stop offset="1" stop-color="#B7BEC8"/>
</linearGradient>
<linearGradient id="paint5_linear_984_4345" x1="87.4492" y1="116.538" x2="-27.9264" y2="77.3066" gradientUnits="userSpaceOnUse">
<stop stop-color="#C9CFD2" stop-opacity="0.36"/>
<stop offset="1" stop-color="#B5BDC8"/>
</linearGradient>
<linearGradient id="paint6_linear_984_4345" x1="38.2978" y1="108.832" x2="16.0229" y2="139.837" gradientUnits="userSpaceOnUse">
<stop stop-color="#F47F68"/>
<stop offset="1" stop-color="#FF0707"/>
</linearGradient>
</defs>
</svg>
