<svg width="103" height="132" viewBox="0 0 103 132" fill="none" xmlns="http://www.w3.org/2000/svg">
<circle cx="45.5" cy="55.5" r="1.5" fill="white"/>
<circle cx="41.5" cy="36.5" r="1.5" fill="white"/>
<circle cx="29.5" cy="1.5" r="1.5" fill="white"/>
<circle cx="13.5" cy="14.5" r="1.5" fill="white"/>
<circle cx="28.5" cy="26.5" r="1.5" fill="white"/>
<circle cx="20.5" cy="32.5" r="1.5" fill="white"/>
<circle cx="10.5" cy="21.5" r="1.5" fill="white"/>
<circle cx="2.5" cy="39.5" r="1.5" fill="white"/>
<circle cx="10.5" cy="57.5" r="1.5" fill="white"/>
<circle cx="2.5" cy="66.5" r="1.5" fill="white"/>
<circle cx="1.5" cy="47.5" r="1.5" fill="white"/>
<circle cx="23.5" cy="66.5" r="1.5" fill="white"/>
<circle cx="27.5" cy="64.5" r="1.5" fill="white"/>
<circle cx="11.5" cy="60.5" r="1.5" fill="white"/>
<circle cx="8.5" cy="84.5" r="1.5" fill="white"/>
<circle cx="21.5" cy="70.5" r="1.5" fill="white"/>
<circle cx="40.5" cy="82.5" r="1.5" fill="white"/>
<circle cx="51.5" cy="76.5" r="1.5" fill="white"/>
<circle cx="28.5" cy="72.5" r="1.5" fill="white"/>
<circle cx="12.5" cy="107.5" r="1.5" fill="white"/>
<circle cx="28.5" cy="96.5" r="1.5" fill="white"/>
<circle cx="31.5" cy="108.5" r="1.5" fill="white"/>
<circle cx="29.5" cy="112.5" r="1.5" fill="white"/>
<circle cx="22.5" cy="124.5" r="1.5" fill="white"/>
<circle cx="48.5" cy="130.5" r="1.5" fill="white"/>
<circle r="1.5" transform="matrix(-1 0 0 1 57.5 55.5)" fill="white"/>
<circle r="1.5" transform="matrix(-1 0 0 1 61.5 36.5)" fill="white"/>
<circle r="1.5" transform="matrix(-1 0 0 1 73.5 1.5)" fill="white"/>
<circle r="1.5" transform="matrix(-1 0 0 1 89.5 14.5)" fill="white"/>
<circle r="1.5" transform="matrix(-1 0 0 1 74.5 26.5)" fill="white"/>
<circle r="1.5" transform="matrix(-1 0 0 1 82.5 32.5)" fill="white"/>
<circle r="1.5" transform="matrix(-1 0 0 1 92.5 21.5)" fill="white"/>
<circle r="1.5" transform="matrix(-1 0 0 1 100.5 39.5)" fill="white"/>
<circle r="1.5" transform="matrix(-1 0 0 1 92.5 57.5)" fill="white"/>
<circle r="1.5" transform="matrix(-1 0 0 1 100.5 66.5)" fill="white"/>
<circle r="1.5" transform="matrix(-1 0 0 1 101.5 47.5)" fill="white"/>
<circle r="1.5" transform="matrix(-1 0 0 1 79.5 66.5)" fill="white"/>
<circle r="1.5" transform="matrix(-1 0 0 1 75.5 64.5)" fill="white"/>
<circle r="1.5" transform="matrix(-1 0 0 1 91.5 60.5)" fill="white"/>
<circle r="1.5" transform="matrix(-1 0 0 1 94.5 84.5)" fill="white"/>
<circle r="1.5" transform="matrix(-1 0 0 1 81.5 70.5)" fill="white"/>
<circle r="1.5" transform="matrix(-1 0 0 1 62.5 82.5)" fill="white"/>
<circle r="1.5" transform="matrix(-1 0 0 1 51.5 76.5)" fill="white"/>
<circle r="1.5" transform="matrix(-1 0 0 1 74.5 72.5)" fill="white"/>
<circle r="1.5" transform="matrix(-1 0 0 1 90.5 107.5)" fill="white"/>
<circle r="1.5" transform="matrix(-1 0 0 1 74.5 96.5)" fill="white"/>
<circle r="1.5" transform="matrix(-1 0 0 1 71.5 108.5)" fill="white"/>
<circle r="1.5" transform="matrix(-1 0 0 1 73.5 112.5)" fill="white"/>
<circle r="1.5" transform="matrix(-1 0 0 1 80.5 124.5)" fill="white"/>
</svg>
