<svg width="376" height="370" viewBox="0 0 376 370" fill="none" xmlns="http://www.w3.org/2000/svg">
<path d="M20.5525 290.372C6.75838 282.408 -0.0921282 271.954 0.00093573 261.516C0.0927524 251.217 6.94326 240.936 20.5525 233.078L67.8502 205.771L137.919 165.317C165.322 149.495 209.752 149.495 237.155 165.317L321.492 214.009L354.522 233.078C368.131 240.936 374.982 251.217 375.073 261.516C375.166 271.954 368.316 282.408 354.522 290.372L237.155 358.134C209.752 373.955 165.322 373.955 137.919 358.134L20.5525 290.372Z" fill="#C4C4C4"/>
<path d="M20.5525 290.372C6.75838 282.408 -0.0921282 271.954 0.00093573 261.516C0.0927524 251.217 6.94326 240.936 20.5525 233.078L67.8502 205.771L137.919 165.317C165.322 149.495 209.752 149.495 237.155 165.317L321.492 214.009L354.522 233.078C368.131 240.936 374.982 251.217 375.073 261.516C375.166 271.954 368.316 282.408 354.522 290.372L237.155 358.134C209.752 373.955 165.322 373.955 137.919 358.134L20.5525 290.372Z" fill="white"/>
<path d="M20.5525 290.372C6.75838 282.408 -0.0921282 271.954 0.00093573 261.516C0.0927524 251.217 6.94326 240.936 20.5525 233.078L67.8502 205.771L137.919 165.317C165.322 149.495 209.752 149.495 237.155 165.317L321.492 214.009L354.522 233.078C368.131 240.936 374.982 251.217 375.073 261.516C375.166 271.954 368.316 282.408 354.522 290.372L237.155 358.134C209.752 373.955 165.322 373.955 137.919 358.134L20.5525 290.372Z" fill="url(#paint0_linear_1078_2651)" fill-opacity="0.3"/>
<path d="M0.00093573 261.516C0.0927524 251.217 6.94326 240.936 20.5525 233.078L67.8502 205.771L0.00093573 229.029V261.516Z" fill="#C4C4C4"/>
<path d="M0.00093573 261.516C0.0927524 251.217 6.94326 240.936 20.5525 233.078L67.8502 205.771L0.00093573 229.029V261.516Z" fill="white"/>
<path d="M0.00093573 261.516C0.0927524 251.217 6.94326 240.936 20.5525 233.078L67.8502 205.771L0.00093573 229.029V261.516Z" fill="url(#paint1_linear_1078_2651)" fill-opacity="0.3"/>
<path d="M354.522 233.078C368.131 240.936 374.982 251.217 375.073 261.516V229.029L321.492 214.009L354.522 233.078Z" fill="#C4C4C4"/>
<path d="M354.522 233.078C368.131 240.936 374.982 251.217 375.073 261.516V229.029L321.492 214.009L354.522 233.078Z" fill="white"/>
<path d="M354.522 233.078C368.131 240.936 374.982 251.217 375.073 261.516V229.029L321.492 214.009L354.522 233.078Z" fill="url(#paint2_linear_1078_2651)" fill-opacity="0.3"/>
<path d="M20.5525 257.964C-6.85082 242.143 -6.85082 216.492 20.5525 200.67L137.919 132.909C165.322 117.087 209.752 117.087 237.155 132.909L354.522 200.67C381.925 216.492 381.925 242.143 354.522 257.964L237.155 325.726C209.752 341.547 165.322 341.547 137.919 325.726L20.5525 257.964Z" fill="#C4C4C4"/>
<path d="M20.5525 257.964C-6.85082 242.143 -6.85082 216.492 20.5525 200.67L137.919 132.909C165.322 117.087 209.752 117.087 237.155 132.909L354.522 200.67C381.925 216.492 381.925 242.143 354.522 257.964L237.155 325.726C209.752 341.547 165.322 341.547 137.919 325.726L20.5525 257.964Z" fill="white"/>
<path d="M20.5525 257.964C-6.85082 242.143 -6.85082 216.492 20.5525 200.67L137.919 132.909C165.322 117.087 209.752 117.087 237.155 132.909L354.522 200.67C381.925 216.492 381.925 242.143 354.522 257.964L237.155 325.726C209.752 341.547 165.322 341.547 137.919 325.726L20.5525 257.964Z" fill="url(#paint3_linear_1078_2651)" fill-opacity="0.15"/>
<g filter="url(#filter0_f_1078_2651)">
<rect width="148.884" height="42.1822" rx="21.0911" transform="matrix(-0.866025 -0.5 -0.866025 0.5 269.791 255.222)" fill="black" fill-opacity="0.12"/>
</g>
<path d="M122.454 24.462C122.454 14.6408 125.553 7.44464 130.683 3.48986C136.967 -1.35425 146.299 -1.33522 156.718 4.67967L235.528 50.1806C254.451 61.1061 269.792 87.6767 269.792 109.528V200.53C269.792 210.91 266.33 218.357 260.667 222.145C260.077 222.54 259.463 222.894 258.827 223.209C252.714 226.229 244.526 225.507 235.528 220.312L156.718 174.811C137.794 163.886 122.453 137.315 122.453 115.464L122.454 24.462Z" fill="#C4C4C4"/>
<path d="M122.454 24.462C122.454 14.6408 125.553 7.44464 130.683 3.48986C136.967 -1.35425 146.299 -1.33522 156.718 4.67967L235.528 50.1806C254.451 61.1061 269.792 87.6767 269.792 109.528V200.53C269.792 210.91 266.33 218.357 260.667 222.145C260.077 222.54 259.463 222.894 258.827 223.209C252.714 226.229 244.526 225.507 235.528 220.312L156.718 174.811C137.794 163.886 122.453 137.315 122.453 115.464L122.454 24.462Z" fill="#FF835E"/>
<path d="M122.454 24.462C122.454 14.6408 125.553 7.44464 130.683 3.48986C136.967 -1.35425 146.299 -1.33522 156.718 4.67967L235.528 50.1806C254.451 61.1061 269.792 87.6767 269.792 109.528V200.53C269.792 210.91 266.33 218.357 260.667 222.145C260.077 222.54 259.463 222.894 258.827 223.209C252.714 226.229 244.526 225.507 235.528 220.312L156.718 174.811C137.794 163.886 122.453 137.315 122.453 115.464L122.454 24.462Z" fill="url(#paint4_linear_1078_2651)" fill-opacity="0.75"/>
<path d="M122.454 24.462C122.454 14.6408 125.553 7.44464 130.683 3.48986L100.835 20.3919L122.454 24.462Z" fill="#C4C4C4"/>
<path d="M122.454 24.462C122.454 14.6408 125.553 7.44464 130.683 3.48986L100.835 20.3919L122.454 24.462Z" fill="#FF835E"/>
<path d="M122.454 24.462C122.454 14.6408 125.553 7.44464 130.683 3.48986L100.835 20.3919L122.454 24.462Z" fill="url(#paint5_linear_1078_2651)" fill-opacity="0.75"/>
<path d="M258.827 223.209C252.714 226.229 244.526 225.507 235.528 220.312L230.416 239.407C238.529 234.791 253.572 226.224 258.827 223.209Z" fill="#C4C4C4"/>
<path d="M258.827 223.209C252.714 226.229 244.526 225.507 235.528 220.312L230.416 239.407C238.529 234.791 253.572 226.224 258.827 223.209Z" fill="#FF835E"/>
<path d="M258.827 223.209C252.714 226.229 244.526 225.507 235.528 220.312L230.416 239.407C238.529 234.791 253.572 226.224 258.827 223.209Z" fill="url(#paint6_linear_1078_2651)" fill-opacity="0.75"/>
<path d="M93.1777 41.0814C93.1777 19.2304 108.518 10.3736 127.442 21.2991L206.252 66.8C225.175 77.7255 240.516 104.296 240.516 126.147V217.149C240.516 239 225.175 247.857 206.252 236.931L127.442 191.43C108.518 180.505 93.1777 153.934 93.1777 132.083L93.1777 41.0814Z" fill="#C4C4C4"/>
<path d="M93.1777 41.0814C93.1777 19.2304 108.518 10.3736 127.442 21.2991L206.252 66.8C225.175 77.7255 240.516 104.296 240.516 126.147V217.149C240.516 239 225.175 247.857 206.252 236.931L127.442 191.43C108.518 180.505 93.1777 153.934 93.1777 132.083L93.1777 41.0814Z" fill="#FFB199"/>
<path d="M93.1777 41.0814C93.1777 19.2304 108.518 10.3736 127.442 21.2991L206.252 66.8C225.175 77.7255 240.516 104.296 240.516 126.147V217.149C240.516 239 225.175 247.857 206.252 236.931L127.442 191.43C108.518 180.505 93.1777 153.934 93.1777 132.083L93.1777 41.0814Z" fill="url(#paint7_linear_1078_2651)" fill-opacity="0.75"/>
<path fill-rule="evenodd" clip-rule="evenodd" d="M136.905 70.8754C125.684 64.3968 116.587 69.6488 116.587 82.6061L116.587 122.12C116.587 135.077 125.684 150.833 136.905 157.312L196.79 191.886C208.012 198.365 217.108 193.113 217.108 180.156L217.108 140.642C217.108 127.685 208.012 111.929 196.79 105.45L136.905 70.8754ZM129.421 128.329L205.622 172.324L205.622 167.324L129.421 123.329L129.421 128.329Z" fill="white"/>
<defs>
<filter id="filter0_f_1078_2651" x="95.0229" y="166.958" width="184.068" height="123.178" filterUnits="userSpaceOnUse" color-interpolation-filters="sRGB">
<feFlood flood-opacity="0" result="BackgroundImageFix"/>
<feBlend mode="normal" in="SourceGraphic" in2="BackgroundImageFix" result="shape"/>
<feGaussianBlur stdDeviation="10" result="effect1_foregroundBlur_1078_2651"/>
</filter>
<linearGradient id="paint0_linear_1078_2651" x1="102.121" y1="340.682" x2="176.058" y2="420.835" gradientUnits="userSpaceOnUse">
<stop stop-color="#CCD1D3" stop-opacity="0.36"/>
<stop offset="1" stop-color="#C3C6CA"/>
</linearGradient>
<linearGradient id="paint1_linear_1078_2651" x1="102.121" y1="340.682" x2="176.058" y2="420.835" gradientUnits="userSpaceOnUse">
<stop stop-color="#CCD1D3" stop-opacity="0.36"/>
<stop offset="1" stop-color="#C3C6CA"/>
</linearGradient>
<linearGradient id="paint2_linear_1078_2651" x1="102.121" y1="340.682" x2="176.058" y2="420.835" gradientUnits="userSpaceOnUse">
<stop stop-color="#CCD1D3" stop-opacity="0.36"/>
<stop offset="1" stop-color="#C3C6CA"/>
</linearGradient>
<linearGradient id="paint3_linear_1078_2651" x1="1.63229" y1="199.832" x2="300.56" y2="28.9108" gradientUnits="userSpaceOnUse">
<stop stop-color="#BDC6CB" stop-opacity="0.36"/>
<stop offset="1" stop-color="#B7BEC8"/>
</linearGradient>
<linearGradient id="paint4_linear_1078_2651" x1="265.082" y1="239.407" x2="195.878" y2="40.1172" gradientUnits="userSpaceOnUse">
<stop stop-color="#FF4810"/>
<stop offset="1" stop-color="#FFB950"/>
</linearGradient>
<linearGradient id="paint5_linear_1078_2651" x1="265.082" y1="239.407" x2="195.878" y2="40.1172" gradientUnits="userSpaceOnUse">
<stop stop-color="#FF4810"/>
<stop offset="1" stop-color="#FFB950"/>
</linearGradient>
<linearGradient id="paint6_linear_1078_2651" x1="265.082" y1="239.407" x2="195.878" y2="40.1172" gradientUnits="userSpaceOnUse">
<stop stop-color="#FF4810"/>
<stop offset="1" stop-color="#FFB950"/>
</linearGradient>
<linearGradient id="paint7_linear_1078_2651" x1="166.847" y1="229.128" x2="220.331" y2="64.8803" gradientUnits="userSpaceOnUse">
<stop stop-color="#FF4810"/>
<stop offset="1" stop-color="#FFB950"/>
</linearGradient>
</defs>
</svg>
