<svg width="402" height="370" viewBox="0 0 402 370" fill="none" xmlns="http://www.w3.org/2000/svg">
<path d="M19.2538 295.404C6.33134 287.943 -0.086307 278.149 0.000876605 268.37C0.0868917 258.723 6.50454 249.091 19.2538 241.73L63.563 216.148L129.204 178.25C154.876 163.428 196.498 163.428 222.17 178.25L301.178 223.865L332.121 241.73C344.87 249.091 351.288 258.723 351.374 268.37C351.461 278.149 345.043 287.943 332.121 295.404L222.17 358.884C196.498 373.705 154.876 373.705 129.204 358.884L19.2538 295.404Z" fill="#C4C4C4"/>
<path d="M19.2538 295.404C6.33134 287.943 -0.086307 278.149 0.000876605 268.37C0.0868917 258.723 6.50454 249.091 19.2538 241.73L63.563 216.148L129.204 178.25C154.876 163.428 196.498 163.428 222.17 178.25L301.178 223.865L332.121 241.73C344.87 249.091 351.288 258.723 351.374 268.37C351.461 278.149 345.043 287.943 332.121 295.404L222.17 358.884C196.498 373.705 154.876 373.705 129.204 358.884L19.2538 295.404Z" fill="white"/>
<path d="M19.2538 295.404C6.33134 287.943 -0.086307 278.149 0.000876605 268.37C0.0868917 258.723 6.50454 249.091 19.2538 241.73L63.563 216.148L129.204 178.25C154.876 163.428 196.498 163.428 222.17 178.25L301.178 223.865L332.121 241.73C344.87 249.091 351.288 258.723 351.374 268.37C351.461 278.149 345.043 287.943 332.121 295.404L222.17 358.884C196.498 373.705 154.876 373.705 129.204 358.884L19.2538 295.404Z" fill="url(#paint0_linear_1078_2583)" fill-opacity="0.3"/>
<path d="M0.000876605 268.37C0.0868917 258.723 6.50454 249.091 19.2538 241.73L63.563 216.148L0.000876605 237.937V268.37Z" fill="#C4C4C4"/>
<path d="M0.000876605 268.37C0.0868917 258.723 6.50454 249.091 19.2538 241.73L63.563 216.148L0.000876605 237.937V268.37Z" fill="white"/>
<path d="M0.000876605 268.37C0.0868917 258.723 6.50454 249.091 19.2538 241.73L63.563 216.148L0.000876605 237.937V268.37Z" fill="url(#paint1_linear_1078_2583)" fill-opacity="0.3"/>
<path d="M332.121 241.73C344.87 249.091 351.288 258.723 351.374 268.37V237.937L301.178 223.865L332.121 241.73Z" fill="#C4C4C4"/>
<path d="M332.121 241.73C344.87 249.091 351.288 258.723 351.374 268.37V237.937L301.178 223.865L332.121 241.73Z" fill="white"/>
<path d="M332.121 241.73C344.87 249.091 351.288 258.723 351.374 268.37V237.937L301.178 223.865L332.121 241.73Z" fill="url(#paint2_linear_1078_2583)" fill-opacity="0.3"/>
<path d="M19.2538 265.045C-6.41794 250.223 -6.41794 226.193 19.2538 211.371L129.204 147.891C154.876 133.069 196.498 133.069 222.17 147.891L332.121 211.371C357.793 226.193 357.793 250.223 332.121 265.045L222.17 328.525C196.498 343.346 154.876 343.346 129.204 328.525L19.2538 265.045Z" fill="#C4C4C4"/>
<path d="M19.2538 265.045C-6.41794 250.223 -6.41794 226.193 19.2538 211.371L129.204 147.891C154.876 133.069 196.498 133.069 222.17 147.891L332.121 211.371C357.793 226.193 357.793 250.223 332.121 265.045L222.17 328.525C196.498 343.346 154.876 343.346 129.204 328.525L19.2538 265.045Z" fill="white"/>
<path d="M19.2538 265.045C-6.41794 250.223 -6.41794 226.193 19.2538 211.371L129.204 147.891C154.876 133.069 196.498 133.069 222.17 147.891L332.121 211.371C357.793 226.193 357.793 250.223 332.121 265.045L222.17 328.525C196.498 343.346 154.876 343.346 129.204 328.525L19.2538 265.045Z" fill="url(#paint3_linear_1078_2583)" fill-opacity="0.15"/>
<g filter="url(#filter0_f_1078_2583)">
<rect width="141.222" height="95.8979" rx="29" transform="matrix(0.866025 -0.5 0.866025 0.5 76.7725 240.471)" fill="black" fill-opacity="0.08"/>
</g>
<rect width="72.3026" height="24.5148" transform="matrix(0.866025 0.5 -0.866025 0.5 204.189 8.08496)" fill="url(#paint4_linear_1078_2583)" fill-opacity="0.3"/>
<rect width="72.3026" height="24.5148" transform="matrix(0.866025 0.5 -0.866025 0.5 204.189 8.08496)" fill="white"/>
<rect width="72.3026" height="24.5148" transform="matrix(0.866025 0.5 -0.866025 0.5 204.189 8.08496)" fill="url(#paint5_linear_1078_2583)" fill-opacity="0.2"/>
<rect width="72.3026" height="24.5148" transform="matrix(0.866025 0.5 -0.866025 0.5 204.189 8.08496)" fill="#FFA68A"/>
<rect width="72.3026" height="24.5148" transform="matrix(0.866025 0.5 -0.866025 0.5 204.189 8.08496)" fill="url(#paint6_linear_1078_2583)" fill-opacity="0.4"/>
<path d="M266.807 199.782L266.807 44.2374L245.576 56.4948L245.577 212.039L266.807 199.782Z" fill="url(#paint7_linear_1078_2583)" fill-opacity="0.5"/>
<path d="M266.807 199.782L266.807 44.2374L245.576 56.4948L245.577 212.039L266.807 199.782Z" fill="white"/>
<path d="M266.807 199.782L266.807 44.2374L245.576 56.4948L245.577 212.039L266.807 199.782Z" fill="url(#paint8_linear_1078_2583)" fill-opacity="0.2"/>
<path d="M266.807 199.782L266.807 44.2374L245.576 56.4948L245.577 212.039L266.807 199.782Z" fill="#FF835E"/>
<path d="M266.807 199.782L266.807 44.2374L245.576 56.4948L245.577 212.039L266.807 199.782Z" fill="url(#paint9_linear_1078_2583)" fill-opacity="0.75"/>
<path d="M214.274 120.033L214.282 193.782L245.59 211.857L245.582 56.4931L182.966 20.3418L182.966 107.228L214.274 120.033Z" fill="url(#paint10_linear_1078_2583)" fill-opacity="0.4"/>
<path d="M214.274 120.033L214.282 193.782L245.59 211.857L245.582 56.4931L182.966 20.3418L182.966 107.228L214.274 120.033Z" fill="white"/>
<path d="M214.274 120.033L214.282 193.782L245.59 211.857L245.582 56.4931L182.966 20.3418L182.966 107.228L214.274 120.033Z" fill="url(#paint11_linear_1078_2583)" fill-opacity="0.6"/>
<path d="M214.274 120.033L214.282 193.782L245.59 211.857L245.582 56.4931L182.966 20.3418L182.966 107.228L214.274 120.033Z" fill="#FF835E"/>
<path d="M214.274 120.033L214.282 193.782L245.59 211.857L245.582 56.4931L182.966 20.3418L182.966 107.228L214.274 120.033Z" fill="url(#paint12_linear_1078_2583)" fill-opacity="0.75"/>
<rect width="72.3026" height="24.5148" transform="matrix(0.866025 0.5 -0.866025 0.5 176.087 54.0667)" fill="#C4C4C4"/>
<rect width="72.3026" height="24.5148" transform="matrix(0.866025 0.5 -0.866025 0.5 176.087 54.0667)" fill="white"/>
<rect width="72.3026" height="24.5148" transform="matrix(0.866025 0.5 -0.866025 0.5 176.087 54.0667)" fill="url(#paint13_linear_1078_2583)" fill-opacity="0.75"/>
<rect width="72.3026" height="24.5148" transform="matrix(0.866025 0.5 -0.866025 0.5 176.087 54.0667)" fill="white"/>
<rect width="72.3026" height="24.5148" transform="matrix(0.866025 0.5 -0.866025 0.5 176.087 54.0667)" fill="url(#paint14_linear_1078_2583)" fill-opacity="0.2"/>
<rect width="72.3026" height="24.5148" transform="matrix(0.866025 0.5 -0.866025 0.5 176.087 54.0667)" fill="#FFA68A"/>
<rect width="72.3026" height="24.5148" transform="matrix(0.866025 0.5 -0.866025 0.5 176.087 54.0667)" fill="url(#paint15_linear_1078_2583)" fill-opacity="0.4"/>
<path d="M238.716 215.926L238.715 90.2191L217.484 102.476L217.485 228.184L238.716 215.926Z" fill="#C4C4C4"/>
<path d="M238.716 215.926L238.715 90.2191L217.484 102.476L217.485 228.184L238.716 215.926Z" fill="white"/>
<path d="M238.716 215.926L238.715 90.2191L217.484 102.476L217.485 228.184L238.716 215.926Z" fill="url(#paint16_linear_1078_2583)" fill-opacity="0.75"/>
<path d="M238.716 215.926L238.715 90.2191L217.484 102.476L217.485 228.184L238.716 215.926Z" fill="white"/>
<path d="M238.716 215.926L238.715 90.2191L217.484 102.476L217.485 228.184L238.716 215.926Z" fill="url(#paint17_linear_1078_2583)" fill-opacity="0.2"/>
<path d="M238.716 215.926L238.715 90.2191L217.484 102.476L217.485 228.184L238.716 215.926Z" fill="#FF835E"/>
<path d="M238.716 215.926L238.715 90.2191L217.484 102.476L217.485 228.184L238.716 215.926Z" fill="url(#paint18_linear_1078_2583)" fill-opacity="0.75"/>
<path d="M210.138 223.681L217.5 228.134L217.484 102.475L154.868 66.3235L154.867 99.9359L210.117 131.507L210.138 223.681Z" fill="#C4C4C4"/>
<path d="M210.138 223.681L217.5 228.134L217.484 102.475L154.868 66.3235L154.867 99.9359L210.117 131.507L210.138 223.681Z" fill="#D3B5B5"/>
<path d="M210.138 223.681L217.5 228.134L217.484 102.475L154.868 66.3235L154.867 99.9359L210.117 131.507L210.138 223.681Z" fill="url(#paint19_linear_1078_2583)" fill-opacity="0.75"/>
<path d="M210.138 223.681L217.5 228.134L217.484 102.475L154.868 66.3235L154.867 99.9359L210.117 131.507L210.138 223.681Z" fill="white"/>
<path d="M210.138 223.681L217.5 228.134L217.484 102.475L154.868 66.3235L154.867 99.9359L210.117 131.507L210.138 223.681Z" fill="url(#paint20_linear_1078_2583)" fill-opacity="0.6"/>
<path d="M210.138 223.681L217.5 228.134L217.484 102.475L154.868 66.3235L154.867 99.9359L210.117 131.507L210.138 223.681Z" fill="#FF835E"/>
<path d="M210.138 223.681L217.5 228.134L217.484 102.475L154.868 66.3235L154.867 99.9359L210.117 131.507L210.138 223.681Z" fill="url(#paint21_linear_1078_2583)" fill-opacity="0.75"/>
<rect width="72.3026" height="24.5148" transform="matrix(0.866025 0.5 -0.866025 0.5 147.491 95.3571)" fill="url(#paint22_linear_1078_2583)" fill-opacity="0.3"/>
<rect width="72.3026" height="24.5148" transform="matrix(0.866025 0.5 -0.866025 0.5 147.491 95.3571)" fill="white"/>
<rect width="72.3026" height="24.5148" transform="matrix(0.866025 0.5 -0.866025 0.5 147.491 95.3571)" fill="url(#paint23_linear_1078_2583)" fill-opacity="0.2"/>
<rect width="72.3026" height="24.5148" transform="matrix(0.866025 0.5 -0.866025 0.5 147.491 95.3571)" fill="#FFA68A"/>
<rect width="72.3026" height="24.5148" transform="matrix(0.866025 0.5 -0.866025 0.5 147.491 95.3571)" fill="url(#paint24_linear_1078_2583)" fill-opacity="0.4"/>
<path d="M210.109 232.56L210.108 131.51L188.878 143.767L188.879 244.817L210.109 232.56Z" fill="url(#paint25_linear_1078_2583)" fill-opacity="0.5"/>
<path d="M210.109 232.56L210.108 131.51L188.878 143.767L188.879 244.817L210.109 232.56Z" fill="white"/>
<path d="M210.109 232.56L210.108 131.51L188.878 143.767L188.879 244.817L210.109 232.56Z" fill="url(#paint26_linear_1078_2583)" fill-opacity="0.2"/>
<path d="M210.109 232.56L210.108 131.51L188.878 143.767L188.879 244.817L210.109 232.56Z" fill="#FF835E"/>
<path d="M210.109 232.56L210.108 131.51L188.878 143.767L188.879 244.817L210.109 232.56Z" fill="url(#paint27_linear_1078_2583)" fill-opacity="0.75"/>
<path d="M177.926 171.907L177.921 238.344L188.879 244.699L188.884 143.765L126.268 107.614L126.268 142.138L177.926 171.907Z" fill="url(#paint28_linear_1078_2583)" fill-opacity="0.4"/>
<path d="M177.926 171.907L177.921 238.344L188.879 244.699L188.884 143.765L126.268 107.614L126.268 142.138L177.926 171.907Z" fill="white"/>
<path d="M177.926 171.907L177.921 238.344L188.879 244.699L188.884 143.765L126.268 107.614L126.268 142.138L177.926 171.907Z" fill="url(#paint29_linear_1078_2583)" fill-opacity="0.6"/>
<path d="M177.926 171.907L177.921 238.344L188.879 244.699L188.884 143.765L126.268 107.614L126.268 142.138L177.926 171.907Z" fill="#FF835E"/>
<path d="M177.926 171.907L177.921 238.344L188.879 244.699L188.884 143.765L126.268 107.614L126.268 142.138L177.926 171.907Z" fill="url(#paint30_linear_1078_2583)" fill-opacity="0.75"/>
<rect width="72.3026" height="24.5148" transform="matrix(0.866025 0.5 -0.866025 0.5 115.348 135.796)" fill="url(#paint31_linear_1078_2583)" fill-opacity="0.3"/>
<rect width="72.3026" height="24.5148" transform="matrix(0.866025 0.5 -0.866025 0.5 115.348 135.796)" fill="white"/>
<rect width="72.3026" height="24.5148" transform="matrix(0.866025 0.5 -0.866025 0.5 115.348 135.796)" fill="url(#paint32_linear_1078_2583)" fill-opacity="0.2"/>
<rect width="72.3026" height="24.5148" transform="matrix(0.866025 0.5 -0.866025 0.5 115.348 135.796)" fill="#FFA68A"/>
<rect width="72.3026" height="24.5148" transform="matrix(0.866025 0.5 -0.866025 0.5 115.348 135.796)" fill="url(#paint33_linear_1078_2583)" fill-opacity="0.4"/>
<path d="M177.966 251.591L177.965 171.949L156.735 184.206L156.736 263.849L177.966 251.591Z" fill="url(#paint34_linear_1078_2583)" fill-opacity="0.5"/>
<path d="M177.966 251.591L177.965 171.949L156.735 184.206L156.736 263.849L177.966 251.591Z" fill="white"/>
<path d="M177.966 251.591L177.965 171.949L156.735 184.206L156.736 263.849L177.966 251.591Z" fill="url(#paint35_linear_1078_2583)" fill-opacity="0.2"/>
<path d="M177.966 251.591L177.965 171.949L156.735 184.206L156.736 263.849L177.966 251.591Z" fill="#FF835E"/>
<path d="M177.966 251.591L177.965 171.949L156.735 184.206L156.736 263.849L177.966 251.591Z" fill="url(#paint36_linear_1078_2583)" fill-opacity="0.75"/>
<path d="M94.1109 227.607L156.727 263.758L156.74 184.204L94.1245 148.053L94.1109 227.607Z" fill="url(#paint37_linear_1078_2583)" fill-opacity="0.4"/>
<path d="M94.1109 227.607L156.727 263.758L156.74 184.204L94.1245 148.053L94.1109 227.607Z" fill="white"/>
<path d="M94.1109 227.607L156.727 263.758L156.74 184.204L94.1245 148.053L94.1109 227.607Z" fill="url(#paint38_linear_1078_2583)" fill-opacity="0.6"/>
<path d="M94.1109 227.607L156.727 263.758L156.74 184.204L94.1245 148.053L94.1109 227.607Z" fill="#FF835E"/>
<path d="M94.1109 227.607L156.727 263.758L156.74 184.204L94.1245 148.053L94.1109 227.607Z" fill="url(#paint39_linear_1078_2583)" fill-opacity="0.75"/>
<path d="M83.3616 141.848L149.297 27.6448M149.297 27.6448L117.375 46.0746M149.297 27.6448L149.297 64.5044" stroke="#ECEDEE" stroke-width="9"/>
<defs>
<filter id="filter0_f_1078_2583" x="71.4844" y="158.354" width="215.928" height="141.572" filterUnits="userSpaceOnUse" color-interpolation-filters="sRGB">
<feFlood flood-opacity="0" result="BackgroundImageFix"/>
<feBlend mode="normal" in="SourceGraphic" in2="BackgroundImageFix" result="shape"/>
<feGaussianBlur stdDeviation="10" result="effect1_foregroundBlur_1078_2583"/>
</filter>
<linearGradient id="paint0_linear_1078_2583" x1="95.6682" y1="342.534" x2="164.933" y2="417.622" gradientUnits="userSpaceOnUse">
<stop stop-color="#CCD1D3" stop-opacity="0.36"/>
<stop offset="1" stop-color="#C3C6CA"/>
</linearGradient>
<linearGradient id="paint1_linear_1078_2583" x1="95.6682" y1="342.534" x2="164.933" y2="417.622" gradientUnits="userSpaceOnUse">
<stop stop-color="#CCD1D3" stop-opacity="0.36"/>
<stop offset="1" stop-color="#C3C6CA"/>
</linearGradient>
<linearGradient id="paint2_linear_1078_2583" x1="95.6682" y1="342.534" x2="164.933" y2="417.622" gradientUnits="userSpaceOnUse">
<stop stop-color="#CCD1D3" stop-opacity="0.36"/>
<stop offset="1" stop-color="#C3C6CA"/>
</linearGradient>
<linearGradient id="paint3_linear_1078_2583" x1="1.52915" y1="210.586" x2="281.568" y2="50.4642" gradientUnits="userSpaceOnUse">
<stop stop-color="#BDC6CB" stop-opacity="0.36"/>
<stop offset="1" stop-color="#B7BEC8"/>
</linearGradient>
<linearGradient id="paint4_linear_1078_2583" x1="55.5284" y1="17.0407" x2="-131.181" y2="-134.996" gradientUnits="userSpaceOnUse">
<stop stop-color="#C9CFD2" stop-opacity="0.36"/>
<stop offset="1" stop-color="#B5BDC8"/>
</linearGradient>
<linearGradient id="paint5_linear_1078_2583" x1="5.70095" y1="-7.68683" x2="98.1252" y2="80.3204" gradientUnits="userSpaceOnUse">
<stop stop-color="#BDC6CB" stop-opacity="0.36"/>
<stop offset="1" stop-color="#B7BEC8"/>
</linearGradient>
<linearGradient id="paint6_linear_1078_2583" x1="263.69" y1="124.321" x2="120.145" y2="-72.4434" gradientUnits="userSpaceOnUse">
<stop stop-color="#EE5222"/>
<stop offset="1" stop-color="#FF9D66"/>
</linearGradient>
<linearGradient id="paint7_linear_1078_2583" x1="310.809" y1="31.3902" x2="371.874" y2="285.666" gradientUnits="userSpaceOnUse">
<stop stop-color="#BDC6CB" stop-opacity="0.36"/>
<stop offset="1" stop-color="#B7BEC8"/>
</linearGradient>
<linearGradient id="paint8_linear_1078_2583" x1="326.323" y1="22.1402" x2="413.577" y2="290.173" gradientUnits="userSpaceOnUse">
<stop stop-color="#BDC6CB" stop-opacity="0.36"/>
<stop offset="1" stop-color="#B7BEC8"/>
</linearGradient>
<linearGradient id="paint9_linear_1078_2583" x1="340.579" y1="245" x2="267.192" y2="81.9316" gradientUnits="userSpaceOnUse">
<stop stop-color="#EE5222"/>
<stop offset="1" stop-color="#FF9D66"/>
</linearGradient>
<linearGradient id="paint10_linear_1078_2583" x1="672.269" y1="126.694" x2="349.475" y2="406.487" gradientUnits="userSpaceOnUse">
<stop stop-color="#CCD1D3" stop-opacity="0.36"/>
<stop offset="1" stop-color="#C3C6CA"/>
</linearGradient>
<linearGradient id="paint11_linear_1078_2583" x1="243.151" y1="20.3418" x2="214.273" y2="155.682" gradientUnits="userSpaceOnUse">
<stop stop-color="#CCD1D3" stop-opacity="0.36"/>
<stop offset="1" stop-color="#C3C6CA"/>
</linearGradient>
<linearGradient id="paint12_linear_1078_2583" x1="272.941" y1="205.008" x2="315.471" y2="88.1769" gradientUnits="userSpaceOnUse">
<stop stop-color="#EE5222"/>
<stop offset="1" stop-color="#FF9559"/>
</linearGradient>
<linearGradient id="paint13_linear_1078_2583" x1="23.4817" y1="6.33539" x2="97.3276" y2="114.493" gradientUnits="userSpaceOnUse">
<stop stop-color="#FFA877"/>
<stop offset="1" stop-color="#FF0707"/>
</linearGradient>
<linearGradient id="paint14_linear_1078_2583" x1="5.70095" y1="-7.68683" x2="98.1252" y2="80.3204" gradientUnits="userSpaceOnUse">
<stop stop-color="#BDC6CB" stop-opacity="0.36"/>
<stop offset="1" stop-color="#B7BEC8"/>
</linearGradient>
<linearGradient id="paint15_linear_1078_2583" x1="263.69" y1="124.321" x2="120.145" y2="-72.4434" gradientUnits="userSpaceOnUse">
<stop stop-color="#EE5222"/>
<stop offset="1" stop-color="#FF9D66"/>
</linearGradient>
<linearGradient id="paint16_linear_1078_2583" x1="243.185" y1="143.921" x2="87.3092" y2="196.808" gradientUnits="userSpaceOnUse">
<stop stop-color="#FFA877"/>
<stop offset="1" stop-color="#FF0707"/>
</linearGradient>
<linearGradient id="paint17_linear_1078_2583" x1="288.091" y1="71.6234" x2="360.181" y2="288.929" gradientUnits="userSpaceOnUse">
<stop stop-color="#BDC6CB" stop-opacity="0.36"/>
<stop offset="1" stop-color="#B7BEC8"/>
</linearGradient>
<linearGradient id="paint18_linear_1078_2583" x1="294.758" y1="254.536" x2="234.933" y2="122.644" gradientUnits="userSpaceOnUse">
<stop stop-color="#EE5222"/>
<stop offset="1" stop-color="#FF9D66"/>
</linearGradient>
<linearGradient id="paint19_linear_1078_2583" x1="401.071" y1="160.375" x2="255.982" y2="312.457" gradientUnits="userSpaceOnUse">
<stop stop-color="#FFA877"/>
<stop offset="1" stop-color="#FF0707"/>
</linearGradient>
<linearGradient id="paint20_linear_1078_2583" x1="205.372" y1="67.3795" x2="179.691" y2="178.463" gradientUnits="userSpaceOnUse">
<stop stop-color="#CCD1D3" stop-opacity="0.36"/>
<stop offset="1" stop-color="#C3C6CA"/>
</linearGradient>
<linearGradient id="paint21_linear_1078_2583" x1="240.092" y1="222.866" x2="275.83" y2="127.906" gradientUnits="userSpaceOnUse">
<stop stop-color="#EE5222"/>
<stop offset="1" stop-color="#FF9559"/>
</linearGradient>
<linearGradient id="paint22_linear_1078_2583" x1="55.5284" y1="17.0407" x2="-131.181" y2="-134.996" gradientUnits="userSpaceOnUse">
<stop stop-color="#C9CFD2" stop-opacity="0.36"/>
<stop offset="1" stop-color="#B5BDC8"/>
</linearGradient>
<linearGradient id="paint23_linear_1078_2583" x1="5.70095" y1="-7.68683" x2="98.1252" y2="80.3204" gradientUnits="userSpaceOnUse">
<stop stop-color="#BDC6CB" stop-opacity="0.36"/>
<stop offset="1" stop-color="#B7BEC8"/>
</linearGradient>
<linearGradient id="paint24_linear_1078_2583" x1="263.69" y1="124.321" x2="120.145" y2="-72.4434" gradientUnits="userSpaceOnUse">
<stop stop-color="#EE5222"/>
<stop offset="1" stop-color="#FF9D66"/>
</linearGradient>
<linearGradient id="paint25_linear_1078_2583" x1="254.11" y1="118.662" x2="315.176" y2="372.938" gradientUnits="userSpaceOnUse">
<stop stop-color="#BDC6CB" stop-opacity="0.36"/>
<stop offset="1" stop-color="#B7BEC8"/>
</linearGradient>
<linearGradient id="paint26_linear_1078_2583" x1="251.106" y1="115.807" x2="310.578" y2="291.133" gradientUnits="userSpaceOnUse">
<stop stop-color="#BDC6CB" stop-opacity="0.36"/>
<stop offset="1" stop-color="#B7BEC8"/>
</linearGradient>
<linearGradient id="paint27_linear_1078_2583" x1="251.502" y1="265.709" x2="202.916" y2="159.59" gradientUnits="userSpaceOnUse">
<stop stop-color="#EE5222"/>
<stop offset="1" stop-color="#FF9D66"/>
</linearGradient>
<linearGradient id="paint28_linear_1078_2583" x1="615.57" y1="213.966" x2="292.777" y2="493.759" gradientUnits="userSpaceOnUse">
<stop stop-color="#CCD1D3" stop-opacity="0.36"/>
<stop offset="1" stop-color="#C3C6CA"/>
</linearGradient>
<linearGradient id="paint29_linear_1078_2583" x1="168.716" y1="109.546" x2="145.916" y2="200.183" gradientUnits="userSpaceOnUse">
<stop stop-color="#CCD1D3" stop-opacity="0.36"/>
<stop offset="1" stop-color="#C3C6CA"/>
</linearGradient>
<linearGradient id="paint30_linear_1078_2583" x1="207.51" y1="240.746" x2="237.426" y2="164.069" gradientUnits="userSpaceOnUse">
<stop stop-color="#EE5222"/>
<stop offset="1" stop-color="#FF9559"/>
</linearGradient>
<linearGradient id="paint31_linear_1078_2583" x1="55.5284" y1="17.0407" x2="-131.181" y2="-134.996" gradientUnits="userSpaceOnUse">
<stop stop-color="#C9CFD2" stop-opacity="0.36"/>
<stop offset="1" stop-color="#B5BDC8"/>
</linearGradient>
<linearGradient id="paint32_linear_1078_2583" x1="5.70095" y1="-7.68683" x2="98.1252" y2="80.3204" gradientUnits="userSpaceOnUse">
<stop stop-color="#BDC6CB" stop-opacity="0.36"/>
<stop offset="1" stop-color="#B7BEC8"/>
</linearGradient>
<linearGradient id="paint33_linear_1078_2583" x1="263.69" y1="124.321" x2="120.145" y2="-72.4434" gradientUnits="userSpaceOnUse">
<stop stop-color="#EE5222"/>
<stop offset="1" stop-color="#FF9D66"/>
</linearGradient>
<linearGradient id="paint34_linear_1078_2583" x1="221.967" y1="159.101" x2="283.033" y2="413.377" gradientUnits="userSpaceOnUse">
<stop stop-color="#BDC6CB" stop-opacity="0.36"/>
<stop offset="1" stop-color="#B7BEC8"/>
</linearGradient>
<linearGradient id="paint35_linear_1078_2583" x1="211.688" y1="158.759" x2="260.093" y2="297.562" gradientUnits="userSpaceOnUse">
<stop stop-color="#BDC6CB" stop-opacity="0.36"/>
<stop offset="1" stop-color="#B7BEC8"/>
</linearGradient>
<linearGradient id="paint36_linear_1078_2583" x1="206.639" y1="279.999" x2="167.854" y2="196.27" gradientUnits="userSpaceOnUse">
<stop stop-color="#EE5222"/>
<stop offset="1" stop-color="#FF9D66"/>
</linearGradient>
<linearGradient id="paint37_linear_1078_2583" x1="583.427" y1="254.405" x2="260.633" y2="534.198" gradientUnits="userSpaceOnUse">
<stop stop-color="#CCD1D3" stop-opacity="0.36"/>
<stop offset="1" stop-color="#C3C6CA"/>
</linearGradient>
<linearGradient id="paint38_linear_1078_2583" x1="129.606" y1="150.743" x2="109.566" y2="223.403" gradientUnits="userSpaceOnUse">
<stop stop-color="#CCD1D3" stop-opacity="0.36"/>
<stop offset="1" stop-color="#C3C6CA"/>
</linearGradient>
<linearGradient id="paint39_linear_1078_2583" x1="171.933" y1="260.943" x2="196.618" y2="200.174" gradientUnits="userSpaceOnUse">
<stop stop-color="#EE5222"/>
<stop offset="1" stop-color="#FF9559"/>
</linearGradient>
</defs>
</svg>
