<svg width="60" height="60" viewBox="0 0 60 60" fill="none" xmlns="http://www.w3.org/2000/svg">
<path d="M30 60C46.5685 60 60 46.5685 60 30C60 13.4315 46.5685 0 30 0C13.4315 0 0 13.4315 0 30C0 46.5685 13.4315 60 30 60Z" fill="white"/>
<path fill-rule="evenodd" clip-rule="evenodd" d="M6.13313 23.5478V21.771H8.31993V23.5478H6.13313ZM6.13313 31.6116V24.3295H8.31993V31.6089L6.13313 31.6116ZM45.0375 28.5487H40.1279C40.2181 29.3224 40.7767 29.9155 41.8529 29.9155C42.511 29.9335 43.1462 29.6656 43.6031 29.1774L44.9115 30.5551C44.24 31.3342 43.1759 31.8084 41.8595 31.8084C39.3529 31.8084 37.8787 30.3201 37.8787 27.9214C37.8787 25.7058 39.3012 24.0944 41.5543 24.0944C43.8075 24.0944 45.1171 25.509 45.1171 27.618C45.1241 27.9303 45.0975 28.2425 45.0375 28.5487ZM42.9397 27.1546C42.8905 26.3988 42.4023 25.8603 41.5623 25.8603C40.7223 25.8603 40.2353 26.3934 40.1319 27.1546H42.9397ZM48.7595 31.8016C47.6795 31.8016 46.3591 31.5105 45.3839 30.5538L46.6312 29.1734C47.2067 29.7299 47.9649 30.0423 48.7543 30.048C49.5159 30.048 49.8477 29.8444 49.8477 29.5328C49.8477 29.2963 49.6818 29.1624 49.2651 29.0339C48.9015 28.9219 48.3283 28.8234 47.8453 28.6772C46.7957 28.3615 45.7527 27.9118 45.7527 26.3852C45.75 24.9719 46.87 24.1054 48.7397 24.1054C49.7747 24.1054 50.9424 24.3227 51.9243 25.2193L50.6637 26.5656C50.1131 26.0188 49.3448 25.822 48.7224 25.822C48.1598 25.822 47.848 26.0257 47.848 26.3086C47.848 26.5437 48.0138 26.6817 48.4384 26.8239C48.8073 26.9455 49.4177 27.0644 49.8981 27.2052C50.9053 27.4977 51.9483 27.9392 51.9483 29.392C51.9535 31.0171 50.6199 31.803 48.7595 31.803V31.8016ZM15.0873 24.6152C14.533 23.9506 13.7161 23.5807 12.866 23.6092C11.9438 23.6092 11.4621 23.951 11.4621 24.4375C11.4621 25.0963 12.1906 25.3245 13.5852 25.7277C15.1165 26.1719 16.8561 26.6735 16.8561 28.7524C16.8561 30.8312 15.1789 31.792 13.0571 31.792C11.2671 31.792 9.80607 31.2658 8.8666 29.9592L10.4987 28.5652C11.1211 29.4276 12.0672 29.7788 13.0305 29.7788C14.1757 29.7788 14.5937 29.3688 14.5937 28.9246C14.5937 28.2795 13.9302 28.1223 12.3233 27.6617C10.6699 27.1874 9.2342 26.5314 9.2342 24.5182C9.2342 22.7509 10.6394 21.6001 12.9376 21.6001C14.3973 21.6001 15.7362 21.9992 16.7022 23.2402L15.0873 24.6152ZM37.0507 24.1901C37.4684 24.1732 37.872 24.3473 38.1534 24.6658L37.2763 26.5656C37.0584 26.3973 36.7922 26.3088 36.5199 26.3141C35.9626 26.3141 35.4849 26.8088 35.4849 27.7082V31.6089H33.2795V24.3295H35.4477V25.3505C35.8352 24.6521 36.3302 24.1901 37.0507 24.1901ZM24.3121 26.7022V31.6089H22.1346V27.495C22.1346 26.705 21.7233 26.2211 20.9961 26.2211C20.2689 26.2211 19.774 26.6872 19.774 27.5223V31.6089H17.5925V21.7682H19.774V25.3081C20.2845 24.5931 21.0979 24.175 21.9595 24.1846C23.2904 24.1846 24.3121 25.0812 24.3121 26.7022ZM32.567 29.921V31.464C32.1587 31.625 31.725 31.7066 31.2879 31.7046C30.6867 31.7046 30.083 31.5105 29.8003 30.793C29.3279 31.3396 28.4455 31.7592 27.445 31.7592C25.9854 31.7592 25.0473 30.9912 25.0473 29.5287C25.0473 28.0977 26.1725 27.2421 27.9108 27.2421C28.4879 27.2431 29.0627 27.3165 29.6225 27.4608V27.223C29.6225 26.403 29.1634 25.9191 28.212 25.9191C27.5706 25.939 26.9565 26.1911 26.4777 26.6312L25.2835 25.237C25.996 24.5728 27.1531 24.078 28.488 24.078C30.5447 24.078 31.7867 25.0976 31.7867 27.007V29.5574C31.7867 29.8308 31.9195 29.9674 32.2074 29.9674C32.33 29.967 32.452 29.9514 32.571 29.921H32.567ZM29.6239 28.6731C29.2243 28.5711 28.8147 28.5165 28.4031 28.5105C27.652 28.5105 27.2805 28.8904 27.2805 29.4112C27.2805 29.9046 27.6095 30.2613 28.2837 30.2613C28.9975 30.2613 29.6239 29.8212 29.6239 29.1542V28.6731ZM53.9983 30.9666C54.0115 31.1651 53.9403 31.3598 53.8029 31.4998C53.6655 31.6398 53.4757 31.711 53.2831 31.695C52.8293 31.695 52.5679 31.4025 52.5679 30.9666C52.5679 30.5306 52.8333 30.2367 53.2831 30.2367C53.476 30.2206 53.666 30.2921 53.8035 30.4324C53.9409 30.5726 54.012 30.7677 53.9983 30.9666ZM53.8815 30.9666C53.9029 30.733 53.794 30.507 53.6005 30.3834C53.4069 30.2598 53.162 30.2598 52.9684 30.3834C52.7748 30.507 52.6659 30.733 52.6873 30.9666C52.6873 31.3766 52.9327 31.598 53.2884 31.598C53.644 31.598 53.8815 31.3793 53.8815 30.9666ZM53.4277 31.0512L53.5604 31.3096H53.4171L53.2924 31.0718H53.1371V31.3096H53.0044V30.592H53.299C53.4702 30.592 53.5644 30.6822 53.5644 30.8217C53.5749 30.9213 53.5187 31.0158 53.4277 31.0512ZM53.4344 30.8299C53.4344 30.752 53.3932 30.7054 53.3017 30.7054H53.1358V30.9583H53.2831C53.3813 30.9583 53.4344 30.9269 53.4344 30.8299ZM14.7617 37.3137V34.3615H14.1089V37.3137H14.7617ZM25.6307 35.0517C24.999 35.0517 24.4629 35.4972 24.4629 36.2094C24.4629 36.9214 24.9937 37.3711 25.6307 37.3711C26.2676 37.3711 26.7983 36.9214 26.7983 36.2094C26.7983 35.4972 26.2583 35.0517 25.6307 35.0517ZM25.6307 36.7929C25.4837 36.7942 25.3431 36.7317 25.2433 36.6206C25.1435 36.5094 25.0938 36.3601 25.1065 36.2094C25.0735 35.9959 25.1655 35.7825 25.3414 35.6648C25.5173 35.547 25.744 35.547 25.9199 35.6648C26.0958 35.7825 26.1879 35.9959 26.1548 36.2094C26.1675 36.3601 26.1179 36.5094 26.0181 36.6206C25.9183 36.7317 25.7776 36.7942 25.6307 36.7929ZM13.3871 35.7638C13.6232 35.6561 13.7737 35.4132 13.7692 35.1474C13.7692 34.7168 13.4667 34.3615 12.7912 34.3615H11.4921V37.3137H12.8469C13.5263 37.3137 13.8528 36.9652 13.8528 36.4636C13.8659 36.1495 13.6761 35.8644 13.3871 35.7638ZM12.1729 34.9341H12.7129C12.9306 34.9341 13.0752 35.0339 13.0752 35.2334C13.0752 35.433 12.9452 35.5506 12.7077 35.5506H12.1676L12.1729 34.9341ZM12.7607 36.7424H12.1729V36.0972H12.7607C12.9956 36.0972 13.1363 36.2203 13.1363 36.4184C13.1363 36.6166 13.0023 36.7424 12.7554 36.7424H12.7607ZM19.5281 35.649C19.3477 35.2636 19.0132 35.049 18.5077 35.049C17.9092 35.049 17.3758 35.4357 17.3758 36.2011C17.3758 36.9665 17.8455 37.3629 18.4984 37.3629C18.9575 37.3629 19.3437 37.1743 19.5241 36.767L18.9933 36.4936C18.9062 36.6812 18.7186 36.7968 18.5169 36.7874C18.2157 36.7874 18.0167 36.5647 18.0167 36.2066C18.0167 35.8485 18.2409 35.6312 18.5117 35.6312C18.7158 35.6236 18.9028 35.748 18.9801 35.9428L19.5281 35.649ZM29.151 35.649C28.9705 35.2636 28.6362 35.049 28.1306 35.049C27.5322 35.049 26.9987 35.4357 26.9987 36.2011C26.9987 36.9665 27.4685 37.3629 28.1213 37.3629C28.5805 37.3629 28.9665 37.1743 29.1471 36.767L28.6163 36.4936C28.5291 36.6812 28.3415 36.7968 28.1399 36.7874C27.8387 36.7874 27.6397 36.5647 27.6397 36.2066C27.6397 35.8485 27.8639 35.6312 28.1346 35.6312C28.3387 35.6236 28.5258 35.748 28.603 35.9428L29.151 35.649ZM23.8313 36.182C24.1674 36.0343 24.3819 35.6903 24.3727 35.3141C24.3727 34.6772 23.9136 34.3574 23.2581 34.3574H22.0439V37.3096H22.7181V36.3173H23.1361L23.6787 37.3096H24.4603L23.8313 36.182ZM23.2196 35.7282H22.7181V34.9478H23.2196C23.5367 34.9478 23.6814 35.0844 23.6814 35.34C23.6827 35.5506 23.5328 35.735 23.2209 35.735L23.2196 35.7282ZM17.1649 36.8216C17.1297 36.8296 17.0931 36.8193 17.0667 36.7943C17.0403 36.7692 17.0274 36.7326 17.0321 36.6959V35.9305C17.0321 35.3592 16.6593 35.053 16.0422 35.053C15.6927 35.0528 15.3545 35.1807 15.0882 35.4139L15.4491 35.8239C15.5927 35.692 15.7769 35.6165 15.9693 35.6107C16.2545 35.6107 16.3925 35.757 16.3925 36.0016V36.0726C16.2246 36.0293 16.0521 36.0072 15.879 36.007C15.3575 36.007 15.0205 36.264 15.0205 36.6904C15.0205 37.1169 15.3018 37.3602 15.7397 37.3602C16.0038 37.3666 16.2589 37.2614 16.4456 37.069C16.52 37.2516 16.7015 37.3626 16.8928 37.3424C17.0238 37.3424 17.1538 37.3178 17.2763 37.27V36.8066C17.2407 36.8193 17.2037 36.8271 17.1661 36.8298L17.1649 36.8216ZM16.3912 36.5756C16.3912 36.7752 16.2041 36.9078 15.9931 36.9078C15.7821 36.9078 15.6933 36.8011 15.6933 36.6522C15.6933 36.5032 15.8047 36.3788 16.029 36.3788C16.1524 36.3807 16.2752 36.3968 16.3952 36.4266L16.3912 36.5756ZM31.4838 37.3054L30.7141 35.9318L31.4333 35.131H30.7075L29.9485 36.0002V34.3601H29.3103V37.3123H29.9578V36.7806L30.2683 36.4389L30.7539 37.311L31.4838 37.3054ZM21.8688 37.3054L21.0992 35.9318L21.8211 35.1228H21.0833L20.3336 35.992V34.3519H19.6873V37.3041H20.3336V36.7806L20.6427 36.4389L21.1284 37.311L21.8688 37.3054ZM9.79373 35.1186L9.40627 36.5606L8.93913 35.1296H8.23853L9.10107 37.3356C9.05007 37.459 8.92487 37.532 8.79587 37.5132C8.7052 37.512 8.61673 37.4841 8.54107 37.4326L8.30487 37.8946C8.45453 38.0024 8.63313 38.0592 8.81573 38.0572C9.30007 38.0572 9.58673 37.7838 9.7592 37.2645L10.4678 35.1296L9.79373 35.1186ZM7.28313 35.0257C7.05253 35.0224 6.82987 35.1127 6.66347 35.2772V34.3615H6V37.3137H6.64223V37.1155C6.80493 37.2897 7.0328 37.3829 7.2672 37.3711C7.8272 37.3711 8.25447 36.916 8.25447 36.1956C8.25447 35.4754 7.84447 35.0257 7.28313 35.0257ZM7.11067 36.7806C6.93773 36.7867 6.77213 36.7088 6.66347 36.5702V35.8471C6.76387 35.7032 6.924 35.6161 7.09607 35.6121C7.38267 35.6121 7.5976 35.8144 7.5976 36.197C7.5976 36.5797 7.40653 36.7806 7.11067 36.7806Z" fill="#2BA6E3"/>
</svg>
