<svg width="136" height="36" viewBox="0 0 136 36" fill="none" xmlns="http://www.w3.org/2000/svg">
<path d="M44.1586 25.4944H45.5641V33.0733H44.1586V25.4944ZM52.1652 27.8663C52.6057 28.2944 52.8225 28.926 52.8225 29.761V33.0733H51.4729V29.9365C51.4729 29.4312 51.354 29.0523 51.1163 28.7926C50.8785 28.54 50.5429 28.4067 50.1023 28.4067C49.6058 28.4067 49.2143 28.554 48.9276 28.8558C48.6409 29.1575 48.494 29.5856 48.494 30.147V33.0733H47.1444V27.2909H48.4311V28.0347C48.6548 27.7681 48.9345 27.5646 49.2702 27.4242C49.6058 27.2909 49.9904 27.2207 50.417 27.2207C51.1442 27.2207 51.7246 27.4312 52.1652 27.8593V27.8663ZM59.5004 27.2909L57.032 33.0733H55.6405L53.1721 27.2909H54.5776L56.3677 31.5786L58.2138 27.2909H59.5074H59.5004ZM65.2484 30.6172H60.7311C60.8081 31.0453 61.0178 31.3821 61.3535 31.6277C61.6891 31.8803 62.1017 31.9996 62.5982 31.9996C63.2275 31.9996 63.752 31.7891 64.1645 31.3681L64.8848 32.2032C64.6261 32.5119 64.2974 32.7505 63.9058 32.9049C63.5072 33.0663 63.0667 33.1435 62.5702 33.1435C61.9339 33.1435 61.3815 33.0172 60.899 32.7646C60.4165 32.5119 60.0459 32.161 59.7801 31.7119C59.5144 31.2628 59.3886 30.7505 59.3886 30.1821C59.3886 29.6137 59.5144 29.1084 59.7732 28.6593C60.0249 28.2102 60.3815 27.8593 60.836 27.6067C61.2906 27.354 61.801 27.2277 62.3674 27.2277C62.9338 27.2277 63.4303 27.354 63.8708 27.5996C64.3114 27.8453 64.661 28.1961 64.9058 28.6523C65.1505 29.1084 65.2764 29.6277 65.2764 30.2172C65.2764 30.3084 65.2694 30.4418 65.2554 30.6172H65.2484ZM61.2626 28.6944C60.9619 28.954 60.7801 29.2909 60.7172 29.7189H63.9827C63.9268 29.2979 63.745 28.9611 63.4513 28.7014C63.1576 28.4418 62.787 28.3084 62.3534 28.3084C61.9199 28.3084 61.5563 28.4347 61.2556 28.6944H61.2626ZM66.6469 32.9681C66.1994 32.8418 65.8428 32.6874 65.5771 32.5049L66.0945 31.4733C66.3532 31.6488 66.6679 31.7891 67.0245 31.8874C67.3881 31.9926 67.7448 32.0418 68.1014 32.0418C68.9056 32.0418 69.3111 31.8312 69.3111 31.4032C69.3111 31.1996 69.2062 31.0593 69.0035 30.9821C68.8007 30.9049 68.472 30.8277 68.0175 30.7575C67.542 30.6874 67.1574 30.6032 66.8567 30.5119C66.556 30.4207 66.2973 30.2523 66.0805 30.0207C65.8638 29.7891 65.7519 29.4593 65.7519 29.0382C65.7519 28.4909 65.9826 28.0488 66.4372 27.7189C66.8917 27.3891 67.514 27.2277 68.2902 27.2277C68.6888 27.2277 69.0804 27.2698 69.479 27.3611C69.8775 27.4523 70.1992 27.5716 70.4509 27.726L69.9335 28.7575C69.444 28.4698 68.8916 28.3225 68.2832 28.3225C67.8846 28.3225 67.5839 28.3786 67.3812 28.4979C67.1784 28.6172 67.0735 28.7716 67.0735 28.9681C67.0735 29.1856 67.1854 29.34 67.4021 29.4312C67.6189 29.5225 67.9615 29.6067 68.4231 29.6839C68.8846 29.754 69.2622 29.8382 69.5559 29.9365C69.8496 30.0277 70.1013 30.1891 70.3181 30.4137C70.5278 30.6382 70.6327 30.954 70.6327 31.3681C70.6327 31.9084 70.402 32.3435 69.9335 32.6663C69.465 32.9891 68.8286 33.1505 68.0245 33.1505C67.556 33.1505 67.1015 33.0874 66.6539 32.9681H66.6469ZM74.9332 32.7646C74.7724 32.8979 74.5836 32.9891 74.3598 33.0593C74.1361 33.1225 73.8913 33.1575 73.6396 33.1575C73.0032 33.1575 72.5208 32.9891 72.1711 32.6593C71.8285 32.3295 71.6537 31.8453 71.6537 31.2067V28.4277H70.7027V27.347H71.6537V26.0277H73.0032V27.347H74.5486V28.4277H73.0032V31.1786C73.0032 31.4593 73.0732 31.6768 73.206 31.8242C73.3389 31.9716 73.5417 32.0488 73.8004 32.0488C74.1011 32.0488 74.3528 31.9716 74.5556 31.8102L74.9332 32.7716V32.7646Z" fill="white"/>
<path d="M52.6476 9.71249V5.60021C52.6476 4.61074 53.2071 3.70547 54.0881 3.26337L57.8572 1.37565C57.8572 6.1967 57.8572 11.0178 57.8572 15.8318C57.8572 16.9195 57.7383 17.9792 57.3047 18.9897C56.6335 20.5616 55.4028 21.4669 53.8014 21.93C53.0532 22.1476 52.277 22.2599 51.5009 22.2739C50.3541 22.2949 49.487 22.2809 48.3402 22.2879C48.2982 22.2879 44.2705 22.2879 44.2075 22.2809V17.7195H50.5009C51.7386 17.6353 52.4449 16.8283 52.5847 15.5862C52.6267 15.2213 52.6476 14.8493 52.6476 14.4844V9.72653V9.71249ZM130.79 1.37565V13.1721C130.539 12.7371 124.28 1.37565 124.28 1.37565H119.071V22.2879H124.28V10.4914C124.35 10.6107 130.553 21.8669 130.79 22.2879H136V1.37565H130.79ZM68.2762 18.2107C66.1854 18.2107 65.0176 16.6107 65.0176 14.6178V1.37565H59.8081V13.1441C59.8081 15.4739 60.0738 17.8528 61.5493 19.7406C62.0877 20.4353 62.738 21.0458 63.4932 21.4879C64.696 22.1827 66.8637 22.5195 68.2762 22.5195C69.6887 22.5195 71.8565 22.1827 73.0592 21.4879C73.8214 21.0458 74.4647 20.4353 75.0031 19.7406C76.4786 17.8528 76.7443 15.4809 76.7443 13.1441V1.37565H71.5348V14.6107C71.5348 16.6037 70.374 18.2037 68.2762 18.2037V18.2107ZM103.792 15.6423L106.694 8.32302L109.596 15.6423H103.785H103.792ZM112.239 22.2949H117.763L109.47 1.38267H103.925L95.6315 22.2949H101.163L102.295 19.4458H111.12L112.253 22.2949H112.239ZM95.3168 13.909C95.0651 13.0458 94.6105 12.33 93.9602 11.7546C93.8553 11.6634 93.7504 11.5792 93.6386 11.4949C92.8484 10.9125 91.9673 10.5335 91.0233 10.309C89.7157 10.0002 88.3871 9.74758 87.0725 9.47389C86.3802 9.33354 85.3663 9.18618 84.7439 8.85635C84.3383 8.63881 84.0027 8.35109 83.8978 7.88793C83.8139 7.50898 83.8069 7.10898 83.8978 6.77214C84.0796 6.13354 84.5131 5.7546 85.3103 5.55811C86.4921 5.27039 87.8277 5.26337 89.0094 5.55811C90.0863 5.82477 90.5059 6.41425 90.5268 7.53705C90.5268 7.71951 90.5268 7.74758 90.5268 7.94407H95.6245C95.6245 7.34758 95.6315 6.91249 95.5755 6.33705C95.4007 4.53354 94.5126 3.20723 92.9533 2.33004C91.6107 1.57214 90.1352 1.30547 88.6318 1.18618C87.6948 1.116 86.6389 1.116 85.6949 1.18618C84.1845 1.29846 82.716 1.57214 81.3734 2.33004C79.8141 3.20723 78.919 4.53354 78.7512 6.33705C78.7162 6.70196 78.7092 7.01074 78.7092 7.33354C78.6953 8.10547 78.7932 8.84933 79.0099 9.59319C79.2547 10.4564 79.7162 11.1721 80.3595 11.7476C80.4644 11.8388 80.5693 11.923 80.6812 12.0072C81.4713 12.5897 82.3524 12.9686 83.2964 13.1932C84.611 13.502 85.9327 13.7546 87.2543 14.0283C87.9395 14.1686 89.0234 14.316 89.6527 14.6458C90.0583 14.8564 90.394 15.1511 90.4989 15.6142C90.5408 15.7897 90.5618 15.9651 90.5618 16.1335C90.5408 17.1651 90.1282 17.8458 89.0164 18.1195C87.8416 18.4072 86.4921 18.4072 85.3173 18.1195C84.2404 17.8528 83.8209 17.2634 83.7999 16.1406C83.7999 15.9581 83.7999 15.93 83.7999 15.7335H78.7023C78.7023 16.33 78.6953 16.7651 78.7512 17.3406C78.926 19.1371 79.8141 20.4704 81.3734 21.3476C82.716 22.1055 84.1915 22.3721 85.6949 22.4914C86.6319 22.5616 87.6878 22.5616 88.6318 22.4914C90.1422 22.3721 91.6107 22.1055 92.9533 21.3476C94.5126 20.4704 95.4077 19.1441 95.5755 17.3406C95.6874 16.1967 95.6384 15.0107 95.3168 13.909Z" fill="white"/>
<path d="M25.9847 0H9.88761C4.42635 0 0 4.44211 0 9.92281V26.0772C0 31.5579 4.42635 36 9.88761 36H25.9847C31.4459 36 35.8723 31.5579 35.8723 26.0772V9.92281C35.8723 4.44211 31.4459 0 25.9847 0ZM16.4397 25.1439C16.4397 26.2807 15.8034 27.3193 14.7895 27.8246L10.461 29.993V23.6C10.461 22.4632 11.0973 21.4246 12.1113 20.9193L16.4397 18.7509V25.1439ZM25.4113 20.6456C25.4113 21.7825 24.768 22.8211 23.761 23.3333L19.4326 25.5018V10.8561C19.4326 9.7193 20.0689 8.6807 21.0828 8.17544L25.4113 6.00702V20.6526V20.6456Z" fill="white"/>
</svg>
