<svg width="48" height="48" viewBox="0 0 48 48" fill="none" xmlns="http://www.w3.org/2000/svg">
<g clip-path="url(#clip0_20_602)">
<rect width="48" height="48" rx="15" fill="white"/>
<circle cx="16.6956" cy="35.4783" r="26.087" fill="url(#paint0_linear_20_602)"/>
<path fill-rule="evenodd" clip-rule="evenodd" d="M16.6956 61.5652C31.103 61.5652 42.7826 49.8857 42.7826 35.4783C42.7826 21.0708 31.103 9.3913 16.6956 9.3913C2.28817 9.3913 -9.39136 21.0708 -9.39136 35.4783C-9.39136 49.8857 2.28817 61.5652 16.6956 61.5652ZM16.6956 61.5652C18.8869 61.5652 21.026 61.2522 23.0608 60.7565C23.0689 60.6919 23.0745 60.6323 23.0799 60.5746C23.0919 60.4459 23.1031 60.3267 23.1391 60.1826C24.313 56.7391 25.1478 53.1913 25.7999 49.5913C22.7999 49.9304 19.7478 50.1652 16.6956 50.1652C13.6434 50.1652 10.6173 49.9304 7.59125 49.5913C8.24343 53.1913 9.10429 56.713 10.2521 60.1826C10.2835 60.3083 10.2866 60.4151 10.2897 60.5257C10.2918 60.5988 10.2939 60.6735 10.3043 60.7565C12.3652 61.2522 14.4782 61.5652 16.6956 61.5652ZM-9.39136 35.4783C-9.39136 37.6956 -9.07831 39.8087 -8.58266 41.8696C-8.49967 41.8799 -8.42493 41.882 -8.35188 41.8841C-8.24123 41.8873 -8.13445 41.8903 -8.00875 41.9217C-4.56527 43.0956 -1.01744 43.9304 2.58256 44.5826C1.93038 38.5304 1.93038 32.4261 2.58256 26.3739C-1.01744 27.0261 -4.53918 27.8869 -8.00875 29.0348C-8.15284 29.0708 -8.27205 29.0819 -8.40074 29.094C-8.45844 29.0994 -8.51805 29.105 -8.58266 29.113C-9.07831 31.1478 -9.39136 33.2869 -9.39136 35.4783ZM16.6956 9.3913C18.8869 9.3913 21.026 9.70434 23.0608 10.2C23.0689 10.2646 23.0745 10.3242 23.0799 10.3819C23.0919 10.5106 23.1031 10.6298 23.1391 10.7739C24.313 14.2435 25.1478 17.7913 25.7999 21.3652C19.7478 20.6869 13.6434 20.6869 7.59125 21.3652C8.24343 17.7913 9.07821 14.2174 10.2521 10.7739C10.2835 10.6482 10.2866 10.5414 10.2897 10.4308C10.2918 10.3577 10.2939 10.283 10.3043 10.2C12.3652 9.70434 14.4782 9.3913 16.6956 9.3913ZM30.2608 21.913C33.626 22.4869 36.9391 23.2956 40.226 24.2869C37.6434 18.8869 33.2869 14.5304 27.8869 11.9478C28.9043 15.2087 29.713 18.5478 30.2608 21.913ZM5.21734 58.7478C5.17169 58.7609 5.12603 58.7739 5.0869 58.7739C0.0260334 56.2696 -4.09571 52.1217 -6.62614 47.0609C-6.62614 47.0217 -6.6131 46.9761 -6.60005 46.9304C-6.58701 46.8848 -6.57397 46.8391 -6.57397 46.8C-3.39136 47.7391 -0.104402 48.4435 3.15647 48.9913C3.73038 52.2783 4.40864 55.5391 5.34777 58.7217C5.30866 58.7217 5.26297 58.7348 5.21734 58.7478ZM40.0173 47.0869C37.4347 52.2783 33.1304 56.4783 27.8869 59.0087C28.8782 55.6956 29.713 52.3565 30.2608 48.9913C33.5478 48.4435 36.7826 47.7391 39.9652 46.8C39.9495 46.8628 39.9715 46.9256 39.9916 46.9827C40.0049 47.0205 40.0173 47.0558 40.0173 47.0869ZM5.34777 12.2348C4.40864 15.4174 3.73038 18.6522 3.18256 21.9391C-0.182661 22.4609 -3.52179 23.2956 -6.83484 24.2869C-4.3044 19.0435 -0.104401 14.7391 5.0869 12.1565C5.12603 12.1565 5.17169 12.1761 5.21734 12.1956C5.26299 12.2152 5.30864 12.2348 5.34777 12.2348ZM41.9739 41.8696C42.4695 39.8087 42.7826 37.6956 42.7826 35.4783C42.7826 33.2869 42.4695 31.1739 41.9739 29.113C41.7652 29.113 41.6086 29.0869 41.3999 29.0348C37.9565 27.8609 34.3826 27.0261 30.8086 26.3739C31.4869 32.4261 31.4869 38.5304 30.8086 44.5826C34.3826 43.9304 37.9304 43.0696 41.3999 41.9217C41.5256 41.8903 41.6324 41.8873 41.7431 41.8841C41.8161 41.882 41.8909 41.8799 41.9739 41.8696ZM6.87821 45.2956C13.4028 46.1188 19.9884 46.1188 26.513 45.2956C27.3362 38.771 27.3362 32.1855 26.513 25.6609C19.9884 24.8377 13.4028 24.8377 6.87821 25.6609C6.05502 32.1855 6.05502 38.771 6.87821 45.2956Z" fill="url(#paint1_linear_20_602)"/>
</g>
<defs>
<linearGradient id="paint0_linear_20_602" x1="31.4404" y1="13.9282" x2="-9.39136" y2="58.7297" gradientUnits="userSpaceOnUse">
<stop stop-color="#96C0FF"/>
<stop offset="1" stop-color="#2B599E"/>
</linearGradient>
<linearGradient id="paint1_linear_20_602" x1="35.4102" y1="8.25708" x2="-5.98871" y2="59.8639" gradientUnits="userSpaceOnUse">
<stop stop-color="#E4EFFF"/>
<stop offset="1" stop-color="#094FB9"/>
</linearGradient>
<clipPath id="clip0_20_602">
<rect width="48" height="48" rx="15" fill="white"/>
</clipPath>
</defs>
</svg>
