<svg width="48" height="48" viewBox="0 0 48 48" fill="none" xmlns="http://www.w3.org/2000/svg">
<g clip-path="url(#clip0_20_581)">
<rect width="48" height="48" rx="15" fill="white"/>
<rect width="17.5789" height="5.96028" transform="matrix(0.866025 0.5 -0.866025 0.5 24.6548 5.44055)" fill="#C1FFF8"/>
<rect width="17.5789" height="5.96028" transform="matrix(0.866025 0.5 -0.866025 0.5 24.6548 5.44055)" fill="url(#paint0_linear_20_581)" fill-opacity="0.75"/>
<path d="M39.8784 56.3649L39.8782 14.2302L34.7164 17.2104L34.7166 59.345L39.8784 56.3649Z" fill="#AEEDE6"/>
<path d="M39.8784 56.3649L39.8782 14.2302L34.7164 17.2104L34.7166 59.345L39.8784 56.3649Z" fill="url(#paint1_linear_20_581)" fill-opacity="0.75"/>
<path d="M19.4923 50.6702L34.7161 59.4597L34.7162 17.2102L19.4924 8.42072L19.4923 50.6702Z" fill="#9FFFF4"/>
<path d="M19.4923 50.6702L34.7161 59.4597L34.7162 17.2102L19.4924 8.42072L19.4923 50.6702Z" fill="url(#paint2_linear_20_581)" fill-opacity="0.75"/>
<rect width="17.5789" height="5.96028" transform="matrix(0.866025 0.5 -0.866025 0.5 17.8289 16.6202)" fill="#C4C4C4"/>
<rect width="17.5789" height="5.96028" transform="matrix(0.866025 0.5 -0.866025 0.5 17.8289 16.6202)" fill="white"/>
<rect width="17.5789" height="5.96028" transform="matrix(0.866025 0.5 -0.866025 0.5 17.8289 16.6202)" fill="url(#paint3_linear_20_581)" fill-opacity="0.75"/>
<path d="M33.0524 67.5446L33.0522 25.4099L27.8905 28.3901L27.8907 70.5247L33.0524 67.5446Z" fill="#C4C4C4"/>
<path d="M33.0524 67.5446L33.0522 25.4099L27.8905 28.3901L27.8907 70.5247L33.0524 67.5446Z" fill="white"/>
<path d="M33.0524 67.5446L33.0522 25.4099L27.8905 28.3901L27.8907 70.5247L33.0524 67.5446Z" fill="url(#paint4_linear_20_581)" fill-opacity="0.75"/>
<path d="M12.6663 61.8499L27.8902 70.6394L27.8903 28.3899L12.6665 19.6004L12.6663 61.8499Z" fill="#C4C4C4"/>
<path d="M12.6663 61.8499L27.8902 70.6394L27.8903 28.3899L12.6665 19.6004L12.6663 61.8499Z" fill="#D3B5B5"/>
<path d="M12.6663 61.8499L27.8902 70.6394L27.8903 28.3899L12.6665 19.6004L12.6663 61.8499Z" fill="url(#paint5_linear_20_581)" fill-opacity="0.75"/>
<rect width="17.5789" height="5.96028" transform="matrix(0.866025 0.5 -0.866025 0.5 10.8706 26.6573)" fill="#C1FFF8"/>
<rect width="17.5789" height="5.96028" transform="matrix(0.866025 0.5 -0.866025 0.5 10.8706 26.6573)" fill="url(#paint6_linear_20_581)" fill-opacity="0.75"/>
<path d="M26.0942 77.5817L26.094 35.447L20.9322 38.4272L20.9324 80.5618L26.0942 77.5817Z" fill="#AEEDE6"/>
<path d="M26.0942 77.5817L26.094 35.447L20.9322 38.4272L20.9324 80.5618L26.0942 77.5817Z" fill="url(#paint7_linear_20_581)" fill-opacity="0.75"/>
<path d="M5.7081 71.887L20.9319 80.6765L20.9321 38.427L5.70825 29.6375L5.7081 71.887Z" fill="#9FFFF4"/>
<path d="M5.7081 71.887L20.9319 80.6765L20.9321 38.427L5.70825 29.6375L5.7081 71.887Z" fill="url(#paint8_linear_20_581)" fill-opacity="0.75"/>
<rect width="17.5789" height="5.96028" transform="matrix(0.866025 0.5 -0.866025 0.5 4.1748 35.3483)" fill="#C1FFF8"/>
<rect width="17.5789" height="5.96028" transform="matrix(0.866025 0.5 -0.866025 0.5 4.1748 35.3483)" fill="url(#paint9_linear_20_581)" fill-opacity="0.75"/>
<path d="M19.3984 86.2726L19.3982 44.1379L14.2364 47.1181L14.2366 89.2527L19.3984 86.2726Z" fill="#AEEDE6"/>
<path d="M19.3984 86.2726L19.3982 44.1379L14.2364 47.1181L14.2366 89.2527L19.3984 86.2726Z" fill="url(#paint10_linear_20_581)" fill-opacity="0.75"/>
<path d="M-0.9877 80.5779L14.2361 89.3674L14.2363 47.1179L-0.987549 38.3284L-0.9877 80.5779Z" fill="#9FFFF4"/>
<path d="M-0.9877 80.5779L14.2361 89.3674L14.2363 47.1179L-0.987549 38.3284L-0.9877 80.5779Z" fill="url(#paint11_linear_20_581)" fill-opacity="0.75"/>
<path d="M-4.7186 37.9614L11.3122 10.1953M11.3122 10.1953L3.55115 14.6761M11.3122 10.1953L11.3122 19.157" stroke="#919AA4" stroke-width="3"/>
</g>
<defs>
<linearGradient id="paint0_linear_20_581" x1="13.5006" y1="4.14312" x2="-31.894" y2="-32.8215" gradientUnits="userSpaceOnUse">
<stop stop-color="#9EC1D5" stop-opacity="0.36"/>
<stop offset="1" stop-color="#9FB1CB"/>
</linearGradient>
<linearGradient id="paint1_linear_20_581" x1="50.5764" y1="11.1067" x2="65.4232" y2="72.9288" gradientUnits="userSpaceOnUse">
<stop stop-color="#9EC1D5" stop-opacity="0.36"/>
<stop offset="1" stop-color="#9FB1CB"/>
</linearGradient>
<linearGradient id="paint2_linear_20_581" x1="138.457" y1="34.2781" x2="59.9758" y2="102.304" gradientUnits="userSpaceOnUse">
<stop stop-color="#9EC1D5" stop-opacity="0.36"/>
<stop offset="1" stop-color="#9FB1CB"/>
</linearGradient>
<linearGradient id="paint3_linear_20_581" x1="5.7091" y1="1.54032" x2="23.6633" y2="27.8366" gradientUnits="userSpaceOnUse">
<stop stop-color="#FFA877"/>
<stop offset="1" stop-color="#FF0707"/>
</linearGradient>
<linearGradient id="paint4_linear_20_581" x1="34.139" y1="38.4666" x2="-3.759" y2="51.3248" gradientUnits="userSpaceOnUse">
<stop stop-color="#FFA877"/>
<stop offset="1" stop-color="#FF0707"/>
</linearGradient>
<linearGradient id="paint5_linear_20_581" x1="72.5259" y1="42.4672" x2="37.2505" y2="79.4429" gradientUnits="userSpaceOnUse">
<stop stop-color="#FFA877"/>
<stop offset="1" stop-color="#FF0707"/>
</linearGradient>
<linearGradient id="paint6_linear_20_581" x1="13.5006" y1="4.14312" x2="-31.894" y2="-32.8215" gradientUnits="userSpaceOnUse">
<stop stop-color="#9EC1D5" stop-opacity="0.36"/>
<stop offset="1" stop-color="#9FB1CB"/>
</linearGradient>
<linearGradient id="paint7_linear_20_581" x1="36.7922" y1="32.3235" x2="51.639" y2="94.1456" gradientUnits="userSpaceOnUse">
<stop stop-color="#9EC1D5" stop-opacity="0.36"/>
<stop offset="1" stop-color="#9FB1CB"/>
</linearGradient>
<linearGradient id="paint8_linear_20_581" x1="124.672" y1="55.4949" x2="46.1916" y2="123.521" gradientUnits="userSpaceOnUse">
<stop stop-color="#9EC1D5" stop-opacity="0.36"/>
<stop offset="1" stop-color="#9FB1CB"/>
</linearGradient>
<linearGradient id="paint9_linear_20_581" x1="13.5006" y1="4.14312" x2="-31.894" y2="-32.8215" gradientUnits="userSpaceOnUse">
<stop stop-color="#9EC1D5" stop-opacity="0.36"/>
<stop offset="1" stop-color="#9FB1CB"/>
</linearGradient>
<linearGradient id="paint10_linear_20_581" x1="30.0964" y1="41.0144" x2="44.9432" y2="102.837" gradientUnits="userSpaceOnUse">
<stop stop-color="#9EC1D5" stop-opacity="0.36"/>
<stop offset="1" stop-color="#9FB1CB"/>
</linearGradient>
<linearGradient id="paint11_linear_20_581" x1="117.977" y1="64.1858" x2="39.4958" y2="132.212" gradientUnits="userSpaceOnUse">
<stop stop-color="#9EC1D5" stop-opacity="0.36"/>
<stop offset="1" stop-color="#9FB1CB"/>
</linearGradient>
<clipPath id="clip0_20_581">
<rect width="48" height="48" rx="15" fill="white"/>
</clipPath>
</defs>
</svg>
