<svg width="48" height="48" viewBox="0 0 48 48" fill="none" xmlns="http://www.w3.org/2000/svg">
<g clip-path="url(#clip0_20_607)">
<rect width="48" height="48" rx="15" fill="white"/>
<path d="M28.9949 0.843556L12.0291 -9.28615C7.18665 -12.0819 1.26636 -6.06844 1.26636 -0.494364L4.43186 7.79266L4.43186 9.81959C4.43186 15.3937 8.36194 22.1828 13.2044 24.9785L15.8361 26.498C16.3098 26.7715 16.9414 27.501 17.2397 28.1191L19.8715 33.6722C21.0294 36.1244 22.9243 37.2184 24.0823 36.1033L26.714 33.5891C27.0474 33.2749 27.5737 33.2747 28.1176 33.5887L28.9949 41.362C28.9949 43.2613 39.5219 41.362 39.5219 33.5887L39.5219 15.9308C39.5219 10.3567 33.8373 3.63933 28.9949 0.843556ZM14.9589 11.9246C13.9763 11.3573 13.2044 9.99949 13.2044 8.88467C13.2044 7.76986 13.9939 7.31357 14.9589 7.8707C15.9238 8.42782 16.7134 9.79578 16.7134 10.9106C16.7134 12.0254 15.9414 12.4918 14.9589 11.9246ZM21.9769 15.9764C20.9943 15.4092 20.2224 14.0513 20.2224 12.9365C20.2224 11.8217 21.0119 11.3654 21.9769 11.9225C22.9418 12.4797 23.7314 13.8476 23.7314 14.9624C23.7314 16.0773 22.9594 16.5437 21.9769 15.9764ZM28.9949 20.0283C28.0124 19.461 27.2404 18.1032 27.2404 16.9884C27.2404 15.8736 28.0299 15.4173 28.9949 15.9744C29.9598 16.5315 30.7494 17.8995 30.7494 19.0143C30.7494 20.1291 29.9774 20.5955 28.9949 20.0283Z" fill="#8AC0D0"/>
<path d="M28.9949 0.843556L12.0291 -9.28615C7.18665 -12.0819 1.26636 -6.06844 1.26636 -0.494364L4.43186 7.79266L4.43186 9.81959C4.43186 15.3937 8.36194 22.1828 13.2044 24.9785L15.8361 26.498C16.3098 26.7715 16.9414 27.501 17.2397 28.1191L19.8715 33.6722C21.0294 36.1244 22.9243 37.2184 24.0823 36.1033L26.714 33.5891C27.0474 33.2749 27.5737 33.2747 28.1176 33.5887L28.9949 41.362C28.9949 43.2613 39.5219 41.362 39.5219 33.5887L39.5219 15.9308C39.5219 10.3567 33.8373 3.63933 28.9949 0.843556ZM14.9589 11.9246C13.9763 11.3573 13.2044 9.99949 13.2044 8.88467C13.2044 7.76986 13.9939 7.31357 14.9589 7.8707C15.9238 8.42782 16.7134 9.79578 16.7134 10.9106C16.7134 12.0254 15.9414 12.4918 14.9589 11.9246ZM21.9769 15.9764C20.9943 15.4092 20.2224 14.0513 20.2224 12.9365C20.2224 11.8217 21.0119 11.3654 21.9769 11.9225C22.9418 12.4797 23.7314 13.8476 23.7314 14.9624C23.7314 16.0773 22.9594 16.5437 21.9769 15.9764ZM28.9949 20.0283C28.0124 19.461 27.2404 18.1032 27.2404 16.9884C27.2404 15.8736 28.0299 15.4173 28.9949 15.9744C29.9598 16.5315 30.7494 17.8995 30.7494 19.0143C30.7494 20.1291 29.9774 20.5955 28.9949 20.0283Z" fill="#BBC3CC"/>
<path d="M28.9949 0.843556L12.0291 -9.28615C7.18665 -12.0819 1.26636 -6.06844 1.26636 -0.494364L4.43186 7.79266L4.43186 9.81959C4.43186 15.3937 8.36194 22.1828 13.2044 24.9785L15.8361 26.498C16.3098 26.7715 16.9414 27.501 17.2397 28.1191L19.8715 33.6722C21.0294 36.1244 22.9243 37.2184 24.0823 36.1033L26.714 33.5891C27.0474 33.2749 27.5737 33.2747 28.1176 33.5887L28.9949 41.362C28.9949 43.2613 39.5219 41.362 39.5219 33.5887L39.5219 15.9308C39.5219 10.3567 33.8373 3.63933 28.9949 0.843556ZM14.9589 11.9246C13.9763 11.3573 13.2044 9.99949 13.2044 8.88467C13.2044 7.76986 13.9939 7.31357 14.9589 7.8707C15.9238 8.42782 16.7134 9.79578 16.7134 10.9106C16.7134 12.0254 15.9414 12.4918 14.9589 11.9246ZM21.9769 15.9764C20.9943 15.4092 20.2224 14.0513 20.2224 12.9365C20.2224 11.8217 21.0119 11.3654 21.9769 11.9225C22.9418 12.4797 23.7314 13.8476 23.7314 14.9624C23.7314 16.0773 22.9594 16.5437 21.9769 15.9764ZM28.9949 20.0283C28.0124 19.461 27.2404 18.1032 27.2404 16.9884C27.2404 15.8736 28.0299 15.4173 28.9949 15.9744C29.9598 16.5315 30.7494 17.8995 30.7494 19.0143C30.7494 20.1291 29.9774 20.5955 28.9949 20.0283Z" fill="#86CBCA"/>
<path d="M28.9949 0.843556L12.0291 -9.28615C7.18665 -12.0819 1.26636 -6.06844 1.26636 -0.494364L4.43186 7.79266L4.43186 9.81959C4.43186 15.3937 8.36194 22.1828 13.2044 24.9785L15.8361 26.498C16.3098 26.7715 16.9414 27.501 17.2397 28.1191L19.8715 33.6722C21.0294 36.1244 22.9243 37.2184 24.0823 36.1033L26.714 33.5891C27.0474 33.2749 27.5737 33.2747 28.1176 33.5887L28.9949 41.362C28.9949 43.2613 39.5219 41.362 39.5219 33.5887L39.5219 15.9308C39.5219 10.3567 33.8373 3.63933 28.9949 0.843556ZM14.9589 11.9246C13.9763 11.3573 13.2044 9.99949 13.2044 8.88467C13.2044 7.76986 13.9939 7.31357 14.9589 7.8707C15.9238 8.42782 16.7134 9.79578 16.7134 10.9106C16.7134 12.0254 15.9414 12.4918 14.9589 11.9246ZM21.9769 15.9764C20.9943 15.4092 20.2224 14.0513 20.2224 12.9365C20.2224 11.8217 21.0119 11.3654 21.9769 11.9225C22.9418 12.4797 23.7314 13.8476 23.7314 14.9624C23.7314 16.0773 22.9594 16.5437 21.9769 15.9764ZM28.9949 20.0283C28.0124 19.461 27.2404 18.1032 27.2404 16.9884C27.2404 15.8736 28.0299 15.4173 28.9949 15.9744C29.9598 16.5315 30.7494 17.8995 30.7494 19.0143C30.7494 20.1291 29.9774 20.5955 28.9949 20.0283Z" fill="#CE967D"/>
<path d="M26.3175 6.54135L8.7725 -3.58827C3.93008 -6.38404 -9.95794e-08 -4.13301 -2.22379e-07 1.44107L-4.89413e-07 13.5622L-5.34067e-07 15.5891C-6.56867e-07 21.1632 3.93008 27.9523 8.7725 30.748L11.4043 32.2675C11.878 32.541 12.5096 33.2705 12.8079 33.8886L15.4396 39.4417C16.5976 41.8939 18.4924 42.9879 19.6504 41.8728L22.2822 39.3586C22.6155 39.0443 23.1419 39.0442 23.6858 39.3582L26.3175 40.8777C31.1599 43.6734 35.09 41.4224 35.09 35.8483L35.09 21.7003C35.09 16.1262 31.1599 9.33712 26.3175 6.54135ZM10.527 17.6941C9.54449 17.1268 8.7725 15.769 8.7725 14.6542C8.7725 13.5393 9.56203 13.0831 10.527 13.6402C11.492 14.1973 12.2815 15.5653 12.2815 16.6801C12.2815 17.7949 11.5095 18.2613 10.527 17.6941ZM17.545 21.7459C16.5625 21.1786 15.7905 19.8208 15.7905 18.706C15.7905 17.5912 16.58 17.1349 17.545 17.692C18.51 18.2492 19.2995 19.6171 19.2995 20.7319C19.2995 21.8467 18.5275 22.3132 17.545 21.7459ZM24.563 25.7978C23.5805 25.2305 22.8085 23.8727 22.8085 22.7579C22.8085 21.643 23.598 21.1868 24.563 21.7439C25.528 22.301 26.3175 23.669 26.3175 24.7838C26.3175 25.8986 25.5455 26.365 24.563 25.7978Z" fill="url(#paint0_linear_20_607)"/>
<path d="M8.77271 14.6542C8.77271 15.769 9.54469 17.1268 10.5272 17.6941C11.5097 18.2613 12.2817 17.7949 12.2817 16.6801C12.2817 15.5653 11.4922 14.1973 10.5272 13.6402C9.56223 13.0831 8.77271 13.5394 8.77271 14.6542Z" fill="white"/>
<path d="M15.7907 18.706C15.7907 19.8208 16.5627 21.1787 17.5452 21.7459C18.5277 22.3132 19.2997 21.8468 19.2997 20.7319C19.2997 19.6171 18.5102 18.2492 17.5452 17.692C16.5802 17.1349 15.7907 17.5912 15.7907 18.706Z" fill="white"/>
<path d="M22.8087 22.7579C22.8087 23.8727 23.5807 25.2305 24.5632 25.7978C25.5457 26.365 26.3177 25.8986 26.3177 24.7838C26.3177 23.669 25.5282 22.301 24.5632 21.7439C23.5982 21.1868 22.8087 21.6431 22.8087 22.7579Z" fill="white"/>
</g>
<defs>
<linearGradient id="paint0_linear_20_607" x1="27.0244" y1="35.5901" x2="-22.6492" y2="6.97163" gradientUnits="userSpaceOnUse">
<stop stop-color="#FFA877"/>
<stop offset="1" stop-color="#FF0707"/>
</linearGradient>
<clipPath id="clip0_20_607">
<rect width="48" height="48" rx="15" fill="white"/>
</clipPath>
</defs>
</svg>
