<svg width="300" height="300" viewBox="0 0 300 300" fill="none" xmlns="http://www.w3.org/2000/svg">
<g clip-path="url(#clip0_655_2055)">
<path d="M27.526 68.9244C35.3865 51.1025 52.8893 39.3221 75.1629 36.294C97.0558 33.3093 113.129 53.8133 137.458 63.2651C157.202 70.9433 176.415 69.5157 196.095 76.4873C214.87 83.142 233.098 95.9969 245.672 112.377C262.068 133.717 264.77 155.058 262.111 175.201C260.466 187.667 257.8 199.397 251.24 209.165C236.676 230.794 207.297 236.613 174.705 221.739C162.289 216.051 150.348 208.409 138.578 200.68C109.314 181.431 80.4295 161.445 51.3876 141.785C46.1497 138.238 40.8112 134.575 36.5074 130.004C29.5235 122.514 26.0459 113.271 24.3359 104.677C21.7061 91.1664 23.0569 79.0543 27.526 68.9244Z" fill="#FE5000" fill-opacity="0.1"/>
<path d="M144.111 283.2C224.805 283.2 290.221 279.381 290.221 274.67C290.221 269.958 224.805 266.139 144.111 266.139C63.416 266.139 -2 269.958 -2 274.67C-2 279.381 63.416 283.2 144.111 283.2Z" fill="#F5F5F5"/>
<path d="M176.089 50.5185C171.567 44.3995 172.615 39.0566 176.089 35.2134C180.422 30.3905 187.498 30.4282 192.215 32.8924C199.6 36.7431 201.19 53.6157 188.854 55.997C184.477 54.4689 180.212 52.6383 176.089 50.5185Z" fill="#263238"/>
<path d="M190.776 33.9553C195.297 31.2952 194.039 26.1332 198.123 23.4052C203.805 19.6373 216.051 21.2726 212.222 30.6923C208.394 40.112 222.019 40.6546 218.063 50.014C214.106 59.3734 202.614 65.0857 199.661 51.5211C197.453 41.3554 206.834 28.2583 199.261 29.6674C194.536 30.5416 192.961 35.4021 192.961 35.4021L190.776 33.9553Z" fill="#263238"/>
<path d="M179.541 73.8492C178.923 75.5598 178.252 77.1126 177.536 78.7176C176.82 80.3226 176.029 81.8676 175.2 83.412C173.531 86.6544 171.435 89.6574 168.967 92.3424C168.262 93.0936 167.488 93.7776 166.654 94.3842C165.83 94.9692 164.952 95.4738 164.032 95.8914C162.337 96.6498 160.569 97.2354 158.757 97.6398C155.323 98.433 151.806 98.8146 148.282 98.7774C147.886 98.7714 147.507 98.6214 147.213 98.3568C146.92 98.0916 146.732 97.7292 146.685 97.3368C146.638 96.9438 146.735 96.5472 146.958 96.2208C147.181 95.8944 147.515 95.6592 147.898 95.5596H147.973C151.126 94.8228 154.229 93.8892 157.264 92.7642C158.692 92.2326 160.073 91.5846 161.394 90.8274C161.983 90.4902 162.543 90.1044 163.067 89.6742C163.575 89.2494 164.044 88.7808 164.469 88.2726C165.439 87.126 166.314 85.9008 167.084 84.6102C167.898 83.2764 168.681 81.8976 169.405 80.4582C170.836 77.61 172.193 74.565 173.361 71.6412V71.5962C173.671 70.7838 174.291 70.1274 175.084 69.7722C175.878 69.417 176.78 69.3912 177.592 69.7008C178.405 70.011 179.061 70.6308 179.416 71.424C179.772 72.2178 179.797 73.1196 179.488 73.932L179.541 73.8492Z" fill="#FFBE9D"/>
<path d="M178.561 68.2726C172.336 68.9812 168.907 78.3178 168.907 78.3178L175.282 87.3004C175.282 87.3004 182.818 78.7624 183.474 74.9494C184.129 71.023 183.157 67.738 178.561 68.2726Z" fill="#263238"/>
<path opacity="0.2" d="M175.154 73.9847C177.242 72.6737 179.517 73.3973 181.454 75.8309C181.854 76.5299 182.123 77.2961 182.245 78.0917C180.362 81.5057 175.275 87.2933 175.275 87.2933L172.358 83.1863C172.14 80.7593 173.806 74.7911 175.154 73.9847Z" fill="black"/>
<path d="M149.42 95.8914L144.725 93.3594L144.597 99.4782C144.597 99.4782 147.732 100.157 149.804 98.484L149.42 95.8914Z" fill="#B55B52"/>
<path d="M140.015 93.5706L140.837 98.5668L144.627 99.4782L144.755 93.3594L140.015 93.5706Z" fill="#B55B52"/>
<path d="M163.678 82.5608L159.563 79.1846L131.53 121.302L135.682 124.678C140.414 128.551 150.52 122.267 158.289 110.632C166.058 98.9966 168.41 86.4344 163.678 82.5608Z" fill="#FE5000"/>
<path opacity="0.1" d="M163.678 82.5608L159.563 79.1846L131.53 121.302L135.682 124.678C140.414 128.551 150.52 122.267 158.289 110.632C166.058 98.9966 168.41 86.4344 163.678 82.5608Z" fill="black"/>
<path d="M154.848 106.127C162.326 94.3068 164.227 82.0902 159.092 78.8418C153.956 75.5928 143.731 82.542 136.252 94.3632C128.774 106.184 126.874 118.4 132.009 121.649C137.144 124.898 147.369 117.949 154.848 106.127Z" fill="#FE5000"/>
<path d="M140.346 107.15L144.114 101.468C143.732 100.303 143.713 99.0491 144.062 97.8731C144.493 96.3911 145.163 94.9889 146.044 93.7211C146.839 92.4401 147.878 91.3289 149.103 90.4505C150.151 89.7575 151.048 89.5913 151.778 89.9531L152.698 88.5815L153.497 89.2373L152.593 90.6161C152.838 91.0001 153.002 91.4303 153.074 91.8803C153.147 92.3297 153.127 92.7899 153.014 93.2315C152.721 94.5611 152.211 95.8337 151.507 96.9989L149.812 96.3059C150.339 95.5019 150.602 94.5539 150.565 93.5927L147.031 98.8679C147.517 100.063 147.617 101.381 147.317 102.636C146.357 105.649 144.52 108.306 142.042 110.27C140.897 111.064 139.879 111.292 138.99 110.956L138.078 112.327L137.279 111.671L138.146 110.368C137.876 109.919 137.703 109.42 137.637 108.901C137.57 108.382 137.613 107.855 137.762 107.353C138.17 105.673 138.841 104.068 139.751 102.598L141.485 103.427C141.101 104.105 140.792 104.822 140.565 105.568C140.402 106.078 140.327 106.613 140.346 107.15ZM149.826 92.8769C149.406 92.9183 149.01 93.0923 148.696 93.3743C147.822 94.0973 147.176 95.0579 146.835 96.1403C146.68 96.6005 146.636 97.0913 146.707 97.5719L149.826 92.8769ZM141.025 107.948C141.257 107.984 141.493 107.967 141.717 107.899C141.941 107.831 142.148 107.714 142.321 107.557C143.399 106.718 144.188 105.564 144.582 104.256C144.733 103.732 144.719 103.175 144.544 102.659L141.025 107.948Z" fill="white"/>
<path opacity="0.1" d="M158.327 93.1638C158.885 89.4708 158.327 86.5092 156.579 85.0548C152.728 81.8976 144.521 87.0216 138.184 96.4944C135.52 100.396 133.554 104.731 132.374 109.305C133.022 104.98 135.17 99.6516 138.568 94.5348C144.876 85.0626 153.112 79.9458 156.963 83.0958C159.043 84.7914 159.419 88.5666 158.327 93.1638Z" fill="black"/>
<path d="M212.961 233.653L206.631 234.256L203.406 219.508L209.736 218.905L212.961 233.653Z" fill="#FFBE9D"/>
<path d="M248.221 224.534L242.336 226.84L236.661 212.854L242.546 210.548L248.221 224.534Z" fill="#FFBE9D"/>
<path d="M240.625 223.946L247.076 220.736C247.187 220.681 247.314 220.667 247.434 220.698C247.554 220.729 247.66 220.801 247.731 220.902L251.002 225.642C251.084 225.764 251.14 225.904 251.164 226.05C251.189 226.196 251.181 226.346 251.143 226.489C251.104 226.631 251.035 226.765 250.94 226.879C250.846 226.993 250.728 227.085 250.595 227.149C248.334 228.234 247.339 228.769 244.498 230.164C242.75 231.03 238.854 233.072 236.443 234.271C234.031 235.469 232.72 233.147 233.617 232.432C237.633 229.229 238.96 226.81 239.841 224.783C239.996 224.421 240.274 224.125 240.625 223.946Z" fill="#263238"/>
<path d="M205.395 230.97H213.007C213.142 230.97 213.274 231.016 213.382 231.098C213.49 231.182 213.567 231.298 213.602 231.43L215.26 237.458C215.301 237.6 215.308 237.75 215.281 237.896C215.254 238.042 215.192 238.178 215.102 238.296C215.012 238.414 214.895 238.508 214.762 238.572C214.628 238.636 214.481 238.667 214.333 238.664C211.673 238.619 210.399 238.664 207.053 238.664H196.835C194.054 238.664 193.444 235.846 194.574 235.597C199.736 234.451 202.712 232.876 204.302 231.377C204.6 231.104 204.992 230.958 205.395 230.97Z" fill="#263238"/>
<path opacity="0.2" d="M203.413 219.515L205.071 227.111H211.537L209.743 218.905L203.413 219.515Z" fill="black"/>
<path opacity="0.2" d="M242.546 210.556L236.661 212.861L239.593 220.066L245.47 217.76L242.546 210.556Z" fill="black"/>
<path d="M197.882 61.905C202.916 61.3248 206.171 63.7212 206.398 68.7474C207.061 86.4642 209.02 90.5412 211.982 99.7044L186.88 106.69C177.958 87.3684 174.823 78.258 173.828 73.9698C173.621 72.9732 173.746 71.9364 174.185 71.0178C174.623 70.0992 175.35 69.3498 176.255 68.8836C182.936 65.1612 190.285 62.7906 197.882 61.905Z" fill="#263238"/>
<path d="M190.249 50.0288C190.55 53.8946 191.552 60.5789 194.77 62.3495C194.77 62.3495 194.295 64.7387 185.975 72.7037C180.844 68.3783 183.466 65.4773 183.466 65.4773C187.287 63.3593 186.39 60.6017 184.883 57.9413L190.249 50.0288Z" fill="#FFBE9D"/>
<path opacity="0.2" d="M189.668 50.8955C190.217 53.0925 190.294 55.3809 189.894 57.6099C189.608 59.117 187.965 60.2622 186.127 60.918C185.876 59.8711 185.464 58.8695 184.906 57.949L189.668 50.8955Z" fill="black"/>
<path d="M191.725 42.7265C192.954 48.9737 193.609 51.5886 191.333 55.5373C187.905 61.5058 179.962 61.6564 176.888 55.899C174.122 50.722 172.57 41.3777 177.95 37.3536C179.134 36.4619 180.525 35.8876 181.993 35.6853C183.461 35.4831 184.956 35.6595 186.337 36.198C187.717 36.7364 188.936 37.6188 189.88 38.7615C190.823 39.9042 191.458 41.2691 191.725 42.7265Z" fill="#FFBE9D"/>
<path d="M194.989 46.5321C195.08 47.1344 195.052 47.749 194.904 48.3401C194.756 48.9313 194.493 49.4873 194.129 49.976C193.15 51.2797 191.672 50.6467 191.115 49.2224C190.618 47.9263 190.52 45.6806 191.906 44.8969C192.209 44.7305 192.55 44.6421 192.896 44.6397C193.241 44.6373 193.583 44.7209 193.888 44.8831C194.194 45.0452 194.455 45.2809 194.647 45.5687C194.839 45.8566 194.956 46.1876 194.989 46.5321Z" fill="#B55B52"/>
<path d="M186.247 39.4185C186.013 41.8073 187.927 45.8917 191.522 46.8412C195.245 42.5609 192.788 36.6905 189.367 36.57C185.945 36.4494 186.247 39.4185 186.247 39.4185Z" fill="#263238"/>
<path d="M181.228 32.9077C175.735 33.1564 169.841 35.6055 171.884 44.2113C176.677 43.2091 190.015 41.717 191.039 38.2957C189.691 33.9024 184.83 32.7419 181.228 32.9077Z" fill="#263238"/>
<path d="M186.88 106.69C186.88 106.69 185.418 157.391 189.495 176.524C193.723 196.434 203.27 224.889 203.27 224.889L212.238 224.308C212.238 224.308 206.443 187.104 204.702 171.754C202.245 150.594 205.297 101.559 205.297 101.559L186.88 106.69Z" fill="#FE5000"/>
<path opacity="0.2" d="M199.51 122.545C199.917 117.949 203.383 118.83 204.16 125.055C203.82 134.851 203.579 146.223 203.775 156.178C200.038 148.875 198.583 133.005 199.51 122.545Z" fill="black"/>
<path d="M213.376 224.889L202.577 225.619L201.077 220.555L212.765 219.319L213.376 224.889Z" fill="#263238"/>
<path d="M195.734 104.226C195.734 104.226 203.375 146.728 213.752 169.599C222.132 188.069 237.317 217.828 237.317 217.828L245.553 214.746C245.553 214.746 232.675 180.963 228.017 167.971C216.42 135.567 222.743 115.899 211.981 99.7046L195.734 104.226Z" fill="#FE5000"/>
<path d="M246.526 215.529L237.023 218.838L234.317 213.969L245.629 211.166L246.526 215.529Z" fill="#263238"/>
<path d="M211.944 98.1522L213.707 100.089C213.843 100.24 213.707 100.473 213.391 100.549L187.069 107.881C186.842 107.941 186.624 107.881 186.571 107.745L185.719 105.56C185.659 105.409 185.818 105.221 186.066 105.153L211.484 98.0766C211.561 98.0472 211.643 98.0388 211.724 98.052C211.805 98.0652 211.881 98.1 211.944 98.1522Z" fill="#263238"/>
<path d="M209.321 101.92L210.007 101.724C210.143 101.686 210.226 101.588 210.188 101.506L209.057 98.6795C209.057 98.5967 208.892 98.5589 208.756 98.5967L208.071 98.7851C207.935 98.7851 207.852 98.9207 207.882 99.0035L209.02 101.837C209.05 101.92 209.186 101.958 209.321 101.92Z" fill="#FE5000"/>
<path d="M189.051 107.556L189.736 107.368C189.864 107.368 189.955 107.232 189.917 107.15L188.787 104.324C188.787 104.241 188.613 104.203 188.478 104.241L187.8 104.429C187.664 104.429 187.581 104.565 187.611 104.648L188.742 107.481C188.779 107.564 188.915 107.594 189.051 107.556Z" fill="#FE5000"/>
<path d="M199.186 104.738L199.871 104.55C200.007 104.512 200.09 104.414 200.053 104.332L198.922 101.498C198.922 101.415 198.749 101.377 198.613 101.415L197.935 101.603C197.799 101.603 197.716 101.747 197.747 101.83L198.884 104.656C198.914 104.738 199.05 104.776 199.186 104.738Z" fill="#FE5000"/>
<path d="M182.848 46.9093C182.977 47.4142 182.848 47.8889 182.494 47.9718C182.14 48.0547 181.793 47.7231 181.665 47.2183C181.537 46.7134 181.665 46.2462 182.02 46.1557C182.374 46.0653 182.721 46.3893 182.848 46.9093Z" fill="#263238"/>
<path d="M177.189 48.3713C177.325 48.8686 177.189 49.3434 176.835 49.4338C176.481 49.5242 176.134 49.1775 176.006 48.6802C175.878 48.1829 176.006 47.7006 176.36 47.6177C176.715 47.5348 177.061 47.8664 177.189 48.3713Z" fill="#263238"/>
<path d="M176.511 47.61L175.222 47.5723C175.222 47.5723 176.081 48.356 176.511 47.61Z" fill="#263238"/>
<path d="M178.915 48.8384C178.767 50.0968 178.447 51.329 177.965 52.5007C178.268 52.6165 178.592 52.6645 178.915 52.641C179.238 52.6175 179.552 52.5233 179.834 52.3651L178.915 48.8384Z" fill="#A02724"/>
<path d="M182.05 53.8798C182.021 53.8748 181.994 53.8614 181.972 53.8413C181.951 53.8213 181.936 53.7954 181.929 53.7668C181.924 53.748 181.922 53.7283 181.924 53.7088C181.926 53.6893 181.933 53.6704 181.942 53.6535C181.952 53.6365 181.966 53.6218 181.981 53.6101C181.997 53.5986 182.015 53.5903 182.035 53.586C182.661 53.4376 183.244 53.1431 183.735 52.7267C184.226 52.3102 184.612 51.7835 184.861 51.1896C184.867 51.17 184.876 51.1518 184.889 51.1361C184.903 51.1204 184.919 51.1076 184.937 51.0984C184.955 51.0892 184.976 51.0839 184.996 51.0828C185.017 51.0816 185.037 51.0846 185.056 51.0917C185.093 51.1053 185.123 51.1322 185.141 51.167C185.159 51.2018 185.164 51.2421 185.154 51.2801C184.895 51.9218 184.486 52.4923 183.961 52.9445C183.437 53.3966 182.813 53.7172 182.14 53.8798C182.11 53.8887 182.079 53.8887 182.05 53.8798Z" fill="#263238"/>
<path d="M183.956 44.6483C183.902 44.6414 183.852 44.6177 183.813 44.5805C183.52 44.3355 183.173 44.1639 182.801 44.0801C182.429 43.9961 182.042 44.0024 181.673 44.0982C181.596 44.1221 181.513 44.115 181.441 44.0784C181.369 44.0418 181.314 43.9786 181.288 43.9022C181.274 43.8647 181.268 43.8247 181.27 43.7847C181.272 43.7446 181.282 43.7054 181.3 43.6694C181.317 43.6334 181.342 43.6014 181.373 43.5753C181.403 43.5493 181.438 43.5297 181.477 43.5179C181.943 43.3913 182.433 43.3787 182.905 43.481C183.377 43.5833 183.818 43.7975 184.19 44.1057C184.24 44.1485 184.276 44.2064 184.291 44.2707C184.306 44.3351 184.3 44.4026 184.273 44.4633C184.247 44.5241 184.202 44.5748 184.145 44.6081C184.088 44.6414 184.022 44.6555 183.956 44.6483Z" fill="#263238"/>
<path d="M173.821 46.4419H173.76C173.723 46.4292 173.688 46.4092 173.658 46.3829C173.628 46.3567 173.603 46.3248 173.586 46.289C173.569 46.2533 173.558 46.2145 173.556 46.1748C173.554 46.1351 173.559 46.0952 173.572 46.0577C173.719 45.5973 173.974 45.1791 174.316 44.8381C174.659 44.4971 175.078 44.2434 175.538 44.0984C175.577 44.0882 175.618 44.0857 175.657 44.0913C175.697 44.0968 175.735 44.1101 175.769 44.1304C175.804 44.1507 175.833 44.1777 175.857 44.2097C175.881 44.2418 175.898 44.2782 175.908 44.3169C175.926 44.3958 175.913 44.4787 175.87 44.5478C175.828 44.6168 175.76 44.6665 175.682 44.6861C175.324 44.8084 175 45.0145 174.738 45.2871C174.476 45.5598 174.283 45.8912 174.175 46.2536C174.149 46.323 174.099 46.3805 174.034 46.4152C173.968 46.45 173.893 46.4595 173.821 46.4419Z" fill="#263238"/>
<path d="M203.315 73.7664C201.356 77.8056 199.321 81.7692 197.174 85.7106C196.104 87.6852 195.034 89.6592 193.896 91.6038C192.758 93.5478 191.635 95.4996 190.286 97.4514C189.977 97.9338 189.593 98.4462 189.231 98.9586L189.095 99.1392L189.028 99.2376L188.915 99.3804C188.756 99.5766 188.598 99.7422 188.44 99.9078C188.152 100.2 187.842 100.469 187.513 100.714C186.428 101.508 185.248 102.164 184.001 102.666C181.801 103.555 179.533 104.265 177.219 104.791C172.789 105.815 168.292 106.518 163.76 106.894L163.248 103.684C165.35 103.126 167.491 102.538 169.593 101.927C171.695 101.317 173.783 100.669 175.817 99.9606C177.799 99.2934 179.734 98.4978 181.612 97.5792C182.404 97.1892 183.15 96.7116 183.835 96.1554C183.948 96.0618 184.051 95.9586 184.144 95.8464C184.172 95.8128 184.197 95.7774 184.22 95.7408L184.385 95.4846C184.649 95.07 184.921 94.6782 185.192 94.2108C186.262 92.4102 187.317 90.4806 188.342 88.5516L191.394 82.6962L197.422 70.8804L203.315 73.7664Z" fill="#FFBE9D"/>
<path d="M165.313 103.714L160.874 102.01L161.251 108.272C161.251 108.272 164.74 108.272 166.352 106.125L165.313 103.714Z" fill="#FFBE9D"/>
<path d="M157.385 102.191L156.436 106.796L161.251 108.272L160.874 102.01L157.385 102.191Z" fill="#FFBE9D"/>
<path d="M197.852 65.1456C195.373 66.2832 192.494 76.5846 192.494 76.5846L203.233 77.8056C203.233 77.8056 205.312 72.8022 204.891 70.2324C204.258 66.1254 200.678 63.8496 197.852 65.1456Z" fill="#263238"/>
<path d="M237.415 225.785C237.373 225.714 237.34 225.638 237.317 225.559C237.282 225.475 237.271 225.383 237.284 225.292C237.297 225.202 237.334 225.117 237.392 225.047C237.912 224.414 240.218 224.67 240.474 224.7C240.504 224.702 240.532 224.713 240.555 224.732C240.578 224.751 240.595 224.777 240.603 224.806C240.612 224.833 240.613 224.863 240.605 224.892C240.597 224.92 240.58 224.945 240.558 224.964C239.902 225.514 238.681 226.396 237.897 226.169C237.794 226.143 237.698 226.095 237.615 226.029C237.532 225.962 237.463 225.88 237.415 225.785ZM240.075 224.964C239.148 224.888 237.905 224.903 237.626 225.235C237.604 225.27 237.594 225.311 237.594 225.352C237.594 225.393 237.604 225.433 237.626 225.469C237.648 225.564 237.694 225.652 237.76 225.725C237.826 225.797 237.91 225.852 238.003 225.883C238.417 226.004 239.186 225.665 240.09 224.964H240.075Z" fill="#FE5000"/>
<path d="M237.98 223.705C237.951 223.65 237.928 223.592 237.912 223.532C237.881 223.415 237.89 223.292 237.938 223.181C237.985 223.07 238.069 222.978 238.176 222.921C238.274 222.857 238.385 222.815 238.501 222.798C238.616 222.782 238.734 222.79 238.846 222.824C239.743 223.065 240.572 224.715 240.61 224.783C240.623 224.805 240.63 224.832 240.63 224.858C240.63 224.885 240.623 224.91 240.61 224.933C240.595 224.955 240.574 224.973 240.551 224.985C240.527 224.996 240.5 225.002 240.474 225.001C239.515 224.879 238.631 224.419 237.98 223.705ZM240.173 224.617C239.864 224.075 239.291 223.253 238.763 223.11C238.694 223.088 238.621 223.081 238.549 223.092C238.478 223.102 238.409 223.129 238.349 223.17C238.183 223.275 238.183 223.374 238.206 223.442C238.319 223.878 239.434 224.489 240.196 224.647L240.173 224.617Z" fill="#FE5000"/>
<path d="M201.997 232.221C201.47 232.264 200.942 232.14 200.489 231.867C200.37 231.781 200.273 231.667 200.206 231.537C200.14 231.405 200.105 231.26 200.105 231.113C200.095 231.033 200.107 230.952 200.14 230.879C200.173 230.806 200.227 230.743 200.294 230.698C200.98 230.232 203.572 231.407 204.061 231.648C204.091 231.662 204.116 231.685 204.132 231.713C204.148 231.741 204.155 231.774 204.152 231.807C204.148 231.838 204.134 231.867 204.112 231.89C204.091 231.913 204.062 231.928 204.031 231.934C203.365 232.101 202.683 232.197 201.997 232.221ZM200.783 230.91C200.678 230.904 200.574 230.927 200.482 230.977C200.482 230.977 200.422 231.03 200.429 231.121C200.431 231.219 200.456 231.316 200.502 231.404C200.548 231.492 200.613 231.567 200.693 231.625C201.137 231.964 202.2 232.01 203.557 231.754C202.688 231.333 201.761 231.049 200.806 230.91H200.783Z" fill="#FE5000"/>
<path d="M204.069 231.964H204.009C203.15 231.618 201.416 230.224 201.514 229.508C201.514 229.349 201.643 229.154 202.034 229.108C203.542 228.928 204.19 231.678 204.22 231.791C204.224 231.818 204.222 231.847 204.213 231.873C204.203 231.899 204.188 231.923 204.167 231.942C204.137 231.96 204.103 231.968 204.069 231.964ZM202.178 229.387H202.072C201.914 229.387 201.831 229.455 201.816 229.531C201.763 229.945 202.961 231.038 203.836 231.52C203.632 230.864 203.089 229.387 202.178 229.387Z" fill="#FE5000"/>
<path d="M182.17 46.1558H180.874C180.874 46.1558 181.741 46.9093 182.17 46.1558Z" fill="#263238"/>
<path d="M185.132 238.671H226.367C226.651 238.671 226.923 238.784 227.124 238.985C227.324 239.185 227.437 239.457 227.437 239.741V243.223H184.069V239.741C184.069 239.459 184.181 239.188 184.38 238.987C184.579 238.787 184.849 238.673 185.132 238.671Z" fill="#263238"/>
<path d="M227.807 254.745H184.438V259.289H227.807V254.745Z" fill="#263238"/>
<path opacity="0.5" d="M227.807 254.745H199.133V259.289H227.807V254.745Z" fill="black"/>
<path d="M203.307 243.216L198.432 273.735C198.391 273.986 198.263 274.215 198.07 274.38C197.877 274.546 197.631 274.638 197.377 274.639H194.988C194.834 274.639 194.681 274.606 194.541 274.541C194.401 274.476 194.277 274.381 194.177 274.264C194.076 274.147 194.003 274.009 193.961 273.861C193.919 273.712 193.909 273.556 193.933 273.404L198.764 243.186L203.307 243.216Z" fill="#263238"/>
<path opacity="0.5" d="M203.308 243.215L202.939 245.536H198.387L198.764 243.215H203.308Z" fill="black"/>
<path d="M188.613 243.216L183.737 273.735C183.697 273.986 183.568 274.215 183.375 274.38C183.182 274.546 182.937 274.638 182.683 274.639H180.293C180.139 274.639 179.987 274.606 179.847 274.541C179.706 274.476 179.582 274.381 179.482 274.264C179.382 274.147 179.308 274.009 179.266 273.861C179.224 273.712 179.214 273.556 179.238 273.404L184.069 243.186L188.613 243.216Z" fill="#263238"/>
<path d="M232.26 273.434L227.437 243.215H222.916L227.769 273.735C227.809 273.987 227.936 274.216 228.13 274.382C228.323 274.547 228.569 274.639 228.824 274.639H231.205C231.356 274.639 231.506 274.606 231.644 274.543C231.782 274.48 231.904 274.388 232.004 274.274C232.104 274.16 232.178 274.026 232.222 273.881C232.266 273.736 232.279 273.584 232.26 273.434Z" fill="#263238"/>
<path opacity="0.5" d="M227.807 245.536L227.437 243.215H222.886L223.255 245.536H227.807Z" fill="black"/>
<path d="M217.565 273.434L212.743 243.215H208.221L213.074 273.735C213.113 273.987 213.242 274.216 213.435 274.382C213.628 274.547 213.874 274.639 214.129 274.639H216.511C216.662 274.639 216.811 274.606 216.949 274.543C217.087 274.48 217.21 274.388 217.309 274.274C217.409 274.16 217.483 274.026 217.528 273.881C217.572 273.736 217.585 273.584 217.565 273.434Z" fill="#263238"/>
<path opacity="0.5" d="M217.565 273.434L212.743 243.215H208.221L213.074 273.735C213.113 273.987 213.242 274.216 213.435 274.382C213.628 274.547 213.874 274.639 214.129 274.639H216.511C216.662 274.639 216.811 274.606 216.949 274.543C217.087 274.48 217.21 274.388 217.309 274.274C217.409 274.16 217.483 274.026 217.528 273.881C217.572 273.736 217.585 273.584 217.565 273.434Z" fill="black"/>
<path opacity="0.5" d="M198.764 238.671H226.367C226.651 238.671 226.923 238.784 227.124 238.985C227.324 239.185 227.437 239.457 227.437 239.741V243.223H198.802V238.701L198.764 238.671Z" fill="black"/>
<path d="M71.4625 270.517L77.4985 259.44L55.9087 240.518L54.2207 270.517H71.4625Z" fill="#FE5000"/>
<path opacity="0.1" d="M71.4625 270.517L77.4985 259.44L55.9087 240.518L54.2207 270.517H71.4625Z" fill="black"/>
<path d="M145.87 144.286C157.981 135.997 168.124 136.848 171.492 139.267C174.86 141.686 164.16 160.058 164.16 160.058C160.158 158.896 156.453 156.886 153.298 154.164C150.142 151.442 147.608 148.073 145.87 144.286Z" fill="#FE5000"/>
<path opacity="0.2" d="M151.635 152.613C158.455 145.914 165.41 143.766 167.294 144.889C169.178 146.012 163.127 158.928 163.127 158.928C163.127 158.928 154.951 160.104 151.635 152.613Z" fill="black"/>
<path d="M40.6486 170.269L39.9629 169.922C41.8561 166.197 44.0832 162.651 46.617 159.328L47.2273 159.794C44.7257 163.082 42.524 166.588 40.6486 170.269Z" fill="#FE5000"/>
<path d="M37.0617 178.784L36.3081 178.536C36.8809 176.855 37.5289 175.175 38.2373 173.547L38.9456 173.856C38.2674 175.454 37.6269 177.111 37.0617 178.784Z" fill="#FE5000"/>
<path d="M177.965 199.696C177.965 237.112 149.797 267.435 109.133 267.435C68.4707 267.435 35.5093 237.112 35.5093 199.696C35.5093 162.282 68.4707 131.958 109.133 131.958C149.797 131.958 177.965 162.282 177.965 199.696Z" fill="#FE5000"/>
<path opacity="0.1" d="M99.3221 260.261L96.3755 266.425C98.5055 266.772 100.668 267.023 102.864 267.179L99.3221 260.261Z" fill="black"/>
<path d="M94.8606 274.67L103.331 259.44L76.2402 249.538L72.7734 274.67H94.8606Z" fill="#FE5000"/>
<path d="M134.318 274.67L126.978 259.44L152.773 249.538L154.484 274.67H134.318Z" fill="#FE5000"/>
<path opacity="0.2" d="M152.848 209.485C152.848 219.613 143.896 227.82 132.886 227.82C121.877 227.82 112.962 219.613 112.962 209.485C112.962 199.357 121.884 191.151 132.886 191.151C143.888 191.151 152.848 199.357 152.848 209.485Z" fill="black"/>
<path opacity="0.2" d="M126.27 215.484C128.139 215.484 129.654 212.663 129.654 209.184C129.654 205.704 128.139 202.884 126.27 202.884C124.401 202.884 122.887 205.704 122.887 209.184C122.887 212.663 124.401 215.484 126.27 215.484Z" fill="black"/>
<path opacity="0.4" d="M102.073 175.288C103.045 178.25 102.148 181.483 100.076 182.5C98.0034 183.517 95.5542 181.934 94.5594 178.973C93.5646 176.012 94.4766 172.778 96.549 171.761C98.6214 170.744 101.101 172.319 102.073 175.288Z" fill="black"/>
<path opacity="0.4" d="M154.522 175.424C153.768 178.385 154.694 181.58 156.563 182.552C158.432 183.524 160.543 181.912 161.281 178.943C162.019 175.974 161.108 172.786 159.239 171.814C157.37 170.842 155.275 172.454 154.522 175.424Z" fill="black"/>
<path opacity="0.2" d="M144.273 215.484C146.141 215.484 147.656 212.663 147.656 209.184C147.656 205.704 146.141 202.884 144.273 202.884C142.404 202.884 140.889 205.704 140.889 209.184C140.889 212.663 142.404 215.484 144.273 215.484Z" fill="black"/>
<path d="M87.6113 143.668C74.4917 132.801 62.7437 131.957 58.6893 133.932C54.6351 135.906 65.1773 157.209 65.1773 157.209C65.1773 157.209 79.5707 156.366 87.6113 143.668Z" fill="#FE5000"/>
<path opacity="0.2" d="M80.2267 151.49C73.0297 143.201 65.2531 139.75 62.9845 140.609C60.7165 141.467 66.4663 156.178 66.4663 156.178C66.4663 156.178 75.7351 158.845 80.2267 151.49Z" fill="black"/>
<path opacity="0.4" d="M114.107 137.85H125.192C125.192 137.85 122.781 135.198 114.597 134.391C109.963 134.015 105.298 134.268 100.731 135.145C100.731 135.145 109.865 134.942 114.107 137.85Z" fill="black"/>
</g>
<defs>
<clipPath id="clip0_655_2055">
<rect width="300" height="300" fill="white"/>
</clipPath>
</defs>
</svg>
