<svg width="161" height="162" viewBox="0 0 161 162" fill="none" xmlns="http://www.w3.org/2000/svg">
<path d="M58.2399 1H51.8799V7.4H58.2399V1Z" fill="#FF4810"/>
<path d="M77.32 1H70.96V7.4H77.32V1Z" fill="#FF4810"/>
<path d="M96.4 1H90.04V7.4H96.4V1Z" fill="#FF4810"/>
<path d="M109.12 1H102.76V7.4H109.12V1Z" fill="#FF4810"/>
<path d="M70.9601 7.39999H64.6001V13.8H70.9601V7.39999Z" fill="#FF4810"/>
<path d="M90.0402 7.39999H83.6802V13.8H90.0402V7.39999Z" fill="#FF4810"/>
<path d="M96.4 7.4H90.04V13.8H96.4V7.4Z" fill="#FF4810"/>
<path d="M109.12 7.39999H102.76V13.8H109.12V7.39999Z" fill="#FF4810"/>
<path d="M58.2399 13.8H51.8799V20.2H58.2399V13.8Z" fill="#FF4810"/>
<path d="M70.9601 13.8H64.6001V20.2H70.9601V13.8Z" fill="#FF4810"/>
<path d="M90.0402 13.8H83.6802V20.2H90.0402V13.8Z" fill="#FF4810"/>
<path d="M90.0402 20.2H83.6802V26.6H90.0402V20.2Z" fill="#FF4810"/>
<path d="M96.4 20.2H90.04V26.6H96.4V20.2Z" fill="#FF4810"/>
<path d="M102.76 20.2H96.3999V26.6H102.76V20.2Z" fill="#FF4810"/>
<path d="M64.5997 26.6H58.2397V33H64.5997V26.6Z" fill="#FF4810"/>
<path d="M70.9601 26.6H64.6001V33H70.9601V26.6Z" fill="#FF4810"/>
<path d="M83.6799 26.6H77.3198V33H83.6799V26.6Z" fill="#FF4810"/>
<path d="M90.0402 26.6H83.6802V33H90.0402V26.6Z" fill="#FF4810"/>
<path d="M58.2399 33H51.8799V39.4H58.2399V33Z" fill="#FF4810"/>
<path d="M70.9601 33H64.6001V39.4H70.9601V33Z" fill="#FF4810"/>
<path d="M90.0402 33H83.6802V39.4H90.0402V33Z" fill="#FF4810"/>
<path d="M58.2399 39.4H51.8799V45.8H58.2399V39.4Z" fill="#FF4810"/>
<path d="M70.9601 39.4H64.6001V45.8H70.9601V39.4Z" fill="#FF4810"/>
<path d="M83.6799 39.4H77.3198V45.8H83.6799V39.4Z" fill="#FF4810"/>
<path d="M96.4 39.4H90.04V45.8H96.4V39.4Z" fill="#FF4810"/>
<path d="M109.12 39.4H102.76V45.8H109.12V39.4Z" fill="#FF4810"/>
<path d="M64.5997 45.8H58.2397V52.2H64.5997V45.8Z" fill="#FF4810"/>
<path d="M70.9601 45.8H64.6001V52.2H70.9601V45.8Z" fill="#FF4810"/>
<path d="M77.32 45.8H70.96V52.2H77.32V45.8Z" fill="#FF4810"/>
<path d="M109.12 45.8H102.76V52.2H109.12V45.8Z" fill="#FF4810"/>
<path d="M7.36 52.2H1V58.6H7.36V52.2Z" fill="#FF4810"/>
<path d="M20.0802 52.2H13.7202V58.6H20.0802V52.2Z" fill="#FF4810"/>
<path d="M45.5202 52.2H39.1602V58.6H45.5202V52.2Z" fill="#FF4810"/>
<path d="M51.88 52.2H45.52V58.6H51.88V52.2Z" fill="#FF4810"/>
<path d="M70.9601 52.2H64.6001V58.6H70.9601V52.2Z" fill="#FF4810"/>
<path d="M102.76 52.2H96.3999V58.6H102.76V52.2Z" fill="#FF4810"/>
<path d="M128.2 52.2H121.84V58.6H128.2V52.2Z" fill="#FF4810"/>
<path d="M147.28 52.2H140.92V58.6H147.28V52.2Z" fill="#FF4810"/>
<path d="M160 52.2H153.64V58.6H160V52.2Z" fill="#FF4810"/>
<path d="M7.36 58.6H1V65H7.36V58.6Z" fill="#FF4810"/>
<path d="M13.7199 58.6H7.35986V65H13.7199V58.6Z" fill="#FF4810"/>
<path d="M26.4401 58.6H20.0801V65H26.4401V58.6Z" fill="#FF4810"/>
<path d="M32.7999 58.6H26.4399V65H32.7999V58.6Z" fill="#FF4810"/>
<path d="M51.88 58.6H45.52V65H51.88V58.6Z" fill="#FF4810"/>
<path d="M58.2399 58.6H51.8799V65H58.2399V58.6Z" fill="#FF4810"/>
<path d="M64.5997 58.6H58.2397V65H64.5997V58.6Z" fill="#FF4810"/>
<path d="M77.32 58.6H70.96V65H77.32V58.6Z" fill="#FF4810"/>
<path d="M96.4 58.6H90.04V65H96.4V58.6Z" fill="#FF4810"/>
<path d="M102.76 58.6H96.3999V65H102.76V58.6Z" fill="#FF4810"/>
<path d="M109.12 58.6H102.76V65H109.12V58.6Z" fill="#FF4810"/>
<path d="M121.84 58.6H115.48V65H121.84V58.6Z" fill="#FF4810"/>
<path d="M128.2 58.6H121.84V65H128.2V58.6Z" fill="#FF4810"/>
<path d="M140.92 58.6H134.56V65H140.92V58.6Z" fill="#FF4810"/>
<path d="M153.64 58.6H147.28V65H153.64V58.6Z" fill="#FF4810"/>
<path d="M160 58.6H153.64V65H160V58.6Z" fill="#FF4810"/>
<path d="M13.7199 65H7.35986V71.4H13.7199V65Z" fill="#FF4810"/>
<path d="M20.0802 65H13.7202V71.4H20.0802V65Z" fill="#FF4810"/>
<path d="M32.7999 65H26.4399V71.4H32.7999V65Z" fill="#FF4810"/>
<path d="M39.1598 65H32.7998V71.4H39.1598V65Z" fill="#FF4810"/>
<path d="M45.5202 65H39.1602V71.4H45.5202V65Z" fill="#FF4810"/>
<path d="M51.88 65H45.52V71.4H51.88V65Z" fill="#FF4810"/>
<path d="M102.76 65H96.3999V71.4H102.76V65Z" fill="#FF4810"/>
<path d="M109.12 65H102.76V71.4H109.12V65Z" fill="#FF4810"/>
<path d="M121.84 65H115.48V71.4H121.84V65Z" fill="#FF4810"/>
<path d="M128.2 65H121.84V71.4H128.2V65Z" fill="#FF4810"/>
<path d="M140.92 65H134.56V71.4H140.92V65Z" fill="#FF4810"/>
<path d="M147.28 65H140.92V71.4H147.28V65Z" fill="#FF4810"/>
<path d="M160 65H153.64V71.4H160V65Z" fill="#FF4810"/>
<path d="M13.7199 71.4H7.35986V77.8H13.7199V71.4Z" fill="#FF4810"/>
<path d="M26.4401 71.4H20.0801V77.8H26.4401V71.4Z" fill="#FF4810"/>
<path d="M32.7999 71.4H26.4399V77.8H32.7999V71.4Z" fill="#FF4810"/>
<path d="M51.88 71.4H45.52V77.8H51.88V71.4Z" fill="#FF4810"/>
<path d="M64.5997 71.4H58.2397V77.8H64.5997V71.4Z" fill="#FF4810"/>
<path d="M70.9601 71.4H64.6001V77.8H70.9601V71.4Z" fill="#FF4810"/>
<path d="M77.32 71.4H70.96V77.8H77.32V71.4Z" fill="#FF4810"/>
<path d="M96.4 71.4H90.04V77.8H96.4V71.4Z" fill="#FF4810"/>
<path d="M102.76 71.4H96.3999V77.8H102.76V71.4Z" fill="#FF4810"/>
<path d="M109.12 71.4H102.76V77.8H109.12V71.4Z" fill="#FF4810"/>
<path d="M115.48 71.4H109.12V77.8H115.48V71.4Z" fill="#FF4810"/>
<path d="M128.2 71.4H121.84V77.8H128.2V71.4Z" fill="#FF4810"/>
<path d="M134.56 71.4H128.2V77.8H134.56V71.4Z" fill="#FF4810"/>
<path d="M140.92 71.4H134.56V77.8H140.92V71.4Z" fill="#FF4810"/>
<path d="M13.7199 77.8H7.35986V84.2H13.7199V77.8Z" fill="#FF4810"/>
<path d="M20.0802 77.8H13.7202V84.2H20.0802V77.8Z" fill="#FF4810"/>
<path d="M26.4401 77.8H20.0801V84.2H26.4401V77.8Z" fill="#FF4810"/>
<path d="M45.5202 77.8H39.1602V84.2H45.5202V77.8Z" fill="#FF4810"/>
<path d="M51.88 77.8H45.52V84.2H51.88V77.8Z" fill="#FF4810"/>
<path d="M58.2399 77.8H51.8799V84.2H58.2399V77.8Z" fill="#FF4810"/>
<path d="M64.5997 77.8H58.2397V84.2H64.5997V77.8Z" fill="#FF4810"/>
<path d="M70.9601 77.8H64.6001V84.2H70.9601V77.8Z" fill="#FF4810"/>
<path d="M109.12 77.8H102.76V84.2H109.12V77.8Z" fill="#FF4810"/>
<path d="M121.84 77.8H115.48V84.2H121.84V77.8Z" fill="#FF4810"/>
<path d="M128.2 77.8H121.84V84.2H128.2V77.8Z" fill="#FF4810"/>
<path d="M160 77.8H153.64V84.2H160V77.8Z" fill="#FF4810"/>
<path d="M26.4401 84.2H20.0801V90.6H26.4401V84.2Z" fill="#FF4810"/>
<path d="M32.7999 84.2H26.4399V90.6H32.7999V84.2Z" fill="#FF4810"/>
<path d="M51.88 84.2H45.52V90.6H51.88V84.2Z" fill="#FF4810"/>
<path d="M64.5997 84.2H58.2397V90.6H64.5997V84.2Z" fill="#FF4810"/>
<path d="M70.9601 84.2H64.6001V90.6H70.9601V84.2Z" fill="#FF4810"/>
<path d="M96.4 84.2H90.04V90.6H96.4V84.2Z" fill="#FF4810"/>
<path d="M102.76 84.2H96.3999V90.6H102.76V84.2Z" fill="#FF4810"/>
<path d="M121.84 84.2H115.48V90.6H121.84V84.2Z" fill="#FF4810"/>
<path d="M128.2 84.2H121.84V90.6H128.2V84.2Z" fill="#FF4810"/>
<path d="M153.64 84.2H147.28V90.6H153.64V84.2Z" fill="#FF4810"/>
<path d="M160 84.2H153.64V90.6H160V84.2Z" fill="#FF4810"/>
<path d="M7.36 90.6H1V97H7.36V90.6Z" fill="#FF4810"/>
<path d="M13.7199 90.6H7.35986V97H13.7199V90.6Z" fill="#FF4810"/>
<path d="M32.7999 90.6H26.4399V97H32.7999V90.6Z" fill="#FF4810"/>
<path d="M45.5202 90.6H39.1602V97H45.5202V90.6Z" fill="#FF4810"/>
<path d="M51.88 90.6H45.52V97H51.88V90.6Z" fill="#FF4810"/>
<path d="M58.2399 90.6H51.8799V97H58.2399V90.6Z" fill="#FF4810"/>
<path d="M64.5997 90.6H58.2397V97H64.5997V90.6Z" fill="#FF4810"/>
<path d="M70.9601 90.6H64.6001V97H70.9601V90.6Z" fill="#FF4810"/>
<path d="M77.32 90.6H70.96V97H77.32V90.6Z" fill="#FF4810"/>
<path d="M90.0402 90.6H83.6802V97H90.0402V90.6Z" fill="#FF4810"/>
<path d="M96.4 90.6H90.04V97H96.4V90.6Z" fill="#FF4810"/>
<path d="M102.76 90.6H96.3999V97H102.76V90.6Z" fill="#FF4810"/>
<path d="M140.92 90.6H134.56V97H140.92V90.6Z" fill="#FF4810"/>
<path d="M147.28 90.6H140.92V97H147.28V90.6Z" fill="#FF4810"/>
<path d="M160 90.6H153.64V97H160V90.6Z" fill="#FF4810"/>
<path d="M20.0802 97H13.7202V103.4H20.0802V97Z" fill="#FF4810"/>
<path d="M32.7999 97H26.4399V103.4H32.7999V97Z" fill="#FF4810"/>
<path d="M51.88 97H45.52V103.4H51.88V97Z" fill="#FF4810"/>
<path d="M70.9601 97H64.6001V103.4H70.9601V97Z" fill="#FF4810"/>
<path d="M96.4 97H90.04V103.4H96.4V97Z" fill="#FF4810"/>
<path d="M102.76 97H96.3999V103.4H102.76V97Z" fill="#FF4810"/>
<path d="M128.2 97H121.84V103.4H128.2V97Z" fill="#FF4810"/>
<path d="M134.56 97H128.2V103.4H134.56V97Z" fill="#FF4810"/>
<path d="M7.36 103.4H1V109.8H7.36V103.4Z" fill="#FF4810"/>
<path d="M13.7199 103.4H7.35986V109.8H13.7199V103.4Z" fill="#FF4810"/>
<path d="M20.0802 103.4H13.7202V109.8H20.0802V103.4Z" fill="#FF4810"/>
<path d="M26.4401 103.4H20.0801V109.8H26.4401V103.4Z" fill="#FF4810"/>
<path d="M32.7999 103.4H26.4399V109.8H32.7999V103.4Z" fill="#FF4810"/>
<path d="M45.5202 103.4H39.1602V109.8H45.5202V103.4Z" fill="#FF4810"/>
<path d="M51.88 103.4H45.52V109.8H51.88V103.4Z" fill="#FF4810"/>
<path d="M58.2399 103.4H51.8799V109.8H58.2399V103.4Z" fill="#FF4810"/>
<path d="M64.5997 103.4H58.2397V109.8H64.5997V103.4Z" fill="#FF4810"/>
<path d="M77.32 103.4H70.96V109.8H77.32V103.4Z" fill="#FF4810"/>
<path d="M83.6799 103.4H77.3198V109.8H83.6799V103.4Z" fill="#FF4810"/>
<path d="M96.4 103.4H90.04V109.8H96.4V103.4Z" fill="#FF4810"/>
<path d="M109.12 103.4H102.76V109.8H109.12V103.4Z" fill="#FF4810"/>
<path d="M115.48 103.4H109.12V109.8H115.48V103.4Z" fill="#FF4810"/>
<path d="M121.84 103.4H115.48V109.8H121.84V103.4Z" fill="#FF4810"/>
<path d="M128.2 103.4H121.84V109.8H128.2V103.4Z" fill="#FF4810"/>
<path d="M134.56 103.4H128.2V109.8H134.56V103.4Z" fill="#FF4810"/>
<path d="M153.64 103.4H147.28V109.8H153.64V103.4Z" fill="#FF4810"/>
<path d="M58.2399 109.8H51.8799V116.2H58.2399V109.8Z" fill="#FF4810"/>
<path d="M64.5997 109.8H58.2397V116.2H64.5997V109.8Z" fill="#FF4810"/>
<path d="M83.6799 109.8H77.3198V116.2H83.6799V109.8Z" fill="#FF4810"/>
<path d="M96.4 109.8H90.04V116.2H96.4V109.8Z" fill="#FF4810"/>
<path d="M109.12 109.8H102.76V116.2H109.12V109.8Z" fill="#FF4810"/>
<path d="M134.56 109.8H128.2V116.2H134.56V109.8Z" fill="#FF4810"/>
<path d="M147.28 109.8H140.92V116.2H147.28V109.8Z" fill="#FF4810"/>
<path d="M160 109.8H153.64V116.2H160V109.8Z" fill="#FF4810"/>
<path d="M58.2399 116.2H51.8799V122.6H58.2399V116.2Z" fill="#FF4810"/>
<path d="M64.5997 116.2H58.2397V122.6H64.5997V116.2Z" fill="#FF4810"/>
<path d="M70.9601 116.2H64.6001V122.6H70.9601V116.2Z" fill="#FF4810"/>
<path d="M83.6799 116.2H77.3198V122.6H83.6799V116.2Z" fill="#FF4810"/>
<path d="M109.12 116.2H102.76V122.6H109.12V116.2Z" fill="#FF4810"/>
<path d="M121.84 116.2H115.48V122.6H121.84V116.2Z" fill="#FF4810"/>
<path d="M134.56 116.2H128.2V122.6H134.56V116.2Z" fill="#FF4810"/>
<path d="M140.92 116.2H134.56V122.6H140.92V116.2Z" fill="#FF4810"/>
<path d="M160 116.2H153.64V122.6H160V116.2Z" fill="#FF4810"/>
<path d="M77.32 122.6H70.96V129H77.32V122.6Z" fill="#FF4810"/>
<path d="M83.6799 122.6H77.3198V129H83.6799V122.6Z" fill="#FF4810"/>
<path d="M96.4 122.6H90.04V129H96.4V122.6Z" fill="#FF4810"/>
<path d="M102.76 122.6H96.3999V129H102.76V122.6Z" fill="#FF4810"/>
<path d="M109.12 122.6H102.76V129H109.12V122.6Z" fill="#FF4810"/>
<path d="M134.56 122.6H128.2V129H134.56V122.6Z" fill="#FF4810"/>
<path d="M64.5997 129H58.2397V135.4H64.5997V129Z" fill="#FF4810"/>
<path d="M70.9601 129H64.6001V135.4H70.9601V129Z" fill="#FF4810"/>
<path d="M83.6799 129H77.3198V135.4H83.6799V129Z" fill="#FF4810"/>
<path d="M102.76 129H96.3999V135.4H102.76V129Z" fill="#FF4810"/>
<path d="M109.12 129H102.76V135.4H109.12V129Z" fill="#FF4810"/>
<path d="M115.48 129H109.12V135.4H115.48V129Z" fill="#FF4810"/>
<path d="M121.84 129H115.48V135.4H121.84V129Z" fill="#FF4810"/>
<path d="M128.2 129H121.84V135.4H128.2V129Z" fill="#FF4810"/>
<path d="M134.56 129H128.2V135.4H134.56V129Z" fill="#FF4810"/>
<path d="M140.92 129H134.56V135.4H140.92V129Z" fill="#FF4810"/>
<path d="M153.64 129H147.28V135.4H153.64V129Z" fill="#FF4810"/>
<path d="M70.9601 135.4H64.6001V141.8H70.9601V135.4Z" fill="#FF4810"/>
<path d="M96.4 135.4H90.04V141.8H96.4V135.4Z" fill="#FF4810"/>
<path d="M109.12 135.4H102.76V141.8H109.12V135.4Z" fill="#FF4810"/>
<path d="M115.48 135.4H109.12V141.8H115.48V135.4Z" fill="#FF4810"/>
<path d="M134.56 135.4H128.2V141.8H134.56V135.4Z" fill="#FF4810"/>
<path d="M140.92 135.4H134.56V141.8H140.92V135.4Z" fill="#FF4810"/>
<path d="M147.28 135.4H140.92V141.8H147.28V135.4Z" fill="#FF4810"/>
<path d="M153.64 135.4H147.28V141.8H153.64V135.4Z" fill="#FF4810"/>
<path d="M58.2399 141.8H51.8799V148.2H58.2399V141.8Z" fill="#FF4810"/>
<path d="M64.5997 141.8H58.2397V148.2H64.5997V141.8Z" fill="#FF4810"/>
<path d="M77.32 141.8H70.96V148.2H77.32V141.8Z" fill="#FF4810"/>
<path d="M115.48 141.8H109.12V148.2H115.48V141.8Z" fill="#FF4810"/>
<path d="M134.56 141.8H128.2V148.2H134.56V141.8Z" fill="#FF4810"/>
<path d="M153.64 141.8H147.28V148.2H153.64V141.8Z" fill="#FF4810"/>
<path d="M160 141.8H153.64V148.2H160V141.8Z" fill="#FF4810"/>
<path d="M70.9601 148.2H64.6001V154.6H70.9601V148.2Z" fill="#FF4810"/>
<path d="M77.32 148.2H70.96V154.6H77.32V148.2Z" fill="#FF4810"/>
<path d="M83.6799 148.2H77.3198V154.6H83.6799V148.2Z" fill="#FF4810"/>
<path d="M109.12 148.2H102.76V154.6H109.12V148.2Z" fill="#FF4810"/>
<path d="M121.84 148.2H115.48V154.6H121.84V148.2Z" fill="#FF4810"/>
<path d="M128.2 148.2H121.84V154.6H128.2V148.2Z" fill="#FF4810"/>
<path d="M134.56 148.2H128.2V154.6H134.56V148.2Z" fill="#FF4810"/>
<path d="M58.2399 154.6H51.8799V161H58.2399V154.6Z" fill="#FF4810"/>
<path d="M70.9601 154.6H64.6001V161H70.9601V154.6Z" fill="#FF4810"/>
<path d="M77.32 154.6H70.96V161H77.32V154.6Z" fill="#FF4810"/>
<path d="M109.12 154.6H102.76V161H109.12V154.6Z" fill="#FF4810"/>
<path d="M121.84 154.6H115.48V161H121.84V154.6Z" fill="#FF4810"/>
<path d="M140.92 154.6H134.56V161H140.92V154.6Z" fill="#FF4810"/>
<path d="M160 154.6H153.64V161H160V154.6Z" fill="#FF4810"/>
<path d="M38.842 1H7.678C3.98984 1 1 4.03184 1 7.72V39.08V45.8H7.678H38.842H45.52V39.08V7.72V1H38.842ZM38.842 39.08H7.678V7.72H38.842V39.08Z" fill="#FF4810"/>
<path d="M153.322 1H122.158H115.48V7.72V39.08V45.8H122.158H153.322H160V39.08V7.72C160 4.03184 157.01 1 153.322 1ZM153.322 39.08H122.158V7.72H153.322V39.08Z" fill="#FF4810"/>
<path d="M38.842 116.2H7.678H1V122.92V154.28C1 157.968 3.98984 161 7.678 161H38.842H45.52V154.28V122.92V116.2H38.842ZM38.842 154.28H7.678V122.92H38.842V154.28Z" fill="#FF4810"/>
<path d="M32.8002 13.8H13.7202V33H32.8002V13.8Z" fill="#FF4810"/>
<path d="M147.28 13.8H128.2V33H147.28V13.8Z" fill="#FF4810"/>
<path d="M32.8002 129H13.7202V148.2H32.8002V129Z" fill="#FF4810"/>
<rect x="0.5" y="0.5" width="160" height="161" rx="22.5" stroke="#BEBEB6" stroke-opacity="0.2"/>
</svg>
