<?xml version="1.0" standalone="no"?>
<!DOCTYPE svg PUBLIC "-//W3C//DTD SVG 20010904//EN"
 "http://www.w3.org/TR/2001/REC-SVG-20010904/DTD/svg10.dtd">
<svg version="1.0" xmlns="http://www.w3.org/2000/svg"
 width="1126.000000pt" height="1126.000000pt" viewBox="0 0 1126.000000 1126.000000"
 preserveAspectRatio="xMidYMid meet">

<g transform="translate(0.000000,1126.000000) scale(0.100000,-0.100000)"
fill="#F05323" stroke="none">
<path d="M700 9370 l0 -1190 1190 0 1190 0 0 1190 0 1190 -1190 0 -1190 0 0
-1190z m2040 0 l0 -850 -850 0 -850 0 0 850 0 850 850 0 850 0 0 -850z"/>
<path d="M1380 9370 l0 -510 510 0 510 0 0 510 0 510 -510 0 -510 0 0 -510z"/>
<path d="M3420 10390 l0 -170 510 0 510 0 0 -340 0 -340 -170 0 -170 0 0 170
0 170 -170 0 -170 0 0 -170 0 -170 170 0 170 0 0 -340 0 -340 -170 0 -170 0 0
-170 0 -170 -170 0 -170 0 0 -340 0 -340 170 0 170 0 0 -170 0 -170 170 0 170
0 0 -170 0 -170 -680 0 -680 0 0 170 0 170 170 0 170 0 0 170 0 170 -170 0
-170 0 0 -170 0 -170 -170 0 -170 0 0 170 0 170 -340 0 -340 0 0 -340 0 -340
510 0 510 0 0 -170 0 -170 -340 0 -340 0 0 -170 0 -170 -170 0 -170 0 0 -170
0 -170 -170 0 -170 0 0 -340 0 -340 -170 0 -170 0 0 170 0 170 -170 0 -170 0
0 -170 0 -170 170 0 170 0 0 -170 0 -170 680 0 680 0 0 -170 0 -170 -170 0
-170 0 0 -340 0 -340 -170 0 -170 0 0 170 0 170 -170 0 -170 0 0 170 0 170
-340 0 -340 0 0 -680 0 -680 1360 0 1360 0 0 -170 0 -170 170 0 170 0 0 -170
0 -170 170 0 170 0 0 -170 0 -170 170 0 170 0 0 -170 0 -170 340 0 340 0 0
-170 0 -170 -340 0 -340 0 0 -340 0 -340 -170 0 -170 0 0 170 0 170 -340 0
-340 0 0 -340 0 -340 170 0 170 0 0 170 0 170 170 0 170 0 0 -170 0 -170 170
0 170 0 0 170 0 170 170 0 170 0 0 170 0 170 340 0 340 0 0 170 0 170 170 0
170 0 0 -170 0 -170 170 0 170 0 0 340 0 340 -340 0 -340 0 0 510 0 510 170 0
170 0 0 -340 0 -340 170 0 170 0 0 170 0 170 170 0 170 0 0 -170 0 -170 340 0
340 0 0 -170 0 -170 -340 0 -340 0 0 -170 0 -170 340 0 340 0 0 170 0 170 340
0 340 0 0 -170 0 -170 -170 0 -170 0 0 -170 0 -170 170 0 170 0 0 -170 0 -170
-170 0 -170 0 0 -170 0 -170 170 0 170 0 0 170 0 170 340 0 340 0 0 -170 0
-170 170 0 170 0 0 170 0 170 -170 0 -170 0 0 170 0 170 340 0 340 0 0 -170 0
-170 340 0 340 0 0 170 0 170 170 0 170 0 0 -170 0 -170 170 0 170 0 0 510 0
510 -170 0 -170 0 0 170 0 170 170 0 170 0 0 170 0 170 -340 0 -340 0 0 -340
0 -340 170 0 170 0 0 -170 0 -170 -340 0 -340 0 0 -170 0 -170 -170 0 -170 0
0 170 0 170 -170 0 -170 0 0 170 0 170 340 0 340 0 0 170 0 170 -170 0 -170 0
0 170 0 170 170 0 170 0 0 340 0 340 340 0 340 0 0 170 0 170 -170 0 -170 0 0
170 0 170 -170 0 -170 0 0 170 0 170 340 0 340 0 0 -170 0 -170 170 0 170 0 0
170 0 170 -170 0 -170 0 0 170 0 170 -340 0 -340 0 0 170 0 170 170 0 170 0 0
340 0 340 170 0 170 0 0 -340 0 -340 170 0 170 0 0 850 0 850 -170 0 -170 0 0
-340 0 -340 -680 0 -680 0 0 170 0 170 340 0 340 0 0 170 0 170 170 0 170 0 0
170 0 170 170 0 170 0 0 170 0 170 170 0 170 0 0 170 0 170 -170 0 -170 0 0
-170 0 -170 -340 0 -340 0 0 -340 0 -340 -170 0 -170 0 0 340 0 340 -340 0
-340 0 0 170 0 170 -170 0 -170 0 0 -170 0 -170 170 0 170 0 0 -170 0 -170
-170 0 -170 0 0 -170 0 -170 170 0 170 0 0 -170 0 -170 -510 0 -510 0 0 170 0
170 -340 0 -340 0 0 170 0 170 -340 0 -340 0 0 340 0 340 -170 0 -170 0 0 510
0 510 -170 0 -170 0 0 -340 0 -340 -170 0 -170 0 0 170 0 170 -170 0 -170 0 0
170 0 170 170 0 170 0 0 170 0 170 170 0 170 0 0 170 0 170 170 0 170 0 0 170
0 170 -170 0 -170 0 0 170 0 170 -340 0 -340 0 0 170 0 170 -680 0 -680 0 0
-170z m1700 -850 l0 -340 -170 0 -170 0 0 340 0 340 170 0 170 0 0 -340z
m-680 -850 l0 -170 170 0 170 0 0 -510 0 -510 170 0 170 0 0 170 0 170 170 0
170 0 0 -170 0 -170 170 0 170 0 0 -170 0 -170 -510 0 -510 0 0 -170 0 -170
510 0 510 0 0 -170 0 -170 170 0 170 0 0 170 0 170 170 0 170 0 0 -170 0 -170
510 0 510 0 0 -170 0 -170 340 0 340 0 0 -170 0 -170 170 0 170 0 0 -170 0
-170 170 0 170 0 0 170 0 170 340 0 340 0 0 -340 0 -340 -170 0 -170 0 0 -170
0 -170 170 0 170 0 0 -170 0 -170 -170 0 -170 0 0 170 0 170 -170 0 -170 0 0
-340 0 -340 -170 0 -170 0 0 -170 0 -170 -170 0 -170 0 0 170 0 170 -170 0
-170 0 0 -170 0 -170 -340 0 -340 0 0 -170 0 -170 170 0 170 0 0 -340 0 -340
-340 0 -340 0 0 170 0 170 170 0 170 0 0 170 0 170 -170 0 -170 0 0 170 0 170
-510 0 -510 0 0 -170 0 -170 -170 0 -170 0 0 510 0 510 -340 0 -340 0 0 -170
0 -170 170 0 170 0 0 -340 0 -340 -170 0 -170 0 0 -170 0 -170 170 0 170 0 0
-170 0 -170 -170 0 -170 0 0 170 0 170 -170 0 -170 0 0 -170 0 -170 -170 0
-170 0 0 340 0 340 -340 0 -340 0 0 170 0 170 170 0 170 0 0 170 0 170 -340 0
-340 0 0 -170 0 -170 -340 0 -340 0 0 510 0 510 340 0 340 0 0 -170 0 -170
850 0 850 0 0 170 0 170 340 0 340 0 0 170 0 170 -170 0 -170 0 0 170 0 170
-170 0 -170 0 0 -170 0 -170 -340 0 -340 0 0 -170 0 -170 -340 0 -340 0 0 170
0 170 -340 0 -340 0 0 170 0 170 340 0 340 0 0 170 0 170 -510 0 -510 0 0
-170 0 -170 -340 0 -340 0 0 340 0 340 1020 0 1020 0 0 -340 0 -340 -170 0
-170 0 0 -170 0 -170 340 0 340 0 0 340 0 340 170 0 170 0 0 340 0 340 -340 0
-340 0 0 170 0 170 170 0 170 0 0 170 0 170 170 0 170 0 0 170 0 170 -170 0
-170 0 0 340 0 340 -170 0 -170 0 0 170 0 170 170 0 170 0 0 170 0 170 170 0
170 0 0 -170z m4420 -1700 l0 -170 -170 0 -170 0 0 170 0 170 170 0 170 0 0
-170z m-5440 -340 l0 -170 -340 0 -340 0 0 170 0 170 340 0 340 0 0 -170z
m-1700 -2720 l0 -170 -170 0 -170 0 0 170 0 170 170 0 170 0 0 -170z m4760
-680 l0 -170 -170 0 -170 0 0 170 0 170 170 0 170 0 0 -170z m2380 -340 l0
-510 -510 0 -510 0 0 510 0 510 510 0 510 0 0 -510z m-340 -1190 l0 -340 -170
0 -170 0 0 340 0 340 170 0 170 0 0 -340z"/>
<path d="M4100 8350 l0 -170 170 0 170 0 0 170 0 170 -170 0 -170 0 0 -170z"/>
<path d="M4780 5970 l0 -170 170 0 170 0 0 -170 0 -170 340 0 340 0 0 -680 0
-680 170 0 170 0 0 680 0 680 170 0 170 0 0 340 0 340 -170 0 -170 0 0 -170 0
-170 -340 0 -340 0 0 170 0 170 -340 0 -340 0 0 -170z"/>
<path d="M7160 5460 l0 -340 170 0 170 0 0 -340 0 -340 -170 0 -170 0 0 -170
0 -170 -170 0 -170 0 0 -170 0 -170 170 0 170 0 0 170 0 170 340 0 340 0 0
850 0 850 -340 0 -340 0 0 -340z"/>
<path d="M8860 5290 l0 -170 170 0 170 0 0 170 0 170 -170 0 -170 0 0 -170z"/>
<path d="M6480 4610 l0 -170 170 0 170 0 0 170 0 170 -170 0 -170 0 0 -170z"/>
<path d="M2740 4270 l0 -170 170 0 170 0 0 170 0 170 -170 0 -170 0 0 -170z"/>
<path d="M4100 3760 l0 -340 340 0 340 0 0 340 0 340 -340 0 -340 0 0 -340z"/>
<path d="M8180 2910 l0 -170 170 0 170 0 0 170 0 170 -170 0 -170 0 0 -170z"/>
<path d="M6140 10390 l0 -170 170 0 170 0 0 -170 0 -170 -170 0 -170 0 0 -170
0 -170 170 0 170 0 0 -170 0 -170 -170 0 -170 0 0 -170 0 -170 170 0 170 0 0
-170 0 -170 -170 0 -170 0 0 -170 0 -170 170 0 170 0 0 170 0 170 170 0 170 0
0 -170 0 -170 170 0 170 0 0 -510 0 -510 170 0 170 0 0 510 0 510 170 0 170 0
0 170 0 170 -170 0 -170 0 0 -170 0 -170 -170 0 -170 0 0 340 0 340 340 0 340
0 0 510 0 510 -170 0 -170 0 0 170 0 170 -340 0 -340 0 0 170 0 170 -340 0
-340 0 0 -170z m680 -680 l0 -170 170 0 170 0 0 170 0 170 170 0 170 0 0 -170
0 -170 -170 0 -170 0 0 -170 0 -170 -170 0 -170 0 0 -170 0 -170 -170 0 -170
0 0 170 0 170 170 0 170 0 0 170 0 170 -170 0 -170 0 0 170 0 170 170 0 170 0
0 -170z"/>
<path d="M8180 9370 l0 -1190 1190 0 1190 0 0 1190 0 1190 -1190 0 -1190 0 0
-1190z m2040 0 l0 -850 -850 0 -850 0 0 850 0 850 850 0 850 0 0 -850z"/>
<path d="M8860 9370 l0 -510 510 0 510 0 0 510 0 510 -510 0 -510 0 0 -510z"/>
<path d="M700 7670 l0 -170 170 0 170 0 0 -170 0 -170 -170 0 -170 0 0 -340 0
-340 170 0 170 0 0 170 0 170 170 0 170 0 0 510 0 510 -340 0 -340 0 0 -170z"/>
<path d="M6480 7670 l0 -170 170 0 170 0 0 170 0 170 -170 0 -170 0 0 -170z"/>
<path d="M700 1890 l0 -1190 1190 0 1190 0 0 1190 0 1190 -1190 0 -1190 0 0
-1190z m2040 0 l0 -850 -850 0 -850 0 0 850 0 850 850 0 850 0 0 -850z"/>
<path d="M1380 1890 l0 -510 510 0 510 0 0 510 0 510 -510 0 -510 0 0 -510z"/>
<path d="M3420 2060 l0 -340 340 0 340 0 0 170 0 170 -170 0 -170 0 0 170 0
170 -170 0 -170 0 0 -340z"/>
<path d="M6820 1210 l0 -170 170 0 170 0 0 170 0 170 -170 0 -170 0 0 -170z"/>
<path d="M5460 870 l0 -170 510 0 510 0 0 170 0 170 -510 0 -510 0 0 -170z"/>
</g>
</svg>
