<svg width="50" height="50" viewBox="0 0 50 50" fill="none" xmlns="http://www.w3.org/2000/svg">
<path d="M18 0H16V2H18V0Z" fill="white"/>
<path d="M24 0H22V2H24V0Z" fill="white"/>
<path d="M30 0H28V2H30V0Z" fill="white"/>
<path d="M34 0H32V2H34V0Z" fill="white"/>
<path d="M22 2H20V4H22V2Z" fill="white"/>
<path d="M28 2H26V4H28V2Z" fill="white"/>
<path d="M30 2H28V4H30V2Z" fill="white"/>
<path d="M34 2H32V4H34V2Z" fill="white"/>
<path d="M18 4H16V6H18V4Z" fill="white"/>
<path d="M22 4H20V6H22V4Z" fill="white"/>
<path d="M28 4H26V6H28V4Z" fill="white"/>
<path d="M28 6H26V8H28V6Z" fill="white"/>
<path d="M30 6H28V8H30V6Z" fill="white"/>
<path d="M32 6H30V8H32V6Z" fill="white"/>
<path d="M20 8H18V10H20V8Z" fill="white"/>
<path d="M22 8H20V10H22V8Z" fill="white"/>
<path d="M26 8H24V10H26V8Z" fill="white"/>
<path d="M28 8H26V10H28V8Z" fill="white"/>
<path d="M18 10H16V12H18V10Z" fill="white"/>
<path d="M22 10H20V12H22V10Z" fill="white"/>
<path d="M28 10H26V12H28V10Z" fill="white"/>
<path d="M18 12H16V14H18V12Z" fill="white"/>
<path d="M22 12H20V14H22V12Z" fill="white"/>
<path d="M26 12H24V14H26V12Z" fill="white"/>
<path d="M30 12H28V14H30V12Z" fill="white"/>
<path d="M34 12H32V14H34V12Z" fill="white"/>
<path d="M20 14H18V16H20V14Z" fill="white"/>
<path d="M22 14H20V16H22V14Z" fill="white"/>
<path d="M24 14H22V16H24V14Z" fill="white"/>
<path d="M34 14H32V16H34V14Z" fill="white"/>
<path d="M2 16H0V18H2V16Z" fill="white"/>
<path d="M6 16H4V18H6V16Z" fill="white"/>
<path d="M14 16H12V18H14V16Z" fill="white"/>
<path d="M16 16H14V18H16V16Z" fill="white"/>
<path d="M22 16H20V18H22V16Z" fill="white"/>
<path d="M32 16H30V18H32V16Z" fill="white"/>
<path d="M40 16H38V18H40V16Z" fill="white"/>
<path d="M46 16H44V18H46V16Z" fill="white"/>
<path d="M50 16H48V18H50V16Z" fill="white"/>
<path d="M2 18H0V20H2V18Z" fill="white"/>
<path d="M4 18H2V20H4V18Z" fill="white"/>
<path d="M8 18H6V20H8V18Z" fill="white"/>
<path d="M10 18H8V20H10V18Z" fill="white"/>
<path d="M16 18H14V20H16V18Z" fill="white"/>
<path d="M18 18H16V20H18V18Z" fill="white"/>
<path d="M20 18H18V20H20V18Z" fill="white"/>
<path d="M24 18H22V20H24V18Z" fill="white"/>
<path d="M30 18H28V20H30V18Z" fill="white"/>
<path d="M32 18H30V20H32V18Z" fill="white"/>
<path d="M34 18H32V20H34V18Z" fill="white"/>
<path d="M38 18H36V20H38V18Z" fill="white"/>
<path d="M40 18H38V20H40V18Z" fill="white"/>
<path d="M44 18H42V20H44V18Z" fill="white"/>
<path d="M48 18H46V20H48V18Z" fill="white"/>
<path d="M50 18H48V20H50V18Z" fill="white"/>
<path d="M4 20H2V22H4V20Z" fill="white"/>
<path d="M6 20H4V22H6V20Z" fill="white"/>
<path d="M10 20H8V22H10V20Z" fill="white"/>
<path d="M12 20H10V22H12V20Z" fill="white"/>
<path d="M14 20H12V22H14V20Z" fill="white"/>
<path d="M16 20H14V22H16V20Z" fill="white"/>
<path d="M32 20H30V22H32V20Z" fill="white"/>
<path d="M34 20H32V22H34V20Z" fill="white"/>
<path d="M38 20H36V22H38V20Z" fill="white"/>
<path d="M40 20H38V22H40V20Z" fill="white"/>
<path d="M44 20H42V22H44V20Z" fill="white"/>
<path d="M46 20H44V22H46V20Z" fill="white"/>
<path d="M50 20H48V22H50V20Z" fill="white"/>
<path d="M4 22H2V24H4V22Z" fill="white"/>
<path d="M8 22H6V24H8V22Z" fill="white"/>
<path d="M10 22H8V24H10V22Z" fill="white"/>
<path d="M16 22H14V24H16V22Z" fill="white"/>
<path d="M20 22H18V24H20V22Z" fill="white"/>
<path d="M22 22H20V24H22V22Z" fill="white"/>
<path d="M24 22H22V24H24V22Z" fill="white"/>
<path d="M30 22H28V24H30V22Z" fill="white"/>
<path d="M32 22H30V24H32V22Z" fill="white"/>
<path d="M34 22H32V24H34V22Z" fill="white"/>
<path d="M36 22H34V24H36V22Z" fill="white"/>
<path d="M40 22H38V24H40V22Z" fill="white"/>
<path d="M42 22H40V24H42V22Z" fill="white"/>
<path d="M44 22H42V24H44V22Z" fill="white"/>
<path d="M4 24H2V26H4V24Z" fill="white"/>
<path d="M6 24H4V26H6V24Z" fill="white"/>
<path d="M8 24H6V26H8V24Z" fill="white"/>
<path d="M14 24H12V26H14V24Z" fill="white"/>
<path d="M16 24H14V26H16V24Z" fill="white"/>
<path d="M18 24H16V26H18V24Z" fill="white"/>
<path d="M20 24H18V26H20V24Z" fill="white"/>
<path d="M22 24H20V26H22V24Z" fill="white"/>
<path d="M34 24H32V26H34V24Z" fill="white"/>
<path d="M38 24H36V26H38V24Z" fill="white"/>
<path d="M40 24H38V26H40V24Z" fill="white"/>
<path d="M50 24H48V26H50V24Z" fill="white"/>
<path d="M8 26H6V28H8V26Z" fill="white"/>
<path d="M10 26H8V28H10V26Z" fill="white"/>
<path d="M16 26H14V28H16V26Z" fill="white"/>
<path d="M20 26H18V28H20V26Z" fill="white"/>
<path d="M22 26H20V28H22V26Z" fill="white"/>
<path d="M30 26H28V28H30V26Z" fill="white"/>
<path d="M32 26H30V28H32V26Z" fill="white"/>
<path d="M38 26H36V28H38V26Z" fill="white"/>
<path d="M40 26H38V28H40V26Z" fill="white"/>
<path d="M48 26H46V28H48V26Z" fill="white"/>
<path d="M50 26H48V28H50V26Z" fill="white"/>
<path d="M2 28H0V30H2V28Z" fill="white"/>
<path d="M4 28H2V30H4V28Z" fill="white"/>
<path d="M10 28H8V30H10V28Z" fill="white"/>
<path d="M14 28H12V30H14V28Z" fill="white"/>
<path d="M16 28H14V30H16V28Z" fill="white"/>
<path d="M18 28H16V30H18V28Z" fill="white"/>
<path d="M20 28H18V30H20V28Z" fill="white"/>
<path d="M22 28H20V30H22V28Z" fill="white"/>
<path d="M24 28H22V30H24V28Z" fill="white"/>
<path d="M28 28H26V30H28V28Z" fill="white"/>
<path d="M30 28H28V30H30V28Z" fill="white"/>
<path d="M32 28H30V30H32V28Z" fill="white"/>
<path d="M44 28H42V30H44V28Z" fill="white"/>
<path d="M46 28H44V30H46V28Z" fill="white"/>
<path d="M50 28H48V30H50V28Z" fill="white"/>
<path d="M6 30H4V32H6V30Z" fill="white"/>
<path d="M10 30H8V32H10V30Z" fill="white"/>
<path d="M16 30H14V32H16V30Z" fill="white"/>
<path d="M22 30H20V32H22V30Z" fill="white"/>
<path d="M30 30H28V32H30V30Z" fill="white"/>
<path d="M32 30H30V32H32V30Z" fill="white"/>
<path d="M40 30H38V32H40V30Z" fill="white"/>
<path d="M42 30H40V32H42V30Z" fill="white"/>
<path d="M2 32H0V34H2V32Z" fill="white"/>
<path d="M4 32H2V34H4V32Z" fill="white"/>
<path d="M6 32H4V34H6V32Z" fill="white"/>
<path d="M8 32H6V34H8V32Z" fill="white"/>
<path d="M10 32H8V34H10V32Z" fill="white"/>
<path d="M14 32H12V34H14V32Z" fill="white"/>
<path d="M16 32H14V34H16V32Z" fill="white"/>
<path d="M18 32H16V34H18V32Z" fill="white"/>
<path d="M20 32H18V34H20V32Z" fill="white"/>
<path d="M24 32H22V34H24V32Z" fill="white"/>
<path d="M26 32H24V34H26V32Z" fill="white"/>
<path d="M30 32H28V34H30V32Z" fill="white"/>
<path d="M34 32H32V34H34V32Z" fill="white"/>
<path d="M36 32H34V34H36V32Z" fill="white"/>
<path d="M38 32H36V34H38V32Z" fill="white"/>
<path d="M40 32H38V34H40V32Z" fill="white"/>
<path d="M42 32H40V34H42V32Z" fill="white"/>
<path d="M48 32H46V34H48V32Z" fill="white"/>
<path d="M18 34H16V36H18V34Z" fill="white"/>
<path d="M20 34H18V36H20V34Z" fill="white"/>
<path d="M26 34H24V36H26V34Z" fill="white"/>
<path d="M30 34H28V36H30V34Z" fill="white"/>
<path d="M34 34H32V36H34V34Z" fill="white"/>
<path d="M42 34H40V36H42V34Z" fill="white"/>
<path d="M46 34H44V36H46V34Z" fill="white"/>
<path d="M50 34H48V36H50V34Z" fill="white"/>
<path d="M18 36H16V38H18V36Z" fill="white"/>
<path d="M20 36H18V38H20V36Z" fill="white"/>
<path d="M22 36H20V38H22V36Z" fill="white"/>
<path d="M26 36H24V38H26V36Z" fill="white"/>
<path d="M34 36H32V38H34V36Z" fill="white"/>
<path d="M38 36H36V38H38V36Z" fill="white"/>
<path d="M42 36H40V38H42V36Z" fill="white"/>
<path d="M44 36H42V38H44V36Z" fill="white"/>
<path d="M50 36H48V38H50V36Z" fill="white"/>
<path d="M24 38H22V40H24V38Z" fill="white"/>
<path d="M26 38H24V40H26V38Z" fill="white"/>
<path d="M30 38H28V40H30V38Z" fill="white"/>
<path d="M32 38H30V40H32V38Z" fill="white"/>
<path d="M34 38H32V40H34V38Z" fill="white"/>
<path d="M42 38H40V40H42V38Z" fill="white"/>
<path d="M20 40H18V42H20V40Z" fill="white"/>
<path d="M22 40H20V42H22V40Z" fill="white"/>
<path d="M26 40H24V42H26V40Z" fill="white"/>
<path d="M32 40H30V42H32V40Z" fill="white"/>
<path d="M34 40H32V42H34V40Z" fill="white"/>
<path d="M36 40H34V42H36V40Z" fill="white"/>
<path d="M38 40H36V42H38V40Z" fill="white"/>
<path d="M40 40H38V42H40V40Z" fill="white"/>
<path d="M42 40H40V42H42V40Z" fill="white"/>
<path d="M44 40H42V42H44V40Z" fill="white"/>
<path d="M48 40H46V42H48V40Z" fill="white"/>
<path d="M22 42H20V44H22V42Z" fill="white"/>
<path d="M30 42H28V44H30V42Z" fill="white"/>
<path d="M34 42H32V44H34V42Z" fill="white"/>
<path d="M36 42H34V44H36V42Z" fill="white"/>
<path d="M42 42H40V44H42V42Z" fill="white"/>
<path d="M44 42H42V44H44V42Z" fill="white"/>
<path d="M46 42H44V44H46V42Z" fill="white"/>
<path d="M48 42H46V44H48V42Z" fill="white"/>
<path d="M18 44H16V46H18V44Z" fill="white"/>
<path d="M20 44H18V46H20V44Z" fill="white"/>
<path d="M24 44H22V46H24V44Z" fill="white"/>
<path d="M36 44H34V46H36V44Z" fill="white"/>
<path d="M42 44H40V46H42V44Z" fill="white"/>
<path d="M48 44H46V46H48V44Z" fill="white"/>
<path d="M50 44H48V46H50V44Z" fill="white"/>
<path d="M22 46H20V48H22V46Z" fill="white"/>
<path d="M24 46H22V48H24V46Z" fill="white"/>
<path d="M26 46H24V48H26V46Z" fill="white"/>
<path d="M34 46H32V48H34V46Z" fill="white"/>
<path d="M38 46H36V48H38V46Z" fill="white"/>
<path d="M40 46H38V48H40V46Z" fill="white"/>
<path d="M42 46H40V48H42V46Z" fill="white"/>
<path d="M18 48H16V50H18V48Z" fill="white"/>
<path d="M22 48H20V50H22V48Z" fill="white"/>
<path d="M24 48H22V50H24V48Z" fill="white"/>
<path d="M34 48H32V50H34V48Z" fill="white"/>
<path d="M38 48H36V50H38V48Z" fill="white"/>
<path d="M44 48H42V50H44V48Z" fill="white"/>
<path d="M50 48H48V50H50V48Z" fill="white"/>
<path d="M11.9 0H2.1C0.940202 0 0 0.940202 0 2.1V11.9V14H2.1H11.9H14V11.9V2.1V0H11.9ZM11.9 11.9H2.1V2.1H11.9V11.9Z" fill="white"/>
<path d="M47.9 0H38.1H36V2.1V11.9V14H38.1H47.9H50V11.9V2.1C50 0.940202 49.0598 0 47.9 0ZM47.9 11.9H38.1V2.1H47.9V11.9Z" fill="white"/>
<path d="M11.9 36H2.1H0V38.1V47.9C0 49.0598 0.940202 50 2.1 50H11.9H14V47.9V38.1V36H11.9ZM11.9 47.9H2.1V38.1H11.9V47.9Z" fill="white"/>
<path d="M10 4H4V10H10V4Z" fill="white"/>
<path d="M46 4H40V10H46V4Z" fill="white"/>
<path d="M10 40H4V46H10V40Z" fill="white"/>
</svg>
