<svg width="300" height="300" viewBox="0 0 300 300" fill="none" xmlns="http://www.w3.org/2000/svg">
<g clip-path="url(#clip0_655_2138)">
<path d="M138.242 121.648C158.726 132.902 184.108 127.062 203.785 140.518C221.065 152.359 237.952 179.743 235.872 200.48C233.552 223.6 211.446 235.712 188.668 232.896C163.597 229.802 149.727 208.025 131.174 193.574C98.7387 168.264 9.82961 125.925 45.1207 72.4295C56.1027 55.8338 90.1598 41.1502 106.284 61.3894C121.794 80.8598 109.43 105.802 138.242 121.648Z" fill="#FFEDE5"/>
<path d="M144.11 276.204C224.804 276.204 290.22 272.93 290.22 268.891C290.22 264.852 224.804 261.578 144.11 261.578C63.4153 261.578 -2 264.852 -2 268.891C-2 272.93 63.4153 276.204 144.11 276.204Z" fill="#F5F5F5"/>
<path d="M112.938 45.2201C115.953 42.537 119.856 40.7799 124.65 39.9487C129.443 39.1175 134.51 39.6451 139.85 41.5314C145.173 43.4178 150.042 46.8243 154.456 51.7512C158.56 56.3334 161.334 61.1332 162.777 66.1505C164.216 70.7901 164.348 75.7365 163.158 80.4465C162.027 84.8121 159.621 88.7411 156.245 91.7321C153.844 93.9841 150.913 95.5945 147.725 96.4156C144.878 97.1249 141.939 97.3949 139.01 97.2166C136.198 97.0358 131.318 96.5558 124.372 95.7761C122.746 95.5991 121.111 95.5086 119.475 95.5047C118.355 95.497 117.238 95.6255 116.148 95.8859C115.284 96.1062 114.444 96.4137 113.642 96.8032C112.867 97.1843 111.555 97.8885 109.695 98.9285C105.87 101.267 102.545 100.858 99.7205 97.7011C99.0189 96.9544 98.4718 96.0765 98.1113 95.1171C97.7509 94.1585 97.5842 93.1371 97.621 92.1132C97.694 90.0331 98.7883 88.0454 100.903 86.1507C105.21 82.0234 110.979 79.7746 116.943 79.8974C120.338 80.0104 123.725 80.2953 127.092 80.7501C130.67 81.1829 133.313 81.4542 135.018 81.5447C136.711 81.6416 138.409 81.5001 140.063 81.1248C141.713 80.7591 143.238 79.9684 144.488 78.8315C145.711 77.7695 146.691 76.4568 147.36 74.9813C148.028 73.5065 148.371 71.9044 148.364 70.2849C148.416 66.8398 147.124 63.6376 144.488 60.6789C141.375 57.2034 138.207 55.4312 134.986 55.3622C131.764 55.2934 127.929 56.2193 123.48 58.1401C118.954 60.2632 115.347 59.8326 112.66 56.8481C111.895 56.0282 111.31 55.0578 110.942 53.9988C110.573 52.9398 110.431 51.8156 110.522 50.6982C110.541 49.6705 110.765 48.6569 111.179 47.7164C111.594 46.776 112.192 45.9274 112.938 45.2201ZM81.71 114.788C80.022 112.954 79.0795 110.555 79.0679 108.063C79.0291 105.513 80.1293 103.233 82.3689 101.222C83.2908 100.369 84.3793 99.7173 85.5654 99.3071C86.7521 98.8969 88.0105 98.7373 89.2618 98.8381C90.5292 98.915 91.7682 99.2457 92.9046 99.8123C94.0415 100.378 95.0519 101.168 95.8768 102.133C96.725 103.051 97.38 104.13 97.8025 105.306C98.2257 106.482 98.4078 107.732 98.3387 108.979C98.2689 110.227 97.9498 111.449 97.3994 112.571C96.849 113.693 96.0784 114.693 95.1339 115.511C92.9246 117.488 90.5557 118.332 88.0279 118.044C85.5854 117.798 83.3276 116.634 81.71 114.788Z" fill="#FE5000"/>
<g opacity="0.5">
<path opacity="0.5" d="M170.703 88.5342C171.61 86.3792 173.114 84.5277 175.038 83.1983C177.299 81.5878 179.938 80.5904 182.699 80.3042C185.916 79.9579 189.168 80.4334 192.15 81.6866C194.967 82.7286 197.512 84.3966 199.592 86.5639C201.394 88.4393 202.646 90.7752 203.21 93.3146C203.729 95.688 203.527 98.1629 202.628 100.421C202.019 102.076 201.001 103.552 199.67 104.71C198.477 105.735 197.135 106.571 195.69 107.191C194.303 107.78 191.851 108.724 188.332 110.02C187.509 110.322 186.705 110.671 185.923 111.067C185.385 111.331 184.881 111.66 184.424 112.049C184.061 112.359 183.732 112.708 183.442 113.089C183.164 113.457 182.706 114.109 182.066 115.027C180.774 117.068 179.084 117.671 176.995 116.835C176.48 116.646 176.006 116.357 175.603 115.985C175.199 115.613 174.873 115.164 174.644 114.665C174.413 114.081 174.306 113.456 174.331 112.828C174.355 112.201 174.511 111.585 174.786 111.021C175.857 108.011 178.078 105.549 180.961 104.174C182.612 103.405 184.3 102.719 186.02 102.12C187.835 101.474 189.166 100.963 190.005 100.602C190.839 100.24 191.617 99.7636 192.318 99.1868C193.02 98.6138 193.561 97.8676 193.888 97.0227C194.219 96.221 194.372 95.3573 194.338 94.491C194.303 93.6247 194.081 92.7759 193.688 92.0032C192.823 90.3023 191.335 89.0019 189.534 88.3727C187.208 87.4554 185.27 87.3669 183.72 88.1079C181.837 89.1098 180.19 90.5013 178.888 92.1906C177.226 94.2965 175.391 94.9425 173.384 94.1286C172.821 93.918 172.308 93.593 171.878 93.1738C171.448 92.7545 171.109 92.25 170.884 91.6932C170.646 91.2048 170.507 90.6744 170.476 90.1318C170.445 89.5898 170.522 89.0465 170.703 88.5342ZM172.467 129.361C171.219 128.888 170.191 127.967 169.585 126.777C169.275 126.152 169.107 125.465 169.094 124.767C169.081 124.069 169.222 123.377 169.508 122.74C169.74 122.108 170.103 121.532 170.571 121.048C171.04 120.564 171.604 120.183 172.228 119.93C172.854 119.662 173.527 119.525 174.208 119.525C174.888 119.525 175.562 119.662 176.188 119.93C176.814 120.166 177.387 120.525 177.872 120.986C178.357 121.448 178.744 122.002 179.011 122.616C179.278 123.23 179.419 123.891 179.425 124.56C179.432 125.23 179.304 125.894 179.049 126.513C178.826 127.176 178.459 127.781 177.974 128.286C177.49 128.791 176.899 129.182 176.246 129.432C175.022 129.887 173.672 129.861 172.467 129.361Z" fill="#FE5000"/>
</g>
<g opacity="0.1">
<path opacity="0.1" d="M214.153 84.7292C213.569 83.8099 213.258 82.7434 213.255 81.6542C213.234 80.3635 213.55 79.0896 214.172 77.9591C214.891 76.6419 215.934 75.5308 217.202 74.7291C218.346 73.9235 219.658 73.3893 221.039 73.1658C222.236 72.972 223.463 73.1102 224.586 73.5663C225.638 73.992 226.538 74.7233 227.17 75.6658C227.645 76.337 227.943 77.1167 228.036 77.9332C228.11 78.66 228.075 79.3938 227.932 80.1103C227.79 80.8034 227.501 81.9921 227.067 83.6762C226.968 84.0722 226.891 84.4733 226.834 84.8777C226.759 85.3752 226.799 85.8836 226.95 86.3635C227.021 86.5703 227.151 86.9191 227.344 87.4101C227.463 87.611 227.54 87.8338 227.571 88.0651C227.602 88.2957 227.587 88.5309 227.527 88.7563C227.467 88.9811 227.363 89.1924 227.22 89.3771C227.078 89.5619 226.901 89.7169 226.698 89.8326C226.278 90.1278 225.758 90.2441 225.251 90.1556C224.966 90.091 224.697 89.9676 224.463 89.7931C224.227 89.6181 224.032 89.3965 223.888 89.1413C223.434 88.4966 223.112 87.7673 222.945 86.9966C222.811 86.3287 222.796 85.642 222.9 84.9682C223.039 84.1323 223.223 83.3041 223.449 82.4875C223.682 81.6154 223.837 80.9759 223.921 80.5495C224.002 80.1238 224.026 79.6897 223.992 79.2575C223.955 78.8363 223.81 78.4313 223.572 78.0818C223.351 77.744 223.061 77.4578 222.72 77.2427C222.379 77.0275 221.995 76.8887 221.595 76.835C220.707 76.7142 219.808 76.9462 219.089 77.481C218.681 77.7078 218.324 78.0166 218.042 78.388C217.76 78.7588 217.557 79.1852 217.448 79.6387C217.335 80.6258 217.435 81.6258 217.738 82.5715C218.107 83.7666 217.868 84.6387 217.034 85.2007C216.806 85.3603 216.547 85.4708 216.273 85.525C215.999 85.5799 215.718 85.5767 215.445 85.5173C215.188 85.4792 214.941 85.39 214.719 85.2544C214.497 85.1193 214.305 84.9404 214.153 84.7292ZM230.271 94.8455C229.759 95.1957 229.136 95.3455 228.52 95.2654C228.195 95.2189 227.885 95.1007 227.613 94.9185C227.339 94.7363 227.111 94.4947 226.944 94.2124C226.764 93.9566 226.638 93.6659 226.576 93.3591C226.514 93.0522 226.516 92.7357 226.582 92.4295C226.645 92.1188 226.769 91.8235 226.948 91.5619C227.127 91.3003 227.356 91.0768 227.622 90.9049C227.878 90.7266 228.167 90.6019 228.473 90.5386C228.778 90.4753 229.093 90.4747 229.399 90.5367C229.706 90.5935 229.998 90.7124 230.257 90.8868C230.516 91.0619 230.736 91.2874 230.904 91.5509C231.099 91.8125 231.234 92.1129 231.3 92.4321C231.366 92.7518 231.361 93.0813 231.285 93.3985C231.14 93.9909 230.778 94.507 230.271 94.8455Z" fill="#FE5000"/>
</g>
<path d="M97.0202 264.615L92.1365 263.349L95.0499 252.179L99.9337 253.445L97.0202 264.615Z" fill="#FFC3BD"/>
<path d="M92.0848 262.056L97.537 263.781C97.5823 263.792 97.6249 263.813 97.6624 263.841C97.6998 263.869 97.7308 263.904 97.7547 263.945C97.778 263.985 97.7929 264.029 97.7993 264.076C97.8051 264.122 97.8013 264.169 97.789 264.214L96.6391 268.445C96.5583 268.667 96.3949 268.85 96.183 268.954C95.9718 269.059 95.7276 269.078 95.5021 269.007C93.6158 268.361 92.7437 267.987 90.3341 267.224C88.8548 266.759 85.2889 265.706 83.2281 265.06C81.1674 264.414 81.9361 262.476 82.8341 262.599C86.9814 263.032 89.391 262.683 91.1158 262.082C91.4272 261.967 91.7676 261.958 92.0848 262.056Z" fill="#263238"/>
<path opacity="0.2" d="M99.9338 253.452L95.05 252.186L93.5513 257.941L98.435 259.208L99.9338 253.452Z" fill="black"/>
<path d="M112.24 139.232C112.24 139.232 103.3 181.72 100.922 195.628C98.3383 210.861 92.6599 254.472 92.6599 254.472L100.961 257.489C100.961 257.489 113.952 211.242 115.922 196.597C120.05 182.282 130.509 139.232 130.509 139.232H112.24Z" fill="#FE5000"/>
<path opacity="0.3" d="M123.719 153.102C120.819 160.066 119.766 172.747 120.27 180.331C122.57 171.377 125.121 161.151 127.098 153.141C126.458 150.938 125.58 148.625 123.719 153.102Z" fill="black"/>
<path d="M100.793 258.471L91.8911 255.9L92.227 252.134L102.821 255.112L100.793 258.471Z" fill="#263238"/>
<path d="M90.0824 262.328C90.523 262.454 90.9751 262.534 91.4325 262.567C91.4558 262.571 91.479 262.567 91.5003 262.556C91.521 262.546 91.5378 262.529 91.5488 262.509C91.5611 262.491 91.5675 262.469 91.5675 262.447C91.5675 262.425 91.5611 262.404 91.5488 262.386C91.4261 262.231 90.3602 260.894 89.6948 260.932C89.6185 260.935 89.5436 260.958 89.4784 260.997C89.4125 261.036 89.3582 261.092 89.3201 261.159C89.2542 261.252 89.2142 261.36 89.2038 261.474C89.1935 261.587 89.2135 261.701 89.262 261.805C89.4622 262.073 89.7542 262.26 90.0824 262.328ZM91.1806 262.328C90.2503 262.218 89.6237 261.992 89.4687 261.682C89.4383 261.615 89.4273 261.541 89.4364 261.468C89.4454 261.395 89.4745 261.326 89.5204 261.268C89.5384 261.235 89.5643 261.208 89.5959 261.188C89.6276 261.167 89.6638 261.155 89.7012 261.152C90.0501 261.139 90.7348 261.792 91.1806 262.315V262.328Z" fill="#FE5000"/>
<path d="M91.4066 262.567H91.4648C91.4835 262.564 91.5022 262.556 91.5177 262.546C91.5332 262.534 91.5462 262.519 91.5552 262.502C91.5552 262.444 92.1495 261.133 91.8136 260.525C91.7677 260.448 91.7057 260.381 91.6327 260.328C91.5591 260.276 91.4757 260.24 91.3872 260.222C91.2903 260.194 91.1863 260.198 91.092 260.234C90.9977 260.27 90.9176 260.336 90.864 260.422C90.5733 260.9 90.9673 262.102 91.3549 262.528C91.3672 262.546 91.3853 262.56 91.4066 262.567ZM91.4066 260.461C91.4512 260.474 91.4925 260.497 91.5281 260.527C91.5636 260.556 91.5927 260.594 91.6133 260.635C91.7303 261.169 91.6644 261.726 91.426 262.218C91.1224 261.74 90.8898 260.848 91.0836 260.538C91.0836 260.48 91.1805 260.416 91.3485 260.448L91.4066 260.461Z" fill="#FE5000"/>
<path d="M119.159 102.843C118.726 103.89 118.313 104.82 117.867 105.776C117.421 106.732 116.943 107.669 116.459 108.605C115.477 110.472 114.443 112.313 113.306 114.109C111.044 117.842 108.308 121.266 105.166 124.297L105.05 124.413C104.885 124.562 104.703 124.69 104.508 124.794C103.969 125.084 103.378 125.263 102.77 125.317C102.422 125.343 102.072 125.343 101.723 125.317C101.202 125.284 100.684 125.213 100.173 125.104C99.2556 124.91 98.4416 124.671 97.6406 124.42C96.0514 123.916 94.5721 123.302 93.1186 122.682C91.6651 122.062 90.231 121.39 88.8227 120.66C87.4144 119.93 86.032 119.2 84.6625 118.373C84.3446 118.179 84.1069 117.878 83.9913 117.525C83.8756 117.171 83.8899 116.788 84.0313 116.443C84.1735 116.1 84.4331 115.817 84.7639 115.647C85.0953 115.478 85.4758 115.432 85.8382 115.518C88.8356 116.241 91.8266 117.049 94.7724 117.766C96.2388 118.134 97.7052 118.457 99.1135 118.728C99.7769 118.863 100.448 118.96 101.123 119.019C101.376 119.034 101.631 119.034 101.885 119.019C101.982 119.019 102.02 119.019 101.995 119.019C101.765 119.025 101.541 119.095 101.349 119.219L100.703 119.717C101.953 118.334 103.111 116.87 104.172 115.337C105.257 113.767 106.284 112.107 107.272 110.44C108.261 108.773 109.21 107.023 110.108 105.272C111.006 103.521 111.898 101.719 112.692 100.033L112.731 99.949C113.112 99.0924 113.818 98.4225 114.694 98.086C115.569 97.75 116.542 97.7752 117.399 98.1564C118.255 98.5375 118.925 99.2436 119.262 100.119C119.597 100.994 119.572 101.967 119.191 102.824L119.159 102.843Z" fill="#FFC3BD"/>
<path d="M118.164 96.0083C114.004 96.1246 111.148 100.64 108.422 106.267C110.512 109.879 113.506 112.884 117.111 114.988C117.111 114.988 128.041 95.7306 118.164 96.0083Z" fill="#E0E0E0"/>
<path d="M84.4555 118.399L80.7087 117.443L83.6287 113.689C83.6287 113.689 86.8587 114.2 88.0861 116.919L86.7553 117.869C86.4323 118.117 86.0602 118.293 85.6629 118.385C85.2663 118.476 84.8548 118.481 84.4555 118.399Z" fill="#FFC3BD"/>
<path d="M79.7979 113.605L80.5214 112.959C80.8173 112.7 81.1952 112.554 81.5886 112.545C81.982 112.537 82.3657 112.667 82.6726 112.914L83.6287 113.683L80.7087 117.436L79.5136 115.576C79.316 115.268 79.2352 114.899 79.2875 114.538C79.3399 114.175 79.5214 113.844 79.7979 113.605Z" fill="#FFC3BD"/>
<path d="M140.735 264.033H135.625L134.404 252.65H139.514L140.735 264.033Z" fill="#FFC3BD"/>
<path d="M135.18 263.464H140.922C141.017 263.459 141.11 263.492 141.182 263.554C141.253 263.617 141.297 263.705 141.304 263.8L141.581 268.167C141.576 268.402 141.479 268.625 141.311 268.79C141.144 268.954 140.918 269.046 140.683 269.046C138.687 269.007 137.731 268.897 135.205 268.897C133.655 268.897 129.391 269.052 127.227 269.052C125.063 269.052 125.141 267.011 126.052 266.83C130.128 265.997 132.854 264.853 134.301 263.768C134.552 263.573 134.861 263.466 135.18 263.464Z" fill="#263238"/>
<path opacity="0.2" d="M139.514 252.65H134.404L135.037 258.523H140.147L139.514 252.65Z" fill="black"/>
<path d="M122.227 139.232C122.227 139.232 123.358 181.946 124.165 196.022C125.07 211.436 132.725 257.101 132.725 257.101H142.092C142.092 257.101 140.038 210.854 138.487 195.731C139.133 179.168 139.559 139.219 139.559 139.219L122.227 139.232Z" fill="#FE5000"/>
<path d="M142.466 257.101H131.846L131.342 253.684L142.751 253.878L142.466 257.101Z" fill="#263238"/>
<path d="M133.371 264.317C133.83 264.307 134.287 264.249 134.734 264.143C134.756 264.139 134.776 264.128 134.791 264.112C134.805 264.095 134.815 264.075 134.818 264.053C134.824 264.031 134.823 264.008 134.814 263.987C134.806 263.966 134.792 263.948 134.772 263.936C134.611 263.833 133.164 262.877 132.537 263.116C132.468 263.142 132.405 263.185 132.356 263.241C132.308 263.298 132.274 263.366 132.26 263.439C132.219 263.549 132.212 263.669 132.238 263.784C132.264 263.899 132.323 264.003 132.408 264.085C132.691 264.275 133.032 264.357 133.371 264.317ZM134.404 263.982C133.487 264.156 132.815 264.124 132.576 263.898C132.527 263.843 132.493 263.777 132.478 263.706C132.464 263.634 132.468 263.56 132.492 263.491C132.498 263.455 132.513 263.421 132.536 263.393C132.559 263.365 132.588 263.343 132.621 263.329C132.957 263.2 133.81 263.613 134.404 263.982Z" fill="#FE5000"/>
<path d="M134.701 264.15H134.76C134.777 264.139 134.791 264.125 134.803 264.108C134.814 264.091 134.821 264.073 134.824 264.053C134.824 263.995 134.94 262.58 134.424 262.115C134.357 262.051 134.278 262.004 134.19 261.978C134.103 261.951 134.01 261.945 133.92 261.96C133.82 261.961 133.723 261.995 133.645 262.057C133.566 262.119 133.511 262.205 133.487 262.302C133.371 262.838 134.133 263.865 134.643 264.156L134.701 264.15ZM133.978 262.153C134.026 262.152 134.074 262.161 134.117 262.178C134.162 262.196 134.203 262.223 134.236 262.257C134.519 262.726 134.638 263.276 134.572 263.82C134.127 263.458 133.616 262.677 133.694 262.328C133.694 262.257 133.752 262.179 133.926 262.16L133.978 262.153Z" fill="#FE5000"/>
<path d="M114.391 99.2967C114.667 98.4601 115.163 97.714 115.827 97.1351C116.49 96.5563 117.298 96.1674 118.164 96.0085C119.426 95.7139 120.705 95.4982 121.995 95.3625C125.868 95.1487 129.749 95.1487 133.623 95.3625C135.651 95.453 137.718 95.692 139.366 95.9245H139.424C139.847 95.9736 140.256 96.1087 140.625 96.3212C140.995 96.5331 141.317 96.8186 141.572 97.1597C141.828 97.5001 142.012 97.8897 142.113 98.3038C142.213 98.7178 142.228 99.1481 142.156 99.568C140.867 106.151 140.023 112.814 139.631 119.51C139.23 129.239 139.773 136.874 139.579 139.219H112.24C110.58 115.492 112.725 104.704 114.391 99.2967Z" fill="#E0E0E0"/>
<path d="M135.477 80.8857C135.954 81.2301 136.333 81.6926 136.578 82.2275C136.822 82.7624 136.924 83.3515 136.872 83.9374C136.821 84.5234 136.618 85.086 136.284 85.5705C135.95 86.0544 135.496 86.4439 134.966 86.6997C136.071 88.5279 133.132 91.7579 130.173 89.7295C127.214 87.701 131.394 79.1609 135.477 80.8857Z" fill="#263238"/>
<path d="M123.242 78.9217C122.836 78.934 122.433 78.8403 122.075 78.6497C121.716 78.4598 121.412 78.1801 121.194 77.8377C120.976 77.4947 120.851 77.1019 120.83 76.6962C120.809 76.2905 120.895 75.8868 121.077 75.5237C119.701 74.9876 119.947 71.9837 122.428 71.8545C124.908 71.7253 126.187 78.1659 123.242 78.9217Z" fill="#263238"/>
<path d="M122.434 97.9011C122.249 97.7312 122.112 97.5167 122.035 97.2777C121.958 97.0387 121.944 96.7835 121.996 96.538C122.048 96.2925 122.162 96.0645 122.328 95.8765C122.495 95.6885 122.707 95.547 122.944 95.4656C125.438 94.5483 125.89 92.7395 125.69 90.7692C125.632 90.2149 125.542 89.6652 125.418 89.1219L129.65 85.7433L132.763 83.2627C131.988 86.4927 131.123 92.1194 132.763 94.9682C132.948 95.266 133.019 95.6207 132.964 95.9663C132.909 96.3125 132.733 96.6271 132.466 96.8545C131.394 97.8042 129.198 99.0316 125.58 98.8378C123.92 98.7538 122.996 98.3726 122.434 97.9011Z" fill="#FFC3BD"/>
<path d="M112.989 99.4132C113.298 98.4829 113.841 97.6483 114.566 96.9894C115.292 96.3311 116.175 95.8705 117.13 95.6535C118.356 95.459 119.592 95.3292 120.832 95.2658C120.961 95.2471 121.093 95.2613 121.216 95.3065C121.339 95.3518 121.448 95.4267 121.535 95.5242C121.621 95.6224 121.682 95.7407 121.712 95.8679C121.741 95.9952 121.738 96.1283 121.704 96.2542C119.54 104.29 116.452 120.369 117.408 140.286C117.413 140.41 117.391 140.533 117.347 140.649C117.301 140.764 117.234 140.87 117.146 140.957C117.059 141.046 116.955 141.116 116.84 141.162C116.725 141.209 116.602 141.231 116.478 141.229H111.051C110.816 141.233 110.588 141.147 110.414 140.988C110.24 140.83 110.133 140.611 110.115 140.376C108.48 116.041 111.368 103.916 112.989 99.4132Z" fill="#263238"/>
<path d="M139.217 95.4401C137.48 95.1914 135.731 95.0319 133.978 94.9621C133.661 94.9388 133.345 95.0286 133.088 95.2153C132.83 95.402 132.646 95.674 132.57 95.9828C130.561 104.833 128.771 124.497 128.694 140.318C128.696 140.439 128.723 140.557 128.771 140.667C128.82 140.778 128.889 140.877 128.976 140.961C129.063 141.045 129.166 141.11 129.278 141.154C129.39 141.197 129.51 141.218 129.63 141.216H139.32C139.561 141.221 139.793 141.132 139.968 140.968C140.143 140.804 140.247 140.577 140.257 140.337C140.322 137.152 139.882 129.691 140.257 120.427C140.615 113.827 141.444 107.259 142.738 100.776C143.074 98.9608 141.136 95.7115 139.217 95.4401Z" fill="#263238"/>
<path d="M142.622 98.2503C144.695 101.377 146.582 104.51 148.364 107.798C149.243 109.445 150.109 111.119 150.89 112.876C151.278 113.754 151.659 114.652 152.014 115.602C152.406 116.629 152.709 117.688 152.919 118.767C153.078 119.553 153.113 120.36 153.022 121.157C152.917 121.803 152.75 122.437 152.525 123.05C152.156 124.051 151.704 125.019 151.175 125.944C150.224 127.623 149.164 129.236 148.003 130.776C145.768 133.758 143.324 136.577 140.69 139.213C140.386 139.518 139.98 139.701 139.55 139.726C139.12 139.751 138.695 139.618 138.357 139.351C138.019 139.084 137.791 138.701 137.716 138.277C137.641 137.853 137.725 137.416 137.951 137.049V137.01C139.831 133.981 141.73 130.893 143.448 127.831C144.301 126.306 145.115 124.756 145.768 123.257C146.42 121.758 146.898 120.117 146.562 120.072C146.356 119.385 146.106 118.712 145.813 118.057C145.49 117.32 145.122 116.558 144.734 115.802C143.946 114.284 143.1 112.74 142.215 111.222C140.445 108.173 138.558 105.098 136.691 102.12V102.081C136.183 101.295 136.008 100.339 136.205 99.4234C136.402 98.508 136.955 97.7083 137.741 97.2005C138.527 96.6928 139.483 96.5177 140.399 96.7147C141.314 96.9118 142.114 97.4641 142.622 98.2503Z" fill="#FFC3BD"/>
<path d="M138.603 95.3562C142.764 95.2787 144.966 98.7994 147.693 104.4C144.605 110.117 138.713 112.592 138.713 112.592C138.713 112.592 130.425 95.4984 138.603 95.3562Z" fill="#E0E0E0"/>
<path d="M136.472 136.881L134.075 137.643L138.513 141.015C138.513 141.015 142.144 139.129 141.007 137.417L140.27 137.088C139.071 136.559 137.72 136.485 136.472 136.881Z" fill="#FFC3BD"/>
<path d="M132.731 140.602L135.425 143.308C135.512 143.394 135.616 143.46 135.73 143.502C135.844 143.545 135.965 143.564 136.087 143.557C136.208 143.55 136.327 143.518 136.436 143.464C136.544 143.409 136.64 143.332 136.717 143.237L138.507 141.015L134.069 137.643L132.686 139.536C132.559 139.687 132.492 139.88 132.501 140.078C132.509 140.275 132.592 140.462 132.731 140.602Z" fill="#FFC3BD"/>
<path opacity="0.2" d="M125.418 89.1481C125.542 89.6914 125.632 90.2411 125.69 90.7954C127.292 91.2024 129.566 89.3677 129.779 87.8109C129.806 87.1281 129.763 86.444 129.65 85.7695L125.418 89.1481Z" fill="black"/>
<path d="M135.419 78.6765C134.327 83.444 133.939 86.2864 131.006 88.4117C130.047 89.1133 128.918 89.5481 127.736 89.6721C126.554 89.7961 125.36 89.6043 124.276 89.1165C123.192 88.6282 122.258 87.862 121.566 86.8949C120.874 85.9285 120.452 84.7954 120.341 83.612C119.966 79.1416 121.814 72.0938 127.033 70.8405C132.253 69.5873 136.51 73.9026 135.419 78.6765Z" fill="#FFC3BD"/>
<path d="M133.209 82.8496C131.827 82.9207 130.354 78.0434 133.403 75.6919C132.919 75.9568 131.594 75.4723 131.827 74.5614C130.929 74.9361 127.001 74.7746 127.951 73.179C125.955 73.6958 121.601 72.8301 121.136 70.9244C120.67 69.0187 122.919 68.9541 123.267 69.2061C122.279 67.8236 122.298 65.7952 124.921 65.0588C127.544 64.3223 131.497 68.1143 131.497 68.1143C131.084 67.113 132.537 66.3055 134.043 67.1647C135.548 68.0239 136.252 70.4658 136.252 70.4658C136.252 69.7293 139.766 70.7177 138.1 73.8056C139.824 74.4516 140.612 75.3689 140.503 76.9645C140.393 78.5602 139.301 78.6506 139.301 78.6506C139.532 79.2249 139.564 79.8606 139.392 80.4549C139.22 81.0498 138.853 81.5699 138.351 81.9323C136.562 83.3729 134.999 81.6803 133.209 82.8496Z" fill="#263238"/>
<path d="M135.948 83.2178C135.34 84.1067 134.443 84.7579 133.41 85.0589C132.079 85.4142 131.627 84.2256 132.169 82.9853C132.66 81.8677 133.939 80.3302 135.193 80.524C136.446 80.7178 136.698 82.1067 135.948 83.2178Z" fill="#FFC3BD"/>
<path d="M127.518 78.4827C127.453 78.8703 127.182 79.161 126.917 79.1287C126.652 79.0964 126.484 78.7476 126.549 78.3535C126.614 77.9595 126.885 77.7075 127.15 77.7075C127.415 77.7075 127.55 78.0887 127.518 78.4827Z" fill="#263238"/>
<path d="M122.789 77.6234C122.725 78.0174 122.46 78.3081 122.195 78.2694C121.93 78.2306 121.762 77.8882 121.827 77.4941C121.891 77.1001 122.156 76.8481 122.421 76.8481C122.686 76.8481 122.854 77.2357 122.789 77.6234Z" fill="#263238"/>
<path d="M124.656 78.502C123.968 79.6389 123.127 80.6757 122.156 81.5834C122.408 81.8198 122.707 81.9994 123.033 82.1112C123.359 82.2223 123.706 82.263 124.049 82.2294L124.656 78.502Z" fill="#ED847E"/>
<path d="M124.889 84.1543C125.359 84.2073 125.835 84.166 126.288 84.0329C126.742 83.8998 127.164 83.6776 127.531 83.3792C127.552 83.3565 127.564 83.3262 127.564 83.2952C127.564 83.2642 127.552 83.2338 127.531 83.2112C127.508 83.1912 127.478 83.1802 127.447 83.1802C127.416 83.1802 127.386 83.1912 127.363 83.2112C126.96 83.531 126.489 83.7558 125.987 83.8675C125.484 83.9793 124.963 83.976 124.463 83.8572C124.447 83.8533 124.431 83.8527 124.416 83.8552C124.4 83.8578 124.385 83.8636 124.372 83.872C124.359 83.8804 124.348 83.8914 124.338 83.9043C124.329 83.9173 124.324 83.9321 124.32 83.9476C124.317 83.9625 124.316 83.978 124.318 83.9935C124.321 84.0083 124.327 84.0226 124.335 84.0355C124.344 84.0484 124.355 84.0594 124.368 84.0671C124.381 84.0755 124.395 84.0813 124.411 84.0833C124.568 84.1188 124.728 84.1421 124.889 84.1543Z" fill="#263238"/>
<path d="M127.712 75.7952C127.673 75.8056 127.637 75.8256 127.608 75.8534C127.586 75.8747 127.568 75.8999 127.556 75.9283C127.544 75.9567 127.537 75.9871 127.537 76.0181C127.537 76.0491 127.544 76.0795 127.556 76.1079C127.568 76.1363 127.586 76.1615 127.608 76.1828C127.86 76.4638 128.176 76.6802 128.529 76.8133C128.882 76.9457 129.262 76.991 129.637 76.9451C129.668 76.9419 129.698 76.9328 129.725 76.9173C129.753 76.9018 129.776 76.8811 129.795 76.8566C129.814 76.8314 129.827 76.803 129.835 76.7726C129.842 76.7423 129.843 76.7106 129.837 76.6802C129.832 76.6492 129.82 76.6195 129.804 76.593C129.786 76.5665 129.764 76.5439 129.738 76.5258C129.712 76.5078 129.683 76.4948 129.653 76.4884C129.622 76.4813 129.59 76.4806 129.559 76.4864C129.263 76.5123 128.965 76.4677 128.69 76.3553C128.415 76.2429 128.17 76.0665 127.977 75.8404C127.941 75.8094 127.897 75.7888 127.851 75.7804C127.804 75.7726 127.756 75.7778 127.712 75.7952Z" fill="#263238"/>
<path d="M121.452 74.626C121.487 74.6421 121.526 74.6499 121.565 74.6499C121.604 74.6499 121.643 74.6421 121.678 74.626C121.954 74.4884 122.256 74.4128 122.564 74.4051C122.873 74.3973 123.179 74.4574 123.461 74.5808C123.516 74.6118 123.581 74.6208 123.643 74.6053C123.704 74.5892 123.757 74.5504 123.79 74.4968C123.819 74.4406 123.824 74.376 123.806 74.3159C123.789 74.2558 123.748 74.2048 123.694 74.1738C123.345 74.0065 122.963 73.9199 122.576 73.9199C122.189 73.9199 121.807 74.0065 121.458 74.1738C121.43 74.1861 121.405 74.2042 121.384 74.2268C121.363 74.2494 121.347 74.2765 121.338 74.3056C121.328 74.3353 121.324 74.3663 121.327 74.3967C121.331 74.4277 121.34 74.4574 121.355 74.4839C121.37 74.5414 121.404 74.5918 121.452 74.626Z" fill="#263238"/>
</g>
<defs>
<clipPath id="clip0_655_2138">
<rect width="300" height="300" fill="white"/>
</clipPath>
</defs>
</svg>
