<svg width="259" height="296" viewBox="0 0 259 296" fill="none" xmlns="http://www.w3.org/2000/svg">
<path d="M14.4364 240.793C4.94727 235.288 0.23472 228.062 0.298739 220.846C0.361901 213.728 5.07445 206.621 14.4364 201.19L46.9731 182.314L95.1744 154.35C114.025 143.414 144.589 143.414 163.44 154.35L221.457 188.008L244.178 201.19C253.54 206.621 258.253 213.728 258.316 220.846C258.38 228.062 253.667 235.288 244.178 240.793L163.44 287.633C144.589 298.569 114.025 298.569 95.1744 287.633L14.4364 240.793Z" fill="#C4C4C4"/>
<path d="M14.4364 240.793C4.94727 235.288 0.23472 228.062 0.298739 220.846C0.361901 213.728 5.07445 206.621 14.4364 201.19L46.9731 182.314L95.1744 154.35C114.025 143.414 144.589 143.414 163.44 154.35L221.457 188.008L244.178 201.19C253.54 206.621 258.253 213.728 258.316 220.846C258.38 228.062 253.667 235.288 244.178 240.793L163.44 287.633C144.589 298.569 114.025 298.569 95.1744 287.633L14.4364 240.793Z" fill="white"/>
<path d="M14.4364 240.793C4.94727 235.288 0.23472 228.062 0.298739 220.846C0.361901 213.728 5.07445 206.621 14.4364 201.19L46.9731 182.314L95.1744 154.35C114.025 143.414 144.589 143.414 163.44 154.35L221.457 188.008L244.178 201.19C253.54 206.621 258.253 213.728 258.316 220.846C258.38 228.062 253.667 235.288 244.178 240.793L163.44 287.633C144.589 298.569 114.025 298.569 95.1744 287.633L14.4364 240.793Z" fill="url(#paint0_linear_984_4498)" fill-opacity="0.3"/>
<path d="M0.298739 220.846C0.361901 213.728 5.07445 206.621 14.4364 201.19L46.9731 182.314L0.298739 198.391V220.846Z" fill="#C4C4C4"/>
<path d="M0.298739 220.846C0.361901 213.728 5.07445 206.621 14.4364 201.19L46.9731 182.314L0.298739 198.391V220.846Z" fill="white"/>
<path d="M0.298739 220.846C0.361901 213.728 5.07445 206.621 14.4364 201.19L46.9731 182.314L0.298739 198.391V220.846Z" fill="url(#paint1_linear_984_4498)" fill-opacity="0.3"/>
<path d="M244.178 201.19C253.54 206.621 258.253 213.728 258.316 220.846V198.391L221.457 188.008L244.178 201.19Z" fill="#C4C4C4"/>
<path d="M244.178 201.19C253.54 206.621 258.253 213.728 258.316 220.846V198.391L221.457 188.008L244.178 201.19Z" fill="white"/>
<path d="M244.178 201.19C253.54 206.621 258.253 213.728 258.316 220.846V198.391L221.457 188.008L244.178 201.19Z" fill="url(#paint2_linear_984_4498)" fill-opacity="0.3"/>
<path d="M14.4364 218.391C-4.41467 207.455 -4.41467 189.724 14.4364 178.788L95.1744 131.948C114.025 121.012 144.589 121.012 163.44 131.948L244.178 178.788C263.029 189.724 263.029 207.455 244.178 218.391L163.44 265.231C144.589 276.167 114.025 276.167 95.1744 265.231L14.4364 218.391Z" fill="#C4C4C4"/>
<path d="M14.4364 218.391C-4.41467 207.455 -4.41467 189.724 14.4364 178.788L95.1744 131.948C114.025 121.012 144.589 121.012 163.44 131.948L244.178 178.788C263.029 189.724 263.029 207.455 244.178 218.391L163.44 265.231C144.589 276.167 114.025 276.167 95.1744 265.231L14.4364 218.391Z" fill="white"/>
<path d="M14.4364 218.391C-4.41467 207.455 -4.41467 189.724 14.4364 178.788L95.1744 131.948C114.025 121.012 144.589 121.012 163.44 131.948L244.178 178.788C263.029 189.724 263.029 207.455 244.178 218.391L163.44 265.231C144.589 276.167 114.025 276.167 95.1744 265.231L14.4364 218.391Z" fill="url(#paint3_linear_984_4498)" fill-opacity="0.15"/>
<g filter="url(#filter0_f_984_4498)">
<rect width="49.6327" height="110.062" rx="24.8164" transform="matrix(0.864979 -0.501808 0.864979 0.501808 63.0022 176.737)" fill="black" fill-opacity="0.1"/>
</g>
<path d="M89.3217 47.4162C89.3217 37.538 92.7431 30.5717 98.2858 27.2716C98.362 27.2263 98.4386 27.1816 98.5156 27.1376C104.136 23.9272 111.875 24.4192 120.419 29.3757L157.735 51.0243C174.909 60.9878 188.832 85.2189 188.832 105.146L188.832 147.164C188.832 156.906 185.466 163.793 180.018 167.125C179.744 167.292 179.465 167.451 179.181 167.6C173.554 170.558 165.929 169.959 157.573 165.111C150.852 161.212 144.737 162.372 142.179 168.1L139.127 174.932L135.416 163.432C132.711 155.051 126.838 147.28 120.374 143.53C103.224 133.581 89.3217 109.385 89.3217 89.4862L89.3217 47.4162Z" fill="#FF0000"/>
<path d="M89.3217 47.4162C89.3217 37.538 92.7431 30.5717 98.2858 27.2716C98.362 27.2263 98.4386 27.1816 98.5156 27.1376C104.136 23.9272 111.875 24.4192 120.419 29.3757L157.735 51.0243C174.909 60.9878 188.832 85.2189 188.832 105.146L188.832 147.164C188.832 156.906 185.466 163.793 180.018 167.125C179.744 167.292 179.465 167.451 179.181 167.6C173.554 170.558 165.929 169.959 157.573 165.111C150.852 161.212 144.737 162.372 142.179 168.1L139.127 174.932L135.416 163.432C132.711 155.051 126.838 147.28 120.374 143.53C103.224 133.581 89.3217 109.385 89.3217 89.4862L89.3217 47.4162Z" fill="#FF835E"/>
<path d="M89.3217 47.4162C89.3217 37.538 92.7431 30.5717 98.2858 27.2716C98.362 27.2263 98.4386 27.1816 98.5156 27.1376C104.136 23.9272 111.875 24.4192 120.419 29.3757L157.735 51.0243C174.909 60.9878 188.832 85.2189 188.832 105.146L188.832 147.164C188.832 156.906 185.466 163.793 180.018 167.125C179.744 167.292 179.465 167.451 179.181 167.6C173.554 170.558 165.929 169.959 157.573 165.111C150.852 161.212 144.737 162.372 142.179 168.1L139.127 174.932L135.416 163.432C132.711 155.051 126.838 147.28 120.374 143.53C103.224 133.581 89.3217 109.385 89.3217 89.4862L89.3217 47.4162Z" fill="url(#paint4_linear_984_4498)" fill-opacity="0.75"/>
<path d="M139.127 174.932L135.416 163.432C132.711 155.051 126.838 147.28 120.374 143.53L119.589 186.163L139.127 174.932Z" fill="#FF0000"/>
<path d="M139.127 174.932L135.416 163.432C132.711 155.051 126.838 147.28 120.374 143.53L119.589 186.163L139.127 174.932Z" fill="#FF835E"/>
<path d="M139.127 174.932L135.416 163.432C132.711 155.051 126.838 147.28 120.374 143.53L119.589 186.163L139.127 174.932Z" fill="url(#paint5_linear_984_4498)" fill-opacity="0.75"/>
<path d="M179.181 167.6C173.554 170.558 165.929 169.959 157.573 165.111L157.573 179.869L179.181 167.6Z" fill="#FF0000"/>
<path d="M179.181 167.6C173.554 170.558 165.929 169.959 157.573 165.111L157.573 179.869L179.181 167.6Z" fill="#FF835E"/>
<path d="M179.181 167.6C173.554 170.558 165.929 169.959 157.573 165.111L157.573 179.869L179.181 167.6Z" fill="url(#paint6_linear_984_4498)" fill-opacity="0.75"/>
<path d="M89.3217 47.4162C89.3217 37.538 92.7431 30.5717 98.2858 27.2716L77.7781 39.2324L89.3217 47.4162Z" fill="#FF0000"/>
<path d="M89.3217 47.4162C89.3217 37.538 92.7431 30.5717 98.2858 27.2716L77.7781 39.2324L89.3217 47.4162Z" fill="#FF835E"/>
<path d="M89.3217 47.4162C89.3217 37.538 92.7431 30.5717 98.2858 27.2716L77.7781 39.2324L89.3217 47.4162Z" fill="url(#paint7_linear_984_4498)" fill-opacity="0.75"/>
<path d="M69.7832 58.8059C69.7832 38.8788 83.7058 30.8018 100.88 40.7653L138.196 62.4139C155.371 72.3774 169.293 96.6085 169.293 116.536L169.293 158.554C169.293 178.481 155.209 186.464 138.035 176.501C131.313 172.601 125.199 173.761 122.64 179.489L119.589 186.322L115.877 174.821C113.173 166.44 107.299 158.67 100.836 154.92C83.6859 144.971 69.7832 120.774 69.7832 100.876L69.7832 58.8059Z" fill="#FF7348"/>
<path d="M69.7832 58.8059C69.7832 38.8788 83.7058 30.8018 100.88 40.7653L138.196 62.4139C155.371 72.3774 169.293 96.6085 169.293 116.536L169.293 158.554C169.293 178.481 155.209 186.464 138.035 176.501C131.313 172.601 125.199 173.761 122.64 179.489L119.589 186.322L115.877 174.821C113.173 166.44 107.299 158.67 100.836 154.92C83.6859 144.971 69.7832 120.774 69.7832 100.876L69.7832 58.8059Z" fill="#FF835E"/>
<path d="M69.7832 58.8059C69.7832 38.8788 83.7058 30.8018 100.88 40.7653L138.196 62.4139C155.371 72.3774 169.293 96.6085 169.293 116.536L169.293 158.554C169.293 178.481 155.209 186.464 138.035 176.501C131.313 172.601 125.199 173.761 122.64 179.489L119.589 186.322L115.877 174.821C113.173 166.44 107.299 158.67 100.836 154.92C83.6859 144.971 69.7832 120.774 69.7832 100.876L69.7832 58.8059Z" fill="url(#paint8_linear_984_4498)" fill-opacity="0.75"/>
<path fill-rule="evenodd" clip-rule="evenodd" d="M128.833 86.8851L141.602 87.769L141.602 131.784C141.602 135.199 139.714 137.226 136.725 137.019L123.956 136.135L123.956 92.1194C123.956 88.7045 125.844 86.6782 128.833 86.8851ZM115.133 110.73L102.364 109.847C99.3747 109.64 97.4861 111.666 97.4861 115.081L97.4861 134.303L110.255 135.187C113.245 135.393 115.133 133.367 115.133 129.952L115.133 110.73Z" fill="white"/>
<defs>
<filter id="filter0_f_984_4498" x="55.5764" y="139.126" width="152.984" height="105.547" filterUnits="userSpaceOnUse" color-interpolation-filters="sRGB">
<feFlood flood-opacity="0" result="BackgroundImageFix"/>
<feBlend mode="normal" in="SourceGraphic" in2="BackgroundImageFix" result="shape"/>
<feGaussianBlur stdDeviation="10" result="effect1_foregroundBlur_984_4498"/>
</filter>
<linearGradient id="paint0_linear_984_4498" x1="70.5483" y1="275.569" x2="121.675" y2="330.728" gradientUnits="userSpaceOnUse">
<stop stop-color="#CCD1D3" stop-opacity="0.36"/>
<stop offset="1" stop-color="#C3C6CA"/>
</linearGradient>
<linearGradient id="paint1_linear_984_4498" x1="70.5483" y1="275.569" x2="121.675" y2="330.728" gradientUnits="userSpaceOnUse">
<stop stop-color="#CCD1D3" stop-opacity="0.36"/>
<stop offset="1" stop-color="#C3C6CA"/>
</linearGradient>
<linearGradient id="paint2_linear_984_4498" x1="70.5483" y1="275.569" x2="121.675" y2="330.728" gradientUnits="userSpaceOnUse">
<stop stop-color="#CCD1D3" stop-opacity="0.36"/>
<stop offset="1" stop-color="#C3C6CA"/>
</linearGradient>
<linearGradient id="paint3_linear_984_4498" x1="1.42097" y1="178.208" x2="207.544" y2="60.9174" gradientUnits="userSpaceOnUse">
<stop stop-color="#BDC6CB" stop-opacity="0.36"/>
<stop offset="1" stop-color="#B7BEC8"/>
</linearGradient>
<linearGradient id="paint4_linear_984_4498" x1="172.15" y1="117.269" x2="112.767" y2="24.9287" gradientUnits="userSpaceOnUse">
<stop stop-color="#EE5222"/>
<stop offset="1" stop-color="#FF9559"/>
</linearGradient>
<linearGradient id="paint5_linear_984_4498" x1="172.15" y1="117.269" x2="112.767" y2="24.9287" gradientUnits="userSpaceOnUse">
<stop stop-color="#EE5222"/>
<stop offset="1" stop-color="#FF9559"/>
</linearGradient>
<linearGradient id="paint6_linear_984_4498" x1="172.15" y1="117.269" x2="112.767" y2="24.9287" gradientUnits="userSpaceOnUse">
<stop stop-color="#EE5222"/>
<stop offset="1" stop-color="#FF9559"/>
</linearGradient>
<linearGradient id="paint7_linear_984_4498" x1="172.15" y1="117.269" x2="112.767" y2="24.9287" gradientUnits="userSpaceOnUse">
<stop stop-color="#EE5222"/>
<stop offset="1" stop-color="#FF9559"/>
</linearGradient>
<linearGradient id="paint8_linear_984_4498" x1="109.222" y1="215.157" x2="196.53" y2="121.77" gradientUnits="userSpaceOnUse">
<stop stop-color="#EE5222"/>
<stop offset="1" stop-color="#FF9D66"/>
</linearGradient>
</defs>
</svg>
