<svg width="333" height="370" viewBox="0 0 333 370" fill="none" xmlns="http://www.w3.org/2000/svg">
<path d="M18.2169 299.08C5.99037 291.987 -0.0816589 282.676 0.000829396 273.379C0.0822122 264.207 6.15424 255.05 18.2169 248.052L60.1398 223.73L122.246 187.7C146.535 173.609 185.916 173.609 210.205 187.7L284.958 231.067L314.235 248.052C326.297 255.05 332.369 264.207 332.451 273.379C332.533 282.676 326.461 291.987 314.235 299.08L210.205 359.432C185.916 373.523 146.535 373.523 122.246 359.432L18.2169 299.08Z" fill="#C4C4C4"/>
<path d="M18.2169 299.08C5.99037 291.987 -0.0816589 282.676 0.000829396 273.379C0.0822122 264.207 6.15424 255.05 18.2169 248.052L60.1398 223.73L122.246 187.7C146.535 173.609 185.916 173.609 210.205 187.7L284.958 231.067L314.235 248.052C326.297 255.05 332.369 264.207 332.451 273.379C332.533 282.676 326.461 291.987 314.235 299.08L210.205 359.432C185.916 373.523 146.535 373.523 122.246 359.432L18.2169 299.08Z" fill="white"/>
<path d="M18.2169 299.08C5.99037 291.987 -0.0816589 282.676 0.000829396 273.379C0.0822122 264.207 6.15424 255.05 18.2169 248.052L60.1398 223.73L122.246 187.7C146.535 173.609 185.916 173.609 210.205 187.7L284.958 231.067L314.235 248.052C326.297 255.05 332.369 264.207 332.451 273.379C332.533 282.676 326.461 291.987 314.235 299.08L210.205 359.432C185.916 373.523 146.535 373.523 122.246 359.432L18.2169 299.08Z" fill="url(#paint0_linear_984_4545)" fill-opacity="0.3"/>
<path d="M0.000829396 273.379C0.0822122 264.207 6.15424 255.05 18.2169 248.052L60.1398 223.73L0.000829396 244.445V273.379Z" fill="#C4C4C4"/>
<path d="M0.000829396 273.379C0.0822122 264.207 6.15424 255.05 18.2169 248.052L60.1398 223.73L0.000829396 244.445V273.379Z" fill="white"/>
<path d="M0.000829396 273.379C0.0822122 264.207 6.15424 255.05 18.2169 248.052L60.1398 223.73L0.000829396 244.445V273.379Z" fill="url(#paint1_linear_984_4545)" fill-opacity="0.3"/>
<path d="M314.235 248.052C326.297 255.05 332.369 264.207 332.451 273.379V244.445L284.958 231.067L314.235 248.052Z" fill="#C4C4C4"/>
<path d="M314.235 248.052C326.297 255.05 332.369 264.207 332.451 273.379V244.445L284.958 231.067L314.235 248.052Z" fill="white"/>
<path d="M314.235 248.052C326.297 255.05 332.369 264.207 332.451 273.379V244.445L284.958 231.067L314.235 248.052Z" fill="url(#paint2_linear_984_4545)" fill-opacity="0.3"/>
<path d="M18.2169 270.215C-6.07231 256.124 -6.07231 233.278 18.2169 219.187L122.246 158.835C146.535 144.744 185.916 144.744 210.205 158.835L314.235 219.187C338.524 233.278 338.524 256.124 314.235 270.215L210.205 330.567C185.916 344.658 146.535 344.658 122.246 330.567L18.2169 270.215Z" fill="#C4C4C4"/>
<path d="M18.2169 270.215C-6.07231 256.124 -6.07231 233.278 18.2169 219.187L122.246 158.835C146.535 144.744 185.916 144.744 210.205 158.835L314.235 219.187C338.524 233.278 338.524 256.124 314.235 270.215L210.205 330.567C185.916 344.658 146.535 344.658 122.246 330.567L18.2169 270.215Z" fill="white"/>
<path d="M18.2169 270.215C-6.07231 256.124 -6.07231 233.278 18.2169 219.187L122.246 158.835C146.535 144.744 185.916 144.744 210.205 158.835L314.235 219.187C338.524 233.278 338.524 256.124 314.235 270.215L210.205 330.567C185.916 344.658 146.535 344.658 122.246 330.567L18.2169 270.215Z" fill="url(#paint3_linear_984_4545)" fill-opacity="0.15"/>
<g filter="url(#filter0_f_984_4545)">
<rect width="133.778" height="149.422" rx="29" transform="matrix(0.864979 -0.501808 0.864979 0.501808 47.3035 232.156)" fill="black" fill-opacity="0.1"/>
</g>
<path d="M147.554 143.901C162.551 135.242 186.867 135.242 201.865 143.901L259.563 199.645C266.921 203.893 270.669 209.436 270.807 215.003C270.813 215.217 270.813 215.431 270.807 215.644C270.669 221.212 266.921 226.754 259.563 231.002L201.865 264.314C186.867 272.973 162.551 272.973 147.554 264.314L89.8557 231.002C82.498 226.754 78.7499 221.212 78.6114 215.644C78.6061 215.431 78.6061 215.217 78.6114 215.003C78.7499 209.436 82.498 203.893 89.8557 199.645L147.554 143.901Z" fill="#C4C4C4"/>
<path d="M147.554 143.901C162.551 135.242 186.867 135.242 201.865 143.901L259.563 199.645C266.921 203.893 270.669 209.436 270.807 215.003C270.813 215.217 270.813 215.431 270.807 215.644C270.669 221.212 266.921 226.754 259.563 231.002L201.865 264.314C186.867 272.973 162.551 272.973 147.554 264.314L89.8557 231.002C82.498 226.754 78.7499 221.212 78.6114 215.644C78.6061 215.431 78.6061 215.217 78.6114 215.003C78.7499 209.436 82.498 203.893 89.8557 199.645L147.554 143.901Z" fill="#FF835E"/>
<path d="M147.554 143.901C162.551 135.242 186.867 135.242 201.865 143.901L259.563 199.645C266.921 203.893 270.669 209.436 270.807 215.003C270.813 215.217 270.813 215.431 270.807 215.644C270.669 221.212 266.921 226.754 259.563 231.002L201.865 264.314C186.867 272.973 162.551 272.973 147.554 264.314L89.8557 231.002C82.498 226.754 78.7499 221.212 78.6114 215.644C78.6061 215.431 78.6061 215.217 78.6114 215.003C78.7499 209.436 82.498 203.893 89.8557 199.645L147.554 143.901Z" fill="url(#paint4_linear_984_4545)" fill-opacity="0.75"/>
<path d="M201.865 143.901L259.563 199.645C266.921 203.893 270.669 209.436 270.807 215.003V160.259H78.6114L78.6114 215.003C78.7499 209.436 82.498 203.893 89.8557 199.645L147.554 143.901C162.551 135.242 186.867 135.242 201.865 143.901Z" fill="#C4C4C4"/>
<path d="M201.865 143.901L259.563 199.645C266.921 203.893 270.669 209.436 270.807 215.003V160.259H78.6114L78.6114 215.003C78.7499 209.436 82.498 203.893 89.8557 199.645L147.554 143.901C162.551 135.242 186.867 135.242 201.865 143.901Z" fill="#FF835E"/>
<path d="M201.865 143.901L259.563 199.645C266.921 203.893 270.669 209.436 270.807 215.003V160.259H78.6114L78.6114 215.003C78.7499 209.436 82.498 203.893 89.8557 199.645L147.554 143.901C162.551 135.242 186.867 135.242 201.865 143.901Z" fill="url(#paint5_linear_984_4545)" fill-opacity="0.75"/>
<path d="M147.554 90.6369C162.551 81.978 186.867 81.978 201.865 90.6369L259.563 123.949C274.561 132.608 274.561 146.647 259.563 155.306L201.865 188.617C186.867 197.276 162.551 197.276 147.554 188.617L89.8557 155.306C74.858 146.647 74.858 132.608 89.8557 123.949L147.554 90.6369Z" fill="#C4C4C4"/>
<path d="M147.554 90.6369C162.551 81.978 186.867 81.978 201.865 90.6369L259.563 123.949C274.561 132.608 274.561 146.647 259.563 155.306L201.865 188.617C186.867 197.276 162.551 197.276 147.554 188.617L89.8557 155.306C74.858 146.647 74.858 132.608 89.8557 123.949L147.554 90.6369Z" fill="#FF835E"/>
<path d="M147.554 90.6369C162.551 81.978 186.867 81.978 201.865 90.6369L259.563 123.949C274.561 132.608 274.561 146.647 259.563 155.306L201.865 188.617C186.867 197.276 162.551 197.276 147.554 188.617L89.8557 155.306C74.858 146.647 74.858 132.608 89.8557 123.949L147.554 90.6369Z" fill="url(#paint6_linear_984_4545)" fill-opacity="0.75"/>
<path d="M147.554 159.285C162.551 150.626 186.867 150.626 201.865 159.285L259.563 192.597C266.921 196.845 270.669 202.388 270.807 207.955C270.813 208.169 270.813 208.382 270.807 208.596C270.669 214.163 266.921 219.706 259.563 223.954L201.865 257.266C186.867 265.925 162.551 265.925 147.554 257.266L89.8557 223.954C82.498 219.706 78.7499 214.163 78.6114 208.596C78.6061 208.382 78.6061 208.169 78.6114 207.955C78.7499 202.388 82.498 196.845 89.8557 192.597L147.554 159.285Z" fill="#C4C4C4"/>
<path d="M147.554 159.285C162.551 150.626 186.867 150.626 201.865 159.285L259.563 192.597C266.921 196.845 270.669 202.388 270.807 207.955C270.813 208.169 270.813 208.382 270.807 208.596C270.669 214.163 266.921 219.706 259.563 223.954L201.865 257.266C186.867 265.925 162.551 265.925 147.554 257.266L89.8557 223.954C82.498 219.706 78.7499 214.163 78.6114 208.596C78.6061 208.382 78.6061 208.169 78.6114 207.955C78.7499 202.388 82.498 196.845 89.8557 192.597L147.554 159.285Z" fill="white"/>
<path d="M147.554 159.285C162.551 150.626 186.867 150.626 201.865 159.285L259.563 192.597C266.921 196.845 270.669 202.388 270.807 207.955C270.813 208.169 270.813 208.382 270.807 208.596C270.669 214.163 266.921 219.706 259.563 223.954L201.865 257.266C186.867 265.925 162.551 265.925 147.554 257.266L89.8557 223.954C82.498 219.706 78.7499 214.163 78.6114 208.596C78.6061 208.382 78.6061 208.169 78.6114 207.955C78.7499 202.388 82.498 196.845 89.8557 192.597L147.554 159.285Z" fill="url(#paint7_linear_984_4545)" fill-opacity="0.45"/>
<path d="M201.865 159.285L259.563 192.597C266.921 196.845 270.669 202.388 270.807 207.955L270.807 84.8823H78.6111L78.6114 207.955C78.7499 202.388 82.498 196.845 89.8557 192.597L147.554 159.285C162.551 150.626 186.867 150.626 201.865 159.285Z" fill="#C4C4C4"/>
<path d="M201.865 159.285L259.563 192.597C266.921 196.845 270.669 202.388 270.807 207.955L270.807 84.8823H78.6111L78.6114 207.955C78.7499 202.388 82.498 196.845 89.8557 192.597L147.554 159.285C162.551 150.626 186.867 150.626 201.865 159.285Z" fill="white"/>
<path d="M201.865 159.285L259.563 192.597C266.921 196.845 270.669 202.388 270.807 207.955L270.807 84.8823H78.6111L78.6114 207.955C78.7499 202.388 82.498 196.845 89.8557 192.597L147.554 159.285C162.551 150.626 186.867 150.626 201.865 159.285Z" fill="url(#paint8_linear_984_4545)" fill-opacity="0.45"/>
<path d="M147.554 39.2282C162.551 30.5693 186.867 30.5693 201.865 39.2282L259.563 72.5401C266.921 76.7881 270.669 82.3308 270.807 87.898C270.813 88.1116 270.813 88.3253 270.807 88.539C270.669 94.1061 266.921 99.6489 259.563 103.897L201.865 137.209C186.867 145.868 162.551 145.868 147.554 137.209L89.8557 103.897C82.498 99.6489 78.7499 94.1061 78.6114 88.539C78.6061 88.3253 78.6061 88.1116 78.6114 87.898C78.7499 82.3308 82.498 76.788 89.8557 72.5401L147.554 39.2282Z" fill="#C4C4C4"/>
<path d="M147.554 39.2282C162.551 30.5693 186.867 30.5693 201.865 39.2282L259.563 72.5401C266.921 76.7881 270.669 82.3308 270.807 87.898C270.813 88.1116 270.813 88.3253 270.807 88.539C270.669 94.1061 266.921 99.6489 259.563 103.897L201.865 137.209C186.867 145.868 162.551 145.868 147.554 137.209L89.8557 103.897C82.498 99.6489 78.7499 94.1061 78.6114 88.539C78.6061 88.3253 78.6061 88.1116 78.6114 87.898C78.7499 82.3308 82.498 76.788 89.8557 72.5401L147.554 39.2282Z" fill="#FF835E"/>
<path d="M147.554 39.2282C162.551 30.5693 186.867 30.5693 201.865 39.2282L259.563 72.5401C266.921 76.7881 270.669 82.3308 270.807 87.898C270.813 88.1116 270.813 88.3253 270.807 88.539C270.669 94.1061 266.921 99.6489 259.563 103.897L201.865 137.209C186.867 145.868 162.551 145.868 147.554 137.209L89.8557 103.897C82.498 99.6489 78.7499 94.1061 78.6114 88.539C78.6061 88.3253 78.6061 88.1116 78.6114 87.898C78.7499 82.3308 82.498 76.788 89.8557 72.5401L147.554 39.2282Z" fill="url(#paint9_linear_984_4545)" fill-opacity="0.75"/>
<path d="M201.865 39.2282L259.563 72.5401C266.921 76.7881 270.669 82.3308 270.807 87.898V55.5858H78.6114L78.6114 87.898C78.7499 82.3308 82.498 76.788 89.8557 72.5401L147.554 39.2282C162.551 30.5693 186.867 30.5693 201.865 39.2282Z" fill="#C4C4C4"/>
<path d="M201.865 39.2282L259.563 72.5401C266.921 76.7881 270.669 82.3308 270.807 87.898V55.5858H78.6114L78.6114 87.898C78.7499 82.3308 82.498 76.788 89.8557 72.5401L147.554 39.2282C162.551 30.5693 186.867 30.5693 201.865 39.2282Z" fill="#FF835E"/>
<path d="M201.865 39.2282L259.563 72.5401C266.921 76.7881 270.669 82.3308 270.807 87.898V55.5858H78.6114L78.6114 87.898C78.7499 82.3308 82.498 76.788 89.8557 72.5401L147.554 39.2282C162.551 30.5693 186.867 30.5693 201.865 39.2282Z" fill="url(#paint10_linear_984_4545)" fill-opacity="0.75"/>
<path d="M147.554 6.49421C162.551 -2.16474 186.867 -2.16473 201.865 6.49421L259.563 39.8061C274.561 48.465 274.561 62.5039 259.563 71.1629L201.865 104.475C186.867 113.134 162.551 113.134 147.554 104.475L89.8557 71.1629C74.858 62.5039 74.858 48.465 89.8557 39.8061L147.554 6.49421Z" fill="#C4C4C4"/>
<path d="M147.554 6.49421C162.551 -2.16474 186.867 -2.16473 201.865 6.49421L259.563 39.8061C274.561 48.465 274.561 62.5039 259.563 71.1629L201.865 104.475C186.867 113.134 162.551 113.134 147.554 104.475L89.8557 71.1629C74.858 62.5039 74.858 48.465 89.8557 39.8061L147.554 6.49421Z" fill="#FF835E"/>
<path d="M147.554 6.49421C162.551 -2.16474 186.867 -2.16473 201.865 6.49421L259.563 39.8061C274.561 48.465 274.561 62.5039 259.563 71.1629L201.865 104.475C186.867 113.134 162.551 113.134 147.554 104.475L89.8557 71.1629C74.858 62.5039 74.858 48.465 89.8557 39.8061L147.554 6.49421Z" fill="url(#paint11_linear_984_4545)" fill-opacity="0.75"/>
<path fill-rule="evenodd" clip-rule="evenodd" d="M212.691 40.6709L233.118 45.4684L192.24 69.0696C189.069 70.9006 184.045 71.3479 179.263 70.225L158.835 65.427L199.713 41.8259C202.885 39.9948 207.908 39.5476 212.691 40.6709ZM167.746 48.8176L147.319 44.0201C142.537 42.8971 137.512 43.344 134.341 45.175L116.489 55.4818L136.917 60.2797C141.699 61.4026 146.723 60.9554 149.894 59.1243L167.746 48.8176Z" fill="white"/>
<path fill-rule="evenodd" clip-rule="evenodd" d="M78.6117 126.807V133.037C78.6063 133.251 78.6063 133.465 78.6117 133.678C78.7502 139.246 82.4983 144.788 89.856 149.036L147.554 182.348C162.552 191.007 186.868 191.007 201.865 182.348L259.563 149.036C266.921 144.788 270.669 139.246 270.808 133.678C270.813 133.465 270.813 133.251 270.808 133.037V126.807C270.669 132.375 266.921 137.917 259.563 142.165L201.865 175.477C186.868 184.136 162.552 184.136 147.554 175.477L89.856 142.165C82.4983 137.917 78.7502 132.375 78.6117 126.807Z" fill="#C4C4C4"/>
<path fill-rule="evenodd" clip-rule="evenodd" d="M78.6117 126.807V133.037C78.6063 133.251 78.6063 133.465 78.6117 133.678C78.7502 139.246 82.4983 144.788 89.856 149.036L147.554 182.348C162.552 191.007 186.868 191.007 201.865 182.348L259.563 149.036C266.921 144.788 270.669 139.246 270.808 133.678C270.813 133.465 270.813 133.251 270.808 133.037V126.807C270.669 132.375 266.921 137.917 259.563 142.165L201.865 175.477C186.868 184.136 162.552 184.136 147.554 175.477L89.856 142.165C82.4983 137.917 78.7502 132.375 78.6117 126.807Z" fill="#FF835E"/>
<path fill-rule="evenodd" clip-rule="evenodd" d="M78.6117 126.807V133.037C78.6063 133.251 78.6063 133.465 78.6117 133.678C78.7502 139.246 82.4983 144.788 89.856 149.036L147.554 182.348C162.552 191.007 186.868 191.007 201.865 182.348L259.563 149.036C266.921 144.788 270.669 139.246 270.808 133.678C270.813 133.465 270.813 133.251 270.808 133.037V126.807C270.669 132.375 266.921 137.917 259.563 142.165L201.865 175.477C186.868 184.136 162.552 184.136 147.554 175.477L89.856 142.165C82.4983 137.917 78.7502 132.375 78.6117 126.807Z" fill="url(#paint12_linear_984_4545)" fill-opacity="0.75"/>
<path fill-rule="evenodd" clip-rule="evenodd" d="M78.6114 169.435V175.665C78.6061 175.878 78.6061 176.092 78.6114 176.305C78.7499 181.873 82.498 187.415 89.8557 191.663L147.554 224.975C162.551 233.634 186.867 233.634 201.865 224.975L259.563 191.663C266.921 187.415 270.669 181.873 270.807 176.305C270.813 176.092 270.813 175.878 270.807 175.665V169.435C270.669 175.002 266.921 180.545 259.563 184.792L201.865 218.104C186.867 226.763 162.551 226.763 147.554 218.104L89.8557 184.792C82.498 180.545 78.7499 175.002 78.6114 169.435Z" fill="#C4C4C4"/>
<path fill-rule="evenodd" clip-rule="evenodd" d="M78.6114 169.435V175.665C78.6061 175.878 78.6061 176.092 78.6114 176.305C78.7499 181.873 82.498 187.415 89.8557 191.663L147.554 224.975C162.551 233.634 186.867 233.634 201.865 224.975L259.563 191.663C266.921 187.415 270.669 181.873 270.807 176.305C270.813 176.092 270.813 175.878 270.807 175.665V169.435C270.669 175.002 266.921 180.545 259.563 184.792L201.865 218.104C186.867 226.763 162.551 226.763 147.554 218.104L89.8557 184.792C82.498 180.545 78.7499 175.002 78.6114 169.435Z" fill="#FF835E"/>
<path fill-rule="evenodd" clip-rule="evenodd" d="M78.6114 169.435V175.665C78.6061 175.878 78.6061 176.092 78.6114 176.305C78.7499 181.873 82.498 187.415 89.8557 191.663L147.554 224.975C162.551 233.634 186.867 233.634 201.865 224.975L259.563 191.663C266.921 187.415 270.669 181.873 270.807 176.305C270.813 176.092 270.813 175.878 270.807 175.665V169.435C270.669 175.002 266.921 180.545 259.563 184.792L201.865 218.104C186.867 226.763 162.551 226.763 147.554 218.104L89.8557 184.792C82.498 180.545 78.7499 175.002 78.6114 169.435Z" fill="url(#paint13_linear_984_4545)" fill-opacity="0.75"/>
<defs>
<filter id="filter0_f_984_4545" x="41.9976" y="153.549" width="255.574" height="165.063" filterUnits="userSpaceOnUse" color-interpolation-filters="sRGB">
<feFlood flood-opacity="0" result="BackgroundImageFix"/>
<feBlend mode="normal" in="SourceGraphic" in2="BackgroundImageFix" result="shape"/>
<feGaussianBlur stdDeviation="10" result="effect1_foregroundBlur_984_4545"/>
</filter>
<linearGradient id="paint0_linear_984_4545" x1="90.516" y1="343.888" x2="156.392" y2="414.959" gradientUnits="userSpaceOnUse">
<stop stop-color="#CCD1D3" stop-opacity="0.36"/>
<stop offset="1" stop-color="#C3C6CA"/>
</linearGradient>
<linearGradient id="paint1_linear_984_4545" x1="90.516" y1="343.888" x2="156.392" y2="414.959" gradientUnits="userSpaceOnUse">
<stop stop-color="#CCD1D3" stop-opacity="0.36"/>
<stop offset="1" stop-color="#C3C6CA"/>
</linearGradient>
<linearGradient id="paint2_linear_984_4545" x1="90.516" y1="343.888" x2="156.392" y2="414.959" gradientUnits="userSpaceOnUse">
<stop stop-color="#CCD1D3" stop-opacity="0.36"/>
<stop offset="1" stop-color="#C3C6CA"/>
</linearGradient>
<linearGradient id="paint3_linear_984_4545" x1="1.4468" y1="218.441" x2="267.032" y2="67.3133" gradientUnits="userSpaceOnUse">
<stop stop-color="#BDC6CB" stop-opacity="0.36"/>
<stop offset="1" stop-color="#B7BEC8"/>
</linearGradient>
<linearGradient id="paint4_linear_984_4545" x1="217.414" y1="262.292" x2="84.7844" y2="223.504" gradientUnits="userSpaceOnUse">
<stop stop-color="#EE5222"/>
<stop offset="1" stop-color="#FF9D66"/>
</linearGradient>
<linearGradient id="paint5_linear_984_4545" x1="217.414" y1="262.292" x2="84.7844" y2="223.504" gradientUnits="userSpaceOnUse">
<stop stop-color="#EE5222"/>
<stop offset="1" stop-color="#FF9D66"/>
</linearGradient>
<linearGradient id="paint6_linear_984_4545" x1="238.491" y1="259.158" x2="157.243" y2="105.367" gradientUnits="userSpaceOnUse">
<stop stop-color="#EE5222"/>
<stop offset="1" stop-color="#FF9559"/>
</linearGradient>
<linearGradient id="paint7_linear_984_4545" x1="126.467" y1="233.05" x2="198.977" y2="242.306" gradientUnits="userSpaceOnUse">
<stop stop-color="#CCD1D3" stop-opacity="0.36"/>
<stop offset="1" stop-color="#C3C6CA"/>
</linearGradient>
<linearGradient id="paint8_linear_984_4545" x1="126.467" y1="233.05" x2="198.977" y2="242.306" gradientUnits="userSpaceOnUse">
<stop stop-color="#CCD1D3" stop-opacity="0.36"/>
<stop offset="1" stop-color="#C3C6CA"/>
</linearGradient>
<linearGradient id="paint9_linear_984_4545" x1="217.414" y1="135.186" x2="84.7844" y2="96.3981" gradientUnits="userSpaceOnUse">
<stop stop-color="#EE5222"/>
<stop offset="1" stop-color="#FF9D66"/>
</linearGradient>
<linearGradient id="paint10_linear_984_4545" x1="217.414" y1="135.186" x2="84.7844" y2="96.3981" gradientUnits="userSpaceOnUse">
<stop stop-color="#EE5222"/>
<stop offset="1" stop-color="#FF9D66"/>
</linearGradient>
<linearGradient id="paint11_linear_984_4545" x1="238.491" y1="175.015" x2="157.243" y2="21.2241" gradientUnits="userSpaceOnUse">
<stop stop-color="#EE5222"/>
<stop offset="1" stop-color="#FF9559"/>
</linearGradient>
<linearGradient id="paint12_linear_984_4545" x1="217.414" y1="180.326" x2="84.7846" y2="141.538" gradientUnits="userSpaceOnUse">
<stop stop-color="#EE5222"/>
<stop offset="1" stop-color="#FF9D66"/>
</linearGradient>
<linearGradient id="paint13_linear_984_4545" x1="217.414" y1="222.953" x2="84.7844" y2="184.165" gradientUnits="userSpaceOnUse">
<stop stop-color="#EE5222"/>
<stop offset="1" stop-color="#FF9D66"/>
</linearGradient>
</defs>
</svg>
