<svg width="327" height="370" viewBox="0 0 327 370" fill="none" xmlns="http://www.w3.org/2000/svg">
<path d="M17.8936 300.674C5.88404 293.74 -0.0802094 284.638 0.000814673 275.55C0.0807528 266.584 6.045 257.633 17.8936 250.792L59.0723 227.018L120.076 191.797C143.934 178.022 182.616 178.022 206.474 191.797L279.9 234.19L308.657 250.792C320.505 257.633 326.47 266.584 326.549 275.55C326.63 284.638 320.666 293.74 308.657 300.674L206.474 359.669C182.616 373.444 143.934 373.444 120.076 359.669L17.8936 300.674Z" fill="#C4C4C4"/>
<path d="M17.8936 300.674C5.88404 293.74 -0.0802094 284.638 0.000814673 275.55C0.0807528 266.584 6.045 257.633 17.8936 250.792L59.0723 227.018L120.076 191.797C143.934 178.022 182.616 178.022 206.474 191.797L279.9 234.19L308.657 250.792C320.505 257.633 326.47 266.584 326.549 275.55C326.63 284.638 320.666 293.74 308.657 300.674L206.474 359.669C182.616 373.444 143.934 373.444 120.076 359.669L17.8936 300.674Z" fill="white"/>
<path d="M17.8936 300.674C5.88404 293.74 -0.0802094 284.638 0.000814673 275.55C0.0807528 266.584 6.045 257.633 17.8936 250.792L59.0723 227.018L120.076 191.797C143.934 178.022 182.616 178.022 206.474 191.797L279.9 234.19L308.657 250.792C320.505 257.633 326.47 266.584 326.549 275.55C326.63 284.638 320.666 293.74 308.657 300.674L206.474 359.669C182.616 373.444 143.934 373.444 120.076 359.669L17.8936 300.674Z" fill="url(#paint0_linear_1078_2630)" fill-opacity="0.3"/>
<path d="M0.000814673 275.55C0.0807528 266.584 6.045 257.633 17.8936 250.792L59.0723 227.018L0.000814673 247.267V275.55Z" fill="#C4C4C4"/>
<path d="M0.000814673 275.55C0.0807528 266.584 6.045 257.633 17.8936 250.792L59.0723 227.018L0.000814673 247.267V275.55Z" fill="white"/>
<path d="M0.000814673 275.55C0.0807528 266.584 6.045 257.633 17.8936 250.792L59.0723 227.018L0.000814673 247.267V275.55Z" fill="url(#paint1_linear_1078_2630)" fill-opacity="0.3"/>
<path d="M308.657 250.792C320.505 257.633 326.47 266.584 326.549 275.55V247.267L279.9 234.19L308.657 250.792Z" fill="#C4C4C4"/>
<path d="M308.657 250.792C320.505 257.633 326.47 266.584 326.549 275.55V247.267L279.9 234.19L308.657 250.792Z" fill="white"/>
<path d="M308.657 250.792C320.505 257.633 326.47 266.584 326.549 275.55V247.267L279.9 234.19L308.657 250.792Z" fill="url(#paint2_linear_1078_2630)" fill-opacity="0.3"/>
<path d="M17.8936 272.461C-5.96452 258.686 -5.96452 236.353 17.8936 222.579L120.076 163.584C143.934 149.809 182.616 149.809 206.474 163.584L308.657 222.579C332.515 236.353 332.515 258.686 308.657 272.461L206.474 331.456C182.616 345.23 143.934 345.23 120.076 331.456L17.8936 272.461Z" fill="#C4C4C4"/>
<path d="M17.8936 272.461C-5.96452 258.686 -5.96452 236.353 17.8936 222.579L120.076 163.584C143.934 149.809 182.616 149.809 206.474 163.584L308.657 222.579C332.515 236.353 332.515 258.686 308.657 272.461L206.474 331.456C182.616 345.23 143.934 345.23 120.076 331.456L17.8936 272.461Z" fill="white"/>
<path d="M17.8936 272.461C-5.96452 258.686 -5.96452 236.353 17.8936 222.579L120.076 163.584C143.934 149.809 182.616 149.809 206.474 163.584L308.657 222.579C332.515 236.353 332.515 258.686 308.657 272.461L206.474 331.456C182.616 345.23 143.934 345.23 120.076 331.456L17.8936 272.461Z" fill="url(#paint3_linear_1078_2630)" fill-opacity="0.15"/>
<g filter="url(#filter0_f_1078_2630)">
<rect width="109.465" height="41.0653" rx="20.5327" transform="matrix(0.866025 -0.5 0.866025 0.5 101.457 262.004)" fill="black" fill-opacity="0.08"/>
</g>
<path d="M96.041 219.753L96.0412 93.6108C96.0412 82.7111 102.908 69.8847 111.378 64.9622L195.734 15.9408C200.317 13.2775 204.43 13.4736 207.241 15.9408L223.164 27.719L211.071 88.757L211.071 156.398C211.071 167.298 204.204 180.124 195.734 185.047L157.453 207.293L117.871 241.677L101.15 231.49C101.026 231.42 100.905 231.345 100.785 231.268C97.8618 229.373 96.041 225.365 96.041 219.753Z" fill="#C4C4C4"/>
<path d="M96.041 219.753L96.0412 93.6108C96.0412 82.7111 102.908 69.8847 111.378 64.9622L195.734 15.9408C200.317 13.2775 204.43 13.4736 207.241 15.9408L223.164 27.719L211.071 88.757L211.071 156.398C211.071 167.298 204.204 180.124 195.734 185.047L157.453 207.293L117.871 241.677L101.15 231.49C101.026 231.42 100.905 231.345 100.785 231.268C97.8618 229.373 96.041 225.365 96.041 219.753Z" fill="#E7C6C6"/>
<path d="M96.041 219.753L96.0412 93.6108C96.0412 82.7111 102.908 69.8847 111.378 64.9622L195.734 15.9408C200.317 13.2775 204.43 13.4736 207.241 15.9408L223.164 27.719L211.071 88.757L211.071 156.398C211.071 167.298 204.204 180.124 195.734 185.047L157.453 207.293L117.871 241.677L101.15 231.49C101.026 231.42 100.905 231.345 100.785 231.268C97.8618 229.373 96.041 225.365 96.041 219.753Z" fill="url(#paint4_linear_1078_2630)" fill-opacity="0.75"/>
<path d="M96.041 219.753L96.0412 93.6108C96.0412 82.7111 102.908 69.8847 111.378 64.9622L195.734 15.9408C200.317 13.2775 204.43 13.4736 207.241 15.9408L223.164 27.719L211.071 88.757L211.071 156.398C211.071 167.298 204.204 180.124 195.734 185.047L157.453 207.293L117.871 241.677L101.15 231.49C101.026 231.42 100.905 231.345 100.785 231.268C97.8618 229.373 96.041 225.365 96.041 219.753Z" fill="#B54242"/>
<path d="M96.041 219.753L96.0412 93.6108C96.0412 82.7111 102.908 69.8847 111.378 64.9622L195.734 15.9408C200.317 13.2775 204.43 13.4736 207.241 15.9408L223.164 27.719L211.071 88.757L211.071 156.398C211.071 167.298 204.204 180.124 195.734 185.047L157.453 207.293L117.871 241.677L101.15 231.49C101.026 231.42 100.905 231.345 100.785 231.268C97.8618 229.373 96.041 225.365 96.041 219.753Z" fill="url(#paint5_linear_1078_2630)" fill-opacity="0.75"/>
<path d="M96.041 219.753L96.0412 93.6108C96.0412 82.7111 102.908 69.8847 111.378 64.9622L195.734 15.9408C200.317 13.2775 204.43 13.4736 207.241 15.9408L223.164 27.719L211.071 88.757L211.071 156.398C211.071 167.298 204.204 180.124 195.734 185.047L157.453 207.293L117.871 241.677L101.15 231.49C101.026 231.42 100.905 231.345 100.785 231.268C97.8618 229.373 96.041 225.365 96.041 219.753Z" fill="white"/>
<path d="M96.041 219.753L96.0412 93.6108C96.0412 82.7111 102.908 69.8847 111.378 64.9622L195.734 15.9408C200.317 13.2775 204.43 13.4736 207.241 15.9408L223.164 27.719L211.071 88.757L211.071 156.398C211.071 167.298 204.204 180.124 195.734 185.047L157.453 207.293L117.871 241.677L101.15 231.49C101.026 231.42 100.905 231.345 100.785 231.268C97.8618 229.373 96.041 225.365 96.041 219.753Z" fill="url(#paint6_linear_1078_2630)" fill-opacity="0.6"/>
<path d="M227.616 163.034L227.616 39.0473C227.616 28.1476 220.749 23.3022 212.279 28.2247L127.923 77.2461C119.453 82.1686 112.586 94.995 112.586 105.895L112.586 229.882C112.586 240.781 119.453 245.627 127.923 240.704L212.279 191.683C220.749 186.76 227.616 173.934 227.616 163.034Z" fill="white" fill-opacity="0.65"/>
<path d="M227.616 163.034L227.616 39.0473C227.616 28.1476 220.749 23.3022 212.279 28.2247L127.923 77.2461C119.453 82.1686 112.586 94.995 112.586 105.895L112.586 229.882C112.586 240.781 119.453 245.627 127.923 240.704L212.279 191.683C220.749 186.76 227.616 173.934 227.616 163.034Z" fill="#FF835E"/>
<path d="M227.616 163.034L227.616 39.0473C227.616 28.1476 220.749 23.3022 212.279 28.2247L127.923 77.2461C119.453 82.1686 112.586 94.995 112.586 105.895L112.586 229.882C112.586 240.781 119.453 245.627 127.923 240.704L212.279 191.683C220.749 186.76 227.616 173.934 227.616 163.034Z" fill="url(#paint7_linear_1078_2630)" fill-opacity="0.75"/>
<path d="M137.228 109.202L208.774 67.7473" stroke="white" stroke-width="10"/>
<path d="M137.228 144.467L173.001 123.739" stroke="white" stroke-width="10"/>
<path d="M176.664 170.551L188.859 177.633L211.582 138.017" stroke="white" stroke-width="10"/>
<defs>
<filter id="filter0_f_1078_2630" x="91.873" y="193.285" width="149.53" height="103.237" filterUnits="userSpaceOnUse" color-interpolation-filters="sRGB">
<feFlood flood-opacity="0" result="BackgroundImageFix"/>
<feBlend mode="normal" in="SourceGraphic" in2="BackgroundImageFix" result="shape"/>
<feGaussianBlur stdDeviation="10" result="effect1_foregroundBlur_1078_2630"/>
</filter>
<linearGradient id="paint0_linear_1078_2630" x1="88.9093" y1="344.474" x2="153.281" y2="414.258" gradientUnits="userSpaceOnUse">
<stop stop-color="#CCD1D3" stop-opacity="0.36"/>
<stop offset="1" stop-color="#C3C6CA"/>
</linearGradient>
<linearGradient id="paint1_linear_1078_2630" x1="88.9093" y1="344.474" x2="153.281" y2="414.258" gradientUnits="userSpaceOnUse">
<stop stop-color="#CCD1D3" stop-opacity="0.36"/>
<stop offset="1" stop-color="#C3C6CA"/>
</linearGradient>
<linearGradient id="paint2_linear_1078_2630" x1="88.9093" y1="344.474" x2="153.281" y2="414.258" gradientUnits="userSpaceOnUse">
<stop stop-color="#CCD1D3" stop-opacity="0.36"/>
<stop offset="1" stop-color="#C3C6CA"/>
</linearGradient>
<linearGradient id="paint3_linear_1078_2630" x1="1.42112" y1="221.849" x2="261.676" y2="73.04" gradientUnits="userSpaceOnUse">
<stop stop-color="#BDC6CB" stop-opacity="0.36"/>
<stop offset="1" stop-color="#B7BEC8"/>
</linearGradient>
<linearGradient id="paint4_linear_1078_2630" x1="153.76" y1="-46.111" x2="-73.2265" y2="116.299" gradientUnits="userSpaceOnUse">
<stop stop-color="#FFA877"/>
<stop offset="1" stop-color="#FF0707"/>
</linearGradient>
<linearGradient id="paint5_linear_1078_2630" x1="184.724" y1="-1.19785" x2="-50.35" y2="245.066" gradientUnits="userSpaceOnUse">
<stop stop-color="#FFA877"/>
<stop offset="1" stop-color="#FF0707"/>
</linearGradient>
<linearGradient id="paint6_linear_1078_2630" x1="139.433" y1="44.2854" x2="122.981" y2="229.455" gradientUnits="userSpaceOnUse">
<stop stop-color="#CCD1D3" stop-opacity="0.36"/>
<stop offset="1" stop-color="#C3C6CA"/>
</linearGradient>
<linearGradient id="paint7_linear_1078_2630" x1="160.691" y1="226.811" x2="128.959" y2="136.028" gradientUnits="userSpaceOnUse">
<stop stop-color="#EE5222"/>
<stop offset="1" stop-color="#FF9D66"/>
</linearGradient>
</defs>
</svg>
