<svg width="285" height="300" viewBox="0 0 285 300" fill="none" xmlns="http://www.w3.org/2000/svg">
<g clip-path="url(#clip0_984_4443)">
<path d="M15.6112 239.516C5.13352 233.467 -0.0699786 225.526 0.000710761 217.597C0.0704527 209.775 5.27395 201.965 15.6112 195.997L51.5376 175.255L104.76 144.527C125.575 132.509 159.323 132.509 180.138 144.527L244.199 181.512L269.287 195.997C279.624 201.965 284.828 209.775 284.898 217.597C284.968 225.526 279.765 233.467 269.287 239.516L180.138 290.987C159.323 303.004 125.575 303.004 104.76 290.987L15.6112 239.516Z" fill="#C4C4C4"/>
<path d="M15.6112 239.516C5.13352 233.467 -0.0699786 225.526 0.000710761 217.597C0.0704527 209.775 5.27395 201.965 15.6112 195.997L51.5376 175.255L104.76 144.527C125.575 132.509 159.323 132.509 180.138 144.527L244.199 181.512L269.287 195.997C279.624 201.965 284.828 209.775 284.898 217.597C284.968 225.526 279.765 233.467 269.287 239.516L180.138 290.987C159.323 303.004 125.575 303.004 104.76 290.987L15.6112 239.516Z" fill="white"/>
<path d="M15.6112 239.516C5.13352 233.467 -0.0699786 225.526 0.000710761 217.597C0.0704527 209.775 5.27395 201.965 15.6112 195.997L51.5376 175.255L104.76 144.527C125.575 132.509 159.323 132.509 180.138 144.527L244.199 181.512L269.287 195.997C279.624 201.965 284.828 209.775 284.898 217.597C284.968 225.526 279.765 233.467 269.287 239.516L180.138 290.987C159.323 303.004 125.575 303.004 104.76 290.987L15.6112 239.516Z" fill="url(#paint0_linear_984_4443)" fill-opacity="0.3"/>
<path d="M0.000710761 217.597C0.0704527 209.775 5.27395 201.965 15.6112 195.997L51.5376 175.255L0.000710761 192.921V217.597Z" fill="#C4C4C4"/>
<path d="M0.000710761 217.597C0.0704527 209.775 5.27395 201.965 15.6112 195.997L51.5376 175.255L0.000710761 192.921V217.597Z" fill="white"/>
<path d="M0.000710761 217.597C0.0704527 209.775 5.27395 201.965 15.6112 195.997L51.5376 175.255L0.000710761 192.921V217.597Z" fill="url(#paint1_linear_984_4443)" fill-opacity="0.3"/>
<path d="M269.287 195.997C279.624 201.965 284.828 209.775 284.898 217.597V192.921L244.199 181.512L269.287 195.997Z" fill="#C4C4C4"/>
<path d="M269.287 195.997C279.624 201.965 284.828 209.775 284.898 217.597V192.921L244.199 181.512L269.287 195.997Z" fill="white"/>
<path d="M269.287 195.997C279.624 201.965 284.828 209.775 284.898 217.597V192.921L244.199 181.512L269.287 195.997Z" fill="url(#paint2_linear_984_4443)" fill-opacity="0.3"/>
<path d="M15.6112 214.901C-5.20374 202.883 -5.20374 183.399 15.6112 171.381L104.76 119.911C125.575 107.894 159.323 107.894 180.138 119.911L269.287 171.381C290.102 183.399 290.102 202.883 269.287 214.901L180.138 266.371C159.323 278.389 125.575 278.389 104.76 266.371L15.6112 214.901Z" fill="#C4C4C4"/>
<path d="M15.6112 214.901C-5.20374 202.883 -5.20374 183.399 15.6112 171.381L104.76 119.911C125.575 107.894 159.323 107.894 180.138 119.911L269.287 171.381C290.102 183.399 290.102 202.883 269.287 214.901L180.138 266.371C159.323 278.389 125.575 278.389 104.76 266.371L15.6112 214.901Z" fill="white"/>
<path d="M15.6112 214.901C-5.20374 202.883 -5.20374 183.399 15.6112 171.381L104.76 119.911C125.575 107.894 159.323 107.894 180.138 119.911L269.287 171.381C290.102 183.399 290.102 202.883 269.287 214.901L180.138 266.371C159.323 278.389 125.575 278.389 104.76 266.371L15.6112 214.901Z" fill="url(#paint3_linear_984_4443)" fill-opacity="0.15"/>
<g filter="url(#filter0_f_984_4443)">
<rect width="114.504" height="77.755" rx="29" transform="matrix(0.866025 -0.5 0.866025 0.5 62.248 194.976)" fill="black" fill-opacity="0.08"/>
</g>
<rect width="58.6238" height="19.8768" transform="matrix(0.866025 0.5 -0.866025 0.5 165.558 6.55566)" fill="url(#paint4_linear_984_4443)" fill-opacity="0.3"/>
<rect width="58.6238" height="19.8768" transform="matrix(0.866025 0.5 -0.866025 0.5 165.558 6.55566)" fill="white"/>
<rect width="58.6238" height="19.8768" transform="matrix(0.866025 0.5 -0.866025 0.5 165.558 6.55566)" fill="url(#paint5_linear_984_4443)" fill-opacity="0.2"/>
<rect width="58.6238" height="19.8768" transform="matrix(0.866025 0.5 -0.866025 0.5 165.558 6.55566)" fill="#FFA68A"/>
<rect width="58.6238" height="19.8768" transform="matrix(0.866025 0.5 -0.866025 0.5 165.558 6.55566)" fill="url(#paint6_linear_984_4443)" fill-opacity="0.4"/>
<path d="M216.329 161.986L216.328 35.8687L199.114 45.8071L199.115 171.924L216.329 161.986Z" fill="url(#paint7_linear_984_4443)" fill-opacity="0.5"/>
<path d="M216.329 161.986L216.328 35.8687L199.114 45.8071L199.115 171.924L216.329 161.986Z" fill="white"/>
<path d="M216.329 161.986L216.328 35.8687L199.114 45.8071L199.115 171.924L216.329 161.986Z" fill="url(#paint8_linear_984_4443)" fill-opacity="0.2"/>
<path d="M216.329 161.986L216.328 35.8687L199.114 45.8071L199.115 171.924L216.329 161.986Z" fill="#FF835E"/>
<path d="M216.329 161.986L216.328 35.8687L199.114 45.8071L199.115 171.924L216.329 161.986Z" fill="url(#paint9_linear_984_4443)" fill-opacity="0.75"/>
<path d="M173.734 97.3247L173.741 157.121L199.126 171.777L199.119 45.8059L148.35 16.494L148.349 86.9426L173.734 97.3247Z" fill="url(#paint10_linear_984_4443)" fill-opacity="0.4"/>
<path d="M173.734 97.3247L173.741 157.121L199.126 171.777L199.119 45.8059L148.35 16.494L148.349 86.9426L173.734 97.3247Z" fill="white"/>
<path d="M173.734 97.3247L173.741 157.121L199.126 171.777L199.119 45.8059L148.35 16.494L148.349 86.9426L173.734 97.3247Z" fill="url(#paint11_linear_984_4443)" fill-opacity="0.6"/>
<path d="M173.734 97.3247L173.741 157.121L199.126 171.777L199.119 45.8059L148.35 16.494L148.349 86.9426L173.734 97.3247Z" fill="#FF835E"/>
<path d="M173.734 97.3247L173.741 157.121L199.126 171.777L199.119 45.8059L148.35 16.494L148.349 86.9426L173.734 97.3247Z" fill="url(#paint12_linear_984_4443)" fill-opacity="0.75"/>
<rect width="58.6238" height="19.8768" transform="matrix(0.866025 0.5 -0.866025 0.5 142.774 43.8374)" fill="#C4C4C4"/>
<rect width="58.6238" height="19.8768" transform="matrix(0.866025 0.5 -0.866025 0.5 142.774 43.8374)" fill="white"/>
<rect width="58.6238" height="19.8768" transform="matrix(0.866025 0.5 -0.866025 0.5 142.774 43.8374)" fill="url(#paint13_linear_984_4443)" fill-opacity="0.75"/>
<rect width="58.6238" height="19.8768" transform="matrix(0.866025 0.5 -0.866025 0.5 142.774 43.8374)" fill="white"/>
<rect width="58.6238" height="19.8768" transform="matrix(0.866025 0.5 -0.866025 0.5 142.774 43.8374)" fill="url(#paint14_linear_984_4443)" fill-opacity="0.2"/>
<rect width="58.6238" height="19.8768" transform="matrix(0.866025 0.5 -0.866025 0.5 142.774 43.8374)" fill="#FFA68A"/>
<rect width="58.6238" height="19.8768" transform="matrix(0.866025 0.5 -0.866025 0.5 142.774 43.8374)" fill="url(#paint15_linear_984_4443)" fill-opacity="0.4"/>
<path d="M193.553 175.075L193.553 73.1504L176.339 83.0888L176.34 185.013L193.553 175.075Z" fill="#C4C4C4"/>
<path d="M193.553 175.075L193.553 73.1504L176.339 83.0888L176.34 185.013L193.553 175.075Z" fill="white"/>
<path d="M193.553 175.075L193.553 73.1504L176.339 83.0888L176.34 185.013L193.553 175.075Z" fill="url(#paint16_linear_984_4443)" fill-opacity="0.75"/>
<path d="M193.553 175.075L193.553 73.1504L176.339 83.0888L176.34 185.013L193.553 175.075Z" fill="white"/>
<path d="M193.553 175.075L193.553 73.1504L176.339 83.0888L176.34 185.013L193.553 175.075Z" fill="url(#paint17_linear_984_4443)" fill-opacity="0.2"/>
<path d="M193.553 175.075L193.553 73.1504L176.339 83.0888L176.34 185.013L193.553 175.075Z" fill="#FF835E"/>
<path d="M193.553 175.075L193.553 73.1504L176.339 83.0888L176.34 185.013L193.553 175.075Z" fill="url(#paint18_linear_984_4443)" fill-opacity="0.75"/>
<path d="M170.383 181.363L176.353 184.974L176.339 83.0878L125.569 53.7759L125.569 81.0292L170.366 106.627L170.383 181.363Z" fill="#C4C4C4"/>
<path d="M170.383 181.363L176.353 184.974L176.339 83.0878L125.569 53.7759L125.569 81.0292L170.366 106.627L170.383 181.363Z" fill="#D3B5B5"/>
<path d="M170.383 181.363L176.353 184.974L176.339 83.0878L125.569 53.7759L125.569 81.0292L170.366 106.627L170.383 181.363Z" fill="url(#paint19_linear_984_4443)" fill-opacity="0.75"/>
<path d="M170.383 181.363L176.353 184.974L176.339 83.0878L125.569 53.7759L125.569 81.0292L170.366 106.627L170.383 181.363Z" fill="white"/>
<path d="M170.383 181.363L176.353 184.974L176.339 83.0878L125.569 53.7759L125.569 81.0292L170.366 106.627L170.383 181.363Z" fill="url(#paint20_linear_984_4443)" fill-opacity="0.6"/>
<path d="M170.383 181.363L176.353 184.974L176.339 83.0878L125.569 53.7759L125.569 81.0292L170.366 106.627L170.383 181.363Z" fill="#FF835E"/>
<path d="M170.383 181.363L176.353 184.974L176.339 83.0878L125.569 53.7759L125.569 81.0292L170.366 106.627L170.383 181.363Z" fill="url(#paint21_linear_984_4443)" fill-opacity="0.75"/>
<rect width="58.6238" height="19.8768" transform="matrix(0.866025 0.5 -0.866025 0.5 119.585 77.3162)" fill="url(#paint22_linear_984_4443)" fill-opacity="0.3"/>
<rect width="58.6238" height="19.8768" transform="matrix(0.866025 0.5 -0.866025 0.5 119.585 77.3162)" fill="white"/>
<rect width="58.6238" height="19.8768" transform="matrix(0.866025 0.5 -0.866025 0.5 119.585 77.3162)" fill="url(#paint23_linear_984_4443)" fill-opacity="0.2"/>
<rect width="58.6238" height="19.8768" transform="matrix(0.866025 0.5 -0.866025 0.5 119.585 77.3162)" fill="#FFA68A"/>
<rect width="58.6238" height="19.8768" transform="matrix(0.866025 0.5 -0.866025 0.5 119.585 77.3162)" fill="url(#paint24_linear_984_4443)" fill-opacity="0.4"/>
<path d="M170.357 188.562L170.356 106.629L153.143 116.567L153.143 198.5L170.357 188.562Z" fill="url(#paint25_linear_984_4443)" fill-opacity="0.5"/>
<path d="M170.357 188.562L170.356 106.629L153.143 116.567L153.143 198.5L170.357 188.562Z" fill="white"/>
<path d="M170.357 188.562L170.356 106.629L153.143 116.567L153.143 198.5L170.357 188.562Z" fill="url(#paint26_linear_984_4443)" fill-opacity="0.2"/>
<path d="M170.357 188.562L170.356 106.629L153.143 116.567L153.143 198.5L170.357 188.562Z" fill="#FF835E"/>
<path d="M170.357 188.562L170.356 106.629L153.143 116.567L153.143 198.5L170.357 188.562Z" fill="url(#paint27_linear_984_4443)" fill-opacity="0.75"/>
<path d="M144.263 139.384L144.259 193.251L153.144 198.404L153.148 116.566L102.378 87.2539L102.378 115.247L144.263 139.384Z" fill="url(#paint28_linear_984_4443)" fill-opacity="0.4"/>
<path d="M144.263 139.384L144.259 193.251L153.144 198.404L153.148 116.566L102.378 87.2539L102.378 115.247L144.263 139.384Z" fill="white"/>
<path d="M144.263 139.384L144.259 193.251L153.144 198.404L153.148 116.566L102.378 87.2539L102.378 115.247L144.263 139.384Z" fill="url(#paint29_linear_984_4443)" fill-opacity="0.6"/>
<path d="M144.263 139.384L144.259 193.251L153.144 198.404L153.148 116.566L102.378 87.2539L102.378 115.247L144.263 139.384Z" fill="#FF835E"/>
<path d="M144.263 139.384L144.259 193.251L153.144 198.404L153.148 116.566L102.378 87.2539L102.378 115.247L144.263 139.384Z" fill="url(#paint30_linear_984_4443)" fill-opacity="0.75"/>
<rect width="58.6238" height="19.8768" transform="matrix(0.866025 0.5 -0.866025 0.5 93.5244 110.104)" fill="url(#paint31_linear_984_4443)" fill-opacity="0.3"/>
<rect width="58.6238" height="19.8768" transform="matrix(0.866025 0.5 -0.866025 0.5 93.5244 110.104)" fill="white"/>
<rect width="58.6238" height="19.8768" transform="matrix(0.866025 0.5 -0.866025 0.5 93.5244 110.104)" fill="url(#paint32_linear_984_4443)" fill-opacity="0.2"/>
<rect width="58.6238" height="19.8768" transform="matrix(0.866025 0.5 -0.866025 0.5 93.5244 110.104)" fill="#FFA68A"/>
<rect width="58.6238" height="19.8768" transform="matrix(0.866025 0.5 -0.866025 0.5 93.5244 110.104)" fill="url(#paint33_linear_984_4443)" fill-opacity="0.4"/>
<path d="M144.296 203.993L144.295 139.417L127.081 149.356L127.082 213.931L144.296 203.993Z" fill="url(#paint34_linear_984_4443)" fill-opacity="0.5"/>
<path d="M144.296 203.993L144.295 139.417L127.081 149.356L127.082 213.931L144.296 203.993Z" fill="white"/>
<path d="M144.296 203.993L144.295 139.417L127.081 149.356L127.082 213.931L144.296 203.993Z" fill="url(#paint35_linear_984_4443)" fill-opacity="0.2"/>
<path d="M144.296 203.993L144.295 139.417L127.081 149.356L127.082 213.931L144.296 203.993Z" fill="#FF835E"/>
<path d="M144.296 203.993L144.295 139.417L127.081 149.356L127.082 213.931L144.296 203.993Z" fill="url(#paint36_linear_984_4443)" fill-opacity="0.75"/>
<path d="M76.3044 184.546L127.074 213.858L127.085 149.355L76.3154 120.043L76.3044 184.546Z" fill="url(#paint37_linear_984_4443)" fill-opacity="0.4"/>
<path d="M76.3044 184.546L127.074 213.858L127.085 149.355L76.3154 120.043L76.3044 184.546Z" fill="white"/>
<path d="M76.3044 184.546L127.074 213.858L127.085 149.355L76.3154 120.043L76.3044 184.546Z" fill="url(#paint38_linear_984_4443)" fill-opacity="0.6"/>
<path d="M76.3044 184.546L127.074 213.858L127.085 149.355L76.3154 120.043L76.3044 184.546Z" fill="#FF835E"/>
<path d="M76.3044 184.546L127.074 213.858L127.085 149.355L76.3154 120.043L76.3044 184.546Z" fill="url(#paint39_linear_984_4443)" fill-opacity="0.75"/>
</g>
<defs>
<filter id="filter0_f_984_4443" x="56.96" y="126.217" width="177.078" height="119.142" filterUnits="userSpaceOnUse" color-interpolation-filters="sRGB">
<feFlood flood-opacity="0" result="BackgroundImageFix"/>
<feBlend mode="normal" in="SourceGraphic" in2="BackgroundImageFix" result="shape"/>
<feGaussianBlur stdDeviation="10" result="effect1_foregroundBlur_984_4443"/>
</filter>
<linearGradient id="paint0_linear_984_4443" x1="77.5688" y1="277.73" x2="133.73" y2="338.613" gradientUnits="userSpaceOnUse">
<stop stop-color="#CCD1D3" stop-opacity="0.36"/>
<stop offset="1" stop-color="#C3C6CA"/>
</linearGradient>
<linearGradient id="paint1_linear_984_4443" x1="77.5688" y1="277.73" x2="133.73" y2="338.613" gradientUnits="userSpaceOnUse">
<stop stop-color="#CCD1D3" stop-opacity="0.36"/>
<stop offset="1" stop-color="#C3C6CA"/>
</linearGradient>
<linearGradient id="paint2_linear_984_4443" x1="77.5688" y1="277.73" x2="133.73" y2="338.613" gradientUnits="userSpaceOnUse">
<stop stop-color="#CCD1D3" stop-opacity="0.36"/>
<stop offset="1" stop-color="#C3C6CA"/>
</linearGradient>
<linearGradient id="paint3_linear_984_4443" x1="1.23985" y1="170.745" x2="228.299" y2="40.9165" gradientUnits="userSpaceOnUse">
<stop stop-color="#BDC6CB" stop-opacity="0.36"/>
<stop offset="1" stop-color="#B7BEC8"/>
</linearGradient>
<linearGradient id="paint4_linear_984_4443" x1="45.023" y1="13.8168" x2="-106.363" y2="-109.456" gradientUnits="userSpaceOnUse">
<stop stop-color="#C9CFD2" stop-opacity="0.36"/>
<stop offset="1" stop-color="#B5BDC8"/>
</linearGradient>
<linearGradient id="paint5_linear_984_4443" x1="4.62239" y1="-6.23256" x2="79.561" y2="65.1246" gradientUnits="userSpaceOnUse">
<stop stop-color="#BDC6CB" stop-opacity="0.36"/>
<stop offset="1" stop-color="#B7BEC8"/>
</linearGradient>
<linearGradient id="paint6_linear_984_4443" x1="213.803" y1="100.801" x2="97.4147" y2="-58.7379" gradientUnits="userSpaceOnUse">
<stop stop-color="#EE5222"/>
<stop offset="1" stop-color="#FF9D66"/>
</linearGradient>
<linearGradient id="paint7_linear_984_4443" x1="252.005" y1="25.452" x2="301.518" y2="231.622" gradientUnits="userSpaceOnUse">
<stop stop-color="#BDC6CB" stop-opacity="0.36"/>
<stop offset="1" stop-color="#B7BEC8"/>
</linearGradient>
<linearGradient id="paint8_linear_984_4443" x1="264.585" y1="17.952" x2="335.331" y2="235.276" gradientUnits="userSpaceOnUse">
<stop stop-color="#BDC6CB" stop-opacity="0.36"/>
<stop offset="1" stop-color="#B7BEC8"/>
</linearGradient>
<linearGradient id="paint9_linear_984_4443" x1="276.143" y1="198.649" x2="216.641" y2="66.4315" gradientUnits="userSpaceOnUse">
<stop stop-color="#EE5222"/>
<stop offset="1" stop-color="#FF9D66"/>
</linearGradient>
<linearGradient id="paint10_linear_984_4443" x1="545.081" y1="102.725" x2="283.357" y2="329.585" gradientUnits="userSpaceOnUse">
<stop stop-color="#CCD1D3" stop-opacity="0.36"/>
<stop offset="1" stop-color="#C3C6CA"/>
</linearGradient>
<linearGradient id="paint11_linear_984_4443" x1="197.148" y1="16.494" x2="173.734" y2="126.229" gradientUnits="userSpaceOnUse">
<stop stop-color="#CCD1D3" stop-opacity="0.36"/>
<stop offset="1" stop-color="#C3C6CA"/>
</linearGradient>
<linearGradient id="paint12_linear_984_4443" x1="221.302" y1="166.223" x2="255.786" y2="71.4955" gradientUnits="userSpaceOnUse">
<stop stop-color="#EE5222"/>
<stop offset="1" stop-color="#FF9559"/>
</linearGradient>
<linearGradient id="paint13_linear_984_4443" x1="19.0392" y1="5.13681" x2="78.9143" y2="92.8318" gradientUnits="userSpaceOnUse">
<stop stop-color="#FFA877"/>
<stop offset="1" stop-color="#FF0707"/>
</linearGradient>
<linearGradient id="paint14_linear_984_4443" x1="4.62239" y1="-6.23256" x2="79.561" y2="65.1246" gradientUnits="userSpaceOnUse">
<stop stop-color="#BDC6CB" stop-opacity="0.36"/>
<stop offset="1" stop-color="#B7BEC8"/>
</linearGradient>
<linearGradient id="paint15_linear_984_4443" x1="213.803" y1="100.801" x2="97.4147" y2="-58.7379" gradientUnits="userSpaceOnUse">
<stop stop-color="#EE5222"/>
<stop offset="1" stop-color="#FF9D66"/>
</linearGradient>
<linearGradient id="paint16_linear_984_4443" x1="197.177" y1="116.693" x2="70.7914" y2="159.573" gradientUnits="userSpaceOnUse">
<stop stop-color="#FFA877"/>
<stop offset="1" stop-color="#FF0707"/>
</linearGradient>
<linearGradient id="paint17_linear_984_4443" x1="233.588" y1="58.0728" x2="292.039" y2="234.267" gradientUnits="userSpaceOnUse">
<stop stop-color="#BDC6CB" stop-opacity="0.36"/>
<stop offset="1" stop-color="#B7BEC8"/>
</linearGradient>
<linearGradient id="paint18_linear_984_4443" x1="238.994" y1="206.381" x2="190.486" y2="99.4411" gradientUnits="userSpaceOnUse">
<stop stop-color="#EE5222"/>
<stop offset="1" stop-color="#FF9D66"/>
</linearGradient>
<linearGradient id="paint19_linear_984_4443" x1="325.194" y1="130.034" x2="207.554" y2="253.344" gradientUnits="userSpaceOnUse">
<stop stop-color="#FFA877"/>
<stop offset="1" stop-color="#FF0707"/>
</linearGradient>
<linearGradient id="paint20_linear_984_4443" x1="166.519" y1="54.6321" x2="145.697" y2="144.7" gradientUnits="userSpaceOnUse">
<stop stop-color="#CCD1D3" stop-opacity="0.36"/>
<stop offset="1" stop-color="#C3C6CA"/>
</linearGradient>
<linearGradient id="paint21_linear_984_4443" x1="194.67" y1="180.702" x2="223.647" y2="103.707" gradientUnits="userSpaceOnUse">
<stop stop-color="#EE5222"/>
<stop offset="1" stop-color="#FF9559"/>
</linearGradient>
<linearGradient id="paint22_linear_984_4443" x1="45.023" y1="13.8168" x2="-106.363" y2="-109.456" gradientUnits="userSpaceOnUse">
<stop stop-color="#C9CFD2" stop-opacity="0.36"/>
<stop offset="1" stop-color="#B5BDC8"/>
</linearGradient>
<linearGradient id="paint23_linear_984_4443" x1="4.62239" y1="-6.23256" x2="79.561" y2="65.1246" gradientUnits="userSpaceOnUse">
<stop stop-color="#BDC6CB" stop-opacity="0.36"/>
<stop offset="1" stop-color="#B7BEC8"/>
</linearGradient>
<linearGradient id="paint24_linear_984_4443" x1="213.803" y1="100.801" x2="97.4147" y2="-58.7379" gradientUnits="userSpaceOnUse">
<stop stop-color="#EE5222"/>
<stop offset="1" stop-color="#FF9D66"/>
</linearGradient>
<linearGradient id="paint25_linear_984_4443" x1="206.034" y1="96.2123" x2="255.546" y2="302.382" gradientUnits="userSpaceOnUse">
<stop stop-color="#BDC6CB" stop-opacity="0.36"/>
<stop offset="1" stop-color="#B7BEC8"/>
</linearGradient>
<linearGradient id="paint26_linear_984_4443" x1="203.598" y1="93.8974" x2="251.818" y2="236.054" gradientUnits="userSpaceOnUse">
<stop stop-color="#BDC6CB" stop-opacity="0.36"/>
<stop offset="1" stop-color="#B7BEC8"/>
</linearGradient>
<linearGradient id="paint27_linear_984_4443" x1="203.918" y1="215.439" x2="164.525" y2="129.397" gradientUnits="userSpaceOnUse">
<stop stop-color="#EE5222"/>
<stop offset="1" stop-color="#FF9D66"/>
</linearGradient>
<linearGradient id="paint28_linear_984_4443" x1="499.109" y1="173.485" x2="237.385" y2="400.345" gradientUnits="userSpaceOnUse">
<stop stop-color="#CCD1D3" stop-opacity="0.36"/>
<stop offset="1" stop-color="#C3C6CA"/>
</linearGradient>
<linearGradient id="paint29_linear_984_4443" x1="136.795" y1="88.8203" x2="118.309" y2="162.31" gradientUnits="userSpaceOnUse">
<stop stop-color="#CCD1D3" stop-opacity="0.36"/>
<stop offset="1" stop-color="#C3C6CA"/>
</linearGradient>
<linearGradient id="paint30_linear_984_4443" x1="168.25" y1="195.199" x2="192.506" y2="133.028" gradientUnits="userSpaceOnUse">
<stop stop-color="#EE5222"/>
<stop offset="1" stop-color="#FF9559"/>
</linearGradient>
<linearGradient id="paint31_linear_984_4443" x1="45.023" y1="13.8168" x2="-106.363" y2="-109.456" gradientUnits="userSpaceOnUse">
<stop stop-color="#C9CFD2" stop-opacity="0.36"/>
<stop offset="1" stop-color="#B5BDC8"/>
</linearGradient>
<linearGradient id="paint32_linear_984_4443" x1="4.62239" y1="-6.23256" x2="79.561" y2="65.1246" gradientUnits="userSpaceOnUse">
<stop stop-color="#BDC6CB" stop-opacity="0.36"/>
<stop offset="1" stop-color="#B7BEC8"/>
</linearGradient>
<linearGradient id="paint33_linear_984_4443" x1="213.803" y1="100.801" x2="97.4147" y2="-58.7379" gradientUnits="userSpaceOnUse">
<stop stop-color="#EE5222"/>
<stop offset="1" stop-color="#FF9D66"/>
</linearGradient>
<linearGradient id="paint34_linear_984_4443" x1="179.972" y1="129.001" x2="229.485" y2="335.171" gradientUnits="userSpaceOnUse">
<stop stop-color="#BDC6CB" stop-opacity="0.36"/>
<stop offset="1" stop-color="#B7BEC8"/>
</linearGradient>
<linearGradient id="paint35_linear_984_4443" x1="171.637" y1="128.723" x2="210.885" y2="241.266" gradientUnits="userSpaceOnUse">
<stop stop-color="#BDC6CB" stop-opacity="0.36"/>
<stop offset="1" stop-color="#B7BEC8"/>
</linearGradient>
<linearGradient id="paint36_linear_984_4443" x1="167.543" y1="227.026" x2="136.097" y2="159.138" gradientUnits="userSpaceOnUse">
<stop stop-color="#EE5222"/>
<stop offset="1" stop-color="#FF9D66"/>
</linearGradient>
<linearGradient id="paint37_linear_984_4443" x1="473.047" y1="206.274" x2="211.323" y2="433.134" gradientUnits="userSpaceOnUse">
<stop stop-color="#CCD1D3" stop-opacity="0.36"/>
<stop offset="1" stop-color="#C3C6CA"/>
</linearGradient>
<linearGradient id="paint38_linear_984_4443" x1="105.084" y1="122.224" x2="88.8352" y2="181.138" gradientUnits="userSpaceOnUse">
<stop stop-color="#CCD1D3" stop-opacity="0.36"/>
<stop offset="1" stop-color="#C3C6CA"/>
</linearGradient>
<linearGradient id="paint39_linear_984_4443" x1="139.403" y1="211.575" x2="159.418" y2="162.304" gradientUnits="userSpaceOnUse">
<stop stop-color="#EE5222"/>
<stop offset="1" stop-color="#FF9559"/>
</linearGradient>
<clipPath id="clip0_984_4443">
<rect width="285" height="300" fill="white"/>
</clipPath>
</defs>
</svg>
