<svg width="60" height="60" viewBox="0 0 60 60" fill="none" xmlns="http://www.w3.org/2000/svg">
<g opacity="0.6">
<path d="M30 60C46.5685 60 60 46.5685 60 30C60 13.4315 46.5685 0 30 0C13.4315 0 0 13.4315 0 30C0 46.5685 13.4315 60 30 60Z" fill="white"/>
<path d="M23.4873 45.9095H25.3644L25.3641 45.8587C25.3644 45.8587 24.9831 45.8487 24.9945 45.1697C24.9945 45.1697 24.9927 43.0762 24.9923 43.0758C24.9945 41.6212 23.5229 41.6735 23.5229 41.6735C22.9062 41.6853 22.4882 42.0596 22.3855 42.1623L22.3859 41.6794L20.4944 41.7539V41.8077C20.8857 41.8339 20.852 42.4258 20.852 42.4417V45.282C20.723 45.2831 20.4981 45.2839 20.4981 45.2779C19.8658 45.242 19.8651 44.5942 19.8669 44.5753C19.8669 44.5753 19.8503 43.2656 19.8503 43.2737C19.8581 42.3339 19.2984 42.0337 19.3059 42.0267C18.2478 41.3711 16.7324 41.821 16.7324 41.821C16.7324 41.821 16.4081 42.8472 16.4007 42.8397C18.0099 42.1349 18.273 42.832 18.2641 42.8079C18.2915 42.8765 18.296 42.9379 18.283 42.9925C18.2303 43.2978 17.6715 43.3786 17.6649 43.3786C17.0018 43.4965 16.6535 43.6206 16.6535 43.6206C15.6343 43.9683 15.7688 44.8281 15.7688 44.8362C15.943 45.9413 17.4354 45.9109 17.4354 45.9109H18.0747L18.3983 45.2472C17.7349 45.381 17.5299 45.0185 17.5299 45.0185C17.2539 44.5593 17.6722 44.2918 17.6722 44.2918C17.8353 44.165 18.3582 44.0479 18.3582 44.0479V44.718C18.4112 45.9573 19.7305 45.9139 19.7721 45.9087H20.8531V45.9091L22.7506 45.9095V45.8595C22.7495 45.8595 22.4 45.8472 22.3833 45.2579L22.3852 43.3431V43.3423C22.3718 42.6333 22.9559 42.6245 22.9552 42.6233C23.5244 42.6174 23.4829 43.1221 23.4866 43.2349C23.4866 43.2349 23.4873 45.1697 23.4869 45.1705H23.5011L23.4873 45.1723" fill="#A20A35"/>
<path d="M15.0471 39.8218V39.8718C15.6427 40.1038 15.4206 40.6894 15.4206 40.6894L14.3308 44.17L12.8584 39.8314H10.8V39.893C11.1528 39.9734 11.3248 40.5878 11.3248 40.5878L12.676 44.3516C13.0492 45.4112 13.7493 45.6202 13.7493 45.6202L14.6135 45.956L16.6919 39.8218" fill="#A20A35"/>
<path d="M47.3845 45.1707L47.3834 39.8325L45.47 39.9071V39.9608C45.861 39.9875 45.8273 40.5793 45.8273 40.5941V41.9776C44.4901 41.1237 43.5192 42.2303 43.5251 42.2103C42.9006 42.8351 42.9273 43.8206 42.9207 43.8143C42.9207 44.8538 43.5251 45.3834 43.5251 45.3834C44.3207 46.2406 45.2795 45.907 45.2795 45.907C45.2795 45.907 45.6939 45.1655 45.6939 45.1592C44.5113 45.3567 44.5113 43.8206 44.5179 43.8143C44.5179 42.4953 45.2184 42.5702 45.2247 42.5631C45.8273 42.5702 45.8269 43.2635 45.8269 43.2387L45.8276 43.2932V45.9096L45.828 45.9093V45.9096L47.7595 45.9111V45.8596C47.7588 45.8596 47.3749 45.8982 47.3845 45.1707Z" fill="#A20A35"/>
<path d="M41.6388 42.228V41.6795L39.7469 41.754V41.8073C40.1379 41.834 40.1046 42.4255 40.1046 42.4418L40.1035 44.9464L40.1038 45.2817C39.9807 45.2828 39.7269 45.2839 39.7269 45.2777C39.0939 45.2421 39.0932 44.5943 39.0954 44.5753C39.0954 44.5753 39.0795 43.2657 39.0795 43.2734C39.0865 42.3336 38.5269 42.0337 38.5351 42.0264C37.477 41.3707 35.9613 41.8207 35.9613 41.8207C35.9613 41.8207 35.6377 42.8473 35.6292 42.8395C37.2387 42.1346 37.5007 42.8321 37.4929 42.8076C37.5203 42.8766 37.5241 42.938 37.5111 42.9925C37.4585 43.2979 36.9 43.3783 36.8929 43.3783C36.2303 43.4965 35.8823 43.6207 35.8823 43.6207C34.8635 43.9679 34.9981 44.8281 34.9981 44.8359C35.1719 45.9414 36.6635 45.911 36.6635 45.911H37.3032L37.6267 45.2469C36.9633 45.3811 36.7591 45.0182 36.7591 45.0182C36.483 44.5594 36.9003 44.2915 36.9003 44.2915C37.0638 44.1651 37.5878 44.0476 37.5878 44.0476V44.7181C37.6397 45.9574 38.9601 45.9136 38.9998 45.9088H40.1046V45.9091H42.0131V45.8595C41.995 45.8606 41.6289 45.8888 41.6377 45.1691L41.6385 43.4695H41.6388C41.6396 43.475 41.5866 42.506 42.8622 42.7194V41.6787C42.8622 41.6787 42.058 41.4319 41.6388 42.228Z" fill="#A20A35"/>
<path d="M27.5488 43.9788C27.5076 43.9881 26.9566 43.9384 27.0166 43.1676C27.0232 43.1746 27.0014 42.4797 27.5503 42.4797C27.5503 42.4797 28.0483 42.4586 28.0602 43.1553C28.0602 43.1676 28.1273 43.9788 27.5488 43.9788ZM31.8692 41.6733H27.4865C26.9706 41.6989 26.3929 41.7979 25.9378 42.2403C25.9378 42.2403 25.1457 43.0134 25.8255 43.9925C25.831 43.9925 26.1487 44.4465 26.6834 44.6185C26.6838 44.6181 26.689 44.6185 26.6964 44.6207L26.6875 44.6221C26.736 44.6207 26.3095 44.67 26.122 44.7815C26.0178 44.8483 25.9845 44.9213 26.0138 45.1036C26.043 45.2837 26.2046 45.8729 26.8265 45.9085C27.2701 45.9281 27.9071 45.8492 28.2436 46.099C28.2436 46.099 28.4853 46.2754 28.4853 46.5701C28.4853 46.7932 28.4597 47.249 27.5299 47.2971C27.4865 47.2968 26.759 47.2916 26.6164 46.7761C26.6156 46.7728 26.5404 46.3362 26.9658 46.2758C26.9658 46.2758 26.4066 46.1446 25.9333 46.2758C25.2926 46.4545 25.102 47.0448 25.4627 47.4669C25.4575 47.4617 25.9852 48.0877 27.4091 48.0777C28.8436 48.1159 30.2804 47.6863 30.0259 46.2465C30.0192 46.2465 29.8536 45.2196 28.3 45.2251H27.5328C27.5328 45.2251 27.206 45.2496 27.1396 45.0951C27.1389 45.0936 26.9943 44.8612 27.4479 44.8453H27.4484L27.5314 44.836C27.5314 44.836 28.8714 44.6715 29.2865 44.0851C29.2925 44.0789 29.9209 43.384 29.2743 42.5479C29.2736 42.5479 29.2172 42.4712 29.1742 42.4349H30.3261C30.3245 42.9604 30.3212 44.5006 30.3268 44.5117C30.3238 45.9671 31.8221 45.9141 31.8221 45.9141C32.4659 45.9019 32.8921 45.4939 32.9703 45.4137L32.9699 45.9089L34.8811 45.9093V45.8593C34.4716 45.8411 34.5053 45.1847 34.5057 45.1699V42.9271L34.5061 41.6793L32.6149 41.7537V41.8075C33.0063 41.8338 32.9721 42.4257 32.9721 42.4415V43.7539L32.9717 44.2464C32.971 44.2464 32.971 44.2453 32.9699 44.2445C32.9484 45.0528 32.3851 44.9572 32.3873 44.9668C31.8559 44.9724 31.8692 44.385 31.8692 44.385" fill="#A20A35"/>
<path d="M48.004 40.6008C48.004 40.2376 48.2994 39.9419 48.6633 39.9419C49.0261 39.9419 49.3215 40.2376 49.3215 40.6008C49.3215 40.9643 49.0261 41.2593 48.6633 41.2593C48.2994 41.2593 48.004 40.9643 48.004 40.6008ZM47.8984 40.6008C47.8984 41.0221 48.2416 41.3654 48.6633 41.3654C49.084 41.3654 49.4271 41.0221 49.4271 40.6008C49.4271 40.1794 49.084 39.8359 48.6633 39.8359C48.2416 39.8359 47.8984 40.1794 47.8984 40.6008Z" fill="#A20A35"/>
<path d="M48.4976 40.6497V41.0562H48.3723V40.1553H48.6944C48.8456 40.1553 49.0012 40.2031 49.0012 40.3809C49.0012 40.4895 48.9368 40.5729 48.8326 40.5981V40.6007C48.9404 40.6263 48.9549 40.6849 48.9686 40.7857C48.9823 40.8753 48.9923 40.9709 49.0249 41.0562H48.8915C48.8808 41.0025 48.8656 40.9439 48.8593 40.8901C48.8493 40.8094 48.8493 40.7353 48.8082 40.6901C48.7722 40.6497 48.7222 40.6533 48.6721 40.6497H48.4976ZM48.495 40.5421H48.701C48.8393 40.5359 48.8704 40.4733 48.8704 40.4025C48.8704 40.3309 48.8393 40.2683 48.701 40.2623H48.495" fill="#A20A35"/>
<path d="M36.8594 33.2077L40.972 30.7326L41.0874 30.6697L45.413 28.9785" stroke="#231F20" stroke-width="0.2875"/>
<path d="M36.8828 33.2535L42.1647 32.6294L46.0801 28.8501" stroke="#231F20" stroke-width="0.2875"/>
<path d="M39.0808 34.1235L41.2323 31.7251" stroke="#231F20" stroke-width="0.2875"/>
<path d="M39.0105 34.1916L45.93 28.9287" stroke="#231F20" stroke-width="0.2875"/>
<path d="M39.0657 33.7554L42.1332 34.481L49.0838 27.272" stroke="#231F20" stroke-width="0.2875"/>
<path d="M39.0808 33.6177L42.1345 33.8917" stroke="#231F20" stroke-width="0.2875"/>
<path d="M42.1492 33.8186L46.2071 28.7778" stroke="#231F20" stroke-width="0.2875"/>
<path d="M35.6543 14.0869L49.0532 27.217" stroke="#231F20" stroke-width="0.2875"/>
<path d="M35.6543 14.0869L37.1056 15.984" stroke="#231F20" stroke-width="0.2875"/>
<path d="M48.5407 27.4691L35.6921 16.3965" stroke="#231F20" stroke-width="0.2875"/>
<path d="M35.7566 16.5933L37.265 18.3497" stroke="#231F20" stroke-width="0.2875"/>
<path d="M37.4031 18.5107L46.1384 28.669" stroke="#231F20" stroke-width="0.2875"/>
<path d="M35.5046 19.6729L45.4818 29.0357" stroke="#231F20" stroke-width="0.2875"/>
<path d="M35.4792 19.7207L38.3627 23.4324" stroke="#231F20" stroke-width="0.2875"/>
<path d="M35.45 19.7949L37.5634 23.5668" stroke="#231F20" stroke-width="0.2875"/>
<path d="M37.8547 24.0854L41.6969 30.9432" stroke="#231F20" stroke-width="0.2875"/>
<path d="M35.4812 24.0757L39.6602 27.3249" stroke="#231F20" stroke-width="0.2875"/>
<path d="M35.3625 26.5112L36.4009 27.4312" stroke="#231F20" stroke-width="0.2875"/>
<path d="M37.1641 28.1099L41.2329 31.7253" stroke="#231F20" stroke-width="0.2875"/>
<path d="M25.707 25.8062C29.6963 28.3142 33.197 29.4464 37.5686 28.4872C37.5686 28.4872 38.7523 28.26 39.4485 27.7074" stroke="#231F20" stroke-width="0.2875"/>
<path d="M34.1953 26.3264L34.5062 24.6167" stroke="#231F20" stroke-width="0.2875"/>
<path d="M34.8086 23.6308L35.1529 21.1499" stroke="#231F20" stroke-width="0.2875"/>
<path d="M35.3501 21.855H35.0652" stroke="#231F20" stroke-width="0.2875"/>
<path d="M35.414 22.3799H35.0039" stroke="#231F20" stroke-width="0.2875"/>
<path d="M35.4684 23.001H34.9141" stroke="#231F20" stroke-width="0.2875"/>
<path d="M34.7057 24.811H34.4727" stroke="#231F20" stroke-width="0.2875"/>
<path d="M34.707 25.2979H34.3782" stroke="#231F20" stroke-width="0.2875"/>
<path d="M34.6857 25.8408H34.2715" stroke="#231F20" stroke-width="0.2875"/>
<path d="M35.199 20.0073L34.4641 23.598" stroke="#231F20" stroke-width="0.2875"/>
<path d="M34.3548 24.0591L33.6926 27.1912" stroke="#231F20" stroke-width="0.2875"/>
<path d="M33.5047 28.084L33.1926 29.5555" stroke="#231F20" stroke-width="0.2875"/>
<path d="M33.9891 28.1372L33.1233 30.2022L31.6633 33.6809" stroke="#231F20" stroke-width="0.2875"/>
<path d="M33.8221 29.3652L32.3887 33.6914" stroke="#231F20" stroke-width="0.2875"/>
<path d="M34.2769 28.8208L33.0645 33.7796" stroke="#231F20" stroke-width="0.2875"/>
<path d="M34.3709 29.748L33.9089 32.9528" stroke="#231F20" stroke-width="0.2875"/>
<path d="M35.0418 29.3423H33.4902" stroke="#231F20" stroke-width="0.2875"/>
<path d="M34.8121 29.9185H33.261" stroke="#231F20" stroke-width="0.2875"/>
<path d="M34.7657 30.5177L32.9915 30.5107" stroke="#231F20" stroke-width="0.2875"/>
<path d="M34.803 31.1201H32.7473" stroke="#231F20" stroke-width="0.2875"/>
<path d="M32.5012 31.7236H34.6031" stroke="#231F20" stroke-width="0.2875"/>
<path d="M32.2395 32.3403H34.59" stroke="#231F20" stroke-width="0.2875"/>
<path d="M31.9934 32.9292H34.5487" stroke="#231F20" stroke-width="0.2875"/>
<path d="M35.443 16.6606L35.0652 18.3646" stroke="#231F20" stroke-width="0.2875"/>
<path d="M34.989 18.709L33.8977 23.635" stroke="#231F20" stroke-width="0.2875"/>
<path d="M33.8006 24.0713L33.116 27.1584" stroke="#231F20" stroke-width="0.2875"/>
<path d="M32.9036 28.1162L31.9617 32.365" stroke="#231F20" stroke-width="0.2875"/>
<path d="M35.6172 14.1055L35.1609 16.0361" stroke="#231F20" stroke-width="0.2875"/>
<path d="M35.0875 16.353L34.614 18.3563" stroke="#231F20" stroke-width="0.2875"/>
<path d="M34.5264 18.7339L33.3848 23.567" stroke="#231F20" stroke-width="0.2875"/>
<path d="M33.2673 24.0679L32.4597 27.493" stroke="#231F20" stroke-width="0.2875"/>
<path d="M32.3104 28.1235L31.9199 29.9047" stroke="#231F20" stroke-width="0.2875"/>
<path d="M30.2559 27.2912L34.7689 24.0669" stroke="#231F20" stroke-width="0.2875"/>
<path d="M32.5449 23.4483L35.2727 19.7231" stroke="#231F20" stroke-width="0.2875"/>
<path d="M35.5824 16.355L33.6472 18.3277" stroke="#231F20" stroke-width="0.2875"/>
<path d="M34.22 15.9908L35.6078 14.0879" stroke="#231F20" stroke-width="0.2875"/>
<path d="M34.8287 26.4473C34.8287 26.4473 33.8124 26.9693 29.4297 26.93" stroke="#231F20" stroke-width="0.2875"/>
<path d="M38.3841 23.6753C38.3564 23.7342 38.1661 23.8887 37.8401 24.0935C37.2507 24.4644 36.2164 25.0014 34.8828 25.4576" stroke="#231F20" stroke-width="0.2875"/>
<path d="M34.3137 25.6279C31.9955 26.338 28.9326 26.7533 25.7468 25.7612" stroke="#231F20" stroke-width="0.2875"/>
<path d="M32.4464 23.6543C32.4464 23.6543 29.2722 26.5655 25.7605 25.6668" stroke="#231F20" stroke-width="0.2875"/>
<path d="M27.5469 27.4653L34.8234 33.7319" stroke="#231F20" stroke-width="0.2875"/>
<path d="M25.6277 25.9316L26.8448 26.9042" stroke="#231F20" stroke-width="0.2875"/>
<path d="M31.7629 29.3334L31.8345 26.1875" stroke="#231F20" stroke-width="0.2875"/>
<path d="M31.4993 29.3323L31.5841 28.1157" stroke="#231F20" stroke-width="0.2875"/>
<path d="M26.5535 18.5674L36.9667 23.4068" stroke="#231F20" stroke-width="0.2875"/>
<path d="M37.2487 18.6594C36.8512 18.8533 31.3767 20.8116 25.8352 18.0688" stroke="#231F20" stroke-width="0.2875"/>
<path d="M33.668 18.3324C33.668 18.3324 30.2878 19.407 25.866 18.0469" stroke="#231F20" stroke-width="0.2875"/>
<path d="M32.4896 23.4308L26.2122 18.4604" stroke="#231F20" stroke-width="0.2875"/>
<path d="M28.7233 22.4754L25.8098 18.0962" stroke="#231F20" stroke-width="0.2875"/>
<path d="M35.5908 15.9694L25.9851 11.8169" stroke="#231F20" stroke-width="0.2875"/>
<path d="M25.991 11.8257L27.3932 13.7021" stroke="#231F20" stroke-width="0.2875"/>
<path d="M26.0403 14.0938C28.1722 15.3639 31.6504 16.3848 34.1238 16.0462" stroke="#231F20" stroke-width="0.2875"/>
<path d="M26.4036 14.4424C28.3566 15.7777 32.3592 17.7527 36.7643 16.3118" stroke="#231F20" stroke-width="0.2875"/>
<path d="M25.9407 14.0513L27.9439 16.4301" stroke="#231F20" stroke-width="0.2875"/>
<path d="M19.9141 16.5869L21.0815 18.157" stroke="#231F20" stroke-width="0.2875"/>
<path d="M19.9141 16.5869L25.6153 17.8859" stroke="#231F20" stroke-width="0.2875"/>
<path d="M21.0605 18.1785C21.7845 18.1105 23.1278 17.6392 24.4436 16.8086" stroke="#231F20" stroke-width="0.2875"/>
<path d="M24.9719 16.4524C25.9693 15.7423 26.8991 14.8201 27.4667 13.708" stroke="#231F20" stroke-width="0.2875"/>
<path d="M18.1973 20.2028L19.8025 18.4619" stroke="#231F20" stroke-width="0.2875"/>
<path d="M20.0554 18.1883L25.9159 11.833" stroke="#231F20" stroke-width="0.2875"/>
<path d="M20.4512 21.7583L21.2708 20.5239" stroke="#231F20" stroke-width="0.2875"/>
<path d="M21.4441 20.2627L23.9348 16.5111L25.874 14.1006" stroke="#231F20" stroke-width="0.2875"/>
<path d="M19.8984 18.3999L21.4968 20.1828" stroke="#231F20" stroke-width="0.2875"/>
<path d="M20.0149 18.4521L24.5815 22.6185" stroke="#231F20" stroke-width="0.2875"/>
<path d="M25.4971 18.0337C25.0761 18.3204 23.1276 18.6336 21.1335 18.1969" stroke="#231F20" stroke-width="0.2875"/>
<path d="M25.3185 18.2559C24.6223 18.7813 22.5446 19.7729 18.241 20.1577" stroke="#231F20" stroke-width="0.2875"/>
<path d="M25.6528 18.0415C25.4256 18.4447 24.1133 19.6243 21.9133 20.1769" stroke="#231F20" stroke-width="0.2875"/>
<path d="M25.4257 18.522L22.7031 22.4535" stroke="#231F20" stroke-width="0.2875"/>
<path d="M27.9303 16.5493C26.974 17.9712 23.554 21.1904 20.4231 21.773" stroke="#231F20" stroke-width="0.2875"/>
<path d="M25.9434 11.8574L25.4421 13.7367" stroke="#231F20" stroke-width="0.2875"/>
<path d="M25.3517 14.0718L24.7102 16.473" stroke="#231F20" stroke-width="0.2875"/>
<path d="M24.6251 16.7896L23.0925 22.5865" stroke="#231F20" stroke-width="0.2875"/>
<path d="M22.9921 22.9673L21.989 26.7604" stroke="#231F20" stroke-width="0.2875"/>
<path d="M21.7405 27.6973L20.1277 33.0558" stroke="#231F20" stroke-width="0.2875"/>
<path d="M25.8738 14.1006L25.2981 16.4909" stroke="#231F20" stroke-width="0.2875"/>
<path d="M25.2288 16.7803L23.8606 22.5796" stroke="#231F20" stroke-width="0.2875"/>
<path d="M23.7317 23.127L22.8613 26.818" stroke="#231F20" stroke-width="0.2875"/>
<path d="M22.7122 27.4453L22.373 28.8862" stroke="#231F20" stroke-width="0.2875"/>
<path d="M21.9627 30.749L21.3645 33.0558" stroke="#231F20" stroke-width="0.2875"/>
<path d="M22.7533 22.7637L20.1882 27.362" stroke="#231F20" stroke-width="0.2875"/>
<path d="M19.9329 27.8184L19.4968 28.6034" stroke="#231F20" stroke-width="0.2875"/>
<path d="M25.1389 25.3704L19.7883 21.2842" stroke="#231F20" stroke-width="0.2875"/>
<path d="M25.8137 23.2603L29.5977 26.6744" stroke="#231F20" stroke-width="0.2875"/>
<path d="M20.6349 27.9146L19.3457 28.706" stroke="#231F20" stroke-width="0.2875"/>
<path d="M28.7329 22.77L25.2512 25.075" stroke="#231F20" stroke-width="0.2875"/>
<path d="M24.6494 25.4731L22.4961 26.8972" stroke="#231F20" stroke-width="0.2875"/>
<path d="M22.532 31.9446L23.5333 27.4287" stroke="#231F20" stroke-width="0.2875"/>
<path d="M23.8508 25.9941L24.4576 23.249" stroke="#231F20" stroke-width="0.2875"/>
<path d="M24.5774 22.7098L25.6007 18.0791" stroke="#231F20" stroke-width="0.2875"/>
<path d="M25.4507 19.6553L24.9016 22.6916" stroke="#231F20" stroke-width="0.2875"/>
<path d="M24.7438 23.7593L24.418 25.3737" stroke="#231F20" stroke-width="0.2875"/>
<path d="M25.6476 20.561H25.3125" stroke="#231F20" stroke-width="0.2875"/>
<path d="M25.6477 21.0786H25.1926" stroke="#231F20" stroke-width="0.2875"/>
<path d="M25.657 21.6133H25.1101" stroke="#231F20" stroke-width="0.2875"/>
<path d="M25.6558 22.1738H25.0098" stroke="#231F20" stroke-width="0.2875"/>
<path d="M25.1869 24.7473L24.5398 24.7456" stroke="#231F20" stroke-width="0.2875"/>
<path d="M25.1687 24.2199L24.6641 24.2188" stroke="#231F20" stroke-width="0.2875"/>
<path d="M24.8895 25.5176L24.4609 26.7837" stroke="#231F20" stroke-width="0.2875"/>
<path d="M24.2556 27.3901L22.3118 33.1381" stroke="#231F20" stroke-width="0.2875"/>
<path d="M24.3623 27.9541L23.1055 33.5596" stroke="#231F20" stroke-width="0.2875"/>
<path d="M24.7423 27.4331L24.1321 32.5524" stroke="#231F20" stroke-width="0.2875"/>
<path d="M23.78 28.8311H24.9354" stroke="#231F20" stroke-width="0.2875"/>
<path d="M23.5754 29.415H24.9477" stroke="#231F20" stroke-width="0.2875"/>
<path d="M23.3723 30.001H24.9574" stroke="#231F20" stroke-width="0.2875"/>
<path d="M24.9995 30.585H23.1843" stroke="#231F20" stroke-width="0.2875"/>
<path d="M22.957 31.1719H25.0042" stroke="#231F20" stroke-width="0.2875"/>
<path d="M22.7605 31.7515H25.0032" stroke="#231F20" stroke-width="0.2875"/>
<path d="M22.5593 32.4077H25.0367" stroke="#231F20" stroke-width="0.2875"/>
<path d="M22.248 27.6392C22.5797 27.8676 23.2021 28.1473 23.9174 28.3273" stroke="#231F20" stroke-width="0.2875"/>
<path d="M25.2129 28.5427C27.0478 28.7982 29.3908 28.7683 31.5521 28.1182" stroke="#231F20" stroke-width="0.2875"/>
<path d="M33.239 27.4578C33.731 27.2104 34.2825 26.8764 34.7214 26.54" stroke="#231F20" stroke-width="0.2875"/>
<path d="M29.1639 27.1479C28.4751 27.6429 23.7845 30.9861 14.9863 32.5614" stroke="#231F20" stroke-width="0.2875"/>
<path d="M21.6628 27.751C20.2946 29.4393 17.0985 31.9092 14.9856 32.6014" stroke="#231F20" stroke-width="0.2875"/>
<path d="M20.7219 26.5924L24.9275 23.3535" stroke="#231F20" stroke-width="0.2875"/>
<path d="M22.4387 26.7896L22.4981 25.2915" stroke="#231F20" stroke-width="0.2875"/>
<path d="M21.9485 26.7587L19.7786 24.7363" stroke="#231F20" stroke-width="0.2875"/>
<path d="M21.8258 24.4096L19.7539 21.2222" stroke="#231F20" stroke-width="0.2875"/>
<path d="M20.5417 27.793L25.2797 33.3218" stroke="#231F20" stroke-width="0.2875"/>
<path d="M19.7109 26.8496L20.1833 27.3335" stroke="#231F20" stroke-width="0.2875"/>
<path d="M22.0535 24.4381C22.9954 24.159 23.7995 23.8071 24.4155 23.4766" stroke="#231F20" stroke-width="0.2875"/>
<path d="M24.9863 23.1138C24.9863 23.1138 24.7884 23.1668 24.4457 23.2552C23.5425 23.4899 21.6373 23.9802 19.7695 24.4099" stroke="#231F20" stroke-width="0.2875"/>
<path d="M19.8823 16.5698L18.7148 18.1711" stroke="#231F20" stroke-width="0.2875"/>
<path d="M19.8787 16.6084L19.0515 20.2498" stroke="#231F20" stroke-width="0.2875"/>
<path d="M18.9834 20.5518L17.429 27.3934" stroke="#231F20" stroke-width="0.2875"/>
<path d="M17.3308 27.8252L16.2285 32.6762" stroke="#231F20" stroke-width="0.2875"/>
<path d="M19.8227 18.4199L19.4363 20.2496" stroke="#231F20" stroke-width="0.2875"/>
<path d="M19.3742 20.5435L17.9304 27.3857" stroke="#231F20" stroke-width="0.2875"/>
<path d="M17.8445 27.791L16.8027 32.7216" stroke="#231F20" stroke-width="0.2875"/>
<path d="M19.6507 21.2705L17.5984 24.4188" stroke="#231F20" stroke-width="0.2875"/>
<path d="M19.6215 21.3008L18.9668 24.4484" stroke="#231F20" stroke-width="0.2875"/>
<path d="M18.8953 24.793L18.3606 27.3678" stroke="#231F20" stroke-width="0.2875"/>
<path d="M18.2701 27.8096L17.2468 32.7362" stroke="#231F20" stroke-width="0.2875"/>
<path d="M19.4324 23.1021L18.8516 26.3951" stroke="#231F20" stroke-width="0.2875"/>
<path d="M19.3508 23.5952H19.7563" stroke="#231F20" stroke-width="0.2875"/>
<path d="M19.2773 24.0376H19.7561" stroke="#231F20" stroke-width="0.2875"/>
<path d="M18.4372 24.7539L15.7083 24.9322" stroke="#231F20" stroke-width="0.2875"/>
<path d="M18.6168 24.7651L16.666 25.5698" stroke="#231F20" stroke-width="0.2875"/>
<path d="M19.115 24.8101L16.446 27.3879" stroke="#231F20" stroke-width="0.2875"/>
<path d="M19.0178 26.5405L18.8938 27.13" stroke="#231F20" stroke-width="0.2875"/>
<path d="M18.7464 27.835L17.8582 32.0584" stroke="#231F20" stroke-width="0.2875"/>
<path d="M18.8563 28.6621L18.4641 32.1276" stroke="#231F20" stroke-width="0.2875"/>
<path d="M18.4265 29.4214H19.2024" stroke="#231F20" stroke-width="0.2875"/>
<path d="M18.3125 29.998H19.1973" stroke="#231F20" stroke-width="0.2875"/>
<path d="M18.1914 30.5864H19.1974" stroke="#231F20" stroke-width="0.2875"/>
<path d="M18.0671 31.1726L19.2023 31.1714" stroke="#231F20" stroke-width="0.2875"/>
<path d="M18.0671 27.8403L15.4219 31.72" stroke="#231F20" stroke-width="0.2875"/>
<path d="M17.3068 27.8125L12.7805 31.4193" stroke="#231F20" stroke-width="0.2875"/>
<path d="M14.9817 27.1752L14.7585 24.3062" stroke="#231F20" stroke-width="0.2875"/>
<path d="M14.6931 27.1625L14.55 24.2109" stroke="#231F20" stroke-width="0.2875"/>
<path d="M14.8607 32.5522C13.5837 31.2647 11.7921 27.4883 13.8779 23.7661" stroke="#231F20" stroke-width="0.2875"/>
<path d="M22.728 22.4449L20.4231 21.7734" stroke="#231F20" stroke-width="0.2875"/>
<path d="M38.3032 33.5205L37.5176 33.9669C37.5176 33.9669 37.7546 34.0177 37.9963 33.8804C38.1474 33.7951 38.2778 33.6202 38.3032 33.5205Z" fill="white"/>
<path d="M15.0142 34.0181L14.9485 33.7949H15.0852H14.9485L15.0148 34.0181" fill="white"/>
<path d="M15.4009 34.2799L15.3328 34.0562H15.3334" fill="white"/>
<path d="M15.5077 34.0181L15.4414 33.7949H15.581H15.442L15.5083 34.0181" fill="white"/>
<path d="M15.5873 34.2802L15.5469 34.1436L15.5879 34.2802" fill="white"/>
<path d="M15.8289 34.0557L15.8532 34.1426L15.8289 34.0557Z" fill="white"/>
<path d="M16.0023 34.0181L15.9348 33.7949H16.0739H15.936L16.0035 34.0181" fill="white"/>
<path d="M16.0819 34.2799L16.0144 34.0562L16.0825 34.2799" fill="white"/>
<path d="M19.7917 20.4205H19.8546V20.2861H19.7917V20.4205Z" fill="#231F20"/>
<path d="M13.9212 23.4791L13.833 23.5933L13.7344 23.5183L13.822 23.4019" fill="white"/>
<path d="M37.1931 34.2229L37.1937 34.5102C37.0149 34.5102 36.9117 34.4871 36.9117 34.4871V34.1779C37.0281 34.2108 37.1343 34.2201 37.1931 34.2229ZM37.3408 34.2229C37.3408 34.2229 37.4931 34.2183 37.639 34.1947L37.6384 34.456C37.5669 34.475 37.4441 34.5033 37.3408 34.5044V34.2229ZM36.7645 34.4635C36.2771 34.3233 36.1537 33.8803 36.5142 33.709C36.5142 33.709 36.4986 33.9697 36.7645 34.1168V34.4635ZM37.7843 34.1629C37.8224 34.152 38.0549 34.0908 38.2597 33.9005C38.2597 33.9005 38.127 34.2627 37.7843 34.4063V34.1629ZM36.0891 34.3065H34.9609V34.0222H34.5709V34.3065H33.5897V34.0222H33.2015V34.3065H32.2199V34.0222H31.8305V34.3065H30.8505V34.0222H30.4605V34.3065H29.4793V34.0222H29.0906V34.3065H28.11V34.0222H27.7195V34.3065H26.7395V34.0222H26.3496V34.3065H25.3696V34.0222H24.9802V34.3065H23.9997V34.0222H23.6097V34.3065H22.6285V34.0222H22.2392V34.3065H21.2592V34.0222H20.8698V34.3065H19.8881V34.0222H19.4987V34.3065H18.5182V34.0222H18.1289V34.3065H17.1482V34.0222H16.7589V34.3065H16.5657L16.4405 33.8861H36.0931C36.0931 33.8861 36.1168 33.8849 36.1168 33.8861C36.1168 34.0839 36.1283 34.171 36.2327 34.3065H36.0891ZM16.2611 34.3008L16.2011 34.0961H16.3297L16.3915 34.3008H16.2611ZM16.069 34.3008L16.009 34.0961H16.1377L16.1988 34.3008H16.069ZM15.9242 33.8307H16.0523L16.114 34.0349H15.9842L15.9242 33.8307ZM15.7696 34.3008L15.7103 34.0961H15.8394L15.9006 34.3008H15.7696ZM15.5787 34.3008L15.5181 34.0961H15.6473L15.7085 34.3008H15.5787ZM15.4328 33.8307H15.5614L15.6231 34.0349H15.4933L15.4328 33.8307ZM15.2788 34.3008L15.2199 34.0961H15.348L15.4103 34.3008H15.2788ZM15.0873 34.3008L15.0279 34.0961H15.1565L15.2177 34.3008H15.0873ZM14.9425 33.8307H15.0711L15.1323 34.0349H15.0013L14.9425 33.8307ZM15.2626 33.8307L15.3249 34.0349H15.194L15.1346 33.8307H15.2626ZM15.7541 33.8307L15.8158 34.0349H15.6843L15.6249 33.8307H15.7541ZM16.2444 33.8307L16.3061 34.0349H16.1763L16.1157 33.8307H16.2444ZM17.1263 33.4373H16.7381V33.1535H17.1263V33.4373ZM15.5372 32.5963L15.4703 31.8482L17.7965 32.1614L17.6853 32.7423L15.5372 32.5963ZM15.6018 33.2475L15.4922 32.8737H15.7217L15.8325 33.2475H15.6018ZM18.4085 32.2427L18.3434 32.7867L17.7891 32.7492L17.8952 32.1741L18.4085 32.2427ZM18.5015 33.4373H18.1127V33.1535H18.5015V33.4373ZM18.5072 32.256L19.0339 32.3269L19.0229 32.8328L18.4501 32.7936L18.5072 32.256ZM18.4582 27.6593V27.4603H19.1417L19.1365 27.6721C18.9554 27.8203 18.5418 27.7621 18.4582 27.6593ZM18.3913 27.6593C18.2217 27.8289 17.777 27.7649 17.6899 27.6593V27.4615L18.3913 27.4603V27.6593ZM17.6235 27.6593C17.4637 27.8289 17.0473 27.7649 16.9659 27.6593V27.4615L17.6235 27.4603V27.6593ZM16.9031 27.6582C16.9031 27.6582 16.8881 27.6945 16.7849 27.6945C16.4053 27.6945 16.358 27.4615 16.358 27.4615L16.9031 27.4603V27.6582ZM19.0483 24.6311V24.6709C18.9306 24.7568 18.6451 24.7655 18.5274 24.6726L18.5263 24.529L18.4957 24.6686C18.3872 24.7511 18.1317 24.7199 18.0538 24.6403C17.9558 24.6887 17.7839 24.6178 17.7083 24.5261H19.6326V24.6311H19.0483ZM19.5109 20.3811V20.5115C19.422 20.5017 19.3395 20.478 19.313 20.4365V20.3107H19.79V20.3811H19.5109ZM19.2646 20.4365C19.1821 20.5363 18.8919 20.5253 18.7881 20.4365V20.3107H19.2646V20.4365ZM19.4866 26.3609V24.8307H19.6326L19.6337 26.3609H19.4866ZM19.8489 26.6021C19.8489 26.6021 20.026 26.6176 20.1252 26.5225C20.184 26.5923 20.3253 26.7209 20.578 26.7209V26.9383H20.9615C21.0337 27.0231 21.2021 27.1818 21.5038 27.3011H19.4866V27.0704C19.6943 27.026 19.8489 26.8472 19.8489 26.6021ZM19.448 18.3836C19.3736 18.4349 19.1186 18.4349 19.0604 18.3703V18.2648H19.8223L19.8206 18.3732C19.7664 18.4379 19.5311 18.4453 19.448 18.3836ZM19.0229 18.3605C18.885 18.3905 18.7858 18.274 18.7771 18.2648H19.0229V18.3605ZM20.3634 24.5261L20.3622 24.6686C20.2953 24.7222 20.169 24.7395 20.0525 24.7303V24.6311H19.8708L19.8703 24.5261H20.3634ZM20.4043 24.5261H20.9206L20.9195 24.6686C20.8047 24.7597 20.5099 24.7539 20.4043 24.6686V24.5261ZM21.3947 24.5261V24.6311C21.3307 24.7176 21.0752 24.7551 20.9615 24.6686L20.9604 24.5261H21.3947ZM21.4282 24.529H21.7321C21.6347 24.6426 21.4749 24.6628 21.4282 24.6293V24.529ZM22.1573 26.9614V27.2417C22.1573 27.2417 22.1325 27.2937 21.956 27.2937C21.3099 27.2937 21.2303 26.962 21.2303 26.962L22.1573 26.9614ZM22.2461 26.962L23.2452 26.9597V27.2423C23.0831 27.4061 22.7468 27.4159 22.5033 27.3611V27.3542V27.3611C22.3989 27.3341 22.2836 27.2891 22.2461 27.2446V26.962ZM23.3391 26.962L24.3377 26.9597V27.2423C24.096 27.4846 23.4621 27.3929 23.3391 27.2446V26.962ZM21.7414 27.6582V27.4603L22.2859 27.4615C22.2859 27.4615 22.2392 27.6945 21.8608 27.6945C21.7559 27.6945 21.7414 27.6582 21.7414 27.6582ZM21.0209 27.6593V27.4603L21.6785 27.4615V27.6593C21.5966 27.7649 21.1801 27.8289 21.0209 27.6593ZM20.2532 27.6593V27.4603L20.9552 27.4615V27.6593C20.8681 27.7649 20.4228 27.8289 20.2532 27.6593ZM19.4866 27.6593V27.4603H20.1875V27.6593C20.0992 27.7649 19.6562 27.8289 19.4866 27.6593ZM19.8719 33.4373H19.482V33.1535H19.8719V33.4373ZM21.2425 33.4373H20.8525V33.1535H21.2425V33.4373ZM24.1046 32.3852L23.9697 33.1483C23.7505 33.1333 23.5191 33.1201 23.2745 33.1051L23.4043 32.4025H23.3005L23.1263 33.0941C22.8593 33.0779 22.5835 33.0595 22.3067 33.0433L22.4197 27.7009H22.3338L22.1354 33.0313C22.0471 33.0249 21.9606 33.0214 21.8735 33.0139L22.2271 27.7009H22.1394L21.6953 33.0029C20.796 32.9464 19.9631 32.8923 19.4866 32.8623V27.8779H21.2713C21.5038 27.8779 21.7518 27.8607 21.9843 27.8024C22.2836 27.7269 22.4076 27.5751 22.4624 27.4788H22.6297C22.7105 27.4811 22.7918 27.488 22.8708 27.488H24.9508L24.8516 33.2049C24.6485 33.1922 24.4069 33.1766 24.1248 33.157L24.2015 32.3852H24.1046ZM24.4247 26.9614H24.5574C24.7201 27.0848 24.8591 27.1915 24.9543 27.2654L24.9519 27.3894C24.723 27.39 24.4945 27.3283 24.4247 27.2446V26.9614ZM24.96 26.9609L24.9583 27.0329L24.8602 26.9609H24.96ZM24.8061 22.9381L24.8055 22.7882H25.5922L25.5917 22.9381H24.8061ZM24.7461 22.9906C24.5839 23.1239 24.1721 23.1285 23.9973 22.9906L23.9956 22.7882H24.7461V22.9906ZM23.9367 22.9958C23.7712 23.1216 23.3997 23.0651 23.3069 22.9416V22.7882H23.9367V22.9958ZM23.2573 22.9381C23.1898 22.9872 22.9591 22.9606 22.8154 22.7928H23.2573V22.9381ZM25.5865 25.3382H25.4065V23.1989H25.5911L25.5865 25.3382ZM26.0346 26.962V27.2446C25.9545 27.3403 25.6666 27.409 25.4065 27.3836V26.9614L26.0346 26.962ZM26.1217 26.9597L27.1208 26.962V27.2446C26.9967 27.3935 26.364 27.4846 26.1217 27.2423V26.9597ZM27.2143 26.9597L28.2133 26.962V27.2446C28.0881 27.3935 27.4559 27.4846 27.2143 27.2423V26.9597ZM28.3027 26.9614L29.2285 26.962C29.2285 26.962 29.1506 27.2937 28.5039 27.2937C28.3269 27.2937 28.3027 27.2417 28.3027 27.2417V26.9614ZM34.5248 28.1969H34.6379L34.6361 28.2846L34.5248 28.1969ZM33.8176 27.6363H34.6153V27.9195C34.5467 27.987 34.4469 28.0256 34.3361 28.0487L33.8176 27.6363ZM33.6163 27.9207V27.6997C33.7778 27.8313 33.9272 27.9541 34.0627 28.066C33.8626 28.0539 33.6774 27.9939 33.6163 27.9207ZM33.5297 27.9195C33.2875 28.1606 32.6559 28.0706 32.5313 27.9207V27.638L33.5297 27.6363V27.9195ZM32.4373 27.9195C32.1961 28.1606 31.5634 28.0706 31.4394 27.9207V27.638L32.4373 27.6363V27.9195ZM31.3489 27.9166C31.3489 27.9166 31.324 27.9703 31.1481 27.9703C30.5021 27.9703 30.4231 27.638 30.4231 27.638H31.3489V27.9166ZM34.5005 23.8841L34.4994 23.7341H35.2867V23.8841H34.5005ZM34.4394 23.936C34.2779 24.0681 33.8661 24.0739 33.6913 23.936L33.689 23.7341H34.4394V23.936ZM33.6295 23.9395C33.464 24.0669 33.0943 24.0105 33.0003 23.8858V23.7341H33.6313L33.6295 23.9395ZM32.9518 23.8818C32.8837 23.9314 32.653 23.9043 32.5105 23.7365H32.9518V23.8818ZM35.2833 26.2219H35.0953V24.1431H35.2856L35.2833 26.2219ZM36.0793 27.638V27.9207C35.9576 28.0689 35.3439 28.1566 35.0953 27.9281V27.6363L36.0793 27.638ZM36.167 27.6363L37.1666 27.638V27.9207C37.042 28.0706 36.4098 28.1606 36.167 27.9195V27.6363ZM37.2595 27.6363L38.2579 27.638V27.9207C38.1339 28.0706 37.5023 28.1606 37.2595 27.9195V27.6363ZM38.3491 27.638H39.2737C39.2737 27.638 39.1953 27.9703 38.5486 27.9703C38.3727 27.9703 38.3491 27.9166 38.3491 27.9166V27.638ZM15.1923 33.2475L15.0815 32.8737H15.3123L15.4224 33.2475H15.1923ZM14.9933 31.7859L15.2805 31.8234L15.3382 32.5825L15.0348 32.5617L14.9933 31.7859ZM14.7793 33.2475L14.6679 32.8737H14.8981L15.0083 33.2475H14.7793ZM18.7385 20.4411C18.7091 20.4589 18.6624 20.4619 18.6214 20.4619C18.4818 20.4619 18.2857 20.3667 18.2857 20.3107H18.7385V20.4411ZM19.9573 18.2648H20.3259V18.3703C20.2584 18.4471 20.0109 18.4407 19.9573 18.3703V18.2648ZM20.3669 18.2648H20.7354V18.3703C20.6726 18.4407 20.4141 18.4332 20.3663 18.3703L20.3669 18.2648ZM20.7712 18.2648H21.0152C21.0065 18.274 20.9079 18.3905 20.7712 18.3605V18.2648ZM19.9781 20.3107H20.4539V20.4365C20.4182 20.4907 20.2901 20.5173 20.1725 20.5097V20.3811H19.9781V20.3107ZM20.503 20.3107H20.98V20.4365C20.8756 20.5253 20.5849 20.5363 20.503 20.4365V20.3107ZM21.029 20.3107H21.4825C21.4825 20.3667 21.2857 20.4619 21.1461 20.4619C21.1046 20.4619 21.059 20.4589 21.029 20.4411V20.3107ZM25.4382 16.6831V16.7806C25.3586 16.7703 25.2847 16.7489 25.2496 16.7085V16.5591H25.7791V16.6831H25.4382ZM25.2017 16.7085C25.1059 16.8222 24.7645 16.8095 24.6405 16.7085V16.5591H25.2017V16.7085ZM24.5747 16.7091C24.5395 16.7305 24.4853 16.7333 24.4369 16.7333C24.2725 16.7333 24.0435 16.6243 24.0411 16.5591H24.5747V16.7091ZM25.444 13.9617V13.836H25.8569L25.8547 13.9681C25.7664 14.0684 25.5403 14.0696 25.444 13.9617ZM25.399 13.9617C25.3223 14.0615 25.0587 14.0655 24.9652 13.9617V13.836H25.399V13.9617ZM24.9231 13.9589C24.7437 13.9969 24.6145 13.8423 24.6093 13.836H24.9231V13.9589ZM26.0335 13.836H26.4667V13.9617C26.3669 14.0719 26.1154 14.0696 26.0335 13.9617V13.836ZM26.514 13.836H26.9489V13.9617C26.8543 14.0655 26.5913 14.0615 26.514 13.9617V13.836ZM26.9899 13.836H27.3019C27.2921 13.8475 27.1652 13.9969 26.9899 13.9589V13.836ZM26.5861 16.5591V16.7085C26.5249 16.7824 26.3565 16.7991 26.2169 16.7823V16.6831H26.0497L26.0485 16.5591H26.5861ZM26.6345 16.5591H27.1963V16.7085C27.0723 16.8095 26.7303 16.8222 26.6345 16.7085V16.5591ZM27.2609 16.5591H27.7945C27.7927 16.6243 27.5632 16.7333 27.3999 16.7333C27.3509 16.7333 27.2973 16.7305 27.2609 16.7091V16.5591ZM26.608 22.7882L26.6068 22.9958C26.4845 23.0921 26.2215 23.1135 26.03 23.0685V22.9381H25.9366L25.9348 22.7882H26.608ZM26.668 22.7882H27.4179L27.4155 22.9958C27.25 23.1273 26.8209 23.1216 26.668 22.9958V22.7882ZM28.1077 22.7882V22.9416C28.0143 23.0651 27.6422 23.1216 27.4767 22.9958L27.4755 22.7882H28.1077ZM28.1556 22.7928H28.5969C28.4549 22.9606 28.2231 22.9872 28.1556 22.9381V22.7928ZM35.1275 18.567V18.6634C35.0607 18.6472 35.0013 18.6241 34.9781 18.5913V18.4413H35.4679V18.567H35.1275ZM34.9205 18.5913C34.8247 18.7066 34.4827 18.6933 34.3593 18.5913V18.4413H34.9205V18.5913ZM34.3027 18.5924C34.2675 18.6143 34.2127 18.6172 34.1637 18.6172C33.9999 18.6172 33.7685 18.5071 33.7685 18.4413H34.3027V18.5924ZM35.1368 16.2419V16.1161H35.5435L35.5405 16.254C35.4477 16.3469 35.2319 16.348 35.1368 16.2419ZM35.0924 16.2419C35.0151 16.3405 34.7515 16.3457 34.658 16.2419V16.1161H35.0924V16.2419ZM34.6153 16.239C34.4371 16.2771 34.3096 16.1242 34.3033 16.1161H34.6153V16.239ZM35.7234 16.1161H36.1565V16.2419C36.0568 16.3538 35.8059 16.3497 35.7228 16.2419L35.7234 16.1161ZM36.2027 16.1161H36.6371V16.2419C36.5437 16.3457 36.28 16.3405 36.2027 16.2419V16.1161ZM36.6792 16.1161H36.9912C36.9797 16.1283 36.8545 16.2771 36.6792 16.239V16.1161ZM36.171 18.4413V18.5913C36.1249 18.6461 36.0164 18.6697 35.9057 18.6714V18.567H35.7182L35.7171 18.4413H36.171ZM36.2189 18.4413H36.7789V18.5913C36.6567 18.6933 36.3141 18.7066 36.2189 18.5913V18.4413ZM36.8459 18.4413H37.3789C37.3789 18.5071 37.1475 18.6172 36.9837 18.6172C36.9341 18.6172 36.8811 18.6143 36.8459 18.5924V18.4413ZM36.2506 23.7341L36.2477 23.9395C36.1353 24.03 35.9057 24.0508 35.7193 24.0197V23.8841H35.5683L35.5659 23.7341H36.2506ZM36.3089 23.7341H37.0605L37.0581 23.9395C36.8915 24.0721 36.464 24.0669 36.3089 23.9395V23.7341ZM37.7486 23.7341V23.8858C37.6557 24.0105 37.2849 24.0669 37.1199 23.9395L37.1181 23.7341H37.7486ZM37.7982 23.7365H38.2395C38.097 23.9043 37.8651 23.9314 37.7982 23.8818V23.7365ZM49.5491 26.9666L49.0732 27.1939L42.5898 30.3837V30.2902H42.2968V30.5301L41.3237 31.0372L41.1201 30.6593L40.9626 30.7361L41.1639 31.107L40.0172 31.6953L40.1245 31.9111L36.7178 33.7655C36.6988 33.6917 36.7051 33.4679 36.9733 33.3531L36.873 33.1506C36.873 33.1506 36.3389 33.3669 36.2367 33.3963V33.3993C36.0303 33.4558 35.7874 33.4973 35.5331 33.4973H35.0953V28.1969H37.6344C37.9793 28.1969 38.3491 28.1739 38.694 28.1012C39.2356 27.9876 39.4802 27.7269 39.5552 27.6311H39.9301V27.3675C40.2762 27.3675 40.3869 27.1402 40.3869 27.1402H37.744V27.3127H35.0953V26.9655C35.3704 26.9325 35.5873 26.7387 35.5873 26.4717C35.5873 26.4717 35.9443 26.5069 35.9443 26.2219H35.5965L35.5717 24.1431H37.17C37.9389 24.1431 38.3017 23.8518 38.3508 23.7341H38.6513V23.5311C39.0031 23.5311 39.081 23.3805 39.081 23.3805H36.9151V23.5541H35.5642L35.5181 19.7322H35.6657C35.8964 19.7322 35.8728 19.5245 35.8728 19.5245H35.7263L35.7193 18.7793H36.8378C37.339 18.7793 37.5294 18.4528 37.5363 18.4413H37.635V18.3646C37.8317 18.3646 37.8651 18.2907 37.8651 18.2907H35.7159L35.6986 16.4085H36.4421C36.8615 16.4085 37.0523 16.1629 37.0847 16.1161H37.177V16.0458C37.3183 16.0458 37.3893 15.9667 37.3893 15.9667H35.6946L35.6778 13.9335H35.5769L35.5451 15.9656L35.4835 15.9667H33.9116C33.9116 15.9667 33.9826 16.0458 34.1239 16.0458V16.1161H34.2323C34.2525 16.1802 34.3581 16.4085 34.8841 16.4085H35.5377L35.5088 18.2907H33.2812C33.2812 18.2907 33.3146 18.3646 33.5125 18.3646V18.4413H33.6117C33.6186 18.4528 33.8083 18.7793 34.3096 18.7793H35.2931V19.5245H35.067C35.067 19.7501 35.266 19.7322 35.266 19.7322H35.2919L35.2873 23.5541H33.832V23.3805H31.6672C31.6672 23.3805 31.7434 23.5311 32.0958 23.5311V23.7341H32.3986C32.4465 23.8518 32.8111 24.1431 33.5794 24.1431H34.714L34.6753 26.2219H34.061C34.061 26.2219 34.0553 26.474 34.3546 26.474H34.6707L34.6546 27.3219H33.4179L31.1389 25.5194L31.0789 25.5886C31.0581 25.5909 32.1645 26.5057 33.1565 27.3219H31.9511V27.1512H29.3121C29.3121 27.1512 29.4234 27.3779 29.7701 27.3779V27.6334H30.1041C30.1917 27.7315 30.4623 27.9876 31.0039 28.1012C31.3489 28.1739 31.7174 28.1969 32.0635 28.1969H34.2225C34.4105 28.3521 34.5594 28.4727 34.6321 28.5315L34.5392 33.4973H33.9018L33.9641 32.9418H33.8591L33.7587 33.4973H33.2125L33.3204 32.9331H33.2165L33.0689 33.4973H32.5336L32.6945 32.9263H32.5901L32.3883 33.4973H31.7082L31.8334 29.3183H31.6955L31.5363 33.4973H31.3402L31.5669 29.3159H31.429L31.1671 33.4973H31.0039C31.0039 33.4973 30.8332 33.4759 30.7369 33.6397H26.0179C26.0179 33.6397 25.8247 33.2937 25.4065 33.2475V27.488H27.5891C27.9341 27.488 28.3027 27.4667 28.6488 27.3929C29.1535 27.2873 29.3779 27.0491 29.458 26.9383H29.8831V26.7209C30.2304 26.7209 30.3775 26.4775 30.3775 26.4775H27.6999V26.6545H25.4065V26.1331C25.8033 26.1083 25.9758 25.9163 25.9758 25.6405C25.9758 25.6405 26.3593 25.6837 26.3593 25.3382H25.9689L25.9407 23.1989H27.5275C28.2981 23.1989 28.6621 22.9058 28.7087 22.7882H29.0081V22.5863C29.3611 22.5863 29.4373 22.4357 29.4373 22.4357H27.2725V22.6099H25.9331L25.8725 18.0906H25.9758C26.2065 18.0906 26.1829 17.8812 26.1829 17.8812H26.0595L26.0513 16.8919H27.2541C27.7426 16.8919 27.9323 16.5851 27.9485 16.5591L28.0506 16.5574L28.05 16.4818C28.2479 16.4818 28.2819 16.408 28.2819 16.408H26.0473L26.0295 14.1284H26.7655C27.1813 14.1284 27.3734 13.885 27.408 13.836H27.4871V13.7656C27.6295 13.7656 27.6999 13.6866 27.6999 13.6866H26.0248L26.0081 11.6533H25.8869L25.8587 13.6855L25.7907 13.6866H24.2183C24.2183 13.6866 24.2892 13.7656 24.4317 13.7656V13.836H24.5055C24.5407 13.885 24.7316 14.1284 25.1469 14.1284H25.8523L25.8218 16.408H23.5647C23.5647 16.408 23.5982 16.4818 23.7961 16.4818V16.5574L23.8877 16.558C23.9039 16.5851 24.0931 16.8919 24.5828 16.8919H25.6037L25.602 17.8812H25.3782C25.3782 18.1079 25.5761 18.0906 25.5761 18.0906H25.6015L25.5922 22.6099H24.1375V22.4357H21.9733C21.9733 22.4357 22.0495 22.5863 22.4019 22.5863V22.7882H22.7179C22.7653 22.9058 23.1293 23.1989 23.8999 23.1989H25.0246L24.9877 25.3382H24.2805C24.2805 25.3382 24.2753 25.5897 24.5741 25.5897H24.9837L24.9652 26.6545H24.4478L21.9963 24.8445L21.926 24.9195C21.9052 24.9218 23.2157 25.9312 24.1588 26.6545H22.7635V26.4775H20.1505C20.1696 26.4469 20.1909 26.4134 20.1909 26.3609H19.891L19.8737 24.8307H20.9956C21.5661 24.8307 21.8164 24.5953 21.8164 24.5296L21.8153 24.5261H22.0125V24.4817C22.1198 24.4817 22.1809 24.3899 22.1809 24.3899H19.8685L19.8333 21.2942H19.9296C20.1258 21.2942 20.1067 21.1183 20.1067 21.1183H19.9723L19.9677 20.5933H21.0221C21.438 20.5933 21.5995 20.3338 21.6128 20.3107H21.6999V20.2577C21.8677 20.2577 21.896 20.1844 21.896 20.1844H19.9642L19.9504 18.4857H20.5803C20.8721 18.4857 21.0389 18.3386 21.1046 18.2648H21.1929V18.2059C21.3145 18.2059 21.374 18.1379 21.374 18.1379H19.9463L19.9325 16.4443H19.8506L19.8247 18.1373L19.7618 18.1379H18.4247C18.4247 18.1379 18.4853 18.2059 18.6064 18.2059V18.2648H18.6906C18.7564 18.3386 18.9225 18.4857 19.2155 18.4857H19.8189L19.7935 20.1844H17.8715C17.8715 20.1844 17.8998 20.2577 18.0671 20.2577V20.3107H18.1548C18.1686 20.3338 18.3301 20.5933 18.746 20.5933H19.6285L19.6291 21.1183H19.4209C19.4209 21.3109 19.5899 21.2942 19.5899 21.2942H19.6291L19.632 24.3899H17.2538C17.2538 24.3899 17.3126 24.4817 17.4217 24.4817V24.5261H17.6264C17.6535 24.6075 17.9045 24.8307 18.4431 24.8307H19.1994L19.1653 26.3609H18.5718C18.5718 26.3609 18.5661 26.6026 18.8527 26.6026H19.1602L19.1475 27.1691L13.8973 23.6707L13.8459 23.7301C13.8085 23.7433 18.0994 26.6759 19.0107 27.3011H15.7108C15.7863 27.4275 15.9807 27.4252 15.9807 27.4252V27.4788H16.1815C16.2363 27.5751 16.3597 27.7269 16.6608 27.8024C16.8933 27.8607 17.1402 27.8779 17.3732 27.8779H19.1319L19.0391 32.0829L15.4529 31.6515L15.0538 27.1748H14.9223L15.2655 31.6295L14.9835 31.5949L14.7435 27.1627H14.627L14.7994 31.5719L10.9163 31.1058L10.9031 31.2385L14.8069 31.7617L14.8369 32.5496L13.9302 32.4867L14.0173 32.7538C14.0173 32.7538 14.3063 32.7295 14.4522 33.0739C14.5457 33.2937 14.556 33.3196 14.556 33.3196L14.5999 33.4391H16.2928L16.3441 33.6086H14.2785L14.3541 33.8405C14.3541 33.8405 14.7279 33.8186 14.8277 34.0585C14.8946 34.2149 15.0584 34.655 15.0642 34.6688H36.9382C36.9382 34.6688 37.7457 34.6659 37.977 34.4121C37.977 34.4121 37.5323 35.1181 36.4265 35.1181L36.1289 35.1175H35.5896V34.8343H35.2003V35.1175H34.2196V34.8343H33.8303V35.1175H32.8497V34.8343H32.4603V35.1175H31.4792V34.8343H31.0899V35.1175H30.1093V34.8343H29.7193V35.1175H28.7393V34.8343H28.35V35.1175H27.3688V34.8343H26.9795V35.1175H25.9995V34.8343H25.6089V35.1175H24.6284V34.8343H24.239V35.1175H23.2579V34.8343H22.8691V35.1175H21.8879V34.8343H21.4986V35.1175H20.5174V34.8343H20.1286V35.1175H19.1475V34.8343H18.7575V35.1175H17.7775V34.8343H17.3876V35.1175H16.3245L16.5853 34.8176L15.1923 34.8187L15.4461 35.1141L15.3123 36.5077H36.2241V36.5054H37.7394C37.7394 36.5054 37.6829 36.0018 38.2712 35.4014C38.7453 34.918 38.8289 34.7882 38.9235 34.6435C39.0937 34.3804 39.2529 34.0683 39.321 33.157H39.0568C39.0568 33.157 38.7032 33.1645 38.5273 33.4096C38.2631 33.7765 37.9909 33.9391 37.7601 34.0101C37.5663 34.0718 37.3062 34.0995 37.0899 34.0505L41.4385 31.6827L41.6715 32.1557L41.8111 32.0691L41.5809 31.6048L42.0684 31.3389L42.0897 34.7155H42.1393L42.3077 31.3458H42.5846V30.7257L49.1095 27.2862L49.5889 27.0537" fill="#231F20"/>
<path d="M13.1715 26.7807L13.1064 26.8661L13.032 26.8101L13.0983 26.7241" fill="white"/>
</g>
</svg>
