<svg width="32" height="32" viewBox="0 0 32 32" fill="none" xmlns="http://www.w3.org/2000/svg">
<rect width="32" height="32" rx="8" fill="#419FD9"/>
<path fill-rule="evenodd" clip-rule="evenodd" d="M19.9608 21.9835C20.7995 22.3505 21.114 21.5816 21.114 21.5816L23.3333 10.4332C23.3158 9.6818 22.3023 10.1361 22.3023 10.1361L9.87822 15.0114C9.87822 15.0114 9.28411 15.2211 9.33653 15.588C9.38895 15.955 9.86075 16.1297 9.86075 16.1297L12.9886 17.1782C12.9886 17.1782 13.9322 20.2711 14.1244 20.8652C14.2992 21.4418 14.4564 21.4593 14.4564 21.4593C14.6312 21.5292 14.7884 21.4069 14.7884 21.4069L16.8154 19.5721L19.9608 21.9835ZM20.5026 12.4075C20.5026 12.4075 20.9394 12.1454 20.922 12.4075C20.922 12.4075 20.9919 12.4425 20.7647 12.6871C20.555 12.8968 15.6099 17.3352 14.9458 17.9293C14.8934 17.9643 14.8585 18.0167 14.8585 18.0866L14.6663 19.7291C14.6313 19.9039 14.4041 19.9214 14.3517 19.7641L13.5304 17.0731C13.4955 16.9682 13.5304 16.8459 13.6353 16.776L20.5026 12.4075Z" fill="white"/>
</svg>
