<svg width="196" height="260" viewBox="0 0 196 260" fill="none" xmlns="http://www.w3.org/2000/svg">
<path d="M10.6871 218.594C3.51429 214.453 -0.0479058 209.017 0.000486571 203.589C0.0482303 198.234 3.61043 192.888 10.6871 188.802L35.2815 174.602L71.7166 153.567C85.9661 145.34 109.069 145.34 123.318 153.567L167.173 178.886L184.348 188.802C191.425 192.888 194.987 198.234 195.035 203.589C195.083 209.017 191.521 214.453 184.348 218.594L123.318 253.83C109.069 262.057 85.9661 262.057 71.7166 253.83L10.6871 218.594Z" fill="#C4C4C4"/>
<path d="M10.6871 218.594C3.51429 214.453 -0.0479058 209.017 0.000486571 203.589C0.0482303 198.234 3.61043 192.888 10.6871 188.802L35.2815 174.602L71.7166 153.567C85.9661 145.34 109.069 145.34 123.318 153.567L167.173 178.886L184.348 188.802C191.425 192.888 194.987 198.234 195.035 203.589C195.083 209.017 191.521 214.453 184.348 218.594L123.318 253.83C109.069 262.057 85.9661 262.057 71.7166 253.83L10.6871 218.594Z" fill="white"/>
<path d="M10.6871 218.594C3.51429 214.453 -0.0479058 209.017 0.000486571 203.589C0.0482303 198.234 3.61043 192.888 10.6871 188.802L35.2815 174.602L71.7166 153.567C85.9661 145.34 109.069 145.34 123.318 153.567L167.173 178.886L184.348 188.802C191.425 192.888 194.987 198.234 195.035 203.589C195.083 209.017 191.521 214.453 184.348 218.594L123.318 253.83C109.069 262.057 85.9661 262.057 71.7166 253.83L10.6871 218.594Z" fill="url(#paint0_linear_984_4823)" fill-opacity="0.3"/>
<path d="M0.000486571 203.589C0.0482303 198.234 3.61043 192.888 10.6871 188.802L35.2815 174.602L0.000486571 186.697V203.589Z" fill="#C4C4C4"/>
<path d="M0.000486571 203.589C0.0482303 198.234 3.61043 192.888 10.6871 188.802L35.2815 174.602L0.000486571 186.697V203.589Z" fill="white"/>
<path d="M0.000486571 203.589C0.0482303 198.234 3.61043 192.888 10.6871 188.802L35.2815 174.602L0.000486571 186.697V203.589Z" fill="url(#paint1_linear_984_4823)" fill-opacity="0.3"/>
<path d="M184.348 188.802C191.425 192.888 194.987 198.234 195.035 203.589V186.697L167.173 178.886L184.348 188.802Z" fill="#C4C4C4"/>
<path d="M184.348 188.802C191.425 192.888 194.987 198.234 195.035 203.589V186.697L167.173 178.886L184.348 188.802Z" fill="white"/>
<path d="M184.348 188.802C191.425 192.888 194.987 198.234 195.035 203.589V186.697L167.173 178.886L184.348 188.802Z" fill="url(#paint2_linear_984_4823)" fill-opacity="0.3"/>
<path d="M10.6871 201.743C-3.56236 193.516 -3.56236 180.178 10.6871 171.951L71.7166 136.716C85.9661 128.489 109.069 128.489 123.318 136.716L184.348 171.951C198.597 180.178 198.597 193.516 184.348 201.743L123.318 236.979C109.069 245.206 85.9661 245.206 71.7166 236.979L10.6871 201.743Z" fill="#C4C4C4"/>
<path d="M10.6871 201.743C-3.56236 193.516 -3.56236 180.178 10.6871 171.951L71.7166 136.716C85.9661 128.489 109.069 128.489 123.318 136.716L184.348 171.951C198.597 180.178 198.597 193.516 184.348 201.743L123.318 236.979C109.069 245.206 85.9661 245.206 71.7166 236.979L10.6871 201.743Z" fill="white"/>
<path d="M10.6871 201.743C-3.56236 193.516 -3.56236 180.178 10.6871 171.951L71.7166 136.716C85.9661 128.489 109.069 128.489 123.318 136.716L184.348 171.951C198.597 180.178 198.597 193.516 184.348 201.743L123.318 236.979C109.069 245.206 85.9661 245.206 71.7166 236.979L10.6871 201.743Z" fill="url(#paint3_linear_984_4823)" fill-opacity="0.15"/>
<g filter="url(#filter0_f_984_4823)">
<rect width="83.4874" height="24.5266" rx="12.2633" transform="matrix(-0.866025 -0.5 -0.866025 0.5 144.288 200.675)" fill="black" fill-opacity="0.12"/>
</g>
<path d="M66.1343 12.4496C66.1343 7.45124 67.7115 3.78885 70.3226 1.77612C73.5209 -0.689228 78.2704 -0.679541 83.5725 2.38166L123.682 25.5388C133.313 31.0991 141.12 44.6219 141.12 55.7426V164.664C141.12 169.946 139.358 173.737 136.476 175.664C136.176 175.865 135.864 176.046 135.54 176.206C132.428 177.743 128.261 177.375 123.682 174.731L83.5725 151.574C73.9416 146.014 66.1343 132.491 66.1343 121.37L66.1343 12.4496Z" fill="#C4C4C4"/>
<path d="M66.1343 12.4496C66.1343 7.45124 67.7115 3.78885 70.3226 1.77612C73.5209 -0.689228 78.2704 -0.679541 83.5725 2.38166L123.682 25.5388C133.313 31.0991 141.12 44.6219 141.12 55.7426V164.664C141.12 169.946 139.358 173.737 136.476 175.664C136.176 175.865 135.864 176.046 135.54 176.206C132.428 177.743 128.261 177.375 123.682 174.731L83.5725 151.574C73.9416 146.014 66.1343 132.491 66.1343 121.37L66.1343 12.4496Z" fill="white"/>
<path d="M66.1343 12.4496C66.1343 7.45124 67.7115 3.78885 70.3226 1.77612C73.5209 -0.689228 78.2704 -0.679541 83.5725 2.38166L123.682 25.5388C133.313 31.0991 141.12 44.6219 141.12 55.7426V164.664C141.12 169.946 139.358 173.737 136.476 175.664C136.176 175.865 135.864 176.046 135.54 176.206C132.428 177.743 128.261 177.375 123.682 174.731L83.5725 151.574C73.9416 146.014 66.1343 132.491 66.1343 121.37L66.1343 12.4496Z" fill="url(#paint4_linear_984_4823)" fill-opacity="0.6"/>
<path d="M66.1343 12.4496C66.1343 7.45124 67.7115 3.78885 70.3226 1.77612L55.1321 10.3782L66.1343 12.4496Z" fill="#C4C4C4"/>
<path d="M66.1343 12.4496C66.1343 7.45124 67.7115 3.78885 70.3226 1.77612L55.1321 10.3782L66.1343 12.4496Z" fill="white"/>
<path d="M66.1343 12.4496C66.1343 7.45124 67.7115 3.78885 70.3226 1.77612L55.1321 10.3782L66.1343 12.4496Z" fill="url(#paint5_linear_984_4823)" fill-opacity="0.6"/>
<path d="M135.54 176.206C132.428 177.743 128.261 177.375 123.682 174.731L121.081 184.45C125.209 182.1 132.865 177.74 135.54 176.206Z" fill="#C4C4C4"/>
<path d="M135.54 176.206C132.428 177.743 128.261 177.375 123.682 174.731L121.081 184.45C125.209 182.1 132.865 177.74 135.54 176.206Z" fill="white"/>
<path d="M135.54 176.206C132.428 177.743 128.261 177.375 123.682 174.731L121.081 184.45C125.209 182.1 132.865 177.74 135.54 176.206Z" fill="url(#paint6_linear_984_4823)" fill-opacity="0.6"/>
<path d="M51.2329 20.9259C51.2329 9.80511 59.0403 5.29753 68.6711 10.8579L108.78 34.015C118.411 39.5754 126.219 53.0981 126.219 64.2189V173.121C126.219 184.242 118.411 188.749 108.78 183.189L68.6711 160.032C59.0403 154.471 51.2329 140.949 51.2329 129.828L51.2329 20.9259Z" fill="#C4C4C4"/>
<path d="M51.2329 20.9259C51.2329 9.80511 59.0403 5.29753 68.6711 10.8579L108.78 34.015C118.411 39.5754 126.219 53.0981 126.219 64.2189V173.121C126.219 184.242 118.411 188.749 108.78 183.189L68.6711 160.032C59.0403 154.471 51.2329 140.949 51.2329 129.828L51.2329 20.9259Z" fill="white"/>
<path d="M51.2329 20.9259C51.2329 9.80511 59.0403 5.29753 68.6711 10.8579L108.78 34.015C118.411 39.5754 126.219 53.0981 126.219 64.2189V173.121C126.219 184.242 118.411 188.749 108.78 183.189L68.6711 160.032C59.0403 154.471 51.2329 140.949 51.2329 129.828L51.2329 20.9259Z" fill="url(#paint7_linear_984_4823)" fill-opacity="0.2"/>
<path d="M56.3611 24.2045C56.3611 16.0643 62.3974 14.6047 67.9063 17.9953L106.823 40.6604C113.873 44.7305 119.587 54.6288 119.587 62.7689V169.427C119.587 177.567 113.873 178.524 106.823 174.454L68.9096 152.108C61.8601 148.038 56.1453 137.21 56.1453 128.136L56.3611 24.2045Z" fill="white" fill-opacity="0.65"/>
<path d="M56.3611 24.2045C56.3611 16.0643 62.3974 14.6047 67.9063 17.9953L106.823 40.6604C113.873 44.7305 119.587 54.6288 119.587 62.7689V169.427C119.587 177.567 113.873 178.524 106.823 174.454L68.9096 152.108C61.8601 148.038 56.1453 137.21 56.1453 128.136L56.3611 24.2045Z" fill="#FF835E"/>
<path d="M56.3611 24.2045C56.3611 16.0643 62.3974 14.6047 67.9063 17.9953L106.823 40.6604C113.873 44.7305 119.587 54.6288 119.587 62.7689V169.427C119.587 177.567 113.873 178.524 106.823 174.454L68.9096 152.108C61.8601 148.038 56.1453 137.21 56.1453 128.136L56.3611 24.2045Z" fill="url(#paint8_linear_984_4823)" fill-opacity="0.75"/>
<path fill-rule="evenodd" clip-rule="evenodd" d="M94.3446 78.5747L104.682 79.5096L104.682 113.469C104.682 116.104 103.153 117.63 100.734 117.411L90.3957 116.476L90.3957 82.5165C90.3957 79.8818 91.9242 78.3558 94.3446 78.5747ZM83.2527 96.7008L72.9154 95.7659C70.4955 95.5473 68.9666 97.073 68.9666 99.7077L68.9666 114.538L79.3044 115.473C81.7243 115.692 83.2527 114.166 83.2527 111.531L83.2527 96.7008Z" fill="white"/>
<defs>
<filter id="filter0_f_984_4823" x="36.9666" y="142.523" width="121.1" height="86.8233" filterUnits="userSpaceOnUse" color-interpolation-filters="sRGB">
<feFlood flood-opacity="0" result="BackgroundImageFix"/>
<feBlend mode="normal" in="SourceGraphic" in2="BackgroundImageFix" result="shape"/>
<feGaussianBlur stdDeviation="10" result="effect1_foregroundBlur_984_4823"/>
</filter>
<linearGradient id="paint0_linear_984_4823" x1="53.1019" y1="244.755" x2="91.5482" y2="286.433" gradientUnits="userSpaceOnUse">
<stop stop-color="#CCD1D3" stop-opacity="0.36"/>
<stop offset="1" stop-color="#C3C6CA"/>
</linearGradient>
<linearGradient id="paint1_linear_984_4823" x1="53.1019" y1="244.755" x2="91.5482" y2="286.433" gradientUnits="userSpaceOnUse">
<stop stop-color="#CCD1D3" stop-opacity="0.36"/>
<stop offset="1" stop-color="#C3C6CA"/>
</linearGradient>
<linearGradient id="paint2_linear_984_4823" x1="53.1019" y1="244.755" x2="91.5482" y2="286.433" gradientUnits="userSpaceOnUse">
<stop stop-color="#CCD1D3" stop-opacity="0.36"/>
<stop offset="1" stop-color="#C3C6CA"/>
</linearGradient>
<linearGradient id="paint3_linear_984_4823" x1="0.848775" y1="171.515" x2="156.288" y2="82.6377" gradientUnits="userSpaceOnUse">
<stop stop-color="#BDC6CB" stop-opacity="0.36"/>
<stop offset="1" stop-color="#B7BEC8"/>
</linearGradient>
<linearGradient id="paint4_linear_984_4823" x1="98.1257" y1="1.69125" x2="128.966" y2="191.718" gradientUnits="userSpaceOnUse">
<stop stop-color="#CCD1D3" stop-opacity="0.36"/>
<stop offset="1" stop-color="#C3C6CA"/>
</linearGradient>
<linearGradient id="paint5_linear_984_4823" x1="98.1257" y1="1.69125" x2="128.966" y2="191.718" gradientUnits="userSpaceOnUse">
<stop stop-color="#CCD1D3" stop-opacity="0.36"/>
<stop offset="1" stop-color="#C3C6CA"/>
</linearGradient>
<linearGradient id="paint6_linear_984_4823" x1="98.1257" y1="1.69125" x2="128.966" y2="191.718" gradientUnits="userSpaceOnUse">
<stop stop-color="#CCD1D3" stop-opacity="0.36"/>
<stop offset="1" stop-color="#C3C6CA"/>
</linearGradient>
<linearGradient id="paint7_linear_984_4823" x1="110.322" y1="8.47623" x2="150.033" y2="51.4283" gradientUnits="userSpaceOnUse">
<stop stop-color="#BDC6CB" stop-opacity="0.36"/>
<stop offset="1" stop-color="#B7BEC8"/>
</linearGradient>
<linearGradient id="paint8_linear_984_4823" x1="82.6766" y1="181.855" x2="117.931" y2="96.3537" gradientUnits="userSpaceOnUse">
<stop stop-color="#EE5222"/>
<stop offset="1" stop-color="#FF9D66"/>
</linearGradient>
</defs>
</svg>
