<svg width="130" height="235" viewBox="0 0 130 235" fill="none" xmlns="http://www.w3.org/2000/svg">
<g clip-path="url(#clip0_984_4944)">
<rect width="118.938" height="54.1891" transform="matrix(-3.19125e-05 -1 0.86601 0.500028 61.3445 132.946)" fill="url(#paint0_linear_984_4944)"/>
<rect width="118.938" height="54.1891" transform="matrix(-3.19125e-05 -1 0.86601 0.500028 61.3445 132.946)" fill="url(#paint1_linear_984_4944)" fill-opacity="0.75"/>
<rect width="118.938" height="54.1891" transform="matrix(-3.19125e-05 -1 0.86601 0.500028 61.3445 132.946)" fill="#D3B5B5"/>
<rect width="118.938" height="54.1891" transform="matrix(-3.19125e-05 -1 0.86601 0.500028 61.3445 132.946)" fill="url(#paint2_linear_984_4944)" fill-opacity="0.75"/>
<path d="M77.0447 36.0901L90.63 43.9336M77.0447 43.5066L83.9525 47.4948M83.9525 47.4948L90.63 51.3501M83.9525 47.4948L83.9525 62.5787" stroke="white" stroke-opacity="0.2" stroke-width="6" stroke-linecap="square"/>
<rect width="28.1456" height="54.1934" transform="matrix(-3.19085e-05 -1 0.866009 0.500028 61.2058 84.7554)" fill="#FEF6E2"/>
<rect width="28.1456" height="54.1934" transform="matrix(-3.19085e-05 -1 0.866009 0.500028 61.2058 84.7554)" fill="white"/>
<rect width="28.1456" height="54.1934" transform="matrix(-3.19085e-05 -1 0.866009 0.500028 61.2058 84.7554)" fill="url(#paint3_linear_984_4944)" fill-opacity="0.5"/>
<rect width="118.947" height="24.7931" transform="matrix(3.18053e-05 -1 0.866009 -0.500028 108.241 160.053)" fill="#FF8C5B"/>
<rect width="118.947" height="24.7931" transform="matrix(3.18053e-05 -1 0.866009 -0.500028 108.241 160.053)" fill="white"/>
<rect width="118.947" height="24.7931" transform="matrix(3.18053e-05 -1 0.866009 -0.500028 108.241 160.053)" fill="url(#paint4_linear_984_4944)" fill-opacity="0.75"/>
<line y1="-1" x2="118.951" y2="-1" transform="matrix(3.17755e-05 -1 0.866009 -0.500028 114.102 156.621)" stroke="#FFCDB1" stroke-opacity="0.25" stroke-width="2"/>
<line y1="-1" x2="118.951" y2="-1" transform="matrix(3.17755e-05 -1 0.866009 -0.500028 119.714 153.382)" stroke="#FFCDB1" stroke-opacity="0.25" stroke-width="2"/>
<line y1="-1" x2="118.951" y2="-1" transform="matrix(3.17755e-05 -1 0.866009 -0.500028 125.332 150.144)" stroke="#FFCDB1" stroke-opacity="0.25" stroke-width="2"/>
<rect width="28.1969" height="25.0123" transform="matrix(3.18053e-05 -1 0.866009 -0.500028 108.097 111.878)" fill="#E8DDC0"/>
<rect width="28.1969" height="25.0123" transform="matrix(3.18053e-05 -1 0.866009 -0.500028 108.097 111.878)" fill="white"/>
<rect width="28.1969" height="25.0123" transform="matrix(3.18053e-05 -1 0.866009 -0.500028 108.097 111.878)" fill="url(#paint5_linear_984_4944)" fill-opacity="0.5"/>
<rect width="54.2681" height="24.7939" transform="matrix(-0.866041 -0.499972 0.866041 -0.499972 108.263 41.1011)" fill="#FFC29F"/>
<rect width="54.2681" height="24.7939" transform="matrix(-0.866041 -0.499972 0.866041 -0.499972 108.263 41.1011)" fill="white"/>
<rect width="54.2681" height="24.7939" transform="matrix(-0.866041 -0.499972 0.866041 -0.499972 108.263 41.1011)" fill="url(#paint6_linear_984_4944)" fill-opacity="0.75"/>
<line y1="-1" x2="54.2767" y2="-1" transform="matrix(-0.866041 -0.499972 0.866041 -0.499972 114.132 37.7153)" stroke="#FFE4D5" stroke-opacity="0.5" stroke-width="2"/>
<line y1="-1" x2="54.2767" y2="-1" transform="matrix(-0.866041 -0.499972 0.866041 -0.499972 119.746 34.4736)" stroke="#FFE4D5" stroke-opacity="0.5" stroke-width="2"/>
<line y1="-1" x2="54.2767" y2="-1" transform="matrix(-0.866041 -0.499972 0.866041 -0.499972 125.353 31.2387)" stroke="#FFE4D5" stroke-opacity="0.5" stroke-width="2"/>
<rect width="118.938" height="54.1891" transform="matrix(-3.19125e-05 -1 0.86601 0.500028 32.1553 176.297)" fill="white"/>
<rect width="118.938" height="54.1891" transform="matrix(-3.19125e-05 -1 0.86601 0.500028 32.1553 176.297)" fill="url(#paint7_linear_984_4944)" fill-opacity="0.5"/>
<path d="M47.8555 79.4417L61.4408 87.2852M47.8555 86.8582L54.7632 90.8464M54.7632 90.8464L61.4408 94.7016M54.7632 90.8464L54.7632 105.93" stroke="white" stroke-opacity="0.5" stroke-width="6" stroke-linecap="square"/>
<rect opacity="0.5" width="28.1456" height="54.1934" transform="matrix(-3.19085e-05 -1 0.866009 0.500028 32.0166 128.107)" fill="white"/>
<rect width="118.947" height="24.7931" transform="matrix(3.18053e-05 -1 0.866009 -0.500028 79.0518 203.405)" fill="white"/>
<rect width="118.947" height="24.7931" transform="matrix(3.18053e-05 -1 0.866009 -0.500028 79.0518 203.405)" fill="url(#paint8_linear_984_4944)" fill-opacity="0.5"/>
<line y1="-1" x2="118.951" y2="-1" transform="matrix(3.17755e-05 -1 0.866009 -0.500028 84.9121 199.972)" stroke="white" stroke-opacity="0.25" stroke-width="2"/>
<line y1="-1" x2="118.951" y2="-1" transform="matrix(3.17755e-05 -1 0.866009 -0.500028 90.5254 196.733)" stroke="white" stroke-opacity="0.25" stroke-width="2"/>
<line y1="-1" x2="118.951" y2="-1" transform="matrix(3.17755e-05 -1 0.866009 -0.500028 96.1426 193.495)" stroke="white" stroke-opacity="0.25" stroke-width="2"/>
<rect width="28.1969" height="25.0123" transform="matrix(3.18053e-05 -1 0.866009 -0.500028 78.9072 155.23)" fill="white" fill-opacity="0.5"/>
<rect width="54.2681" height="24.7939" transform="matrix(-0.866041 -0.499972 0.866041 -0.499972 79.0732 84.4526)" fill="white"/>
<rect width="54.2681" height="24.7939" transform="matrix(-0.866041 -0.499972 0.866041 -0.499972 79.0732 84.4526)" fill="white"/>
<rect width="54.2681" height="24.7939" transform="matrix(-0.866041 -0.499972 0.866041 -0.499972 79.0732 84.4526)" fill="url(#paint9_linear_984_4944)" fill-opacity="0.3"/>
<line y1="-1" x2="54.2767" y2="-1" transform="matrix(-0.866041 -0.499972 0.866041 -0.499972 84.9424 81.0669)" stroke="white" stroke-opacity="0.5" stroke-width="2"/>
<line y1="-1" x2="54.2767" y2="-1" transform="matrix(-0.866041 -0.499972 0.866041 -0.499972 90.5566 77.8254)" stroke="white" stroke-opacity="0.5" stroke-width="2"/>
<line y1="-1" x2="54.2767" y2="-1" transform="matrix(-0.866041 -0.499972 0.866041 -0.499972 96.1631 74.5903)" stroke="white" stroke-opacity="0.5" stroke-width="2"/>
<rect width="118.938" height="54.1891" transform="matrix(-3.19125e-05 -1 0.86601 0.500028 0.541748 207.357)" fill="white"/>
<rect width="118.938" height="54.1891" transform="matrix(-3.19125e-05 -1 0.86601 0.500028 0.541748 207.357)" fill="url(#paint10_linear_984_4944)" fill-opacity="0.5"/>
<path d="M16.2422 110.501L29.8275 118.344M16.2422 117.917L23.15 121.906M23.15 121.906L29.8275 125.761M23.15 121.906L23.15 136.989" stroke="white" stroke-opacity="0.5" stroke-width="6" stroke-linecap="square"/>
<rect opacity="0.5" width="28.1456" height="54.1934" transform="matrix(-3.19085e-05 -1 0.866009 0.500028 0.40332 159.167)" fill="white"/>
<rect width="118.947" height="24.7931" transform="matrix(3.18053e-05 -1 0.866009 -0.500028 47.4385 234.464)" fill="white"/>
<rect width="118.947" height="24.7931" transform="matrix(3.18053e-05 -1 0.866009 -0.500028 47.4385 234.464)" fill="url(#paint11_linear_984_4944)" fill-opacity="0.5"/>
<line y1="-1" x2="118.951" y2="-1" transform="matrix(3.17755e-05 -1 0.866009 -0.500028 53.2979 231.032)" stroke="white" stroke-opacity="0.25" stroke-width="2"/>
<line y1="-1" x2="118.951" y2="-1" transform="matrix(3.17755e-05 -1 0.866009 -0.500028 58.9111 227.792)" stroke="white" stroke-opacity="0.25" stroke-width="2"/>
<line y1="-1" x2="118.951" y2="-1" transform="matrix(3.17755e-05 -1 0.866009 -0.500028 64.5291 224.555)" stroke="white" stroke-opacity="0.25" stroke-width="2"/>
<rect width="28.1969" height="25.0123" transform="matrix(3.18053e-05 -1 0.866009 -0.500028 47.2939 186.29)" fill="white" fill-opacity="0.5"/>
<rect width="54.2681" height="24.7939" transform="matrix(-0.866041 -0.499972 0.866041 -0.499972 47.46 115.512)" fill="white"/>
<rect width="54.2681" height="24.7939" transform="matrix(-0.866041 -0.499972 0.866041 -0.499972 47.46 115.512)" fill="white"/>
<rect width="54.2681" height="24.7939" transform="matrix(-0.866041 -0.499972 0.866041 -0.499972 47.46 115.512)" fill="url(#paint12_linear_984_4944)" fill-opacity="0.3"/>
<line y1="-1" x2="54.2767" y2="-1" transform="matrix(-0.866041 -0.499972 0.866041 -0.499972 53.3293 112.126)" stroke="white" stroke-opacity="0.5" stroke-width="2"/>
<line y1="-1" x2="54.2767" y2="-1" transform="matrix(-0.866041 -0.499972 0.866041 -0.499972 58.9434 108.885)" stroke="white" stroke-opacity="0.5" stroke-width="2"/>
<line y1="-1" x2="54.2767" y2="-1" transform="matrix(-0.866041 -0.499972 0.866041 -0.499972 64.5498 105.649)" stroke="white" stroke-opacity="0.5" stroke-width="2"/>
</g>
<defs>
<linearGradient id="paint0_linear_984_4944" x1="117.66" y1="31.0159" x2="71.3654" y2="86.3789" gradientUnits="userSpaceOnUse">
<stop stop-color="#FFC19E"/>
<stop offset="1" stop-color="#FF9548"/>
</linearGradient>
<linearGradient id="paint1_linear_984_4944" x1="99.1854" y1="17.2097" x2="-8.68544" y2="35.0429" gradientUnits="userSpaceOnUse">
<stop stop-color="#FFA877"/>
<stop offset="1" stop-color="#FF0707"/>
</linearGradient>
<linearGradient id="paint2_linear_984_4944" x1="160.36" y1="61.6866" x2="6.70952" y2="103.218" gradientUnits="userSpaceOnUse">
<stop stop-color="#FFA877"/>
<stop offset="1" stop-color="#FF0707"/>
</linearGradient>
<linearGradient id="paint3_linear_984_4944" x1="44.4759" y1="-54.9335" x2="-23.046" y2="19.4463" gradientUnits="userSpaceOnUse">
<stop stop-color="#CCD1D3" stop-opacity="0.36"/>
<stop offset="1" stop-color="#C3C6CA"/>
</linearGradient>
<linearGradient id="paint4_linear_984_4944" x1="116.836" y1="10.7039" x2="5.46998" y2="-5.88991" gradientUnits="userSpaceOnUse">
<stop stop-color="#FFA877"/>
<stop offset="1" stop-color="#FF0707"/>
</linearGradient>
<linearGradient id="paint5_linear_984_4944" x1="2.04314" y1="-4.83666" x2="50.2654" y2="20.7578" gradientUnits="userSpaceOnUse">
<stop stop-color="#BDC6CB" stop-opacity="0.36"/>
<stop offset="1" stop-color="#B7BEC8"/>
</linearGradient>
<linearGradient id="paint6_linear_984_4944" x1="63.4286" y1="15.6334" x2="-299.753" y2="87.9898" gradientUnits="userSpaceOnUse">
<stop stop-color="#FFA877"/>
<stop offset="1" stop-color="#FF0707"/>
</linearGradient>
<linearGradient id="paint7_linear_984_4944" x1="187.946" y1="-54.9291" x2="160.09" y2="74.7525" gradientUnits="userSpaceOnUse">
<stop stop-color="#CCD1D3" stop-opacity="0.36"/>
<stop offset="1" stop-color="#C3C6CA"/>
</linearGradient>
<linearGradient id="paint8_linear_984_4944" x1="8.61891" y1="-4.79427" x2="51.3466" y2="91.7184" gradientUnits="userSpaceOnUse">
<stop stop-color="#BDC6CB" stop-opacity="0.36"/>
<stop offset="1" stop-color="#B7BEC8"/>
</linearGradient>
<linearGradient id="paint9_linear_984_4944" x1="41.6779" y1="17.2348" x2="-129.039" y2="-85.9306" gradientUnits="userSpaceOnUse">
<stop stop-color="#C9CFD2" stop-opacity="0.36"/>
<stop offset="1" stop-color="#B5BDC8"/>
</linearGradient>
<linearGradient id="paint10_linear_984_4944" x1="187.946" y1="-54.9291" x2="160.09" y2="74.7525" gradientUnits="userSpaceOnUse">
<stop stop-color="#CCD1D3" stop-opacity="0.36"/>
<stop offset="1" stop-color="#C3C6CA"/>
</linearGradient>
<linearGradient id="paint11_linear_984_4944" x1="8.61891" y1="-4.79427" x2="51.3466" y2="91.7184" gradientUnits="userSpaceOnUse">
<stop stop-color="#BDC6CB" stop-opacity="0.36"/>
<stop offset="1" stop-color="#B7BEC8"/>
</linearGradient>
<linearGradient id="paint12_linear_984_4944" x1="41.6779" y1="17.2348" x2="-129.039" y2="-85.9306" gradientUnits="userSpaceOnUse">
<stop stop-color="#C9CFD2" stop-opacity="0.36"/>
<stop offset="1" stop-color="#B5BDC8"/>
</linearGradient>
<clipPath id="clip0_984_4944">
<rect width="130" height="235" fill="white"/>
</clipPath>
</defs>
</svg>
