<svg width="49" height="40" viewBox="0 0 49 40" fill="none" xmlns="http://www.w3.org/2000/svg">
<g clip-path="url(#clip0_288_38)">
<path d="M33.768 1.54874C30.9685 2.87404 28.3507 4.5655 25.9809 6.58031C22.4265 9.59353 19.2833 13.011 16.7054 16.9408C16.4485 17.3326 15.6645 17.7769 16.6579 18.365C17.0015 18.5699 16.5095 18.9497 16.2169 19.0995C15.1513 19.6465 14.5502 20.4001 14.8681 21.7097C14.9713 22.1313 14.7836 22.5678 14.4195 22.8711C14.0864 23.1476 13.7527 23.4683 13.2812 23.2443C12.8097 23.0204 12.7482 22.5749 12.8707 22.1289C13.1405 21.1513 12.6878 21.0797 12.0585 21.5162C11.0874 22.1904 9.97143 22.5116 8.91352 22.9494C7.74478 23.4354 6.47516 23.5985 5.46944 22.5093C4.95632 21.9533 4.75283 22.351 4.51767 22.7236C3.59405 24.1849 2.68861 25.658 1.76147 27.1163C1.53218 27.4746 1.28529 27.8484 0.970382 28.126C0.563403 28.4843 0.110096 28.4497 0.0579036 27.8161C-0.0124675 26.9652 -0.14324 26.0671 0.527044 25.3433C1.72511 24.0493 2.46636 22.391 3.73245 21.1525C4.42033 20.479 4.75283 19.6232 4.79857 18.7042C4.95515 15.5656 6.71442 13.5532 9.29939 12.267C10.603 11.6185 11.4445 10.6893 12.218 9.5147C14.2119 6.48835 16.2849 3.51634 18.3368 0.530001C18.5057 0.284573 18.6464 -0.254055 19.0739 0.131106C19.3836 0.409974 19.1326 0.778416 18.9074 1.05012C16.6719 3.73729 15.0188 6.84246 12.9733 9.67175C12.0667 10.9258 12.1899 11.1479 13.5428 11.4668C15.2434 11.8675 15.994 13.6989 14.9209 15.0998C13.8477 16.5007 12.1963 17.1498 10.6476 17.8467C10.0529 18.1178 9.74625 17.6335 10.0348 17.043C10.4312 16.2326 10.9144 15.4677 11.366 14.6836C9.58381 15.439 6.4693 18.838 5.9075 20.7238C5.64596 21.604 6.11275 22.1569 6.92964 22.3498C7.51607 22.4907 8.10249 22.3337 8.68892 22.1557C10.5016 21.6034 12.1377 20.6665 13.8002 19.7857C14.1878 19.5802 14.4734 19.2614 14.6963 18.8792C18.7309 11.9439 24.1324 6.38505 30.901 2.20262C31.7736 1.66518 32.7189 1.24061 33.6378 0.78558C33.9023 0.654805 34.2113 0.560455 34.4782 0.810064C34.7749 1.08654 34.7556 1.42573 34.6172 1.76849C34.2413 2.70243 33.6472 3.50022 33.0731 4.31055C30.0823 8.54016 27.0534 12.7423 24.1377 17.025C22.9842 18.7203 22.0905 20.599 20.886 22.7356C21.7557 22.2328 22.2899 21.9169 22.8312 21.6141C23.1244 21.4511 23.4334 21.186 23.7694 21.4296C24.0574 21.6368 23.9659 21.973 23.882 22.2704C23.5994 23.2772 24.1559 23.144 24.7781 22.972C29.4714 21.6703 34.0697 20.0361 38.5392 18.0814C41.6472 16.7259 44.8913 15.8176 48.1706 15.0222C48.4169 14.9625 48.6667 14.8831 48.9993 15.1297C48.6204 15.6558 48.0498 15.7931 47.5297 15.9227C42.117 17.2675 37.113 19.754 31.9172 21.7037C29.5498 22.5923 27.1297 23.2879 24.6942 23.9388C24.2357 24.0618 23.6563 24.1878 23.3279 23.8743C22.5215 23.1046 21.8706 23.6056 21.3076 24.078C20.0368 25.1451 18.7403 26.1519 17.9064 27.7206C16.2239 30.8884 14.4388 34.0056 12.2767 36.879C11.6234 37.7479 10.9203 38.56 10.101 39.2593C8.99152 40.2052 7.46212 40.2458 6.58248 39.396C5.81016 38.6544 5.71867 36.9764 6.42473 35.8937C8.26083 33.0782 10.5491 30.7111 13.2273 28.71C14.8769 27.4769 16.4984 26.1984 18.0618 24.8549C19.3214 23.7722 19.9782 22.2065 20.8027 20.7984C24.3031 14.8186 28.3618 9.24539 32.557 3.77013C33.0103 3.17836 33.3692 2.56926 33.768 1.54874ZM16.7347 27.413C16.5851 27.4626 16.4133 27.4805 16.2884 27.5671C13.1862 29.7252 10.4242 32.2738 7.9682 35.164C7.40406 35.8287 7.23048 36.7393 7.15424 37.5688C7.03696 38.861 7.99166 39.4199 9.0742 38.7505C9.57618 38.4412 10.0189 38.0065 10.4277 37.5694C13.1663 34.6439 14.7215 30.9291 16.7347 27.413ZM11.2844 16.3688L11.5829 16.6381C12.3054 16.2046 13.0771 15.8361 13.738 15.3196C14.3989 14.8031 14.7872 14.0351 14.5151 13.1442C14.3139 12.4873 13.86 12.1075 13.361 12.8641C12.6145 13.9957 11.9711 15.1972 11.2844 16.3688ZM9.92687 12.9388C7.23869 14.102 5.31756 16.9576 6.14324 18.426C7.37239 16.6423 8.58219 14.8872 9.92628 12.9388H9.92687Z" fill="black"/>
</g>
<defs>
<clipPath id="clip0_288_38">
<rect width="49" height="40" fill="white"/>
</clipPath>
</defs>
</svg>
