<svg width="26" height="32" viewBox="0 0 26 32" fill="none" xmlns="http://www.w3.org/2000/svg">
<path d="M19.3412 0.00012207C19.4833 1.87809 18.8965 3.73816 17.7056 5.18531C17.1353 5.90327 16.4115 6.4809 15.5887 6.87467C14.7659 7.26845 13.8655 7.46812 12.9554 7.45863C12.8974 6.55554 13.0157 5.64971 13.3037 4.79294C13.5917 3.93617 14.0437 3.14526 14.6339 2.46541C15.8409 1.07378 17.5217 0.19356 19.3412 0.00012207Z" fill="white"/>
<path d="M22.6617 13.3211C22.057 14.3995 21.7316 15.6151 21.7159 16.855C21.7173 18.2497 22.1244 19.613 22.8862 20.7751C23.6481 21.9372 24.731 22.8465 26 23.3898C25.5011 25.0304 24.749 26.5808 23.7716 27.9836C22.4591 29.971 21.0829 31.9126 18.8986 31.9485C17.8598 31.9728 17.1586 31.6704 16.4279 31.3554C15.6657 31.0267 14.8714 30.6842 13.6286 30.6842C12.3105 30.6842 11.4808 31.0377 10.6805 31.3786C9.98886 31.6733 9.31929 31.9585 8.37566 31.9981C6.29547 32.0761 4.7057 29.8769 3.34542 27.9082C0.626619 23.8876 -1.49046 16.5776 1.34779 11.6036C2.00301 10.4118 2.95204 9.41218 4.10242 8.70205C5.25281 7.99191 6.56531 7.59551 7.91204 7.55147C9.09184 7.5269 10.2239 7.98717 11.2165 8.39071C11.9755 8.69932 12.653 8.97475 13.2077 8.97475C13.6954 8.97475 14.3539 8.7102 15.1214 8.40188C16.3303 7.91621 17.8096 7.32195 19.317 7.48211C20.4723 7.5187 21.6032 7.82744 22.6199 8.38382C23.6367 8.94021 24.5113 9.7289 25.1742 10.6873C24.1307 11.3367 23.2663 12.2427 22.6617 13.3211Z" fill="white"/>
</svg>
