<svg width="295" height="317" viewBox="0 0 295 317" fill="none" xmlns="http://www.w3.org/2000/svg">
<g opacity="0.1" filter="url(#filter0_f_7477_97990)">
<path d="M154.5 257C110.041 257 74.0002 238.867 74.0002 216.5C74.0002 194.132 110.041 176 154.5 176C198.959 176 235 194.132 235 216.5C235 238.867 198.959 257 154.5 257Z" fill="#898D94"/>
</g>
<path d="M150.883 225.84C195.515 209.596 218.497 160.159 202.213 115.422C185.93 70.684 136.549 47.5859 91.9166 63.8307C47.2845 80.0754 24.3032 129.511 40.5864 174.249C56.8696 218.987 106.251 242.085 150.883 225.84Z" fill="url(#paint0_radial_7477_97990)"/>
<path d="M101.248 48.3984C97.4789 52.5404 95.1041 54.1444 90.0352 56.1498C89.4027 56.401 89.0769 56.5196 88.4309 56.7338C87.188 57.1443 86.5492 57.3209 85.2654 57.5998C78.6631 59.026 75.0075 58.8702 68.2903 56.3469C71.8762 66.1992 75.4599 76.0453 79.0459 85.8976C79.8532 88.1158 83.3892 90.3525 84.5943 89.1115C85.1918 88.4963 85.3003 87.4938 84.9011 86.3971C82.6316 80.1616 81.4991 77.0501 79.2295 70.8146C79.0995 70.4572 79.2384 70.1694 79.6056 70.1265C80.1484 70.0685 80.8124 70.4967 80.9918 70.9896C83.5035 77.8905 84.7616 81.3471 87.2733 88.248C91.5575 91.6988 97.1635 91.2074 99.1387 87.167C99.2035 87.0388 99.2347 86.9716 99.2972 86.8373C96.8061 79.9358 95.5625 76.4809 93.0715 69.5794C92.9145 69.1481 93.1661 68.6727 93.6272 68.5049C94.0882 68.3371 94.5865 68.5395 94.7435 68.9709C97.2714 75.8589 98.5396 79.3049 101.067 86.1929C101.199 86.2495 101.267 86.2809 101.401 86.3437C105.511 88.1691 110.121 84.9421 111.185 79.5448C108.678 72.6563 107.422 69.2058 104.915 62.3172C104.785 61.9599 104.849 61.448 105.095 61.0723C105.458 60.5214 105.953 60.502 106.13 60.9888C108.404 67.2366 109.541 70.3605 111.813 76.6021C112.214 77.705 112.939 78.397 113.792 78.4842C115.516 78.6665 116.786 74.6801 115.977 72.4558C112.391 62.6035 108.807 52.7574 105.221 42.9051C103.853 45.3222 103.043 46.4262 101.248 48.3984Z" fill="white"/>
<path d="M101.248 48.3984C97.4789 52.5404 95.1041 54.1444 90.0352 56.1498C89.4027 56.401 89.0769 56.5196 88.4309 56.7338C87.188 57.1443 86.5492 57.3209 85.2654 57.5998C78.6631 59.026 75.0075 58.8702 68.2903 56.3469C71.8762 66.1992 75.4599 76.0453 79.0459 85.8976C79.8532 88.1158 83.3892 90.3525 84.5943 89.1115C85.1918 88.4963 85.3003 87.4938 84.9011 86.3971C82.6316 80.1616 81.4991 77.0501 79.2295 70.8146C79.0995 70.4572 79.2384 70.1694 79.6056 70.1265C80.1484 70.0685 80.8124 70.4967 80.9918 70.9896C83.5035 77.8905 84.7616 81.3471 87.2733 88.248C91.5575 91.6988 97.1635 91.2074 99.1387 87.167C99.2035 87.0388 99.2347 86.9716 99.2972 86.8373C96.8061 79.9358 95.5625 76.4809 93.0715 69.5794C92.9145 69.1481 93.1661 68.6727 93.6272 68.5049C94.0882 68.3371 94.5865 68.5395 94.7435 68.9709C97.2714 75.8589 98.5396 79.3049 101.067 86.1929C101.199 86.2495 101.267 86.2809 101.401 86.3437C105.511 88.1691 110.121 84.9421 111.185 79.5448C108.678 72.6563 107.422 69.2058 104.915 62.3172C104.785 61.9599 104.849 61.448 105.095 61.0723C105.458 60.5214 105.953 60.502 106.13 60.9888C108.404 67.2366 109.541 70.3605 111.813 76.6021C112.214 77.705 112.939 78.397 113.792 78.4842C115.516 78.6665 116.786 74.6801 115.977 72.4558C112.391 62.6035 108.807 52.7574 105.221 42.9051C103.853 45.3222 103.043 46.4262 101.248 48.3984Z" fill="url(#paint1_linear_7477_97990)" fill-opacity="0.8"/>
<g filter="url(#filter1_i_7477_97990)">
<path d="M90.6295 60.2877C100.824 56.5771 107.352 48.7967 105.209 42.9096C103.066 37.0226 93.0649 35.2582 82.87 38.9688C72.6752 42.6795 66.1477 50.4599 68.2904 56.3469C70.4331 62.234 80.4346 63.9983 90.6295 60.2877Z" fill="white"/>
<path d="M90.6295 60.2877C100.824 56.5771 107.352 48.7967 105.209 42.9096C103.066 37.0226 93.0649 35.2582 82.87 38.9688C72.6752 42.6795 66.1477 50.4599 68.2904 56.3469C70.4331 62.234 80.4346 63.9983 90.6295 60.2877Z" fill="url(#paint2_linear_7477_97990)" fill-opacity="0.2"/>
</g>
<path d="M80.0304 46.5953L78.1114 39.2763C78.0468 39.0416 78.15 38.8087 78.3467 38.7371L84.4138 36.5289C84.6105 36.4573 84.8393 36.5694 84.9407 36.7907L88.1752 43.6309C88.578 44.489 89.4656 44.9196 90.234 44.6399C91.1253 44.3155 91.4987 43.1609 91.0258 42.1677L87.7997 35.3314C86.8887 33.4022 84.8802 32.4167 83.1529 33.0454L77.0858 35.2536C75.3523 35.8845 74.4533 37.9283 74.9955 39.9917L76.9146 47.3107C77.1907 48.3755 78.2189 49.02 79.1102 48.6956C79.8702 48.412 80.2712 47.5055 80.0304 46.5953Z" fill="white"/>
<path d="M80.0304 46.5953L78.1114 39.2763C78.0468 39.0416 78.15 38.8087 78.3467 38.7371L84.4138 36.5289C84.6105 36.4573 84.8393 36.5694 84.9407 36.7907L88.1752 43.6309C88.578 44.489 89.4656 44.9196 90.234 44.6399C91.1253 44.3155 91.4987 43.1609 91.0258 42.1677L87.7997 35.3314C86.8887 33.4022 84.8802 32.4167 83.1529 33.0454L77.0858 35.2536C75.3523 35.8845 74.4533 37.9283 74.9955 39.9917L76.9146 47.3107C77.1907 48.3755 78.2189 49.02 79.1102 48.6956C79.8702 48.412 80.2712 47.5055 80.0304 46.5953Z" fill="url(#paint3_linear_7477_97990)" fill-opacity="0.8"/>
<g opacity="0.6" filter="url(#filter2_f_7477_97990)">
<path d="M211 253C196.942 253 185.545 247.274 185.545 240.21C185.545 233.146 196.942 227.42 211 227.42C225.058 227.42 236.455 233.146 236.455 240.21C236.455 247.274 225.058 253 211 253Z" fill="#BEBEB6" fill-opacity="0.2"/>
</g>
<path d="M219.182 196.358H202.818V237.216C202.818 240.888 205.752 243.864 209.372 243.864H212.628C216.248 243.864 219.182 240.888 219.182 237.216V196.358Z" fill="white"/>
<path d="M219.182 196.358H202.818V237.216C202.818 240.888 205.752 243.864 209.372 243.864H212.628C216.248 243.864 219.182 240.888 219.182 237.216V196.358Z" fill="url(#paint4_linear_7477_97990)"/>
<g filter="url(#filter3_i_7477_97990)">
<path d="M172.395 195.196H172.378L172.496 194.992C172.854 194.249 173.27 193.524 173.746 192.813L211 127.839L248.254 192.813C248.73 193.524 249.146 194.249 249.504 194.992L249.622 195.196H249.605C250.507 197.146 251 199.198 251 201.316C251 214.219 233.091 224.679 211 224.679C188.909 224.679 171 214.219 171 201.316C170.997 199.198 171.489 197.146 172.395 195.196Z" fill="white"/>
<path d="M172.395 195.196H172.378L172.496 194.992C172.854 194.249 173.27 193.524 173.746 192.813L211 127.839L248.254 192.813C248.73 193.524 249.146 194.249 249.504 194.992L249.622 195.196H249.605C250.507 197.146 251 199.198 251 201.316C251 214.219 233.091 224.679 211 224.679C188.909 224.679 171 214.219 171 201.316C170.997 199.198 171.489 197.146 172.395 195.196Z" fill="url(#paint5_linear_7477_97990)" fill-opacity="0.4"/>
</g>
<g filter="url(#filter4_i_7477_97990)">
<path d="M180.293 172.996H180.28L180.373 172.832C180.656 172.243 180.987 171.668 181.367 171.107L211 119.617L240.634 171.107C241.013 171.668 241.345 172.243 241.628 172.832L241.721 172.996H241.707C242.428 174.544 242.818 176.169 242.818 177.846C242.818 188.071 228.575 196.358 211 196.358C193.426 196.358 179.182 188.067 179.182 177.846C179.182 176.165 179.572 174.541 180.293 172.996Z" fill="white"/>
<path d="M180.293 172.996H180.28L180.373 172.832C180.656 172.243 180.987 171.668 181.367 171.107L211 119.617L240.634 171.107C241.013 171.668 241.345 172.243 241.628 172.832L241.721 172.996H241.707C242.428 174.544 242.818 176.169 242.818 177.846C242.818 188.071 228.575 196.358 211 196.358C193.426 196.358 179.182 188.067 179.182 177.846C179.182 176.165 179.572 174.541 180.293 172.996Z" fill="url(#paint6_linear_7477_97990)" fill-opacity="0.4"/>
</g>
<g filter="url(#filter5_i_7477_97990)">
<path d="M186.433 153.338H186.422L186.498 153.211C186.726 152.749 186.992 152.297 187.292 151.855L211 111.395L234.708 151.852C235.012 152.293 235.278 152.745 235.502 153.208L235.578 153.334H235.568C236.144 154.55 236.455 155.827 236.455 157.145C236.455 165.179 225.058 171.691 211 171.691C196.942 171.691 185.545 165.179 185.545 157.145C185.545 155.827 185.856 154.553 186.433 153.338Z" fill="white"/>
<path d="M186.433 153.338H186.422L186.498 153.211C186.726 152.749 186.992 152.297 187.292 151.855L211 111.395L234.708 151.852C235.012 152.293 235.278 152.745 235.502 153.208L235.578 153.334H235.568C236.144 154.55 236.455 155.827 236.455 157.145C236.455 165.179 225.058 171.691 211 171.691C196.942 171.691 185.545 165.179 185.545 157.145C185.545 155.827 185.856 154.553 186.433 153.338Z" fill="url(#paint7_linear_7477_97990)" fill-opacity="0.4"/>
</g>
<g filter="url(#filter6_i_7477_97990)">
<path d="M190.824 135.388H190.814L190.874 135.281C191.062 134.896 191.278 134.519 191.526 134.151L207.063 107.28C208.82 104.24 213.186 104.24 214.944 107.28L230.477 134.155C230.725 134.522 230.945 134.9 231.129 135.285L231.19 135.392H231.179C231.65 136.404 231.909 137.466 231.909 138.564C231.909 145.254 222.549 150.679 211 150.679C199.45 150.679 190.091 145.254 190.091 138.564C190.094 137.463 190.349 136.4 190.824 135.388Z" fill="white"/>
<path d="M190.824 135.388H190.814L190.874 135.281C191.062 134.896 191.278 134.519 191.526 134.151L207.063 107.28C208.82 104.24 213.186 104.24 214.944 107.28L230.477 134.155C230.725 134.522 230.945 134.9 231.129 135.285L231.19 135.392H231.179C231.65 136.404 231.909 137.466 231.909 138.564C231.909 145.254 222.549 150.679 211 150.679C199.45 150.679 190.091 145.254 190.091 138.564C190.094 137.463 190.349 136.4 190.824 135.388Z" fill="url(#paint8_linear_7477_97990)" fill-opacity="0.4"/>
</g>
<defs>
<filter id="filter0_f_7477_97990" x="14.0002" y="116" width="281" height="201" filterUnits="userSpaceOnUse" color-interpolation-filters="sRGB">
<feFlood flood-opacity="0" result="BackgroundImageFix"/>
<feBlend mode="normal" in="SourceGraphic" in2="BackgroundImageFix" result="shape"/>
<feGaussianBlur stdDeviation="30" result="effect1_foregroundBlur_7477_97990"/>
</filter>
<filter id="filter1_i_7477_97990" x="67.8833" y="37.0264" width="37.7329" height="25.2036" filterUnits="userSpaceOnUse" color-interpolation-filters="sRGB">
<feFlood flood-opacity="0" result="BackgroundImageFix"/>
<feBlend mode="normal" in="SourceGraphic" in2="BackgroundImageFix" result="shape"/>
<feColorMatrix in="SourceAlpha" type="matrix" values="0 0 0 0 0 0 0 0 0 0 0 0 0 0 0 0 0 0 127 0" result="hardAlpha"/>
<feOffset dy="-2"/>
<feComposite in2="hardAlpha" operator="arithmetic" k2="-1" k3="1"/>
<feColorMatrix type="matrix" values="0 0 0 0 1 0 0 0 0 1 0 0 0 0 1 0 0 0 1 0"/>
<feBlend mode="normal" in2="shape" result="effect1_innerShadow_7477_97990"/>
</filter>
<filter id="filter2_f_7477_97990" x="169.545" y="211.42" width="82.9092" height="57.5802" filterUnits="userSpaceOnUse" color-interpolation-filters="sRGB">
<feFlood flood-opacity="0" result="BackgroundImageFix"/>
<feBlend mode="normal" in="SourceGraphic" in2="BackgroundImageFix" result="shape"/>
<feGaussianBlur stdDeviation="8" result="effect1_foregroundBlur_7477_97990"/>
</filter>
<filter id="filter3_i_7477_97990" x="171" y="127.839" width="80" height="96.8395" filterUnits="userSpaceOnUse" color-interpolation-filters="sRGB">
<feFlood flood-opacity="0" result="BackgroundImageFix"/>
<feBlend mode="normal" in="SourceGraphic" in2="BackgroundImageFix" result="shape"/>
<feColorMatrix in="SourceAlpha" type="matrix" values="0 0 0 0 0 0 0 0 0 0 0 0 0 0 0 0 0 0 127 0" result="hardAlpha"/>
<feOffset dy="-4"/>
<feComposite in2="hardAlpha" operator="arithmetic" k2="-1" k3="1"/>
<feColorMatrix type="matrix" values="0 0 0 0 1 0 0 0 0 1 0 0 0 0 1 0 0 0 0.6 0"/>
<feBlend mode="normal" in2="shape" result="effect1_innerShadow_7477_97990"/>
</filter>
<filter id="filter4_i_7477_97990" x="179.182" y="119.617" width="63.6365" height="76.7407" filterUnits="userSpaceOnUse" color-interpolation-filters="sRGB">
<feFlood flood-opacity="0" result="BackgroundImageFix"/>
<feBlend mode="normal" in="SourceGraphic" in2="BackgroundImageFix" result="shape"/>
<feColorMatrix in="SourceAlpha" type="matrix" values="0 0 0 0 0 0 0 0 0 0 0 0 0 0 0 0 0 0 127 0" result="hardAlpha"/>
<feOffset dy="-4"/>
<feComposite in2="hardAlpha" operator="arithmetic" k2="-1" k3="1"/>
<feColorMatrix type="matrix" values="0 0 0 0 1 0 0 0 0 1 0 0 0 0 1 0 0 0 0.6 0"/>
<feBlend mode="normal" in2="shape" result="effect1_innerShadow_7477_97990"/>
</filter>
<filter id="filter5_i_7477_97990" x="185.545" y="111.395" width="50.9092" height="60.2964" filterUnits="userSpaceOnUse" color-interpolation-filters="sRGB">
<feFlood flood-opacity="0" result="BackgroundImageFix"/>
<feBlend mode="normal" in="SourceGraphic" in2="BackgroundImageFix" result="shape"/>
<feColorMatrix in="SourceAlpha" type="matrix" values="0 0 0 0 0 0 0 0 0 0 0 0 0 0 0 0 0 0 127 0" result="hardAlpha"/>
<feOffset dy="-4"/>
<feComposite in2="hardAlpha" operator="arithmetic" k2="-1" k3="1"/>
<feColorMatrix type="matrix" values="0 0 0 0 1 0 0 0 0 1 0 0 0 0 1 0 0 0 0.6 0"/>
<feBlend mode="normal" in2="shape" result="effect1_innerShadow_7477_97990"/>
</filter>
<filter id="filter6_i_7477_97990" x="190.091" y="105" width="41.8181" height="45.679" filterUnits="userSpaceOnUse" color-interpolation-filters="sRGB">
<feFlood flood-opacity="0" result="BackgroundImageFix"/>
<feBlend mode="normal" in="SourceGraphic" in2="BackgroundImageFix" result="shape"/>
<feColorMatrix in="SourceAlpha" type="matrix" values="0 0 0 0 0 0 0 0 0 0 0 0 0 0 0 0 0 0 127 0" result="hardAlpha"/>
<feOffset dy="-4"/>
<feComposite in2="hardAlpha" operator="arithmetic" k2="-1" k3="1"/>
<feColorMatrix type="matrix" values="0 0 0 0 1 0 0 0 0 1 0 0 0 0 1 0 0 0 0.6 0"/>
<feBlend mode="normal" in2="shape" result="effect1_innerShadow_7477_97990"/>
</filter>
<radialGradient id="paint0_radial_7477_97990" cx="0" cy="0" r="1" gradientUnits="userSpaceOnUse" gradientTransform="translate(99.0001 89.4999) rotate(69.1661) scale(145.879 145.534)">
<stop offset="0.242708" stop-color="white"/>
<stop offset="0.6125" stop-color="#DEDFE1"/>
<stop offset="0.76875" stop-color="#DCDDE0"/>
<stop offset="1" stop-color="#F8F8F9"/>
</radialGradient>
<linearGradient id="paint1_linear_7477_97990" x1="105.239" y1="42.9419" x2="109.305" y2="92.8655" gradientUnits="userSpaceOnUse">
<stop stop-color="#CCD1D3" stop-opacity="0.36"/>
<stop offset="0.6035" stop-color="#C3C6CA"/>
</linearGradient>
<linearGradient id="paint2_linear_7477_97990" x1="93.0046" y1="33.2318" x2="97.293" y2="92.6306" gradientUnits="userSpaceOnUse">
<stop stop-color="#CCD1D3" stop-opacity="0.36"/>
<stop offset="1" stop-color="#C3C6CA"/>
</linearGradient>
<linearGradient id="paint3_linear_7477_97990" x1="87.1881" y1="31.5906" x2="89.1649" y2="47.8468" gradientUnits="userSpaceOnUse">
<stop stop-color="#CCD1D3" stop-opacity="0.36"/>
<stop offset="0.6035" stop-color="#C3C6CA"/>
</linearGradient>
<linearGradient id="paint4_linear_7477_97990" x1="219.182" y1="220.111" x2="202.818" y2="220.111" gradientUnits="userSpaceOnUse">
<stop offset="0.266393" stop-color="#F7F8F9"/>
<stop offset="1" stop-color="#EAEBEC"/>
</linearGradient>
<linearGradient id="paint5_linear_7477_97990" x1="251" y1="176.259" x2="188.959" y2="159.234" gradientUnits="userSpaceOnUse">
<stop stop-color="#BDC6CB" stop-opacity="0.36"/>
<stop offset="0.491083" stop-color="#DCDDE0"/>
<stop offset="1" stop-color="#CACDCF"/>
</linearGradient>
<linearGradient id="paint6_linear_7477_97990" x1="242.818" y1="157.988" x2="193.494" y2="144.401" gradientUnits="userSpaceOnUse">
<stop stop-color="#BDC6CB" stop-opacity="0.36"/>
<stop offset="0.491083" stop-color="#DCDDE0"/>
<stop offset="1" stop-color="#CACDCF"/>
</linearGradient>
<linearGradient id="paint7_linear_7477_97990" x1="236.455" y1="141.543" x2="197.097" y2="130.505" gradientUnits="userSpaceOnUse">
<stop stop-color="#BDC6CB" stop-opacity="0.36"/>
<stop offset="0.491083" stop-color="#DCDDE0"/>
<stop offset="1" stop-color="#CACDCF"/>
</linearGradient>
<linearGradient id="paint8_linear_7477_97990" x1="231.909" y1="127.84" x2="199.988" y2="118.132" gradientUnits="userSpaceOnUse">
<stop stop-color="#BDC6CB" stop-opacity="0.36"/>
<stop offset="0.491083" stop-color="#DCDDE0"/>
<stop offset="1" stop-color="#CACDCF"/>
</linearGradient>
</defs>
</svg>
