<svg width="363" height="461" viewBox="0 0 363 461" fill="none" xmlns="http://www.w3.org/2000/svg">
<path d="M347.965 210.255V315.45C347.965 316.667 347.426 317.736 345.8 318.574L315.942 333.878C314.577 334.572 312.852 334.946 311.177 334.979V229.312C312.847 229.274 314.581 228.896 315.947 228.195L345.799 212.841C347.231 212.104 347.965 211.155 347.965 210.255Z" fill="white"/>
<path d="M347.965 210.255V315.45C347.965 316.667 347.426 317.736 345.8 318.574L315.942 333.878C314.577 334.572 312.852 334.946 311.177 334.979V229.312C312.847 229.274 314.581 228.896 315.947 228.195L345.799 212.841C347.231 212.104 347.965 211.155 347.965 210.255Z" fill="url(#paint0_linear_1_1407)" fill-opacity="0.6"/>
<path d="M362.557 325.773V420.421C362.557 421.256 362.018 421.987 360.392 422.561L330.534 433.041C329.169 433.517 327.444 433.773 325.769 433.796V338.823C327.439 338.797 329.173 338.538 330.54 338.058L360.392 327.543C361.823 327.039 362.557 326.389 362.557 325.773Z" fill="#FF835E"/>
<path d="M362.557 325.773V420.421C362.557 421.256 362.018 421.987 360.392 422.561L330.534 433.041C329.169 433.517 327.444 433.773 325.769 433.796V338.823C327.439 338.797 329.173 338.538 330.54 338.058L360.392 327.543C361.823 327.039 362.557 326.389 362.557 325.773Z" fill="url(#paint1_linear_1_1407)" fill-opacity="0.75"/>
<path d="M142.253 81.2209V154.867C142.253 155.516 141.833 156.086 140.568 156.532L117.336 164.687C116.274 165.057 114.932 165.256 113.628 165.274V91.3754C114.927 91.3553 116.277 91.1537 117.34 90.7804L140.568 82.5989C141.681 82.206 142.253 81.7005 142.253 81.2209Z" fill="#FF835E"/>
<path d="M142.253 81.2209V154.867C142.253 155.516 141.833 156.086 140.568 156.532L117.336 164.687C116.274 165.057 114.932 165.256 113.628 165.274V91.3754C114.927 91.3553 116.277 91.1537 117.34 90.7804L140.568 82.5989C141.681 82.206 142.253 81.7005 142.253 81.2209Z" fill="url(#paint2_linear_1_1407)" fill-opacity="0.75"/>
<g filter="url(#filter0_i_1_1407)">
<path d="M85.0031 81.2209V154.867C85.003 155.516 85.4229 156.086 86.6878 156.532L109.92 164.687C110.982 165.057 112.325 165.256 113.628 165.274V91.3754C112.329 91.3553 110.979 91.1537 109.916 90.7804L86.6882 82.5989C85.5746 82.206 85.0035 81.7005 85.0031 81.2209Z" fill="#FFB199"/>
<path d="M85.0031 81.2209V154.867C85.003 155.516 85.4229 156.086 86.6878 156.532L109.92 164.687C110.982 165.057 112.325 165.256 113.628 165.274V91.3754C112.329 91.3553 110.979 91.1537 109.916 90.7804L86.6882 82.5989C85.5746 82.206 85.0035 81.7005 85.0031 81.2209Z" fill="url(#paint3_linear_1_1407)" fill-opacity="0.75"/>
</g>
<g filter="url(#filter1_i_1_1407)">
<path d="M141.06 82.6825L116.838 91.2255C115.071 91.8509 111.963 91.7683 109.916 91.0485L86.6882 82.8536C84.6512 82.1338 84.4291 81.0364 86.1958 80.411L110.418 71.868C112.185 71.2426 115.293 71.3252 117.34 72.045L140.568 80.2399C142.605 80.9597 142.827 82.063 141.06 82.6825Z" fill="#FF835E"/>
<path d="M141.06 82.6825L116.838 91.2255C115.071 91.8509 111.963 91.7683 109.916 91.0485L86.6882 82.8536C84.6512 82.1338 84.4291 81.0364 86.1958 80.411L110.418 71.868C112.185 71.2426 115.293 71.3252 117.34 72.045L140.568 80.2399C142.605 80.9597 142.827 82.063 141.06 82.6825Z" fill="url(#paint4_linear_1_1407)" fill-opacity="0.75"/>
</g>
<path d="M81.8511 118.47V182.33C81.8511 183.069 81.5235 183.718 80.5366 184.227L62.4108 193.517C61.5821 193.939 60.535 194.166 59.518 194.186V130.038C60.5316 130.016 61.5846 129.786 62.4141 129.361L80.5363 120.04C81.4051 119.592 81.8508 119.016 81.8511 118.47Z" fill="white"/>
<path d="M81.8511 118.47V182.33C81.8511 183.069 81.5235 183.718 80.5366 184.227L62.4108 193.517C61.5821 193.939 60.535 194.166 59.518 194.186V130.038C60.5316 130.016 61.5846 129.786 62.4141 129.361L80.5363 120.04C81.4051 119.592 81.8508 119.016 81.8511 118.47Z" fill="url(#paint5_linear_1_1407)" fill-opacity="0.6"/>
<g filter="url(#filter2_i_1_1407)">
<path d="M37.185 118.47V182.33C37.185 183.069 37.5126 183.718 38.4995 184.227L56.6252 193.517C57.4539 193.939 58.5011 194.166 59.5181 194.186V130.038C58.5044 130.016 57.4515 129.786 56.622 129.361L38.4997 120.04C37.6309 119.592 37.1853 119.016 37.185 118.47Z" fill="white"/>
<path d="M37.185 118.47V182.33C37.185 183.069 37.5126 183.718 38.4995 184.227L56.6252 193.517C57.4539 193.939 58.5011 194.166 59.5181 194.186V130.038C58.5044 130.016 57.4515 129.786 56.622 129.361L38.4997 120.04C37.6309 119.592 37.1853 119.016 37.185 118.47Z" fill="url(#paint6_linear_1_1407)" fill-opacity="0.2"/>
</g>
<g filter="url(#filter3_i_1_1407)">
<path d="M80.9204 120.135L62.0223 129.868C60.6439 130.58 58.2186 130.486 56.6218 129.666L38.4995 120.33C36.9102 119.51 36.737 118.259 38.1154 117.547L57.0134 107.814C58.3918 107.102 60.8172 107.196 62.414 108.016L80.5363 117.352C82.1255 118.172 82.2988 119.429 80.9204 120.135Z" fill="white"/>
<path d="M80.9204 120.135L62.0223 129.868C60.6439 130.58 58.2186 130.486 56.6218 129.666L38.4995 120.33C36.9102 119.51 36.737 118.259 38.1154 117.547L57.0134 107.814C58.3918 107.102 60.8172 107.196 62.414 108.016L80.5363 117.352C82.1255 118.172 82.2988 119.429 80.9204 120.135Z" fill="url(#paint7_linear_1_1407)" fill-opacity="0.6"/>
</g>
<path d="M33.2421 167.057V209.82C33.2421 210.197 32.9983 210.527 32.2638 210.786L18.7741 215.521C18.1573 215.736 17.378 215.852 16.6211 215.862V172.954C17.3755 172.942 18.1592 172.825 18.7765 172.608L32.2636 167.857C32.9102 167.629 33.2418 167.336 33.2421 167.057Z" fill="#FF835E"/>
<path d="M33.2421 167.057V209.82C33.2421 210.197 32.9983 210.527 32.2638 210.786L18.7741 215.521C18.1573 215.736 17.378 215.852 16.6211 215.862V172.954C17.3755 172.942 18.1592 172.825 18.7765 172.608L32.2636 167.857C32.9102 167.629 33.2418 167.336 33.2421 167.057Z" fill="url(#paint8_linear_1_1407)" fill-opacity="0.75"/>
<g filter="url(#filter4_i_1_1407)">
<path d="M0.000183105 167.057V209.82C0.000181172 210.197 0.243975 210.527 0.978453 210.786L14.4682 215.521C15.0849 215.736 15.8643 215.852 16.6212 215.862V172.954C15.8667 172.942 15.0831 172.825 14.4658 172.608L0.978652 167.857C0.332072 167.629 0.000421174 167.336 0.000183105 167.057Z" fill="#FFB199"/>
<path d="M0.000183105 167.057V209.82C0.000181172 210.197 0.243975 210.527 0.978453 210.786L14.4682 215.521C15.0849 215.736 15.8643 215.852 16.6212 215.862V172.954C15.8667 172.942 15.0831 172.825 14.4658 172.608L0.978652 167.857C0.332072 167.629 0.000421174 167.336 0.000183105 167.057Z" fill="url(#paint9_linear_1_1407)" fill-opacity="0.75"/>
</g>
<g filter="url(#filter5_i_1_1407)">
<path d="M32.5495 167.906L18.485 172.867C17.4591 173.23 15.6541 173.182 14.4657 172.764L0.978591 168.005C-0.204197 167.587 -0.333126 166.95 0.692704 166.587L14.7572 161.627C15.7831 161.264 17.5881 161.312 18.7765 161.729L32.2636 166.488C33.4464 166.906 33.5753 167.546 32.5495 167.906Z" fill="#FF835E"/>
<path d="M32.5495 167.906L18.485 172.867C17.4591 173.23 15.6541 173.182 14.4657 172.764L0.978591 168.005C-0.204197 167.587 -0.333126 166.95 0.692704 166.587L14.7572 161.627C15.7831 161.264 17.5881 161.312 18.7765 161.729L32.2636 166.488C33.4464 166.906 33.5753 167.546 32.5495 167.906Z" fill="url(#paint10_linear_1_1407)" fill-opacity="0.75"/>
</g>
<g opacity="0.2">
<path opacity="0.09" d="M107.916 281.475L118.37 275.641C118.798 275.397 138.422 264.688 138.792 264.897L145.542 261.597C148.587 259.838 153.056 259.259 156.922 259.259C160.28 259.259 163.88 260.312 166.288 261.701L213.477 288.584L223.538 294.315L280.788 326.928C282.64 327.993 284.353 329.637 285.233 331.258C285.939 332.543 286.368 333.921 286.403 335.391C286.518 339.177 284.191 342.766 280 345.185L269.534 351.02C269.106 351.263 249.483 361.972 249.112 361.764L242.363 365.063C239.318 366.823 234.849 367.402 230.982 367.402C227.625 367.402 224.024 366.348 221.616 364.959L174.427 338.077L164.367 332.346L107.117 299.733C105.265 298.668 103.551 297.024 102.671 295.403C101.965 294.118 101.537 292.74 101.502 291.27C101.386 287.484 103.713 283.895 107.904 281.475H107.916Z" fill="black"/>
<path opacity="0.18" d="M108.957 282.309L119.134 276.683C119.991 276.196 138.352 266.529 139.093 266.946L145.634 264.249C148.366 262.662 153.125 262.57 156.609 262.57C159.631 262.57 163.475 263.866 165.64 265.117L211.439 291.235L221.211 296.804L276.782 328.491C278.449 329.452 280.336 331.177 281.169 332.612C281.876 333.851 282.362 335.148 282.443 336.549C282.663 340.184 280.452 343.68 276.342 346.054L266.165 351.68C265.308 352.166 246.947 361.833 246.206 361.417L239.665 364.114C236.933 365.7 232.174 365.793 228.69 365.793C225.668 365.793 221.824 364.496 219.659 363.246L173.86 337.127L164.088 331.559L108.517 299.872C106.85 298.911 104.963 297.186 104.13 295.75C103.423 294.512 102.937 293.215 102.856 291.814C102.636 288.179 104.847 284.682 108.957 282.309Z" fill="black"/>
<path opacity="0.27" d="M109.999 283.131L119.898 277.713C121.172 276.972 138.294 268.347 139.406 268.995L145.75 266.9C148.181 265.499 153.229 265.869 156.32 265.869C159.006 265.869 163.093 267.398 165.015 268.521L209.425 293.875L218.895 299.281L272.776 330.042C274.258 330.899 276.342 332.693 277.106 333.955C277.824 335.148 278.368 336.363 278.495 337.683C278.819 341.156 276.735 344.583 272.695 346.91L262.796 352.329C261.523 353.069 244.4 361.695 243.289 361.046L236.944 363.142C234.513 364.543 229.465 364.172 226.374 364.172C223.688 364.172 219.602 362.644 217.68 361.521L173.269 336.167L163.799 330.76L109.918 299.999C108.437 299.143 106.353 297.348 105.589 296.086C104.871 294.894 104.327 293.678 104.199 292.358C103.875 288.885 105.959 285.458 109.999 283.131Z" fill="black"/>
<path opacity="0.36" d="M111.041 283.965L120.65 278.755C122.352 277.771 138.213 270.188 139.695 271.044L145.843 269.551C147.973 268.324 153.298 269.18 156.007 269.18C158.358 269.18 162.676 270.952 164.366 271.924L207.399 296.514L216.58 301.759L268.782 331.593C270.078 332.346 272.359 334.198 273.054 335.298C273.783 336.444 274.385 337.567 274.547 338.829C274.987 342.152 273.019 345.486 269.048 347.779L259.439 352.988C257.737 353.972 241.876 361.555 240.394 360.699L234.247 362.192C232.117 363.419 226.791 362.563 224.082 362.563C221.732 362.563 217.413 360.791 215.723 359.819L172.69 335.229L163.51 329.984L111.308 300.15C110.011 299.397 107.73 297.533 107.036 296.445C106.306 295.299 105.704 294.176 105.542 292.914C105.102 289.591 107.07 286.257 111.041 283.965Z" fill="black"/>
<path opacity="0.45" d="M112.083 284.798L121.415 279.809C123.545 278.581 138.155 272.04 139.996 273.105L145.935 272.214C147.764 271.16 153.368 272.503 155.695 272.503C157.709 272.503 162.271 274.518 163.718 275.351L205.361 299.177L214.241 304.26L264.764 333.157C265.876 333.793 268.353 335.727 268.978 336.641C269.719 337.741 270.379 338.783 270.588 339.976C271.143 343.148 269.279 346.401 265.389 348.647L256.058 353.637C253.928 354.864 239.317 361.405 237.477 360.34L231.538 361.231C229.708 362.285 224.105 360.942 221.778 360.942C219.763 360.942 215.202 358.928 213.755 358.094L172.111 334.268L163.232 329.186L112.708 300.289C111.597 299.652 109.119 297.719 108.494 296.804C107.753 295.704 107.093 294.662 106.885 293.47C106.329 290.298 108.193 287.044 112.083 284.798Z" fill="black"/>
<path opacity="0.55" d="M113.137 285.62L122.19 280.839C124.749 279.368 138.097 273.858 140.32 275.143L146.063 274.853C147.579 273.973 153.484 275.791 155.417 275.791C157.096 275.791 161.9 278.049 163.104 278.743L203.359 301.805L211.937 306.726L260.782 334.696C261.708 335.229 264.394 337.22 264.938 337.973C265.691 339.026 266.408 339.975 266.651 341.11C267.311 344.132 265.575 347.292 261.754 349.504L252.701 354.285C250.142 355.755 236.794 361.266 234.571 359.981L228.829 360.27C227.312 361.15 221.408 359.333 219.474 359.333C217.795 359.333 212.991 357.075 211.787 356.38L171.533 333.319L162.954 328.398L114.109 300.427C113.183 299.895 110.497 297.904 109.953 297.151C109.201 296.098 108.483 295.148 108.24 294.014C107.58 290.992 109.316 287.831 113.137 285.62Z" fill="black"/>
<path opacity="0.64" d="M114.179 286.454L122.943 281.881C125.93 280.156 138.028 275.698 140.61 277.192L146.155 277.516C147.371 276.81 153.553 279.114 155.093 279.114C156.436 279.114 161.484 281.614 162.444 282.17L201.309 304.468L209.599 309.226L256.753 336.271C257.494 336.699 260.4 338.748 260.84 339.339C261.615 340.358 262.368 341.214 262.657 342.279C263.433 345.151 261.812 348.23 258.061 350.395L249.297 354.968C246.31 356.693 234.212 361.15 231.63 359.657L226.085 359.333C224.869 360.039 218.687 357.735 217.147 357.735C215.804 357.735 210.756 355.234 209.796 354.679L170.931 332.381L162.641 327.623L115.487 300.578C114.746 300.15 111.84 298.101 111.4 297.51C110.625 296.491 109.872 295.635 109.583 294.569C108.807 291.698 110.428 288.619 114.179 286.454Z" fill="black"/>
<path opacity="0.73" d="M115.221 287.287L123.707 282.923C127.111 280.955 137.97 277.539 140.911 279.241L146.248 280.167C147.162 279.635 153.623 282.425 154.78 282.425C155.787 282.425 161.067 285.169 161.796 285.586L199.283 307.119L207.272 311.704L252.747 337.822C253.303 338.146 256.521 340.184 256.776 340.682C257.737 341.492 258.374 342.43 258.709 343.426C259.601 346.135 258.096 349.133 254.414 351.263L245.928 355.628C242.524 357.596 231.665 361.011 228.724 359.31L223.387 358.383C222.473 358.904 216.012 356.126 214.855 356.126C213.848 356.126 208.568 353.382 207.839 352.965L170.352 331.432L162.363 326.847L116.888 300.729C116.332 300.404 113.114 298.367 112.859 297.869C111.898 297.059 111.261 296.121 110.926 295.125C110.034 292.416 111.539 289.418 115.221 287.287Z" fill="black"/>
<path opacity="0.82" d="M116.263 288.109L124.471 283.953C128.303 281.742 137.901 279.368 141.223 281.279L146.364 282.807C146.977 282.46 153.727 285.724 154.491 285.724C155.162 285.724 160.685 288.711 161.171 288.989L197.269 309.759L204.968 314.181L248.765 339.373C249.135 339.582 252.562 341.689 252.736 342.025C253.731 342.766 254.403 343.634 254.773 344.572C255.78 347.13 254.38 350.048 250.779 352.132L242.571 356.288C238.739 358.499 229.141 360.872 225.818 358.962L220.678 357.434C220.064 357.781 213.315 354.517 212.551 354.517C211.879 354.517 206.357 351.53 205.871 351.252L169.773 330.482L162.074 326.06L118.277 300.867C117.907 300.659 114.48 298.552 114.306 298.216C113.31 297.475 112.639 296.607 112.268 295.669C111.261 293.111 112.662 290.193 116.263 288.109Z" fill="black"/>
<path opacity="0.91" d="M117.305 288.943L125.223 284.995C129.484 282.541 137.831 281.198 141.513 283.328L146.456 285.458C146.757 285.285 153.796 289.024 154.178 289.024C154.514 289.024 160.279 292.254 160.523 292.393L195.231 312.399L202.629 316.659L244.736 340.925C244.921 341.029 248.568 343.194 248.649 343.356C249.679 344.039 250.385 344.838 250.791 345.695C251.925 348.103 250.628 350.928 247.097 352.965L239.179 356.913C234.918 359.368 226.571 360.711 222.889 358.58L217.946 356.45C217.645 356.624 210.606 352.884 210.224 352.884C209.888 352.884 204.123 349.654 203.879 349.515L169.171 329.51L161.773 325.249L119.666 300.983C119.481 300.879 115.834 298.714 115.753 298.552C114.723 297.869 114.017 297.07 113.611 296.214C112.477 293.805 113.774 290.981 117.305 288.943Z" fill="black"/>
<path d="M219.983 358.244L168.603 328.584L117.224 298.923C113.16 296.584 113.669 292.486 118.358 289.776L125.999 286.037C130.688 283.328 137.773 283.039 141.837 285.377L193.217 315.038L244.597 344.699C248.66 347.038 248.151 351.136 243.462 353.845L235.821 357.585C231.132 360.294 224.047 360.583 219.983 358.244Z" fill="black"/>
</g>
<path d="M225.274 350.893L133.096 297.672C122.699 291.664 114.271 275.56 114.271 261.702V16.2055C114.271 9.15492 108.471 7.59199 111.99 5.06814C112.129 4.97552 120.222 1.29395 120.372 1.23606C124.147 -0.211097 128.199 -0.859424 133.107 1.97701L225.286 55.1977C235.682 61.2063 244.11 77.3103 244.11 91.1683V336.653C244.11 344.016 241.725 349.272 237.94 351.68C237.72 351.819 227.96 356.462 227.705 356.543C224.348 357.666 229.824 353.509 225.274 350.893Z" fill="#A8A8A8"/>
<path style="mix-blend-mode:color-dodge" d="M224.429 55.4756L132.251 2.25484C127.342 -0.581596 219.335 57.1774 219.335 57.1774C229.731 63.186 238.159 79.29 238.159 93.148C238.159 93.148 243.254 344.305 243.254 336.942V91.4462C243.254 77.5766 234.825 61.4726 224.429 55.4756Z" fill="#F3F3F3"/>
<path style="mix-blend-mode:screen" opacity="0.6" d="M218.119 354.169L125.941 300.949C115.544 294.94 107.116 278.836 107.116 264.978V19.482C107.116 5.6124 115.544 -0.755104 125.941 5.2535L218.119 58.4742C228.516 64.4828 236.944 80.5868 236.944 94.4448V339.929C236.944 353.799 228.516 360.166 218.119 354.158V354.169Z" fill="white"/>
<path d="M216.475 355.049L124.297 301.828C113.901 295.82 105.473 279.716 105.473 265.858V20.3617C105.473 6.49216 113.901 0.124657 124.297 6.13326L216.475 59.354C226.872 65.3626 235.3 81.4666 235.3 95.3246V340.809C235.3 354.679 226.872 361.046 216.475 355.038V355.049Z" fill="#F0EEEE"/>
<path d="M108.043 267.49V21.6931C108.043 9.53692 115.429 3.95668 124.552 9.21276L216.244 62.1556C225.355 67.4233 232.753 81.536 232.753 93.6921V339.489C232.753 351.645 225.367 357.226 216.244 351.969L124.552 299.027C115.44 293.759 108.043 279.646 108.043 267.49Z" fill="white"/>
<path d="M111.701 268.984V24.437C111.701 14.2605 117.883 9.58333 125.513 13.9943L215.248 65.8026C222.878 70.2019 229.06 82.0223 229.06 92.1987V336.746C229.06 346.922 222.878 351.599 215.248 347.188L125.513 295.38C117.883 290.981 111.701 279.16 111.701 268.984Z" fill="#C0C0C0"/>
<path d="M126.555 16.7033C119.365 12.5471 113.53 15.8698 113.53 24.1244V271.415C113.53 279.67 119.365 289.719 126.555 293.875L214.206 344.479C221.396 348.635 227.231 345.313 227.231 337.058V89.7675C227.231 81.5129 221.396 71.4639 214.206 67.3076L126.555 16.7033Z" fill="white"/>
<path d="M237.778 152.134V135.567C237.778 133.449 239.063 130.983 240.66 130.068C242.246 129.153 243.543 130.126 243.543 132.244V148.812C243.543 150.93 242.258 153.396 240.66 154.311C239.074 155.225 237.778 154.253 237.778 152.134Z" fill="#929292"/>
<path d="M239.514 154.033C238.692 154.033 238.403 153.014 238.403 152.134V135.567C238.403 133.68 239.572 131.411 240.973 130.612C241.274 130.438 241.552 130.346 241.806 130.346C242.628 130.346 242.918 131.365 242.918 132.245V148.812C242.918 150.699 241.749 152.968 240.348 153.767C240.047 153.94 239.769 154.033 239.514 154.033Z" fill="#BEBEBE"/>
<path style="mix-blend-mode:color-dodge" d="M239.248 152.551V135.984C239.248 134.097 240.417 131.828 241.818 131.029C242.084 130.878 242.327 130.797 242.559 130.786C242.385 130.519 242.142 130.346 241.806 130.346C241.563 130.346 241.274 130.438 240.973 130.612C239.584 131.411 238.403 133.692 238.403 135.567V152.134C238.403 153.014 238.692 154.033 239.514 154.033C239.537 154.033 239.572 154.021 239.607 154.021C239.352 153.639 239.248 153.084 239.248 152.563V152.551Z" fill="#BFBFBF"/>
<path d="M207.236 79.0698L218.617 85.6457C219.045 85.9004 219.404 85.692 219.404 85.1942C219.404 84.6964 219.057 84.0944 218.617 83.8397L207.236 77.2638C206.808 77.0091 206.449 77.2175 206.449 77.7153C206.449 78.2131 206.796 78.8151 207.236 79.0698ZM218.617 87.8917L207.236 81.3158C206.808 81.0611 206.449 81.2695 206.449 81.7673C206.449 82.2652 206.796 82.8672 207.236 83.1219L218.617 89.6978C219.045 89.9525 219.404 89.7441 219.404 89.2463C219.404 88.7484 219.057 88.1464 218.617 87.8917ZM218.617 91.9438L207.236 85.3679C206.808 85.1132 206.449 85.3216 206.449 85.8194C206.449 86.3172 206.796 86.9192 207.236 87.1739L218.617 93.7498C219.045 94.0045 219.404 93.7961 219.404 93.2983C219.404 92.8005 219.057 92.1985 218.617 91.9438Z" fill="#939393"/>
<path d="M137.495 39.7535C137.495 40.9575 136.65 41.4438 135.596 40.8302C134.554 40.2282 133.697 38.7578 133.697 37.5654C133.697 36.3729 134.543 35.8751 135.596 36.4887C136.638 37.0907 137.495 38.561 137.495 39.7535Z" fill="#939393"/>
<path d="M131.776 36.4307C131.776 37.6348 130.931 38.121 129.877 37.5074C128.835 36.9054 127.979 35.4351 127.979 34.2426C127.979 33.0502 128.824 32.5523 129.877 33.1659C130.919 33.768 131.776 35.2383 131.776 36.4307Z" fill="#939393"/>
<path d="M126.056 33.1082C126.056 34.3123 125.211 34.7985 124.158 34.1849C123.116 33.5829 122.259 32.1126 122.259 30.9201C122.259 29.7277 123.104 29.2298 124.158 29.8434C125.2 30.4454 126.056 31.9158 126.056 33.1082Z" fill="#939393"/>
<path d="M154.239 269.783C154.239 268.275 154.716 267.17 155.505 266.563C156.472 265.819 157.908 265.822 159.51 266.746L171.634 273.731C174.545 275.408 176.905 279.488 176.905 282.842V296.813C176.905 298.406 176.372 299.55 175.501 300.131C175.41 300.192 175.316 300.246 175.218 300.295C174.278 300.758 173.018 300.647 171.634 299.85L159.51 292.864C156.599 291.187 154.239 287.108 154.239 283.753L154.239 269.783Z" fill="#C4C4C4"/>
<path d="M154.239 269.783C154.239 268.275 154.716 267.17 155.505 266.563C156.472 265.819 157.908 265.822 159.51 266.746L171.634 273.731C174.545 275.408 176.905 279.488 176.905 282.842V296.813C176.905 298.406 176.372 299.55 175.501 300.131C175.41 300.192 175.316 300.246 175.218 300.295C174.278 300.758 173.018 300.647 171.634 299.85L159.51 292.864C156.599 291.187 154.239 287.108 154.239 283.753L154.239 269.783Z" fill="#FF835E"/>
<path d="M154.239 269.783C154.239 268.275 154.716 267.17 155.505 266.563C156.472 265.819 157.908 265.822 159.51 266.746L171.634 273.731C174.545 275.408 176.905 279.488 176.905 282.842V296.813C176.905 298.406 176.372 299.55 175.501 300.131C175.41 300.192 175.316 300.246 175.218 300.295C174.278 300.758 173.018 300.647 171.634 299.85L159.51 292.864C156.599 291.187 154.239 287.108 154.239 283.753L154.239 269.783Z" fill="url(#paint11_linear_1_1407)" fill-opacity="0.75"/>
<path d="M154.239 269.783C154.239 268.275 154.716 267.17 155.505 266.563L150.914 269.158L154.239 269.783Z" fill="#C4C4C4"/>
<path d="M154.239 269.783C154.239 268.275 154.716 267.17 155.505 266.563L150.914 269.158L154.239 269.783Z" fill="#FF835E"/>
<path d="M154.239 269.783C154.239 268.275 154.716 267.17 155.505 266.563L150.914 269.158L154.239 269.783Z" fill="url(#paint12_linear_1_1407)" fill-opacity="0.75"/>
<path d="M175.218 300.295C174.278 300.758 173.018 300.647 171.634 299.85L170.848 302.781C172.096 302.073 174.41 300.757 175.218 300.295Z" fill="#C4C4C4"/>
<path d="M175.218 300.295C174.278 300.758 173.018 300.647 171.634 299.85L170.848 302.781C172.096 302.073 174.41 300.757 175.218 300.295Z" fill="#FF835E"/>
<path d="M175.218 300.295C174.278 300.758 173.018 300.647 171.634 299.85L170.848 302.781C172.096 302.073 174.41 300.757 175.218 300.295Z" fill="url(#paint13_linear_1_1407)" fill-opacity="0.75"/>
<g filter="url(#filter6_i_1_1407)">
<path d="M149.735 272.334C149.735 268.979 152.095 267.62 155.006 269.297L167.13 276.282C170.041 277.96 172.401 282.039 172.401 285.393V299.364C172.401 302.719 170.041 304.078 167.13 302.401L155.006 295.416C152.095 293.738 149.735 289.659 149.735 286.305L149.735 272.334Z" fill="#C4C4C4"/>
<path d="M149.735 272.334C149.735 268.979 152.095 267.62 155.006 269.297L167.13 276.282C170.041 277.96 172.401 282.039 172.401 285.393V299.364C172.401 302.719 170.041 304.078 167.13 302.401L155.006 295.416C152.095 293.738 149.735 289.659 149.735 286.305L149.735 272.334Z" fill="#FFB199"/>
<path d="M149.735 272.334C149.735 268.979 152.095 267.62 155.006 269.297L167.13 276.282C170.041 277.96 172.401 282.039 172.401 285.393V299.364C172.401 302.719 170.041 304.078 167.13 302.401L155.006 295.416C152.095 293.738 149.735 289.659 149.735 286.305L149.735 272.334Z" fill="url(#paint14_linear_1_1407)" fill-opacity="0.75"/>
</g>
<path fill-rule="evenodd" clip-rule="evenodd" d="M162.766 280.284L165.891 280.566L165.891 290.809C165.891 291.604 165.429 292.065 164.698 291.999L161.573 291.716L161.573 281.473C161.573 280.678 162.035 280.218 162.766 280.284ZM159.414 285.751L156.289 285.469C155.558 285.403 155.096 285.864 155.096 286.658L155.096 291.132L158.22 291.414C158.952 291.48 159.414 291.02 159.414 290.225L159.414 285.751Z" fill="white"/>
<path d="M186.56 288.071C186.56 286.563 187.037 285.458 187.826 284.851C188.793 284.108 190.228 284.11 191.831 285.034L203.954 292.019C206.866 293.696 209.225 297.776 209.225 301.13V315.101C209.225 316.694 208.693 317.838 207.822 318.419C207.731 318.48 207.637 318.534 207.539 318.583C206.598 319.046 205.339 318.935 203.954 318.138L191.831 311.153C188.92 309.475 186.56 305.396 186.56 302.042L186.56 288.071Z" fill="#C4C4C4"/>
<path d="M186.56 288.071C186.56 286.563 187.037 285.458 187.826 284.851C188.793 284.108 190.228 284.11 191.831 285.034L203.954 292.019C206.866 293.696 209.225 297.776 209.225 301.13V315.101C209.225 316.694 208.693 317.838 207.822 318.419C207.731 318.48 207.637 318.534 207.539 318.583C206.598 319.046 205.339 318.935 203.954 318.138L191.831 311.153C188.92 309.475 186.56 305.396 186.56 302.042L186.56 288.071Z" fill="#C5C5C5"/>
<path d="M186.56 288.071C186.56 286.563 187.037 285.458 187.826 284.851C188.793 284.108 190.228 284.11 191.831 285.034L203.954 292.019C206.866 293.696 209.225 297.776 209.225 301.13V315.101C209.225 316.694 208.693 317.838 207.822 318.419C207.731 318.48 207.637 318.534 207.539 318.583C206.598 319.046 205.339 318.935 203.954 318.138L191.831 311.153C188.92 309.475 186.56 305.396 186.56 302.042L186.56 288.071Z" fill="white" fill-opacity="0.75"/>
<path d="M123.893 256.101C123.893 254.594 124.37 253.489 125.159 252.882C126.126 252.138 127.561 252.141 129.164 253.064L141.287 260.05C144.198 261.727 146.558 265.806 146.558 269.161V283.131C146.558 284.725 146.026 285.868 145.155 286.45C145.064 286.51 144.97 286.565 144.872 286.613C143.931 287.077 142.672 286.966 141.287 286.168L129.164 279.183C126.253 277.506 123.893 273.427 123.893 270.072L123.893 256.101Z" fill="#C4C4C4"/>
<path d="M123.893 256.101C123.893 254.594 124.37 253.489 125.159 252.882C126.126 252.138 127.561 252.141 129.164 253.064L141.287 260.05C144.198 261.727 146.558 265.806 146.558 269.161V283.131C146.558 284.725 146.026 285.868 145.155 286.45C145.064 286.51 144.97 286.565 144.872 286.613C143.931 287.077 142.672 286.966 141.287 286.168L129.164 279.183C126.253 277.506 123.893 273.427 123.893 270.072L123.893 256.101Z" fill="#C5C5C5"/>
<path d="M123.893 256.101C123.893 254.594 124.37 253.489 125.159 252.882C126.126 252.138 127.561 252.141 129.164 253.064L141.287 260.05C144.198 261.727 146.558 265.806 146.558 269.161V283.131C146.558 284.725 146.026 285.868 145.155 286.45C145.064 286.51 144.97 286.565 144.872 286.613C143.931 287.077 142.672 286.966 141.287 286.168L129.164 279.183C126.253 277.506 123.893 273.427 123.893 270.072L123.893 256.101Z" fill="white" fill-opacity="0.75"/>
<path d="M203.543 229.292V271.372L152.023 241.861L203.543 229.292Z" fill="url(#paint15_linear_1_1407)"/>
<path d="M148.159 79.3446V189.09L203.543 221.151V111.393L148.159 79.3446Z" fill="url(#paint16_linear_1_1407)"/>
<path d="M148.159 79.3446V189.09L203.543 221.151V229.292L141.078 193.147V75.2477L148.159 79.3446Z" fill="white"/>
<path d="M148.159 79.3446V189.09L203.543 221.151V229.292L141.078 193.147V75.2477L148.159 79.3446Z" fill="url(#paint17_linear_1_1407)"/>
<mask id="mask0_1_1407" style="mask-type:luminance" maskUnits="userSpaceOnUse" x="41" y="134" width="163" height="164">
<path d="M203.543 134.442V163.12V257.918L150.902 297.315L73.2196 283.425L41.0443 229.345L203.543 134.442Z" fill="white"/>
</mask>
<g mask="url(#mask0_1_1407)">
<path d="M116.881 277.187L205.02 226.676L218.523 183.288L130.291 222.579C130.291 222.579 94.0677 249.711 93.6985 250.279C93.3292 250.848 113.096 275.746 113.096 275.746L116.867 277.187H116.881Z" fill="url(#paint18_linear_1_1407)"/>
<path d="M208.87 224.099L158.036 194.693L158.827 194.231L209.662 223.649L208.87 224.099Z" fill="#AFAFAF"/>
<path d="M132.612 209.468L133.403 209.006L184.172 238.385L183.381 238.834L132.612 209.468Z" fill="#AFAFAF"/>
<path d="M158.682 253.121L157.891 253.583L107.188 224.231L107.966 223.781L158.682 253.121Z" fill="#AFAFAF"/>
<path d="M133.535 268.055L132.77 268.53L81.7515 239.006L82.5427 238.557L133.535 268.055Z" fill="#AFAFAF"/>
<path d="M64.1076 249.09L113.637 277.729L111.5 269.574L112.41 263.799L113.478 258.182L120.507 251.35L133.496 243.222L220.619 192.843L209.661 175.94L209.279 171.248C214.923 167.984 208.554 163.292 208.554 155.812C208.554 151.662 207.116 148.451 204.624 147.01C202.475 145.768 212.048 138.79 209.345 140.349L70.3185 221.151C64.6747 224.416 60.244 232.847 60.244 240.328C60.244 244.438 61.6549 247.623 64.1076 249.09Z" fill="url(#paint19_linear_1_1407)"/>
<path d="M200.695 204.341L149.874 174.935L150.665 174.486L201.486 203.891L200.695 204.341Z" fill="#D1D4D6"/>
<path d="M124.437 189.711L125.228 189.248L175.996 218.627L175.218 219.09L124.437 189.711Z" fill="#D1D4D6"/>
<path d="M175.284 160.147L176.062 159.684L226.791 189.037L226.013 189.499L175.284 160.147Z" fill="#D1D4D6"/>
<path d="M150.52 233.376L149.728 233.825L99.0128 204.486L99.804 204.024L150.52 233.376Z" fill="#D1D4D6"/>
<path d="M125.36 248.31L124.608 248.773L73.5891 219.248L74.3671 218.799L125.36 248.31Z" fill="#D1D4D6"/>
<path d="M111.21 266.865C111.21 272.799 115.364 275.204 120.494 272.244C125.623 269.27 129.777 262.055 129.777 256.121C129.777 250.187 125.623 247.781 120.494 250.742C115.364 253.715 111.21 260.931 111.21 266.865Z" fill="url(#paint20_linear_1_1407)"/>
<path d="M114.797 264.79C114.797 268.438 117.355 269.905 120.494 268.094C123.645 266.271 126.19 261.843 126.19 258.196C126.19 254.548 123.632 253.081 120.494 254.892C117.342 256.715 114.797 261.143 114.797 264.79Z" fill="#AEAEAE"/>
<path d="M118.489 266.72C121.641 264.896 124.186 260.469 124.186 256.821C124.186 255.724 123.949 254.839 123.54 254.165C125.135 254.416 126.19 255.856 126.19 258.196C126.19 261.843 123.632 266.27 120.494 268.094C118.292 269.363 116.379 269.019 115.43 267.46C116.314 267.592 117.355 267.381 118.476 266.72H118.489Z" fill="url(#paint21_linear_1_1407)"/>
<path d="M113.637 277.742C111.144 276.301 109.707 273.09 109.707 268.94C109.707 261.46 114.138 253.028 119.782 249.764L246.571 176.112C249.274 174.552 251.938 174.367 254.087 175.609C256.579 177.05 258.017 180.261 258.017 184.411C258.017 191.891 253.586 200.323 247.942 203.587L121.153 277.24C119.637 278.112 118.133 278.561 116.735 278.561C115.628 278.561 114.586 278.284 113.637 277.742ZM119.782 274.874L246.571 201.222C251.371 198.446 255.287 190.9 255.287 184.411C255.287 181.266 254.351 178.926 252.716 177.975C251.094 177.037 249.221 177.724 247.929 178.477L121.14 252.129C116.34 254.905 112.423 262.451 112.423 268.94C112.423 272.085 113.36 274.425 114.995 275.376C116.617 276.315 118.489 275.627 119.782 274.874Z" fill="url(#paint22_linear_1_1407)"/>
</g>
<path opacity="0.5" d="M203.543 194.072L160.37 168.816L203.543 143.706V194.072Z" fill="#D8D8D8"/>
<g opacity="0.2">
<path opacity="0.09" d="M126.182 201.067C126.887 200.659 127.78 200.439 128.672 200.446C129.163 200.446 129.616 200.524 130.03 200.659C130.256 200.73 130.521 200.853 130.715 200.963L157.963 216.216C157.963 216.216 158.396 216.462 158.402 216.469C159.127 216.915 159.456 217.6 159.418 218.344C159.379 219.1 158.784 219.909 157.963 220.387L128.562 237.8C127.864 238.201 126.991 238.421 126.105 238.427C125.335 238.427 124.631 238.259 124.081 237.942L96.7234 222.631C96.7234 222.631 96.3484 222.417 96.3419 222.411C95.6113 221.965 95.2815 221.279 95.3203 220.529C95.3656 219.766 95.954 218.965 96.7752 218.486L126.176 201.073L126.182 201.067Z" fill="#777C9C"/>
<path opacity="0.18" d="M125.924 201.455C126.628 201.047 127.514 200.834 128.4 200.847C128.885 200.853 129.338 200.937 129.745 201.073C129.945 201.138 130.249 201.28 130.417 201.377L157.497 216.553C157.497 216.553 157.911 216.792 157.93 216.811C158.629 217.264 158.861 217.943 158.777 218.674C158.7 219.353 158.027 220.187 157.29 220.62L128.497 237.677C127.812 238.072 126.952 238.291 126.092 238.291C125.335 238.291 124.65 238.13 124.107 237.819L96.8719 222.56C96.8719 222.56 96.5098 222.353 96.4904 222.333C95.7791 221.881 95.5463 221.195 95.6304 220.458C95.708 219.779 96.3804 218.945 97.1176 218.518L125.911 201.461L125.924 201.455Z" fill="#777C9C"/>
<path opacity="0.27" d="M125.658 201.843C126.356 201.435 127.249 201.228 128.122 201.241C128.607 201.254 129.053 201.345 129.454 201.481C129.635 201.545 129.964 201.7 130.12 201.791L157.031 216.883C157.076 216.908 157.432 217.115 157.464 217.148C158.137 217.607 158.266 218.273 158.143 218.997C158.04 219.598 157.277 220.465 156.624 220.84L128.445 237.541C127.772 237.929 126.932 238.143 126.085 238.143C125.348 238.143 124.669 237.987 124.139 237.684L97.0202 222.476C96.9814 222.456 96.6711 222.275 96.6452 222.249C95.9533 221.784 95.824 221.111 95.9469 220.381C96.0503 219.779 96.8068 218.919 97.4664 218.538L125.645 201.836L125.658 201.843Z" fill="#777C9C"/>
<path opacity="0.36" d="M125.393 202.231C126.092 201.83 126.977 201.623 127.844 201.642C128.322 201.655 128.769 201.752 129.163 201.894C129.318 201.953 129.687 202.127 129.822 202.205L156.566 217.219C156.624 217.251 156.954 217.452 156.993 217.49C157.639 217.962 157.827 218.661 157.51 219.327C157.51 219.857 156.533 220.743 155.958 221.073L128.393 237.419C127.734 237.8 126.906 238.007 126.085 238.007C125.361 238.007 124.695 237.858 124.178 237.561L97.1822 222.405C97.1304 222.379 96.8459 222.204 96.8136 222.172C96.1476 221.7 95.9472 220.988 96.2769 220.31C96.2769 219.779 97.2533 218.893 97.8287 218.564L125.4 202.218L125.393 202.231Z" fill="#777C9C"/>
<path opacity="0.45" d="M125.128 202.619C125.82 202.218 126.712 202.017 127.566 202.043C128.044 202.063 128.484 202.166 128.872 202.308C129.008 202.36 129.402 202.561 129.519 202.625L156.094 217.562C156.171 217.607 156.469 217.788 156.514 217.84C157.128 218.318 157.258 219.023 156.863 219.663C156.863 220.122 155.771 221.027 155.279 221.312L128.322 237.302C127.676 237.677 126.868 237.878 126.059 237.878C125.355 237.878 124.702 237.735 124.197 237.445L97.3181 222.34C97.2534 222.301 96.9948 222.146 96.9495 222.101C96.3029 221.616 96.1671 220.905 96.5745 220.245C96.5745 219.786 97.6672 218.881 98.1587 218.596L125.115 202.606L125.128 202.619Z" fill="#777C9C"/>
<path opacity="0.55" d="M124.863 203.007C125.555 202.606 126.441 202.412 127.288 202.444C127.767 202.463 128.2 202.58 128.588 202.722C128.698 202.761 129.131 202.987 129.228 203.039L155.635 217.898C155.725 217.949 155.997 218.124 156.055 218.182C156.644 218.674 156.715 219.372 156.236 219.999C156.236 220.381 155.027 221.312 154.62 221.551L128.277 237.186C127.644 237.548 126.848 237.748 126.066 237.755C125.374 237.755 124.734 237.619 124.243 237.334L97.4863 222.275C97.4087 222.23 97.1759 222.088 97.1242 222.036C96.497 221.545 96.4194 220.82 96.9108 220.187C96.9108 219.805 98.12 218.874 98.5273 218.635L124.87 203L124.863 203.007Z" fill="#777C9C"/>
<path opacity="0.64" d="M124.598 203.394C125.284 203 126.176 202.806 127.01 202.845C127.482 202.871 127.915 202.994 128.297 203.136C128.387 203.168 128.853 203.414 128.93 203.459L155.169 218.24C155.273 218.299 155.519 218.46 155.583 218.531C156.146 219.029 156.152 219.734 155.596 220.335C155.596 220.639 154.277 221.596 153.947 221.79L128.219 237.069C127.598 237.425 126.823 237.619 126.053 237.625C125.381 237.625 124.747 237.496 124.269 237.218L97.6286 222.21C97.5446 222.159 97.3312 222.023 97.273 221.965C96.6652 221.46 96.6458 220.736 97.2277 220.122C97.2277 219.818 98.5468 218.861 98.8766 218.674L124.611 203.394H124.598Z" fill="#777C9C"/>
<path opacity="0.73" d="M124.339 203.782C125.025 203.388 125.911 203.2 126.738 203.246C127.21 203.272 127.637 203.401 128.012 203.55C128.077 203.576 128.575 203.841 128.633 203.879L154.704 218.583C154.826 218.654 155.04 218.796 155.111 218.881C155.648 219.385 155.596 220.096 154.956 220.672C154.956 220.898 153.52 221.881 153.275 222.023L128.154 236.946C127.553 237.296 126.783 237.483 126.04 237.49C125.38 237.496 124.76 237.367 124.294 237.095L97.7706 222.139C97.6736 222.081 97.4796 221.958 97.415 221.894C96.8266 221.383 96.8718 220.646 97.5314 220.057C97.5314 219.831 98.9668 218.848 99.2125 218.706L124.333 203.782H124.339Z" fill="#777C9C"/>
<path opacity="0.82" d="M124.074 204.17C124.753 203.776 125.646 203.601 126.46 203.647C126.932 203.679 127.353 203.815 127.721 203.963C127.766 203.983 128.297 204.274 128.335 204.293L154.238 218.919C154.374 218.997 154.561 219.133 154.646 219.223C155.156 219.74 155.04 220.452 154.329 221.001C154.329 221.157 152.777 222.165 152.615 222.256L128.109 236.824C127.521 237.166 126.771 237.347 126.046 237.354C125.406 237.36 124.799 237.231 124.339 236.972L97.9388 222.068C97.8289 222.004 97.6608 221.894 97.5897 221.816C97.0206 221.292 97.1241 220.555 97.8677 219.986C97.8677 219.831 99.4195 218.829 99.5812 218.732L124.087 204.164L124.074 204.17Z" fill="#777C9C"/>
<path opacity="0.91" d="M123.809 204.558C124.488 204.17 125.374 203.996 126.182 204.047C126.648 204.08 127.068 204.229 127.43 204.384C127.45 204.39 128.012 204.707 128.031 204.72L153.766 219.262C153.915 219.346 154.076 219.469 154.167 219.572C154.645 220.096 154.477 220.814 153.682 221.344C153.682 221.422 152.014 222.456 151.936 222.501L128.044 236.714C127.469 237.05 126.732 237.224 126.027 237.231C125.4 237.237 124.805 237.115 124.359 236.862L98.0746 222.01C97.9517 221.939 97.8095 221.842 97.7254 221.751C97.1823 221.221 97.3375 220.478 98.1651 219.928C98.1651 219.85 99.8268 218.816 99.9109 218.771L123.809 204.558Z" fill="#777C9C"/>
<path d="M124.385 236.74L98.2234 221.939C97.2987 221.409 97.4151 220.478 98.482 219.863L123.544 204.953C124.611 204.339 126.221 204.274 127.139 204.804L153.301 219.605C154.225 220.135 154.109 221.066 153.042 221.68L127.98 236.591C126.913 237.205 125.303 237.27 124.385 236.74Z" fill="#777C9C"/>
</g>
<path d="M125.73 200.51V237.936L154.083 221.512V183.841L125.73 200.51Z" fill="url(#paint23_linear_1_1407)"/>
<path d="M125.762 200.511V237.936L97.2601 221.467V183.796L125.762 200.511Z" fill="url(#paint24_linear_1_1407)"/>
<path d="M97.2601 183.796L125.762 200.511L154.083 183.841L125.516 167.217L97.2601 183.796Z" fill="url(#paint25_linear_1_1407)"/>
<path d="M137.659 193.585V230.998L142.871 228.146V190.482L137.659 193.585Z" fill="url(#paint26_linear_1_1407)"/>
<path d="M108.957 176.78L137.692 193.585L142.871 190.482L114.072 173.761L108.957 176.78Z" fill="url(#paint27_linear_1_1407)"/>
<path d="M113.852 193.663V231.075L108.802 228.301V190.637L113.852 193.663Z" fill="url(#paint28_linear_1_1407)"/>
<path d="M142.321 176.948L113.819 193.663L108.802 190.637L137.362 174.013L142.321 176.948Z" fill="#FFF0EB"/>
<path d="M129.739 184.294L125.135 181.643C125.135 181.643 129.771 175.087 134.084 173.018C136.67 171.77 139.651 173.354 140.582 175.281C141.138 176.438 139.865 178.404 138.416 179.277C134.556 181.611 129.745 184.294 129.745 184.294H129.739Z" fill="url(#paint29_linear_1_1407)"/>
<path d="M138.442 175.739C139.147 175.403 139.884 175.274 140.595 175.306C139.683 173.366 136.683 171.763 134.084 173.017C129.771 175.093 125.135 181.643 125.135 181.643L129.603 184.216C130.301 183.259 134.498 177.64 138.442 175.739Z" fill="url(#paint30_linear_1_1407)"/>
<path style="mix-blend-mode:color-dodge" d="M140.453 175.041C139.741 175.015 139.011 175.138 138.312 175.474C134.375 177.369 129.609 184.216 129.609 184.216C130.308 183.259 134.504 177.64 138.448 175.739C139.153 175.403 139.89 175.274 140.601 175.306C140.556 175.216 140.511 175.132 140.459 175.041H140.453Z" fill="url(#paint31_radial_1_1407)"/>
<path d="M121.779 184.488L126.383 181.837C126.383 181.837 121.747 175.281 117.434 173.212C114.847 171.964 111.867 173.548 110.935 175.475C110.379 176.632 111.653 178.598 113.102 179.471C116.962 181.805 121.772 184.488 121.772 184.488H121.779Z" fill="url(#paint32_linear_1_1407)"/>
<path d="M113.082 175.933C112.377 175.597 111.64 175.468 110.929 175.5C111.841 173.56 114.841 171.957 117.44 173.211C121.753 175.287 126.389 181.837 126.389 181.837L121.921 184.41C121.223 183.453 117.027 177.834 113.082 175.933Z" fill="url(#paint33_linear_1_1407)"/>
<path style="mix-blend-mode:color-dodge" d="M111.071 175.235C111.782 175.209 112.513 175.332 113.211 175.668C117.149 177.563 121.915 184.41 121.915 184.41C121.216 183.453 117.02 177.834 113.076 175.933C112.371 175.597 111.634 175.468 110.922 175.5C110.968 175.409 111.013 175.325 111.065 175.235H111.071Z" fill="url(#paint34_radial_1_1407)"/>
<path d="M128.665 183.318C128.665 183.318 132.448 182.568 135.461 183.421C139.308 184.507 141.862 188.251 139.948 189.738C138.035 191.226 136.069 192.609 133.974 191.465C131.879 190.32 124.443 186.046 124.443 186.046L128.665 183.311V183.318Z" fill="url(#paint35_linear_1_1407)"/>
<path d="M131.452 186.053C128.433 185.199 124.656 185.95 124.656 185.95L124.469 186.072L124.443 186.059L128.665 183.324C128.665 183.324 132.448 182.574 135.461 183.428C139.308 184.514 141.862 188.258 139.948 189.745C138.797 190.644 137.621 191.497 136.412 191.788C137.246 190.075 134.86 187.023 131.446 186.059L131.452 186.053Z" fill="url(#paint36_linear_1_1407)"/>
<path style="mix-blend-mode:color-dodge" d="M124.812 185.891L124.837 185.904C124.837 185.904 128.801 185.038 131.821 185.891C135.235 186.854 137.621 189.906 136.787 191.62C137 191.568 136.748 191.697 136.418 191.782C137.252 190.068 134.866 187.016 131.452 186.053C128.433 185.199 124.656 185.949 124.656 185.949L124.469 186.072L124.443 186.059L124.818 185.898L124.812 185.891Z" fill="url(#paint37_radial_1_1407)"/>
<path d="M128.322 183.473L127.094 182.419C126.37 181.798 125.296 181.818 124.592 182.464L123.279 183.667L125.665 185.393L128.329 183.473H128.322Z" fill="url(#paint38_linear_1_1407)"/>
<path d="M122.549 183.318C122.549 183.318 118.766 182.568 115.753 183.421C111.906 184.507 109.352 188.251 111.266 189.738C113.179 191.226 115.145 192.609 117.24 191.465C119.335 190.32 126.771 186.046 126.771 186.046L122.549 183.311V183.318Z" fill="url(#paint39_linear_1_1407)"/>
<path d="M119.755 186.053C122.775 185.199 126.551 185.95 126.551 185.95L126.739 186.072L126.764 186.059L122.542 183.324C122.542 183.324 118.76 182.574 115.746 183.428C111.899 184.514 109.345 188.258 111.259 189.745C112.41 190.644 113.587 191.497 114.796 191.788C113.962 190.075 116.348 187.023 119.762 186.059L119.755 186.053Z" fill="url(#paint40_linear_1_1407)"/>
<path style="mix-blend-mode:color-dodge" d="M126.396 185.891L126.37 185.904C126.37 185.904 122.406 185.038 119.387 185.891C115.973 186.854 113.587 189.906 114.421 191.62C114.208 191.568 114.46 191.697 114.79 191.782C113.955 190.068 116.341 187.016 119.755 186.053C122.775 185.199 126.551 185.949 126.551 185.949L126.739 186.072L126.765 186.059L126.396 185.898V185.891Z" fill="url(#paint41_radial_1_1407)"/>
<path style="mix-blend-mode:color-dodge" opacity="0.5" d="M97.2601 183.796L125.536 200.575L125.762 237.936L125.924 200.627L154.083 183.841L125.794 200.342L97.2601 183.796Z" fill="url(#paint42_radial_1_1407)"/>
<path d="M198.615 171.615V176.762C198.615 177.4 198.361 177.961 197.597 178.4L183.55 186.422C182.907 186.786 182.096 186.983 181.308 187V181.605C182.093 181.586 182.909 181.387 183.552 181.02L197.596 172.971C198.27 172.584 198.615 172.087 198.615 171.615Z" fill="white"/>
<path d="M198.615 171.615V176.762C198.615 177.4 198.361 177.961 197.597 178.4L183.55 186.422C182.907 186.786 182.096 186.983 181.308 187V181.605C182.093 181.586 182.909 181.387 183.552 181.02L197.596 172.971C198.27 172.584 198.615 172.087 198.615 171.615Z" fill="url(#paint43_linear_1_1407)" fill-opacity="0.6"/>
<path d="M164 171.615V176.762C164 177.4 164.254 177.961 165.019 178.4L179.066 186.422C179.708 186.786 180.52 186.983 181.308 187V181.605C180.522 181.586 179.706 181.387 179.063 181.02L165.019 172.971C164.346 172.584 164 172.087 164 171.615Z" fill="white"/>
<path d="M164 171.615V176.762C164 177.4 164.254 177.961 165.019 178.4L179.066 186.422C179.708 186.786 180.52 186.983 181.308 187V181.605C180.522 181.586 179.706 181.387 179.063 181.02L165.019 172.971C164.346 172.584 164 172.087 164 171.615Z" fill="url(#paint44_linear_1_1407)" fill-opacity="0.2"/>
<g filter="url(#filter7_i_1_1407)">
<path d="M197.894 173.053L183.249 181.458C182.18 182.073 180.301 181.992 179.063 181.284L165.019 173.222C163.787 172.513 163.653 171.434 164.721 170.819L179.367 162.414C180.435 161.799 182.315 161.88 183.552 162.588L197.596 170.65C198.828 171.358 198.962 172.444 197.894 173.053Z" fill="white"/>
<path d="M197.894 173.053L183.249 181.458C182.18 182.073 180.301 181.992 179.063 181.284L165.019 173.222C163.787 172.513 163.653 171.434 164.721 170.819L179.367 162.414C180.435 161.799 182.315 161.88 183.552 162.588L197.596 170.65C198.828 171.358 198.962 172.444 197.894 173.053Z" fill="url(#paint45_linear_1_1407)" fill-opacity="0.6"/>
</g>
<path d="M191.817 171.914C192.382 172.24 192.293 172.474 191.64 172.745C191.617 172.756 191.594 172.767 191.578 172.781C191.149 173.134 190.793 173.135 190.261 172.829C190.245 172.82 190.227 172.809 190.211 172.799C189.304 172.255 188.386 171.718 187.461 171.184C186.396 170.569 185.322 169.958 184.254 169.345C182.763 168.491 181.929 168.494 180.444 169.345C179.774 169.729 179.12 170.125 178.441 170.502C178.175 170.649 178.095 170.773 178.34 170.913C178.365 170.927 178.393 170.941 178.425 170.957C178.466 170.977 178.505 170.996 178.542 171.019C178.609 171.058 178.673 171.099 178.741 171.138C178.801 171.174 178.859 171.207 178.914 171.239C179.944 171.835 180.006 171.803 181.23 171.198C182.311 170.665 183.679 170.669 184.751 171.26C185.352 171.592 185.942 171.93 186.531 172.269C186.812 172.432 187.094 172.595 187.376 172.758C187.61 172.894 187.844 173.029 188.079 173.165C188.42 173.362 188.762 173.559 189.106 173.752C189.396 173.92 189.417 174.027 189.13 174.211C188.064 174.902 188.079 174.909 186.968 174.268C186.882 174.218 186.795 174.168 186.708 174.119C186.534 174.02 186.362 173.919 186.189 173.819C185.969 173.692 185.749 173.564 185.528 173.437C185.065 173.169 184.599 172.903 184.128 172.643C183.415 172.247 182.527 172.361 182.099 172.864C181.991 172.99 182.056 173.064 182.162 173.126C182.196 173.146 182.235 173.164 182.272 173.181C182.311 173.199 182.349 173.219 182.384 173.238C183.07 173.64 183.75 174.043 184.441 174.441C184.966 174.744 185.496 175.044 186.036 175.338C186.057 175.35 186.079 175.361 186.098 175.372C186.534 175.623 186.524 175.801 186.019 176.017C185.855 176.086 185.705 176.176 185.583 176.27C185.26 176.518 184.996 176.501 184.633 176.291C184.243 176.057 183.878 175.847 183.513 175.636C183.295 175.51 183.077 175.384 182.859 175.26C182.657 175.143 182.453 175.028 182.251 174.911C181.822 174.663 181.395 174.413 180.975 174.161C180.961 174.152 180.947 174.145 180.934 174.137C180.529 173.903 180.254 173.897 179.848 174.156C179.217 174.562 178.51 174.927 177.863 175.324C177.523 175.535 177.284 175.588 176.862 175.356C176.644 175.237 176.458 175.136 176.306 175.047C175.446 174.551 175.615 174.456 176.798 173.766C177.234 173.513 177.656 173.249 178.113 173.008C178.462 172.825 178.414 172.699 178.108 172.506C177.837 172.334 177.617 172.194 177.427 172.086C176.577 171.595 176.357 171.721 175.122 172.439C175.017 172.499 174.915 172.559 174.81 172.62C173.681 173.275 173.414 173.431 172.746 173.045C172.533 172.923 172.281 172.745 171.946 172.512C171.704 172.343 171.696 172.24 171.962 172.086C174.47 170.64 176.922 169.162 179.481 167.75C181.097 166.857 182.947 166.915 184.626 167.791C184.67 167.814 184.714 167.837 184.755 167.86C185.928 168.537 187.101 169.215 188.274 169.891C188.615 170.087 188.95 170.286 189.286 170.484C189.612 170.677 189.938 170.869 190.266 171.058C190.729 171.324 191.197 171.587 191.684 171.836C191.73 171.866 191.776 171.89 191.817 171.914Z" fill="#FF6700"/>
<path d="M180.613 147.898V173.553L203.224 162.294V135.567L180.613 147.898Z" fill="url(#paint46_linear_1_1407)"/>
<path d="M180.613 147.919V173.553L158.002 162.273L158.454 135.114L180.613 147.919Z" fill="url(#paint47_linear_1_1407)"/>
<path d="M158.454 135.114L180.887 148.734L203.224 135.567L180.69 122L158.454 135.114Z" fill="url(#paint48_linear_1_1407)"/>
<path d="M190.562 143.141V169.031L194.179 167.058V140.541L190.562 143.141Z" fill="url(#paint49_linear_1_1407)"/>
<path d="M167.393 129.679L190.467 143.174L194.626 140.681L171.5 127.254L167.393 129.679Z" fill="url(#paint50_linear_1_1407)"/>
<path d="M171.568 143.091V169.031L167.046 167.108L167.498 140.541L171.568 143.091Z" fill="url(#paint51_linear_1_1407)"/>
<path d="M194.184 129.814L171.297 143.236L167.268 140.806L190.202 127.457L194.184 129.814Z" fill="#FFF0EB"/>
<path style="mix-blend-mode:color-dodge" opacity="0.5" d="M158 135.313L180.705 148.786L180.887 178.787L181.017 148.828L203.629 135.349L180.913 148.599L158 135.313Z" fill="url(#paint52_radial_1_1407)"/>
<path d="M180.613 147.898V173.553L203.224 162.294V135.567L180.613 147.898Z" fill="url(#paint53_linear_1_1407)" fill-opacity="0.3"/>
<path d="M180.613 147.919V173.553L158.002 162.273L158.454 135.114L180.613 147.919Z" fill="url(#paint54_linear_1_1407)" fill-opacity="0.3"/>
<path d="M158.454 135.114L180.887 148.734L203.224 135.567L180.69 122L158.454 135.114Z" fill="url(#paint55_linear_1_1407)" fill-opacity="0.3"/>
<path d="M190.562 143.141V169.031L194.179 167.058V140.541L190.562 143.141Z" fill="url(#paint56_linear_1_1407)" fill-opacity="0.3"/>
<path d="M167.393 129.679L190.467 143.174L194.626 140.681L171.5 127.254L167.393 129.679Z" fill="url(#paint57_linear_1_1407)" fill-opacity="0.3"/>
<path d="M171.568 143.091V169.031L167.046 167.108L167.498 140.541L171.568 143.091Z" fill="url(#paint58_linear_1_1407)" fill-opacity="0.3"/>
<path d="M194.184 129.814L171.297 143.236L167.268 140.806L190.202 127.457L194.184 129.814Z" fill="url(#paint59_linear_1_1407)" fill-opacity="0.3"/>
<g style="mix-blend-mode:color-dodge" opacity="0.5">
<path d="M158 135.313L180.705 148.786L180.887 178.787L181.017 148.828L203.629 135.349L180.913 148.599L158 135.313Z" fill="url(#paint60_linear_1_1407)" fill-opacity="0.3"/>
</g>
<g filter="url(#filter8_i_1_1407)">
<path d="M274.388 210.255V315.45C274.388 316.667 274.928 317.736 276.554 318.574L306.411 333.878C307.776 334.572 309.501 334.946 311.177 334.979V229.312C309.507 229.274 307.772 228.896 306.406 228.195L276.554 212.841C275.123 212.104 274.389 211.155 274.388 210.255Z" fill="white"/>
<path d="M274.388 210.255V315.45C274.388 316.667 274.928 317.736 276.554 318.574L306.411 333.878C307.776 334.572 309.501 334.946 311.177 334.979V229.312C309.507 229.274 307.772 228.896 306.406 228.195L276.554 212.841C275.123 212.104 274.389 211.155 274.388 210.255Z" fill="url(#paint61_linear_1_1407)" fill-opacity="0.2"/>
</g>
<g filter="url(#filter9_i_1_1407)">
<path d="M346.432 212.998L315.302 229.03C313.032 230.204 309.036 230.049 306.406 228.698L276.554 213.319C273.936 211.968 273.651 209.909 275.921 208.735L307.051 192.703C309.322 191.529 313.317 191.684 315.947 193.035L345.799 208.414C348.417 209.765 348.703 211.835 346.432 212.998Z" fill="white"/>
<path d="M346.432 212.998L315.302 229.03C313.032 230.204 309.036 230.049 306.406 228.698L276.554 213.319C273.936 211.968 273.651 209.909 275.921 208.735L307.051 192.703C309.322 191.529 313.317 191.684 315.947 193.035L345.799 208.414C348.417 209.765 348.703 211.835 346.432 212.998Z" fill="url(#paint62_linear_1_1407)" fill-opacity="0.6"/>
</g>
<g filter="url(#filter10_i_1_1407)">
<path d="M288.98 325.772V420.421C288.98 421.255 289.52 421.987 291.146 422.561L321.004 433.041C322.369 433.517 324.094 433.773 325.769 433.796V338.823C324.099 338.797 322.365 338.538 320.998 338.058L291.146 327.543C289.715 327.038 288.981 326.389 288.98 325.772Z" fill="#FFB199"/>
<path d="M288.98 325.772V420.421C288.98 421.255 289.52 421.987 291.146 422.561L321.004 433.041C322.369 433.517 324.094 433.773 325.769 433.796V338.823C324.099 338.797 322.365 338.538 320.998 338.058L291.146 327.543C289.715 327.038 288.981 326.389 288.98 325.772Z" fill="url(#paint63_linear_1_1407)" fill-opacity="0.75"/>
</g>
<g filter="url(#filter11_i_1_1407)">
<path d="M361.025 327.651L329.895 338.63C327.624 339.434 323.629 339.328 320.998 338.403L291.146 327.871C288.528 326.946 288.243 325.535 290.514 324.732L321.644 313.752C323.914 312.949 327.909 313.055 330.54 313.98L360.392 324.512C363.01 325.437 363.295 326.855 361.025 327.651Z" fill="#FF835E"/>
<path d="M361.025 327.651L329.895 338.63C327.624 339.434 323.629 339.328 320.998 338.403L291.146 327.871C288.528 326.946 288.243 325.535 290.514 324.732L321.644 313.752C323.914 312.949 327.909 313.055 330.54 313.98L360.392 324.512C363.01 325.437 363.295 326.855 361.025 327.651Z" fill="url(#paint64_linear_1_1407)" fill-opacity="0.75"/>
</g>
<path d="M256.906 412.123V460.8L294.15 439.058V390.056L256.906 412.123Z" fill="white"/>
<path d="M256.906 412.123V460.8L294.15 439.058V390.056L256.906 412.123Z" fill="url(#paint65_linear_1_1407)" fill-opacity="0.6"/>
<path d="M256.906 412.123V460.8L219.663 439.058V390.056L256.906 412.123Z" fill="white"/>
<path d="M256.906 412.123V460.8L219.663 439.058V390.056L256.906 412.123Z" fill="url(#paint66_linear_1_1407)" fill-opacity="0.2"/>
<path d="M219.663 390.056L256.906 412.123L294.15 390.056L256.583 368.638L219.663 390.056Z" fill="white"/>
<path d="M219.663 390.056L256.906 412.123L294.15 390.056L256.583 368.638L219.663 390.056Z" fill="url(#paint67_linear_1_1407)" fill-opacity="0.6"/>
<defs>
<filter id="filter0_i_1_1407" x="85.0031" y="81.2209" width="28.625" height="84.0529" filterUnits="userSpaceOnUse" color-interpolation-filters="sRGB">
<feFlood flood-opacity="0" result="BackgroundImageFix"/>
<feBlend mode="normal" in="SourceGraphic" in2="BackgroundImageFix" result="shape"/>
<feColorMatrix in="SourceAlpha" type="matrix" values="0 0 0 0 0 0 0 0 0 0 0 0 0 0 0 0 0 0 127 0" result="hardAlpha"/>
<feOffset dx="-2"/>
<feComposite in2="hardAlpha" operator="arithmetic" k2="-1" k3="1"/>
<feColorMatrix type="matrix" values="0 0 0 0 1 0 0 0 0 0.73 0 0 0 0 0.475 0 0 0 1 0"/>
<feBlend mode="normal" in2="shape" result="effect1_innerShadow_1_1407"/>
</filter>
<filter id="filter1_i_1_1407" x="85.0031" y="71.4474" width="57.25" height="20.1987" filterUnits="userSpaceOnUse" color-interpolation-filters="sRGB">
<feFlood flood-opacity="0" result="BackgroundImageFix"/>
<feBlend mode="normal" in="SourceGraphic" in2="BackgroundImageFix" result="shape"/>
<feColorMatrix in="SourceAlpha" type="matrix" values="0 0 0 0 0 0 0 0 0 0 0 0 0 0 0 0 0 0 127 0" result="hardAlpha"/>
<feOffset dy="-2"/>
<feComposite in2="hardAlpha" operator="arithmetic" k2="-1" k3="1"/>
<feColorMatrix type="matrix" values="0 0 0 0 1 0 0 0 0 0.73 0 0 0 0 0.475 0 0 0 1 0"/>
<feBlend mode="normal" in2="shape" result="effect1_innerShadow_1_1407"/>
</filter>
<filter id="filter2_i_1_1407" x="37.185" y="118.47" width="22.3331" height="75.7163" filterUnits="userSpaceOnUse" color-interpolation-filters="sRGB">
<feFlood flood-opacity="0" result="BackgroundImageFix"/>
<feBlend mode="normal" in="SourceGraphic" in2="BackgroundImageFix" result="shape"/>
<feColorMatrix in="SourceAlpha" type="matrix" values="0 0 0 0 0 0 0 0 0 0 0 0 0 0 0 0 0 0 127 0" result="hardAlpha"/>
<feOffset dx="-2"/>
<feComposite in2="hardAlpha" operator="arithmetic" k2="-1" k3="1"/>
<feColorMatrix type="matrix" values="0 0 0 0 1 0 0 0 0 1 0 0 0 0 1 0 0 0 1 0"/>
<feBlend mode="normal" in2="shape" result="effect1_innerShadow_1_1407"/>
</filter>
<filter id="filter3_i_1_1407" x="37.1848" y="107.335" width="44.6663" height="23.0118" filterUnits="userSpaceOnUse" color-interpolation-filters="sRGB">
<feFlood flood-opacity="0" result="BackgroundImageFix"/>
<feBlend mode="normal" in="SourceGraphic" in2="BackgroundImageFix" result="shape"/>
<feColorMatrix in="SourceAlpha" type="matrix" values="0 0 0 0 0 0 0 0 0 0 0 0 0 0 0 0 0 0 127 0" result="hardAlpha"/>
<feOffset dy="-2"/>
<feComposite in2="hardAlpha" operator="arithmetic" k2="-1" k3="1"/>
<feColorMatrix type="matrix" values="0 0 0 0 1 0 0 0 0 1 0 0 0 0 1 0 0 0 1 0"/>
<feBlend mode="normal" in2="shape" result="effect1_innerShadow_1_1407"/>
</filter>
<filter id="filter4_i_1_1407" x="0.000183105" y="167.057" width="16.621" height="48.8049" filterUnits="userSpaceOnUse" color-interpolation-filters="sRGB">
<feFlood flood-opacity="0" result="BackgroundImageFix"/>
<feBlend mode="normal" in="SourceGraphic" in2="BackgroundImageFix" result="shape"/>
<feColorMatrix in="SourceAlpha" type="matrix" values="0 0 0 0 0 0 0 0 0 0 0 0 0 0 0 0 0 0 127 0" result="hardAlpha"/>
<feOffset dx="-2"/>
<feComposite in2="hardAlpha" operator="arithmetic" k2="-1" k3="1"/>
<feColorMatrix type="matrix" values="0 0 0 0 1 0 0 0 0 0.73 0 0 0 0 0.475 0 0 0 1 0"/>
<feBlend mode="normal" in2="shape" result="effect1_innerShadow_1_1407"/>
</filter>
<filter id="filter5_i_1_1407" x="0.00012207" y="161.382" width="33.2419" height="11.7283" filterUnits="userSpaceOnUse" color-interpolation-filters="sRGB">
<feFlood flood-opacity="0" result="BackgroundImageFix"/>
<feBlend mode="normal" in="SourceGraphic" in2="BackgroundImageFix" result="shape"/>
<feColorMatrix in="SourceAlpha" type="matrix" values="0 0 0 0 0 0 0 0 0 0 0 0 0 0 0 0 0 0 127 0" result="hardAlpha"/>
<feOffset dy="-2"/>
<feComposite in2="hardAlpha" operator="arithmetic" k2="-1" k3="1"/>
<feColorMatrix type="matrix" values="0 0 0 0 1 0 0 0 0 0.73 0 0 0 0 0.475 0 0 0 1 0"/>
<feBlend mode="normal" in2="shape" result="effect1_innerShadow_1_1407"/>
</filter>
<filter id="filter6_i_1_1407" x="149.735" y="268.579" width="22.6655" height="34.5409" filterUnits="userSpaceOnUse" color-interpolation-filters="sRGB">
<feFlood flood-opacity="0" result="BackgroundImageFix"/>
<feBlend mode="normal" in="SourceGraphic" in2="BackgroundImageFix" result="shape"/>
<feColorMatrix in="SourceAlpha" type="matrix" values="0 0 0 0 0 0 0 0 0 0 0 0 0 0 0 0 0 0 127 0" result="hardAlpha"/>
<feOffset dx="-2"/>
<feComposite in2="hardAlpha" operator="arithmetic" k2="-1" k3="1"/>
<feColorMatrix type="matrix" values="0 0 0 0 1 0 0 0 0 0.73 0 0 0 0 0.475 0 0 0 1 0"/>
<feBlend mode="normal" in2="shape" result="effect1_innerShadow_1_1407"/>
</filter>
<filter id="filter7_i_1_1407" x="164" y="162" width="34.6154" height="19.8718" filterUnits="userSpaceOnUse" color-interpolation-filters="sRGB">
<feFlood flood-opacity="0" result="BackgroundImageFix"/>
<feBlend mode="normal" in="SourceGraphic" in2="BackgroundImageFix" result="shape"/>
<feColorMatrix in="SourceAlpha" type="matrix" values="0 0 0 0 0 0 0 0 0 0 0 0 0 0 0 0 0 0 127 0" result="hardAlpha"/>
<feOffset dy="-2"/>
<feComposite in2="hardAlpha" operator="arithmetic" k2="-1" k3="1"/>
<feColorMatrix type="matrix" values="0 0 0 0 1 0 0 0 0 1 0 0 0 0 1 0 0 0 1 0"/>
<feBlend mode="normal" in2="shape" result="effect1_innerShadow_1_1407"/>
</filter>
<filter id="filter8_i_1_1407" x="274.388" y="210.255" width="36.7885" height="124.724" filterUnits="userSpaceOnUse" color-interpolation-filters="sRGB">
<feFlood flood-opacity="0" result="BackgroundImageFix"/>
<feBlend mode="normal" in="SourceGraphic" in2="BackgroundImageFix" result="shape"/>
<feColorMatrix in="SourceAlpha" type="matrix" values="0 0 0 0 0 0 0 0 0 0 0 0 0 0 0 0 0 0 127 0" result="hardAlpha"/>
<feOffset dx="-2"/>
<feComposite in2="hardAlpha" operator="arithmetic" k2="-1" k3="1"/>
<feColorMatrix type="matrix" values="0 0 0 0 1 0 0 0 0 1 0 0 0 0 1 0 0 0 1 0"/>
<feBlend mode="normal" in2="shape" result="effect1_innerShadow_1_1407"/>
</filter>
<filter id="filter9_i_1_1407" x="274.388" y="191.913" width="73.5768" height="37.9064" filterUnits="userSpaceOnUse" color-interpolation-filters="sRGB">
<feFlood flood-opacity="0" result="BackgroundImageFix"/>
<feBlend mode="normal" in="SourceGraphic" in2="BackgroundImageFix" result="shape"/>
<feColorMatrix in="SourceAlpha" type="matrix" values="0 0 0 0 0 0 0 0 0 0 0 0 0 0 0 0 0 0 127 0" result="hardAlpha"/>
<feOffset dy="-2"/>
<feComposite in2="hardAlpha" operator="arithmetic" k2="-1" k3="1"/>
<feColorMatrix type="matrix" values="0 0 0 0 1 0 0 0 0 1 0 0 0 0 1 0 0 0 1 0"/>
<feBlend mode="normal" in2="shape" result="effect1_innerShadow_1_1407"/>
</filter>
<filter id="filter10_i_1_1407" x="288.98" y="325.772" width="36.7885" height="108.023" filterUnits="userSpaceOnUse" color-interpolation-filters="sRGB">
<feFlood flood-opacity="0" result="BackgroundImageFix"/>
<feBlend mode="normal" in="SourceGraphic" in2="BackgroundImageFix" result="shape"/>
<feColorMatrix in="SourceAlpha" type="matrix" values="0 0 0 0 0 0 0 0 0 0 0 0 0 0 0 0 0 0 127 0" result="hardAlpha"/>
<feOffset dx="-2"/>
<feComposite in2="hardAlpha" operator="arithmetic" k2="-1" k3="1"/>
<feColorMatrix type="matrix" values="0 0 0 0 1 0 0 0 0 0.73 0 0 0 0 0.475 0 0 0 1 0"/>
<feBlend mode="normal" in2="shape" result="effect1_innerShadow_1_1407"/>
</filter>
<filter id="filter11_i_1_1407" x="288.981" y="313.212" width="73.5768" height="25.9591" filterUnits="userSpaceOnUse" color-interpolation-filters="sRGB">
<feFlood flood-opacity="0" result="BackgroundImageFix"/>
<feBlend mode="normal" in="SourceGraphic" in2="BackgroundImageFix" result="shape"/>
<feColorMatrix in="SourceAlpha" type="matrix" values="0 0 0 0 0 0 0 0 0 0 0 0 0 0 0 0 0 0 127 0" result="hardAlpha"/>
<feOffset dy="-2"/>
<feComposite in2="hardAlpha" operator="arithmetic" k2="-1" k3="1"/>
<feColorMatrix type="matrix" values="0 0 0 0 1 0 0 0 0 0.73 0 0 0 0 0.475 0 0 0 1 0"/>
<feBlend mode="normal" in2="shape" result="effect1_innerShadow_1_1407"/>
</filter>
<linearGradient id="paint0_linear_1_1407" x1="255.702" y1="220.393" x2="345.864" y2="215.762" gradientUnits="userSpaceOnUse">
<stop stop-color="#CCD1D3" stop-opacity="0.36"/>
<stop offset="1" stop-color="#C3C6CA"/>
</linearGradient>
<linearGradient id="paint1_linear_1_1407" x1="326.794" y1="425.075" x2="369.418" y2="360.641" gradientUnits="userSpaceOnUse">
<stop stop-color="#FF4810"/>
<stop offset="1" stop-color="#FFB950"/>
</linearGradient>
<linearGradient id="paint2_linear_1_1407" x1="114.426" y1="158.488" x2="147.592" y2="108.352" gradientUnits="userSpaceOnUse">
<stop stop-color="#FF4810"/>
<stop offset="1" stop-color="#FFB950"/>
</linearGradient>
<linearGradient id="paint3_linear_1_1407" x1="99.3156" y1="154.201" x2="126.289" y2="107.34" gradientUnits="userSpaceOnUse">
<stop stop-color="#FF4810"/>
<stop offset="1" stop-color="#FFB950"/>
</linearGradient>
<linearGradient id="paint4_linear_1_1407" x1="140.657" y1="91.6461" x2="139.04" y2="72.9444" gradientUnits="userSpaceOnUse">
<stop stop-color="#FF4810"/>
<stop offset="1" stop-color="#FFB950"/>
</linearGradient>
<linearGradient id="paint5_linear_1_1407" x1="25.8409" y1="124.624" x2="80.5753" y2="121.813" gradientUnits="userSpaceOnUse">
<stop stop-color="#CCD1D3" stop-opacity="0.36"/>
<stop offset="1" stop-color="#C3C6CA"/>
</linearGradient>
<linearGradient id="paint6_linear_1_1407" x1="64.4622" y1="157.586" x2="38.6039" y2="157.947" gradientUnits="userSpaceOnUse">
<stop stop-color="#BDC6CB" stop-opacity="0.36"/>
<stop offset="1" stop-color="#B7BEC8"/>
</linearGradient>
<linearGradient id="paint7_linear_1_1407" x1="72.5757" y1="105.383" x2="57.6095" y2="164.386" gradientUnits="userSpaceOnUse">
<stop stop-color="#CCD1D3" stop-opacity="0.36"/>
<stop offset="1" stop-color="#C3C6CA"/>
</linearGradient>
<linearGradient id="paint8_linear_1_1407" x1="17.0844" y1="211.922" x2="36.3419" y2="182.811" gradientUnits="userSpaceOnUse">
<stop stop-color="#FF4810"/>
<stop offset="1" stop-color="#FFB950"/>
</linearGradient>
<linearGradient id="paint9_linear_1_1407" x1="8.31069" y1="209.433" x2="23.9729" y2="182.223" gradientUnits="userSpaceOnUse">
<stop stop-color="#FF4810"/>
<stop offset="1" stop-color="#FFB950"/>
</linearGradient>
<linearGradient id="paint10_linear_1_1407" x1="32.3155" y1="173.111" x2="31.3765" y2="162.252" gradientUnits="userSpaceOnUse">
<stop stop-color="#FF4810"/>
<stop offset="1" stop-color="#FFB950"/>
</linearGradient>
<linearGradient id="paint11_linear_1_1407" x1="176.18" y1="302.781" x2="165.573" y2="272.173" gradientUnits="userSpaceOnUse">
<stop stop-color="#FF4810"/>
<stop offset="1" stop-color="#FFB950"/>
</linearGradient>
<linearGradient id="paint12_linear_1_1407" x1="176.18" y1="302.781" x2="165.573" y2="272.173" gradientUnits="userSpaceOnUse">
<stop stop-color="#FF4810"/>
<stop offset="1" stop-color="#FFB950"/>
</linearGradient>
<linearGradient id="paint13_linear_1_1407" x1="176.18" y1="302.781" x2="165.573" y2="272.173" gradientUnits="userSpaceOnUse">
<stop stop-color="#FF4810"/>
<stop offset="1" stop-color="#FFB950"/>
</linearGradient>
<linearGradient id="paint14_linear_1_1407" x1="161.068" y1="301.203" x2="169.266" y2="275.978" gradientUnits="userSpaceOnUse">
<stop stop-color="#FF4810"/>
<stop offset="1" stop-color="#FFB950"/>
</linearGradient>
<linearGradient id="paint15_linear_1_1407" x1="181.231" y1="256.676" x2="176.967" y2="230.644" gradientUnits="userSpaceOnUse">
<stop stop-color="#888888"/>
<stop offset="1" stop-color="#484848"/>
</linearGradient>
<linearGradient id="paint16_linear_1_1407" x1="140.366" y1="161.865" x2="244.479" y2="127.931" gradientUnits="userSpaceOnUse">
<stop stop-color="#9C9C9C"/>
<stop offset="1" stop-color="#606060"/>
</linearGradient>
<linearGradient id="paint17_linear_1_1407" x1="129.869" y1="152.27" x2="171.249" y2="152.27" gradientUnits="userSpaceOnUse">
<stop stop-color="#E8E8E8"/>
<stop offset="0.13" stop-color="#B7B7B7"/>
<stop offset="0.29" stop-color="#C0C0C0"/>
<stop offset="0.49" stop-color="#DCDCDC"/>
<stop offset="1" stop-color="white"/>
</linearGradient>
<linearGradient id="paint18_linear_1_1407" x1="218.536" y1="230.231" x2="93.6985" y2="230.231" gradientUnits="userSpaceOnUse">
<stop stop-color="#AEAEAE"/>
<stop offset="1" stop-color="white"/>
</linearGradient>
<linearGradient id="paint19_linear_1_1407" x1="220.092" y1="188.429" x2="62.4225" y2="243.545" gradientUnits="userSpaceOnUse">
<stop stop-color="#FDFDFD"/>
<stop offset="0.0001" stop-color="#E7E7E7"/>
<stop offset="1" stop-color="white"/>
</linearGradient>
<linearGradient id="paint20_linear_1_1407" x1="-1409.57" y1="1146.77" x2="-1428.17" y2="1157.48" gradientUnits="userSpaceOnUse">
<stop stop-color="white"/>
<stop offset="1" stop-color="white"/>
</linearGradient>
<linearGradient id="paint21_linear_1_1407" x1="126.204" y1="261.513" x2="115.443" y2="261.513" gradientUnits="userSpaceOnUse">
<stop stop-color="white"/>
<stop offset="1" stop-color="#D3D3D3"/>
</linearGradient>
<linearGradient id="paint22_linear_1_1407" x1="-1184.96" y1="1018.63" x2="-1333.43" y2="1104.16" gradientUnits="userSpaceOnUse">
<stop stop-color="#C9C9C9"/>
<stop offset="1" stop-color="#A9A9A9"/>
</linearGradient>
<linearGradient id="paint23_linear_1_1407" x1="101.835" y1="222.962" x2="176.298" y2="212.646" gradientUnits="userSpaceOnUse">
<stop offset="0.04" stop-color="#FF6700"/>
<stop offset="0.304956" stop-color="#FFAE77"/>
<stop offset="0.65" stop-color="#FF8F43"/>
<stop offset="1" stop-color="#FF6700"/>
</linearGradient>
<linearGradient id="paint24_linear_1_1407" x1="128.711" y1="234.526" x2="77.566" y2="216.877" gradientUnits="userSpaceOnUse">
<stop stop-color="#FF6700"/>
<stop offset="0.12" stop-color="#FF7212"/>
<stop offset="0.23" stop-color="#FF8735"/>
<stop offset="0.34" stop-color="#FF9852"/>
<stop offset="0.45" stop-color="#FF9C58"/>
<stop offset="0.52" stop-color="#FFA263"/>
<stop offset="0.69" stop-color="#FFC59D"/>
<stop offset="1" stop-color="white"/>
</linearGradient>
<linearGradient id="paint25_linear_1_1407" x1="159.963" y1="198.414" x2="109.282" y2="141.717" gradientUnits="userSpaceOnUse">
<stop stop-color="#FF6700"/>
<stop offset="0.12" stop-color="#FF7212"/>
<stop offset="0.23" stop-color="#FF8735"/>
<stop offset="0.34" stop-color="#FF9852"/>
<stop offset="0.45" stop-color="#FF9C58"/>
<stop offset="0.52" stop-color="#FFA263"/>
<stop offset="0.69" stop-color="#FFC59D"/>
<stop offset="1" stop-color="white"/>
</linearGradient>
<linearGradient id="paint26_linear_1_1407" x1="140.262" y1="250.489" x2="140.262" y2="191.861" gradientUnits="userSpaceOnUse">
<stop offset="0.04" stop-color="#E5C9AF"/>
<stop offset="0.37" stop-color="#ECDABE"/>
<stop offset="1" stop-color="#FFF1E5"/>
</linearGradient>
<linearGradient id="paint27_linear_1_1407" x1="125.893" y1="203.123" x2="125.893" y2="174.436" gradientUnits="userSpaceOnUse">
<stop offset="0.04" stop-color="#E5C9AF"/>
<stop offset="0.37" stop-color="#ECDABE"/>
<stop offset="1" stop-color="#FFF1E5"/>
</linearGradient>
<linearGradient id="paint28_linear_1_1407" x1="111.323" y1="250.53" x2="111.323" y2="192.014" gradientUnits="userSpaceOnUse">
<stop offset="0.04" stop-color="#E5C9AF"/>
<stop offset="0.37" stop-color="#ECDABE"/>
<stop offset="1" stop-color="#FFF1E5"/>
</linearGradient>
<linearGradient id="paint29_linear_1_1407" x1="116.123" y1="179.632" x2="134.674" y2="149.254" gradientUnits="userSpaceOnUse">
<stop stop-color="#FFC59E"/>
<stop offset="1" stop-color="#F4DECE"/>
</linearGradient>
<linearGradient id="paint30_linear_1_1407" x1="132.855" y1="189.818" x2="132.855" y2="172.969" gradientUnits="userSpaceOnUse">
<stop offset="0.04" stop-color="#E5C9AF"/>
<stop offset="0.37" stop-color="#ECDABE"/>
<stop offset="1" stop-color="#FFF1E5"/>
</linearGradient>
<radialGradient id="paint31_radial_1_1407" cx="0" cy="0" r="1" gradientUnits="userSpaceOnUse" gradientTransform="translate(138.711 177.065) scale(5.11466)">
<stop stop-color="white"/>
<stop offset="1"/>
</radialGradient>
<linearGradient id="paint32_linear_1_1407" x1="101.791" y1="179.826" x2="120.341" y2="149.448" gradientUnits="userSpaceOnUse">
<stop stop-color="#FFC59E"/>
<stop offset="1" stop-color="#F4DECE"/>
</linearGradient>
<linearGradient id="paint33_linear_1_1407" x1="118.649" y1="190.012" x2="118.649" y2="173.163" gradientUnits="userSpaceOnUse">
<stop offset="0.04" stop-color="#E5C9AF"/>
<stop offset="0.37" stop-color="#ECDABE"/>
<stop offset="1" stop-color="#FFF1E5"/>
</linearGradient>
<radialGradient id="paint34_radial_1_1407" cx="0" cy="0" r="1" gradientUnits="userSpaceOnUse" gradientTransform="translate(95.1023 177.264) rotate(180) scale(5.11466)">
<stop stop-color="white"/>
<stop offset="1"/>
</radialGradient>
<linearGradient id="paint35_linear_1_1407" x1="115.099" y1="188.357" x2="126.844" y2="162.016" gradientUnits="userSpaceOnUse">
<stop stop-color="#FFC59E"/>
<stop offset="1" stop-color="#F4DECE"/>
</linearGradient>
<linearGradient id="paint36_linear_1_1407" x1="132.511" y1="196.007" x2="132.511" y2="183.318" gradientUnits="userSpaceOnUse">
<stop offset="0.04" stop-color="#E5C9AF"/>
<stop offset="0.37" stop-color="#ECDABE"/>
<stop offset="1" stop-color="#FFF1E5"/>
</linearGradient>
<radialGradient id="paint37_radial_1_1407" cx="0" cy="0" r="1" gradientUnits="userSpaceOnUse" gradientTransform="translate(114.044 187.705) rotate(180) scale(4.96743 4.96743)">
<stop stop-color="white"/>
<stop offset="1"/>
</radialGradient>
<linearGradient id="paint38_linear_1_1407" x1="125.801" y1="187.042" x2="125.801" y2="182.083" gradientUnits="userSpaceOnUse">
<stop offset="0.04" stop-color="#E5C9AF"/>
<stop offset="0.37" stop-color="#ECDABE"/>
<stop offset="1" stop-color="#FFF1E5"/>
</linearGradient>
<linearGradient id="paint39_linear_1_1407" x1="101.271" y1="188.357" x2="113.016" y2="162.016" gradientUnits="userSpaceOnUse">
<stop stop-color="#FFC59E"/>
<stop offset="1" stop-color="#F4DECE"/>
</linearGradient>
<linearGradient id="paint40_linear_1_1407" x1="118.676" y1="196.007" x2="118.676" y2="183.318" gradientUnits="userSpaceOnUse">
<stop offset="0.04" stop-color="#E5C9AF"/>
<stop offset="0.37" stop-color="#ECDABE"/>
<stop offset="1" stop-color="#FFF1E5"/>
</linearGradient>
<radialGradient id="paint41_radial_1_1407" cx="0" cy="0" r="1" gradientUnits="userSpaceOnUse" gradientTransform="translate(119.45 187.705) scale(4.96743 4.96743)">
<stop stop-color="white"/>
<stop offset="1"/>
</radialGradient>
<radialGradient id="paint42_radial_1_1407" cx="0" cy="0" r="1" gradientUnits="userSpaceOnUse" gradientTransform="translate(119.716 192.525) scale(20.6006 20.6006)">
<stop stop-color="white"/>
<stop offset="1"/>
</radialGradient>
<linearGradient id="paint43_linear_1_1407" x1="155.209" y1="164.11" x2="197.648" y2="162.153" gradientUnits="userSpaceOnUse">
<stop stop-color="#CCD1D3" stop-opacity="0.36"/>
<stop offset="1" stop-color="#C3C6CA"/>
</linearGradient>
<linearGradient id="paint44_linear_1_1407" x1="185.139" y1="192.573" x2="165.099" y2="192.824" gradientUnits="userSpaceOnUse">
<stop stop-color="#BDC6CB" stop-opacity="0.36"/>
<stop offset="1" stop-color="#B7BEC8"/>
</linearGradient>
<linearGradient id="paint45_linear_1_1407" x1="191.427" y1="160.314" x2="177.233" y2="210.533" gradientUnits="userSpaceOnUse">
<stop stop-color="#CCD1D3" stop-opacity="0.36"/>
<stop offset="1" stop-color="#C3C6CA"/>
</linearGradient>
<linearGradient id="paint46_linear_1_1407" x1="161.557" y1="163.038" x2="220.617" y2="153.746" gradientUnits="userSpaceOnUse">
<stop offset="0.04" stop-color="#FF6700"/>
<stop offset="0.304956" stop-color="#FFAE77"/>
<stop offset="0.65" stop-color="#FF8F43"/>
<stop offset="1" stop-color="#FF6700"/>
</linearGradient>
<linearGradient id="paint47_linear_1_1407" x1="182.952" y1="171.132" x2="143.423" y2="155.891" gradientUnits="userSpaceOnUse">
<stop stop-color="#FF6700"/>
<stop offset="0.12" stop-color="#FF7212"/>
<stop offset="0.23" stop-color="#FF8735"/>
<stop offset="0.34" stop-color="#FF9852"/>
<stop offset="0.45" stop-color="#FF9C58"/>
<stop offset="0.52" stop-color="#FFA263"/>
<stop offset="0.69" stop-color="#FFC59D"/>
<stop offset="1" stop-color="white"/>
</linearGradient>
<linearGradient id="paint48_linear_1_1407" x1="207.856" y1="147.05" x2="167.08" y2="102.294" gradientUnits="userSpaceOnUse">
<stop stop-color="#FF6700"/>
<stop offset="0.12" stop-color="#FF7212"/>
<stop offset="0.23" stop-color="#FF8735"/>
<stop offset="0.34" stop-color="#FF9852"/>
<stop offset="0.45" stop-color="#FF9C58"/>
<stop offset="0.52" stop-color="#FFA263"/>
<stop offset="0.69" stop-color="#FFC59D"/>
<stop offset="1" stop-color="white"/>
</linearGradient>
<linearGradient id="paint49_linear_1_1407" x1="192.368" y1="182.737" x2="192.368" y2="141.511" gradientUnits="userSpaceOnUse">
<stop offset="0.04" stop-color="#E5C9AF"/>
<stop offset="0.37" stop-color="#ECDABE"/>
<stop offset="1" stop-color="#FFF1E5"/>
</linearGradient>
<linearGradient id="paint50_linear_1_1407" x1="180.992" y1="150.832" x2="180.992" y2="127.796" gradientUnits="userSpaceOnUse">
<stop offset="0.04" stop-color="#E5C9AF"/>
<stop offset="0.37" stop-color="#ECDABE"/>
<stop offset="1" stop-color="#FFF1E5"/>
</linearGradient>
<linearGradient id="paint51_linear_1_1407" x1="169.304" y1="182.737" x2="169.304" y2="141.511" gradientUnits="userSpaceOnUse">
<stop offset="0.04" stop-color="#E5C9AF"/>
<stop offset="0.37" stop-color="#ECDABE"/>
<stop offset="1" stop-color="#FFF1E5"/>
</linearGradient>
<radialGradient id="paint52_radial_1_1407" cx="0" cy="0" r="1" gradientUnits="userSpaceOnUse" gradientTransform="translate(176.032 142.322) scale(16.5422 16.5422)">
<stop stop-color="white"/>
<stop offset="1"/>
</radialGradient>
<linearGradient id="paint53_linear_1_1407" x1="191.904" y1="191.828" x2="191.904" y2="136.86" gradientUnits="userSpaceOnUse">
<stop offset="0.04" stop-color="#EAEAEA"/>
<stop offset="1" stop-color="#8A8988"/>
</linearGradient>
<linearGradient id="paint54_linear_1_1407" x1="169.293" y1="192.045" x2="169.293" y2="136.423" gradientUnits="userSpaceOnUse">
<stop offset="0.04" stop-color="#EAEAEA"/>
<stop offset="1" stop-color="#8A8988"/>
</linearGradient>
<linearGradient id="paint55_linear_1_1407" x1="180.81" y1="161.596" x2="180.81" y2="122.91" gradientUnits="userSpaceOnUse">
<stop offset="0.04" stop-color="#EAEAEA"/>
<stop offset="1" stop-color="#8A8988"/>
</linearGradient>
<linearGradient id="paint56_linear_1_1407" x1="192.368" y1="182.737" x2="192.368" y2="141.511" gradientUnits="userSpaceOnUse">
<stop offset="0.04" stop-color="#EAEAEA"/>
<stop offset="1" stop-color="#8A8988"/>
</linearGradient>
<linearGradient id="paint57_linear_1_1407" x1="180.992" y1="150.832" x2="180.992" y2="127.796" gradientUnits="userSpaceOnUse">
<stop offset="0.04" stop-color="#EAEAEA"/>
<stop offset="1" stop-color="#8A8988"/>
</linearGradient>
<linearGradient id="paint58_linear_1_1407" x1="169.304" y1="182.737" x2="169.304" y2="141.511" gradientUnits="userSpaceOnUse">
<stop offset="0.04" stop-color="#EAEAEA"/>
<stop offset="1" stop-color="#8A8988"/>
</linearGradient>
<linearGradient id="paint59_linear_1_1407" x1="180.709" y1="150.827" x2="180.709" y2="127.994" gradientUnits="userSpaceOnUse">
<stop offset="0.04" stop-color="#EAEAEA"/>
<stop offset="1" stop-color="#8A8988"/>
</linearGradient>
<linearGradient id="paint60_linear_1_1407" x1="180.785" y1="199.701" x2="180.785" y2="136.793" gradientUnits="userSpaceOnUse">
<stop offset="0.04" stop-color="#EAEAEA"/>
<stop offset="1" stop-color="#8A8988"/>
</linearGradient>
<linearGradient id="paint61_linear_1_1407" x1="319.321" y1="274.689" x2="276.726" y2="275.284" gradientUnits="userSpaceOnUse">
<stop stop-color="#BDC6CB" stop-opacity="0.36"/>
<stop offset="1" stop-color="#B7BEC8"/>
</linearGradient>
<linearGradient id="paint62_linear_1_1407" x1="332.686" y1="188.697" x2="308.033" y2="285.891" gradientUnits="userSpaceOnUse">
<stop stop-color="#CCD1D3" stop-opacity="0.36"/>
<stop offset="1" stop-color="#C3C6CA"/>
</linearGradient>
<linearGradient id="paint63_linear_1_1407" x1="307.375" y1="419.566" x2="342.041" y2="359.34" gradientUnits="userSpaceOnUse">
<stop stop-color="#FF4810"/>
<stop offset="1" stop-color="#FFB950"/>
</linearGradient>
<linearGradient id="paint64_linear_1_1407" x1="360.507" y1="339.171" x2="358.428" y2="315.136" gradientUnits="userSpaceOnUse">
<stop stop-color="#FF4810"/>
<stop offset="1" stop-color="#FFB950"/>
</linearGradient>
<linearGradient id="paint65_linear_1_1407" x1="200.745" y1="398.556" x2="291.913" y2="392.902" gradientUnits="userSpaceOnUse">
<stop stop-color="#CCD1D3" stop-opacity="0.36"/>
<stop offset="1" stop-color="#C3C6CA"/>
</linearGradient>
<linearGradient id="paint66_linear_1_1407" x1="265.152" y1="465.959" x2="222.027" y2="466.475" gradientUnits="userSpaceOnUse">
<stop stop-color="#BDC6CB" stop-opacity="0.36"/>
<stop offset="1" stop-color="#B7BEC8"/>
</linearGradient>
<linearGradient id="paint67_linear_1_1407" x1="278.682" y1="364.948" x2="247.176" y2="474.565" gradientUnits="userSpaceOnUse">
<stop stop-color="#CCD1D3" stop-opacity="0.36"/>
<stop offset="1" stop-color="#C3C6CA"/>
</linearGradient>
</defs>
</svg>
