<svg width="28" height="32" viewBox="0 0 28 32" fill="none" xmlns="http://www.w3.org/2000/svg">
<path d="M0.152783 1.22549L13.9121 16.254L0.199741 30.9119C0.0707913 30.5856 0 30.1918 0 29.7376V2.27231C0 1.87579 0.0536554 1.52525 0.152783 1.22549Z" fill="white"/>
<path d="M21.2867 11.163L16.5106 16.2684L20.9074 21.0708L26.7289 17.6381C27.4968 17.1854 27.928 16.6014 28 16.0065V16.0041C27.928 15.4078 27.4968 14.8242 26.7289 14.3714L21.2867 11.163Z" fill="white"/>
<path d="M19.2265 22.0586L15.204 17.6651L1.7937 32.0001C2.18516 31.9849 2.62066 31.8489 3.0788 31.5793L19.2265 22.0586Z" fill="white"/>
<path d="M19.6056 10.168L15.2187 14.8574L1.61865 0.00279436C1.65127 0.00101555 1.68424 0.00012207 1.71755 0.00012207C2.1288 0.00012207 2.59063 0.136293 3.07865 0.423358L19.6056 10.168Z" fill="white"/>
</svg>
