<svg width="642" height="543" viewBox="0 0 642 543" fill="none" xmlns="http://www.w3.org/2000/svg">
<path d="M159.31 133.828C185.372 148.869 227.625 148.869 253.687 133.828C279.749 118.788 279.749 94.3867 253.687 79.346C227.625 64.3053 185.372 64.3053 159.31 79.346C133.248 94.3867 133.248 118.788 159.31 133.828ZM184.806 94.0658C196.789 87.1399 216.208 87.1399 228.192 94.0658C240.175 100.992 240.175 112.201 228.192 119.109C216.208 126.034 196.789 126.034 184.806 119.109C172.822 112.183 172.822 100.973 184.806 94.0658Z" fill="#EFEFEF"/>
<path d="M263.52 70.4192L239.723 70.7966C237.968 68.5132 235.458 66.3618 232.212 64.4747C219.115 56.926 198.545 56.341 184.278 62.7196L170.124 49.4151L148.346 49.7548C149.422 49.0565 150.535 48.3583 151.687 47.6789C181.957 30.2037 231.023 30.2037 261.293 47.6789C266.86 50.8871 271.39 54.4727 274.919 58.2848L263.52 70.4192Z" fill="#D86516"/>
<path d="M148.346 15.1817V49.7357L170.124 49.396V14.842L148.346 15.1817Z" fill="#FF8C3F"/>
<path d="M184.278 28.1466V62.7006L170.124 49.396V14.842L184.278 28.1466Z" fill="#D86516"/>
<path d="M239.723 36.2241V70.797L208.415 45.2825L184.278 62.7199V28.1471L206.509 17.3713C206.509 17.3713 237.1 26.7317 238.704 27.128C240.308 27.5243 239.742 36.2241 239.742 36.2241H239.723Z" fill="#D86516"/>
<path d="M263.52 35.8467V70.4195L239.723 70.797V36.2241L263.52 35.8467Z" fill="#D86516"/>
<path d="M274.918 23.7124V58.2853L263.52 70.4197V35.8469L274.918 23.7124Z" fill="#FF8C3F"/>
<path d="M263.52 35.8467L239.723 36.2241C237.968 33.9407 235.458 31.7893 232.212 29.9021C219.115 22.3535 198.545 21.7685 184.278 28.1471L170.124 14.8426L148.346 15.1823C149.422 14.484 150.535 13.7857 151.687 13.1064C181.957 -4.36879 231.023 -4.36879 261.293 13.1064C266.86 16.3145 271.389 19.9001 274.918 23.7122L263.52 35.8467Z" fill="#FF6700"/>
<path d="M177.106 32.3934V64.1733L156.498 59.2289C156.498 59.2289 157.706 40.6403 158.14 40.1308C158.574 39.6401 177.106 32.3745 177.106 32.3745V32.3934Z" fill="#D5D5D5"/>
<path d="M192.694 64.1733V98.7462L190.467 101.124L175.936 92.745C175.936 92.745 178.182 66.3625 178.446 65.8341C178.71 65.3056 192.675 64.1922 192.675 64.1922L192.694 64.1733Z" fill="#BBBBBB"/>
<path d="M164.632 55.2471L177.088 66.9663C166.708 75.1755 167.935 86.7438 180.768 94.1604C184.278 96.1985 188.335 97.7083 192.676 98.7462L179.805 112.466L191.222 123.204C176.729 121.524 162.915 117.467 151.686 110.975C125.662 95.9532 122.039 72.9109 140.76 55.6434L164.651 55.2659L164.632 55.2471Z" fill="#D2D2D2"/>
<path d="M191.223 88.6117V123.185L162.972 112.277L129.003 79.8553L129.135 43.1499L165.066 71.6461L191.223 88.6117Z" fill="#D2D2D2"/>
<path d="M164.632 20.6741L177.087 32.3934C166.708 40.6026 167.935 52.1709 180.767 59.5874C184.278 61.6256 188.335 63.1353 192.675 64.1732L179.805 77.8929L191.222 88.6309C176.729 86.9513 162.915 82.8939 151.686 76.4021C125.662 61.3802 122.039 38.338 140.759 21.0704L164.651 20.693L164.632 20.6741Z" fill="url(#paint0_linear_1_1611)"/>
<path d="M191.317 112.277L202.659 100.18C213.189 100.822 224.116 98.8211 232.193 94.1598C240.534 89.3475 243.969 82.7802 242.516 76.5148L269.54 76.0997L279.938 65.022C289.035 80.6288 282.826 98.538 261.293 110.974C245.479 120.108 224.531 124.449 203.81 124.052L191.317 112.295V112.277Z" fill="#E2E2E2"/>
<path d="M203.81 89.4608V124.034L283.977 79.5909V45.0181L272.277 49.736L203.81 89.4608Z" fill="#E2E2E2"/>
<path d="M191.317 77.7039V112.277L203.81 124.034V89.4609L191.317 77.7039Z" fill="#BFBFBF"/>
<path d="M191.317 77.7041L202.659 65.6073C213.189 66.249 224.116 64.2486 232.193 59.5873C240.534 54.775 243.969 48.2077 242.516 41.9423L269.54 41.5271L279.938 30.4495C289.035 46.0563 282.826 63.9655 261.293 76.4019C245.479 85.5358 224.531 89.8763 203.81 89.48L191.317 77.7229V77.7041Z" fill="url(#paint1_linear_1_1611)"/>
<path d="M234.772 457.667C235.143 457.501 235.52 457.335 235.883 457.161C237.031 456.603 238.157 456.022 239.237 455.396L627.923 229.402C637.268 223.972 641.937 216.867 641.952 209.762L641.998 187.112C641.983 194.217 637.314 201.322 627.969 206.752L239.298 432.739C238.217 433.365 237.084 433.946 235.936 434.504C235.679 434.627 235.418 434.742 235.156 434.858C235.048 434.906 234.941 434.953 234.833 435.002C234.017 435.371 233.186 435.726 232.34 436.065C231.909 436.239 231.479 436.404 231.04 436.563C230.187 436.872 229.318 437.174 228.442 437.453C228.026 437.581 227.618 437.724 227.203 437.845C226.681 438.002 226.148 438.14 225.614 438.278C225.406 438.332 225.197 438.386 224.989 438.441C224.814 438.486 224.639 438.532 224.465 438.578C223.919 438.723 223.376 438.866 222.821 438.992C222.096 439.157 221.355 439.301 220.615 439.444C220.446 439.477 220.277 439.51 220.108 439.543C219.536 439.655 218.962 439.767 218.379 439.866C217.457 440.025 216.528 440.146 215.591 440.266C215.376 440.292 215.162 440.322 214.949 440.353C214.667 440.392 214.386 440.432 214.103 440.462C212.833 440.606 211.557 440.704 210.28 440.787C210.099 440.802 209.91 440.824 209.728 440.832C208.255 440.915 206.782 440.953 205.309 440.96C205.012 440.965 204.712 440.957 204.411 440.948C204.26 440.944 204.108 440.94 203.956 440.937C202.944 440.922 201.932 440.907 200.927 440.854C200.274 440.826 199.625 440.773 198.975 440.72C198.752 440.702 198.529 440.683 198.306 440.666C198.046 440.643 197.785 440.624 197.525 440.604C197.094 440.572 196.663 440.539 196.236 440.492C195.594 440.422 194.956 440.332 194.319 440.242C194.072 440.207 193.824 440.172 193.576 440.138C193.364 440.108 193.152 440.08 192.941 440.053C192.503 439.995 192.067 439.938 191.635 439.866C189.905 439.58 188.197 439.225 186.513 438.826C186.245 438.761 185.984 438.688 185.723 438.616C185.556 438.569 185.389 438.523 185.221 438.479C183.967 438.154 182.735 437.807 181.526 437.415C180.99 437.242 180.454 437.061 179.925 436.872C178.799 436.472 177.696 436.042 176.616 435.59C176.147 435.394 175.671 435.205 175.211 434.994C173.722 434.315 172.264 433.599 170.889 432.807L14.324 342.75L14.3238 342.78C13.2511 342.162 12.2538 341.513 11.2943 340.849C11.0977 340.715 10.9117 340.577 10.7243 340.438C10.6381 340.374 10.5514 340.31 10.4633 340.246C9.79095 339.756 9.15636 339.258 8.55201 338.753C8.29513 338.534 8.03071 338.315 7.78138 338.096C7.10148 337.493 6.46684 336.874 5.87759 336.241C5.8285 336.188 5.77565 336.135 5.7228 336.083C5.6699 336.03 5.61701 335.977 5.56787 335.924C5.34633 335.678 5.15161 335.425 4.95694 335.172C4.85949 335.045 4.76204 334.919 4.66125 334.793C4.56005 334.667 4.45662 334.541 4.35291 334.415C4.07723 334.08 3.79979 333.743 3.55825 333.397C3.38534 333.153 3.23991 332.899 3.09479 332.646C3.01165 332.501 2.92861 332.356 2.84056 332.213C2.75844 332.076 2.67368 331.938 2.58882 331.801C2.38489 331.47 2.18026 331.138 2.00953 330.803C1.58647 329.981 1.23135 329.143 0.951824 328.306C0.921903 328.221 0.901662 328.133 0.881467 328.045C0.865997 327.978 0.85062 327.912 0.830981 327.846C0.61945 327.16 0.438163 326.473 0.317275 325.787C0.143491 324.822 0.0452985 323.856 0.0452985 322.891L0 345.541C0 346.506 0.098193 347.472 0.27193 348.437C0.27948 348.497 0.279526 348.55 0.287076 348.61C0.407825 349.236 0.596523 349.862 0.78522 350.487L0.785637 350.489C0.805275 350.554 0.820653 350.621 0.836076 350.688C0.856271 350.775 0.876558 350.863 0.906525 350.949C1.1785 351.756 1.51092 352.555 1.90374 353.347C1.91129 353.362 1.92259 353.379 1.93394 353.396C1.94529 353.413 1.95663 353.43 1.96418 353.445C2.14681 353.816 2.37534 354.182 2.60327 354.546C2.66765 354.65 2.73199 354.753 2.79521 354.856C2.88414 355 2.96798 355.145 3.052 355.291C3.19627 355.541 3.34102 355.792 3.5129 356.04C3.74935 356.378 4.02022 356.704 4.29289 357.033C4.40354 357.166 4.51447 357.3 4.6235 357.435C4.74314 357.58 4.8549 357.727 4.96699 357.875C5.12387 358.081 5.28139 358.289 5.46208 358.491L5.53007 358.559C5.62831 358.665 5.7416 358.77 5.8398 358.876C6.42909 359.502 7.06369 360.12 7.74363 360.731C7.99296 360.95 8.25734 361.169 8.51417 361.387C9.11101 361.893 9.75321 362.391 10.418 362.881C10.69 363.084 10.9619 363.288 11.249 363.484C12.2009 364.148 13.1982 364.797 14.2785 365.415L14.2786 365.4L170.844 455.457C172.219 456.249 173.677 456.965 175.165 457.644C175.502 457.798 175.846 457.94 176.19 458.082C176.317 458.134 176.444 458.187 176.57 458.24C177.651 458.7 178.754 459.122 179.879 459.522C180.408 459.711 180.937 459.892 181.481 460.065C182.69 460.45 183.921 460.804 185.175 461.129C185.344 461.173 185.511 461.219 185.678 461.266C185.939 461.338 186.2 461.411 186.467 461.475C188.144 461.875 189.852 462.23 191.589 462.516C191.657 462.524 191.725 462.539 191.793 462.554C192.135 462.612 192.482 462.655 192.829 462.697C193.064 462.726 193.299 462.754 193.531 462.788C194.415 462.916 195.299 463.044 196.19 463.142C196.743 463.203 197.3 463.244 197.859 463.285C197.995 463.295 198.131 463.305 198.268 463.316C198.438 463.329 198.609 463.343 198.78 463.356C199.478 463.412 200.178 463.468 200.882 463.504C201.018 463.512 201.154 463.527 201.29 463.535C202.166 463.572 203.042 463.58 203.926 463.587C204.144 463.587 204.364 463.593 204.585 463.599C204.808 463.604 205.032 463.61 205.256 463.61C206.714 463.61 208.172 463.572 209.63 463.489H209.675C209.806 463.484 209.937 463.473 210.068 463.461C210.134 463.455 210.199 463.449 210.265 463.444C211.526 463.369 212.796 463.263 214.05 463.127C214.339 463.097 214.626 463.056 214.912 463.015C215.118 462.986 215.324 462.957 215.53 462.931C215.75 462.903 215.971 462.876 216.191 462.849C216.736 462.782 217.282 462.715 217.82 462.629C217.907 462.614 217.99 462.597 218.073 462.58C218.156 462.563 218.239 462.546 218.326 462.531C218.892 462.435 219.446 462.326 220 462.218C220.184 462.181 220.369 462.145 220.554 462.109C220.794 462.06 221.033 462.013 221.272 461.966C221.772 461.867 222.272 461.769 222.768 461.657C223.368 461.521 223.958 461.365 224.546 461.209C224.676 461.175 224.806 461.14 224.936 461.106C225.182 461.04 225.43 460.979 225.679 460.919C225.995 460.842 226.312 460.765 226.621 460.676C226.752 460.638 226.875 460.596 227.002 460.555C227.05 460.54 227.099 460.525 227.15 460.51C227.514 460.404 227.872 460.287 228.235 460.168L228.389 460.118C229.265 459.839 230.126 459.545 230.98 459.228C231.418 459.069 231.849 458.904 232.279 458.73C233.125 458.398 233.956 458.036 234.772 457.667Z" fill="white"/>
<path d="M234.772 457.667C235.143 457.501 235.52 457.335 235.883 457.161C237.031 456.603 238.157 456.022 239.237 455.396L627.923 229.402C637.268 223.972 641.937 216.867 641.952 209.762L641.998 187.112C641.983 194.217 637.314 201.322 627.969 206.752L239.298 432.739C238.217 433.365 237.084 433.946 235.936 434.504C235.679 434.627 235.418 434.742 235.156 434.858C235.048 434.906 234.941 434.953 234.833 435.002C234.017 435.371 233.186 435.726 232.34 436.065C231.909 436.239 231.479 436.404 231.04 436.563C230.187 436.872 229.318 437.174 228.442 437.453C228.026 437.581 227.618 437.724 227.203 437.845C226.681 438.002 226.148 438.14 225.614 438.278C225.406 438.332 225.197 438.386 224.989 438.441C224.814 438.486 224.639 438.532 224.465 438.578C223.919 438.723 223.376 438.866 222.821 438.992C222.096 439.157 221.355 439.301 220.615 439.444C220.446 439.477 220.277 439.51 220.108 439.543C219.536 439.655 218.962 439.767 218.379 439.866C217.457 440.025 216.528 440.146 215.591 440.266C215.376 440.292 215.162 440.322 214.949 440.353C214.667 440.392 214.386 440.432 214.103 440.462C212.833 440.606 211.557 440.704 210.28 440.787C210.099 440.802 209.91 440.824 209.728 440.832C208.255 440.915 206.782 440.953 205.309 440.96C205.012 440.965 204.712 440.957 204.411 440.948C204.26 440.944 204.108 440.94 203.956 440.937C202.944 440.922 201.932 440.907 200.927 440.854C200.274 440.826 199.625 440.773 198.975 440.72C198.752 440.702 198.529 440.683 198.306 440.666C198.046 440.643 197.785 440.624 197.525 440.604C197.094 440.572 196.663 440.539 196.236 440.492C195.594 440.422 194.956 440.332 194.319 440.242C194.072 440.207 193.824 440.172 193.576 440.138C193.364 440.108 193.152 440.08 192.941 440.053C192.503 439.995 192.067 439.938 191.635 439.866C189.905 439.58 188.197 439.225 186.513 438.826C186.245 438.761 185.984 438.688 185.723 438.616C185.556 438.569 185.389 438.523 185.221 438.479C183.967 438.154 182.735 437.807 181.526 437.415C180.99 437.242 180.454 437.061 179.925 436.872C178.799 436.472 177.696 436.042 176.616 435.59C176.147 435.394 175.671 435.205 175.211 434.994C173.722 434.315 172.264 433.599 170.889 432.807L14.324 342.75L14.3238 342.78C13.2511 342.162 12.2538 341.513 11.2943 340.849C11.0977 340.715 10.9117 340.577 10.7243 340.438C10.6381 340.374 10.5514 340.31 10.4633 340.246C9.79095 339.756 9.15636 339.258 8.55201 338.753C8.29513 338.534 8.03071 338.315 7.78138 338.096C7.10148 337.493 6.46684 336.874 5.87759 336.241C5.8285 336.188 5.77565 336.135 5.7228 336.083C5.6699 336.03 5.61701 335.977 5.56787 335.924C5.34633 335.678 5.15161 335.425 4.95694 335.172C4.85949 335.045 4.76204 334.919 4.66125 334.793C4.56005 334.667 4.45662 334.541 4.35291 334.415C4.07723 334.08 3.79979 333.743 3.55825 333.397C3.38534 333.153 3.23991 332.899 3.09479 332.646C3.01165 332.501 2.92861 332.356 2.84056 332.213C2.75844 332.076 2.67368 331.938 2.58882 331.801C2.38489 331.47 2.18026 331.138 2.00953 330.803C1.58647 329.981 1.23135 329.143 0.951824 328.306C0.921903 328.221 0.901662 328.133 0.881467 328.045C0.865997 327.978 0.85062 327.912 0.830981 327.846C0.61945 327.16 0.438163 326.473 0.317275 325.787C0.143491 324.822 0.0452985 323.856 0.0452985 322.891L0 345.541C0 346.506 0.098193 347.472 0.27193 348.437C0.27948 348.497 0.279526 348.55 0.287076 348.61C0.407825 349.236 0.596523 349.862 0.78522 350.487L0.785637 350.489C0.805275 350.554 0.820653 350.621 0.836076 350.688C0.856271 350.775 0.876558 350.863 0.906525 350.949C1.1785 351.756 1.51092 352.555 1.90374 353.347C1.91129 353.362 1.92259 353.379 1.93394 353.396C1.94529 353.413 1.95663 353.43 1.96418 353.445C2.14681 353.816 2.37534 354.182 2.60327 354.546C2.66765 354.65 2.73199 354.753 2.79521 354.856C2.88414 355 2.96798 355.145 3.052 355.291C3.19627 355.541 3.34102 355.792 3.5129 356.04C3.74935 356.378 4.02022 356.704 4.29289 357.033C4.40354 357.166 4.51447 357.3 4.6235 357.435C4.74314 357.58 4.8549 357.727 4.96699 357.875C5.12387 358.081 5.28139 358.289 5.46208 358.491L5.53007 358.559C5.62831 358.665 5.7416 358.77 5.8398 358.876C6.42909 359.502 7.06369 360.12 7.74363 360.731C7.99296 360.95 8.25734 361.169 8.51417 361.387C9.11101 361.893 9.75321 362.391 10.418 362.881C10.69 363.084 10.9619 363.288 11.249 363.484C12.2009 364.148 13.1982 364.797 14.2785 365.415L14.2786 365.4L170.844 455.457C172.219 456.249 173.677 456.965 175.165 457.644C175.502 457.798 175.846 457.94 176.19 458.082C176.317 458.134 176.444 458.187 176.57 458.24C177.651 458.7 178.754 459.122 179.879 459.522C180.408 459.711 180.937 459.892 181.481 460.065C182.69 460.45 183.921 460.804 185.175 461.129C185.344 461.173 185.511 461.219 185.678 461.266C185.939 461.338 186.2 461.411 186.467 461.475C188.144 461.875 189.852 462.23 191.589 462.516C191.657 462.524 191.725 462.539 191.793 462.554C192.135 462.612 192.482 462.655 192.829 462.697C193.064 462.726 193.299 462.754 193.531 462.788C194.415 462.916 195.299 463.044 196.19 463.142C196.743 463.203 197.3 463.244 197.859 463.285C197.995 463.295 198.131 463.305 198.268 463.316C198.438 463.329 198.609 463.343 198.78 463.356C199.478 463.412 200.178 463.468 200.882 463.504C201.018 463.512 201.154 463.527 201.29 463.535C202.166 463.572 203.042 463.58 203.926 463.587C204.144 463.587 204.364 463.593 204.585 463.599C204.808 463.604 205.032 463.61 205.256 463.61C206.714 463.61 208.172 463.572 209.63 463.489H209.675C209.806 463.484 209.937 463.473 210.068 463.461C210.134 463.455 210.199 463.449 210.265 463.444C211.526 463.369 212.796 463.263 214.05 463.127C214.339 463.097 214.626 463.056 214.912 463.015C215.118 462.986 215.324 462.957 215.53 462.931C215.75 462.903 215.971 462.876 216.191 462.849C216.736 462.782 217.282 462.715 217.82 462.629C217.907 462.614 217.99 462.597 218.073 462.58C218.156 462.563 218.239 462.546 218.326 462.531C218.892 462.435 219.446 462.326 220 462.218C220.184 462.181 220.369 462.145 220.554 462.109C220.794 462.06 221.033 462.013 221.272 461.966C221.772 461.867 222.272 461.769 222.768 461.657C223.368 461.521 223.958 461.365 224.546 461.209C224.676 461.175 224.806 461.14 224.936 461.106C225.182 461.04 225.43 460.979 225.679 460.919C225.995 460.842 226.312 460.765 226.621 460.676C226.752 460.638 226.875 460.596 227.002 460.555C227.05 460.54 227.099 460.525 227.15 460.51C227.514 460.404 227.872 460.287 228.235 460.168L228.389 460.118C229.265 459.839 230.126 459.545 230.98 459.228C231.418 459.069 231.849 458.904 232.279 458.73C233.125 458.398 233.956 458.036 234.772 457.667Z" fill="url(#paint2_linear_1_1611)" fill-opacity="0.6"/>
<path d="M170.889 432.822C189.844 443.72 220.464 443.683 239.275 432.746L627.969 206.752C646.78 195.816 646.659 178.114 627.712 167.215L471.146 77.1581C452.191 66.2593 421.587 66.2819 402.776 77.2185L14.0897 303.212C-4.72174 314.149 -4.62354 331.859 14.3314 342.757L170.889 432.822ZM394.292 97.5755L591.343 210.916L244.813 412.397L47.7614 299.057L394.292 97.5755Z" fill="white"/>
<path d="M632.393 179.432C636.594 186.68 633.043 194.532 622.889 200.437L234.203 426.431C216.948 436.463 188.776 436.493 171.4 426.492L14.8351 336.435C10.3475 333.856 6.98563 330.778 5.10446 327.528C0.896454 320.272 4.4548 312.412 14.6159 306.507L403.294 80.5128C420.534 70.4889 448.699 70.4662 466.082 80.46L622.647 170.517C627.135 173.096 630.504 176.181 632.393 179.432Z" fill="white"/>
<path d="M632.393 179.432C636.594 186.68 633.043 194.532 622.889 200.437L234.203 426.431C216.948 436.463 188.776 436.493 171.4 426.492L14.8351 336.435C10.3475 333.856 6.98563 330.778 5.10446 327.528C0.896454 320.272 4.4548 312.412 14.6159 306.507L403.294 80.5128C420.534 70.4889 448.699 70.4662 466.082 80.46L622.647 170.517C627.135 173.096 630.504 176.181 632.393 179.432Z" fill="url(#paint3_linear_1_1611)" fill-opacity="0.15"/>
<path opacity="0.4" d="M423.067 83.0388L620.119 196.379L244.626 412.397L47.5745 299.056L423.067 83.0388Z" fill="url(#paint4_linear_1_1611)"/>
<path d="M216.131 370.737C213.173 369.039 211.703 366.809 211.723 364.582C211.743 362.385 213.212 363.228 216.131 361.552L226.275 355.727L241.302 347.098C247.179 343.723 256.707 343.723 262.584 347.098L280.671 357.484L287.755 361.552C290.674 363.228 292.143 362.385 292.163 364.582C292.183 366.809 290.713 369.039 287.755 370.737L262.584 385.192C256.707 388.566 247.179 388.566 241.302 385.192L216.131 370.737Z" fill="#C4C4C4"/>
<path d="M216.131 370.737C213.173 369.039 211.703 366.809 211.723 364.582C211.743 362.385 213.212 363.228 216.131 361.552L226.275 355.727L241.302 347.098C247.179 343.723 256.707 343.723 262.584 347.098L280.671 357.484L287.755 361.552C290.674 363.228 292.143 362.385 292.163 364.582C292.183 366.809 290.713 369.039 287.755 370.737L262.584 385.192C256.707 388.566 247.179 388.566 241.302 385.192L216.131 370.737Z" fill="white"/>
<path d="M216.131 370.737C213.173 369.039 211.703 366.809 211.723 364.582C211.743 362.385 213.212 363.228 216.131 361.552L226.275 355.727L241.302 347.098C247.179 343.723 256.707 343.723 262.584 347.098L280.671 357.484L287.755 361.552C290.674 363.228 292.143 362.385 292.163 364.582C292.183 366.809 290.713 369.039 287.755 370.737L262.584 385.192C256.707 388.566 247.179 388.566 241.302 385.192L216.131 370.737Z" fill="url(#paint5_linear_1_1611)" fill-opacity="0.3"/>
<path d="M211.723 364.582C211.743 362.385 213.212 363.228 216.131 361.552L226.275 355.727L211.723 360.688V364.582Z" fill="#C4C4C4"/>
<path d="M211.723 364.582C211.743 362.385 213.212 363.228 216.131 361.552L226.275 355.727L211.723 360.688V364.582Z" fill="white"/>
<path d="M211.723 364.582C211.743 362.385 213.212 363.228 216.131 361.552L226.275 355.727L211.723 360.688V364.582Z" fill="url(#paint6_linear_1_1611)" fill-opacity="0.3"/>
<path d="M287.755 361.552C290.674 363.228 292.143 362.385 292.163 364.582V360.688L280.671 357.484L287.755 361.552Z" fill="#C4C4C4"/>
<path d="M287.755 361.552C290.674 363.228 292.143 362.385 292.163 364.582V360.688L280.671 357.484L287.755 361.552Z" fill="white"/>
<path d="M287.755 361.552C290.674 363.228 292.143 362.385 292.163 364.582V360.688L280.671 357.484L287.755 361.552Z" fill="url(#paint7_linear_1_1611)" fill-opacity="0.3"/>
<path d="M216.131 366.844C210.254 363.47 210.254 357.998 216.131 354.623L241.302 340.169C247.179 336.794 256.707 336.794 262.584 340.169L287.755 354.623C293.632 357.998 293.632 363.47 287.755 366.844L262.584 381.299C256.707 384.673 247.179 384.673 241.302 381.299L216.131 366.844Z" fill="#C4C4C4"/>
<path d="M216.131 366.844C210.254 363.47 210.254 357.998 216.131 354.623L241.302 340.169C247.179 336.794 256.707 336.794 262.584 340.169L287.755 354.623C293.632 357.998 293.632 363.47 287.755 366.844L262.584 381.299C256.707 384.673 247.179 384.673 241.302 381.299L216.131 366.844Z" fill="white"/>
<path d="M216.131 366.844C210.254 363.47 210.254 357.998 216.131 354.623L241.302 340.169C247.179 336.794 256.707 336.794 262.584 340.169L287.755 354.623C293.632 357.998 293.632 363.47 287.755 366.844L262.584 381.299C256.707 384.673 247.179 384.673 241.302 381.299L216.131 366.844Z" fill="url(#paint8_linear_1_1611)" fill-opacity="0.15"/>
<path d="M149.351 333.553C146.393 331.854 144.924 329.624 144.943 327.398C144.963 325.201 146.432 326.043 149.351 324.367L159.495 318.542L174.522 309.913C180.399 306.538 189.927 306.538 195.804 309.913L213.892 320.3L220.975 324.367C223.894 326.043 225.363 325.201 225.383 327.398C225.403 329.624 223.934 331.854 220.975 333.553L195.804 348.007C189.927 351.382 180.399 351.382 174.522 348.007L149.351 333.553Z" fill="#C4C4C4"/>
<path d="M149.351 333.553C146.393 331.854 144.924 329.624 144.943 327.398C144.963 325.201 146.432 326.043 149.351 324.367L159.495 318.542L174.522 309.913C180.399 306.538 189.927 306.538 195.804 309.913L213.892 320.3L220.975 324.367C223.894 326.043 225.363 325.201 225.383 327.398C225.403 329.624 223.934 331.854 220.975 333.553L195.804 348.007C189.927 351.382 180.399 351.382 174.522 348.007L149.351 333.553Z" fill="#FF791F"/>
<path d="M149.351 333.553C146.393 331.854 144.924 329.624 144.943 327.398C144.963 325.201 146.432 326.043 149.351 324.367L159.495 318.542L174.522 309.913C180.399 306.538 189.927 306.538 195.804 309.913L213.892 320.3L220.975 324.367C223.894 326.043 225.363 325.201 225.383 327.398C225.403 329.624 223.934 331.854 220.975 333.553L195.804 348.007C189.927 351.382 180.399 351.382 174.522 348.007L149.351 333.553Z" fill="url(#paint9_linear_1_1611)" fill-opacity="0.3"/>
<path d="M144.943 327.398C144.963 325.201 146.432 326.043 149.351 324.367L159.495 318.542L144.943 323.504V327.398Z" fill="#C4C4C4"/>
<path d="M144.943 327.398C144.963 325.201 146.432 326.043 149.351 324.367L159.495 318.542L144.943 323.504V327.398Z" fill="#FF791F"/>
<path d="M144.943 327.398C144.963 325.201 146.432 326.043 149.351 324.367L159.495 318.542L144.943 323.504V327.398Z" fill="url(#paint10_linear_1_1611)" fill-opacity="0.3"/>
<path d="M220.975 324.367C223.894 326.043 225.363 325.201 225.383 327.398V323.504L213.892 320.3L220.975 324.367Z" fill="#C4C4C4"/>
<path d="M220.975 324.367C223.894 326.043 225.363 325.201 225.383 327.398V323.504L213.892 320.3L220.975 324.367Z" fill="#FF791F"/>
<path d="M220.975 324.367C223.894 326.043 225.363 325.201 225.383 327.398V323.504L213.892 320.3L220.975 324.367Z" fill="url(#paint11_linear_1_1611)" fill-opacity="0.3"/>
<path d="M149.351 329.66C143.474 326.286 143.474 320.814 149.351 317.439L174.522 302.985C180.399 299.61 189.927 299.61 195.804 302.985L220.975 317.439C226.852 320.814 226.852 326.286 220.975 329.66L195.804 344.115C189.927 347.489 180.399 347.489 174.522 344.115L149.351 329.66Z" fill="#C4C4C4"/>
<path d="M149.351 329.66C143.474 326.286 143.474 320.814 149.351 317.439L174.522 302.985C180.399 299.61 189.927 299.61 195.804 302.985L220.975 317.439C226.852 320.814 226.852 326.286 220.975 329.66L195.804 344.115C189.927 347.489 180.399 347.489 174.522 344.115L149.351 329.66Z" fill="#FF791F"/>
<path d="M149.351 329.66C143.474 326.286 143.474 320.814 149.351 317.439L174.522 302.985C180.399 299.61 189.927 299.61 195.804 302.985L220.975 317.439C226.852 320.814 226.852 326.286 220.975 329.66L195.804 344.115C189.927 347.489 180.399 347.489 174.522 344.115L149.351 329.66Z" fill="url(#paint12_linear_1_1611)" fill-opacity="0.15"/>
<path d="M87.124 297.887C84.1657 296.188 82.6965 293.958 82.7165 291.731C82.7362 289.535 84.2054 290.377 87.124 288.701L97.2677 282.876L112.295 274.247C118.172 270.872 127.7 270.872 133.577 274.247L151.665 284.633L158.748 288.701C161.667 290.377 163.136 289.535 163.156 291.731C163.176 293.958 161.707 296.188 158.748 297.887L133.577 312.341C127.7 315.716 118.172 315.716 112.295 312.341L87.124 297.887Z" fill="#C4C4C4"/>
<path d="M87.124 297.887C84.1657 296.188 82.6965 293.958 82.7165 291.731C82.7362 289.535 84.2054 290.377 87.124 288.701L97.2677 282.876L112.295 274.247C118.172 270.872 127.7 270.872 133.577 274.247L151.665 284.633L158.748 288.701C161.667 290.377 163.136 289.535 163.156 291.731C163.176 293.958 161.707 296.188 158.748 297.887L133.577 312.341C127.7 315.716 118.172 315.716 112.295 312.341L87.124 297.887Z" fill="white"/>
<path d="M87.124 297.887C84.1657 296.188 82.6965 293.958 82.7165 291.731C82.7362 289.535 84.2054 290.377 87.124 288.701L97.2677 282.876L112.295 274.247C118.172 270.872 127.7 270.872 133.577 274.247L151.665 284.633L158.748 288.701C161.667 290.377 163.136 289.535 163.156 291.731C163.176 293.958 161.707 296.188 158.748 297.887L133.577 312.341C127.7 315.716 118.172 315.716 112.295 312.341L87.124 297.887Z" fill="url(#paint13_linear_1_1611)" fill-opacity="0.3"/>
<path d="M82.7165 291.731C82.7362 289.535 84.2054 290.377 87.124 288.701L97.2677 282.876L82.7165 287.837V291.731Z" fill="#C4C4C4"/>
<path d="M82.7165 291.731C82.7362 289.535 84.2054 290.377 87.124 288.701L97.2677 282.876L82.7165 287.837V291.731Z" fill="white"/>
<path d="M82.7165 291.731C82.7362 289.535 84.2054 290.377 87.124 288.701L97.2677 282.876L82.7165 287.837V291.731Z" fill="url(#paint14_linear_1_1611)" fill-opacity="0.3"/>
<path d="M158.748 288.701C161.667 290.377 163.136 289.535 163.156 291.731V287.837L151.665 284.633L158.748 288.701Z" fill="#C4C4C4"/>
<path d="M158.748 288.701C161.667 290.377 163.136 289.535 163.156 291.731V287.837L151.665 284.633L158.748 288.701Z" fill="white"/>
<path d="M158.748 288.701C161.667 290.377 163.136 289.535 163.156 291.731V287.837L151.665 284.633L158.748 288.701Z" fill="url(#paint15_linear_1_1611)" fill-opacity="0.3"/>
<path d="M87.1241 293.994C81.2471 290.619 81.2471 285.147 87.1241 281.772L112.295 267.318C118.172 263.943 127.7 263.943 133.577 267.318L158.748 281.772C164.625 285.147 164.625 290.619 158.748 293.994L133.577 308.448C127.7 311.823 118.172 311.823 112.295 308.448L87.1241 293.994Z" fill="#C4C4C4"/>
<path d="M87.1241 293.994C81.2471 290.619 81.2471 285.147 87.1241 281.772L112.295 267.318C118.172 263.943 127.7 263.943 133.577 267.318L158.748 281.772C164.625 285.147 164.625 290.619 158.748 293.994L133.577 308.448C127.7 311.823 118.172 311.823 112.295 308.448L87.1241 293.994Z" fill="white"/>
<path d="M87.1241 293.994C81.2471 290.619 81.2471 285.147 87.1241 281.772L112.295 267.318C118.172 263.943 127.7 263.943 133.577 267.318L158.748 281.772C164.625 285.147 164.625 290.619 158.748 293.994L133.577 308.448C127.7 311.823 118.172 311.823 112.295 308.448L87.1241 293.994Z" fill="url(#paint16_linear_1_1611)" fill-opacity="0.15"/>
<path d="M85.5555 203.505C76.0246 209.256 75.1628 225.285 83.6307 239.306C88.582 247.505 95.6266 253.201 102.529 255.369L144.367 231.11L91.1188 200.314L85.5555 203.505Z" fill="#DEE0E2"/>
<path d="M84.5049 204.078C88.5229 201.763 94.0639 202.087 100.172 205.616L276.802 307.284L384.363 245.177L200.056 147.995C194.094 144.547 188.666 144.159 184.681 146.295L184.648 146.312C184.538 146.362 184.434 146.424 184.328 146.488C184.263 146.527 184.198 146.566 184.13 146.603L84.5049 204.078Z" fill="white"/>
<path d="M84.5049 204.078C88.5229 201.763 94.0639 202.087 100.172 205.616L276.802 307.284L384.363 245.177L200.056 147.995C194.094 144.547 188.666 144.159 184.681 146.295L184.648 146.312C184.538 146.362 184.434 146.424 184.328 146.488C184.263 146.527 184.198 146.566 184.13 146.603L84.5049 204.078Z" fill="url(#paint17_linear_1_1611)" fill-opacity="0.04"/>
<path d="M245.277 256.06L133.451 191.547L129.153 193.97L240.979 258.484L245.277 256.06Z" fill="#ECEDEE"/>
<path d="M243.356 233.51L152.229 180.925L147.931 183.349L239.058 235.934L243.356 233.51Z" fill="#ECEDEE"/>
<path d="M227.532 235.078L142.841 186.224L138.542 188.671L223.234 237.526L227.532 235.078Z" fill="#ECEDEE"/>
<path d="M254.666 250.738L233.967 238.809L229.669 241.233L250.368 253.185L254.666 250.738Z" fill="#ECEDEE"/>
<path d="M477.292 285.779V437.652C477.292 439.41 476.593 440.954 474.487 442.162L435.801 464.257C434.033 465.259 431.798 465.8 429.627 465.848V313.292C431.791 313.237 434.038 312.691 435.808 311.679L474.486 289.512C476.341 288.448 477.292 287.078 477.292 285.779Z" fill="white"/>
<path d="M477.292 285.779V437.652C477.292 439.41 476.593 440.954 474.487 442.162L435.801 464.257C434.033 465.259 431.798 465.8 429.627 465.848V313.292C431.791 313.237 434.038 312.691 435.808 311.679L474.486 289.512C476.341 288.448 477.292 287.078 477.292 285.779Z" fill="url(#paint18_linear_1_1611)" fill-opacity="0.6"/>
<path d="M381.962 285.779V437.652C381.962 439.41 382.661 440.954 384.767 442.162L423.453 464.257C425.221 465.259 427.456 465.8 429.627 465.848V313.292C427.464 313.237 425.216 312.691 423.446 311.679L384.768 289.512C382.913 288.448 381.962 287.078 381.962 285.779Z" fill="white"/>
<path d="M381.962 285.779V437.652C381.962 439.41 382.661 440.954 384.767 442.162L423.453 464.257C425.221 465.259 427.456 465.8 429.627 465.848V313.292C427.464 313.237 425.216 312.691 423.446 311.679L384.768 289.512C382.913 288.448 381.962 287.078 381.962 285.779Z" fill="url(#paint19_linear_1_1611)" fill-opacity="0.2"/>
<g filter="url(#filter0_i_1_1611)">
<path d="M475.306 289.739L434.972 312.885C432.03 314.58 426.854 314.356 423.446 312.406L384.768 290.202C381.376 288.252 381.006 285.279 383.948 283.584L424.282 260.438C427.224 258.743 432.4 258.967 435.808 260.917L474.486 283.121C477.878 285.071 478.248 288.06 475.306 289.739Z" fill="white"/>
<path d="M475.306 289.739L434.972 312.885C432.03 314.58 426.854 314.356 423.446 312.406L384.768 290.202C381.376 288.252 381.006 285.279 383.948 283.584L424.282 260.438C427.224 258.743 432.4 258.967 435.808 260.917L474.486 283.121C477.878 285.071 478.248 288.06 475.306 289.739Z" fill="url(#paint20_linear_1_1611)" fill-opacity="0.6"/>
</g>

<path d="M413.739 272.539V472.077C413.739 473.836 413.039 475.379 410.933 476.588L372.247 498.683C370.479 499.685 368.244 500.225 366.073 500.273V300.051C368.237 299.997 370.484 299.451 372.254 298.439L410.933 276.272C412.787 275.208 413.738 273.838 413.739 272.539Z" fill="#FF835E"/>
<path d="M413.739 272.539V472.077C413.739 473.836 413.039 475.379 410.933 476.588L372.247 498.683C370.479 499.685 368.244 500.225 366.073 500.273V300.051C368.237 299.997 370.484 299.451 372.254 298.439L410.933 276.272C412.787 275.208 413.738 273.838 413.739 272.539Z" fill="url(#paint21_linear_1_1611)" fill-opacity="0.75"/>
<path d="M318.408 272.539V472.077C318.408 473.836 319.107 475.379 321.213 476.588L359.899 498.683C361.668 499.685 363.903 500.225 366.073 500.273V300.051C363.91 299.997 361.662 299.451 359.892 298.439L321.214 276.272C319.36 275.208 318.408 273.838 318.408 272.539Z" fill="#FFB199"/>
<path d="M318.408 272.539V472.077C318.408 473.836 319.107 475.379 321.213 476.588L359.899 498.683C361.668 499.685 363.903 500.225 366.073 500.273V300.051C363.91 299.997 361.662 299.451 359.892 298.439L321.214 276.272C319.36 275.208 318.408 273.838 318.408 272.539Z" fill="url(#paint22_linear_1_1611)" fill-opacity="0.75"/>
<path d="M411.752 276.498L371.418 299.645C368.477 301.339 363.3 301.116 359.892 299.165L321.214 276.962C317.822 275.012 317.452 272.038 320.394 270.344L360.728 247.197C363.67 245.503 368.846 245.727 372.254 247.677L410.933 269.88C414.325 271.831 414.694 274.82 411.752 276.498Z" fill="#FF835E"/>
<path d="M411.752 276.498L371.418 299.645C368.477 301.339 363.3 301.116 359.892 299.165L321.214 276.962C317.822 275.012 317.452 272.038 320.394 270.344L360.728 247.197C363.67 245.503 368.846 245.727 372.254 247.677L410.933 269.88C414.325 271.831 414.694 274.82 411.752 276.498Z" fill="url(#paint23_linear_1_1611)" fill-opacity="0.75"/>
<path d="M413.739 223.108V254.935C413.739 256.693 413.039 258.236 410.933 259.445L372.247 281.54C370.479 282.542 368.244 283.083 366.073 283.131V250.62C368.237 250.566 370.484 250.02 372.254 249.008L410.933 226.841C412.787 225.777 413.738 224.407 413.739 223.108Z" fill="#FF835E"/>
<path d="M413.739 223.108V254.935C413.739 256.693 413.039 258.236 410.933 259.445L372.247 281.54C370.479 282.542 368.244 283.083 366.073 283.131V250.62C368.237 250.566 370.484 250.02 372.254 249.008L410.933 226.841C412.787 225.777 413.738 224.407 413.739 223.108Z" fill="url(#paint24_linear_1_1611)" fill-opacity="0.75"/>
<path d="M318.408 223.108V254.935C318.408 256.693 319.107 258.236 321.213 259.445L359.899 281.54C361.668 282.542 363.903 283.083 366.073 283.131V250.62C363.91 250.566 361.662 250.02 359.892 249.008L321.214 226.841C319.36 225.777 318.408 224.407 318.408 223.108Z" fill="#FFB199"/>
<path d="M318.408 223.108V254.935C318.408 256.693 319.107 258.236 321.213 259.445L359.899 281.54C361.668 282.542 363.903 283.083 366.073 283.131V250.62C363.91 250.566 361.662 250.02 359.892 249.008L321.214 226.841C319.36 225.777 318.408 224.407 318.408 223.108Z" fill="url(#paint25_linear_1_1611)" fill-opacity="0.75"/>
<path d="M411.752 227.068L371.418 250.214C368.477 251.909 363.3 251.685 359.892 249.735L321.214 227.531C317.822 225.581 317.452 222.608 320.394 220.913L360.728 197.767C363.67 196.072 368.846 196.296 372.254 198.246L410.933 220.45C414.325 222.4 414.694 225.389 411.752 227.068Z" fill="#FF835E"/>
<path d="M411.752 227.068L371.418 250.214C368.477 251.909 363.3 251.685 359.892 249.735L321.214 227.531C317.822 225.581 317.452 222.608 320.394 220.913L360.728 197.767C363.67 196.072 368.846 196.296 372.254 198.246L410.933 220.45C414.325 222.4 414.694 225.389 411.752 227.068Z" fill="url(#paint26_linear_1_1611)" fill-opacity="0.75"/>

<path d="M351.95 448.194V506.502C351.95 508.261 351.251 509.804 349.145 511.013L310.459 533.107C308.69 534.11 306.455 534.65 304.285 534.698V475.707C306.448 475.653 308.696 475.106 310.466 474.095L349.144 451.928C350.998 450.863 351.949 449.494 351.95 448.194Z" fill="white"/>
<path d="M351.95 448.194V506.502C351.95 508.261 351.251 509.804 349.145 511.013L310.459 533.107C308.69 534.11 306.455 534.65 304.285 534.698V475.707C306.448 475.653 308.696 475.106 310.466 474.095L349.144 451.928C350.998 450.863 351.949 449.494 351.95 448.194Z" fill="url(#paint27_linear_1_1611)" fill-opacity="0.6"/>
<path d="M256.619 448.194V506.502C256.619 508.261 257.318 509.804 259.425 511.013L298.11 533.107C299.879 534.11 302.114 534.65 304.285 534.698V475.707C302.121 475.653 299.874 475.106 298.104 474.095L259.425 451.928C257.571 450.863 256.62 449.494 256.619 448.194Z" fill="white"/>
<path d="M256.619 448.194V506.502C256.619 508.261 257.318 509.804 259.425 511.013L298.11 533.107C299.879 534.11 302.114 534.65 304.285 534.698V475.707C302.121 475.653 299.874 475.106 298.104 474.095L259.425 451.928C257.571 450.863 256.62 449.494 256.619 448.194Z" fill="url(#paint28_linear_1_1611)" fill-opacity="0.2"/>
<path d="M349.964 452.154L309.63 475.301C306.688 476.995 301.512 476.771 298.104 474.821L259.425 452.618C256.033 450.667 255.664 447.694 258.606 446L298.94 422.853C301.881 421.159 307.058 421.382 310.466 423.333L349.144 445.536C352.536 447.486 352.906 450.476 349.964 452.154Z" fill="white"/>
<path d="M349.964 452.154L309.63 475.301C306.688 476.995 301.512 476.771 298.104 474.821L259.425 452.618C256.033 450.667 255.664 447.694 258.606 446L298.94 422.853C301.881 421.159 307.058 421.382 310.466 423.333L349.144 445.536C352.536 447.486 352.906 450.476 349.964 452.154Z" fill="url(#paint29_linear_1_1611)" fill-opacity="0.6"/>
<path d="M351.95 416.417V430.59C351.95 432.349 351.251 433.892 349.145 435.101L310.459 457.196C308.69 458.198 306.455 458.739 304.285 458.786V443.93C306.448 443.876 308.696 443.329 310.466 442.318L349.144 420.151C350.998 419.086 351.949 417.717 351.95 416.417Z" fill="white"/>
<path d="M351.95 416.417V430.59C351.95 432.349 351.251 433.892 349.145 435.101L310.459 457.196C308.69 458.198 306.455 458.739 304.285 458.786V443.93C306.448 443.876 308.696 443.329 310.466 442.318L349.144 420.151C350.998 419.086 351.949 417.717 351.95 416.417Z" fill="url(#paint30_linear_1_1611)" fill-opacity="0.6"/>
<path d="M256.619 416.417V430.59C256.619 432.349 257.318 433.892 259.425 435.101L298.11 457.196C299.879 458.198 302.114 458.739 304.285 458.786V443.93C302.121 443.876 299.874 443.329 298.104 442.318L259.425 420.151C257.571 419.086 256.62 417.717 256.619 416.417Z" fill="white"/>
<path d="M256.619 416.417V430.59C256.619 432.349 257.318 433.892 259.425 435.101L298.11 457.196C299.879 458.198 302.114 458.739 304.285 458.786V443.93C302.121 443.876 299.874 443.329 298.104 442.318L259.425 420.151C257.571 419.086 256.62 417.717 256.619 416.417Z" fill="url(#paint31_linear_1_1611)" fill-opacity="0.2"/>
<g filter="url(#filter1_i_1_1611)">
<path d="M349.964 420.377L309.63 443.524C306.688 445.218 301.512 444.994 298.104 443.044L259.425 420.841C256.033 418.891 255.664 415.917 258.606 414.223L298.94 391.076C301.881 389.382 307.058 389.606 310.466 391.556L349.144 413.759C352.536 415.709 352.906 418.699 349.964 420.377Z" fill="white"/>
<path d="M349.964 420.377L309.63 443.524C306.688 445.218 301.512 444.994 298.104 443.044L259.425 420.841C256.033 418.891 255.664 415.917 258.606 414.223L298.94 391.076C301.881 389.382 307.058 389.606 310.466 391.556L349.144 413.759C352.536 415.709 352.906 418.699 349.964 420.377Z" fill="url(#paint32_linear_1_1611)" fill-opacity="0.6"/>
</g>
<g class="Gift_1">
    <path d="M366.073 224.739V286.838L318.408 259.1V196.587L366.073 224.739Z" fill="white"/>
    <path d="M366.073 224.739V286.838L318.408 259.1V196.587L366.073 224.739Z" fill="url(#paint33_linear_1_1611)" fill-opacity="0.2"/>
    <path d="M366.073 224.739V240.722L318.408 212.984V196.587L366.073 224.739Z" fill="#FFB199"/>
    <path d="M366.073 224.739V240.722L318.408 212.984V196.587L366.073 224.739Z" fill="url(#paint34_linear_1_1611)" fill-opacity="0.75"/>
    <path d="M366.073 224.739V286.838L413.739 259.1V196.587L366.073 224.739Z" fill="white"/>
    <path d="M366.073 224.739V286.838L413.739 259.1V196.587L366.073 224.739Z" fill="url(#paint35_linear_1_1611)" fill-opacity="0.6"/>
    <path d="M366.073 224.739V240.722L413.739 212.984V196.587L366.073 224.739Z" fill="#FF835E"/>
    <path d="M366.073 224.739V240.722L413.739 212.984V196.587L366.073 224.739Z" fill="url(#paint36_linear_1_1611)" fill-opacity="0.75"/>
    <path d="M318.408 196.639L366.073 224.844L413.739 196.639L365.659 169.263L318.408 196.639Z" fill="#FF835E"/>
    <path d="M318.408 196.639L366.073 224.844L413.739 196.639L365.659 169.263L318.408 196.639Z" fill="url(#paint37_linear_1_1611)" fill-opacity="0.75"/>
    <path d="M386.185 212.997V275.636L394.928 270.861V207.801L386.185 212.997Z" fill="#CACDCF"/>
    <path d="M346.243 213.127V275.766L337.771 271.122V208.061L346.243 213.127Z" fill="#ECEDEE"/>
    <path d="M338.031 184.861L386.239 212.997L394.928 207.801L346.612 179.805L338.031 184.861Z" fill="#ECEDEE"/>
    <path d="M394.006 185.142L346.189 213.127L337.771 208.061L385.686 180.227L394.006 185.142Z" fill="#ECEDEE"/>
</g>
<path style="mix-blend-mode:multiply" opacity="0.4" d="M430.499 542.552C461.15 542.552 485.998 527.65 485.998 509.267C485.998 490.885 461.15 475.983 430.499 475.983C399.848 475.983 375 490.885 375 509.267C375 527.65 399.848 542.552 430.499 542.552Z" fill="url(#paint38_radial_1_1611)"/>
<path d="M469.334 476.27H392.362V508.739C392.362 521.116 409.588 531.148 430.848 531.148C452.107 531.148 469.334 521.116 469.334 508.739V476.27Z" fill="url(#paint39_linear_1_1611)"/>
<path style="mix-blend-mode:multiply" d="M469.334 467.342H392.362V499.811C392.362 512.188 409.588 522.22 430.848 522.22C452.107 522.22 469.334 512.188 469.334 499.811V467.342Z" fill="url(#paint40_linear_1_1611)"/>
<path d="M430.848 498.837C452.103 498.837 469.334 488.804 469.334 476.428C469.334 464.051 452.103 454.019 430.848 454.019C409.593 454.019 392.362 464.051 392.362 476.428C392.362 488.804 409.593 498.837 430.848 498.837Z" fill="url(#paint41_linear_1_1611)"/>
<path style="mix-blend-mode:color-dodge" d="M430.848 498.744C409.82 498.744 392.752 488.926 392.381 476.734C392.381 476.863 392.362 477.003 392.362 477.132C392.362 489.51 409.588 499.541 430.848 499.541C452.107 499.541 469.334 489.51 469.334 477.132C469.334 477.003 469.325 476.863 469.315 476.734C468.944 488.926 451.876 498.744 430.848 498.744Z" fill="url(#paint42_radial_1_1611)"/>
<path d="M469.391 469.604H391.204V482.565C391.204 495.137 408.709 505.326 430.302 505.326C451.896 505.326 469.4 495.137 469.4 482.565V469.604H469.391Z" fill="url(#paint43_linear_1_1611)"/>
<path d="M430.302 492.523C451.896 492.523 469.4 482.332 469.4 469.761C469.4 457.191 451.896 447 430.302 447C408.709 447 391.205 457.191 391.205 469.761C391.205 482.332 408.709 492.523 430.302 492.523Z" fill="url(#paint44_linear_1_1611)"/>
<path style="mix-blend-mode:color-dodge" d="M430.302 492.43C408.95 492.43 391.603 482.454 391.223 470.067C391.223 470.206 391.204 470.336 391.204 470.475C391.204 483.047 408.709 493.237 430.302 493.237C451.896 493.237 469.4 483.047 469.4 470.475C469.4 470.336 469.391 470.206 469.382 470.067C469.011 482.454 451.664 492.43 430.302 492.43Z" fill="url(#paint45_radial_1_1611)"/>
<path d="M446.579 465.494C446.724 465.578 446.863 465.664 447 465.755C448.771 466.945 449.527 468.318 449.273 469.883C449.217 470.23 448.887 470.15 448.525 470.119C445.921 469.894 443.522 470.176 441.535 471.207C438.829 472.614 438.03 474.366 439.043 476.387C439.193 476.688 439.121 476.823 438.617 476.95C435.553 477.719 432.395 478.241 429.014 478.166C427.674 478.136 426.613 477.865 425.793 477.391C425.323 477.12 424.933 476.783 424.615 476.387C424.273 475.961 423.995 475.517 423.62 475.102C423.291 474.738 422.884 474.423 422.412 474.151C421.678 473.728 420.786 473.406 419.781 473.159C418.934 472.95 418.074 472.758 417.312 472.443C417.114 472.362 416.936 472.274 416.776 472.181C415.995 471.729 415.639 471.155 415.552 470.503C415.375 469.144 415.796 467.825 416.45 466.531C417.532 464.395 419.339 462.497 423.072 460.303C424.26 459.601 426.832 458.724 430.065 458.589C432.736 458.477 435.227 459.021 437.012 460.051C437.776 460.492 438.411 461.023 438.876 461.629C439.078 461.891 439.297 462.151 439.461 462.422C439.685 462.791 440.015 463.095 440.444 463.342C440.889 463.599 441.438 463.796 442.085 463.946C443.727 464.323 445.315 464.764 446.579 465.494Z" fill="white"/>
<path d="M453.154 461.782C453.4 461.924 453.392 462.054 453.066 462.25C450.551 463.762 446.015 464.111 442.91 463.017C442.756 462.963 442.614 462.898 442.475 462.831C442.278 462.738 442.123 462.662 442.011 462.597C441.612 462.368 441.758 462.272 442.434 461.932C445.273 460.501 449.981 460.399 452.969 461.693C453.043 461.723 453.104 461.752 453.154 461.782Z" fill="white"/>
<path d="M333.227 417.241C334.783 418.139 334.539 418.783 332.739 419.529C332.675 419.559 332.612 419.588 332.568 419.627C331.387 420.598 330.406 420.603 328.942 419.759C328.898 419.734 328.849 419.705 328.805 419.676C326.306 418.178 323.778 416.699 321.231 415.23C318.298 413.536 315.34 411.853 312.397 410.164C308.293 407.812 305.994 407.822 301.905 410.164C300.06 411.223 298.259 412.311 296.39 413.351C295.658 413.756 295.438 414.098 296.112 414.483C296.18 414.522 296.258 414.561 296.346 414.605C296.458 414.659 296.565 414.713 296.668 414.776C296.853 414.883 297.029 414.996 297.215 415.103C297.381 415.201 297.542 415.293 297.693 415.381C300.528 417.021 300.699 416.933 304.071 415.269C307.048 413.8 310.816 413.81 313.769 415.44C315.423 416.352 317.048 417.285 318.669 418.217C319.445 418.666 320.221 419.115 320.997 419.564C321.641 419.939 322.285 420.31 322.934 420.686C323.871 421.228 324.813 421.77 325.76 422.302C326.56 422.765 326.619 423.058 325.828 423.566C322.89 425.469 322.934 425.488 319.874 423.722C319.635 423.585 319.396 423.448 319.157 423.312C318.678 423.038 318.205 422.76 317.727 422.487C317.122 422.136 316.516 421.784 315.906 421.433C314.633 420.696 313.349 419.964 312.051 419.246C310.089 418.158 307.644 418.47 306.463 419.856C306.165 420.203 306.346 420.408 306.639 420.579C306.731 420.632 306.839 420.681 306.941 420.73C307.048 420.779 307.151 420.833 307.249 420.886C309.137 421.994 311.011 423.102 312.915 424.2C314.359 425.035 315.818 425.859 317.307 426.669C317.366 426.704 317.424 426.733 317.478 426.762C318.678 427.455 318.649 427.943 317.258 428.539C316.809 428.729 316.394 428.978 316.058 429.236C315.169 429.92 314.442 429.871 313.442 429.295C312.368 428.651 311.363 428.07 310.357 427.489C309.757 427.143 309.157 426.796 308.557 426.455C308 426.133 307.439 425.815 306.883 425.493C305.702 424.81 304.525 424.122 303.369 423.429C303.33 423.404 303.291 423.385 303.256 423.361C302.139 422.716 301.382 422.702 300.265 423.414C298.527 424.532 296.58 425.537 294.799 426.63C293.862 427.211 293.203 427.358 292.041 426.718C291.441 426.391 290.929 426.113 290.509 425.869C288.142 424.503 288.606 424.239 291.866 422.341C293.066 421.643 294.228 420.916 295.487 420.252C296.448 419.749 296.317 419.403 295.472 418.871C294.726 418.397 294.12 418.012 293.598 417.714C291.256 416.362 290.651 416.709 287.249 418.685C286.961 418.851 286.678 419.017 286.39 419.183C283.281 420.989 282.544 421.418 280.704 420.354C280.119 420.018 279.426 419.529 278.503 418.885C277.835 418.422 277.815 418.139 278.547 417.714C285.453 413.732 292.207 409.661 299.255 405.772C303.705 403.312 308.801 403.473 313.422 405.884C313.544 405.947 313.666 406.011 313.778 406.074C317.009 407.939 320.24 409.808 323.471 411.667C324.408 412.209 325.33 412.756 326.258 413.302C327.156 413.834 328.053 414.361 328.956 414.883C330.23 415.615 331.519 416.338 332.861 417.026C332.988 417.109 333.114 417.172 333.227 417.241Z" fill="#FF6700"/>
<defs>
<filter id="filter0_i_1_1611" x="381.962" y="259.298" width="95.3308" height="54.7268" filterUnits="userSpaceOnUse" color-interpolation-filters="sRGB">
<feFlood flood-opacity="0" result="BackgroundImageFix"/>
<feBlend mode="normal" in="SourceGraphic" in2="BackgroundImageFix" result="shape"/>
<feColorMatrix in="SourceAlpha" type="matrix" values="0 0 0 0 0 0 0 0 0 0 0 0 0 0 0 0 0 0 127 0" result="hardAlpha"/>
<feOffset dy="-2"/>
<feComposite in2="hardAlpha" operator="arithmetic" k2="-1" k3="1"/>
<feColorMatrix type="matrix" values="0 0 0 0 1 0 0 0 0 1 0 0 0 0 1 0 0 0 1 0"/>
<feBlend mode="normal" in2="shape" result="effect1_innerShadow_1_1611"/>
</filter>
<filter id="filter1_i_1_1611" x="256.619" y="389.937" width="95.3308" height="54.7268" filterUnits="userSpaceOnUse" color-interpolation-filters="sRGB">
<feFlood flood-opacity="0" result="BackgroundImageFix"/>
<feBlend mode="normal" in="SourceGraphic" in2="BackgroundImageFix" result="shape"/>
<feColorMatrix in="SourceAlpha" type="matrix" values="0 0 0 0 0 0 0 0 0 0 0 0 0 0 0 0 0 0 127 0" result="hardAlpha"/>
<feOffset dy="-2"/>
<feComposite in2="hardAlpha" operator="arithmetic" k2="-1" k3="1"/>
<feColorMatrix type="matrix" values="0 0 0 0 1 0 0 0 0 1 0 0 0 0 1 0 0 0 1 0"/>
<feBlend mode="normal" in2="shape" result="effect1_innerShadow_1_1611"/>
</filter>
<linearGradient id="paint0_linear_1_1611" x1="160.838" y1="20.6741" x2="160.838" y2="88.6309" gradientUnits="userSpaceOnUse">
<stop stop-color="white"/>
<stop offset="1" stop-color="#E6E6E6"/>
</linearGradient>
<linearGradient id="paint1_linear_1_1611" x1="243.401" y1="83.6225" x2="203.491" y2="13.3035" gradientUnits="userSpaceOnUse">
<stop stop-color="white"/>
<stop offset="1" stop-color="#C0BDBD"/>
</linearGradient>
<linearGradient id="paint2_linear_1_1611" x1="202.617" y1="160.823" x2="387.181" y2="429.513" gradientUnits="userSpaceOnUse">
<stop stop-color="#CCD1D3" stop-opacity="0.36"/>
<stop offset="1" stop-color="#C3C6CA"/>
</linearGradient>
<linearGradient id="paint3_linear_1_1611" x1="631.379" y1="204.325" x2="130.856" y2="-84.3799" gradientUnits="userSpaceOnUse">
<stop stop-color="#BDC6CB" stop-opacity="0.36"/>
<stop offset="1" stop-color="#B7BEC8"/>
</linearGradient>
<linearGradient id="paint4_linear_1_1611" x1="591.156" y1="82.2799" x2="123.695" y2="358.127" gradientUnits="userSpaceOnUse">
<stop stop-color="#F6F6F5"/>
<stop offset="1" stop-color="#D9D9D9"/>
</linearGradient>
<linearGradient id="paint5_linear_1_1611" x1="233.624" y1="384.504" x2="249.389" y2="401.686" gradientUnits="userSpaceOnUse">
<stop stop-color="#CCD1D3" stop-opacity="0.36"/>
<stop offset="1" stop-color="#C3C6CA"/>
</linearGradient>
<linearGradient id="paint6_linear_1_1611" x1="233.624" y1="384.504" x2="249.389" y2="401.686" gradientUnits="userSpaceOnUse">
<stop stop-color="#CCD1D3" stop-opacity="0.36"/>
<stop offset="1" stop-color="#C3C6CA"/>
</linearGradient>
<linearGradient id="paint7_linear_1_1611" x1="233.624" y1="384.504" x2="249.389" y2="401.686" gradientUnits="userSpaceOnUse">
<stop stop-color="#CCD1D3" stop-opacity="0.36"/>
<stop offset="1" stop-color="#C3C6CA"/>
</linearGradient>
<linearGradient id="paint8_linear_1_1611" x1="212.073" y1="354.444" x2="276.011" y2="317.688" gradientUnits="userSpaceOnUse">
<stop stop-color="#BDC6CB" stop-opacity="0.36"/>
<stop offset="1" stop-color="#B7BEC8"/>
</linearGradient>
<linearGradient id="paint9_linear_1_1611" x1="166.844" y1="347.32" x2="182.609" y2="364.502" gradientUnits="userSpaceOnUse">
<stop stop-color="#CCD1D3" stop-opacity="0.36"/>
<stop offset="1" stop-color="#C3C6CA"/>
</linearGradient>
<linearGradient id="paint10_linear_1_1611" x1="166.844" y1="347.32" x2="182.609" y2="364.502" gradientUnits="userSpaceOnUse">
<stop stop-color="#CCD1D3" stop-opacity="0.36"/>
<stop offset="1" stop-color="#C3C6CA"/>
</linearGradient>
<linearGradient id="paint11_linear_1_1611" x1="166.844" y1="347.32" x2="182.609" y2="364.502" gradientUnits="userSpaceOnUse">
<stop stop-color="#CCD1D3" stop-opacity="0.36"/>
<stop offset="1" stop-color="#C3C6CA"/>
</linearGradient>
<linearGradient id="paint12_linear_1_1611" x1="145.293" y1="317.26" x2="209.231" y2="280.504" gradientUnits="userSpaceOnUse">
<stop stop-color="#BDC6CB" stop-opacity="0.36"/>
<stop offset="1" stop-color="#B7BEC8"/>
</linearGradient>
<linearGradient id="paint13_linear_1_1611" x1="104.617" y1="311.654" x2="120.382" y2="328.836" gradientUnits="userSpaceOnUse">
<stop stop-color="#CCD1D3" stop-opacity="0.36"/>
<stop offset="1" stop-color="#C3C6CA"/>
</linearGradient>
<linearGradient id="paint14_linear_1_1611" x1="104.617" y1="311.654" x2="120.382" y2="328.836" gradientUnits="userSpaceOnUse">
<stop stop-color="#CCD1D3" stop-opacity="0.36"/>
<stop offset="1" stop-color="#C3C6CA"/>
</linearGradient>
<linearGradient id="paint15_linear_1_1611" x1="104.617" y1="311.654" x2="120.382" y2="328.836" gradientUnits="userSpaceOnUse">
<stop stop-color="#CCD1D3" stop-opacity="0.36"/>
<stop offset="1" stop-color="#C3C6CA"/>
</linearGradient>
<linearGradient id="paint16_linear_1_1611" x1="83.0664" y1="281.594" x2="147.004" y2="244.837" gradientUnits="userSpaceOnUse">
<stop stop-color="#BDC6CB" stop-opacity="0.36"/>
<stop offset="1" stop-color="#B7BEC8"/>
</linearGradient>
<linearGradient id="paint17_linear_1_1611" x1="85.6016" y1="203.629" x2="296.055" y2="95.0195" gradientUnits="userSpaceOnUse">
<stop stop-color="#BDC6CB" stop-opacity="0.36"/>
<stop offset="1" stop-color="#B7BEC8"/>
</linearGradient>
<linearGradient id="paint18_linear_1_1611" x1="357.75" y1="300.416" x2="474.629" y2="295.028" gradientUnits="userSpaceOnUse">
<stop stop-color="#CCD1D3" stop-opacity="0.36"/>
<stop offset="1" stop-color="#C3C6CA"/>
</linearGradient>
<linearGradient id="paint19_linear_1_1611" x1="440.179" y1="378.804" x2="384.988" y2="379.496" gradientUnits="userSpaceOnUse">
<stop stop-color="#BDC6CB" stop-opacity="0.36"/>
<stop offset="1" stop-color="#B7BEC8"/>
</linearGradient>
<linearGradient id="paint20_linear_1_1611" x1="457.496" y1="254.655" x2="418.407" y2="392.957" gradientUnits="userSpaceOnUse">
<stop stop-color="#CCD1D3" stop-opacity="0.36"/>
<stop offset="1" stop-color="#C3C6CA"/>
</linearGradient>
<linearGradient id="paint21_linear_1_1611" x1="367.402" y1="481.889" x2="464.78" y2="391.418" gradientUnits="userSpaceOnUse">
<stop stop-color="#FF4810"/>
<stop offset="1" stop-color="#FFB950"/>
</linearGradient>
<linearGradient id="paint22_linear_1_1611" x1="342.241" y1="470.273" x2="426.577" y2="380.227" gradientUnits="userSpaceOnUse">
<stop stop-color="#FF4810"/>
<stop offset="1" stop-color="#FFB950"/>
</linearGradient>
<linearGradient id="paint23_linear_1_1611" x1="411.081" y1="300.785" x2="404.039" y2="250.726" gradientUnits="userSpaceOnUse">
<stop stop-color="#FF4810"/>
<stop offset="1" stop-color="#FFB950"/>
</linearGradient>
<linearGradient id="paint24_linear_1_1611" x1="367.402" y1="278.285" x2="380.916" y2="230.649" gradientUnits="userSpaceOnUse">
<stop stop-color="#FF4810"/>
<stop offset="1" stop-color="#FFB950"/>
</linearGradient>
<linearGradient id="paint25_linear_1_1611" x1="342.241" y1="275.224" x2="352.607" y2="233.231" gradientUnits="userSpaceOnUse">
<stop stop-color="#FF4810"/>
<stop offset="1" stop-color="#FFB950"/>
</linearGradient>
<linearGradient id="paint26_linear_1_1611" x1="411.081" y1="251.354" x2="404.039" y2="201.295" gradientUnits="userSpaceOnUse">
<stop stop-color="#FF4810"/>
<stop offset="1" stop-color="#FFB950"/>
</linearGradient>
<linearGradient id="paint27_linear_1_1611" x1="232.408" y1="427.523" x2="349.287" y2="422.136" gradientUnits="userSpaceOnUse">
<stop stop-color="#CCD1D3" stop-opacity="0.36"/>
<stop offset="1" stop-color="#C3C6CA"/>
</linearGradient>
<linearGradient id="paint28_linear_1_1611" x1="314.837" y1="505.912" x2="259.646" y2="506.604" gradientUnits="userSpaceOnUse">
<stop stop-color="#BDC6CB" stop-opacity="0.36"/>
<stop offset="1" stop-color="#B7BEC8"/>
</linearGradient>
<linearGradient id="paint29_linear_1_1611" x1="332.154" y1="417.07" x2="293.064" y2="555.373" gradientUnits="userSpaceOnUse">
<stop stop-color="#CCD1D3" stop-opacity="0.36"/>
<stop offset="1" stop-color="#C3C6CA"/>
</linearGradient>
<linearGradient id="paint30_linear_1_1611" x1="232.408" y1="395.746" x2="349.287" y2="390.358" gradientUnits="userSpaceOnUse">
<stop stop-color="#CCD1D3" stop-opacity="0.36"/>
<stop offset="1" stop-color="#C3C6CA"/>
</linearGradient>
<linearGradient id="paint31_linear_1_1611" x1="314.837" y1="474.135" x2="259.646" y2="474.827" gradientUnits="userSpaceOnUse">
<stop stop-color="#BDC6CB" stop-opacity="0.36"/>
<stop offset="1" stop-color="#B7BEC8"/>
</linearGradient>
<linearGradient id="paint32_linear_1_1611" x1="332.154" y1="385.293" x2="293.064" y2="523.596" gradientUnits="userSpaceOnUse">
<stop stop-color="#CCD1D3" stop-opacity="0.36"/>
<stop offset="1" stop-color="#C3C6CA"/>
</linearGradient>
<linearGradient id="paint33_linear_1_1611" x1="376.625" y1="293.419" x2="321.433" y2="294.082" gradientUnits="userSpaceOnUse">
<stop stop-color="#BDC6CB" stop-opacity="0.36"/>
<stop offset="1" stop-color="#B7BEC8"/>
</linearGradient>
<linearGradient id="paint34_linear_1_1611" x1="342.241" y1="234.908" x2="347.997" y2="203.194" gradientUnits="userSpaceOnUse">
<stop stop-color="#FF4810"/>
<stop offset="1" stop-color="#FFB950"/>
</linearGradient>
<linearGradient id="paint35_linear_1_1611" x1="294.197" y1="207.432" x2="410.872" y2="200.172" gradientUnits="userSpaceOnUse">
<stop stop-color="#CCD1D3" stop-opacity="0.36"/>
<stop offset="1" stop-color="#C3C6CA"/>
</linearGradient>
<linearGradient id="paint36_linear_1_1611" x1="367.402" y1="240.722" x2="376.286" y2="201.569" gradientUnits="userSpaceOnUse">
<stop stop-color="#FF4810"/>
<stop offset="1" stop-color="#FFB950"/>
</linearGradient>
<linearGradient id="paint37_linear_1_1611" x1="411.081" y1="224.844" x2="403.822" y2="174.035" gradientUnits="userSpaceOnUse">
<stop stop-color="#FF4810"/>
<stop offset="1" stop-color="#FFB950"/>
</linearGradient>
<radialGradient id="paint38_radial_1_1611" cx="0" cy="0" r="1" gradientUnits="userSpaceOnUse" gradientTransform="translate(430.499 509.686) scale(42.0739 25.2444)">
<stop offset="0.52" stop-color="#CED3F4"/>
<stop offset="0.67" stop-color="#D8DCF6"/>
<stop offset="0.91" stop-color="#F3F4FC"/>
<stop offset="1" stop-color="white"/>
</radialGradient>
<linearGradient id="paint39_linear_1_1611" x1="470.001" y1="503.714" x2="392.418" y2="503.714" gradientUnits="userSpaceOnUse">
<stop offset="0.07" stop-color="white"/>
<stop offset="0.46875" stop-color="#DEDEDE"/>
<stop offset="0.55" stop-color="#E4E4E4"/>
<stop offset="0.83" stop-color="#FAFAFA"/>
<stop offset="1" stop-color="#DADADA"/>
</linearGradient>
<linearGradient id="paint40_linear_1_1611" x1="430.848" y1="514.255" x2="430.848" y2="490.483" gradientUnits="userSpaceOnUse">
<stop stop-color="white"/>
<stop offset="1" stop-color="#ECECEC"/>
</linearGradient>
<linearGradient id="paint41_linear_1_1611" x1="419.861" y1="500.997" x2="445.349" y2="443.978" gradientUnits="userSpaceOnUse">
<stop stop-color="white"/>
<stop offset="0.64" stop-color="#F7F7F7"/>
<stop offset="0.9375" stop-color="#E9E9E9"/>
<stop offset="1" stop-color="#E7E7E7"/>
</linearGradient>
<radialGradient id="paint42_radial_1_1611" cx="0" cy="0" r="1" gradientUnits="userSpaceOnUse" gradientTransform="translate(418.489 495.749) scale(28.38 28.38)">
<stop stop-color="white"/>
<stop offset="1"/>
</radialGradient>
<linearGradient id="paint43_linear_1_1611" x1="470.077" y1="487.47" x2="391.26" y2="487.47" gradientUnits="userSpaceOnUse">
<stop offset="0.07" stop-color="#FF9853"/>
<stop offset="0.447917" stop-color="#E67325"/>
<stop offset="0.78125" stop-color="#E39F71"/>
<stop offset="1" stop-color="#FAA871"/>
</linearGradient>
<linearGradient id="paint44_linear_1_1611" x1="405.427" y1="486.894" x2="457.347" y2="453.98" gradientUnits="userSpaceOnUse">
<stop stop-color="#FFB989"/>
<stop offset="0.536152" stop-color="#FF6700"/>
<stop offset="1" stop-color="#FFC096"/>
</linearGradient>
<radialGradient id="paint45_radial_1_1611" cx="0" cy="0" r="1" gradientUnits="userSpaceOnUse" gradientTransform="translate(417.749 489.38) scale(28.8343 28.8343)">
<stop stop-color="white"/>
<stop offset="1"/>
</radialGradient>
</defs>
</svg>
