<svg class="gifts-many" width="585" height="563" viewBox="0 0 585 563" fill="none" xmlns="http://www.w3.org/2000/svg">
<path d="M40.0738 429.391C-1.35795 405.427 -1.35795 366.573 40.0738 342.609L217.524 239.973C258.956 216.009 326.13 216.009 367.562 239.973L545.011 342.609C586.443 366.573 586.443 405.427 545.011 429.391L367.562 532.027C326.13 555.991 258.956 555.991 217.524 532.027L40.0738 429.391Z" fill="white"/>
<mask id="mask0_1_1676" style="mask-type:alpha" maskUnits="userSpaceOnUse" x="9" y="220" width="568" height="328">
<path d="M40.0738 427.391C-1.35795 403.427 -1.35795 364.573 40.0738 340.609L217.524 237.973C258.956 214.009 326.13 214.009 367.562 237.973L545.011 340.609C586.443 364.573 586.443 403.427 545.011 427.391L367.562 530.027C326.13 553.991 258.956 553.991 217.524 530.027L40.0738 427.391Z" fill="url(#paint0_linear_1_1676)"/>
</mask>
<g mask="url(#mask0_1_1676)">
<g filter="url(#filter0_i_1_1676)">
<path d="M40.0738 427.39C-1.35795 403.426 -1.35795 364.573 40.0738 340.609L217.524 237.973C258.956 214.009 326.13 214.009 367.562 237.973L545.011 340.609C586.443 364.573 586.443 403.426 545.011 427.39L367.562 530.027C326.13 553.991 258.956 553.991 217.524 530.027L40.0738 427.39Z" fill="url(#paint1_linear_1_1676)"/>
</g>
<path d="M40.3242 341.042L217.774 238.406C238.396 226.478 265.456 220.5 292.543 220.5C319.63 220.5 346.689 226.478 367.311 238.406L544.761 341.042C565.386 352.971 575.585 368.537 575.585 384C575.585 399.463 565.386 415.028 544.761 426.958L367.311 529.594C346.689 541.522 319.63 547.5 292.543 547.5C265.456 547.5 238.396 541.522 217.774 529.594L40.3242 426.958C19.6996 415.028 9.5 399.463 9.5 384C9.5 368.537 19.6996 352.971 40.3242 341.042Z" stroke="white"/>
<path d="M119.437 454.014V510L162.875 484.993V428.634L119.437 454.014Z" fill="white"/>
<path d="M119.437 454.014V510L162.875 484.993V428.634L119.437 454.014Z" fill="url(#paint2_linear_1_1676)" fill-opacity="0.6"/>
<path d="M119.437 454.014V510L76 484.993V428.634L119.437 454.014Z" fill="white"/>
<path d="M119.437 454.014V510L76 484.993V428.634L119.437 454.014Z" fill="url(#paint3_linear_1_1676)" fill-opacity="0.2"/>
<path d="M76 428.634L119.437 454.014L162.875 428.634L119.06 404L76 428.634Z" fill="white"/>
<path d="M76 428.634L119.437 454.014L162.875 428.634L119.06 404L76 428.634Z" fill="url(#paint4_linear_1_1676)" fill-opacity="0.6"/>
</g>
<path d="M361.432 25.9296V46L377.406 37.0353V16.8311L361.432 25.9296Z" fill="white"/>
<path d="M361.432 25.9296V46L377.406 37.0353V16.8311L361.432 25.9296Z" fill="url(#paint5_linear_1_1676)" fill-opacity="0.6"/>
<path d="M361.431 25.9296V46L345.457 37.0353V16.8311L361.431 25.9296Z" fill="white"/>
<path d="M361.431 25.9296V46L345.457 37.0353V16.8311L361.431 25.9296Z" fill="url(#paint6_linear_1_1676)" fill-opacity="0.2"/>
<path d="M345.457 16.831L361.431 25.9296L377.406 16.831L361.293 8L345.457 16.831Z" fill="white"/>
<path d="M345.457 16.831L361.431 25.9296L377.406 16.831L361.293 8L345.457 16.831Z" fill="url(#paint7_linear_1_1676)" fill-opacity="0.6"/>
<path d="M407.945 109.634V154L441.891 134.183V89.521L407.945 109.634Z" fill="white"/>
<path d="M407.945 109.634V154L441.891 134.183V89.521L407.945 109.634Z" fill="url(#paint8_linear_1_1676)" fill-opacity="0.6"/>
<path d="M407.945 109.634V154L374 134.183V89.521L407.945 109.634Z" fill="white"/>
<path d="M407.945 109.634V154L374 134.183V89.521L407.945 109.634Z" fill="url(#paint9_linear_1_1676)" fill-opacity="0.2"/>
<path d="M374 89.5211L407.945 109.634L441.891 89.5211L407.65 70L374 89.5211Z" fill="white"/>
<path d="M374 89.5211L407.945 109.634L441.891 89.5211L407.65 70L374 89.5211Z" fill="url(#paint10_linear_1_1676)" fill-opacity="0.6"/>
<path d="M158.223 372.891C136.592 360.4 136.592 340.148 158.223 327.657L250.865 274.16C272.496 261.669 307.566 261.669 329.196 274.16L421.839 327.657C443.469 340.148 443.469 360.4 421.839 372.891L329.196 426.389C307.566 438.879 272.496 438.879 250.865 426.389L158.223 372.891Z" fill="white"/>
<path d="M158.223 391.389C147.335 385.127 141.927 376.906 142.001 368.699V349.753C240.688 349.753 339.374 349.753 438.061 349.753V368.699C438.134 376.906 432.727 385.127 421.839 391.389L329.196 444.67C307.566 457.11 272.496 457.11 250.865 444.67L158.223 391.389Z" fill="white"/>
<path d="M158.223 391.389C147.335 385.127 141.927 376.906 142.001 368.699V349.753C240.688 349.753 339.374 349.753 438.061 349.753V368.699C438.134 376.906 432.727 385.127 421.839 391.389L329.196 444.67C307.566 457.11 272.496 457.11 250.865 444.67L158.223 391.389Z" fill="url(#paint11_linear_1_1676)" fill-opacity="0.3"/>
<path d="M158.223 371.848C136.592 359.357 136.592 339.106 158.223 326.615L250.865 273.117C272.496 260.626 307.566 260.626 329.196 273.117L421.839 326.615C443.469 339.106 443.469 359.357 421.839 371.848L329.196 425.346C307.566 437.837 272.496 437.837 250.865 425.346L158.223 371.848Z" fill="white"/>
<path d="M158.223 371.848C136.592 359.357 136.592 339.106 158.223 326.615L250.865 273.117C272.496 260.626 307.566 260.626 329.196 273.117L421.839 326.615C443.469 339.106 443.469 359.357 421.839 371.848L329.196 425.346C307.566 437.837 272.496 437.837 250.865 425.346L158.223 371.848Z" fill="url(#paint12_linear_1_1676)" fill-opacity="0.15"/>
<path d="M290.031 317.344L190.996 260.324L290.031 202.243L389.066 259.269L290.031 317.344Z" fill="url(#paint13_linear_1_1676)"/>
<mask id="mask1_1_1676" style="mask-type:alpha" maskUnits="userSpaceOnUse" x="190" y="202" width="200" height="116">
<path d="M290.031 317.344L190.996 260.324L290.031 202.243L389.066 259.269L290.031 317.344Z" fill="url(#paint14_linear_1_1676)"/>
</mask>
<g mask="url(#mask1_1_1676)">
<path d="M257.022 168.028C257.022 161.379 259.131 156.507 262.621 153.829C266.896 150.549 273.244 150.562 280.331 154.635L333.943 185.441C346.815 192.838 357.251 210.827 357.251 225.621V287.233C357.251 294.261 354.896 299.303 351.044 301.868C350.643 302.135 350.225 302.375 349.793 302.588C345.633 304.633 340.064 304.144 333.942 300.627L280.331 269.821C267.458 262.424 257.022 244.434 257.022 229.64L257.022 168.028Z" fill="#C4C4C4"/>
<path d="M257.022 168.028C257.022 161.379 259.131 156.507 262.621 153.829C266.896 150.549 273.244 150.562 280.331 154.635L333.943 185.441C346.815 192.838 357.251 210.827 357.251 225.621V287.233C357.251 294.261 354.896 299.303 351.044 301.868C350.643 302.135 350.225 302.375 349.793 302.588C345.633 304.633 340.064 304.144 333.942 300.627L280.331 269.821C267.458 262.424 257.022 244.434 257.022 229.64L257.022 168.028Z" fill="#FF835E"/>
<path d="M257.022 168.028C257.022 161.379 259.131 156.507 262.621 153.829C266.896 150.549 273.244 150.562 280.331 154.635L333.943 185.441C346.815 192.838 357.251 210.827 357.251 225.621V287.233C357.251 294.261 354.896 299.303 351.044 301.868C350.643 302.135 350.225 302.375 349.793 302.588C345.633 304.633 340.064 304.144 333.942 300.627L280.331 269.821C267.458 262.424 257.022 244.434 257.022 229.64L257.022 168.028Z" fill="url(#paint15_linear_1_1676)" fill-opacity="0.75"/>
<path d="M257.022 168.028C257.022 161.379 259.131 156.507 262.621 153.829L242.316 165.272L257.022 168.028Z" fill="#C4C4C4"/>
<path d="M257.022 168.028C257.022 161.379 259.131 156.507 262.621 153.829L242.316 165.272L257.022 168.028Z" fill="#FF835E"/>
<path d="M257.022 168.028C257.022 161.379 259.131 156.507 262.621 153.829L242.316 165.272L257.022 168.028Z" fill="url(#paint16_linear_1_1676)" fill-opacity="0.75"/>
<path d="M349.793 302.588C345.633 304.633 340.064 304.144 333.942 300.627L330.466 313.555C335.984 310.429 346.217 304.629 349.793 302.588Z" fill="#C4C4C4"/>
<path d="M349.793 302.588C345.633 304.633 340.064 304.144 333.942 300.627L330.466 313.555C335.984 310.429 346.217 304.629 349.793 302.588Z" fill="#FF835E"/>
<path d="M349.793 302.588C345.633 304.633 340.064 304.144 333.942 300.627L330.466 313.555C335.984 310.429 346.217 304.629 349.793 302.588Z" fill="url(#paint17_linear_1_1676)" fill-opacity="0.75"/>
<path d="M237.106 179.28C237.106 164.486 247.541 158.489 260.414 165.886L314.026 196.692C326.899 204.089 337.334 222.079 337.334 236.873V298.485C337.334 313.279 326.899 319.275 314.026 311.878L260.414 281.072C247.541 273.675 237.106 255.686 237.106 240.892L237.106 179.28Z" fill="#C4C4C4"/>
<path d="M237.106 179.28C237.106 164.486 247.541 158.489 260.414 165.886L314.026 196.692C326.899 204.089 337.334 222.079 337.334 236.873V298.485C337.334 313.279 326.899 319.275 314.026 311.878L260.414 281.072C247.541 273.675 237.106 255.686 237.106 240.892L237.106 179.28Z" fill="#FFB199"/>
<path d="M237.106 179.28C237.106 164.486 247.541 158.489 260.414 165.886L314.026 196.692C326.899 204.089 337.334 222.079 337.334 236.873V298.485C337.334 313.279 326.899 319.275 314.026 311.878L260.414 281.072C247.541 273.675 237.106 255.686 237.106 240.892L237.106 179.28Z" fill="url(#paint18_linear_1_1676)" fill-opacity="0.75"/>
<path fill-rule="evenodd" clip-rule="evenodd" d="M294.73 214.338L308.547 215.581L308.547 260.758C308.547 264.263 306.504 266.293 303.27 266.002L289.452 264.758L289.452 219.582C289.452 216.077 291.495 214.047 294.73 214.338ZM279.904 238.451L266.087 237.207C262.852 236.916 260.809 238.946 260.809 242.451L260.809 262.18L274.627 263.424C277.861 263.715 279.904 261.685 279.904 258.18L279.904 238.451Z" fill="white"/>
</g>
<path d="M290.026 316.188L192.986 260.316L290.035 203.4L387.075 259.277L290.026 316.188Z" stroke="white" stroke-width="2"/>
<path d="M290.031 411.78L190.996 354.759V260.324L290.031 317.344V411.78Z" fill="white"/>
<path d="M290.031 411.78L190.996 354.759V260.324L290.031 317.344V411.78Z" fill="url(#paint19_linear_1_1676)" fill-opacity="0.2"/>
<path d="M389.066 353.704L290.031 411.78V317.344L389.066 259.269V353.704Z" fill="white"/>
<path d="M389.066 353.704L290.031 411.78V317.344L389.066 259.269V353.704Z" fill="url(#paint20_linear_1_1676)" fill-opacity="0.6"/>
<path d="M351.568 375.695L330.895 387.819V293.384L351.568 281.259V375.695Z" fill="#FFC63D"/>
<path d="M351.568 375.695L330.895 387.819V293.384L351.568 281.259V375.695Z" fill="url(#paint21_radial_1_1676)"/>
<path d="M247.462 387.27L226.788 375.656V280.931L247.462 292.835V387.27Z" fill="#FFC63D"/>
<path d="M247.462 387.27L226.788 375.656V280.931L247.462 292.835V387.27Z" fill="url(#paint22_radial_1_1676)"/>
<mask id="mask2_1_1676" style="mask-type:alpha" maskUnits="userSpaceOnUse" x="190" y="149" width="199" height="168">
<path d="M289.675 316.087L190.856 259.036V149.077H388.494V257.98L289.675 316.087Z" fill="url(#paint23_linear_1_1676)"/>
</mask>
<g mask="url(#mask2_1_1676)">
<path d="M256.738 167.733C256.738 161.08 258.842 156.205 262.324 153.526C266.59 150.245 272.925 150.258 279.996 154.332L333.491 185.155C346.336 192.556 356.749 210.555 356.749 225.357V287.002C356.749 294.033 354.399 299.078 350.555 301.644C350.155 301.912 349.738 302.152 349.307 302.365C345.157 304.411 339.599 303.922 333.491 300.403L279.996 269.58C267.151 262.179 256.738 244.18 256.738 229.378L256.738 167.733Z" fill="#C4C4C4"/>
<path d="M256.738 167.733C256.738 161.08 258.842 156.205 262.324 153.526C266.59 150.245 272.925 150.258 279.996 154.332L333.491 185.155C346.336 192.556 356.749 210.555 356.749 225.357V287.002C356.749 294.033 354.399 299.078 350.555 301.644C350.155 301.912 349.738 302.152 349.307 302.365C345.157 304.411 339.599 303.922 333.491 300.403L279.996 269.58C267.151 262.179 256.738 244.18 256.738 229.378L256.738 167.733Z" fill="#FF835E"/>
<path d="M256.738 167.733C256.738 161.08 258.842 156.205 262.324 153.526C266.59 150.245 272.925 150.258 279.996 154.332L333.491 185.155C346.336 192.556 356.749 210.555 356.749 225.357V287.002C356.749 294.033 354.399 299.078 350.555 301.644C350.155 301.912 349.738 302.152 349.307 302.365C345.157 304.411 339.599 303.922 333.491 300.403L279.996 269.58C267.151 262.179 256.738 244.18 256.738 229.378L256.738 167.733Z" fill="url(#paint24_linear_1_1676)" fill-opacity="0.75"/>
<path d="M256.738 167.733C256.738 161.08 258.842 156.205 262.324 153.526L242.064 164.976L256.738 167.733Z" fill="#C4C4C4"/>
<path d="M256.738 167.733C256.738 161.08 258.842 156.205 262.324 153.526L242.064 164.976L256.738 167.733Z" fill="#FF835E"/>
<path d="M256.738 167.733C256.738 161.08 258.842 156.205 262.324 153.526L242.064 164.976L256.738 167.733Z" fill="url(#paint25_linear_1_1676)" fill-opacity="0.75"/>
<path d="M349.307 302.365C345.157 304.411 339.599 303.922 333.491 300.403L330.022 313.338C335.528 310.21 345.739 304.407 349.307 302.365Z" fill="#C4C4C4"/>
<path d="M349.307 302.365C345.157 304.411 339.599 303.922 333.491 300.403L330.022 313.338C335.528 310.21 345.739 304.407 349.307 302.365Z" fill="#FF835E"/>
<path d="M349.307 302.365C345.157 304.411 339.599 303.922 333.491 300.403L330.022 313.338C335.528 310.21 345.739 304.407 349.307 302.365Z" fill="url(#paint26_linear_1_1676)" fill-opacity="0.75"/>
<path d="M236.865 178.99C236.865 164.188 247.278 158.188 260.123 165.589L313.618 196.412C326.463 203.813 336.875 221.812 336.875 236.614V298.259C336.875 313.061 326.462 319.061 313.618 311.66L260.123 280.837C247.278 273.436 236.865 255.437 236.865 240.635L236.865 178.99Z" fill="#C4C4C4"/>
<path d="M236.865 178.99C236.865 164.188 247.278 158.188 260.123 165.589L313.618 196.412C326.463 203.813 336.875 221.812 336.875 236.614V298.259C336.875 313.061 326.462 319.061 313.618 311.66L260.123 280.837C247.278 273.436 236.865 255.437 236.865 240.635L236.865 178.99Z" fill="#FFB199"/>
<path d="M236.865 178.99C236.865 164.188 247.278 158.188 260.123 165.589L313.618 196.412C326.463 203.813 336.875 221.812 336.875 236.614V298.259C336.875 313.061 326.462 319.061 313.618 311.66L260.123 280.837C247.278 273.436 236.865 255.437 236.865 240.635L236.865 178.99Z" fill="url(#paint27_linear_1_1676)" fill-opacity="0.75"/>
<path fill-rule="evenodd" clip-rule="evenodd" d="M294.364 214.067L308.151 215.312L308.151 260.513C308.151 264.019 306.112 266.05 302.885 265.759L289.097 264.515L289.097 219.314C289.097 215.807 291.136 213.776 294.364 214.067ZM279.57 238.194L265.783 236.949C262.556 236.658 260.516 238.689 260.516 242.196L260.516 261.935L274.304 263.18C277.532 263.471 279.57 261.44 279.57 257.933L279.57 238.194Z" fill="white"/>
</g>




<g class="cubbig" gfilter="url(#filter1_i_1_1676)">
    <path d="M289.507 213.71L186.826 155.008V109.483L289.507 168.865V213.71Z" fill="white"/>
    <path d="M289.507 213.71L186.826 155.008V109.483L289.507 168.865V213.71Z" fill="url(#paint28_linear_1_1676)" fill-opacity="0.2"/>
    <path d="M392.193 155.546L289.507 213.71V168.865L392.193 108.382V155.546Z" fill="white"/>
    <path d="M392.193 155.546L289.507 213.71V168.865L392.193 108.382V155.546Z" fill="url(#paint29_linear_1_1676)" fill-opacity="0.6"/>

    <path d="M289.507 168.865L186.826 109.483L289.507 49L392.193 108.382L289.507 168.865Z" fill="white"/>
    <path d="M289.507 168.865L186.826 109.483L289.507 49L392.193 108.382L289.507 168.865Z" fill="url(#paint30_linear_1_1676)" fill-opacity="0.6"/>

    <path d="M331.373 143.79L228.624 84.86L249.821 72.3762L352.105 131.578L331.373 143.79Z" fill="#FFC63D"/>
    <path d="M331.373 143.79L228.624 84.86L249.821 72.3762L352.105 131.578L331.373 143.79Z" fill="url(#paint31_radial_1_1676)"/>
    <path d="M328.568 71.5901L226.086 132.01L246.818 143.873L349.223 83.5305L328.568 71.5901Z" fill="#FFC63D"/>
    <path d="M328.568 71.5901L226.086 132.01L246.818 143.873L349.223 83.5305L328.568 71.5901Z" fill="url(#paint32_radial_1_1676)"/>
    <path d="M246.818 189.301L226.086 177.452V132.01L246.818 143.873V189.301Z" fill="#FFC63D"/>
    <path d="M246.818 189.301L226.086 177.452V132.01L246.818 143.873V189.301Z" fill="url(#paint33_radial_1_1676)"/>
    <path d="M352.105 178.253L331.373 189.995V143.79L352.105 131.578V178.253Z" fill="#FFC63D"/>
    <path d="M352.105 178.253L331.373 189.995V143.79L352.105 131.578V178.253Z" fill="url(#paint34_radial_1_1676)"/>
</g>



<path d="M399.49 352.689V375.814L417.212 365.485V342.206L399.49 352.689Z" fill="white"/>
<path d="M399.49 352.689V375.814L417.212 365.485V342.206L399.49 352.689Z" fill="url(#paint35_linear_1_1676)" fill-opacity="0.6"/>
<path d="M399.49 352.689V375.814L381.768 365.485V342.206L399.49 352.689Z" fill="white"/>
<path d="M399.49 352.689V375.814L381.768 365.485V342.206L399.49 352.689Z" fill="url(#paint36_linear_1_1676)" fill-opacity="0.2"/>
<path d="M381.768 342.206L399.49 352.689L417.212 342.206L399.336 332.031L381.768 342.206Z" fill="white"/>
<path d="M381.768 342.206L399.49 352.689L417.212 342.206L399.336 332.031L381.768 342.206Z" fill="url(#paint37_linear_1_1676)" fill-opacity="0.6"/>
<path d="M170.147 355.45V365.911L178.486 361.238V350.707L170.147 355.45Z" fill="white"/>
<path d="M170.147 355.45V365.911L178.486 361.238V350.707L170.147 355.45Z" fill="url(#paint38_linear_1_1676)" fill-opacity="0.6"/>
<path d="M170.147 355.45V365.911L161.807 361.238V350.707L170.147 355.45Z" fill="white"/>
<path d="M170.147 355.45V365.911L161.807 361.238V350.707L170.147 355.45Z" fill="url(#paint39_linear_1_1676)" fill-opacity="0.2"/>
<path d="M161.807 350.707L170.147 355.45L178.486 350.707L170.074 346.104L161.807 350.707Z" fill="white"/>
<path d="M161.807 350.707L170.147 355.45L178.486 350.707L170.074 346.104L161.807 350.707Z" fill="url(#paint40_linear_1_1676)" fill-opacity="0.6"/>
<defs>
<filter id="filter0_i_1_1676" x="9" y="220" width="567.085" height="328" filterUnits="userSpaceOnUse" color-interpolation-filters="sRGB">
<feFlood flood-opacity="0" result="BackgroundImageFix"/>
<feBlend mode="normal" in="SourceGraphic" in2="BackgroundImageFix" result="shape"/>
<feColorMatrix in="SourceAlpha" type="matrix" values="0 0 0 0 0 0 0 0 0 0 0 0 0 0 0 0 0 0 127 0" result="hardAlpha"/>
<feOffset dy="16"/>
<feComposite in2="hardAlpha" operator="arithmetic" k2="-1" k3="1"/>
<feColorMatrix type="matrix" values="0 0 0 0 0.92724 0 0 0 0 0.92724 0 0 0 0 0.92724 0 0 0 1 0"/>
<feBlend mode="normal" in2="shape" result="effect1_innerShadow_1_1676"/>
</filter>
<filter id="filter1_i_1_1676" x="186.826" y="49" width="205.367" height="119.865" filterUnits="userSpaceOnUse" color-interpolation-filters="sRGB">
<feFlood flood-opacity="0" result="BackgroundImageFix"/>
<feBlend mode="normal" in="SourceGraphic" in2="BackgroundImageFix" result="shape"/>
<feColorMatrix in="SourceAlpha" type="matrix" values="0 0 0 0 0 0 0 0 0 0 0 0 0 0 0 0 0 0 127 0" result="hardAlpha"/>
<feOffset dy="-2"/>
<feComposite in2="hardAlpha" operator="arithmetic" k2="-1" k3="1"/>
<feColorMatrix type="matrix" values="0 0 0 0 1 0 0 0 0 1 0 0 0 0 1 0 0 0 1 0"/>
<feBlend mode="normal" in2="shape" result="effect1_innerShadow_1_1676"/>
</filter>
<linearGradient id="paint0_linear_1_1676" x1="292.543" y1="548" x2="292.543" y2="220" gradientUnits="userSpaceOnUse">
<stop stop-color="white"/>
<stop offset="1" stop-color="#C0C0C0"/>
</linearGradient>
<linearGradient id="paint1_linear_1_1676" x1="292.543" y1="548" x2="292.543" y2="220" gradientUnits="userSpaceOnUse">
<stop stop-color="#F6F6F5"/>
<stop offset="1" stop-color="#D9D9D9"/>
</linearGradient>
<linearGradient id="paint2_linear_1_1676" x1="53.9362" y1="438.41" x2="160.254" y2="431.724" gradientUnits="userSpaceOnUse">
<stop stop-color="#CCD1D3" stop-opacity="0.36"/>
<stop offset="1" stop-color="#C3C6CA"/>
</linearGradient>
<linearGradient id="paint3_linear_1_1676" x1="129.054" y1="515.933" x2="78.7573" y2="516.544" gradientUnits="userSpaceOnUse">
<stop stop-color="#BDC6CB" stop-opacity="0.36"/>
<stop offset="1" stop-color="#B7BEC8"/>
</linearGradient>
<linearGradient id="paint4_linear_1_1676" x1="144.835" y1="399.756" x2="109.025" y2="526.096" gradientUnits="userSpaceOnUse">
<stop stop-color="#CCD1D3" stop-opacity="0.36"/>
<stop offset="1" stop-color="#C3C6CA"/>
</linearGradient>
<linearGradient id="paint5_linear_1_1676" x1="337.343" y1="20.336" x2="376.434" y2="17.8141" gradientUnits="userSpaceOnUse">
<stop stop-color="#CCD1D3" stop-opacity="0.36"/>
<stop offset="1" stop-color="#C3C6CA"/>
</linearGradient>
<linearGradient id="paint6_linear_1_1676" x1="364.968" y1="48.127" x2="346.471" y2="48.3574" gradientUnits="userSpaceOnUse">
<stop stop-color="#BDC6CB" stop-opacity="0.36"/>
<stop offset="1" stop-color="#B7BEC8"/>
</linearGradient>
<linearGradient id="paint7_linear_1_1676" x1="370.771" y1="6.47879" x2="358.211" y2="51.9384" gradientUnits="userSpaceOnUse">
<stop stop-color="#CCD1D3" stop-opacity="0.36"/>
<stop offset="1" stop-color="#C3C6CA"/>
</linearGradient>
<linearGradient id="paint8_linear_1_1676" x1="356.758" y1="97.2687" x2="439.851" y2="92.1154" gradientUnits="userSpaceOnUse">
<stop stop-color="#CCD1D3" stop-opacity="0.36"/>
<stop offset="1" stop-color="#C3C6CA"/>
</linearGradient>
<linearGradient id="paint9_linear_1_1676" x1="415.46" y1="158.702" x2="376.155" y2="159.172" gradientUnits="userSpaceOnUse">
<stop stop-color="#BDC6CB" stop-opacity="0.36"/>
<stop offset="1" stop-color="#B7BEC8"/>
</linearGradient>
<linearGradient id="paint10_linear_1_1676" x1="427.793" y1="66.6373" x2="399.077" y2="166.545" gradientUnits="userSpaceOnUse">
<stop stop-color="#CCD1D3" stop-opacity="0.36"/>
<stop offset="1" stop-color="#C3C6CA"/>
</linearGradient>
<linearGradient id="paint11_linear_1_1676" x1="222.608" y1="439.886" x2="253.128" y2="494.135" gradientUnits="userSpaceOnUse">
<stop stop-color="#CCD1D3" stop-opacity="0.36"/>
<stop offset="1" stop-color="#C3C6CA"/>
</linearGradient>
<linearGradient id="paint12_linear_1_1676" x1="143.288" y1="325.953" x2="379.267" y2="191.051" gradientUnits="userSpaceOnUse">
<stop stop-color="#BDC6CB" stop-opacity="0.36"/>
<stop offset="1" stop-color="#B7BEC8"/>
</linearGradient>
<linearGradient id="paint13_linear_1_1676" x1="290.031" y1="317.344" x2="290.031" y2="202.243" gradientUnits="userSpaceOnUse">
<stop stop-color="#F6F6F5"/>
<stop offset="1" stop-color="#D9D9D9"/>
</linearGradient>
<linearGradient id="paint14_linear_1_1676" x1="290.031" y1="317.344" x2="290.031" y2="202.243" gradientUnits="userSpaceOnUse">
<stop stop-color="#F6F6F5"/>
<stop offset="1" stop-color="#D9D9D9"/>
</linearGradient>
<linearGradient id="paint15_linear_1_1676" x1="354.047" y1="313.555" x2="307.368" y2="178.49" gradientUnits="userSpaceOnUse">
<stop stop-color="#FF4810"/>
<stop offset="1" stop-color="#FFB950"/>
</linearGradient>
<linearGradient id="paint16_linear_1_1676" x1="354.047" y1="313.555" x2="307.368" y2="178.49" gradientUnits="userSpaceOnUse">
<stop stop-color="#FF4810"/>
<stop offset="1" stop-color="#FFB950"/>
</linearGradient>
<linearGradient id="paint17_linear_1_1676" x1="354.047" y1="313.555" x2="307.368" y2="178.49" gradientUnits="userSpaceOnUse">
<stop stop-color="#FF4810"/>
<stop offset="1" stop-color="#FFB950"/>
</linearGradient>
<linearGradient id="paint18_linear_1_1676" x1="287.22" y1="306.595" x2="323.292" y2="195.292" gradientUnits="userSpaceOnUse">
<stop stop-color="#FF4810"/>
<stop offset="1" stop-color="#FFB950"/>
</linearGradient>
<linearGradient id="paint19_linear_1_1676" x1="311.955" y1="422.824" x2="197.291" y2="424.529" gradientUnits="userSpaceOnUse">
<stop stop-color="#BDC6CB" stop-opacity="0.36"/>
<stop offset="1" stop-color="#B7BEC8"/>
</linearGradient>
<linearGradient id="paint20_linear_1_1676" x1="538.404" y1="277.594" x2="296.464" y2="259.086" gradientUnits="userSpaceOnUse">
<stop stop-color="#CCD1D3" stop-opacity="0.36"/>
<stop offset="1" stop-color="#C3C6CA"/>
</linearGradient>
<radialGradient id="paint21_radial_1_1676" cx="0" cy="0" r="1" gradientUnits="userSpaceOnUse" gradientTransform="translate(346.224 355.549) rotate(-79.3953) scale(82.2325 28.3263)">
<stop stop-color="#FF9357"/>
<stop offset="1" stop-color="#FF5C2B"/>
</radialGradient>
<radialGradient id="paint22_radial_1_1676" cx="0" cy="0" r="1" gradientUnits="userSpaceOnUse" gradientTransform="translate(242.117 355.067) rotate(-79.3737) scale(82.0672 28.3242)">
<stop stop-color="#FF9357"/>
<stop offset="1" stop-color="#FF5C2B"/>
</radialGradient>
<linearGradient id="paint23_linear_1_1676" x1="289.675" y1="316.087" x2="289.675" y2="200.924" gradientUnits="userSpaceOnUse">
<stop stop-color="#F6F6F5"/>
<stop offset="1" stop-color="#D9D9D9"/>
</linearGradient>
<linearGradient id="paint24_linear_1_1676" x1="353.552" y1="313.337" x2="306.748" y2="178.279" gradientUnits="userSpaceOnUse">
<stop stop-color="#FF4810"/>
<stop offset="1" stop-color="#FFB950"/>
</linearGradient>
<linearGradient id="paint25_linear_1_1676" x1="353.552" y1="313.337" x2="306.748" y2="178.279" gradientUnits="userSpaceOnUse">
<stop stop-color="#FF4810"/>
<stop offset="1" stop-color="#FFB950"/>
</linearGradient>
<linearGradient id="paint26_linear_1_1676" x1="353.552" y1="313.337" x2="306.748" y2="178.279" gradientUnits="userSpaceOnUse">
<stop stop-color="#FF4810"/>
<stop offset="1" stop-color="#FFB950"/>
</linearGradient>
<linearGradient id="paint27_linear_1_1676" x1="286.87" y1="306.374" x2="323.041" y2="195.068" gradientUnits="userSpaceOnUse">
<stop stop-color="#FF4810"/>
<stop offset="1" stop-color="#FFB950"/>
</linearGradient>
<linearGradient id="paint28_linear_1_1676" x1="312.239" y1="221.311" x2="193.386" y2="223.974" gradientUnits="userSpaceOnUse">
<stop stop-color="#BDC6CB" stop-opacity="0.36"/>
<stop offset="1" stop-color="#B7BEC8"/>
</linearGradient>
<linearGradient id="paint29_linear_1_1676" x1="547.037" y1="121.038" x2="297.994" y2="92.4356" gradientUnits="userSpaceOnUse">
<stop stop-color="#CCD1D3" stop-opacity="0.36"/>
<stop offset="1" stop-color="#C3C6CA"/>
</linearGradient>
<linearGradient id="paint30_linear_1_1676" x1="349.547" y1="38.8302" x2="262.718" y2="340.992" gradientUnits="userSpaceOnUse">
<stop stop-color="#CCD1D3" stop-opacity="0.36"/>
<stop offset="1" stop-color="#C3C6CA"/>
</linearGradient>
<radialGradient id="paint31_radial_1_1676" cx="0" cy="0" r="1" gradientUnits="userSpaceOnUse" gradientTransform="translate(320.182 122.164) rotate(-30.9334) scale(105.379 88.4817)">
<stop stop-color="#FF9357"/>
<stop offset="1" stop-color="#FF5C2B"/>
</radialGradient>
<radialGradient id="paint32_radial_1_1676" cx="0" cy="0" r="1" gradientUnits="userSpaceOnUse" gradientTransform="translate(317.389 121.983) rotate(-31.3105) scale(105.504 89.2026)">
<stop stop-color="#FF9357"/>
<stop offset="1" stop-color="#FF5C2B"/>
</radialGradient>
<radialGradient id="paint33_radial_1_1676" cx="0" cy="0" r="1" gradientUnits="userSpaceOnUse" gradientTransform="translate(241.458 171.951) rotate(-70.7492) scale(46.0297 27.2839)">
<stop stop-color="#FF9357"/>
<stop offset="1" stop-color="#FF5C2B"/>
</radialGradient>
<radialGradient id="paint34_radial_1_1676" cx="0" cy="0" r="1" gradientUnits="userSpaceOnUse" gradientTransform="translate(346.745 172.304) rotate(-71.0936) scale(46.8366 27.3407)">
<stop stop-color="#FF9357"/>
<stop offset="1" stop-color="#FF5C2B"/>
</radialGradient>
<linearGradient id="paint35_linear_1_1676" x1="372.767" y1="346.244" x2="416.147" y2="343.549" gradientUnits="userSpaceOnUse">
<stop stop-color="#CCD1D3" stop-opacity="0.36"/>
<stop offset="1" stop-color="#C3C6CA"/>
</linearGradient>
<linearGradient id="paint36_linear_1_1676" x1="403.414" y1="378.265" x2="382.893" y2="378.511" gradientUnits="userSpaceOnUse">
<stop stop-color="#BDC6CB" stop-opacity="0.36"/>
<stop offset="1" stop-color="#B7BEC8"/>
</linearGradient>
<linearGradient id="paint37_linear_1_1676" x1="409.852" y1="330.278" x2="394.905" y2="382.366" gradientUnits="userSpaceOnUse">
<stop stop-color="#CCD1D3" stop-opacity="0.36"/>
<stop offset="1" stop-color="#C3C6CA"/>
</linearGradient>
<linearGradient id="paint38_linear_1_1676" x1="157.571" y1="352.534" x2="177.979" y2="351.215" gradientUnits="userSpaceOnUse">
<stop stop-color="#CCD1D3" stop-opacity="0.36"/>
<stop offset="1" stop-color="#C3C6CA"/>
</linearGradient>
<linearGradient id="paint39_linear_1_1676" x1="171.993" y1="367.02" x2="162.336" y2="367.14" gradientUnits="userSpaceOnUse">
<stop stop-color="#BDC6CB" stop-opacity="0.36"/>
<stop offset="1" stop-color="#B7BEC8"/>
</linearGradient>
<linearGradient id="paint40_linear_1_1676" x1="175.023" y1="345.311" x2="168.485" y2="369.012" gradientUnits="userSpaceOnUse">
<stop stop-color="#CCD1D3" stop-opacity="0.36"/>
<stop offset="1" stop-color="#C3C6CA"/>
</linearGradient>
</defs>
</svg>
