<svg width="448" height="486" viewBox="0 0 448 486" fill="none" xmlns="http://www.w3.org/2000/svg">
<path d="M24.5485 390.906C8.07241 381.395 -0.110041 368.91 0.00111766 356.445C0.110786 344.146 8.29324 331.867 24.5485 322.484L81.0423 289.873L164.735 241.561C197.466 222.667 250.534 222.667 283.265 241.561L384 299.71L423.452 322.484C439.707 331.867 447.889 344.146 447.999 356.445C448.11 368.91 439.928 381.395 423.452 390.906L283.265 471.83C250.534 490.724 197.466 490.724 164.735 471.83L24.5485 390.906Z" fill="#C4C4C4"/>
<path d="M24.5485 390.906C8.07241 381.395 -0.110041 368.91 0.00111766 356.445C0.110786 344.146 8.29324 331.867 24.5485 322.484L81.0423 289.873L164.735 241.561C197.466 222.667 250.534 222.667 283.265 241.561L384 299.71L423.452 322.484C439.707 331.867 447.889 344.146 447.999 356.445C448.11 368.91 439.928 381.395 423.452 390.906L283.265 471.83C250.534 490.724 197.466 490.724 164.735 471.83L24.5485 390.906Z" fill="white"/>
<path d="M24.5485 390.906C8.07241 381.395 -0.110041 368.91 0.00111766 356.445C0.110786 344.146 8.29324 331.867 24.5485 322.484L81.0423 289.873L164.735 241.561C197.466 222.667 250.534 222.667 283.265 241.561L384 299.71L423.452 322.484C439.707 331.867 447.889 344.146 447.999 356.445C448.11 368.91 439.928 381.395 423.452 390.906L283.265 471.83C250.534 490.724 197.466 490.724 164.735 471.83L24.5485 390.906Z" fill="url(#paint0_linear_7881_45)" fill-opacity="0.3"/>
<path d="M0.00111766 356.445C0.110786 344.146 8.29324 331.867 24.5485 322.484L81.0423 289.873L0.00111766 317.648V356.445Z" fill="#C4C4C4"/>
<path d="M0.00111766 356.445C0.110786 344.146 8.29324 331.867 24.5485 322.484L81.0423 289.873L0.00111766 317.648V356.445Z" fill="white"/>
<path d="M0.00111766 356.445C0.110786 344.146 8.29324 331.867 24.5485 322.484L81.0423 289.873L0.00111766 317.648V356.445Z" fill="url(#paint1_linear_7881_45)" fill-opacity="0.3"/>
<path d="M423.452 322.484C439.707 331.867 447.889 344.146 447.999 356.445V317.648L384 299.71L423.452 322.484Z" fill="#C4C4C4"/>
<path d="M423.452 322.484C439.707 331.867 447.889 344.146 447.999 356.445V317.648L384 299.71L423.452 322.484Z" fill="white"/>
<path d="M423.452 322.484C439.707 331.867 447.889 344.146 447.999 356.445V317.648L384 299.71L423.452 322.484Z" fill="url(#paint2_linear_7881_45)" fill-opacity="0.3"/>
<path d="M24.5485 352.201C-8.18283 333.306 -8.18283 302.673 24.5485 283.778L164.735 202.855C197.466 183.961 250.534 183.961 283.265 202.855L423.452 283.778C456.183 302.673 456.183 333.306 423.452 352.201L283.265 433.124C250.534 452.018 197.466 452.018 164.735 433.124L24.5485 352.201Z" fill="#C4C4C4"/>
<path d="M24.5485 352.201C-8.18283 333.306 -8.18283 302.673 24.5485 283.778L164.735 202.855C197.466 183.961 250.534 183.961 283.265 202.855L423.452 283.778C456.183 302.673 456.183 333.306 423.452 352.201L283.265 433.124C250.534 452.018 197.466 452.018 164.735 433.124L24.5485 352.201Z" fill="white"/>
<path d="M24.5485 352.201C-8.18283 333.306 -8.18283 302.673 24.5485 283.778L164.735 202.855C197.466 183.961 250.534 183.961 283.265 202.855L423.452 283.778C456.183 302.673 456.183 333.306 423.452 352.201L283.265 433.124C250.534 452.018 197.466 452.018 164.735 433.124L24.5485 352.201Z" fill="url(#paint3_linear_7881_45)" fill-opacity="0.15"/>
<g filter="url(#filter0_f_7881_45)">
<rect width="161.226" height="74.0249" rx="34.1556" transform="matrix(0.865088 -0.50162 0.865088 0.50162 123.656 336.99)" fill="black" fill-opacity="0.08"/>
</g>
<path d="M277.135 22.1018C277.135 13.2282 274.352 6.72633 269.746 3.15314C264.104 -1.22358 255.726 -1.20639 246.373 4.22814L175.618 45.3389C158.629 55.2102 144.857 79.2171 144.857 98.9597L144.857 292.327C144.857 301.705 147.964 308.434 153.049 311.856C153.578 312.213 154.129 312.533 154.7 312.817C160.189 315.547 167.54 314.894 175.618 310.2L246.373 269.089C263.362 259.218 277.135 235.211 277.135 215.469V22.1018Z" fill="#C4C4C4"/>
<path d="M277.135 22.1018C277.135 13.2282 274.352 6.72633 269.746 3.15314C264.104 -1.22358 255.726 -1.20639 246.373 4.22814L175.618 45.3389C158.629 55.2102 144.857 79.2171 144.857 98.9597L144.857 292.327C144.857 301.705 147.964 308.434 153.049 311.856C153.578 312.213 154.129 312.533 154.7 312.817C160.189 315.547 167.54 314.894 175.618 310.2L246.373 269.089C263.362 259.218 277.135 235.211 277.135 215.469V22.1018Z" fill="white"/>
<path d="M277.135 22.1018C277.135 13.2282 274.352 6.72633 269.746 3.15314C264.104 -1.22358 255.726 -1.20639 246.373 4.22814L175.618 45.3389C158.629 55.2102 144.857 79.2171 144.857 98.9597L144.857 292.327C144.857 301.705 147.964 308.434 153.049 311.856C153.578 312.213 154.129 312.533 154.7 312.817C160.189 315.547 167.54 314.894 175.618 310.2L246.373 269.089C263.362 259.218 277.135 235.211 277.135 215.469V22.1018Z" fill="url(#paint4_linear_7881_45)" fill-opacity="0.6"/>
<path d="M277.135 22.1018C277.135 13.2282 274.352 6.72633 269.746 3.15314L296.543 18.4243L277.135 22.1018Z" fill="#C4C4C4"/>
<path d="M277.135 22.1018C277.135 13.2282 274.352 6.72633 269.746 3.15314L296.543 18.4243L277.135 22.1018Z" fill="white"/>
<path d="M277.135 22.1018C277.135 13.2282 274.352 6.72633 269.746 3.15314L296.543 18.4243L277.135 22.1018Z" fill="url(#paint5_linear_7881_45)" fill-opacity="0.6"/>
<path d="M154.7 312.817C160.189 315.547 167.54 314.894 175.618 310.2L180.207 327.453C172.924 323.282 159.419 315.542 154.7 312.817Z" fill="#C4C4C4"/>
<path d="M154.7 312.817C160.189 315.547 167.54 314.894 175.618 310.2L180.207 327.453C172.924 323.282 159.419 315.542 154.7 312.817Z" fill="white"/>
<path d="M154.7 312.817C160.189 315.547 167.54 314.894 175.618 310.2L180.207 327.453C172.924 323.282 159.419 315.542 154.7 312.817Z" fill="url(#paint6_linear_7881_45)" fill-opacity="0.6"/>
<path d="M303.429 37.1569C303.429 17.4143 289.656 9.41199 272.667 19.2833L201.912 60.394C184.923 70.2654 171.151 94.2722 171.151 114.015L171.151 307.348C171.151 327.091 184.923 335.093 201.912 325.222L272.667 284.111C289.656 274.24 303.429 250.233 303.429 230.49L303.429 37.1569Z" fill="#C4C4C4"/>
<path d="M303.429 37.1569C303.429 17.4143 289.656 9.41199 272.667 19.2833L201.912 60.394C184.923 70.2654 171.151 94.2722 171.151 114.015L171.151 307.348C171.151 327.091 184.923 335.093 201.912 325.222L272.667 284.111C289.656 274.24 303.429 250.233 303.429 230.49L303.429 37.1569Z" fill="white"/>
<path d="M303.429 37.1569C303.429 17.4143 289.656 9.41199 272.667 19.2833L201.912 60.394C184.923 70.2654 171.151 94.2722 171.151 114.015L171.151 307.348C171.151 327.091 184.923 335.093 201.912 325.222L272.667 284.111C289.656 274.24 303.429 250.233 303.429 230.49L303.429 37.1569Z" fill="url(#paint7_linear_7881_45)" fill-opacity="0.2"/>
<path d="M294.371 42.9728C294.371 28.5217 283.723 25.9304 274.005 31.9497L205.354 72.1871C192.919 79.4126 182.837 96.985 182.837 111.436L182.837 300.786C182.837 315.238 192.919 316.935 205.354 309.71L272.235 270.039C284.671 262.814 294.752 243.592 294.752 227.482L294.371 42.9728Z" fill="white" fill-opacity="0.65"/>
<path d="M294.371 42.9728C294.371 28.5217 283.723 25.9304 274.005 31.9497L205.354 72.1871C192.919 79.4126 182.837 96.985 182.837 111.436L182.837 300.786C182.837 315.238 192.919 316.935 205.354 309.71L272.235 270.039C284.671 262.814 294.752 243.592 294.752 227.482L294.371 42.9728Z" fill="#FF835E"/>
<path d="M294.371 42.9728C294.371 28.5217 283.723 25.9304 274.005 31.9497L205.354 72.1871C192.919 79.4126 182.837 96.985 182.837 111.436L182.837 300.786C182.837 315.238 192.919 316.935 205.354 309.71L272.235 270.039C284.671 262.814 294.752 243.592 294.752 227.482L294.371 42.9728Z" fill="url(#paint8_linear_7881_45)" fill-opacity="0.75"/>
<path fill-rule="evenodd" clip-rule="evenodd" d="M256.961 119.104L276.138 98.2832L276.136 164.062C276.136 169.166 273.3 175.468 268.811 180.342L249.632 201.164L249.635 135.384C249.635 130.281 252.47 123.979 256.961 119.104ZM236.382 178.497L217.204 199.318C212.715 204.192 209.878 210.495 209.878 215.598L209.877 244.325L229.056 223.503C233.545 218.629 236.381 212.327 236.381 207.223L236.382 178.497Z" fill="white"/>
<path d="M52.5596 241.015V339.847C52.5596 340.991 53.0158 341.995 54.3903 342.782L79.6346 357.16C80.7887 357.812 82.2471 358.164 83.6636 358.195V258.919C82.2518 258.884 80.7853 258.528 79.6301 257.87L54.3906 243.445C53.1807 242.752 52.56 241.861 52.5596 241.015Z" fill="white"/>
<path d="M52.5596 241.015V339.847C52.5596 340.991 53.0158 341.995 54.3903 342.782L79.6346 357.16C80.7887 357.812 82.2471 358.164 83.6636 358.195V258.919C82.2518 258.884 80.7853 258.528 79.6301 257.87L54.3906 243.445C53.1807 242.752 52.56 241.861 52.5596 241.015Z" fill="url(#paint9_linear_7881_45)" fill-opacity="0.6"/>
<path d="M114.768 241.015V339.847C114.768 340.991 114.311 341.995 112.937 342.782L87.6926 357.16C86.5384 357.812 85.08 358.164 83.6636 358.195V258.919C85.0754 258.884 86.5419 258.528 87.6971 257.87L112.937 243.445C114.146 242.752 114.767 241.861 114.768 241.015Z" fill="white"/>
<path d="M114.768 241.015V339.847C114.768 340.991 114.311 341.995 112.937 342.782L87.6926 357.16C86.5384 357.812 85.08 358.164 83.6636 358.195V258.919C85.0754 258.884 86.5419 258.528 87.6971 257.87L112.937 243.445C114.146 242.752 114.767 241.861 114.768 241.015Z" fill="url(#paint10_linear_7881_45)" fill-opacity="0.2"/>
<g filter="url(#filter1_i_7881_45)">
<path d="M53.8557 243.592L80.1756 258.655C82.0953 259.757 85.4731 259.612 87.6971 258.343L112.937 243.894C115.15 242.625 115.391 240.69 113.472 239.587L87.1516 224.524C85.2319 223.422 81.854 223.567 79.6301 224.836L54.3907 239.285C52.1772 240.554 51.9359 242.5 53.8557 243.592Z" fill="white"/>
<path d="M53.8557 243.592L80.1756 258.655C82.0953 259.757 85.4731 259.612 87.6971 258.343L112.937 243.894C115.15 242.625 115.391 240.69 113.472 239.587L87.1516 224.524C85.2319 223.422 81.854 223.567 79.6301 224.836L54.3907 239.285C52.1772 240.554 51.9359 242.5 53.8557 243.592Z" fill="url(#paint11_linear_7881_45)" fill-opacity="0.6"/>
</g>
<path d="M123.56 292.224V353.696C123.56 353.777 123.589 353.849 123.677 353.905L125.301 354.926C125.375 354.973 125.468 354.998 125.56 355V293.497C125.469 293.494 125.374 293.469 125.3 293.422L123.677 292.397C123.6 292.348 123.56 292.284 123.56 292.224Z" fill="#FF835E"/>
<path d="M123.56 292.224V353.696C123.56 353.777 123.589 353.849 123.677 353.905L125.301 354.926C125.375 354.973 125.468 354.998 125.56 355V293.497C125.469 293.494 125.374 293.469 125.3 293.422L123.677 292.397C123.6 292.348 123.56 292.284 123.56 292.224Z" fill="url(#paint12_linear_7881_45)" fill-opacity="0.4"/>
<path d="M127.56 292.224V353.696C127.56 353.777 127.53 353.849 127.442 353.905L125.819 354.926C125.744 354.973 125.651 354.998 125.56 355V293.497C125.65 293.494 125.745 293.469 125.819 293.422L127.442 292.397C127.52 292.348 127.56 292.284 127.56 292.224Z" fill="#FFB199"/>
<path d="M127.56 292.224V353.696C127.56 353.777 127.53 353.849 127.442 353.905L125.819 354.926C125.744 354.973 125.651 354.998 125.56 355V293.497C125.65 293.494 125.745 293.469 125.819 293.422L127.442 292.397C127.52 292.348 127.56 292.284 127.56 292.224Z" fill="url(#paint13_linear_7881_45)" fill-opacity="0.75"/>
<path d="M123.643 292.408L125.335 293.478C125.459 293.556 125.676 293.546 125.819 293.456L127.442 292.429C127.584 292.339 127.6 292.201 127.476 292.123L125.784 291.053C125.66 290.974 125.443 290.985 125.3 291.075L123.677 292.102C123.535 292.192 123.519 292.33 123.643 292.408Z" fill="#FF835E"/>
<path d="M123.643 292.408L125.335 293.478C125.459 293.556 125.676 293.546 125.819 293.456L127.442 292.429C127.584 292.339 127.6 292.201 127.476 292.123L125.784 291.053C125.66 290.974 125.443 290.985 125.3 291.075L123.677 292.102C123.535 292.192 123.519 292.33 123.643 292.408Z" fill="url(#paint14_linear_7881_45)" fill-opacity="0.75"/>
<path d="M94.0316 172.399V302.249C94.0316 303.393 94.4878 304.398 95.8623 305.184L121.107 319.562C122.261 320.215 123.719 320.567 125.136 320.598V190.303C123.724 190.268 122.257 189.912 121.102 189.254L95.8627 174.829C94.6527 174.136 94.0321 173.245 94.0316 172.399Z" fill="#FF835E"/>
<path d="M94.0316 172.399V302.249C94.0316 303.393 94.4878 304.398 95.8623 305.184L121.107 319.562C122.261 320.215 123.719 320.567 125.136 320.598V190.303C123.724 190.268 122.257 189.912 121.102 189.254L95.8627 174.829C94.6527 174.136 94.0321 173.245 94.0316 172.399Z" fill="url(#paint15_linear_7881_45)" fill-opacity="0.75"/>
<path d="M156.24 172.399V302.249C156.24 303.393 155.783 304.398 154.409 305.184L129.165 319.562C128.01 320.215 126.552 320.567 125.136 320.598V190.303C126.547 190.268 128.014 189.912 129.169 189.254L154.408 174.829C155.618 174.136 156.239 173.245 156.24 172.399Z" fill="#FFB199"/>
<path d="M156.24 172.399V302.249C156.24 303.393 155.783 304.398 154.409 305.184L129.165 319.562C128.01 320.215 126.552 320.567 125.136 320.598V190.303C126.547 190.268 128.014 189.912 129.169 189.254L154.408 174.829C155.618 174.136 156.239 173.245 156.24 172.399Z" fill="url(#paint16_linear_7881_45)" fill-opacity="0.75"/>
<path d="M95.3276 174.976L121.648 190.039C123.567 191.142 126.945 190.996 129.169 189.727L154.408 175.278C156.622 174.009 156.863 172.074 154.943 170.971L128.623 155.909C126.704 154.806 123.326 154.952 121.102 156.221L95.8626 170.67C93.6491 171.939 93.4079 173.884 95.3276 174.976Z" fill="#FF835E"/>
<path d="M95.3276 174.976L121.648 190.039C123.567 191.142 126.945 190.996 129.169 189.727L154.408 175.278C156.622 174.009 156.863 172.074 154.943 170.971L128.623 155.909C126.704 154.806 123.326 154.952 121.102 156.221L95.8626 170.67C93.6491 171.939 93.4079 173.884 95.3276 174.976Z" fill="url(#paint17_linear_7881_45)" fill-opacity="0.75"/>
<path d="M123.56 112.224V173.696C123.56 173.777 123.589 173.849 123.677 173.905L125.301 174.926C125.375 174.973 125.468 174.998 125.56 175V113.497C125.469 113.494 125.374 113.469 125.3 113.422L123.677 112.397C123.6 112.348 123.56 112.284 123.56 112.224Z" fill="#FF835E"/>
<path d="M123.56 112.224V173.696C123.56 173.777 123.589 173.849 123.677 173.905L125.301 174.926C125.375 174.973 125.468 174.998 125.56 175V113.497C125.469 113.494 125.374 113.469 125.3 113.422L123.677 112.397C123.6 112.348 123.56 112.284 123.56 112.224Z" fill="url(#paint18_linear_7881_45)" fill-opacity="0.4"/>
<path d="M127.56 112.224V173.696C127.56 173.777 127.53 173.849 127.442 173.905L125.819 174.926C125.744 174.973 125.651 174.998 125.56 175V113.497C125.65 113.494 125.745 113.469 125.819 113.422L127.442 112.397C127.52 112.348 127.56 112.284 127.56 112.224Z" fill="#FFB199"/>
<path d="M127.56 112.224V173.696C127.56 173.777 127.53 173.849 127.442 173.905L125.819 174.926C125.744 174.973 125.651 174.998 125.56 175V113.497C125.65 113.494 125.745 113.469 125.819 113.422L127.442 112.397C127.52 112.348 127.56 112.284 127.56 112.224Z" fill="url(#paint19_linear_7881_45)" fill-opacity="0.75"/>
<path d="M123.643 112.408L125.335 113.478C125.459 113.556 125.676 113.546 125.819 113.456L127.442 112.429C127.584 112.339 127.6 112.201 127.476 112.123L125.784 111.053C125.66 110.974 125.443 110.985 125.3 111.075L123.677 112.102C123.535 112.192 123.519 112.33 123.643 112.408Z" fill="#FF835E"/>
<path d="M123.643 112.408L125.335 113.478C125.459 113.556 125.676 113.546 125.819 113.456L127.442 112.429C127.584 112.339 127.6 112.201 127.476 112.123L125.784 111.053C125.66 110.974 125.443 110.985 125.3 111.075L123.677 112.102C123.535 112.192 123.519 112.33 123.643 112.408Z" fill="url(#paint20_linear_7881_45)" fill-opacity="0.75"/>
<path d="M134.352 346.708V384.651C134.352 385.796 134.808 386.8 136.182 387.586L161.427 401.965C162.581 402.617 164.039 402.969 165.456 403V364.611C164.044 364.576 162.577 364.221 161.422 363.562L136.183 349.137C134.973 348.444 134.352 347.553 134.352 346.708Z" fill="white"/>
<path d="M134.352 346.708V384.651C134.352 385.796 134.808 386.8 136.182 387.586L161.427 401.965C162.581 402.617 164.039 402.969 165.456 403V364.611C164.044 364.576 162.577 364.221 161.422 363.562L136.183 349.137C134.973 348.444 134.352 347.553 134.352 346.708Z" fill="url(#paint21_linear_7881_45)" fill-opacity="0.6"/>
<path d="M196.56 346.708V384.651C196.56 385.796 196.103 386.8 194.729 387.586L169.485 401.965C168.33 402.617 166.872 402.969 165.456 403V364.611C166.867 364.576 168.334 364.221 169.489 363.562L194.728 349.137C195.938 348.444 196.559 347.553 196.56 346.708Z" fill="white"/>
<path d="M196.56 346.708V384.651C196.56 385.796 196.103 386.8 194.729 387.586L169.485 401.965C168.33 402.617 166.872 402.969 165.456 403V364.611C166.867 364.576 168.334 364.221 169.489 363.562L194.728 349.137C195.938 348.444 196.559 347.553 196.56 346.708Z" fill="url(#paint22_linear_7881_45)" fill-opacity="0.2"/>
<path d="M135.648 349.284L161.968 364.346C163.887 365.449 167.265 365.304 169.489 364.034L194.728 349.586C196.942 348.316 197.183 346.382 195.263 345.279L168.944 330.216C167.024 329.114 163.646 329.259 161.422 330.528L136.183 344.977C133.969 346.246 133.728 348.192 135.648 349.284Z" fill="white"/>
<path d="M135.648 349.284L161.968 364.346C163.887 365.449 167.265 365.304 169.489 364.034L194.728 349.586C196.942 348.316 197.183 346.382 195.263 345.279L168.944 330.216C167.024 329.114 163.646 329.259 161.422 330.528L136.183 344.977C133.969 346.246 133.728 348.192 135.648 349.284Z" fill="url(#paint23_linear_7881_45)" fill-opacity="0.6"/>
<path d="M318 258.521V305L354 284.24V237.451L318 258.521Z" fill="white"/>
<path d="M318 258.521V305L354 284.24V237.451L318 258.521Z" fill="url(#paint24_linear_7881_45)" fill-opacity="0.2"/>
<path d="M318 258.521V270.484L354 249.723V237.451L318 258.521Z" fill="#FFB199"/>
<path d="M318 258.521V270.484L354 249.723V237.451L318 258.521Z" fill="url(#paint25_linear_7881_45)" fill-opacity="0.75"/>
<path d="M318 258.521V305L282 284.24V237.451L318 258.521Z" fill="white"/>
<path d="M318 258.521V305L282 284.24V237.451L318 258.521Z" fill="url(#paint26_linear_7881_45)" fill-opacity="0.6"/>
<path d="M318 258.521V270.484L282 249.723V237.451L318 258.521Z" fill="#FF835E"/>
<path d="M318 258.521V270.484L282 249.723V237.451L318 258.521Z" fill="url(#paint27_linear_7881_45)" fill-opacity="0.75"/>
<path d="M354 237.49L318 258.6L282 237.49L318.313 217L354 237.49Z" fill="#FF835E"/>
<path d="M354 237.49L318 258.6L282 237.49L318.313 217L354 237.49Z" fill="url(#paint28_linear_7881_45)" fill-opacity="0.75"/>
<path d="M302.811 249.734V296.616L296.207 293.043V245.844L302.811 249.734Z" fill="#CACDCF"/>
<path d="M332.977 249.83V296.712L339.376 293.236V246.038L332.977 249.83Z" fill="#ECEDEE"/>
<path d="M339.179 228.674L302.77 249.733L296.207 245.843L332.699 224.89L339.179 228.674Z" fill="#ECEDEE"/>
<path d="M296.903 228.884L333.018 249.83L339.376 246.038L303.187 225.206L296.903 228.884Z" fill="#ECEDEE"/>
<g opacity="0.6" filter="url(#filter2_f_7881_45)">
<path d="M18 267C21.5145 267 24.3636 265.607 24.3636 263.889C24.3636 262.171 21.5145 260.778 18 260.778C14.4854 260.778 11.6364 262.171 11.6364 263.889C11.6364 265.607 14.4854 267 18 267Z" fill="#BEBEB6" fill-opacity="0.2"/>
</g>
<path d="M15.9546 253.223H20.0455V263.161C20.0455 264.054 19.3121 264.778 18.4071 264.778H17.593C16.688 264.778 15.9546 264.054 15.9546 263.161V253.223Z" fill="white"/>
<path d="M15.9546 253.223H20.0455V263.161C20.0455 264.054 19.3121 264.778 18.4071 264.778H17.593C16.688 264.778 15.9546 264.054 15.9546 263.161V253.223Z" fill="url(#paint29_linear_7881_45)"/>
<g filter="url(#filter3_i_7881_45)">
<path d="M27.6511 252.939H27.6555L27.626 252.89C27.5366 252.709 27.4324 252.533 27.3135 252.36L18 236.555L8.68645 252.36C8.56756 252.533 8.46342 252.709 8.37403 252.89L8.34453 252.939H8.34887C8.12323 253.414 8 253.913 8 254.428C8 257.567 12.4771 260.111 18 260.111C23.5229 260.111 28 257.567 28 254.428C28.0009 253.913 27.8776 253.414 27.6511 252.939Z" fill="white"/>
<path d="M27.6511 252.939H27.6555L27.626 252.89C27.5366 252.709 27.4324 252.533 27.3135 252.36L18 236.555L8.68645 252.36C8.56756 252.533 8.46342 252.709 8.37403 252.89L8.34453 252.939H8.34887C8.12323 253.414 8 253.913 8 254.428C8 257.567 12.4771 260.111 18 260.111C23.5229 260.111 28 257.567 28 254.428C28.0009 253.913 27.8776 253.414 27.6511 252.939Z" fill="url(#paint30_linear_7881_45)" fill-opacity="0.4"/>
</g>
<g filter="url(#filter4_i_7881_45)">
<path d="M25.6767 247.54H25.6801L25.6568 247.5C25.5861 247.356 25.5032 247.216 25.4083 247.08L18 234.555L10.5916 247.08C10.4967 247.216 10.4138 247.356 10.3431 247.5L10.3198 247.54H10.3232C10.1429 247.916 10.0454 248.311 10.0454 248.719C10.0454 251.206 13.6064 253.222 18 253.222C22.3935 253.222 25.9545 251.206 25.9545 248.719C25.9545 248.31 25.857 247.915 25.6767 247.54Z" fill="white"/>
<path d="M25.6767 247.54H25.6801L25.6568 247.5C25.5861 247.356 25.5032 247.216 25.4083 247.08L18 234.555L10.5916 247.08C10.4967 247.216 10.4138 247.356 10.3431 247.5L10.3198 247.54H10.3232C10.1429 247.916 10.0454 248.311 10.0454 248.719C10.0454 251.206 13.6064 253.222 18 253.222C22.3935 253.222 25.9545 251.206 25.9545 248.719C25.9545 248.31 25.857 247.915 25.6767 247.54Z" fill="url(#paint31_linear_7881_45)" fill-opacity="0.4"/>
</g>
<g filter="url(#filter5_i_7881_45)">
<path d="M24.1419 242.758H24.1445L24.1255 242.727C24.0685 242.615 24.0021 242.505 23.927 242.398L18 232.556L12.073 242.397C11.997 242.504 11.9306 242.614 11.8745 242.727L11.8555 242.757H11.8581C11.714 243.053 11.6364 243.364 11.6364 243.684C11.6364 245.638 14.4855 247.223 18 247.223C21.5144 247.223 24.3636 245.638 24.3636 243.684C24.3636 243.364 24.286 243.054 24.1419 242.758Z" fill="white"/>
<path d="M24.1419 242.758H24.1445L24.1255 242.727C24.0685 242.615 24.0021 242.505 23.927 242.398L18 232.556L12.073 242.397C11.997 242.504 11.9306 242.614 11.8745 242.727L11.8555 242.757H11.8581C11.714 243.053 11.6364 243.364 11.6364 243.684C11.6364 245.638 14.4855 247.223 18 247.223C21.5144 247.223 24.3636 245.638 24.3636 243.684C24.3636 243.364 24.286 243.054 24.1419 242.758Z" fill="url(#paint32_linear_7881_45)" fill-opacity="0.4"/>
</g>
<g filter="url(#filter6_i_7881_45)">
<path d="M23.044 238.392H23.0466L23.0316 238.366C22.9846 238.272 22.9306 238.18 22.8686 238.091L18.9844 231.555C18.545 230.815 17.4535 230.815 17.014 231.555L13.1308 238.092C13.0687 238.181 13.0138 238.273 12.9677 238.367L12.9527 238.393H12.9553C12.8375 238.639 12.7728 238.897 12.7728 239.164C12.7728 240.792 15.1127 242.111 18.0001 242.111C20.8875 242.111 23.2274 240.792 23.2274 239.164C23.2265 238.896 23.1627 238.638 23.044 238.392Z" fill="white"/>
<path d="M23.044 238.392H23.0466L23.0316 238.366C22.9846 238.272 22.9306 238.18 22.8686 238.091L18.9844 231.555C18.545 230.815 17.4535 230.815 17.014 231.555L13.1308 238.092C13.0687 238.181 13.0138 238.273 12.9677 238.367L12.9527 238.393H12.9553C12.8375 238.639 12.7728 238.897 12.7728 239.164C12.7728 240.792 15.1127 242.111 18.0001 242.111C20.8875 242.111 23.2274 240.792 23.2274 239.164C23.2265 238.896 23.1627 238.638 23.044 238.392Z" fill="url(#paint33_linear_7881_45)" fill-opacity="0.4"/>
</g>
<g opacity="0.6" filter="url(#filter7_f_7881_45)">
<path d="M380.153 243.213C388.993 243.213 396.159 239.606 396.159 235.157C396.159 230.709 388.993 227.102 380.153 227.102C371.313 227.102 364.146 230.709 364.146 235.157C364.146 239.606 371.313 243.213 380.153 243.213Z" fill="#EBECED"/>
</g>
<path d="M375.008 207.539H385.298V233.272C385.298 235.584 383.453 237.459 381.176 237.459H379.129C376.853 237.459 375.008 235.584 375.008 233.272V207.539Z" fill="white"/>
<path d="M375.008 207.539H385.298V233.272C385.298 235.584 383.453 237.459 381.176 237.459H379.129C376.853 237.459 375.008 235.584 375.008 233.272V207.539Z" fill="url(#paint34_linear_7881_45)"/>
<g filter="url(#filter8_i_7881_45)">
<path d="M404.428 206.807H404.439L404.365 206.678C404.14 206.21 403.878 205.754 403.579 205.306L380.153 164.384L356.727 205.306C356.428 205.754 356.166 206.21 355.941 206.678L355.867 206.807H355.877C355.31 208.035 355 209.327 355 210.661C355 218.788 366.261 225.375 380.153 225.375C394.044 225.375 405.305 218.788 405.305 210.661C405.308 209.327 404.998 208.035 404.428 206.807Z" fill="white"/>
<path d="M404.428 206.807H404.439L404.365 206.678C404.14 206.21 403.878 205.754 403.579 205.306L380.153 164.384L356.727 205.306C356.428 205.754 356.166 206.21 355.941 206.678L355.867 206.807H355.877C355.31 208.035 355 209.327 355 210.661C355 218.788 366.261 225.375 380.153 225.375C394.044 225.375 405.305 218.788 405.305 210.661C405.308 209.327 404.998 208.035 404.428 206.807Z" fill="url(#paint35_linear_7881_45)" fill-opacity="0.4"/>
</g>
<g filter="url(#filter9_i_7881_45)">
<path d="M399.462 192.825H399.471L399.412 192.722C399.234 192.35 399.026 191.988 398.787 191.635L380.153 159.206L361.519 191.635C361.28 191.988 361.072 192.35 360.894 192.722L360.835 192.825H360.844C360.39 193.8 360.145 194.823 360.145 195.879C360.145 202.319 369.102 207.538 380.153 207.538C391.204 207.538 400.161 202.317 400.161 195.879C400.161 194.821 399.915 193.797 399.462 192.825Z" fill="white"/>
<path d="M399.462 192.825H399.471L399.412 192.722C399.234 192.35 399.026 191.988 398.787 191.635L380.153 159.206L361.519 191.635C361.28 191.988 361.072 192.35 360.894 192.722L360.835 192.825H360.844C360.39 193.8 360.145 194.823 360.145 195.879C360.145 202.319 369.102 207.538 380.153 207.538C391.204 207.538 400.161 202.317 400.161 195.879C400.161 194.821 399.915 193.797 399.462 192.825Z" fill="url(#paint36_linear_7881_45)" fill-opacity="0.4"/>
</g>
<g filter="url(#filter10_i_7881_45)">
<path d="M395.601 180.444H395.608L395.56 180.364C395.417 180.073 395.249 179.788 395.061 179.51L380.153 154.027L365.244 179.508C365.054 179.786 364.886 180.07 364.745 180.362L364.698 180.441H364.704C364.342 181.207 364.146 182.011 364.146 182.842C364.146 187.901 371.313 192.003 380.153 192.003C388.992 192.003 396.159 187.901 396.159 182.842C396.159 182.011 395.963 181.209 395.601 180.444Z" fill="white"/>
<path d="M395.601 180.444H395.608L395.56 180.364C395.417 180.073 395.249 179.788 395.061 179.51L380.153 154.027L365.244 179.508C365.054 179.786 364.886 180.07 364.745 180.362L364.698 180.441H364.704C364.342 181.207 364.146 182.011 364.146 182.842C364.146 187.901 371.313 192.003 380.153 192.003C388.992 192.003 396.159 187.901 396.159 182.842C396.159 182.011 395.963 181.209 395.601 180.444Z" fill="url(#paint37_linear_7881_45)" fill-opacity="0.4"/>
</g>
<g filter="url(#filter11_i_7881_45)">
<path d="M392.839 169.139H392.846L392.808 169.071C392.69 168.829 392.554 168.591 392.398 168.36L382.628 151.436C381.523 149.521 378.777 149.521 377.672 151.436L367.905 168.362C367.749 168.593 367.611 168.831 367.495 169.074L367.457 169.141H367.464C367.167 169.779 367.004 170.448 367.004 171.139C367.004 175.353 372.89 178.769 380.152 178.769C387.415 178.769 393.3 175.353 393.3 171.139C393.298 170.445 393.138 169.776 392.839 169.139Z" fill="white"/>
<path d="M392.839 169.139H392.846L392.808 169.071C392.69 168.829 392.554 168.591 392.398 168.36L382.628 151.436C381.523 149.521 378.777 149.521 377.672 151.436L367.905 168.362C367.749 168.593 367.611 168.831 367.495 169.074L367.457 169.141H367.464C367.167 169.779 367.004 170.448 367.004 171.139C367.004 175.353 372.89 178.769 380.152 178.769C387.415 178.769 393.3 175.353 393.3 171.139C393.298 170.445 393.138 169.776 392.839 169.139Z" fill="url(#paint38_linear_7881_45)" fill-opacity="0.4"/>
</g>
<g opacity="0.6" filter="url(#filter12_f_7881_45)">
<path d="M265 409C271.678 409 277.091 406.291 277.091 402.95C277.091 399.609 271.678 396.901 265 396.901C258.322 396.901 252.909 399.609 252.909 402.95C252.909 406.291 258.322 409 265 409Z" fill="#BEBEB6" fill-opacity="0.2"/>
</g>
<path d="M261.114 382.21H268.886V401.535C268.886 403.271 267.493 404.679 265.773 404.679H264.227C262.507 404.679 261.114 403.271 261.114 401.535V382.21Z" fill="white"/>
<path d="M261.114 382.21H268.886V401.535C268.886 403.271 267.493 404.679 265.773 404.679H264.227C262.507 404.679 261.114 403.271 261.114 401.535V382.21Z" fill="url(#paint39_linear_7881_45)"/>
<g filter="url(#filter13_i_7881_45)">
<path d="M283.337 381.66H283.345L283.289 381.563C283.119 381.212 282.922 380.869 282.696 380.533L265 349.802L247.304 380.533C247.078 380.869 246.88 381.212 246.711 381.563L246.655 381.66H246.663C246.234 382.582 246 383.553 246 384.555C246 390.657 254.507 395.605 265 395.605C275.493 395.605 284 390.657 284 384.555C284.002 383.553 283.767 382.582 283.337 381.66Z" fill="white"/>
<path d="M283.337 381.66H283.345L283.289 381.563C283.119 381.212 282.922 380.869 282.696 380.533L265 349.802L247.304 380.533C247.078 380.869 246.88 381.212 246.711 381.563L246.655 381.66H246.663C246.234 382.582 246 383.553 246 384.555C246 390.657 254.507 395.605 265 395.605C275.493 395.605 284 390.657 284 384.555C284.002 383.553 283.767 382.582 283.337 381.66Z" fill="url(#paint40_linear_7881_45)" fill-opacity="0.4"/>
</g>
<g filter="url(#filter14_i_7881_45)">
<path d="M279.586 371.16H279.592L279.548 371.083C279.414 370.804 279.256 370.532 279.076 370.266L265 345.913L250.924 370.266C250.744 370.532 250.586 370.804 250.452 371.083L250.408 371.16H250.414C250.072 371.892 249.886 372.661 249.886 373.454C249.886 378.29 256.652 382.21 265 382.21C273.348 382.21 280.114 378.288 280.114 373.454C280.114 372.659 279.928 371.891 279.586 371.16Z" fill="white"/>
<path d="M279.586 371.16H279.592L279.548 371.083C279.414 370.804 279.256 370.532 279.076 370.266L265 345.913L250.924 370.266C250.744 370.532 250.586 370.804 250.452 371.083L250.408 371.16H250.414C250.072 371.892 249.886 372.661 249.886 373.454C249.886 378.29 256.652 382.21 265 382.21C273.348 382.21 280.114 378.288 280.114 373.454C280.114 372.659 279.928 371.891 279.586 371.16Z" fill="url(#paint41_linear_7881_45)" fill-opacity="0.4"/>
</g>
<g filter="url(#filter15_i_7881_45)">
<path d="M276.67 361.862H276.674L276.638 361.802C276.53 361.584 276.404 361.37 276.261 361.161L265 342.025L253.739 361.16C253.594 361.368 253.468 361.582 253.362 361.801L253.325 361.861H253.33C253.057 362.436 252.909 363.04 252.909 363.663C252.909 367.463 258.323 370.543 265 370.543C271.677 370.543 277.091 367.463 277.091 363.663C277.091 363.04 276.943 362.437 276.67 361.862Z" fill="white"/>
<path d="M276.67 361.862H276.674L276.638 361.802C276.53 361.584 276.404 361.37 276.261 361.161L265 342.025L253.739 361.16C253.594 361.368 253.468 361.582 253.362 361.801L253.325 361.861H253.33C253.057 362.436 252.909 363.04 252.909 363.663C252.909 367.463 258.323 370.543 265 370.543C271.677 370.543 277.091 367.463 277.091 363.663C277.091 363.04 276.943 362.437 276.67 361.862Z" fill="url(#paint42_linear_7881_45)" fill-opacity="0.4"/>
</g>
<g filter="url(#filter16_i_7881_45)">
<path d="M274.583 353.373H274.588L274.56 353.322C274.471 353.14 274.368 352.961 274.25 352.788L266.87 340.078C266.035 338.641 263.961 338.641 263.126 340.078L255.748 352.79C255.63 352.963 255.526 353.142 255.439 353.324L255.41 353.374H255.415C255.191 353.853 255.068 354.356 255.068 354.875C255.068 358.039 259.514 360.605 265 360.605C270.486 360.605 274.932 358.039 274.932 354.875C274.93 354.354 274.809 353.852 274.583 353.373Z" fill="white"/>
<path d="M274.583 353.373H274.588L274.56 353.322C274.471 353.14 274.368 352.961 274.25 352.788L266.87 340.078C266.035 338.641 263.961 338.641 263.126 340.078L255.748 352.79C255.63 352.963 255.526 353.142 255.439 353.324L255.41 353.374H255.415C255.191 353.853 255.068 354.356 255.068 354.875C255.068 358.039 259.514 360.605 265 360.605C270.486 360.605 274.932 358.039 274.932 354.875C274.93 354.354 274.809 353.852 274.583 353.373Z" fill="url(#paint43_linear_7881_45)" fill-opacity="0.4"/>
</g>
<defs>
<filter id="filter0_f_7881_45" x="117.409" y="242.597" width="216.007" height="145.045" filterUnits="userSpaceOnUse" color-interpolation-filters="sRGB">
<feFlood flood-opacity="0" result="BackgroundImageFix"/>
<feBlend mode="normal" in="SourceGraphic" in2="BackgroundImageFix" result="shape"/>
<feGaussianBlur stdDeviation="11.7778" result="effect1_foregroundBlur_7881_45"/>
</filter>
<filter id="filter1_i_7881_45" x="52.5596" y="223.783" width="62.208" height="35.6135" filterUnits="userSpaceOnUse" color-interpolation-filters="sRGB">
<feFlood flood-opacity="0" result="BackgroundImageFix"/>
<feBlend mode="normal" in="SourceGraphic" in2="BackgroundImageFix" result="shape"/>
<feColorMatrix in="SourceAlpha" type="matrix" values="0 0 0 0 0 0 0 0 0 0 0 0 0 0 0 0 0 0 127 0" result="hardAlpha"/>
<feOffset dy="-2"/>
<feComposite in2="hardAlpha" operator="arithmetic" k2="-1" k3="1"/>
<feColorMatrix type="matrix" values="0 0 0 0 1 0 0 0 0 1 0 0 0 0 1 0 0 0 1 0"/>
<feBlend mode="normal" in2="shape" result="effect1_innerShadow_7881_45"/>
</filter>
<filter id="filter2_f_7881_45" x="3.63635" y="252.778" width="28.7273" height="22.2222" filterUnits="userSpaceOnUse" color-interpolation-filters="sRGB">
<feFlood flood-opacity="0" result="BackgroundImageFix"/>
<feBlend mode="normal" in="SourceGraphic" in2="BackgroundImageFix" result="shape"/>
<feGaussianBlur stdDeviation="4" result="effect1_foregroundBlur_7881_45"/>
</filter>
<filter id="filter3_i_7881_45" x="8" y="236.555" width="20" height="23.5557" filterUnits="userSpaceOnUse" color-interpolation-filters="sRGB">
<feFlood flood-opacity="0" result="BackgroundImageFix"/>
<feBlend mode="normal" in="SourceGraphic" in2="BackgroundImageFix" result="shape"/>
<feColorMatrix in="SourceAlpha" type="matrix" values="0 0 0 0 0 0 0 0 0 0 0 0 0 0 0 0 0 0 127 0" result="hardAlpha"/>
<feOffset dy="-2"/>
<feComposite in2="hardAlpha" operator="arithmetic" k2="-1" k3="1"/>
<feColorMatrix type="matrix" values="0 0 0 0 1 0 0 0 0 1 0 0 0 0 1 0 0 0 0.6 0"/>
<feBlend mode="normal" in2="shape" result="effect1_innerShadow_7881_45"/>
</filter>
<filter id="filter4_i_7881_45" x="10.0454" y="234.555" width="15.9091" height="18.6667" filterUnits="userSpaceOnUse" color-interpolation-filters="sRGB">
<feFlood flood-opacity="0" result="BackgroundImageFix"/>
<feBlend mode="normal" in="SourceGraphic" in2="BackgroundImageFix" result="shape"/>
<feColorMatrix in="SourceAlpha" type="matrix" values="0 0 0 0 0 0 0 0 0 0 0 0 0 0 0 0 0 0 127 0" result="hardAlpha"/>
<feOffset dy="-2"/>
<feComposite in2="hardAlpha" operator="arithmetic" k2="-1" k3="1"/>
<feColorMatrix type="matrix" values="0 0 0 0 1 0 0 0 0 1 0 0 0 0 1 0 0 0 0.6 0"/>
<feBlend mode="normal" in2="shape" result="effect1_innerShadow_7881_45"/>
</filter>
<filter id="filter5_i_7881_45" x="11.6364" y="232.556" width="12.7273" height="14.6667" filterUnits="userSpaceOnUse" color-interpolation-filters="sRGB">
<feFlood flood-opacity="0" result="BackgroundImageFix"/>
<feBlend mode="normal" in="SourceGraphic" in2="BackgroundImageFix" result="shape"/>
<feColorMatrix in="SourceAlpha" type="matrix" values="0 0 0 0 0 0 0 0 0 0 0 0 0 0 0 0 0 0 127 0" result="hardAlpha"/>
<feOffset dy="-2"/>
<feComposite in2="hardAlpha" operator="arithmetic" k2="-1" k3="1"/>
<feColorMatrix type="matrix" values="0 0 0 0 1 0 0 0 0 1 0 0 0 0 1 0 0 0 0.6 0"/>
<feBlend mode="normal" in2="shape" result="effect1_innerShadow_7881_45"/>
</filter>
<filter id="filter6_i_7881_45" x="12.7728" y="231" width="10.4546" height="11.1111" filterUnits="userSpaceOnUse" color-interpolation-filters="sRGB">
<feFlood flood-opacity="0" result="BackgroundImageFix"/>
<feBlend mode="normal" in="SourceGraphic" in2="BackgroundImageFix" result="shape"/>
<feColorMatrix in="SourceAlpha" type="matrix" values="0 0 0 0 0 0 0 0 0 0 0 0 0 0 0 0 0 0 127 0" result="hardAlpha"/>
<feOffset dy="-2"/>
<feComposite in2="hardAlpha" operator="arithmetic" k2="-1" k3="1"/>
<feColorMatrix type="matrix" values="0 0 0 0 1 0 0 0 0 1 0 0 0 0 1 0 0 0 0.6 0"/>
<feBlend mode="normal" in2="shape" result="effect1_innerShadow_7881_45"/>
</filter>
<filter id="filter7_f_7881_45" x="356.146" y="219.102" width="48.0125" height="32.1108" filterUnits="userSpaceOnUse" color-interpolation-filters="sRGB">
<feFlood flood-opacity="0" result="BackgroundImageFix"/>
<feBlend mode="normal" in="SourceGraphic" in2="BackgroundImageFix" result="shape"/>
<feGaussianBlur stdDeviation="4" result="effect1_foregroundBlur_7881_45"/>
</filter>
<filter id="filter8_i_7881_45" x="355" y="164.384" width="50.3054" height="60.9912" filterUnits="userSpaceOnUse" color-interpolation-filters="sRGB">
<feFlood flood-opacity="0" result="BackgroundImageFix"/>
<feBlend mode="normal" in="SourceGraphic" in2="BackgroundImageFix" result="shape"/>
<feColorMatrix in="SourceAlpha" type="matrix" values="0 0 0 0 0 0 0 0 0 0 0 0 0 0 0 0 0 0 127 0" result="hardAlpha"/>
<feOffset dy="-4"/>
<feComposite in2="hardAlpha" operator="arithmetic" k2="-1" k3="1"/>
<feColorMatrix type="matrix" values="0 0 0 0 1 0 0 0 0 1 0 0 0 0 1 0 0 0 0.4 0"/>
<feBlend mode="normal" in2="shape" result="effect1_innerShadow_7881_45"/>
</filter>
<filter id="filter9_i_7881_45" x="360.145" y="159.206" width="40.0156" height="48.3325" filterUnits="userSpaceOnUse" color-interpolation-filters="sRGB">
<feFlood flood-opacity="0" result="BackgroundImageFix"/>
<feBlend mode="normal" in="SourceGraphic" in2="BackgroundImageFix" result="shape"/>
<feColorMatrix in="SourceAlpha" type="matrix" values="0 0 0 0 0 0 0 0 0 0 0 0 0 0 0 0 0 0 127 0" result="hardAlpha"/>
<feOffset dy="-4"/>
<feComposite in2="hardAlpha" operator="arithmetic" k2="-1" k3="1"/>
<feColorMatrix type="matrix" values="0 0 0 0 1 0 0 0 0 1 0 0 0 0 1 0 0 0 0.4 0"/>
<feBlend mode="normal" in2="shape" result="effect1_innerShadow_7881_45"/>
</filter>
<filter id="filter10_i_7881_45" x="364.146" y="154.027" width="32.0125" height="37.9756" filterUnits="userSpaceOnUse" color-interpolation-filters="sRGB">
<feFlood flood-opacity="0" result="BackgroundImageFix"/>
<feBlend mode="normal" in="SourceGraphic" in2="BackgroundImageFix" result="shape"/>
<feColorMatrix in="SourceAlpha" type="matrix" values="0 0 0 0 0 0 0 0 0 0 0 0 0 0 0 0 0 0 127 0" result="hardAlpha"/>
<feOffset dy="-4"/>
<feComposite in2="hardAlpha" operator="arithmetic" k2="-1" k3="1"/>
<feColorMatrix type="matrix" values="0 0 0 0 1 0 0 0 0 1 0 0 0 0 1 0 0 0 0.4 0"/>
<feBlend mode="normal" in2="shape" result="effect1_innerShadow_7881_45"/>
</filter>
<filter id="filter11_i_7881_45" x="367.004" y="150" width="26.296" height="28.7695" filterUnits="userSpaceOnUse" color-interpolation-filters="sRGB">
<feFlood flood-opacity="0" result="BackgroundImageFix"/>
<feBlend mode="normal" in="SourceGraphic" in2="BackgroundImageFix" result="shape"/>
<feColorMatrix in="SourceAlpha" type="matrix" values="0 0 0 0 0 0 0 0 0 0 0 0 0 0 0 0 0 0 127 0" result="hardAlpha"/>
<feOffset dy="-4"/>
<feComposite in2="hardAlpha" operator="arithmetic" k2="-1" k3="1"/>
<feColorMatrix type="matrix" values="0 0 0 0 1 0 0 0 0 1 0 0 0 0 1 0 0 0 0.4 0"/>
<feBlend mode="normal" in2="shape" result="effect1_innerShadow_7881_45"/>
</filter>
<filter id="filter12_f_7881_45" x="236.909" y="380.901" width="56.1818" height="44.0986" filterUnits="userSpaceOnUse" color-interpolation-filters="sRGB">
<feFlood flood-opacity="0" result="BackgroundImageFix"/>
<feBlend mode="normal" in="SourceGraphic" in2="BackgroundImageFix" result="shape"/>
<feGaussianBlur stdDeviation="8" result="effect1_foregroundBlur_7881_45"/>
</filter>
<filter id="filter13_i_7881_45" x="246" y="349.802" width="38" height="45.8025" filterUnits="userSpaceOnUse" color-interpolation-filters="sRGB">
<feFlood flood-opacity="0" result="BackgroundImageFix"/>
<feBlend mode="normal" in="SourceGraphic" in2="BackgroundImageFix" result="shape"/>
<feColorMatrix in="SourceAlpha" type="matrix" values="0 0 0 0 0 0 0 0 0 0 0 0 0 0 0 0 0 0 127 0" result="hardAlpha"/>
<feOffset dy="-4"/>
<feComposite in2="hardAlpha" operator="arithmetic" k2="-1" k3="1"/>
<feColorMatrix type="matrix" values="0 0 0 0 1 0 0 0 0 1 0 0 0 0 1 0 0 0 0.6 0"/>
<feBlend mode="normal" in2="shape" result="effect1_innerShadow_7881_45"/>
</filter>
<filter id="filter14_i_7881_45" x="249.886" y="345.913" width="30.2273" height="36.2961" filterUnits="userSpaceOnUse" color-interpolation-filters="sRGB">
<feFlood flood-opacity="0" result="BackgroundImageFix"/>
<feBlend mode="normal" in="SourceGraphic" in2="BackgroundImageFix" result="shape"/>
<feColorMatrix in="SourceAlpha" type="matrix" values="0 0 0 0 0 0 0 0 0 0 0 0 0 0 0 0 0 0 127 0" result="hardAlpha"/>
<feOffset dy="-4"/>
<feComposite in2="hardAlpha" operator="arithmetic" k2="-1" k3="1"/>
<feColorMatrix type="matrix" values="0 0 0 0 1 0 0 0 0 1 0 0 0 0 1 0 0 0 0.6 0"/>
<feBlend mode="normal" in2="shape" result="effect1_innerShadow_7881_45"/>
</filter>
<filter id="filter15_i_7881_45" x="252.909" y="342.025" width="24.1818" height="28.5186" filterUnits="userSpaceOnUse" color-interpolation-filters="sRGB">
<feFlood flood-opacity="0" result="BackgroundImageFix"/>
<feBlend mode="normal" in="SourceGraphic" in2="BackgroundImageFix" result="shape"/>
<feColorMatrix in="SourceAlpha" type="matrix" values="0 0 0 0 0 0 0 0 0 0 0 0 0 0 0 0 0 0 127 0" result="hardAlpha"/>
<feOffset dy="-4"/>
<feComposite in2="hardAlpha" operator="arithmetic" k2="-1" k3="1"/>
<feColorMatrix type="matrix" values="0 0 0 0 1 0 0 0 0 1 0 0 0 0 1 0 0 0 0.6 0"/>
<feBlend mode="normal" in2="shape" result="effect1_innerShadow_7881_45"/>
</filter>
<filter id="filter16_i_7881_45" x="255.068" y="339" width="19.8636" height="21.605" filterUnits="userSpaceOnUse" color-interpolation-filters="sRGB">
<feFlood flood-opacity="0" result="BackgroundImageFix"/>
<feBlend mode="normal" in="SourceGraphic" in2="BackgroundImageFix" result="shape"/>
<feColorMatrix in="SourceAlpha" type="matrix" values="0 0 0 0 0 0 0 0 0 0 0 0 0 0 0 0 0 0 127 0" result="hardAlpha"/>
<feOffset dy="-4"/>
<feComposite in2="hardAlpha" operator="arithmetic" k2="-1" k3="1"/>
<feColorMatrix type="matrix" values="0 0 0 0 1 0 0 0 0 1 0 0 0 0 1 0 0 0 0.6 0"/>
<feBlend mode="normal" in2="shape" result="effect1_innerShadow_7881_45"/>
</filter>
<linearGradient id="paint0_linear_7881_45" x1="121.976" y1="450.987" x2="210.273" y2="546.723" gradientUnits="userSpaceOnUse">
<stop stop-color="#CCD1D3" stop-opacity="0.36"/>
<stop offset="1" stop-color="#C3C6CA"/>
</linearGradient>
<linearGradient id="paint1_linear_7881_45" x1="121.976" y1="450.987" x2="210.273" y2="546.723" gradientUnits="userSpaceOnUse">
<stop stop-color="#CCD1D3" stop-opacity="0.36"/>
<stop offset="1" stop-color="#C3C6CA"/>
</linearGradient>
<linearGradient id="paint2_linear_7881_45" x1="121.976" y1="450.987" x2="210.273" y2="546.723" gradientUnits="userSpaceOnUse">
<stop stop-color="#CCD1D3" stop-opacity="0.36"/>
<stop offset="1" stop-color="#C3C6CA"/>
</linearGradient>
<linearGradient id="paint3_linear_7881_45" x1="1.94966" y1="282.778" x2="358.968" y2="78.6065" gradientUnits="userSpaceOnUse">
<stop stop-color="#BDC6CB" stop-opacity="0.36"/>
<stop offset="1" stop-color="#B7BEC8"/>
</linearGradient>
<linearGradient id="paint4_linear_7881_45" x1="220.7" y1="3.00247" x2="165.618" y2="340.245" gradientUnits="userSpaceOnUse">
<stop stop-color="#CCD1D3" stop-opacity="0.36"/>
<stop offset="1" stop-color="#C3C6CA"/>
</linearGradient>
<linearGradient id="paint5_linear_7881_45" x1="220.7" y1="3.00247" x2="165.618" y2="340.245" gradientUnits="userSpaceOnUse">
<stop stop-color="#CCD1D3" stop-opacity="0.36"/>
<stop offset="1" stop-color="#C3C6CA"/>
</linearGradient>
<linearGradient id="paint6_linear_7881_45" x1="220.7" y1="3.00247" x2="165.618" y2="340.245" gradientUnits="userSpaceOnUse">
<stop stop-color="#CCD1D3" stop-opacity="0.36"/>
<stop offset="1" stop-color="#C3C6CA"/>
</linearGradient>
<linearGradient id="paint7_linear_7881_45" x1="199.193" y1="15.0551" x2="128.661" y2="90.8605" gradientUnits="userSpaceOnUse">
<stop stop-color="#BDC6CB" stop-opacity="0.36"/>
<stop offset="1" stop-color="#B7BEC8"/>
</linearGradient>
<linearGradient id="paint8_linear_7881_45" x1="247.95" y1="322.849" x2="185.08" y2="171.341" gradientUnits="userSpaceOnUse">
<stop stop-color="#EE5222"/>
<stop offset="1" stop-color="#FF9D66"/>
</linearGradient>
<linearGradient id="paint9_linear_7881_45" x1="130.567" y1="250.54" x2="54.2982" y2="247.015" gradientUnits="userSpaceOnUse">
<stop stop-color="#CCD1D3" stop-opacity="0.36"/>
<stop offset="1" stop-color="#C3C6CA"/>
</linearGradient>
<linearGradient id="paint10_linear_7881_45" x1="76.7777" y1="301.552" x2="112.793" y2="302.004" gradientUnits="userSpaceOnUse">
<stop stop-color="#BDC6CB" stop-opacity="0.36"/>
<stop offset="1" stop-color="#B7BEC8"/>
</linearGradient>
<linearGradient id="paint11_linear_7881_45" x1="65.4775" y1="220.761" x2="90.8552" y2="310.798" gradientUnits="userSpaceOnUse">
<stop stop-color="#CCD1D3" stop-opacity="0.36"/>
<stop offset="1" stop-color="#C3C6CA"/>
</linearGradient>
<linearGradient id="paint12_linear_7881_45" x1="125.504" y1="354.776" x2="129.578" y2="292.265" gradientUnits="userSpaceOnUse">
<stop stop-color="#FF4810"/>
<stop offset="1" stop-color="#FFB950"/>
</linearGradient>
<linearGradient id="paint13_linear_7881_45" x1="126.56" y1="354.634" x2="133.151" y2="292.701" gradientUnits="userSpaceOnUse">
<stop stop-color="#FF4810"/>
<stop offset="1" stop-color="#FFB950"/>
</linearGradient>
<linearGradient id="paint14_linear_7881_45" x1="123.671" y1="293.531" x2="124.029" y2="291.225" gradientUnits="userSpaceOnUse">
<stop stop-color="#FF4810"/>
<stop offset="1" stop-color="#FFB950"/>
</linearGradient>
<linearGradient id="paint15_linear_7881_45" x1="124.269" y1="308.634" x2="60.8872" y2="249.586" gradientUnits="userSpaceOnUse">
<stop stop-color="#FF4810"/>
<stop offset="1" stop-color="#FFB950"/>
</linearGradient>
<linearGradient id="paint16_linear_7881_45" x1="140.687" y1="301.075" x2="85.8158" y2="242.326" gradientUnits="userSpaceOnUse">
<stop stop-color="#FF4810"/>
<stop offset="1" stop-color="#FFB950"/>
</linearGradient>
<linearGradient id="paint17_linear_7881_45" x1="95.7655" y1="190.78" x2="100.336" y2="158.201" gradientUnits="userSpaceOnUse">
<stop stop-color="#FF4810"/>
<stop offset="1" stop-color="#FFB950"/>
</linearGradient>
<linearGradient id="paint18_linear_7881_45" x1="125.504" y1="174.776" x2="129.578" y2="112.265" gradientUnits="userSpaceOnUse">
<stop stop-color="#FF4810"/>
<stop offset="1" stop-color="#FFB950"/>
</linearGradient>
<linearGradient id="paint19_linear_7881_45" x1="126.56" y1="174.634" x2="133.151" y2="112.701" gradientUnits="userSpaceOnUse">
<stop stop-color="#FF4810"/>
<stop offset="1" stop-color="#FFB950"/>
</linearGradient>
<linearGradient id="paint20_linear_7881_45" x1="123.671" y1="113.531" x2="124.029" y2="111.225" gradientUnits="userSpaceOnUse">
<stop stop-color="#FF4810"/>
<stop offset="1" stop-color="#FFB950"/>
</linearGradient>
<linearGradient id="paint21_linear_7881_45" x1="212.359" y1="333.256" x2="136.09" y2="329.73" gradientUnits="userSpaceOnUse">
<stop stop-color="#CCD1D3" stop-opacity="0.36"/>
<stop offset="1" stop-color="#C3C6CA"/>
</linearGradient>
<linearGradient id="paint22_linear_7881_45" x1="158.57" y1="384.267" x2="194.585" y2="384.72" gradientUnits="userSpaceOnUse">
<stop stop-color="#BDC6CB" stop-opacity="0.36"/>
<stop offset="1" stop-color="#B7BEC8"/>
</linearGradient>
<linearGradient id="paint23_linear_7881_45" x1="147.27" y1="326.453" x2="172.647" y2="416.49" gradientUnits="userSpaceOnUse">
<stop stop-color="#CCD1D3" stop-opacity="0.36"/>
<stop offset="1" stop-color="#C3C6CA"/>
</linearGradient>
<linearGradient id="paint24_linear_7881_45" x1="310.03" y1="309.926" x2="351.715" y2="310.431" gradientUnits="userSpaceOnUse">
<stop stop-color="#BDC6CB" stop-opacity="0.36"/>
<stop offset="1" stop-color="#B7BEC8"/>
</linearGradient>
<linearGradient id="paint25_linear_7881_45" x1="336" y1="266.132" x2="331.728" y2="242.382" gradientUnits="userSpaceOnUse">
<stop stop-color="#FF4810"/>
<stop offset="1" stop-color="#FFB950"/>
</linearGradient>
<linearGradient id="paint26_linear_7881_45" x1="372.286" y1="245.568" x2="284.171" y2="240.035" gradientUnits="userSpaceOnUse">
<stop stop-color="#CCD1D3" stop-opacity="0.36"/>
<stop offset="1" stop-color="#C3C6CA"/>
</linearGradient>
<linearGradient id="paint27_linear_7881_45" x1="316.997" y1="270.484" x2="310.401" y2="241.154" gradientUnits="userSpaceOnUse">
<stop stop-color="#FF4810"/>
<stop offset="1" stop-color="#FFB950"/>
</linearGradient>
<linearGradient id="paint28_linear_7881_45" x1="284.007" y1="258.6" x2="289.394" y2="220.558" gradientUnits="userSpaceOnUse">
<stop stop-color="#FF4810"/>
<stop offset="1" stop-color="#FFB950"/>
</linearGradient>
<linearGradient id="paint29_linear_7881_45" x1="15.9546" y1="259" x2="20.0455" y2="259" gradientUnits="userSpaceOnUse">
<stop offset="0.266393" stop-color="#F7F8F9"/>
<stop offset="1" stop-color="#EAEBEC"/>
</linearGradient>
<linearGradient id="paint30_linear_7881_45" x1="8" y1="248.333" x2="23.4494" y2="243.976" gradientUnits="userSpaceOnUse">
<stop stop-color="#BDC6CB" stop-opacity="0.36"/>
<stop offset="0.491083" stop-color="#DCDDE0"/>
<stop offset="1" stop-color="#CACDCF"/>
</linearGradient>
<linearGradient id="paint31_linear_7881_45" x1="10.0454" y1="243.889" x2="22.3278" y2="240.412" gradientUnits="userSpaceOnUse">
<stop stop-color="#BDC6CB" stop-opacity="0.36"/>
<stop offset="0.491083" stop-color="#DCDDE0"/>
<stop offset="1" stop-color="#CACDCF"/>
</linearGradient>
<linearGradient id="paint32_linear_7881_45" x1="11.6364" y1="239.889" x2="21.4356" y2="237.065" gradientUnits="userSpaceOnUse">
<stop stop-color="#BDC6CB" stop-opacity="0.36"/>
<stop offset="0.491083" stop-color="#DCDDE0"/>
<stop offset="1" stop-color="#CACDCF"/>
</linearGradient>
<linearGradient id="paint33_linear_7881_45" x1="12.7728" y1="236.556" x2="20.7152" y2="234.073" gradientUnits="userSpaceOnUse">
<stop stop-color="#BDC6CB" stop-opacity="0.36"/>
<stop offset="0.491083" stop-color="#DCDDE0"/>
<stop offset="1" stop-color="#CACDCF"/>
</linearGradient>
<linearGradient id="paint34_linear_7881_45" x1="375.008" y1="222.499" x2="385.298" y2="222.499" gradientUnits="userSpaceOnUse">
<stop offset="0.266393" stop-color="#F7F8F9"/>
<stop offset="1" stop-color="#E2E3E4"/>
</linearGradient>
<linearGradient id="paint35_linear_7881_45" x1="355" y1="194.88" x2="394.021" y2="184.189" gradientUnits="userSpaceOnUse">
<stop stop-color="#BDC6CB" stop-opacity="0.36"/>
<stop offset="0.491083" stop-color="#DCDDE0"/>
<stop offset="1" stop-color="#CACDCF"/>
</linearGradient>
<linearGradient id="paint36_linear_7881_45" x1="360.145" y1="183.372" x2="391.168" y2="174.84" gradientUnits="userSpaceOnUse">
<stop stop-color="#BDC6CB" stop-opacity="0.36"/>
<stop offset="0.491083" stop-color="#DCDDE0"/>
<stop offset="1" stop-color="#CACDCF"/>
</linearGradient>
<linearGradient id="paint37_linear_7881_45" x1="364.146" y1="173.015" x2="388.901" y2="166.084" gradientUnits="userSpaceOnUse">
<stop stop-color="#BDC6CB" stop-opacity="0.36"/>
<stop offset="0.491083" stop-color="#DCDDE0"/>
<stop offset="1" stop-color="#CACDCF"/>
</linearGradient>
<linearGradient id="paint38_linear_7881_45" x1="367.004" y1="164.384" x2="387.082" y2="158.289" gradientUnits="userSpaceOnUse">
<stop stop-color="#BDC6CB" stop-opacity="0.36"/>
<stop offset="0.491083" stop-color="#DCDDE0"/>
<stop offset="1" stop-color="#CACDCF"/>
</linearGradient>
<linearGradient id="paint39_linear_7881_45" x1="261.114" y1="393.445" x2="268.886" y2="393.445" gradientUnits="userSpaceOnUse">
<stop offset="0.266393" stop-color="#F7F8F9"/>
<stop offset="1" stop-color="#EAEBEC"/>
</linearGradient>
<linearGradient id="paint40_linear_7881_45" x1="246" y1="372.703" x2="275.452" y2="364.587" gradientUnits="userSpaceOnUse">
<stop stop-color="#BDC6CB" stop-opacity="0.36"/>
<stop offset="0.491083" stop-color="#DCDDE0"/>
<stop offset="1" stop-color="#CACDCF"/>
</linearGradient>
<linearGradient id="paint41_linear_7881_45" x1="249.886" y1="364.061" x2="273.301" y2="357.584" gradientUnits="userSpaceOnUse">
<stop stop-color="#BDC6CB" stop-opacity="0.36"/>
<stop offset="0.491083" stop-color="#DCDDE0"/>
<stop offset="1" stop-color="#CACDCF"/>
</linearGradient>
<linearGradient id="paint42_linear_7881_45" x1="252.909" y1="356.284" x2="271.592" y2="351.022" gradientUnits="userSpaceOnUse">
<stop stop-color="#BDC6CB" stop-opacity="0.36"/>
<stop offset="0.491083" stop-color="#DCDDE0"/>
<stop offset="1" stop-color="#CACDCF"/>
</linearGradient>
<linearGradient id="paint43_linear_7881_45" x1="255.068" y1="349.802" x2="270.22" y2="345.175" gradientUnits="userSpaceOnUse">
<stop stop-color="#BDC6CB" stop-opacity="0.36"/>
<stop offset="0.491083" stop-color="#DCDDE0"/>
<stop offset="1" stop-color="#CACDCF"/>
</linearGradient>
</defs>
</svg>
