<svg width="180" height="48" viewBox="0 0 180 48" fill="none" xmlns="http://www.w3.org/2000/svg">
<path d="M59.2781 33.8879H61.1383V43.887H59.2781V33.8879ZM69.875 37.0173C70.4581 37.582 70.745 38.4153 70.745 39.517V43.887H68.9588V39.7485C68.9588 39.0819 68.8014 38.5819 68.4868 38.2394C68.1721 37.9061 67.7279 37.7302 67.1448 37.7302C66.4877 37.7302 65.9694 37.9246 65.59 38.3227C65.2105 38.7208 65.0162 39.2856 65.0162 40.0262V43.887H63.2299V36.2581H64.9329V37.2395C65.229 36.8877 65.5992 36.6192 66.0435 36.434C66.4877 36.2581 66.9967 36.1655 67.5613 36.1655C68.5238 36.1655 69.292 36.4433 69.875 37.008V37.0173ZM79.5835 36.2581L76.3165 43.887H74.4747L71.2077 36.2581H73.068L75.4373 41.915L77.8806 36.2581H79.5927H79.5835ZM87.1911 40.6466H81.2124C81.3142 41.2113 81.5918 41.6557 82.0361 41.9798C82.4803 42.3131 83.0263 42.4705 83.6834 42.4705C84.5164 42.4705 85.2105 42.1927 85.7566 41.6372L86.7098 42.739C86.3674 43.1463 85.9324 43.4611 85.4141 43.6648C84.8866 43.8777 84.3035 43.9796 83.6464 43.9796C82.8042 43.9796 82.0731 43.8129 81.4345 43.4796C80.7959 43.1463 80.3054 42.6834 79.9537 42.0909C79.602 41.4983 79.4354 40.8225 79.4354 40.0725C79.4354 39.3226 79.602 38.656 79.9444 38.0635C80.2776 37.4709 80.7496 37.008 81.3512 36.6747C81.9528 36.3414 82.6284 36.1748 83.378 36.1748C84.1277 36.1748 84.7848 36.3414 85.3678 36.6655C85.9509 36.9895 86.4137 37.4524 86.7376 38.0542C87.0615 38.656 87.2281 39.3411 87.2281 40.1188C87.2281 40.2392 87.2188 40.4151 87.2003 40.6466H87.1911ZM81.9157 38.1098C81.5178 38.4523 81.2771 38.8967 81.1939 39.4615H85.5159C85.4419 38.906 85.2013 38.4616 84.8125 38.119C84.4238 37.7765 83.9333 37.6006 83.3595 37.6006C82.7857 37.6006 82.3044 37.7672 81.9065 38.1098H81.9157ZM89.0421 43.7481C88.4498 43.5815 87.9777 43.3778 87.6261 43.1371L88.3109 41.7761C88.6534 42.0075 89.0698 42.1927 89.5418 42.3223C90.0231 42.4612 90.4951 42.526 90.9671 42.526C92.0314 42.526 92.5682 42.2483 92.5682 41.6835C92.5682 41.415 92.4294 41.2298 92.161 41.128C91.8926 41.0262 91.4576 40.9243 90.856 40.8317C90.2267 40.7391 89.7177 40.628 89.3197 40.5077C88.9218 40.3873 88.5793 40.1651 88.2924 39.8596C88.0055 39.5541 87.8574 39.1189 87.8574 38.5634C87.8574 37.8413 88.1629 37.258 88.7644 36.8228C89.366 36.3877 90.1897 36.1748 91.217 36.1748C91.7445 36.1748 92.2628 36.2303 92.7903 36.3507C93.3179 36.471 93.7436 36.6284 94.0768 36.8321L93.3919 38.1931C92.7441 37.8135 92.0129 37.6191 91.2077 37.6191C90.6802 37.6191 90.2822 37.6931 90.0138 37.8505C89.7455 38.0079 89.6066 38.2116 89.6066 38.4708C89.6066 38.7578 89.7547 38.9615 90.0416 39.0819C90.3285 39.2023 90.782 39.3134 91.3928 39.4152C92.0037 39.5078 92.5034 39.6189 92.8921 39.7485C93.2808 39.8689 93.614 40.0818 93.9009 40.3781C94.1786 40.6743 94.3174 41.091 94.3174 41.6372C94.3174 42.3501 94.012 42.9241 93.3919 43.35C92.7718 43.7759 91.9296 43.9888 90.8653 43.9888C90.2452 43.9888 89.6436 43.9055 89.0513 43.7481H89.0421ZM100.009 43.4796C99.7963 43.6555 99.5465 43.7759 99.2503 43.8685C98.9541 43.9518 98.6302 43.9981 98.297 43.9981C97.4548 43.9981 96.8162 43.7759 96.3535 43.3408C95.9 42.9056 95.6686 42.2668 95.6686 41.4243V37.7579H94.41V36.3322H95.6686V34.5916H97.4548V36.3322H99.5002V37.7579H97.4548V41.3872C97.4548 41.7576 97.5474 42.0446 97.7232 42.239C97.8991 42.4334 98.1675 42.5353 98.5099 42.5353C98.9079 42.5353 99.241 42.4334 99.5094 42.2205L100.009 43.4889V43.4796Z" fill="#1D1D1B"/>
<path d="M36.5571 0.252197H10.9209C4.88663 0.252197 0 5.14063 0 11.1771V36.8228C0 42.8593 4.88663 47.7477 10.9209 47.7477H36.5571C42.5914 47.7477 47.478 42.8593 47.478 36.8228V11.1771C47.478 5.14063 42.5914 0.252197 36.5571 0.252197ZM21.7584 33.425C21.7584 34.9249 20.9162 36.2951 19.5743 36.9617L13.8454 39.8225V31.3882C13.8454 29.8883 14.6876 28.5181 16.0296 27.8514L21.7584 24.9906V33.425ZM33.6326 27.4904C33.6326 28.9902 32.7811 30.3605 31.4484 31.0363L25.7196 33.8972V14.5749C25.7196 13.0751 26.5618 11.7048 27.9037 11.0382L33.6326 8.17738V27.4904ZM69.69 13.251V7.82556C69.69 6.52013 70.4304 5.32579 71.5965 4.74252L76.5849 2.25201C76.5849 8.61252 76.5849 14.973 76.5849 21.3243C76.5849 22.7593 76.4276 24.1666 75.8538 25.4906C74.9653 27.5644 73.3364 28.7588 71.217 29.3698C70.2175 29.6568 69.1994 29.805 68.1721 29.8235C66.6543 29.8513 65.5067 29.8327 63.9889 29.8327C63.9334 29.8327 59.4354 29.8327 59.3521 29.8235V23.8055H66.8487C68.4868 23.6944 69.4216 22.6297 69.6067 20.991C69.6622 20.5096 69.69 20.0189 69.69 19.5374V13.2602V13.251ZM126.164 18.769C126.58 20.2225 126.654 21.7872 126.506 23.2963C126.275 25.6665 125.099 27.4256 123.036 28.5829C121.259 29.5828 119.306 29.9346 117.316 30.092C116.076 30.1846 114.678 30.1846 113.429 30.092C111.43 29.9438 109.486 29.5828 107.709 28.5829C105.646 27.4256 104.461 25.6757 104.239 23.2963C104.165 22.5371 104.174 21.9631 104.174 21.1762H110.921C110.921 21.4354 110.921 21.4724 110.921 21.7131C110.939 23.1945 111.495 23.9814 112.929 24.324C114.484 24.7036 116.27 24.7036 117.825 24.324C119.297 23.9629 119.843 23.0741 119.87 21.7039C119.87 21.4817 119.833 21.2595 119.787 21.0188C119.648 20.4077 119.204 20.0281 118.667 19.7411C117.834 19.2967 116.409 19.1115 115.493 18.9264C113.744 18.5653 111.994 18.2412 110.264 17.8246C109.014 17.5283 107.848 17.0284 106.802 16.26C106.654 16.1488 106.515 16.0377 106.377 15.9174C105.525 15.1582 104.914 14.2138 104.59 13.0751C104.304 12.0844 104.174 11.1123 104.192 10.0939C104.192 9.66798 104.202 9.26061 104.248 8.77917C104.479 6.39977 105.655 4.64993 107.719 3.49263C109.496 2.49273 111.448 2.14091 113.438 1.98352C114.678 1.89093 116.076 1.89093 117.325 1.98352C119.324 2.13165 121.268 2.49273 123.045 3.49263C125.109 4.64993 126.293 6.39977 126.515 8.77917C126.59 9.53836 126.58 10.1124 126.58 10.8993H119.833C119.833 10.6401 119.833 10.6031 119.833 10.3624C119.815 8.88101 119.25 8.10331 117.825 7.75149C116.261 7.3719 114.493 7.3719 112.929 7.75149C111.874 8.01073 111.291 8.51068 111.06 9.35319C110.939 9.78834 110.949 10.3161 111.06 10.8253C111.199 11.4363 111.643 11.8159 112.18 12.1029C113.012 12.5473 114.354 12.7325 115.261 12.9177C117.011 13.2787 118.76 13.6028 120.491 14.0194C121.74 14.3157 122.906 14.8249 123.952 15.5841C124.1 15.6952 124.239 15.8063 124.378 15.9266C125.229 16.6858 125.84 17.6302 126.164 18.769ZM137.381 21.0651L141.222 11.4086L145.062 21.0651H137.372H137.381ZM148.561 29.842H155.882L144.905 2.25201H137.566L126.59 29.842H133.91L135.41 26.0831H147.089L148.589 29.842H148.561ZM94.6876 19.7133V2.24275H101.583V17.7691C101.583 20.8429 101.231 23.9814 99.2781 26.472C98.5562 27.3885 97.7048 28.194 96.7052 28.7773C95.1134 29.6939 92.2443 30.1383 90.3748 30.1383C88.5053 30.1383 85.6363 29.6939 84.0444 28.7773C83.0356 28.194 82.1842 27.3885 81.4715 26.472C79.5187 23.9814 79.167 20.8521 79.167 17.7691V2.24275H86.062V19.7041C86.062 22.3427 87.5983 24.4444 90.3748 24.4444C93.1513 24.4444 94.6876 22.3335 94.6876 19.7041V19.7133ZM180 2.24275V29.8327H173.105C172.79 29.2865 164.581 14.4268 164.489 14.2694V29.8327H157.594V2.24275H164.489C164.489 2.24275 172.772 17.2321 173.105 17.8061V2.24275H180Z" fill="#FF6700"/>
</svg>
