<svg width="429" height="407" viewBox="0 0 429 407" fill="none" xmlns="http://www.w3.org/2000/svg">
<path d="M426.038 257.007L175.114 401.873C173.82 402.619 172.221 402.619 170.942 401.873L44.9096 328.641C42.1386 327.027 42.1386 323.023 44.9096 321.424L295.833 176.558C297.127 175.812 298.726 175.812 300.005 176.558L426.038 249.79C428.809 251.404 428.809 255.408 426.038 257.007Z" fill="#F7F8FC"/>
<path d="M428.124 253.399C428.124 254.799 427.423 256.2 426.038 256.992L175.114 401.858C173.82 402.604 172.221 402.604 170.942 401.858L44.9097 328.625C43.7222 327.94 43.0827 326.798 42.9152 325.611H42.8848V329.432C42.8848 329.585 42.8848 329.737 42.8848 329.889V330.178H42.9152C43.0675 331.381 43.7222 332.523 44.9097 333.208L170.942 406.44C172.237 407.186 173.82 407.186 175.114 406.44L426.038 261.574C427.21 260.904 427.849 259.808 428.032 258.651L428.124 258.605V253.383V253.399Z" fill="#CCCCCC"/>
<path d="M339.453 294.856L252.168 345.251C250.234 346.362 247.844 346.362 245.91 345.251L218.703 329.539C214.531 327.133 214.531 321.119 218.703 318.714L305.988 268.319C307.922 267.207 310.312 267.207 312.246 268.319L339.453 284.031C343.624 286.437 343.624 292.451 339.453 294.856Z" fill="#F4F4F4"/>
<g style="mix-blend-mode:multiply">
<path d="M218.703 321.119L305.988 270.724C307.922 269.613 310.312 269.613 312.246 270.724L339.453 286.437C341.143 287.411 342.132 288.979 342.452 290.654C342.924 288.188 341.935 285.478 339.453 284.031L312.246 268.319C310.312 267.207 307.922 267.207 305.988 268.319L218.703 318.714C216.222 320.145 215.232 322.855 215.704 325.337C216.024 323.662 217.013 322.094 218.703 321.119Z" fill="#777777"/>
</g>
<path d="M352.227 230.759L132.865 357.172C131.388 358.025 129.561 358.025 128.084 357.172L72.741 325.428C69.5285 323.586 69.5285 318.957 72.741 317.115L292.103 190.702C293.58 189.849 295.407 189.849 296.884 190.702L352.227 222.446C355.439 224.288 355.439 228.917 352.227 230.759Z" fill="#EBEBEB"/>
<path d="M72.7257 321.88L292.088 195.467C293.565 194.615 295.392 194.615 296.868 195.467L352.211 227.211C353.003 227.668 353.582 228.277 353.993 228.993C355.226 226.815 354.647 223.831 352.211 222.446L296.868 190.702C295.392 189.849 293.565 189.849 292.088 190.702L72.7257 317.115C70.3049 318.516 69.7263 321.485 70.9596 323.662C71.3554 322.961 71.9492 322.337 72.7257 321.896V321.88Z" fill="#CCCCCC"/>
<path d="M95.076 315.684L286.287 205.287C287.383 204.648 288.738 204.648 289.819 205.287L293.808 207.586C296.168 208.941 296.168 212.352 293.808 213.722L102.597 324.119C101.501 324.758 100.146 324.758 99.065 324.119L95.076 321.82C92.7161 320.465 92.7161 317.054 95.076 315.684Z" fill="url(#paint0_linear_1_1372)"/>
<path d="M114.549 326.92L305.76 216.524C306.856 215.884 308.211 215.884 309.292 216.524L313.281 218.823C315.641 220.178 315.641 223.588 313.281 224.958L122.07 335.355C120.974 335.994 119.619 335.994 118.538 335.355L114.549 333.056C112.189 331.701 112.189 328.29 114.549 326.92Z" fill="url(#paint1_linear_1_1372)"/>
<path d="M134.006 338.156L325.217 227.76C326.314 227.12 327.669 227.12 328.75 227.76L332.738 230.059C335.098 231.414 335.098 234.824 332.738 236.194L141.527 346.591C140.431 347.23 139.076 347.23 137.995 346.591L134.006 344.292C131.646 342.937 131.646 339.526 134.006 338.156Z" fill="url(#paint2_linear_1_1372)"/>
<path d="M295.331 176.847L43.6917 322.124C41.2252 323.54 38.1041 322.14 37.5255 319.353L3.01039 151.741C2.64499 149.975 3.45192 148.194 5.00487 147.295L256.644 2.0183C259.11 0.602375 262.232 2.00308 262.81 4.78926L297.341 172.402C297.706 174.168 296.899 175.949 295.346 176.847H295.331Z" fill="white"/>
<path d="M289.119 174.807L253.827 195.178L199.124 226.77L186.502 234.048L96.2483 286.163L75.3747 298.221L48.4874 313.735C45.3358 315.563 41.3316 313.766 40.6008 310.203L38.1952 298.541L8.6587 155.03C8.20195 152.777 9.22202 150.478 11.2165 149.336L38.2105 133.76L75.39 112.293L96.2635 100.235L186.517 48.135L199.139 40.8574L251.848 10.4226C252.487 10.0572 253.157 9.82882 253.842 9.75269C256.492 9.41774 259.141 11.1229 259.735 13.97L291.692 169.128C292.149 171.382 291.113 173.681 289.134 174.822L289.119 174.807Z" fill="#DBDBDB"/>
<path d="M40.2659 322.429L40.4182 322.505V322.475C40.4182 322.475 40.3116 322.444 40.2659 322.429ZM261.105 2.21615C261.105 2.21615 261.166 2.2466 261.196 2.26183L261.105 2.21615ZM257.938 0.587075C256.705 -0.143726 255.106 -0.235076 253.736 0.556625L2.08158 145.834C0.52863 146.732 -0.278296 148.529 0.0871046 150.279L34.6175 317.892C34.9372 319.445 36.0638 320.541 37.4189 320.982V321.028L39.2611 321.942C38.4085 321.363 37.7538 320.48 37.5254 319.353L3.01031 151.741C2.64491 149.975 3.45183 148.194 5.00479 147.295L256.644 2.01823C257.786 1.36355 259.065 1.3331 260.176 1.74418L257.938 0.587075Z" fill="#B5B5B5"/>
<path d="M75.39 112.278V298.206L48.5026 313.72C45.3511 315.547 41.3469 313.751 40.6161 310.188L38.2105 298.526V133.745L75.39 112.278Z" fill="url(#paint3_linear_1_1372)"/>
<path d="M253.827 9.7373V195.163L199.124 226.755V40.842L251.833 10.4072C252.472 10.0418 253.142 9.81343 253.827 9.7373Z" fill="url(#paint4_linear_1_1372)"/>
<path d="M186.517 48.1348V234.032L96.2635 286.148V100.235L186.517 48.1348Z" fill="url(#paint5_linear_1_1372)"/>
<path d="M141.19 276.264L226.305 220.648L307.551 276.264L226.305 328.493L141.19 276.264Z" fill="#858080" fill-opacity="0.2"/>
<path d="M224.038 205.769V295.904L154.853 255.644V164.908L224.038 205.769Z" fill="white"/>
<path d="M224.038 205.769V295.904L154.853 255.644V164.908L224.038 205.769Z" fill="url(#paint6_linear_1_1372)" fill-opacity="0.2"/>
<path d="M224.038 205.769V228.967L154.853 188.707V164.908L224.038 205.769Z" fill="#FFB199"/>
<path d="M224.038 205.769V228.967L154.853 188.707V164.908L224.038 205.769Z" fill="url(#paint7_linear_1_1372)" fill-opacity="0.75"/>
<path d="M224.038 205.769V295.904L293.222 255.644V164.908L224.038 205.769Z" fill="white"/>
<path d="M224.038 205.769V295.904L293.222 255.644V164.908L224.038 205.769Z" fill="url(#paint8_linear_1_1372)" fill-opacity="0.6"/>
<path d="M224.038 205.769V228.967L293.222 188.707V164.908L224.038 205.769Z" fill="#FF835E"/>
<path d="M224.038 205.769V228.967L293.222 188.707V164.908L224.038 205.769Z" fill="url(#paint9_linear_1_1372)" fill-opacity="0.75"/>
<path d="M154.853 164.983L224.038 205.922L293.222 164.983L223.436 125.249L154.853 164.983Z" fill="#FF835E"/>
<path d="M154.853 164.983L224.038 205.922L293.222 164.983L223.436 125.249L154.853 164.983Z" fill="url(#paint10_linear_1_1372)" fill-opacity="0.75"/>
<path d="M253.229 188.727V279.644L265.919 272.714V181.184L253.229 188.727Z" fill="#CACDCF"/>
<path d="M195.255 188.915V279.833L182.958 273.092V181.562L195.255 188.915Z" fill="#ECEDEE"/>
<path d="M183.336 147.888L253.307 188.727L265.919 181.184L195.79 140.55L183.336 147.888Z" fill="#ECEDEE"/>
<path d="M264.581 148.296L195.176 188.915L182.958 181.561L252.504 141.163L264.581 148.296Z" fill="#ECEDEE"/>
<defs>
<linearGradient id="paint0_linear_1_1372" x1="194.442" y1="204.808" x2="194.442" y2="324.598" gradientUnits="userSpaceOnUse">
<stop stop-color="#FF9043"/>
<stop offset="1" stop-color="#FFBB8B"/>
</linearGradient>
<linearGradient id="paint1_linear_1_1372" x1="213.915" y1="216.044" x2="213.915" y2="335.834" gradientUnits="userSpaceOnUse">
<stop stop-color="#FF9043"/>
<stop offset="1" stop-color="#FFBB8B"/>
</linearGradient>
<linearGradient id="paint2_linear_1_1372" x1="233.372" y1="227.28" x2="233.372" y2="347.07" gradientUnits="userSpaceOnUse">
<stop stop-color="#FF9043"/>
<stop offset="1" stop-color="#FFBB8B"/>
</linearGradient>
<linearGradient id="paint3_linear_1_1372" x1="-56.6566" y1="-55.4715" x2="60.2259" y2="216.554" gradientUnits="userSpaceOnUse">
<stop stop-color="white"/>
<stop offset="0.11" stop-color="white" stop-opacity="0.91"/>
<stop offset="0.35" stop-color="white" stop-opacity="0.69"/>
<stop offset="0.7" stop-color="white" stop-opacity="0.34"/>
<stop offset="1" stop-color="white" stop-opacity="0"/>
</linearGradient>
<linearGradient id="paint4_linear_1_1372" x1="119.344" y1="-131.094" x2="236.227" y2="140.947" gradientUnits="userSpaceOnUse">
<stop stop-color="white"/>
<stop offset="0.11" stop-color="white" stop-opacity="0.91"/>
<stop offset="0.35" stop-color="white" stop-opacity="0.69"/>
<stop offset="0.7" stop-color="white" stop-opacity="0.34"/>
<stop offset="1" stop-color="white" stop-opacity="0"/>
</linearGradient>
<linearGradient id="paint5_linear_1_1372" x1="29.7758" y1="-92.6206" x2="146.658" y2="179.42" gradientUnits="userSpaceOnUse">
<stop stop-color="white"/>
<stop offset="0.11" stop-color="white" stop-opacity="0.91"/>
<stop offset="0.35" stop-color="white" stop-opacity="0.69"/>
<stop offset="0.7" stop-color="white" stop-opacity="0.34"/>
<stop offset="1" stop-color="white" stop-opacity="0"/>
</linearGradient>
<linearGradient id="paint6_linear_1_1372" x1="239.354" y1="305.456" x2="159.245" y2="306.418" gradientUnits="userSpaceOnUse">
<stop stop-color="#BDC6CB" stop-opacity="0.36"/>
<stop offset="1" stop-color="#B7BEC8"/>
</linearGradient>
<linearGradient id="paint7_linear_1_1372" x1="189.445" y1="220.529" x2="197.8" y2="174.498" gradientUnits="userSpaceOnUse">
<stop stop-color="#FF4810"/>
<stop offset="1" stop-color="#FFB950"/>
</linearGradient>
<linearGradient id="paint8_linear_1_1372" x1="119.712" y1="180.648" x2="289.062" y2="170.112" gradientUnits="userSpaceOnUse">
<stop stop-color="#CCD1D3" stop-opacity="0.36"/>
<stop offset="1" stop-color="#C3C6CA"/>
</linearGradient>
<linearGradient id="paint9_linear_1_1372" x1="225.966" y1="228.967" x2="238.861" y2="172.138" gradientUnits="userSpaceOnUse">
<stop stop-color="#FF4810"/>
<stop offset="1" stop-color="#FFB950"/>
</linearGradient>
<linearGradient id="paint10_linear_1_1372" x1="289.365" y1="205.922" x2="278.828" y2="132.175" gradientUnits="userSpaceOnUse">
<stop stop-color="#FF4810"/>
<stop offset="1" stop-color="#FFB950"/>
</linearGradient>
</defs>
</svg>
