<svg width="240" height="192" viewBox="0 0 240 192" fill="none" xmlns="http://www.w3.org/2000/svg">
<g filter="url(#filter0_d_7790_101890)">
<path d="M27.3975 107.875C19.7479 103.461 15.9489 97.6679 16.0005 91.8837C16.0514 86.1771 19.8504 80.4795 27.3975 76.1254L53.6268 60.9931L92.484 38.5755C107.681 29.8082 132.319 29.8082 147.516 38.5755L194.286 65.558L212.602 76.1254C220.15 80.4795 223.949 86.1771 223.999 91.8837C224.051 97.6679 220.252 103.461 212.602 107.875L147.516 145.425C132.319 154.192 107.681 154.192 92.484 145.425L27.3975 107.875Z" fill="#C4C4C4"/>
<path d="M27.3975 107.875C19.7479 103.461 15.9489 97.6679 16.0005 91.8837C16.0514 86.1771 19.8504 80.4795 27.3975 76.1254L53.6268 60.9931L92.484 38.5755C107.681 29.8082 132.319 29.8082 147.516 38.5755L194.286 65.558L212.602 76.1254C220.15 80.4795 223.949 86.1771 223.999 91.8837C224.051 97.6679 220.252 103.461 212.602 107.875L147.516 145.425C132.319 154.192 107.681 154.192 92.484 145.425L27.3975 107.875Z" fill="white"/>
<path d="M27.3975 107.875C19.7479 103.461 15.9489 97.6679 16.0005 91.8837C16.0514 86.1771 19.8504 80.4795 27.3975 76.1254L53.6268 60.9931L92.484 38.5755C107.681 29.8082 132.319 29.8082 147.516 38.5755L194.286 65.558L212.602 76.1254C220.15 80.4795 223.949 86.1771 223.999 91.8837C224.051 97.6679 220.252 103.461 212.602 107.875L147.516 145.425C132.319 154.192 107.681 154.192 92.484 145.425L27.3975 107.875Z" fill="url(#paint0_linear_7790_101890)" fill-opacity="0.4"/>
<path d="M16.0005 91.8837C16.0514 86.1771 19.8504 80.4795 27.3975 76.1254L53.6268 60.9931L16.0005 73.8815V91.8837Z" fill="#C4C4C4"/>
<path d="M16.0005 91.8837C16.0514 86.1771 19.8504 80.4795 27.3975 76.1254L53.6268 60.9931L16.0005 73.8815V91.8837Z" fill="white"/>
<path d="M16.0005 91.8837C16.0514 86.1771 19.8504 80.4795 27.3975 76.1254L53.6268 60.9931L16.0005 73.8815V91.8837Z" fill="url(#paint1_linear_7790_101890)" fill-opacity="0.4"/>
<path d="M212.602 76.1254C220.15 80.4795 223.949 86.1771 223.999 91.8837V73.8815L194.286 65.558L212.602 76.1254Z" fill="#C4C4C4"/>
<path d="M212.602 76.1254C220.15 80.4795 223.949 86.1771 223.999 91.8837V73.8815L194.286 65.558L212.602 76.1254Z" fill="white"/>
<path d="M212.602 76.1254C220.15 80.4795 223.949 86.1771 223.999 91.8837V73.8815L194.286 65.558L212.602 76.1254Z" fill="url(#paint2_linear_7790_101890)" fill-opacity="0.4"/>
</g>
<g filter="url(#filter1_i_7790_101890)">
<path d="M27.3975 89.8749C12.2008 81.1076 12.2008 66.8929 27.3975 58.1256L92.484 20.5757C107.681 11.8084 132.319 11.8084 147.516 20.5757L212.602 58.1256C227.799 66.8929 227.799 81.1076 212.602 89.8749L147.516 127.425C132.319 136.192 107.681 136.192 92.484 127.425L27.3975 89.8749Z" fill="#C4C4C4"/>
<path d="M27.3975 89.8749C12.2008 81.1076 12.2008 66.8929 27.3975 58.1256L92.484 20.5757C107.681 11.8084 132.319 11.8084 147.516 20.5757L212.602 58.1256C227.799 66.8929 227.799 81.1076 212.602 89.8749L147.516 127.425C132.319 136.192 107.681 136.192 92.484 127.425L27.3975 89.8749Z" fill="white"/>
<path d="M27.3975 89.8749C12.2008 81.1076 12.2008 66.8929 27.3975 58.1256L92.484 20.5757C107.681 11.8084 132.319 11.8084 147.516 20.5757L212.602 58.1256C227.799 66.8929 227.799 81.1076 212.602 89.8749L147.516 127.425C132.319 136.192 107.681 136.192 92.484 127.425L27.3975 89.8749Z" fill="url(#paint3_linear_7790_101890)" fill-opacity="0.15"/>
</g>
<g opacity="0.04" filter="url(#filter2_f_7790_101890)">
<rect width="106.137" height="55.9298" rx="27.9649" transform="matrix(0.866025 -0.5 0.866025 0.5 50 86.0002)" fill="black"/>
</g>
<path d="M135.766 8.95123L135.715 37.6579L104.909 55.5597L104.953 26.8594L135.766 8.95123Z" fill="white"/>
<path d="M135.766 8.95123L135.715 37.6579L104.909 55.5597L104.953 26.8594L135.766 8.95123Z" fill="url(#paint4_linear_7790_101890)" fill-opacity="0.6"/>
<path d="M135.766 18.9512L135.715 27.6578L104.909 45.5597L104.953 36.8594L135.766 18.9512Z" fill="#C4C4C4"/>
<path d="M135.766 18.9512L135.715 27.6578L104.909 45.5597L104.953 36.8594L135.766 18.9512Z" fill="#FF835E"/>
<path d="M135.766 18.9512L135.715 27.6578L104.909 45.5597L104.953 36.8594L135.766 18.9512Z" fill="url(#paint5_linear_7790_101890)" fill-opacity="0.75"/>
<path d="M105.061 44.7611L105.017 73.4678L74 55.5596L74.0445 26.8593L105.061 44.7611Z" fill="white"/>
<path d="M105.061 44.7611L105.017 73.4678L74 55.5596L74.0445 26.8593L105.061 44.7611Z" fill="url(#paint6_linear_7790_101890)" fill-opacity="0.2"/>
<path d="M105.061 54.7612L105.017 63.4679L74 45.5597L74.0445 36.8594L105.061 54.7612Z" fill="#FFB199"/>
<path d="M105.061 54.7612L105.017 63.4679L74 45.5597L74.0445 36.8594L105.061 54.7612Z" fill="url(#paint7_linear_7790_101890)" fill-opacity="0.2"/>
<path d="M89.7532 71.6203L89.7023 100.327L74.2035 91.376L74.248 62.6694L89.7532 71.6203Z" fill="white"/>
<path d="M89.7532 71.6203L89.7023 100.327L74.2035 91.376L74.248 62.6694L89.7532 71.6203Z" fill="url(#paint8_linear_7790_101890)" fill-opacity="0.2"/>
<path d="M89.7532 81.6203L89.7023 90.327L74.2035 81.3761L74.248 72.6694L89.7532 81.6203Z" fill="#FFB199"/>
<path d="M89.7532 81.6203L89.7023 90.327L74.2035 81.3761L74.248 72.6694L89.7532 81.6203Z" fill="url(#paint9_linear_7790_101890)" fill-opacity="0.2"/>
<path d="M166.777 26.8593L166.732 55.5596L89.7023 100.327L89.7531 71.6202L166.777 26.8593Z" fill="white"/>
<path d="M166.777 26.8593L166.732 55.5596L89.7023 100.327L89.7531 71.6202L166.777 26.8593Z" fill="url(#paint10_linear_7790_101890)" fill-opacity="0.6"/>
<path d="M166.777 36.8594L166.732 45.5597L89.7023 90.327L89.7531 81.6203L166.777 36.8594Z" fill="#C4C4C4"/>
<path d="M166.777 36.8594L166.732 45.5597L89.7023 90.327L89.7531 81.6203L166.777 36.8594Z" fill="#FF835E"/>
<path d="M166.777 36.8594L166.732 45.5597L89.7023 90.327L89.7531 81.6203L166.777 36.8594Z" fill="url(#paint11_linear_7790_101890)" fill-opacity="0.75"/>
<g filter="url(#filter3_i_7790_101890)">
<path d="M166.777 26.8593L89.7531 71.6202L74.248 62.6693L105.061 44.7612L74.0446 26.8593L120.261 0.000244141L135.766 8.95115L104.953 26.8593L120.465 35.8102L151.278 17.9084L166.777 26.8593Z" fill="white"/>
<path d="M166.777 26.8593L89.7531 71.6202L74.248 62.6693L105.061 44.7612L74.0446 26.8593L120.261 0.000244141L135.766 8.95115L104.953 26.8593L120.465 35.8102L151.278 17.9084L166.777 26.8593Z" fill="url(#paint12_linear_7790_101890)" fill-opacity="0.6"/>
</g>
<defs>
<filter id="filter0_d_7790_101890" x="0" y="32" width="240" height="160" filterUnits="userSpaceOnUse" color-interpolation-filters="sRGB">
<feFlood flood-opacity="0" result="BackgroundImageFix"/>
<feColorMatrix in="SourceAlpha" type="matrix" values="0 0 0 0 0 0 0 0 0 0 0 0 0 0 0 0 0 0 127 0" result="hardAlpha"/>
<feOffset dy="24"/>
<feGaussianBlur stdDeviation="8"/>
<feComposite in2="hardAlpha" operator="out"/>
<feColorMatrix type="matrix" values="0 0 0 0 0.765278 0 0 0 0 0.775833 0 0 0 0 0.791667 0 0 0 0.12 0"/>
<feBlend mode="normal" in2="BackgroundImageFix" result="effect1_dropShadow_7790_101890"/>
<feBlend mode="normal" in="SourceGraphic" in2="effect1_dropShadow_7790_101890" result="shape"/>
</filter>
<filter id="filter1_i_7790_101890" x="16" y="14.0002" width="208" height="120" filterUnits="userSpaceOnUse" color-interpolation-filters="sRGB">
<feFlood flood-opacity="0" result="BackgroundImageFix"/>
<feBlend mode="normal" in="SourceGraphic" in2="BackgroundImageFix" result="shape"/>
<feColorMatrix in="SourceAlpha" type="matrix" values="0 0 0 0 0 0 0 0 0 0 0 0 0 0 0 0 0 0 127 0" result="hardAlpha"/>
<feOffset dy="-2"/>
<feComposite in2="hardAlpha" operator="arithmetic" k2="-1" k3="1"/>
<feColorMatrix type="matrix" values="0 0 0 0 1 0 0 0 0 1 0 0 0 0 1 0 0 0 1 0"/>
<feBlend mode="normal" in2="shape" result="effect1_innerShadow_7790_101890"/>
</filter>
<filter id="filter2_f_7790_101890" x="43.2752" y="20.2107" width="153.804" height="106.475" filterUnits="userSpaceOnUse" color-interpolation-filters="sRGB">
<feFlood flood-opacity="0" result="BackgroundImageFix"/>
<feBlend mode="normal" in="SourceGraphic" in2="BackgroundImageFix" result="shape"/>
<feGaussianBlur stdDeviation="10.4558" result="effect1_foregroundBlur_7790_101890"/>
</filter>
<filter id="filter3_i_7790_101890" x="74.0446" y="0.000244141" width="92.7323" height="71.62" filterUnits="userSpaceOnUse" color-interpolation-filters="sRGB">
<feFlood flood-opacity="0" result="BackgroundImageFix"/>
<feBlend mode="normal" in="SourceGraphic" in2="BackgroundImageFix" result="shape"/>
<feColorMatrix in="SourceAlpha" type="matrix" values="0 0 0 0 0 0 0 0 0 0 0 0 0 0 0 0 0 0 127 0" result="hardAlpha"/>
<feOffset dy="-2"/>
<feComposite in2="hardAlpha" operator="arithmetic" k2="-1" k3="1"/>
<feColorMatrix type="matrix" values="0 0 0 0 1 0 0 0 0 1 0 0 0 0 1 0 0 0 0.6 0"/>
<feBlend mode="normal" in2="shape" result="effect1_innerShadow_7790_101890"/>
</filter>
<linearGradient id="paint0_linear_7790_101890" x1="72.6318" y1="135.753" x2="113.601" y2="180.2" gradientUnits="userSpaceOnUse">
<stop stop-color="#CCD1D3" stop-opacity="0.36"/>
<stop offset="1" stop-color="#C3C6CA"/>
</linearGradient>
<linearGradient id="paint1_linear_7790_101890" x1="72.6318" y1="135.753" x2="113.601" y2="180.2" gradientUnits="userSpaceOnUse">
<stop stop-color="#CCD1D3" stop-opacity="0.36"/>
<stop offset="1" stop-color="#C3C6CA"/>
</linearGradient>
<linearGradient id="paint2_linear_7790_101890" x1="72.6318" y1="135.753" x2="113.601" y2="180.2" gradientUnits="userSpaceOnUse">
<stop stop-color="#CCD1D3" stop-opacity="0.36"/>
<stop offset="1" stop-color="#C3C6CA"/>
</linearGradient>
<linearGradient id="paint3_linear_7790_101890" x1="16.9052" y1="57.6613" x2="182.617" y2="-37.16" gradientUnits="userSpaceOnUse">
<stop stop-color="#BDC6CB" stop-opacity="0.36"/>
<stop offset="1" stop-color="#B7BEC8"/>
</linearGradient>
<linearGradient id="paint4_linear_7790_101890" x1="182.298" y1="14.5517" x2="106.93" y2="8.67344" gradientUnits="userSpaceOnUse">
<stop stop-color="#CCD1D3" stop-opacity="0.36"/>
<stop offset="1" stop-color="#C3C6CA"/>
</linearGradient>
<linearGradient id="paint5_linear_7790_101890" x1="134.906" y1="43.4116" x2="130.635" y2="21.4244" gradientUnits="userSpaceOnUse">
<stop stop-color="#FF4810"/>
<stop offset="1" stop-color="#FFB950"/>
</linearGradient>
<linearGradient id="paint6_linear_7790_101890" x1="111.938" y1="76.8664" x2="75.9747" y2="77.4116" gradientUnits="userSpaceOnUse">
<stop stop-color="#BDC6CB" stop-opacity="0.36"/>
<stop offset="1" stop-color="#B7BEC8"/>
</linearGradient>
<linearGradient id="paint7_linear_7790_101890" x1="89.5306" y1="59.9627" x2="92.7562" y2="40.7544" gradientUnits="userSpaceOnUse">
<stop stop-color="#FF4810"/>
<stop offset="1" stop-color="#FFB950"/>
</linearGradient>
<linearGradient id="paint8_linear_7790_101890" x1="93.1956" y1="103.073" x2="75.1895" y2="103.242" gradientUnits="userSpaceOnUse">
<stop stop-color="#BDC6CB" stop-opacity="0.36"/>
<stop offset="1" stop-color="#B7BEC8"/>
</linearGradient>
<linearGradient id="paint9_linear_7790_101890" x1="81.9783" y1="88.001" x2="84.7581" y2="75.5135" gradientUnits="userSpaceOnUse">
<stop stop-color="#FF4810"/>
<stop offset="1" stop-color="#FFB950"/>
</linearGradient>
<linearGradient id="paint10_linear_7790_101890" x1="283" y1="35.6871" x2="96.456" y2="12.6325" gradientUnits="userSpaceOnUse">
<stop stop-color="#CCD1D3" stop-opacity="0.36"/>
<stop offset="1" stop-color="#C3C6CA"/>
</linearGradient>
<linearGradient id="paint11_linear_7790_101890" x1="164.628" y1="86.0106" x2="157.634" y2="41.255" gradientUnits="userSpaceOnUse">
<stop stop-color="#FF4810"/>
<stop offset="1" stop-color="#FFB950"/>
</linearGradient>
<linearGradient id="paint12_linear_7790_101890" x1="306.611" y1="8.60603" x2="83.9232" y2="-25.3607" gradientUnits="userSpaceOnUse">
<stop stop-color="#CCD1D3" stop-opacity="0.36"/>
<stop offset="1" stop-color="#C3C6CA"/>
</linearGradient>
</defs>
</svg>
