<svg width="240" height="192" viewBox="0 0 240 192" fill="none" xmlns="http://www.w3.org/2000/svg">
<g filter="url(#filter0_d_7790_101945)">
<path d="M27.3975 107.875C19.7479 103.461 15.9489 97.6679 16.0005 91.8837C16.0514 86.1771 19.8504 80.4795 27.3975 76.1254L53.6268 60.9931L92.484 38.5755C107.681 29.8082 132.319 29.8082 147.516 38.5755L194.286 65.558L212.602 76.1254C220.15 80.4795 223.949 86.1771 223.999 91.8837C224.051 97.6679 220.252 103.461 212.602 107.875L147.516 145.425C132.319 154.192 107.681 154.192 92.484 145.425L27.3975 107.875Z" fill="#C4C4C4"/>
<path d="M27.3975 107.875C19.7479 103.461 15.9489 97.6679 16.0005 91.8837C16.0514 86.1771 19.8504 80.4795 27.3975 76.1254L53.6268 60.9931L92.484 38.5755C107.681 29.8082 132.319 29.8082 147.516 38.5755L194.286 65.558L212.602 76.1254C220.15 80.4795 223.949 86.1771 223.999 91.8837C224.051 97.6679 220.252 103.461 212.602 107.875L147.516 145.425C132.319 154.192 107.681 154.192 92.484 145.425L27.3975 107.875Z" fill="white"/>
<path d="M27.3975 107.875C19.7479 103.461 15.9489 97.6679 16.0005 91.8837C16.0514 86.1771 19.8504 80.4795 27.3975 76.1254L53.6268 60.9931L92.484 38.5755C107.681 29.8082 132.319 29.8082 147.516 38.5755L194.286 65.558L212.602 76.1254C220.15 80.4795 223.949 86.1771 223.999 91.8837C224.051 97.6679 220.252 103.461 212.602 107.875L147.516 145.425C132.319 154.192 107.681 154.192 92.484 145.425L27.3975 107.875Z" fill="url(#paint0_linear_7790_101945)" fill-opacity="0.4"/>
<path d="M16.0005 91.8837C16.0514 86.1771 19.8504 80.4795 27.3975 76.1254L53.6268 60.9931L16.0005 73.8815V91.8837Z" fill="#C4C4C4"/>
<path d="M16.0005 91.8837C16.0514 86.1771 19.8504 80.4795 27.3975 76.1254L53.6268 60.9931L16.0005 73.8815V91.8837Z" fill="white"/>
<path d="M16.0005 91.8837C16.0514 86.1771 19.8504 80.4795 27.3975 76.1254L53.6268 60.9931L16.0005 73.8815V91.8837Z" fill="url(#paint1_linear_7790_101945)" fill-opacity="0.4"/>
<path d="M212.602 76.1254C220.15 80.4795 223.949 86.1771 223.999 91.8837V73.8815L194.286 65.558L212.602 76.1254Z" fill="#C4C4C4"/>
<path d="M212.602 76.1254C220.15 80.4795 223.949 86.1771 223.999 91.8837V73.8815L194.286 65.558L212.602 76.1254Z" fill="white"/>
<path d="M212.602 76.1254C220.15 80.4795 223.949 86.1771 223.999 91.8837V73.8815L194.286 65.558L212.602 76.1254Z" fill="url(#paint2_linear_7790_101945)" fill-opacity="0.4"/>
</g>
<g filter="url(#filter1_i_7790_101945)">
<path d="M31.3975 89.8749C16.2008 81.1076 16.2008 66.8929 31.3975 58.1256L96.484 20.5757C111.681 11.8084 136.319 11.8084 151.516 20.5757L216.602 58.1256C231.799 66.8929 231.799 81.1076 216.602 89.8749L151.516 127.425C136.319 136.192 111.681 136.192 96.484 127.425L31.3975 89.8749Z" fill="#C4C4C4"/>
<path d="M31.3975 89.8749C16.2008 81.1076 16.2008 66.8929 31.3975 58.1256L96.484 20.5757C111.681 11.8084 136.319 11.8084 151.516 20.5757L216.602 58.1256C231.799 66.8929 231.799 81.1076 216.602 89.8749L151.516 127.425C136.319 136.192 111.681 136.192 96.484 127.425L31.3975 89.8749Z" fill="white"/>
<path d="M31.3975 89.8749C16.2008 81.1076 16.2008 66.8929 31.3975 58.1256L96.484 20.5757C111.681 11.8084 136.319 11.8084 151.516 20.5757L216.602 58.1256C231.799 66.8929 231.799 81.1076 216.602 89.8749L151.516 127.425C136.319 136.192 111.681 136.192 96.484 127.425L31.3975 89.8749Z" fill="url(#paint3_linear_7790_101945)" fill-opacity="0.15"/>
</g>
<g opacity="0.04" filter="url(#filter2_f_7790_101945)">
<rect width="106.137" height="55.9298" rx="27.9649" transform="matrix(0.866025 -0.5 0.866025 0.5 54 86.0002)" fill="black"/>
</g>
<path d="M146.143 17.4305L146.094 47.697L131.003 38.9819L131.047 8.71533L146.143 17.4305Z" fill="white"/>
<path d="M146.143 17.4305L146.094 47.697L131.003 38.9819L131.047 8.71533L146.143 17.4305Z" fill="url(#paint4_linear_7790_101945)" fill-opacity="0.2"/>
<path d="M146.143 27.4305L146.094 37.697L131.003 28.9819L131.047 18.7153L146.143 27.4305Z" fill="#FFB199"/>
<path d="M146.143 27.4305L146.094 37.697L131.003 28.9819L131.047 18.7153L146.143 27.4305Z" fill="url(#paint5_linear_7790_101945)" fill-opacity="0.2"/>
<path d="M176.244 17.4368L176.194 47.6972L116.191 82.57L116.241 52.3035L176.244 17.4368Z" fill="white"/>
<path d="M176.244 17.4368L176.194 47.6972L116.191 82.57L116.241 52.3035L176.244 17.4368Z" fill="url(#paint6_linear_7790_101945)" fill-opacity="0.6"/>
<path d="M176.244 27.4368L176.194 37.6972L116.191 72.57L116.241 62.3035L176.244 27.4368Z" fill="#C4C4C4"/>
<path d="M176.244 27.4368L176.194 37.6972L116.191 72.57L116.241 62.3035L176.244 27.4368Z" fill="#FF835E"/>
<path d="M176.244 27.4368L176.194 37.6972L116.191 72.57L116.241 62.3035L176.244 27.4368Z" fill="url(#paint7_linear_7790_101945)" fill-opacity="0.75"/>
<path d="M116.34 69.7335L116.29 100L71 73.8485L71.0433 43.5819L116.34 69.7335Z" fill="white"/>
<path d="M116.34 69.7335L116.29 100L71 73.8485L71.0433 43.5819L116.34 69.7335Z" fill="url(#paint8_linear_7790_101945)" fill-opacity="0.2"/>
<path d="M116.34 79.7333L116.29 89.9999L71 63.8484L71.0433 53.5818L116.34 79.7333Z" fill="#FFB199"/>
<path d="M116.34 79.7333L116.29 89.9999L71 63.8484L71.0433 53.5818L116.34 79.7333Z" fill="url(#paint9_linear_7790_101945)" fill-opacity="0.2"/>
<path d="M131.337 61.0186L131.288 91.2851L116.29 100L116.34 69.7337L131.337 61.0186Z" fill="white"/>
<path d="M131.337 61.0186L131.288 91.2851L116.29 100L116.34 69.7337L131.337 61.0186Z" fill="url(#paint10_linear_7790_101945)" fill-opacity="0.6"/>
<path d="M131.337 71.0186L131.288 81.2851L116.29 90.0003L116.34 79.7337L131.337 71.0186Z" fill="#C4C4C4"/>
<path d="M131.337 71.0186L131.288 81.2851L116.29 90.0003L116.34 79.7337L131.337 71.0186Z" fill="#FF835E"/>
<path d="M131.337 71.0186L131.288 81.2851L116.29 90.0003L116.34 79.7337L131.337 71.0186Z" fill="url(#paint11_linear_7790_101945)" fill-opacity="0.75"/>
<g filter="url(#filter3_i_7790_101945)">
<path d="M176.244 17.4367L116.241 52.3034L131.337 61.0185L116.34 69.7336L71.0433 43.5821L86.041 34.8669L101.138 43.5821L146.143 17.4305L131.046 8.71537L146.044 0.000244141L176.244 17.4367Z" fill="white"/>
<path d="M176.244 17.4367L116.241 52.3034L131.337 61.0185L116.34 69.7336L71.0433 43.5821L86.041 34.8669L101.138 43.5821L146.143 17.4305L131.046 8.71537L146.044 0.000244141L176.244 17.4367Z" fill="url(#paint12_linear_7790_101945)" fill-opacity="0.6"/>
</g>
<defs>
<filter id="filter0_d_7790_101945" x="0" y="32" width="240" height="160" filterUnits="userSpaceOnUse" color-interpolation-filters="sRGB">
<feFlood flood-opacity="0" result="BackgroundImageFix"/>
<feColorMatrix in="SourceAlpha" type="matrix" values="0 0 0 0 0 0 0 0 0 0 0 0 0 0 0 0 0 0 127 0" result="hardAlpha"/>
<feOffset dy="24"/>
<feGaussianBlur stdDeviation="8"/>
<feComposite in2="hardAlpha" operator="out"/>
<feColorMatrix type="matrix" values="0 0 0 0 0.765278 0 0 0 0 0.775833 0 0 0 0 0.791667 0 0 0 0.12 0"/>
<feBlend mode="normal" in2="BackgroundImageFix" result="effect1_dropShadow_7790_101945"/>
<feBlend mode="normal" in="SourceGraphic" in2="effect1_dropShadow_7790_101945" result="shape"/>
</filter>
<filter id="filter1_i_7790_101945" x="20" y="14.0002" width="208" height="120" filterUnits="userSpaceOnUse" color-interpolation-filters="sRGB">
<feFlood flood-opacity="0" result="BackgroundImageFix"/>
<feBlend mode="normal" in="SourceGraphic" in2="BackgroundImageFix" result="shape"/>
<feColorMatrix in="SourceAlpha" type="matrix" values="0 0 0 0 0 0 0 0 0 0 0 0 0 0 0 0 0 0 127 0" result="hardAlpha"/>
<feOffset dy="-2"/>
<feComposite in2="hardAlpha" operator="arithmetic" k2="-1" k3="1"/>
<feColorMatrix type="matrix" values="0 0 0 0 1 0 0 0 0 1 0 0 0 0 1 0 0 0 1 0"/>
<feBlend mode="normal" in2="shape" result="effect1_innerShadow_7790_101945"/>
</filter>
<filter id="filter2_f_7790_101945" x="47.2752" y="20.2106" width="153.804" height="106.475" filterUnits="userSpaceOnUse" color-interpolation-filters="sRGB">
<feFlood flood-opacity="0" result="BackgroundImageFix"/>
<feBlend mode="normal" in="SourceGraphic" in2="BackgroundImageFix" result="shape"/>
<feGaussianBlur stdDeviation="10.4558" result="effect1_foregroundBlur_7790_101945"/>
</filter>
<filter id="filter3_i_7790_101945" x="71.0433" y="0.000244141" width="105.2" height="69.7334" filterUnits="userSpaceOnUse" color-interpolation-filters="sRGB">
<feFlood flood-opacity="0" result="BackgroundImageFix"/>
<feBlend mode="normal" in="SourceGraphic" in2="BackgroundImageFix" result="shape"/>
<feColorMatrix in="SourceAlpha" type="matrix" values="0 0 0 0 0 0 0 0 0 0 0 0 0 0 0 0 0 0 127 0" result="hardAlpha"/>
<feOffset dy="-2"/>
<feComposite in2="hardAlpha" operator="arithmetic" k2="-1" k3="1"/>
<feColorMatrix type="matrix" values="0 0 0 0 1 0 0 0 0 1 0 0 0 0 1 0 0 0 0.6 0"/>
<feBlend mode="normal" in2="shape" result="effect1_innerShadow_7790_101945"/>
</filter>
<linearGradient id="paint0_linear_7790_101945" x1="72.6318" y1="135.753" x2="113.601" y2="180.2" gradientUnits="userSpaceOnUse">
<stop stop-color="#CCD1D3" stop-opacity="0.36"/>
<stop offset="1" stop-color="#C3C6CA"/>
</linearGradient>
<linearGradient id="paint1_linear_7790_101945" x1="72.6318" y1="135.753" x2="113.601" y2="180.2" gradientUnits="userSpaceOnUse">
<stop stop-color="#CCD1D3" stop-opacity="0.36"/>
<stop offset="1" stop-color="#C3C6CA"/>
</linearGradient>
<linearGradient id="paint2_linear_7790_101945" x1="72.6318" y1="135.753" x2="113.601" y2="180.2" gradientUnits="userSpaceOnUse">
<stop stop-color="#CCD1D3" stop-opacity="0.36"/>
<stop offset="1" stop-color="#C3C6CA"/>
</linearGradient>
<linearGradient id="paint3_linear_7790_101945" x1="20.9052" y1="57.6613" x2="186.617" y2="-37.16" gradientUnits="userSpaceOnUse">
<stop stop-color="#BDC6CB" stop-opacity="0.36"/>
<stop offset="1" stop-color="#B7BEC8"/>
</linearGradient>
<linearGradient id="paint4_linear_7790_101945" x1="149.495" y1="50.5395" x2="131.963" y2="50.6944" gradientUnits="userSpaceOnUse">
<stop stop-color="#BDC6CB" stop-opacity="0.36"/>
<stop offset="1" stop-color="#B7BEC8"/>
</linearGradient>
<linearGradient id="paint5_linear_7790_101945" x1="138.573" y1="35.1966" x2="141.839" y2="21.91" gradientUnits="userSpaceOnUse">
<stop stop-color="#FF4810"/>
<stop offset="1" stop-color="#FFB950"/>
</linearGradient>
<linearGradient id="paint6_linear_7790_101945" x1="266.8" y1="25.2631" x2="120.954" y2="9.42208" gradientUnits="userSpaceOnUse">
<stop stop-color="#CCD1D3" stop-opacity="0.36"/>
<stop offset="1" stop-color="#C3C6CA"/>
</linearGradient>
<linearGradient id="paint7_linear_7790_101945" x1="174.57" y1="68.9265" x2="168.2" y2="31.303" gradientUnits="userSpaceOnUse">
<stop stop-color="#FF4810"/>
<stop offset="1" stop-color="#FFB950"/>
</linearGradient>
<linearGradient id="paint8_linear_7790_101945" x1="126.377" y1="104.114" x2="73.8879" y2="105.073" gradientUnits="userSpaceOnUse">
<stop stop-color="#BDC6CB" stop-opacity="0.36"/>
<stop offset="1" stop-color="#B7BEC8"/>
</linearGradient>
<linearGradient id="paint9_linear_7790_101945" x1="93.6699" y1="85.2025" x2="97.8231" y2="58.8253" gradientUnits="userSpaceOnUse">
<stop stop-color="#FF4810"/>
<stop offset="1" stop-color="#FFB950"/>
</linearGradient>
<linearGradient id="paint10_linear_7790_101945" x1="154.028" y1="65.7026" x2="117.129" y2="64.0246" gradientUnits="userSpaceOnUse">
<stop stop-color="#CCD1D3" stop-opacity="0.36"/>
<stop offset="1" stop-color="#C3C6CA"/>
</linearGradient>
<linearGradient id="paint11_linear_7790_101945" x1="130.918" y1="88.4679" x2="126.638" y2="73.4073" gradientUnits="userSpaceOnUse">
<stop stop-color="#FF4810"/>
<stop offset="1" stop-color="#FFB950"/>
</linearGradient>
<linearGradient id="paint12_linear_7790_101945" x1="334.88" y1="8.37934" x2="84.2875" y2="-36.1561" gradientUnits="userSpaceOnUse">
<stop stop-color="#CCD1D3" stop-opacity="0.36"/>
<stop offset="1" stop-color="#C3C6CA"/>
</linearGradient>
</defs>
</svg>

