<svg width="240" height="208" viewBox="0 0 240 208" fill="none" xmlns="http://www.w3.org/2000/svg">
<g filter="url(#filter0_d_7790_101853)">
<path d="M27.3975 123.875C19.7479 119.461 15.9489 113.668 16.0005 107.884C16.0514 102.177 19.8504 96.4793 27.3975 92.1253L53.6268 76.993L92.484 54.5754C107.681 45.808 132.319 45.808 147.516 54.5754L194.286 81.5579L212.602 92.1253C220.15 96.4793 223.949 102.177 223.999 107.884C224.051 113.668 220.252 119.461 212.602 123.875L147.516 161.424C132.319 170.192 107.681 170.192 92.484 161.424L27.3975 123.875Z" fill="#C4C4C4"/>
<path d="M27.3975 123.875C19.7479 119.461 15.9489 113.668 16.0005 107.884C16.0514 102.177 19.8504 96.4793 27.3975 92.1253L53.6268 76.993L92.484 54.5754C107.681 45.808 132.319 45.808 147.516 54.5754L194.286 81.5579L212.602 92.1253C220.15 96.4793 223.949 102.177 223.999 107.884C224.051 113.668 220.252 119.461 212.602 123.875L147.516 161.424C132.319 170.192 107.681 170.192 92.484 161.424L27.3975 123.875Z" fill="white"/>
<path d="M27.3975 123.875C19.7479 119.461 15.9489 113.668 16.0005 107.884C16.0514 102.177 19.8504 96.4793 27.3975 92.1253L53.6268 76.993L92.484 54.5754C107.681 45.808 132.319 45.808 147.516 54.5754L194.286 81.5579L212.602 92.1253C220.15 96.4793 223.949 102.177 223.999 107.884C224.051 113.668 220.252 119.461 212.602 123.875L147.516 161.424C132.319 170.192 107.681 170.192 92.484 161.424L27.3975 123.875Z" fill="url(#paint0_linear_7790_101853)" fill-opacity="0.4"/>
<path d="M16.0005 107.884C16.0514 102.177 19.8504 96.4793 27.3975 92.1253L53.6268 76.993L16.0005 89.8814V107.884Z" fill="#C4C4C4"/>
<path d="M16.0005 107.884C16.0514 102.177 19.8504 96.4793 27.3975 92.1253L53.6268 76.993L16.0005 89.8814V107.884Z" fill="white"/>
<path d="M16.0005 107.884C16.0514 102.177 19.8504 96.4793 27.3975 92.1253L53.6268 76.993L16.0005 89.8814V107.884Z" fill="url(#paint1_linear_7790_101853)" fill-opacity="0.4"/>
<path d="M212.602 92.1253C220.15 96.4793 223.949 102.177 223.999 107.884V89.8814L194.286 81.5579L212.602 92.1253Z" fill="#C4C4C4"/>
<path d="M212.602 92.1253C220.15 96.4793 223.949 102.177 223.999 107.884V89.8814L194.286 81.5579L212.602 92.1253Z" fill="white"/>
<path d="M212.602 92.1253C220.15 96.4793 223.949 102.177 223.999 107.884V89.8814L194.286 81.5579L212.602 92.1253Z" fill="url(#paint2_linear_7790_101853)" fill-opacity="0.4"/>
</g>
<g filter="url(#filter1_i_7790_101853)">
<path d="M27.3975 105.875C12.2008 97.1074 12.2008 82.8928 27.3975 74.1255L92.484 36.5756C107.681 27.8083 132.319 27.8083 147.516 36.5756L212.602 74.1255C227.799 82.8928 227.799 97.1074 212.602 105.875L147.516 143.425C132.319 152.192 107.681 152.192 92.484 143.425L27.3975 105.875Z" fill="#C4C4C4"/>
<path d="M27.3975 105.875C12.2008 97.1074 12.2008 82.8928 27.3975 74.1255L92.484 36.5756C107.681 27.8083 132.319 27.8083 147.516 36.5756L212.602 74.1255C227.799 82.8928 227.799 97.1074 212.602 105.875L147.516 143.425C132.319 152.192 107.681 152.192 92.484 143.425L27.3975 105.875Z" fill="white"/>
<path d="M27.3975 105.875C12.2008 97.1074 12.2008 82.8928 27.3975 74.1255L92.484 36.5756C107.681 27.8083 132.319 27.8083 147.516 36.5756L212.602 74.1255C227.799 82.8928 227.799 97.1074 212.602 105.875L147.516 143.425C132.319 152.192 107.681 152.192 92.484 143.425L27.3975 105.875Z" fill="url(#paint3_linear_7790_101853)" fill-opacity="0.15"/>
</g>
<g opacity="0.04" filter="url(#filter2_f_7790_101853)">
<rect width="84.6555" height="42.0434" rx="21.0217" transform="matrix(0.866025 -0.5 0.866025 0.5 65.4185 100.966)" fill="black"/>
</g>
<path d="M139.976 -6.10352e-05L176 20.8466L120.123 118L64 85.6494L80.3091 57.2864L100.408 68.7828L139.976 -6.10352e-05Z" fill="#FFB199"/>
<path d="M139.976 -6.10352e-05L176 20.8466L120.123 118L64 85.6494L80.3091 57.2864L100.408 68.7828L139.976 -6.10352e-05Z" fill="url(#paint4_linear_7790_101853)" fill-opacity="0.2"/>
<path d="M159.401 11.2408L176 20.8468L120.123 118L83.6082 97.1066L99.9173 68.7437L120.017 80.24L159.401 11.2408Z" fill="#FFB199"/>
<path d="M159.401 11.2408L176 20.8468L120.123 118L83.6082 97.1066L99.9173 68.7437L120.017 80.24L159.401 11.2408Z" fill="url(#paint5_linear_7790_101853)" fill-opacity="0.75"/>
<defs>
<filter id="filter0_d_7790_101853" x="0" y="47.9999" width="240" height="160" filterUnits="userSpaceOnUse" color-interpolation-filters="sRGB">
<feFlood flood-opacity="0" result="BackgroundImageFix"/>
<feColorMatrix in="SourceAlpha" type="matrix" values="0 0 0 0 0 0 0 0 0 0 0 0 0 0 0 0 0 0 127 0" result="hardAlpha"/>
<feOffset dy="24"/>
<feGaussianBlur stdDeviation="8"/>
<feComposite in2="hardAlpha" operator="out"/>
<feColorMatrix type="matrix" values="0 0 0 0 0.765278 0 0 0 0 0.775833 0 0 0 0 0.791667 0 0 0 0.12 0"/>
<feBlend mode="normal" in2="BackgroundImageFix" result="effect1_dropShadow_7790_101853"/>
<feBlend mode="normal" in="SourceGraphic" in2="effect1_dropShadow_7790_101853" result="shape"/>
</filter>
<filter id="filter1_i_7790_101853" x="16" y="30.0001" width="208" height="120" filterUnits="userSpaceOnUse" color-interpolation-filters="sRGB">
<feFlood flood-opacity="0" result="BackgroundImageFix"/>
<feBlend mode="normal" in="SourceGraphic" in2="BackgroundImageFix" result="shape"/>
<feColorMatrix in="SourceAlpha" type="matrix" values="0 0 0 0 0 0 0 0 0 0 0 0 0 0 0 0 0 0 127 0" result="hardAlpha"/>
<feOffset dy="-2"/>
<feComposite in2="hardAlpha" operator="arithmetic" k2="-1" k3="1"/>
<feColorMatrix type="matrix" values="0 0 0 0 1 0 0 0 0 1 0 0 0 0 1 0 0 0 1 0"/>
<feBlend mode="normal" in2="shape" result="effect1_innerShadow_7790_101853"/>
</filter>
<filter id="filter2_f_7790_101853" x="55.1714" y="43.8835" width="130.219" height="92.8585" filterUnits="userSpaceOnUse" color-interpolation-filters="sRGB">
<feFlood flood-opacity="0" result="BackgroundImageFix"/>
<feBlend mode="normal" in="SourceGraphic" in2="BackgroundImageFix" result="shape"/>
<feGaussianBlur stdDeviation="10.4558" result="effect1_foregroundBlur_7790_101853"/>
</filter>
<linearGradient id="paint0_linear_7790_101853" x1="72.6318" y1="151.753" x2="113.601" y2="196.2" gradientUnits="userSpaceOnUse">
<stop stop-color="#CCD1D3" stop-opacity="0.36"/>
<stop offset="1" stop-color="#C3C6CA"/>
</linearGradient>
<linearGradient id="paint1_linear_7790_101853" x1="72.6318" y1="151.753" x2="113.601" y2="196.2" gradientUnits="userSpaceOnUse">
<stop stop-color="#CCD1D3" stop-opacity="0.36"/>
<stop offset="1" stop-color="#C3C6CA"/>
</linearGradient>
<linearGradient id="paint2_linear_7790_101853" x1="72.6318" y1="151.753" x2="113.601" y2="196.2" gradientUnits="userSpaceOnUse">
<stop stop-color="#CCD1D3" stop-opacity="0.36"/>
<stop offset="1" stop-color="#C3C6CA"/>
</linearGradient>
<linearGradient id="paint3_linear_7790_101853" x1="16.9052" y1="73.6611" x2="182.617" y2="-21.1602" gradientUnits="userSpaceOnUse">
<stop stop-color="#BDC6CB" stop-opacity="0.36"/>
<stop offset="1" stop-color="#B7BEC8"/>
</linearGradient>
<linearGradient id="paint4_linear_7790_101853" x1="120" y1="102.456" x2="137.349" y2="18.454" gradientUnits="userSpaceOnUse">
<stop stop-color="#FF4810"/>
<stop offset="1" stop-color="#FFB950"/>
</linearGradient>
<linearGradient id="paint5_linear_7790_101853" x1="129.804" y1="103.936" x2="146.877" y2="28.5625" gradientUnits="userSpaceOnUse">
<stop stop-color="#FF4810"/>
<stop offset="1" stop-color="#FFB950"/>
</linearGradient>
</defs>
</svg>

