<svg width="240" height="192" viewBox="0 0 240 192" fill="none" xmlns="http://www.w3.org/2000/svg">
<g filter="url(#filter0_d_7790_101907)">
<path d="M27.3975 107.875C19.7479 103.461 15.9489 97.6679 16.0005 91.8837C16.0514 86.1771 19.8504 80.4795 27.3975 76.1254L53.6268 60.9931L92.484 38.5755C107.681 29.8082 132.319 29.8082 147.516 38.5755L194.286 65.558L212.602 76.1254C220.15 80.4795 223.949 86.1771 223.999 91.8837C224.051 97.6679 220.252 103.461 212.602 107.875L147.516 145.425C132.319 154.192 107.681 154.192 92.484 145.425L27.3975 107.875Z" fill="#C4C4C4"/>
<path d="M27.3975 107.875C19.7479 103.461 15.9489 97.6679 16.0005 91.8837C16.0514 86.1771 19.8504 80.4795 27.3975 76.1254L53.6268 60.9931L92.484 38.5755C107.681 29.8082 132.319 29.8082 147.516 38.5755L194.286 65.558L212.602 76.1254C220.15 80.4795 223.949 86.1771 223.999 91.8837C224.051 97.6679 220.252 103.461 212.602 107.875L147.516 145.425C132.319 154.192 107.681 154.192 92.484 145.425L27.3975 107.875Z" fill="white"/>
<path d="M27.3975 107.875C19.7479 103.461 15.9489 97.6679 16.0005 91.8837C16.0514 86.1771 19.8504 80.4795 27.3975 76.1254L53.6268 60.9931L92.484 38.5755C107.681 29.8082 132.319 29.8082 147.516 38.5755L194.286 65.558L212.602 76.1254C220.15 80.4795 223.949 86.1771 223.999 91.8837C224.051 97.6679 220.252 103.461 212.602 107.875L147.516 145.425C132.319 154.192 107.681 154.192 92.484 145.425L27.3975 107.875Z" fill="url(#paint0_linear_7790_101907)" fill-opacity="0.4"/>
<path d="M16.0005 91.8837C16.0514 86.1771 19.8504 80.4795 27.3975 76.1254L53.6268 60.9931L16.0005 73.8815V91.8837Z" fill="#C4C4C4"/>
<path d="M16.0005 91.8837C16.0514 86.1771 19.8504 80.4795 27.3975 76.1254L53.6268 60.9931L16.0005 73.8815V91.8837Z" fill="white"/>
<path d="M16.0005 91.8837C16.0514 86.1771 19.8504 80.4795 27.3975 76.1254L53.6268 60.9931L16.0005 73.8815V91.8837Z" fill="url(#paint1_linear_7790_101907)" fill-opacity="0.4"/>
<path d="M212.602 76.1254C220.15 80.4795 223.949 86.1771 223.999 91.8837V73.8815L194.286 65.558L212.602 76.1254Z" fill="#C4C4C4"/>
<path d="M212.602 76.1254C220.15 80.4795 223.949 86.1771 223.999 91.8837V73.8815L194.286 65.558L212.602 76.1254Z" fill="white"/>
<path d="M212.602 76.1254C220.15 80.4795 223.949 86.1771 223.999 91.8837V73.8815L194.286 65.558L212.602 76.1254Z" fill="url(#paint2_linear_7790_101907)" fill-opacity="0.4"/>
</g>
<g filter="url(#filter1_i_7790_101907)">
<path d="M27.3975 89.8749C12.2008 81.1076 12.2008 66.8929 27.3975 58.1256L92.484 20.5757C107.681 11.8084 132.319 11.8084 147.516 20.5757L212.602 58.1256C227.799 66.8929 227.799 81.1076 212.602 89.8749L147.516 127.425C132.319 136.192 107.681 136.192 92.484 127.425L27.3975 89.8749Z" fill="#C4C4C4"/>
<path d="M27.3975 89.8749C12.2008 81.1076 12.2008 66.8929 27.3975 58.1256L92.484 20.5757C107.681 11.8084 132.319 11.8084 147.516 20.5757L212.602 58.1256C227.799 66.8929 227.799 81.1076 212.602 89.8749L147.516 127.425C132.319 136.192 107.681 136.192 92.484 127.425L27.3975 89.8749Z" fill="white"/>
<path d="M27.3975 89.8749C12.2008 81.1076 12.2008 66.8929 27.3975 58.1256L92.484 20.5757C107.681 11.8084 132.319 11.8084 147.516 20.5757L212.602 58.1256C227.799 66.8929 227.799 81.1076 212.602 89.8749L147.516 127.425C132.319 136.192 107.681 136.192 92.484 127.425L27.3975 89.8749Z" fill="url(#paint3_linear_7790_101907)" fill-opacity="0.15"/>
</g>
<g opacity="0.04" filter="url(#filter2_f_7790_101907)">
<rect width="106.137" height="55.9298" rx="27.9649" transform="matrix(0.866025 -0.5 0.866025 0.5 50 86.0002)" fill="black"/>
</g>
<path d="M150.688 26.8594L150.637 55.5597L119.626 37.6578L119.671 8.95117L150.688 26.8594Z" fill="white"/>
<path d="M150.688 26.8594L150.637 55.5597L119.626 37.6578L119.671 8.95117L150.688 26.8594Z" fill="url(#paint4_linear_7790_101907)" fill-opacity="0.2"/>
<path d="M150.688 36.8594L150.637 45.5597L119.626 27.6578L119.671 18.9512L150.688 36.8594Z" fill="#FFB199"/>
<path d="M150.688 36.8594L150.637 45.5597L119.626 27.6578L119.671 18.9512L150.688 36.8594Z" fill="url(#paint5_linear_7790_101907)" fill-opacity="0.2"/>
<path d="M119.874 44.7612L119.824 73.4679L88.8132 55.5597L88.8577 26.8594L119.874 44.7612Z" fill="white"/>
<path d="M119.874 44.7612L119.824 73.4679L88.8132 55.5597L88.8577 26.8594L119.874 44.7612Z" fill="url(#paint6_linear_7790_101907)" fill-opacity="0.2"/>
<path d="M119.874 54.7612L119.824 63.4679L88.8132 45.5597L88.8577 36.8594L119.874 54.7612Z" fill="#FFB199"/>
<path d="M119.874 54.7612L119.824 63.4679L88.8132 45.5597L88.8577 36.8594L119.874 54.7612Z" fill="url(#paint7_linear_7790_101907)" fill-opacity="0.2"/>
<path d="M104.566 71.6202L104.515 100.327L58 73.4678L58.0445 44.7611L104.566 71.6202Z" fill="white"/>
<path d="M104.566 71.6202L104.515 100.327L58 73.4678L58.0445 44.7611L104.566 71.6202Z" fill="url(#paint8_linear_7790_101907)" fill-opacity="0.2"/>
<path d="M104.566 81.6201L104.515 90.3267L58 63.4677L58.0445 54.761L104.566 81.6201Z" fill="#FFB199"/>
<path d="M104.566 81.6201L104.515 90.3267L58 63.4677L58.0445 54.761L104.566 81.6201Z" fill="url(#paint9_linear_7790_101907)" fill-opacity="0.2"/>
<path d="M181.59 26.8594L181.546 55.5597L104.516 100.327L104.566 71.6203L181.59 26.8594Z" fill="white"/>
<path d="M181.59 26.8594L181.546 55.5597L104.516 100.327L104.566 71.6203L181.59 26.8594Z" fill="url(#paint10_linear_7790_101907)" fill-opacity="0.6"/>
<path d="M181.59 36.8594L181.546 45.5597L104.516 90.327L104.566 81.6203L181.59 36.8594Z" fill="#FFB199"/>
<path d="M181.59 36.8594L181.546 45.5597L104.516 90.327L104.566 81.6203L181.59 36.8594Z" fill="url(#paint11_linear_7790_101907)" fill-opacity="0.75"/>
<g filter="url(#filter3_i_7790_101907)">
<path d="M181.59 26.8593L104.566 71.6202L58.0444 44.7612L73.4479 35.8102L104.465 53.7184L119.874 44.7612L88.8577 26.8593L104.261 17.9084L135.278 35.8102L150.688 26.8593L119.671 8.95115L135.074 0.000244141L181.59 26.8593Z" fill="white"/>
<path d="M181.59 26.8593L104.566 71.6202L58.0444 44.7612L73.4479 35.8102L104.465 53.7184L119.874 44.7612L88.8577 26.8593L104.261 17.9084L135.278 35.8102L150.688 26.8593L119.671 8.95115L135.074 0.000244141L181.59 26.8593Z" fill="url(#paint12_linear_7790_101907)" fill-opacity="0.6"/>
</g>
<defs>
<filter id="filter0_d_7790_101907" x="0" y="32" width="240" height="160" filterUnits="userSpaceOnUse" color-interpolation-filters="sRGB">
<feFlood flood-opacity="0" result="BackgroundImageFix"/>
<feColorMatrix in="SourceAlpha" type="matrix" values="0 0 0 0 0 0 0 0 0 0 0 0 0 0 0 0 0 0 127 0" result="hardAlpha"/>
<feOffset dy="24"/>
<feGaussianBlur stdDeviation="8"/>
<feComposite in2="hardAlpha" operator="out"/>
<feColorMatrix type="matrix" values="0 0 0 0 0.765278 0 0 0 0 0.775833 0 0 0 0 0.791667 0 0 0 0.12 0"/>
<feBlend mode="normal" in2="BackgroundImageFix" result="effect1_dropShadow_7790_101907"/>
<feBlend mode="normal" in="SourceGraphic" in2="effect1_dropShadow_7790_101907" result="shape"/>
</filter>
<filter id="filter1_i_7790_101907" x="16" y="14.0002" width="208" height="120" filterUnits="userSpaceOnUse" color-interpolation-filters="sRGB">
<feFlood flood-opacity="0" result="BackgroundImageFix"/>
<feBlend mode="normal" in="SourceGraphic" in2="BackgroundImageFix" result="shape"/>
<feColorMatrix in="SourceAlpha" type="matrix" values="0 0 0 0 0 0 0 0 0 0 0 0 0 0 0 0 0 0 127 0" result="hardAlpha"/>
<feOffset dy="-2"/>
<feComposite in2="hardAlpha" operator="arithmetic" k2="-1" k3="1"/>
<feColorMatrix type="matrix" values="0 0 0 0 1 0 0 0 0 1 0 0 0 0 1 0 0 0 1 0"/>
<feBlend mode="normal" in2="shape" result="effect1_innerShadow_7790_101907"/>
</filter>
<filter id="filter2_f_7790_101907" x="43.2752" y="20.2106" width="153.804" height="106.475" filterUnits="userSpaceOnUse" color-interpolation-filters="sRGB">
<feFlood flood-opacity="0" result="BackgroundImageFix"/>
<feBlend mode="normal" in="SourceGraphic" in2="BackgroundImageFix" result="shape"/>
<feGaussianBlur stdDeviation="10.4558" result="effect1_foregroundBlur_7790_101907"/>
</filter>
<filter id="filter3_i_7790_101907" x="58.0444" y="0.000244141" width="123.545" height="71.62" filterUnits="userSpaceOnUse" color-interpolation-filters="sRGB">
<feFlood flood-opacity="0" result="BackgroundImageFix"/>
<feBlend mode="normal" in="SourceGraphic" in2="BackgroundImageFix" result="shape"/>
<feColorMatrix in="SourceAlpha" type="matrix" values="0 0 0 0 0 0 0 0 0 0 0 0 0 0 0 0 0 0 127 0" result="hardAlpha"/>
<feOffset dy="-2"/>
<feComposite in2="hardAlpha" operator="arithmetic" k2="-1" k3="1"/>
<feColorMatrix type="matrix" values="0 0 0 0 1 0 0 0 0 1 0 0 0 0 1 0 0 0 0.6 0"/>
<feBlend mode="normal" in2="shape" result="effect1_innerShadow_7790_101907"/>
</filter>
<linearGradient id="paint0_linear_7790_101907" x1="72.6318" y1="135.753" x2="113.601" y2="180.2" gradientUnits="userSpaceOnUse">
<stop stop-color="#CCD1D3" stop-opacity="0.36"/>
<stop offset="1" stop-color="#C3C6CA"/>
</linearGradient>
<linearGradient id="paint1_linear_7790_101907" x1="72.6318" y1="135.753" x2="113.601" y2="180.2" gradientUnits="userSpaceOnUse">
<stop stop-color="#CCD1D3" stop-opacity="0.36"/>
<stop offset="1" stop-color="#C3C6CA"/>
</linearGradient>
<linearGradient id="paint2_linear_7790_101907" x1="72.6318" y1="135.753" x2="113.601" y2="180.2" gradientUnits="userSpaceOnUse">
<stop stop-color="#CCD1D3" stop-opacity="0.36"/>
<stop offset="1" stop-color="#C3C6CA"/>
</linearGradient>
<linearGradient id="paint3_linear_7790_101907" x1="16.9052" y1="57.6613" x2="182.617" y2="-37.16" gradientUnits="userSpaceOnUse">
<stop stop-color="#BDC6CB" stop-opacity="0.36"/>
<stop offset="1" stop-color="#B7BEC8"/>
</linearGradient>
<linearGradient id="paint4_linear_7790_101907" x1="157.564" y1="58.9583" x2="121.601" y2="59.5034" gradientUnits="userSpaceOnUse">
<stop stop-color="#BDC6CB" stop-opacity="0.36"/>
<stop offset="1" stop-color="#B7BEC8"/>
</linearGradient>
<linearGradient id="paint5_linear_7790_101907" x1="135.157" y1="42.0545" x2="138.383" y2="22.8462" gradientUnits="userSpaceOnUse">
<stop stop-color="#FF4810"/>
<stop offset="1" stop-color="#FFB950"/>
</linearGradient>
<linearGradient id="paint6_linear_7790_101907" x1="126.751" y1="76.8665" x2="90.7879" y2="77.4117" gradientUnits="userSpaceOnUse">
<stop stop-color="#BDC6CB" stop-opacity="0.36"/>
<stop offset="1" stop-color="#B7BEC8"/>
</linearGradient>
<linearGradient id="paint7_linear_7790_101907" x1="104.344" y1="59.9627" x2="107.569" y2="40.7544" gradientUnits="userSpaceOnUse">
<stop stop-color="#FF4810"/>
<stop offset="1" stop-color="#FFB950"/>
</linearGradient>
<linearGradient id="paint8_linear_7790_101907" x1="114.875" y1="104.379" x2="60.9676" y2="105.406" gradientUnits="userSpaceOnUse">
<stop stop-color="#BDC6CB" stop-opacity="0.36"/>
<stop offset="1" stop-color="#B7BEC8"/>
</linearGradient>
<linearGradient id="paint9_linear_7790_101907" x1="81.2832" y1="85.6416" x2="85.149" y2="59.8219" gradientUnits="userSpaceOnUse">
<stop stop-color="#FF4810"/>
<stop offset="1" stop-color="#FFB950"/>
</linearGradient>
<linearGradient id="paint10_linear_7790_101907" x1="297.814" y1="35.6872" x2="111.269" y2="12.6326" gradientUnits="userSpaceOnUse">
<stop stop-color="#CCD1D3" stop-opacity="0.36"/>
<stop offset="1" stop-color="#C3C6CA"/>
</linearGradient>
<linearGradient id="paint11_linear_7790_101907" x1="143.053" y1="83.2836" x2="148.352" y2="44.3182" gradientUnits="userSpaceOnUse">
<stop stop-color="#FF4810"/>
<stop offset="1" stop-color="#FFB950"/>
</linearGradient>
<linearGradient id="paint12_linear_7790_101907" x1="367.889" y1="8.60603" x2="76.3428" y2="-50.6402" gradientUnits="userSpaceOnUse">
<stop stop-color="#CCD1D3" stop-opacity="0.36"/>
<stop offset="1" stop-color="#C3C6CA"/>
</linearGradient>
</defs>
</svg>
