<svg width="240" height="192" viewBox="0 0 240 192" fill="none" xmlns="http://www.w3.org/2000/svg">
<g filter="url(#filter0_d_7790_101924)">
<path d="M27.3975 107.875C19.7479 103.461 15.9489 97.6679 16.0005 91.8837C16.0514 86.1771 19.8504 80.4795 27.3975 76.1254L53.6268 60.9931L92.484 38.5755C107.681 29.8082 132.319 29.8082 147.516 38.5755L194.286 65.558L212.602 76.1254C220.15 80.4795 223.949 86.1771 223.999 91.8837C224.051 97.6679 220.252 103.461 212.602 107.875L147.516 145.425C132.319 154.192 107.681 154.192 92.484 145.425L27.3975 107.875Z" fill="#C4C4C4"/>
<path d="M27.3975 107.875C19.7479 103.461 15.9489 97.6679 16.0005 91.8837C16.0514 86.1771 19.8504 80.4795 27.3975 76.1254L53.6268 60.9931L92.484 38.5755C107.681 29.8082 132.319 29.8082 147.516 38.5755L194.286 65.558L212.602 76.1254C220.15 80.4795 223.949 86.1771 223.999 91.8837C224.051 97.6679 220.252 103.461 212.602 107.875L147.516 145.425C132.319 154.192 107.681 154.192 92.484 145.425L27.3975 107.875Z" fill="white"/>
<path d="M27.3975 107.875C19.7479 103.461 15.9489 97.6679 16.0005 91.8837C16.0514 86.1771 19.8504 80.4795 27.3975 76.1254L53.6268 60.9931L92.484 38.5755C107.681 29.8082 132.319 29.8082 147.516 38.5755L194.286 65.558L212.602 76.1254C220.15 80.4795 223.949 86.1771 223.999 91.8837C224.051 97.6679 220.252 103.461 212.602 107.875L147.516 145.425C132.319 154.192 107.681 154.192 92.484 145.425L27.3975 107.875Z" fill="url(#paint0_linear_7790_101924)" fill-opacity="0.4"/>
<path d="M16.0005 91.8837C16.0514 86.1771 19.8504 80.4795 27.3975 76.1254L53.6268 60.9931L16.0005 73.8815V91.8837Z" fill="#C4C4C4"/>
<path d="M16.0005 91.8837C16.0514 86.1771 19.8504 80.4795 27.3975 76.1254L53.6268 60.9931L16.0005 73.8815V91.8837Z" fill="white"/>
<path d="M16.0005 91.8837C16.0514 86.1771 19.8504 80.4795 27.3975 76.1254L53.6268 60.9931L16.0005 73.8815V91.8837Z" fill="url(#paint1_linear_7790_101924)" fill-opacity="0.4"/>
<path d="M212.602 76.1254C220.15 80.4795 223.949 86.1771 223.999 91.8837V73.8815L194.286 65.558L212.602 76.1254Z" fill="#C4C4C4"/>
<path d="M212.602 76.1254C220.15 80.4795 223.949 86.1771 223.999 91.8837V73.8815L194.286 65.558L212.602 76.1254Z" fill="white"/>
<path d="M212.602 76.1254C220.15 80.4795 223.949 86.1771 223.999 91.8837V73.8815L194.286 65.558L212.602 76.1254Z" fill="url(#paint2_linear_7790_101924)" fill-opacity="0.4"/>
</g>
<g filter="url(#filter1_i_7790_101924)">
<path d="M27.3975 89.8749C12.2008 81.1076 12.2008 66.8929 27.3975 58.1256L92.484 20.5757C107.681 11.8084 132.319 11.8084 147.516 20.5757L212.602 58.1256C227.799 66.8929 227.799 81.1076 212.602 89.8749L147.516 127.425C132.319 136.192 107.681 136.192 92.484 127.425L27.3975 89.8749Z" fill="#C4C4C4"/>
<path d="M27.3975 89.8749C12.2008 81.1076 12.2008 66.8929 27.3975 58.1256L92.484 20.5757C107.681 11.8084 132.319 11.8084 147.516 20.5757L212.602 58.1256C227.799 66.8929 227.799 81.1076 212.602 89.8749L147.516 127.425C132.319 136.192 107.681 136.192 92.484 127.425L27.3975 89.8749Z" fill="white"/>
<path d="M27.3975 89.8749C12.2008 81.1076 12.2008 66.8929 27.3975 58.1256L92.484 20.5757C107.681 11.8084 132.319 11.8084 147.516 20.5757L212.602 58.1256C227.799 66.8929 227.799 81.1076 212.602 89.8749L147.516 127.425C132.319 136.192 107.681 136.192 92.484 127.425L27.3975 89.8749Z" fill="url(#paint3_linear_7790_101924)" fill-opacity="0.15"/>
</g>
<g opacity="0.04" filter="url(#filter2_f_7790_101924)">
<rect width="106.137" height="55.9298" rx="27.9649" transform="matrix(0.866025 -0.5 0.866025 0.5 50 86.0002)" fill="black"/>
</g>
<path d="M149.995 26.0792L149.946 56.2944L119.836 38.9125L119.88 8.69116L149.995 26.0792Z" fill="white"/>
<path d="M149.995 26.0792L149.946 56.2944L119.836 38.9125L119.88 8.69116L149.995 26.0792Z" fill="url(#paint4_linear_7790_101924)" fill-opacity="0.2"/>
<path d="M149.995 36.0792L149.946 46.2944L119.836 28.9125L119.88 18.6912L149.995 36.0792Z" fill="#FFB199"/>
<path d="M149.995 36.0792L149.946 46.2944L119.836 28.9125L119.88 18.6912L149.995 36.0792Z" fill="url(#paint5_linear_7790_101924)" fill-opacity="0.2"/>
<path d="M105.016 34.7701L104.973 64.9854L90.0107 73.6824L90.0539 43.4611L105.016 34.7701Z" fill="white"/>
<path d="M105.016 34.7701L104.973 64.9854L90.0107 73.6824L90.0539 43.4611L105.016 34.7701Z" fill="url(#paint6_linear_7790_101924)" fill-opacity="0.6"/>
<path d="M105.016 44.77L104.973 54.9852L90.0107 63.6823L90.0539 53.4609L105.016 44.77Z" fill="#C4C4C4"/>
<path d="M105.016 44.77L104.973 54.9852L90.0107 63.6823L90.0539 53.4609L105.016 44.77Z" fill="#FF835E"/>
<path d="M105.016 44.77L104.973 54.9852L90.0107 63.6823L90.0539 53.4609L105.016 44.77Z" fill="url(#paint7_linear_7790_101924)" fill-opacity="0.75"/>
<path d="M135.132 52.152L135.082 82.3733L104.973 64.9854L105.016 34.7701L135.132 52.152Z" fill="white"/>
<path d="M135.132 52.152L135.082 82.3733L104.973 64.9854L105.016 34.7701L135.132 52.152Z" fill="url(#paint8_linear_7790_101924)" fill-opacity="0.2"/>
<path d="M135.132 62.1518L135.082 72.3732L104.973 54.9852L105.016 44.77L135.132 62.1518Z" fill="#FFB199"/>
<path d="M135.132 62.1518L135.082 72.3732L104.973 54.9852L105.016 44.77L135.132 62.1518Z" fill="url(#paint9_linear_7790_101924)" fill-opacity="0.2"/>
<path d="M180 26.0792L179.957 56.2944L135.083 82.3733L135.132 52.152L180 26.0792Z" fill="white"/>
<path d="M180 26.0792L179.957 56.2944L135.083 82.3733L135.132 52.152L180 26.0792Z" fill="url(#paint10_linear_7790_101924)" fill-opacity="0.6"/>
<path d="M180 36.0791L179.957 46.2943L135.083 72.3732L135.132 62.1518L180 36.0791Z" fill="#C4C4C4"/>
<path d="M180 36.0791L179.957 46.2943L135.083 72.3732L135.132 62.1518L180 36.0791Z" fill="#FF835E"/>
<path d="M180 36.0791L179.957 46.2943L135.083 72.3732L135.132 62.1518L180 36.0791Z" fill="url(#paint11_linear_7790_101924)" fill-opacity="0.75"/>
<path d="M105.214 69.5397L105.164 99.7611L60 73.6822L60.0432 43.4608L105.214 69.5397Z" fill="white"/>
<path d="M105.214 69.5397L105.164 99.7611L60 73.6822L60.0432 43.4608L105.214 69.5397Z" fill="url(#paint12_linear_7790_101924)" fill-opacity="0.2"/>
<path d="M105.214 79.5396L105.164 89.761L60 63.6821L60.0432 53.4607L105.214 79.5396Z" fill="#FFB199"/>
<path d="M105.214 79.5396L105.164 89.761L60 63.6821L60.0432 53.4607L105.214 79.5396Z" fill="url(#paint13_linear_7790_101924)" fill-opacity="0.2"/>
<path d="M120.17 60.8491L120.12 91.0705L105.164 99.7614L105.214 69.54L120.17 60.8491Z" fill="white"/>
<path d="M120.17 60.8491L120.12 91.0705L105.164 99.7614L105.214 69.54L120.17 60.8491Z" fill="url(#paint14_linear_7790_101924)" fill-opacity="0.6"/>
<path d="M120.17 70.8491L120.12 81.0705L105.164 89.7614L105.214 79.54L120.17 70.8491Z" fill="#C4C4C4"/>
<path d="M120.17 70.8491L120.12 81.0705L105.164 89.7614L105.214 79.54L120.17 70.8491Z" fill="#FF835E"/>
<path d="M120.17 70.8491L120.12 81.0705L105.164 89.7614L105.214 79.54L120.17 70.8491Z" fill="url(#paint15_linear_7790_101924)" fill-opacity="0.75"/>
<g filter="url(#filter3_i_7790_101924)">
<path d="M180 26.0791L135.132 52.1519L105.016 34.7701L90.054 43.461L120.17 60.849L105.214 69.5399L60.0432 43.461L104.917 17.3882L135.033 34.7701L149.995 26.0791L119.88 8.69115L134.836 0.000244141L180 26.0791Z" fill="white"/>
<path d="M180 26.0791L135.132 52.1519L105.016 34.7701L90.054 43.461L120.17 60.849L105.214 69.5399L60.0432 43.461L104.917 17.3882L135.033 34.7701L149.995 26.0791L119.88 8.69115L134.836 0.000244141L180 26.0791Z" fill="url(#paint16_linear_7790_101924)" fill-opacity="0.6"/>
</g>
<defs>
<filter id="filter0_d_7790_101924" x="0" y="32" width="240" height="160" filterUnits="userSpaceOnUse" color-interpolation-filters="sRGB">
<feFlood flood-opacity="0" result="BackgroundImageFix"/>
<feColorMatrix in="SourceAlpha" type="matrix" values="0 0 0 0 0 0 0 0 0 0 0 0 0 0 0 0 0 0 127 0" result="hardAlpha"/>
<feOffset dy="24"/>
<feGaussianBlur stdDeviation="8"/>
<feComposite in2="hardAlpha" operator="out"/>
<feColorMatrix type="matrix" values="0 0 0 0 0.765278 0 0 0 0 0.775833 0 0 0 0 0.791667 0 0 0 0.12 0"/>
<feBlend mode="normal" in2="BackgroundImageFix" result="effect1_dropShadow_7790_101924"/>
<feBlend mode="normal" in="SourceGraphic" in2="effect1_dropShadow_7790_101924" result="shape"/>
</filter>
<filter id="filter1_i_7790_101924" x="16" y="14.0002" width="208" height="120" filterUnits="userSpaceOnUse" color-interpolation-filters="sRGB">
<feFlood flood-opacity="0" result="BackgroundImageFix"/>
<feBlend mode="normal" in="SourceGraphic" in2="BackgroundImageFix" result="shape"/>
<feColorMatrix in="SourceAlpha" type="matrix" values="0 0 0 0 0 0 0 0 0 0 0 0 0 0 0 0 0 0 127 0" result="hardAlpha"/>
<feOffset dy="-2"/>
<feComposite in2="hardAlpha" operator="arithmetic" k2="-1" k3="1"/>
<feColorMatrix type="matrix" values="0 0 0 0 1 0 0 0 0 1 0 0 0 0 1 0 0 0 1 0"/>
<feBlend mode="normal" in2="shape" result="effect1_innerShadow_7790_101924"/>
</filter>
<filter id="filter2_f_7790_101924" x="43.2752" y="20.2106" width="153.804" height="106.475" filterUnits="userSpaceOnUse" color-interpolation-filters="sRGB">
<feFlood flood-opacity="0" result="BackgroundImageFix"/>
<feBlend mode="normal" in="SourceGraphic" in2="BackgroundImageFix" result="shape"/>
<feGaussianBlur stdDeviation="10.4558" result="effect1_foregroundBlur_7790_101924"/>
</filter>
<filter id="filter3_i_7790_101924" x="60.0432" y="0.000244141" width="119.957" height="69.5397" filterUnits="userSpaceOnUse" color-interpolation-filters="sRGB">
<feFlood flood-opacity="0" result="BackgroundImageFix"/>
<feBlend mode="normal" in="SourceGraphic" in2="BackgroundImageFix" result="shape"/>
<feColorMatrix in="SourceAlpha" type="matrix" values="0 0 0 0 0 0 0 0 0 0 0 0 0 0 0 0 0 0 127 0" result="hardAlpha"/>
<feOffset dy="-2"/>
<feComposite in2="hardAlpha" operator="arithmetic" k2="-1" k3="1"/>
<feColorMatrix type="matrix" values="0 0 0 0 1 0 0 0 0 1 0 0 0 0 1 0 0 0 0.6 0"/>
<feBlend mode="normal" in2="shape" result="effect1_innerShadow_7790_101924"/>
</filter>
<linearGradient id="paint0_linear_7790_101924" x1="72.6318" y1="135.753" x2="113.601" y2="180.2" gradientUnits="userSpaceOnUse">
<stop stop-color="#CCD1D3" stop-opacity="0.36"/>
<stop offset="1" stop-color="#C3C6CA"/>
</linearGradient>
<linearGradient id="paint1_linear_7790_101924" x1="72.6318" y1="135.753" x2="113.601" y2="180.2" gradientUnits="userSpaceOnUse">
<stop stop-color="#CCD1D3" stop-opacity="0.36"/>
<stop offset="1" stop-color="#C3C6CA"/>
</linearGradient>
<linearGradient id="paint2_linear_7790_101924" x1="72.6318" y1="135.753" x2="113.601" y2="180.2" gradientUnits="userSpaceOnUse">
<stop stop-color="#CCD1D3" stop-opacity="0.36"/>
<stop offset="1" stop-color="#C3C6CA"/>
</linearGradient>
<linearGradient id="paint3_linear_7790_101924" x1="16.9052" y1="57.6613" x2="182.617" y2="-37.16" gradientUnits="userSpaceOnUse">
<stop stop-color="#BDC6CB" stop-opacity="0.36"/>
<stop offset="1" stop-color="#B7BEC8"/>
</linearGradient>
<linearGradient id="paint4_linear_7790_101924" x1="156.672" y1="59.7655" x2="121.753" y2="60.2687" gradientUnits="userSpaceOnUse">
<stop stop-color="#BDC6CB" stop-opacity="0.36"/>
<stop offset="1" stop-color="#B7BEC8"/>
</linearGradient>
<linearGradient id="paint5_linear_7790_101924" x1="134.916" y1="42.6582" x2="138.477" y2="22.8088" gradientUnits="userSpaceOnUse">
<stop stop-color="#FF4810"/>
<stop offset="1" stop-color="#FFB950"/>
</linearGradient>
<linearGradient id="paint6_linear_7790_101924" x1="127.643" y1="39.4458" x2="90.8468" y2="37.7742" gradientUnits="userSpaceOnUse">
<stop stop-color="#CCD1D3" stop-opacity="0.36"/>
<stop offset="1" stop-color="#C3C6CA"/>
</linearGradient>
<linearGradient id="paint7_linear_7790_101924" x1="104.598" y1="62.1556" x2="100.337" y2="47.1481" gradientUnits="userSpaceOnUse">
<stop stop-color="#FF4810"/>
<stop offset="1" stop-color="#FFB950"/>
</linearGradient>
<linearGradient id="paint8_linear_7790_101924" x1="141.808" y1="85.8445" x2="106.889" y2="86.3477" gradientUnits="userSpaceOnUse">
<stop stop-color="#BDC6CB" stop-opacity="0.36"/>
<stop offset="1" stop-color="#B7BEC8"/>
</linearGradient>
<linearGradient id="paint9_linear_7790_101924" x1="120.052" y1="68.737" x2="123.614" y2="48.8877" gradientUnits="userSpaceOnUse">
<stop stop-color="#FF4810"/>
<stop offset="1" stop-color="#FFB950"/>
</linearGradient>
<linearGradient id="paint10_linear_7790_101924" x1="247.733" y1="32.8435" x2="138.325" y2="22.5595" gradientUnits="userSpaceOnUse">
<stop stop-color="#CCD1D3" stop-opacity="0.36"/>
<stop offset="1" stop-color="#C3C6CA"/>
</linearGradient>
<linearGradient id="paint11_linear_7790_101924" x1="178.748" y1="69.4433" x2="173.264" y2="39.3191" gradientUnits="userSpaceOnUse">
<stop stop-color="#FF4810"/>
<stop offset="1" stop-color="#FFB950"/>
</linearGradient>
<linearGradient id="paint12_linear_7790_101924" x1="115.223" y1="103.866" x2="62.8798" y2="104.823" gradientUnits="userSpaceOnUse">
<stop stop-color="#BDC6CB" stop-opacity="0.36"/>
<stop offset="1" stop-color="#B7BEC8"/>
</linearGradient>
<linearGradient id="paint13_linear_7790_101924" x1="82.6069" y1="84.9791" x2="86.7449" y2="58.6867" gradientUnits="userSpaceOnUse">
<stop stop-color="#FF4810"/>
<stop offset="1" stop-color="#FFB950"/>
</linearGradient>
<linearGradient id="paint14_linear_7790_101924" x1="142.797" y1="65.5248" x2="106" y2="63.8532" gradientUnits="userSpaceOnUse">
<stop stop-color="#CCD1D3" stop-opacity="0.36"/>
<stop offset="1" stop-color="#C3C6CA"/>
</linearGradient>
<linearGradient id="paint15_linear_7790_101924" x1="119.751" y1="88.2347" x2="115.49" y2="73.2272" gradientUnits="userSpaceOnUse">
<stop stop-color="#FF4810"/>
<stop offset="1" stop-color="#FFB950"/>
</linearGradient>
<linearGradient id="paint16_linear_7790_101924" x1="360.888" y1="8.35605" x2="77.81" y2="-49.1692" gradientUnits="userSpaceOnUse">
<stop stop-color="#CCD1D3" stop-opacity="0.36"/>
<stop offset="1" stop-color="#C3C6CA"/>
</linearGradient>
</defs>
</svg>
