<svg width="208" height="208" viewBox="0 0 208 208" fill="none" xmlns="http://www.w3.org/2000/svg">
<path fill-rule="evenodd" clip-rule="evenodd" d="M0 25.1036V50.207H25.1034H50.2069V25.1036V0.00012207H25.1034H0V25.1036ZM57.3793 3.58633V7.17254H68.1379H78.8965V14.3449V21.5174H75.3103H71.7241V17.9312V14.3449H68.1379H64.5517V17.9312V21.5174H68.1379H71.7241V28.6898V35.8622H68.1379H64.5517V39.4484V43.0346H60.9655H57.3793V50.207V57.3794H60.9655H64.5517V60.9656V64.5518H57.3793H50.2069V60.9656V57.3794H46.6207H43.0345V60.9656V64.5518H39.4483H35.8621V60.9656V57.3794H28.6897H21.5172V68.1381V78.8967H17.931H14.3448V82.4829V86.0691H10.7586H7.17241V78.8967V71.7243H10.7586H14.3448V64.5518V57.3794H7.17241H0V60.9656V64.5518H3.58621H7.17241V68.1381V71.7243H3.58621H0V78.8967V86.0691H3.58621H7.17241V89.6553V93.2415H3.58621H0V96.8277V100.414H7.17241H14.3448V104V107.586H10.7586H7.17241V111.173V114.759H3.58621H0V132.69V150.621H28.6897H57.3793V154.207V157.793H60.9655H64.5517V164.966V172.138H60.9655H57.3793V179.31V186.483H60.9655H64.5517V190.069V193.655H60.9655H57.3793V200.828V208H64.5517H71.7241V204.414V200.828H75.3103H78.8965V204.414V208H82.4828H86.069V204.414V200.828H89.6552H93.2414V204.414V208H96.8276H100.414V204.414V200.828H96.8276H93.2414V197.242V193.655H96.8276H100.414V186.483V179.31H89.6552H78.8965V182.897V186.483H71.7241H64.5517V182.897V179.31H68.1379H71.7241V172.138V164.966H75.3103H78.8965V168.552V172.138H82.4828H86.069V161.379V150.621H82.4828H78.8965V143.448V136.276H86.069H93.2414V150.621V164.966H96.8276H100.414V168.552V172.138H104H107.586V186.483V200.828H111.172H114.759V193.655V186.483H118.345H121.931V182.897V179.31H118.345H114.759V172.138V164.966H118.345H121.931V168.552V172.138H125.517H129.103V168.552V164.966H132.69H136.276V172.138V179.31H132.69H129.103V182.897V186.483H132.69H136.276V182.897V179.31H139.862H143.448V182.897V186.483H147.034H150.621V193.655V200.828H143.448H136.276V197.242V193.655H132.69H129.103V200.828V208H150.621H172.138V204.414V200.828H164.966H157.793V190.069V179.31H161.379H164.966V186.483V193.655H172.138H179.31V197.242V200.828H186.483H193.655V197.242V193.655H197.241H200.828V197.242V200.828H204.414H208V182.897V164.966H200.828H193.655V175.724V186.483H190.069H186.483V190.069V193.655H182.897H179.31V190.069V186.483H175.724H172.138V182.897V179.31H179.31H186.483V175.724V172.138H182.897H179.31V168.552V164.966H182.897H186.483V157.793V150.621H193.655H200.828V147.035V143.448H197.241H193.655V139.862V136.276H190.069H186.483V132.69V129.104H193.655H200.828V132.69V136.276H204.414H208V132.69V129.104H204.414H200.828V125.517V121.931H193.655H186.483V118.345V114.759H190.069H193.655V107.586V100.414H197.241H200.828V107.586V114.759H204.414H208V96.8277V78.8967H204.414H200.828V86.0691V93.2415H186.483H172.138V89.6553V86.0691H179.31H186.483V82.4829V78.8967H190.069H193.655V75.3105V71.7243H197.241H200.828V68.1381V64.5518H204.414H208V60.9656V57.3794H204.414H200.828V60.9656V64.5518H193.655H186.483V71.7243V78.8967H182.897H179.31V71.7243V64.5518H172.138H164.966V60.9656V57.3794H161.379H157.793V60.9656V64.5518H161.379H164.966V68.1381V71.7243H161.379H157.793V75.3105V78.8967H161.379H164.966V82.4829V86.0691H157.793H150.621V78.8967V71.7243H147.034H143.448V68.1381V64.5518H139.862H136.276V60.9656V57.3794H129.103H121.931V50.207V43.0346H125.517H129.103V46.6208V50.207H132.69H136.276V46.6208V43.0346H132.69H129.103V39.4484V35.8622H136.276H143.448V46.6208V57.3794H147.034H150.621V32.276V7.17254H143.448H136.276V3.58633V0.00012207H132.69H129.103V3.58633V7.17254H132.69H136.276V10.7587V14.3449H139.862H143.448V17.9312V21.5174H139.862H136.276V25.1036V28.6898H132.69H129.103V25.1036V21.5174H125.517H121.931V14.3449V7.17254H118.345H114.759V10.7587V14.3449H111.172H107.586V10.7587V7.17254H104H100.414V3.58633V0.00012207H96.8276H93.2414V3.58633V7.17254H89.6552H86.069V3.58633V0.00012207H71.7241H57.3793V3.58633ZM157.793 25.1036V50.207H182.897H208V25.1036V0.00012207H182.897H157.793V25.1036ZM43.0345 25.1036V43.0346H25.1034H7.17241V25.1036V7.17254H25.1034H43.0345V25.1036ZM200.828 25.1036V43.0346H182.897H164.966V25.1036V7.17254H182.897H200.828V25.1036ZM14.3448 25.1036V35.8622H25.1034H35.8621V25.1036V14.3449H25.1034H14.3448V25.1036ZM93.2414 17.9312V21.5174H89.6552H86.069V17.9312V14.3449H89.6552H93.2414V17.9312ZM107.586 17.9312V21.5174H111.172H114.759V28.6898V35.8622H118.345H121.931V39.4484V43.0346H118.345H114.759V46.6208V50.207H111.172H107.586V46.6208V43.0346H104H100.414V46.6208V50.207H96.8276H93.2414V53.7932V57.3794H104H114.759V60.9656V64.5518H118.345H121.931V68.1381V71.7243H132.69H143.448V75.3105V78.8967H139.862H136.276V82.4829V86.0691H139.862H143.448V89.6553V93.2415H150.621H157.793V96.8277V100.414H161.379H164.966V104V107.586H168.552H172.138V104V100.414H179.31H186.483V107.586V114.759H182.897H179.31V118.345V121.931H182.897H186.483V125.517V129.104H182.897H179.31V125.517V121.931H175.724H172.138V129.104V136.276H161.379H150.621V139.862V143.448H147.034H143.448V150.621V157.793H139.862H136.276V154.207V150.621H132.69H129.103V147.035V143.448H125.517H121.931V139.862V136.276H118.345H114.759V139.862V143.448H111.172H107.586V139.862V136.276H100.414H93.2414V132.69V129.104H86.069H78.8965V132.69V136.276H75.3103H71.7241V139.862V143.448H68.1379H64.5517V147.035V150.621H60.9655H57.3793V147.035V143.448H43.0345H28.6897V136.276V129.104H25.1034H21.5172V136.276V143.448H17.931H14.3448V136.276V129.104H10.7586H7.17241V121.931V114.759H10.7586H14.3448V111.173V107.586H25.1034H35.8621V111.173V114.759H32.2759H28.6897V121.931V129.104H35.8621H43.0345V125.517V121.931H46.6207H50.2069V118.345V114.759H46.6207H43.0345V111.173V107.586H57.3793H71.7241V114.759V121.931H78.8965H86.069V118.345V114.759H89.6552H93.2414V111.173V107.586H96.8276H100.414V104V100.414H104H107.586V118.345V136.276H111.172H114.759V125.517V114.759H118.345H121.931V111.173V107.586H125.517H129.103V104V100.414H125.517H121.931V96.8277V93.2415H118.345H114.759V89.6553V86.0691H111.172H107.586V89.6553V93.2415H100.414H93.2414V96.8277V100.414H89.6552H86.069V104V107.586H82.4828H78.8965V104V100.414H82.4828H86.069V82.4829V64.5518H78.8965H71.7241V68.1381V71.7243H75.3103H78.8965V78.8967V86.0691H71.7241H64.5517V89.6553V93.2415H68.1379H71.7241V96.8277V100.414H68.1379H64.5517V96.8277V93.2415H57.3793H50.2069V96.8277V100.414H43.0345H35.8621V96.8277V93.2415H32.2759H28.6897V89.6553V86.0691H25.1034H21.5172V82.4829V78.8967H25.1034H28.6897V71.7243V64.5518H32.2759H35.8621V68.1381V71.7243H39.4483H43.0345V68.1381V64.5518H46.6207H50.2069V68.1381V71.7243H57.3793H64.5517V68.1381V64.5518H68.1379H71.7241V57.3794V50.207H68.1379H64.5517V46.6208V43.0346H68.1379H71.7241V39.4484V35.8622H75.3103H78.8965V39.4484V43.0346H82.4828H86.069V39.4484V35.8622H89.6552H93.2414V32.276V28.6898H96.8276H100.414V21.5174V14.3449H104H107.586V17.9312ZM172.138 25.1036V35.8622H182.897H193.655V25.1036V14.3449H182.897H172.138V25.1036ZM71.7241 46.6208V50.207H75.3103H78.8965V46.6208V43.0346H75.3103H71.7241V46.6208ZM86.069 46.6208V50.207H89.6552H93.2414V46.6208V43.0346H89.6552H86.069V46.6208ZM86.069 60.9656V64.5518H89.6552H93.2414V71.7243V78.8967H96.8276H100.414V82.4829V86.0691H104H107.586V82.4829V78.8967H111.172H114.759V71.7243V64.5518H111.172H107.586V71.7243V78.8967H104H100.414V71.7243V64.5518H96.8276H93.2414V60.9656V57.3794H89.6552H86.069V60.9656ZM43.0345 75.3105V78.8967H39.4483H35.8621V82.4829V86.0691H39.4483H43.0345V89.6553V93.2415H46.6207H50.2069V89.6553V86.0691H53.7931H57.3793V82.4829V78.8967H53.7931H50.2069V75.3105V71.7243H46.6207H43.0345V75.3105ZM64.5517 75.3105V78.8967H68.1379H71.7241V75.3105V71.7243H68.1379H64.5517V75.3105ZM172.138 75.3105V78.8967H168.552H164.966V75.3105V71.7243H168.552H172.138V75.3105ZM50.2069 82.4829V86.0691H46.6207H43.0345V82.4829V78.8967H46.6207H50.2069V82.4829ZM121.931 86.0691V93.2415H125.517H129.103V96.8277V100.414H132.69H136.276V104V107.586H132.69H129.103V111.173V114.759H125.517H121.931V121.931V129.104H125.517H129.103V132.69V136.276H132.69H136.276V139.862V143.448H139.862H143.448V139.862V136.276H147.034H150.621V118.345V100.414H143.448H136.276V96.8277V93.2415H132.69H129.103V86.0691V78.8967H125.517H121.931V86.0691ZM21.5172 96.8277V100.414H17.931H14.3448V96.8277V93.2415H17.931H21.5172V96.8277ZM143.448 111.173V114.759H139.862H136.276V118.345V121.931H132.69H129.103V118.345V114.759H132.69H136.276V111.173V107.586H139.862H143.448V111.173ZM172.138 111.173V114.759H175.724H179.31V111.173V107.586H175.724H172.138V111.173ZM14.3448 121.931V129.104H17.931H21.5172V121.931V114.759H17.931H14.3448V121.931ZM57.3793 118.345V121.931H53.7931H50.2069V125.517V129.104H46.6207H43.0345V132.69V136.276H46.6207H50.2069V132.69V129.104H53.7931H57.3793V132.69V136.276H60.9655H64.5517V132.69V129.104H60.9655H57.3793V125.517V121.931H60.9655H64.5517V118.345V114.759H60.9655H57.3793V118.345ZM93.2414 118.345V121.931H96.8276H100.414V118.345V114.759H96.8276H93.2414V118.345ZM78.8965 154.207V157.793H75.3103H71.7241V154.207V150.621H75.3103H78.8965V154.207ZM107.586 157.793V164.966H104H100.414V157.793V150.621H104H107.586V157.793ZM121.931 154.207V157.793H125.517H129.103V161.379V164.966H125.517H121.931V161.379V157.793H118.345H114.759V154.207V150.621H118.345H121.931V154.207ZM172.138 161.379V172.138H161.379H150.621V161.379V150.621H161.379H172.138V161.379ZM0 182.897V208H25.1034H50.2069V182.897V157.793H25.1034H0V182.897ZM157.793 161.379V164.966H161.379H164.966V161.379V157.793H161.379H157.793V161.379ZM43.0345 182.897V200.828H25.1034H7.17241V182.897V164.966H25.1034H43.0345V182.897ZM14.3448 182.897V193.655H25.1034H35.8621V182.897V172.138H25.1034H14.3448V182.897ZM86.069 190.069V193.655H82.4828H78.8965V190.069V186.483H82.4828H86.069V190.069ZM71.7241 197.242V200.828H68.1379H64.5517V197.242V193.655H68.1379H71.7241V197.242Z" fill="#201F1F"/>
</svg>
