<svg width="42" height="42" viewBox="0 0 42 42" fill="none" xmlns="http://www.w3.org/2000/svg">
<path d="M26.589 21C26.589 24.0888 24.0854 26.5928 20.9971 26.5928M26.589 21C26.589 17.9112 24.0854 15.4072 20.9971 15.4072M26.589 21H37.9768M20.9971 26.5928C17.9087 26.5928 15.4051 24.0888 15.4051 21M20.9971 26.5928V37.9822M15.4051 21C15.4051 17.9112 17.9087 15.4072 20.9971 15.4072M15.4051 21H4.01733M20.9971 15.4072V4.01777M20.9971 4.01777L24.0202 1M20.9971 4.01777L17.9739 1M25.3891 5.77134L20.9971 10.164L16.6051 5.77134M37.9768 21L41 24.0236M37.9768 21L41 17.9764M36.2235 25.3927L31.8315 21L36.2235 16.6073M20.9971 37.9822L17.9739 41M20.9971 37.9822L24.0202 41M16.6051 36.2287L20.9971 31.836L25.3891 36.2287M4.01733 21L1 17.9764M4.01733 21L1 24.0236M5.77064 16.6073L10.1627 21L5.77064 25.3927M24.9522 17.0443L32.2859 9.71542M32.2859 9.71542L32.2859 5.96943M32.2859 9.71542L36.0313 9.71543M25.3949 10.5893C27.9288 11.6612 29.9908 13.6304 31.1791 16.1005M24.9522 24.9557L32.2859 32.2904M32.2859 32.2904L36.0313 32.2904M32.2859 32.2904L32.2859 36.0364M31.4121 25.3985C30.3403 27.9327 28.3715 29.995 25.9017 31.1835M17.042 24.9557L9.71415 32.2904M9.71415 32.2904L9.71416 36.0364M9.71415 32.2904L5.96871 32.2904M16.5992 31.4165C14.0654 30.3446 12.0033 28.3755 10.815 25.9053M17.042 17.0443L9.71415 9.71542M9.71415 9.71542L5.96871 9.71543M9.71415 9.71542L9.71416 5.96943M10.5879 16.6015C11.6597 14.0673 13.6285 12.0049 16.0983 10.8165" stroke="#BEBEB6" stroke-opacity="0.4" stroke-width="2"/>
</svg>
