<svg width="74" height="74" viewBox="0 0 74 74" fill="none" xmlns="http://www.w3.org/2000/svg">
<path d="M47.0603 37C47.0603 42.5599 42.5538 47.067 36.9948 47.067M47.0603 37C47.0603 31.4402 42.5538 26.933 36.9948 26.933M47.0603 37H67.5583M36.9948 47.067C31.4357 47.067 26.9292 42.5599 26.9292 37M36.9948 47.067V67.568M26.9292 37C26.9292 31.4402 31.4357 26.933 36.9948 26.933M26.9292 37H6.43119M36.9948 26.933V6.43198M36.9948 6.43198L42.4364 1M36.9948 6.43198L31.5531 1M44.9004 9.58841L36.9948 17.4952L29.0891 9.58841M67.5583 37L73 42.4425M67.5583 37L73 31.5575M64.4024 44.9068L56.4967 37L64.4024 29.0932M36.9948 67.568L31.5531 73M36.9948 67.568L42.4364 73M29.0891 64.4116L36.9948 56.5048L44.9004 64.4116M6.43119 37L1 31.5575M6.43119 37L1 42.4425M9.58716 29.0932L17.4928 37L9.58716 44.9068M44.114 29.8797L57.3145 16.6878M57.3145 16.6878L57.3146 9.94498M57.3145 16.6878L64.0564 16.6878M44.9109 18.2607C49.4718 20.1902 53.1835 23.7347 55.3224 28.1809M44.114 44.1203L57.3145 57.3227M57.3145 57.3227L64.0564 57.3228M57.3145 57.3227L57.3146 64.0656M55.7418 44.9173C53.8126 49.4789 50.2687 53.1911 45.8231 55.3303M29.8755 44.1203L16.6855 57.3227M16.6855 57.3227L16.6855 64.0656M16.6855 57.3227L9.94367 57.3228M29.0786 55.7498C24.5177 53.8203 20.806 50.2759 18.6671 45.8296M29.8755 29.8797L16.6855 16.6878M16.6855 16.6878L9.94367 16.6878M16.6855 16.6878L16.6855 9.94498M18.2582 29.0827C20.1874 24.5211 23.7313 20.8089 28.177 18.6697" stroke="#BEBEB6" stroke-opacity="0.4" stroke-width="2"/>
</svg>
