<svg width="46" height="46" viewBox="0 0 46 46" fill="none" xmlns="http://www.w3.org/2000/svg">
<path d="M29.148 23C29.148 26.3977 26.394 29.1521 22.9968 29.1521M29.148 23C29.148 19.6023 26.394 16.8479 22.9968 16.8479M29.148 23H41.6745M22.9968 29.1521C19.5996 29.1521 16.8456 26.3977 16.8456 23M22.9968 29.1521V41.6805M16.8456 23C16.8456 19.6023 19.5996 16.8479 22.9968 16.8479M16.8456 23H4.31906M22.9968 16.8479V4.31955M22.9968 4.31955L26.3223 1M22.9968 4.31955L19.6713 1M27.828 6.24847L22.9968 11.0804L18.1656 6.24847M41.6745 23L45 26.326M41.6745 23L45 19.674M39.7459 27.8319L34.9147 23L39.7459 18.1681M22.9968 41.6805L19.6713 45M22.9968 41.6805L26.3223 45M18.1656 39.7515L22.9968 34.9196L27.828 39.7515M4.31906 23L1 19.674M4.31906 23L1 26.326M6.24771 18.1681L11.0789 23L6.24771 27.8319M27.3475 18.6487L35.4144 10.587M35.4144 10.587L35.4145 6.46637M35.4144 10.587L39.5345 10.587M27.8344 11.5482C30.6217 12.7274 32.8899 14.8934 34.197 17.6106M27.3475 27.3513L35.4144 35.4194M35.4144 35.4194L39.5345 35.4195M35.4144 35.4194L35.4145 39.5401M34.4533 27.8383C33.2744 30.626 31.1086 32.8946 28.3919 34.2019M18.6461 27.3513L10.5856 35.4194M10.5856 35.4194L10.5856 39.5401M10.5856 35.4194L6.46558 35.4195M18.1592 34.4582C15.3719 33.2791 13.1037 31.113 11.7965 28.3959M18.6461 18.6487L10.5856 10.587M10.5856 10.587L6.46558 10.587M10.5856 10.587L10.5856 6.46637M11.5467 18.1616C12.7257 15.374 14.8914 13.1054 17.6081 11.7981" stroke="#BEBEB6" stroke-opacity="0.4" stroke-width="2"/>
</svg>
