<svg width="116" height="212" viewBox="0 0 116 212" fill="none" xmlns="http://www.w3.org/2000/svg">
<path d="M23 180.423V210L0 196.789V167.014L23 180.423Z" fill="white"/>
<path d="M23 180.423V210L0 196.789V167.014L23 180.423Z" fill="url(#paint0_linear_7477_97990)" fill-opacity="0.2"/>
<path d="M23 180.423V186.338L0 173.127V167.014L23 180.423Z" fill="white"/>
<path d="M23 180.423V186.338L0 173.127V167.014L23 180.423Z" fill="url(#paint1_linear_7477_97990)" fill-opacity="0.6"/>
<path d="M23 180.423V210L46 196.789V167.014L23 180.423Z" fill="white"/>
<path d="M23 180.423V210L46 196.789V167.014L23 180.423Z" fill="url(#paint2_linear_7477_97990)" fill-opacity="0.6"/>
<path d="M23 180.423V186.338L46 173.127V167.014L23 180.423Z" fill="white"/>
<path d="M23 180.423V186.338L46 173.127V167.014L23 180.423Z" fill="url(#paint3_linear_7477_97990)" fill-opacity="0.8"/>
<g filter="url(#filter0_i_7477_97990)">
<path d="M0 167.018L23 180.43L46 167.018L22.8 154L0 167.018Z" fill="white"/>
<path d="M0 167.018L23 180.43L46 167.018L22.8 154L0 167.018Z" fill="url(#paint4_linear_7477_97990)" fill-opacity="0.6"/>
</g>
<path d="M32.7046 174.83V204.664L36.9235 202.39V172.355L32.7046 174.83Z" fill="#CACDCF"/>
<path d="M9.46899 161.429L32.7307 174.83L36.9235 172.355L13.6094 159.021L9.46899 161.429Z" fill="#FBFBFB"/>
<path d="M13.4313 174.892V204.726L9.34326 202.514V172.479L13.4313 174.892Z" fill="#ECEDEE"/>
<path d="M36.4784 161.563L13.4052 174.892L9.34326 172.479L32.4637 159.222L36.4784 161.563Z" fill="#FBFBFB"/>
<g opacity="0.6" filter="url(#filter1_f_7477_97990)">
<path d="M62.9997 196C81.6268 196 96.727 188.416 96.727 179.062C96.727 169.707 81.6268 162.123 62.9997 162.123C44.3727 162.123 29.2725 169.707 29.2725 179.062C29.2725 188.416 44.3727 196 62.9997 196Z" fill="#EBECED"/>
</g>
<path d="M52.1589 120.988H73.8408V175.097C73.8408 179.96 69.9536 183.901 65.1571 183.901H60.8426C56.0461 183.901 52.1589 179.96 52.1589 175.097V120.988Z" fill="white"/>
<path d="M52.1589 120.988H73.8408V175.097C73.8408 179.96 69.9536 183.901 65.1571 183.901H60.8426C56.0461 183.901 52.1589 179.96 52.1589 175.097V120.988Z" fill="url(#paint5_linear_7477_97990)"/>
<g filter="url(#filter2_i_7477_97990)">
<path d="M114.151 119.449H114.174L114.018 119.179C113.544 118.195 112.992 117.235 112.362 116.294L63 30.2471L13.6382 116.294C13.0081 117.235 12.4561 118.195 11.9824 119.179L11.826 119.449H11.849C10.6531 122.031 10 124.749 10 127.554C10 144.642 33.7288 158.494 63 158.494C92.2712 158.494 116 144.642 116 127.554C116.005 124.749 115.351 122.031 114.151 119.449Z" fill="url(#paint6_linear_7477_97990)"/>
</g>
<g filter="url(#filter3_i_7477_97990)">
<path d="M103.687 90.0487H103.705L103.582 89.8317C103.207 89.0514 102.768 88.2896 102.265 87.5463L63.0004 19.3577L23.7361 87.5463C23.233 88.2896 22.794 89.0514 22.419 89.8317L22.2955 90.0487H22.3138C21.3581 92.0987 20.8413 94.2502 20.8413 96.471C20.8413 110.013 39.7144 120.987 63.0004 120.987C86.2865 120.987 105.159 110.008 105.159 96.471C105.159 94.2456 104.643 92.0941 103.687 90.0487Z" fill="url(#paint7_linear_7477_97990)"/>
</g>
<g filter="url(#filter4_i_7477_97990)">
<path d="M95.5517 64.0149H95.5654L95.4648 63.8471C95.163 63.2349 94.8108 62.6363 94.413 62.0514L62.9997 8.46912L31.5865 62.0468C31.1841 62.6318 30.8319 63.2304 30.5347 63.8426L30.4341 64.0104H30.4478C29.684 65.6202 29.2725 67.3116 29.2725 69.0575C29.2725 79.696 44.3731 88.321 62.9997 88.321C81.6263 88.321 96.727 79.696 96.727 69.0575C96.727 67.3116 96.3154 65.6247 95.5517 64.0149Z" fill="url(#paint8_linear_7477_97990)"/>
</g>
<g filter="url(#filter5_i_7477_97990)">
<path d="M89.7322 40.2437H89.7463L89.6665 40.1021C89.4176 39.5924 89.1312 39.092 88.8025 38.6058L68.2166 3.01967C65.8876 -1.00672 60.1025 -1.00672 57.7734 3.01967L37.1922 38.6105C36.8635 39.0967 36.5724 39.5971 36.3282 40.1069L36.2484 40.2485H36.2625C35.6379 41.589 35.2952 42.9957 35.2952 44.4495C35.2952 53.3095 47.6965 60.4937 62.9997 60.4937C78.3029 60.4937 90.7043 53.3095 90.7043 44.4495C90.6996 42.9909 90.3615 41.5843 89.7322 40.2437Z" fill="url(#paint9_linear_7477_97990)"/>
</g>
<defs>
<filter id="filter0_i_7477_97990" x="0" y="154" width="46" height="26.4299" filterUnits="userSpaceOnUse" color-interpolation-filters="sRGB">
<feFlood flood-opacity="0" result="BackgroundImageFix"/>
<feBlend mode="normal" in="SourceGraphic" in2="BackgroundImageFix" result="shape"/>
<feColorMatrix in="SourceAlpha" type="matrix" values="0 0 0 0 0 0 0 0 0 0 0 0 0 0 0 0 0 0 127 0" result="hardAlpha"/>
<feOffset dy="-1"/>
<feComposite in2="hardAlpha" operator="arithmetic" k2="-1" k3="1"/>
<feColorMatrix type="matrix" values="0 0 0 0 1 0 0 0 0 1 0 0 0 0 1 0 0 0 1 0"/>
<feBlend mode="normal" in2="shape" result="effect1_innerShadow_7477_97990"/>
</filter>
<filter id="filter1_f_7477_97990" x="13.2725" y="146.123" width="99.4545" height="65.8766" filterUnits="userSpaceOnUse" color-interpolation-filters="sRGB">
<feFlood flood-opacity="0" result="BackgroundImageFix"/>
<feBlend mode="normal" in="SourceGraphic" in2="BackgroundImageFix" result="shape"/>
<feGaussianBlur stdDeviation="8" result="effect1_foregroundBlur_7477_97990"/>
</filter>
<filter id="filter2_i_7477_97990" x="10" y="30.2471" width="106" height="128.247" filterUnits="userSpaceOnUse" color-interpolation-filters="sRGB">
<feFlood flood-opacity="0" result="BackgroundImageFix"/>
<feBlend mode="normal" in="SourceGraphic" in2="BackgroundImageFix" result="shape"/>
<feColorMatrix in="SourceAlpha" type="matrix" values="0 0 0 0 0 0 0 0 0 0 0 0 0 0 0 0 0 0 127 0" result="hardAlpha"/>
<feOffset dy="-4"/>
<feComposite in2="hardAlpha" operator="arithmetic" k2="-1" k3="1"/>
<feColorMatrix type="matrix" values="0 0 0 0 1 0 0 0 0 1 0 0 0 0 1 0 0 0 0.4 0"/>
<feBlend mode="normal" in2="shape" result="effect1_innerShadow_7477_97990"/>
</filter>
<filter id="filter3_i_7477_97990" x="20.8413" y="19.3577" width="84.3182" height="101.63" filterUnits="userSpaceOnUse" color-interpolation-filters="sRGB">
<feFlood flood-opacity="0" result="BackgroundImageFix"/>
<feBlend mode="normal" in="SourceGraphic" in2="BackgroundImageFix" result="shape"/>
<feColorMatrix in="SourceAlpha" type="matrix" values="0 0 0 0 0 0 0 0 0 0 0 0 0 0 0 0 0 0 127 0" result="hardAlpha"/>
<feOffset dy="-4"/>
<feComposite in2="hardAlpha" operator="arithmetic" k2="-1" k3="1"/>
<feColorMatrix type="matrix" values="0 0 0 0 1 0 0 0 0 1 0 0 0 0 1 0 0 0 0.4 0"/>
<feBlend mode="normal" in2="shape" result="effect1_innerShadow_7477_97990"/>
</filter>
<filter id="filter4_i_7477_97990" x="29.2725" y="8.46912" width="67.4545" height="79.8519" filterUnits="userSpaceOnUse" color-interpolation-filters="sRGB">
<feFlood flood-opacity="0" result="BackgroundImageFix"/>
<feBlend mode="normal" in="SourceGraphic" in2="BackgroundImageFix" result="shape"/>
<feColorMatrix in="SourceAlpha" type="matrix" values="0 0 0 0 0 0 0 0 0 0 0 0 0 0 0 0 0 0 127 0" result="hardAlpha"/>
<feOffset dy="-4"/>
<feComposite in2="hardAlpha" operator="arithmetic" k2="-1" k3="1"/>
<feColorMatrix type="matrix" values="0 0 0 0 1 0 0 0 0 1 0 0 0 0 1 0 0 0 0.4 0"/>
<feBlend mode="normal" in2="shape" result="effect1_innerShadow_7477_97990"/>
</filter>
<filter id="filter5_i_7477_97990" x="35.2952" y="-0.00012207" width="55.4091" height="60.4938" filterUnits="userSpaceOnUse" color-interpolation-filters="sRGB">
<feFlood flood-opacity="0" result="BackgroundImageFix"/>
<feBlend mode="normal" in="SourceGraphic" in2="BackgroundImageFix" result="shape"/>
<feColorMatrix in="SourceAlpha" type="matrix" values="0 0 0 0 0 0 0 0 0 0 0 0 0 0 0 0 0 0 127 0" result="hardAlpha"/>
<feOffset dy="-4"/>
<feComposite in2="hardAlpha" operator="arithmetic" k2="-1" k3="1"/>
<feColorMatrix type="matrix" values="0 0 0 0 1 0 0 0 0 1 0 0 0 0 1 0 0 0 0.4 0"/>
<feBlend mode="normal" in2="shape" result="effect1_innerShadow_7477_97990"/>
</filter>
<linearGradient id="paint0_linear_7477_97990" x1="28.0918" y1="213.135" x2="1.46002" y2="213.459" gradientUnits="userSpaceOnUse">
<stop stop-color="#BDC6CB" stop-opacity="0.36"/>
<stop offset="1" stop-color="#B7BEC8"/>
</linearGradient>
<linearGradient id="paint1_linear_7477_97990" x1="57.6827" y1="169.336" x2="2.25487" y2="161.564" gradientUnits="userSpaceOnUse">
<stop stop-color="#CCD1D3" stop-opacity="0.36"/>
<stop offset="1" stop-color="#C3C6CA"/>
</linearGradient>
<linearGradient id="paint2_linear_7477_97990" x1="-11.6827" y1="172.179" x2="44.6112" y2="168.631" gradientUnits="userSpaceOnUse">
<stop stop-color="#CCD1D3" stop-opacity="0.36"/>
<stop offset="1" stop-color="#C3C6CA"/>
</linearGradient>
<linearGradient id="paint3_linear_7477_97990" x1="-11.6827" y1="169.336" x2="43.7451" y2="161.564" gradientUnits="userSpaceOnUse">
<stop stop-color="#CCD1D3" stop-opacity="0.36"/>
<stop offset="1" stop-color="#C3C6CA"/>
</linearGradient>
<linearGradient id="paint4_linear_7477_97990" x1="115.365" y1="157.176" x2="6.89042" y2="134.935" gradientUnits="userSpaceOnUse">
<stop stop-color="#CCD1D3" stop-opacity="0.36"/>
<stop offset="1" stop-color="#C3C6CA"/>
</linearGradient>
<linearGradient id="paint5_linear_7477_97990" x1="52.1589" y1="152.444" x2="73.8408" y2="152.444" gradientUnits="userSpaceOnUse">
<stop offset="0.266393" stop-color="#F7F8F9"/>
<stop offset="1" stop-color="#E2E3E4"/>
</linearGradient>
<linearGradient id="paint6_linear_7477_97990" x1="10" y1="94.3706" x2="92.1988" y2="71.8028" gradientUnits="userSpaceOnUse">
<stop stop-color="#F8F9F9"/>
<stop offset="0.491083" stop-color="#ECEDEE"/>
<stop offset="1" stop-color="#DBDEDF"/>
</linearGradient>
<linearGradient id="paint7_linear_7477_97990" x1="20.8413" y1="70.1725" x2="86.1919" y2="52.1624" gradientUnits="userSpaceOnUse">
<stop stop-color="#F8F9F9"/>
<stop offset="0.491083" stop-color="#ECEDEE"/>
<stop offset="1" stop-color="#DBDEDF"/>
</linearGradient>
<linearGradient id="paint8_linear_7477_97990" x1="29.2725" y1="48.3951" x2="81.4179" y2="33.7629" gradientUnits="userSpaceOnUse">
<stop stop-color="#F8F9F9"/>
<stop offset="0.491083" stop-color="#ECEDEE"/>
<stop offset="1" stop-color="#DBDEDF"/>
</linearGradient>
<linearGradient id="paint9_linear_7477_97990" x1="35.2952" y1="30.2468" x2="77.5866" y2="17.3795" gradientUnits="userSpaceOnUse">
<stop stop-color="#F8F9F9"/>
<stop offset="0.491083" stop-color="#ECEDEE"/>
<stop offset="1" stop-color="#DBDEDF"/>
</linearGradient>
</defs>
</svg>
