<svg width="30" height="56" viewBox="0 0 30 56" fill="none" xmlns="http://www.w3.org/2000/svg">
<path opacity="0.6" d="M14.9999 55.9999C20.2717 55.9999 24.5454 53.8332 24.5454 51.1604C24.5454 48.4876 20.2717 46.3209 14.9999 46.3209C9.72811 46.3209 5.45447 48.4876 5.45447 51.1604C5.45447 53.8332 9.72811 55.9999 14.9999 55.9999Z" fill="#EBECED"/>
<path d="M11.9318 34.5677H18.0681V50.0275C18.0681 51.417 16.968 52.5431 15.6105 52.5431H14.3894C13.0319 52.5431 11.9318 51.417 11.9318 50.0275V34.5677Z" fill="white"/>
<path d="M11.9318 34.5677H18.0681V50.0275C18.0681 51.417 16.968 52.5431 15.6105 52.5431H14.3894C13.0319 52.5431 11.9318 51.417 11.9318 50.0275V34.5677Z" fill="url(#paint0_linear_7751_102746)"/>
<g filter="url(#filter0_i_7751_102746)">
<path d="M29.4767 34.1282H29.4832L29.4389 34.051C29.3049 33.77 29.1487 33.4956 28.9703 33.2266L15 8.64197L1.02968 33.2266C0.851341 33.4956 0.695131 33.77 0.561052 34.051L0.516792 34.1282H0.523301C0.184848 34.866 0 35.6424 0 36.4441C0 41.3261 6.7157 45.2839 15 45.2839C23.2843 45.2839 30 41.3261 30 36.4441C30.0013 35.6424 29.8164 34.866 29.4767 34.1282Z" fill="white"/>
<path d="M29.4767 34.1282H29.4832L29.4389 34.051C29.3049 33.77 29.1487 33.4956 28.9703 33.2266L15 8.64197L1.02968 33.2266C0.851341 33.4956 0.695131 33.77 0.561052 34.051L0.516792 34.1282H0.523301C0.184848 34.866 0 35.6424 0 36.4441C0 41.3261 6.7157 45.2839 15 45.2839C23.2843 45.2839 30 41.3261 30 36.4441C30.0013 35.6424 29.8164 34.866 29.4767 34.1282Z" fill="url(#paint1_linear_7751_102746)" fill-opacity="0.4"/>
</g>
<g filter="url(#filter1_i_7751_102746)">
<path d="M26.5152 25.7281H26.5204L26.4855 25.6661C26.3793 25.4431 26.2551 25.2255 26.1127 25.0131L15.0002 5.53064L3.88763 25.0131C3.74526 25.2255 3.62101 25.4431 3.51488 25.6661L3.47994 25.7281H3.48511C3.21461 26.3138 3.06836 26.9285 3.06836 27.563C3.06836 31.4321 8.40979 34.5677 15.0002 34.5677C21.5906 34.5677 26.932 31.4307 26.932 27.563C26.932 26.9272 26.7857 26.3125 26.5152 25.7281Z" fill="white"/>
<path d="M26.5152 25.7281H26.5204L26.4855 25.6661C26.3793 25.4431 26.2551 25.2255 26.1127 25.0131L15.0002 5.53064L3.88763 25.0131C3.74526 25.2255 3.62101 25.4431 3.51488 25.6661L3.47994 25.7281H3.48511C3.21461 26.3138 3.06836 26.9285 3.06836 27.563C3.06836 31.4321 8.40979 34.5677 15.0002 34.5677C21.5906 34.5677 26.932 31.4307 26.932 27.563C26.932 26.9272 26.7857 26.3125 26.5152 25.7281Z" fill="url(#paint2_linear_7751_102746)" fill-opacity="0.4"/>
</g>
<g filter="url(#filter2_i_7751_102746)">
<path d="M24.2127 18.29H24.2166L24.1882 18.2421C24.1027 18.0672 24.0031 17.8961 23.8905 17.729L14.9999 2.4198L6.10938 17.7277C5.99548 17.8948 5.89582 18.0659 5.81169 18.2408L5.78322 18.2887H5.7871C5.57095 18.7487 5.45447 19.2319 5.45447 19.7308C5.45447 22.7703 9.72824 25.2346 14.9999 25.2346C20.2716 25.2346 24.5454 22.7703 24.5454 19.7308C24.5454 19.2319 24.4289 18.75 24.2127 18.29Z" fill="white"/>
<path d="M24.2127 18.29H24.2166L24.1882 18.2421C24.1027 18.0672 24.0031 17.8961 23.8905 17.729L14.9999 2.4198L6.10938 17.7277C5.99548 17.8948 5.89582 18.0659 5.81169 18.2408L5.78322 18.2887H5.7871C5.57095 18.7487 5.45447 19.2319 5.45447 19.7308C5.45447 22.7703 9.72824 25.2346 14.9999 25.2346C20.2716 25.2346 24.5454 22.7703 24.5454 19.7308C24.5454 19.2319 24.4289 18.75 24.2127 18.29Z" fill="url(#paint3_linear_7751_102746)" fill-opacity="0.4"/>
</g>
<g filter="url(#filter3_i_7751_102746)">
<path d="M22.5658 11.4981H22.5698L22.5472 11.4577C22.4767 11.312 22.3957 11.169 22.3026 11.0301L16.4764 0.862676C15.8173 -0.287721 14.18 -0.287721 13.5208 0.862676L7.69596 11.0315C7.60293 11.1704 7.52054 11.3134 7.45143 11.459L7.42884 11.4995H7.43282C7.25607 11.8825 7.15906 12.2844 7.15906 12.6998C7.15906 15.2312 10.6689 17.2838 15 17.2838C19.3311 17.2838 22.8409 15.2312 22.8409 12.6998C22.8395 12.283 22.7439 11.8811 22.5658 11.4981Z" fill="white"/>
<path d="M22.5658 11.4981H22.5698L22.5472 11.4577C22.4767 11.312 22.3957 11.169 22.3026 11.0301L16.4764 0.862676C15.8173 -0.287721 14.18 -0.287721 13.5208 0.862676L7.69596 11.0315C7.60293 11.1704 7.52054 11.3134 7.45143 11.459L7.42884 11.4995H7.43282C7.25607 11.8825 7.15906 12.2844 7.15906 12.6998C7.15906 15.2312 10.6689 17.2838 15 17.2838C19.3311 17.2838 22.8409 15.2312 22.8409 12.6998C22.8395 12.283 22.7439 11.8811 22.5658 11.4981Z" fill="url(#paint4_linear_7751_102746)" fill-opacity="0.4"/>
</g>
<defs>
<filter id="filter0_i_7751_102746" x="0" y="8.64197" width="30" height="36.642" filterUnits="userSpaceOnUse" color-interpolation-filters="sRGB">
<feFlood flood-opacity="0" result="BackgroundImageFix"/>
<feBlend mode="normal" in="SourceGraphic" in2="BackgroundImageFix" result="shape"/>
<feColorMatrix in="SourceAlpha" type="matrix" values="0 0 0 0 0 0 0 0 0 0 0 0 0 0 0 0 0 0 127 0" result="hardAlpha"/>
<feOffset dy="-4"/>
<feComposite in2="hardAlpha" operator="arithmetic" k2="-1" k3="1"/>
<feColorMatrix type="matrix" values="0 0 0 0 1 0 0 0 0 1 0 0 0 0 1 0 0 0 0.4 0"/>
<feBlend mode="normal" in2="shape" result="effect1_innerShadow_7751_102746"/>
</filter>
<filter id="filter1_i_7751_102746" x="3.06836" y="5.53064" width="23.8636" height="29.037" filterUnits="userSpaceOnUse" color-interpolation-filters="sRGB">
<feFlood flood-opacity="0" result="BackgroundImageFix"/>
<feBlend mode="normal" in="SourceGraphic" in2="BackgroundImageFix" result="shape"/>
<feColorMatrix in="SourceAlpha" type="matrix" values="0 0 0 0 0 0 0 0 0 0 0 0 0 0 0 0 0 0 127 0" result="hardAlpha"/>
<feOffset dy="-4"/>
<feComposite in2="hardAlpha" operator="arithmetic" k2="-1" k3="1"/>
<feColorMatrix type="matrix" values="0 0 0 0 1 0 0 0 0 1 0 0 0 0 1 0 0 0 0.4 0"/>
<feBlend mode="normal" in2="shape" result="effect1_innerShadow_7751_102746"/>
</filter>
<filter id="filter2_i_7751_102746" x="5.45447" y="2.4198" width="19.0909" height="22.8148" filterUnits="userSpaceOnUse" color-interpolation-filters="sRGB">
<feFlood flood-opacity="0" result="BackgroundImageFix"/>
<feBlend mode="normal" in="SourceGraphic" in2="BackgroundImageFix" result="shape"/>
<feColorMatrix in="SourceAlpha" type="matrix" values="0 0 0 0 0 0 0 0 0 0 0 0 0 0 0 0 0 0 127 0" result="hardAlpha"/>
<feOffset dy="-4"/>
<feComposite in2="hardAlpha" operator="arithmetic" k2="-1" k3="1"/>
<feColorMatrix type="matrix" values="0 0 0 0 1 0 0 0 0 1 0 0 0 0 1 0 0 0 0.4 0"/>
<feBlend mode="normal" in2="shape" result="effect1_innerShadow_7751_102746"/>
</filter>
<filter id="filter3_i_7751_102746" x="7.15906" y="-0.00012207" width="15.6818" height="17.2839" filterUnits="userSpaceOnUse" color-interpolation-filters="sRGB">
<feFlood flood-opacity="0" result="BackgroundImageFix"/>
<feBlend mode="normal" in="SourceGraphic" in2="BackgroundImageFix" result="shape"/>
<feColorMatrix in="SourceAlpha" type="matrix" values="0 0 0 0 0 0 0 0 0 0 0 0 0 0 0 0 0 0 127 0" result="hardAlpha"/>
<feOffset dy="-4"/>
<feComposite in2="hardAlpha" operator="arithmetic" k2="-1" k3="1"/>
<feColorMatrix type="matrix" values="0 0 0 0 1 0 0 0 0 1 0 0 0 0 1 0 0 0 0.4 0"/>
<feBlend mode="normal" in2="shape" result="effect1_innerShadow_7751_102746"/>
</filter>
<linearGradient id="paint0_linear_7751_102746" x1="11.9318" y1="43.5554" x2="18.0681" y2="43.5554" gradientUnits="userSpaceOnUse">
<stop offset="0.266393" stop-color="#F7F8F9"/>
<stop offset="1" stop-color="#E2E3E4"/>
</linearGradient>
<linearGradient id="paint1_linear_7751_102746" x1="2.19959e-07" y1="26.963" x2="23.2945" y2="20.6278" gradientUnits="userSpaceOnUse">
<stop stop-color="#BDC6CB" stop-opacity="0.36"/>
<stop offset="0.491083" stop-color="#DCDDE0"/>
<stop offset="1" stop-color="#CACDCF"/>
</linearGradient>
<linearGradient id="paint2_linear_7751_102746" x1="3.06836" y1="20.0492" x2="21.5884" y2="14.9933" gradientUnits="userSpaceOnUse">
<stop stop-color="#BDC6CB" stop-opacity="0.36"/>
<stop offset="0.491083" stop-color="#DCDDE0"/>
<stop offset="1" stop-color="#CACDCF"/>
</linearGradient>
<linearGradient id="paint3_linear_7751_102746" x1="5.45447" y1="13.8272" x2="20.2329" y2="9.71948" gradientUnits="userSpaceOnUse">
<stop stop-color="#BDC6CB" stop-opacity="0.36"/>
<stop offset="0.491083" stop-color="#DCDDE0"/>
<stop offset="1" stop-color="#CACDCF"/>
</linearGradient>
<linearGradient id="paint4_linear_7751_102746" x1="7.15906" y1="8.64185" x2="19.1474" y2="5.02877" gradientUnits="userSpaceOnUse">
<stop stop-color="#BDC6CB" stop-opacity="0.36"/>
<stop offset="0.491083" stop-color="#DCDDE0"/>
<stop offset="1" stop-color="#CACDCF"/>
</linearGradient>
</defs>
</svg>
