<svg width="38" height="70" viewBox="0 0 38 70" fill="none" xmlns="http://www.w3.org/2000/svg">
<path opacity="0.6" d="M19.0001 69.9999C25.6777 69.9999 31.091 67.2915 31.091 63.9505C31.091 60.6095 25.6777 57.9011 19.0001 57.9011C12.3225 57.9011 6.90918 60.6095 6.90918 63.9505C6.90918 67.2915 12.3225 69.9999 19.0001 69.9999Z" fill="#BEBEB6" fill-opacity="0.2"/>
<path d="M15.1138 43.2097H22.8865V62.5344C22.8865 64.2712 21.493 65.6789 19.7735 65.6789H18.2268C16.5073 65.6789 15.1138 64.2712 15.1138 62.5344V43.2097Z" fill="white"/>
<path d="M15.1138 43.2097H22.8865V62.5344C22.8865 64.2712 21.493 65.6789 19.7735 65.6789H18.2268C16.5073 65.6789 15.1138 64.2712 15.1138 62.5344V43.2097Z" fill="url(#paint0_linear_7660_103539)"/>
<g filter="url(#filter0_i_7660_103539)">
<path d="M37.3371 42.6603H37.3454L37.2893 42.5638C37.1195 42.2125 36.9216 41.8696 36.6957 41.5333L19 10.8025L1.30426 41.5333C1.07836 41.8696 0.8805 42.2125 0.710665 42.5638L0.654604 42.6603H0.662848C0.23414 43.5825 0 44.553 0 45.5551C0 51.6577 8.50655 56.605 19 56.605C29.4934 56.605 38 51.6577 38 45.5551C38.0016 44.553 37.7675 43.5825 37.3371 42.6603Z" fill="white"/>
<path d="M37.3371 42.6603H37.3454L37.2893 42.5638C37.1195 42.2125 36.9216 41.8696 36.6957 41.5333L19 10.8025L1.30426 41.5333C1.07836 41.8696 0.8805 42.2125 0.710665 42.5638L0.654604 42.6603H0.662848C0.23414 43.5825 0 44.553 0 45.5551C0 51.6577 8.50655 56.605 19 56.605C29.4934 56.605 38 51.6577 38 45.5551C38.0016 44.553 37.7675 43.5825 37.3371 42.6603Z" fill="url(#paint1_linear_7660_103539)" fill-opacity="0.4"/>
</g>
<g filter="url(#filter1_i_7660_103539)">
<path d="M33.5856 32.1604H33.5922L33.5479 32.0829C33.4135 31.8042 33.2561 31.5321 33.0758 31.2667L18.9999 6.91357L4.92397 31.2667C4.74364 31.5321 4.58625 31.8042 4.45182 32.0829L4.40756 32.1604H4.41412C4.07148 32.8925 3.88623 33.6609 3.88623 34.454C3.88623 39.2904 10.652 43.2099 18.9999 43.2099C27.3477 43.2099 34.1135 39.2887 34.1135 34.454C34.1135 33.6593 33.9282 32.8909 33.5856 32.1604Z" fill="white"/>
<path d="M33.5856 32.1604H33.5922L33.5479 32.0829C33.4135 31.8042 33.2561 31.5321 33.0758 31.2667L18.9999 6.91357L4.92397 31.2667C4.74364 31.5321 4.58625 31.8042 4.45182 32.0829L4.40756 32.1604H4.41412C4.07148 32.8925 3.88623 33.6609 3.88623 34.454C3.88623 39.2904 10.652 43.2099 18.9999 43.2099C27.3477 43.2099 34.1135 39.2887 34.1135 34.454C34.1135 33.6593 33.9282 32.8909 33.5856 32.1604Z" fill="url(#paint2_linear_7660_103539)" fill-opacity="0.4"/>
</g>
<g filter="url(#filter2_i_7660_103539)">
<path d="M30.6697 22.8624H30.6746L30.6385 22.8025C30.5303 22.5839 30.4041 22.3701 30.2614 22.1612L19.0001 3.02466L7.73874 22.1595C7.59447 22.3685 7.46823 22.5822 7.36167 22.8009L7.3256 22.8608H7.33052C7.05673 23.4357 6.90918 24.0398 6.90918 24.6634C6.90918 28.4628 12.3226 31.5432 19.0001 31.5432C25.6775 31.5432 31.091 28.4628 31.091 24.6634C31.091 24.0398 30.9434 23.4374 30.6697 22.8624Z" fill="white"/>
<path d="M30.6697 22.8624H30.6746L30.6385 22.8025C30.5303 22.5839 30.4041 22.3701 30.2614 22.1612L19.0001 3.02466L7.73874 22.1595C7.59447 22.3685 7.46823 22.5822 7.36167 22.8009L7.3256 22.8608H7.33052C7.05673 23.4357 6.90918 24.0398 6.90918 24.6634C6.90918 28.4628 12.3226 31.5432 19.0001 31.5432C25.6775 31.5432 31.091 28.4628 31.091 24.6634C31.091 24.0398 30.9434 23.4374 30.6697 22.8624Z" fill="url(#paint3_linear_7660_103539)" fill-opacity="0.4"/>
</g>
<g filter="url(#filter3_i_7660_103539)">
<path d="M28.5835 14.3728H28.5886L28.56 14.3222C28.4708 14.1402 28.3681 13.9615 28.2502 13.7878L20.8704 1.0785C20.0354 -0.359499 17.9615 -0.359499 17.1266 1.0785L9.74844 13.7895C9.6306 13.9632 9.52623 14.1419 9.4387 14.3239L9.41008 14.3745H9.41513C9.19124 14.8533 9.06836 15.3556 9.06836 15.8749C9.06836 19.0391 13.5141 21.6049 19.0002 21.6049C24.4862 21.6049 28.932 19.0391 28.932 15.8749C28.9303 15.3539 28.8091 14.8516 28.5835 14.3728Z" fill="white"/>
<path d="M28.5835 14.3728H28.5886L28.56 14.3222C28.4708 14.1402 28.3681 13.9615 28.2502 13.7878L20.8704 1.0785C20.0354 -0.359499 17.9615 -0.359499 17.1266 1.0785L9.74844 13.7895C9.6306 13.9632 9.52623 14.1419 9.4387 14.3239L9.41008 14.3745H9.41513C9.19124 14.8533 9.06836 15.3556 9.06836 15.8749C9.06836 19.0391 13.5141 21.6049 19.0002 21.6049C24.4862 21.6049 28.932 19.0391 28.932 15.8749C28.9303 15.3539 28.8091 14.8516 28.5835 14.3728Z" fill="url(#paint4_linear_7660_103539)" fill-opacity="0.4"/>
</g>
<defs>
<filter id="filter0_i_7660_103539" x="0" y="10.8025" width="38" height="45.8025" filterUnits="userSpaceOnUse" color-interpolation-filters="sRGB">
<feFlood flood-opacity="0" result="BackgroundImageFix"/>
<feBlend mode="normal" in="SourceGraphic" in2="BackgroundImageFix" result="shape"/>
<feColorMatrix in="SourceAlpha" type="matrix" values="0 0 0 0 0 0 0 0 0 0 0 0 0 0 0 0 0 0 127 0" result="hardAlpha"/>
<feOffset dy="-4"/>
<feComposite in2="hardAlpha" operator="arithmetic" k2="-1" k3="1"/>
<feColorMatrix type="matrix" values="0 0 0 0 1 0 0 0 0 1 0 0 0 0 1 0 0 0 0.6 0"/>
<feBlend mode="normal" in2="shape" result="effect1_innerShadow_7660_103539"/>
</filter>
<filter id="filter1_i_7660_103539" x="3.88623" y="6.91357" width="30.2273" height="36.2964" filterUnits="userSpaceOnUse" color-interpolation-filters="sRGB">
<feFlood flood-opacity="0" result="BackgroundImageFix"/>
<feBlend mode="normal" in="SourceGraphic" in2="BackgroundImageFix" result="shape"/>
<feColorMatrix in="SourceAlpha" type="matrix" values="0 0 0 0 0 0 0 0 0 0 0 0 0 0 0 0 0 0 127 0" result="hardAlpha"/>
<feOffset dy="-4"/>
<feComposite in2="hardAlpha" operator="arithmetic" k2="-1" k3="1"/>
<feColorMatrix type="matrix" values="0 0 0 0 1 0 0 0 0 1 0 0 0 0 1 0 0 0 0.6 0"/>
<feBlend mode="normal" in2="shape" result="effect1_innerShadow_7660_103539"/>
</filter>
<filter id="filter2_i_7660_103539" x="6.90918" y="3.02466" width="24.1819" height="28.5186" filterUnits="userSpaceOnUse" color-interpolation-filters="sRGB">
<feFlood flood-opacity="0" result="BackgroundImageFix"/>
<feBlend mode="normal" in="SourceGraphic" in2="BackgroundImageFix" result="shape"/>
<feColorMatrix in="SourceAlpha" type="matrix" values="0 0 0 0 0 0 0 0 0 0 0 0 0 0 0 0 0 0 127 0" result="hardAlpha"/>
<feOffset dy="-4"/>
<feComposite in2="hardAlpha" operator="arithmetic" k2="-1" k3="1"/>
<feColorMatrix type="matrix" values="0 0 0 0 1 0 0 0 0 1 0 0 0 0 1 0 0 0 0.6 0"/>
<feBlend mode="normal" in2="shape" result="effect1_innerShadow_7660_103539"/>
</filter>
<filter id="filter3_i_7660_103539" x="9.06836" y="0" width="19.8635" height="21.605" filterUnits="userSpaceOnUse" color-interpolation-filters="sRGB">
<feFlood flood-opacity="0" result="BackgroundImageFix"/>
<feBlend mode="normal" in="SourceGraphic" in2="BackgroundImageFix" result="shape"/>
<feColorMatrix in="SourceAlpha" type="matrix" values="0 0 0 0 0 0 0 0 0 0 0 0 0 0 0 0 0 0 127 0" result="hardAlpha"/>
<feOffset dy="-4"/>
<feComposite in2="hardAlpha" operator="arithmetic" k2="-1" k3="1"/>
<feColorMatrix type="matrix" values="0 0 0 0 1 0 0 0 0 1 0 0 0 0 1 0 0 0 0.6 0"/>
<feBlend mode="normal" in2="shape" result="effect1_innerShadow_7660_103539"/>
</filter>
<linearGradient id="paint0_linear_7660_103539" x1="15.1138" y1="54.4443" x2="22.8865" y2="54.4443" gradientUnits="userSpaceOnUse">
<stop offset="0.266393" stop-color="#F7F8F9"/>
<stop offset="1" stop-color="#EAEBEC"/>
</linearGradient>
<linearGradient id="paint1_linear_7660_103539" x1="2.78615e-07" y1="33.7037" x2="29.4519" y2="25.5872" gradientUnits="userSpaceOnUse">
<stop stop-color="#BDC6CB" stop-opacity="0.36"/>
<stop offset="0.491083" stop-color="#DCDDE0"/>
<stop offset="1" stop-color="#CACDCF"/>
</linearGradient>
<linearGradient id="paint2_linear_7660_103539" x1="3.88623" y1="25.0617" x2="27.3013" y2="18.5844" gradientUnits="userSpaceOnUse">
<stop stop-color="#BDC6CB" stop-opacity="0.36"/>
<stop offset="0.491083" stop-color="#DCDDE0"/>
<stop offset="1" stop-color="#CACDCF"/>
</linearGradient>
<linearGradient id="paint3_linear_7660_103539" x1="6.90918" y1="17.2839" x2="25.5925" y2="12.0216" gradientUnits="userSpaceOnUse">
<stop stop-color="#BDC6CB" stop-opacity="0.36"/>
<stop offset="0.491083" stop-color="#DCDDE0"/>
<stop offset="1" stop-color="#CACDCF"/>
</linearGradient>
<linearGradient id="paint4_linear_7660_103539" x1="9.06836" y1="10.8025" x2="24.2197" y2="6.17522" gradientUnits="userSpaceOnUse">
<stop stop-color="#BDC6CB" stop-opacity="0.36"/>
<stop offset="0.491083" stop-color="#DCDDE0"/>
<stop offset="1" stop-color="#CACDCF"/>
</linearGradient>
</defs>
</svg>
