<svg width="130" height="164" viewBox="0 0 130 164" fill="none" xmlns="http://www.w3.org/2000/svg">
<g opacity="0.6" filter="url(#filter0_f_7477_97990)">
<path d="M88.0002 148C73.942 148 62.5456 142.274 62.5456 135.21C62.5456 128.146 73.942 122.42 88.0002 122.42C102.058 122.42 113.455 128.146 113.455 135.21C113.455 142.274 102.058 148 88.0002 148Z" fill="#BEBEB6" fill-opacity="0.2"/>
</g>
<path d="M96.1818 91.3579H79.8181V132.216C79.8181 135.888 82.7518 138.864 86.3718 138.864H89.6281C93.248 138.864 96.1818 135.888 96.1818 132.216V91.3579Z" fill="white"/>
<path d="M96.1818 91.3579H79.8181V132.216C79.8181 135.888 82.7518 138.864 86.3718 138.864H89.6281C93.248 138.864 96.1818 135.888 96.1818 132.216V91.3579Z" fill="url(#paint0_linear_7477_97990)"/>
<g filter="url(#filter1_i_7477_97990)">
<path d="M49.3955 90.1958H49.3781L49.4962 89.9917C49.8537 89.2491 50.2703 88.524 50.7458 87.8131L88 22.8393L125.254 87.8131C125.73 88.524 126.146 89.2491 126.504 89.9917L126.622 90.1958H126.605C127.507 92.1456 128 94.1975 128 96.3163C128 109.219 110.091 119.679 88 119.679C65.9085 119.679 48 109.219 48 96.3163C47.9965 94.1975 48.4895 92.1456 49.3955 90.1958Z" fill="white"/>
<path d="M49.3955 90.1958H49.3781L49.4962 89.9917C49.8537 89.2491 50.2703 88.524 50.7458 87.8131L88 22.8393L125.254 87.8131C125.73 88.524 126.146 89.2491 126.504 89.9917L126.622 90.1958H126.605C127.507 92.1456 128 94.1975 128 96.3163C128 109.219 110.091 119.679 88 119.679C65.9085 119.679 48 109.219 48 96.3163C47.9965 94.1975 48.4895 92.1456 49.3955 90.1958Z" fill="url(#paint1_linear_7477_97990)" fill-opacity="0.4"/>
</g>
<g filter="url(#filter2_i_7477_97990)">
<path d="M57.2932 67.9961H57.2794L57.3726 67.8323C57.6556 67.2431 57.9869 66.6679 58.3666 66.1066L88.0001 14.6172L117.634 66.1066C118.013 66.6679 118.345 67.2431 118.628 67.8323L118.721 67.9961H118.707C119.428 69.5441 119.818 71.1687 119.818 72.8456C119.818 83.071 105.574 91.3579 88.0001 91.3579C70.4257 91.3579 56.1819 83.0675 56.1819 72.8456C56.1819 71.1652 56.5719 69.5406 57.2932 67.9961Z" fill="white"/>
<path d="M57.2932 67.9961H57.2794L57.3726 67.8323C57.6556 67.2431 57.9869 66.6679 58.3666 66.1066L88.0001 14.6172L117.634 66.1066C118.013 66.6679 118.345 67.2431 118.628 67.8323L118.721 67.9961H118.707C119.428 69.5441 119.818 71.1687 119.818 72.8456C119.818 83.071 105.574 91.3579 88.0001 91.3579C70.4257 91.3579 56.1819 83.0675 56.1819 72.8456C56.1819 71.1652 56.5719 69.5406 57.2932 67.9961Z" fill="url(#paint2_linear_7477_97990)" fill-opacity="0.4"/>
</g>
<g filter="url(#filter3_i_7477_97990)">
<path d="M63.4326 48.3377H63.4223L63.4982 48.211C63.726 47.7487 63.9918 47.2967 64.2921 46.855L88.0002 6.39496L111.708 46.8516C112.012 47.2933 112.278 47.7453 112.502 48.2076L112.578 48.3343H112.568C113.144 49.5498 113.455 50.8271 113.455 52.1454C113.455 60.1785 102.058 66.6913 88.0002 66.6913C73.9424 66.6913 62.5456 60.1785 62.5456 52.1454C62.5456 50.8271 62.8562 49.5533 63.4326 48.3377Z" fill="white"/>
<path d="M63.4326 48.3377H63.4223L63.4982 48.211C63.726 47.7487 63.9918 47.2967 64.2921 46.855L88.0002 6.39496L111.708 46.8516C112.012 47.2933 112.278 47.7453 112.502 48.2076L112.578 48.3343H112.568C113.144 49.5498 113.455 50.8271 113.455 52.1454C113.455 60.1785 102.058 66.6913 88.0002 66.6913C73.9424 66.6913 62.5456 60.1785 62.5456 52.1454C62.5456 50.8271 62.8562 49.5533 63.4326 48.3377Z" fill="url(#paint3_linear_7477_97990)" fill-opacity="0.4"/>
</g>
<g filter="url(#filter4_i_7477_97990)">
<path d="M67.8243 30.3882H67.8137L67.874 30.2813C68.0618 29.8964 68.278 29.5185 68.526 29.1514L84.0626 2.28025C85.8203 -0.760084 90.1864 -0.760084 91.9442 2.28025L107.477 29.155C107.725 29.5221 107.945 29.8999 108.129 30.2849L108.19 30.3918H108.179C108.65 31.404 108.909 32.4662 108.909 33.564C108.909 40.2542 99.5495 45.679 87.9998 45.679C76.4502 45.679 67.0908 40.2542 67.0908 33.564C67.0943 32.4626 67.3495 31.4005 67.8243 30.3882Z" fill="white"/>
<path d="M67.8243 30.3882H67.8137L67.874 30.2813C68.0618 29.8964 68.278 29.5185 68.526 29.1514L84.0626 2.28025C85.8203 -0.760084 90.1864 -0.760084 91.9442 2.28025L107.477 29.155C107.725 29.5221 107.945 29.8999 108.129 30.2849L108.19 30.3918H108.179C108.65 31.404 108.909 32.4662 108.909 33.564C108.909 40.2542 99.5495 45.679 87.9998 45.679C76.4502 45.679 67.0908 40.2542 67.0908 33.564C67.0943 32.4626 67.3495 31.4005 67.8243 30.3882Z" fill="url(#paint4_linear_7477_97990)" fill-opacity="0.4"/>
</g>
<g opacity="0.6" filter="url(#filter5_f_7477_97990)">
<path d="M21 128C14.3224 128 8.90912 125.292 8.90912 121.951C8.90912 118.61 14.3224 115.901 21 115.901C27.6777 115.901 33.0909 118.61 33.0909 121.951C33.0909 125.292 27.6777 128 21 128Z" fill="#BEBEB6" fill-opacity="0.2"/>
</g>
<path d="M24.8864 101.21H17.1136V120.534C17.1136 122.271 18.5071 123.679 20.2266 123.679H21.7733C23.4928 123.679 24.8864 122.271 24.8864 120.534V101.21Z" fill="white"/>
<path d="M24.8864 101.21H17.1136V120.534C17.1136 122.271 18.5071 123.679 20.2266 123.679H21.7733C23.4928 123.679 24.8864 122.271 24.8864 120.534V101.21Z" fill="url(#paint5_linear_7477_97990)"/>
<g filter="url(#filter6_i_7477_97990)">
<path d="M2.66286 100.66H2.65461L2.71068 100.564C2.88051 100.212 3.07838 99.8695 3.30427 99.5333L21 68.8024L38.6957 99.5333C38.9216 99.8695 39.1195 100.212 39.2893 100.564L39.3454 100.66H39.3372C39.7659 101.582 40 102.553 40 103.555C40 109.658 31.4934 114.605 21 114.605C10.5066 114.605 2.00001 109.658 2.00001 103.555C1.99836 102.553 2.2325 101.582 2.66286 100.66Z" fill="white"/>
<path d="M2.66286 100.66H2.65461L2.71068 100.564C2.88051 100.212 3.07838 99.8695 3.30427 99.5333L21 68.8024L38.6957 99.5333C38.9216 99.8695 39.1195 100.212 39.2893 100.564L39.3454 100.66H39.3372C39.7659 101.582 40 102.553 40 103.555C40 109.658 31.4934 114.605 21 114.605C10.5066 114.605 2.00001 109.658 2.00001 103.555C1.99836 102.553 2.2325 101.582 2.66286 100.66Z" fill="url(#paint6_linear_7477_97990)" fill-opacity="0.4"/>
</g>
<g filter="url(#filter7_i_7477_97990)">
<path d="M6.41426 90.1603H6.40771L6.45197 90.0828C6.5864 89.8042 6.74379 89.5321 6.92412 89.2666L21 64.9135L35.0759 89.2666C35.2562 89.5321 35.4136 89.8042 35.5481 90.0828L35.5923 90.1603H35.5858C35.9284 90.8925 36.1136 91.6609 36.1136 92.454C36.1136 97.2903 29.3478 101.21 21 101.21C12.6522 101.21 5.88638 97.2887 5.88638 92.454C5.88638 91.6592 6.07163 90.8908 6.41426 90.1603Z" fill="white"/>
<path d="M6.41426 90.1603H6.40771L6.45197 90.0828C6.5864 89.8042 6.74379 89.5321 6.92412 89.2666L21 64.9135L35.0759 89.2666C35.2562 89.5321 35.4136 89.8042 35.5481 90.0828L35.5923 90.1603H35.5858C35.9284 90.8925 36.1136 91.6609 36.1136 92.454C36.1136 97.2903 29.3478 101.21 21 101.21C12.6522 101.21 5.88638 97.2887 5.88638 92.454C5.88638 91.6592 6.07163 90.8908 6.41426 90.1603Z" fill="url(#paint7_linear_7477_97990)" fill-opacity="0.4"/>
</g>
<g filter="url(#filter8_i_7477_97990)">
<path d="M9.33046 80.8624H9.32554L9.36161 80.8025C9.46981 80.5839 9.59605 80.3701 9.73868 80.1612L21 61.0247L32.2614 80.1595C32.4057 80.3685 32.5319 80.5822 32.6385 80.8009L32.6745 80.8608H32.6696C32.9434 81.4357 33.0909 82.0398 33.0909 82.6634C33.0909 86.4628 27.6775 89.5432 21 89.5432C14.3226 89.5432 8.90912 86.4628 8.90912 82.6634C8.90912 82.0398 9.05667 81.4374 9.33046 80.8624Z" fill="white"/>
<path d="M9.33046 80.8624H9.32554L9.36161 80.8025C9.46981 80.5839 9.59605 80.3701 9.73868 80.1612L21 61.0247L32.2614 80.1595C32.4057 80.3685 32.5319 80.5822 32.6385 80.8009L32.6745 80.8608H32.6696C32.9434 81.4357 33.0909 82.0398 33.0909 82.6634C33.0909 86.4628 27.6775 89.5432 21 89.5432C14.3226 89.5432 8.90912 86.4628 8.90912 82.6634C8.90912 82.0398 9.05667 81.4374 9.33046 80.8624Z" fill="url(#paint8_linear_7477_97990)" fill-opacity="0.4"/>
</g>
<g filter="url(#filter9_i_7477_97990)">
<path d="M11.4166 72.3728H11.4115L11.4401 72.3222C11.5294 72.1402 11.6321 71.9615 11.7499 71.7878L19.1297 59.0785C19.9647 57.6405 22.0386 57.6405 22.8735 59.0785L30.2517 71.7895C30.3695 71.9632 30.4739 72.1419 30.5614 72.3239L30.59 72.3745H30.585C30.8089 72.8533 30.9318 73.3556 30.9318 73.8749C30.9318 77.0391 26.486 79.6049 20.9999 79.6049C15.5139 79.6049 11.0681 77.0391 11.0681 73.8749C11.0698 73.3539 11.191 72.8516 11.4166 72.3728Z" fill="white"/>
<path d="M11.4166 72.3728H11.4115L11.4401 72.3222C11.5294 72.1402 11.6321 71.9615 11.7499 71.7878L19.1297 59.0785C19.9647 57.6405 22.0386 57.6405 22.8735 59.0785L30.2517 71.7895C30.3695 71.9632 30.4739 72.1419 30.5614 72.3239L30.59 72.3745H30.585C30.8089 72.8533 30.9318 73.3556 30.9318 73.8749C30.9318 77.0391 26.486 79.6049 20.9999 79.6049C15.5139 79.6049 11.0681 77.0391 11.0681 73.8749C11.0698 73.3539 11.191 72.8516 11.4166 72.3728Z" fill="url(#paint9_linear_7477_97990)" fill-opacity="0.4"/>
</g>
<defs>
<filter id="filter0_f_7477_97990" x="46.5457" y="106.42" width="82.9091" height="57.5803" filterUnits="userSpaceOnUse" color-interpolation-filters="sRGB">
<feFlood flood-opacity="0" result="BackgroundImageFix"/>
<feBlend mode="normal" in="SourceGraphic" in2="BackgroundImageFix" result="shape"/>
<feGaussianBlur stdDeviation="8" result="effect1_foregroundBlur_7477_97990"/>
</filter>
<filter id="filter1_i_7477_97990" x="48" y="22.8393" width="80" height="96.8395" filterUnits="userSpaceOnUse" color-interpolation-filters="sRGB">
<feFlood flood-opacity="0" result="BackgroundImageFix"/>
<feBlend mode="normal" in="SourceGraphic" in2="BackgroundImageFix" result="shape"/>
<feColorMatrix in="SourceAlpha" type="matrix" values="0 0 0 0 0 0 0 0 0 0 0 0 0 0 0 0 0 0 127 0" result="hardAlpha"/>
<feOffset dy="-4"/>
<feComposite in2="hardAlpha" operator="arithmetic" k2="-1" k3="1"/>
<feColorMatrix type="matrix" values="0 0 0 0 1 0 0 0 0 1 0 0 0 0 1 0 0 0 0.6 0"/>
<feBlend mode="normal" in2="shape" result="effect1_innerShadow_7477_97990"/>
</filter>
<filter id="filter2_i_7477_97990" x="56.1819" y="14.6172" width="63.6364" height="76.7407" filterUnits="userSpaceOnUse" color-interpolation-filters="sRGB">
<feFlood flood-opacity="0" result="BackgroundImageFix"/>
<feBlend mode="normal" in="SourceGraphic" in2="BackgroundImageFix" result="shape"/>
<feColorMatrix in="SourceAlpha" type="matrix" values="0 0 0 0 0 0 0 0 0 0 0 0 0 0 0 0 0 0 127 0" result="hardAlpha"/>
<feOffset dy="-4"/>
<feComposite in2="hardAlpha" operator="arithmetic" k2="-1" k3="1"/>
<feColorMatrix type="matrix" values="0 0 0 0 1 0 0 0 0 1 0 0 0 0 1 0 0 0 0.6 0"/>
<feBlend mode="normal" in2="shape" result="effect1_innerShadow_7477_97990"/>
</filter>
<filter id="filter3_i_7477_97990" x="62.5457" y="6.39496" width="50.9091" height="60.2963" filterUnits="userSpaceOnUse" color-interpolation-filters="sRGB">
<feFlood flood-opacity="0" result="BackgroundImageFix"/>
<feBlend mode="normal" in="SourceGraphic" in2="BackgroundImageFix" result="shape"/>
<feColorMatrix in="SourceAlpha" type="matrix" values="0 0 0 0 0 0 0 0 0 0 0 0 0 0 0 0 0 0 127 0" result="hardAlpha"/>
<feOffset dy="-4"/>
<feComposite in2="hardAlpha" operator="arithmetic" k2="-1" k3="1"/>
<feColorMatrix type="matrix" values="0 0 0 0 1 0 0 0 0 1 0 0 0 0 1 0 0 0 0.6 0"/>
<feBlend mode="normal" in2="shape" result="effect1_innerShadow_7477_97990"/>
</filter>
<filter id="filter4_i_7477_97990" x="67.0907" y="0" width="41.8182" height="45.679" filterUnits="userSpaceOnUse" color-interpolation-filters="sRGB">
<feFlood flood-opacity="0" result="BackgroundImageFix"/>
<feBlend mode="normal" in="SourceGraphic" in2="BackgroundImageFix" result="shape"/>
<feColorMatrix in="SourceAlpha" type="matrix" values="0 0 0 0 0 0 0 0 0 0 0 0 0 0 0 0 0 0 127 0" result="hardAlpha"/>
<feOffset dy="-4"/>
<feComposite in2="hardAlpha" operator="arithmetic" k2="-1" k3="1"/>
<feColorMatrix type="matrix" values="0 0 0 0 1 0 0 0 0 1 0 0 0 0 1 0 0 0 0.6 0"/>
<feBlend mode="normal" in2="shape" result="effect1_innerShadow_7477_97990"/>
</filter>
<filter id="filter5_f_7477_97990" x="0.90918" y="107.901" width="40.1818" height="28.0988" filterUnits="userSpaceOnUse" color-interpolation-filters="sRGB">
<feFlood flood-opacity="0" result="BackgroundImageFix"/>
<feBlend mode="normal" in="SourceGraphic" in2="BackgroundImageFix" result="shape"/>
<feGaussianBlur stdDeviation="4" result="effect1_foregroundBlur_7477_97990"/>
</filter>
<filter id="filter6_i_7477_97990" x="2" y="68.8024" width="38" height="45.8025" filterUnits="userSpaceOnUse" color-interpolation-filters="sRGB">
<feFlood flood-opacity="0" result="BackgroundImageFix"/>
<feBlend mode="normal" in="SourceGraphic" in2="BackgroundImageFix" result="shape"/>
<feColorMatrix in="SourceAlpha" type="matrix" values="0 0 0 0 0 0 0 0 0 0 0 0 0 0 0 0 0 0 127 0" result="hardAlpha"/>
<feOffset dy="-4"/>
<feComposite in2="hardAlpha" operator="arithmetic" k2="-1" k3="1"/>
<feColorMatrix type="matrix" values="0 0 0 0 1 0 0 0 0 1 0 0 0 0 1 0 0 0 0.6 0"/>
<feBlend mode="normal" in2="shape" result="effect1_innerShadow_7477_97990"/>
</filter>
<filter id="filter7_i_7477_97990" x="5.88635" y="64.9135" width="30.2273" height="36.2963" filterUnits="userSpaceOnUse" color-interpolation-filters="sRGB">
<feFlood flood-opacity="0" result="BackgroundImageFix"/>
<feBlend mode="normal" in="SourceGraphic" in2="BackgroundImageFix" result="shape"/>
<feColorMatrix in="SourceAlpha" type="matrix" values="0 0 0 0 0 0 0 0 0 0 0 0 0 0 0 0 0 0 127 0" result="hardAlpha"/>
<feOffset dy="-4"/>
<feComposite in2="hardAlpha" operator="arithmetic" k2="-1" k3="1"/>
<feColorMatrix type="matrix" values="0 0 0 0 1 0 0 0 0 1 0 0 0 0 1 0 0 0 0.6 0"/>
<feBlend mode="normal" in2="shape" result="effect1_innerShadow_7477_97990"/>
</filter>
<filter id="filter8_i_7477_97990" x="8.90918" y="61.0247" width="24.1818" height="28.5185" filterUnits="userSpaceOnUse" color-interpolation-filters="sRGB">
<feFlood flood-opacity="0" result="BackgroundImageFix"/>
<feBlend mode="normal" in="SourceGraphic" in2="BackgroundImageFix" result="shape"/>
<feColorMatrix in="SourceAlpha" type="matrix" values="0 0 0 0 0 0 0 0 0 0 0 0 0 0 0 0 0 0 127 0" result="hardAlpha"/>
<feOffset dy="-4"/>
<feComposite in2="hardAlpha" operator="arithmetic" k2="-1" k3="1"/>
<feColorMatrix type="matrix" values="0 0 0 0 1 0 0 0 0 1 0 0 0 0 1 0 0 0 0.6 0"/>
<feBlend mode="normal" in2="shape" result="effect1_innerShadow_7477_97990"/>
</filter>
<filter id="filter9_i_7477_97990" x="11.0681" y="58" width="19.8636" height="21.6049" filterUnits="userSpaceOnUse" color-interpolation-filters="sRGB">
<feFlood flood-opacity="0" result="BackgroundImageFix"/>
<feBlend mode="normal" in="SourceGraphic" in2="BackgroundImageFix" result="shape"/>
<feColorMatrix in="SourceAlpha" type="matrix" values="0 0 0 0 0 0 0 0 0 0 0 0 0 0 0 0 0 0 127 0" result="hardAlpha"/>
<feOffset dy="-4"/>
<feComposite in2="hardAlpha" operator="arithmetic" k2="-1" k3="1"/>
<feColorMatrix type="matrix" values="0 0 0 0 1 0 0 0 0 1 0 0 0 0 1 0 0 0 0.6 0"/>
<feBlend mode="normal" in2="shape" result="effect1_innerShadow_7477_97990"/>
</filter>
<linearGradient id="paint0_linear_7477_97990" x1="96.1818" y1="115.111" x2="79.8181" y2="115.111" gradientUnits="userSpaceOnUse">
<stop offset="0.266393" stop-color="#F7F8F9"/>
<stop offset="1" stop-color="#EAEBEC"/>
</linearGradient>
<linearGradient id="paint1_linear_7477_97990" x1="128" y1="71.2591" x2="65.9588" y2="54.2342" gradientUnits="userSpaceOnUse">
<stop stop-color="#BDC6CB" stop-opacity="0.36"/>
<stop offset="0.491083" stop-color="#DCDDE0"/>
<stop offset="1" stop-color="#CACDCF"/>
</linearGradient>
<linearGradient id="paint2_linear_7477_97990" x1="119.818" y1="52.9876" x2="70.4935" y2="39.401" gradientUnits="userSpaceOnUse">
<stop stop-color="#BDC6CB" stop-opacity="0.36"/>
<stop offset="0.491083" stop-color="#DCDDE0"/>
<stop offset="1" stop-color="#CACDCF"/>
</linearGradient>
<linearGradient id="paint3_linear_7477_97990" x1="113.455" y1="36.5431" x2="74.0967" y2="25.5048" gradientUnits="userSpaceOnUse">
<stop stop-color="#BDC6CB" stop-opacity="0.36"/>
<stop offset="0.491083" stop-color="#DCDDE0"/>
<stop offset="1" stop-color="#CACDCF"/>
</linearGradient>
<linearGradient id="paint4_linear_7477_97990" x1="108.909" y1="22.8395" x2="76.9881" y2="13.1325" gradientUnits="userSpaceOnUse">
<stop stop-color="#BDC6CB" stop-opacity="0.36"/>
<stop offset="0.491083" stop-color="#DCDDE0"/>
<stop offset="1" stop-color="#CACDCF"/>
</linearGradient>
<linearGradient id="paint5_linear_7477_97990" x1="24.8864" y1="112.444" x2="17.1136" y2="112.444" gradientUnits="userSpaceOnUse">
<stop offset="0.266393" stop-color="#F7F8F9"/>
<stop offset="1" stop-color="#EAEBEC"/>
</linearGradient>
<linearGradient id="paint6_linear_7477_97990" x1="40" y1="91.7037" x2="10.5481" y2="83.5871" gradientUnits="userSpaceOnUse">
<stop stop-color="#BDC6CB" stop-opacity="0.36"/>
<stop offset="0.491083" stop-color="#DCDDE0"/>
<stop offset="1" stop-color="#CACDCF"/>
</linearGradient>
<linearGradient id="paint7_linear_7477_97990" x1="36.1136" y1="83.0617" x2="12.6986" y2="76.5843" gradientUnits="userSpaceOnUse">
<stop stop-color="#BDC6CB" stop-opacity="0.36"/>
<stop offset="0.491083" stop-color="#DCDDE0"/>
<stop offset="1" stop-color="#CACDCF"/>
</linearGradient>
<linearGradient id="paint8_linear_7477_97990" x1="33.0909" y1="75.2839" x2="14.4076" y2="70.0216" gradientUnits="userSpaceOnUse">
<stop stop-color="#BDC6CB" stop-opacity="0.36"/>
<stop offset="0.491083" stop-color="#DCDDE0"/>
<stop offset="1" stop-color="#CACDCF"/>
</linearGradient>
<linearGradient id="paint9_linear_7477_97990" x1="30.9318" y1="68.8025" x2="15.7804" y2="64.1752" gradientUnits="userSpaceOnUse">
<stop stop-color="#BDC6CB" stop-opacity="0.36"/>
<stop offset="0.491083" stop-color="#DCDDE0"/>
<stop offset="1" stop-color="#CACDCF"/>
</linearGradient>
</defs>
</svg>
