<svg width="126" height="148" viewBox="0 0 126 148" fill="none" xmlns="http://www.w3.org/2000/svg">
<path opacity="0.6" d="M40 148C54.0581 148 65.4545 142.274 65.4545 135.21C65.4545 128.146 54.0581 122.42 40 122.42C25.9418 122.42 14.5454 128.146 14.5454 135.21C14.5454 142.274 25.9418 148 40 148Z" fill="#BEBEB6" fill-opacity="0.2"/>
<path d="M31.8184 91.3578H48.182V132.216C48.182 135.888 45.2483 138.864 41.6283 138.864H38.3721C34.7521 138.864 31.8184 135.888 31.8184 132.216V91.3578Z" fill="white"/>
<path d="M31.8184 91.3578H48.182V132.216C48.182 135.888 45.2483 138.864 41.6283 138.864H38.3721C34.7521 138.864 31.8184 135.888 31.8184 132.216V91.3578Z" fill="url(#paint0_linear_7477_97990)"/>
<g filter="url(#filter0_i_7477_97990)">
<path d="M78.6045 90.1956H78.6219L78.5038 89.9915C78.1463 89.2489 77.7297 88.5239 77.2542 87.8129L40 22.8391L2.74581 87.8129C2.27024 88.5239 1.85368 89.2489 1.49614 89.9915L1.37811 90.1956H1.39547C0.492927 92.1454 0 94.1973 0 96.3161C0 109.219 17.9085 119.679 40 119.679C62.0915 119.679 80 109.219 80 96.3161C80.0035 94.1973 79.5105 92.1454 78.6045 90.1956Z" fill="white"/>
<path d="M78.6045 90.1956H78.6219L78.5038 89.9915C78.1463 89.2489 77.7297 88.5239 77.2542 87.8129L40 22.8391L2.74581 87.8129C2.27024 88.5239 1.85368 89.2489 1.49614 89.9915L1.37811 90.1956H1.39547C0.492927 92.1454 0 94.1973 0 96.3161C0 109.219 17.9085 119.679 40 119.679C62.0915 119.679 80 109.219 80 96.3161C80.0035 94.1973 79.5105 92.1454 78.6045 90.1956Z" fill="url(#paint1_linear_7477_97990)" fill-opacity="0.4"/>
</g>
<g filter="url(#filter1_i_7477_97990)">
<path d="M70.7067 67.996H70.7205L70.6273 67.8322C70.3443 67.243 70.0129 66.6677 69.6333 66.1064L39.9998 14.6171L10.3664 66.1064C9.98671 66.6677 9.65538 67.243 9.37236 67.8322L9.27918 67.996H9.29298C8.57165 69.5439 8.18164 71.1686 8.18164 72.8455C8.18164 83.0708 22.4254 91.3578 39.9998 91.3578C57.5742 91.3578 71.818 83.0673 71.818 72.8455C71.818 71.1651 71.428 69.5404 70.7067 67.996Z" fill="white"/>
<path d="M70.7067 67.996H70.7205L70.6273 67.8322C70.3443 67.243 70.0129 66.6677 69.6333 66.1064L39.9998 14.6171L10.3664 66.1064C9.98671 66.6677 9.65538 67.243 9.37236 67.8322L9.27918 67.996H9.29298C8.57165 69.5439 8.18164 71.1686 8.18164 72.8455C8.18164 83.0708 22.4254 91.3578 39.9998 91.3578C57.5742 91.3578 71.818 83.0673 71.818 72.8455C71.818 71.1651 71.428 69.5404 70.7067 67.996Z" fill="url(#paint2_linear_7477_97990)" fill-opacity="0.4"/>
</g>
<g filter="url(#filter2_i_7477_97990)">
<path d="M64.5675 48.3376H64.5778L64.5019 48.2109C64.2741 47.7487 64.0083 47.2967 63.7081 46.855L40 6.3949L16.2919 46.8515C15.9881 47.2932 15.7224 47.7452 15.498 48.2075L15.4221 48.3342H15.4324C14.856 49.5498 14.5454 50.827 14.5454 52.1453C14.5454 60.1784 25.9421 66.6912 40 66.6912C54.0578 66.6912 65.4545 60.1784 65.4545 52.1453C65.4545 50.827 65.1439 49.5532 64.5675 48.3376Z" fill="white"/>
<path d="M64.5675 48.3376H64.5778L64.5019 48.2109C64.2741 47.7487 64.0083 47.2967 63.7081 46.855L40 6.3949L16.2919 46.8515C15.9881 47.2932 15.7224 47.7452 15.498 48.2075L15.4221 48.3342H15.4324C14.856 49.5498 14.5454 50.827 14.5454 52.1453C14.5454 60.1784 25.9421 66.6912 40 66.6912C54.0578 66.6912 65.4545 60.1784 65.4545 52.1453C65.4545 50.827 65.1439 49.5532 64.5675 48.3376Z" fill="url(#paint3_linear_7477_97990)" fill-opacity="0.4"/>
</g>
<g filter="url(#filter3_i_7477_97990)">
<path d="M60.1757 30.3881H60.1863L60.126 30.2812C59.9382 29.8962 59.722 29.5184 59.474 29.1513L43.9374 2.28013C42.1797 -0.760206 37.8136 -0.760206 36.0558 2.28013L20.5228 29.1549C20.2747 29.522 20.055 29.8998 19.8707 30.2847L19.8105 30.3917H19.8211C19.3498 31.4039 19.0911 32.4661 19.0911 33.5639C19.0911 40.254 28.4505 45.6789 40.0002 45.6789C51.5498 45.6789 60.9092 40.254 60.9092 33.5639C60.9057 32.4625 60.6505 31.4004 60.1757 30.3881Z" fill="white"/>
<path d="M60.1757 30.3881H60.1863L60.126 30.2812C59.9382 29.8962 59.722 29.5184 59.474 29.1513L43.9374 2.28013C42.1797 -0.760206 37.8136 -0.760206 36.0558 2.28013L20.5228 29.1549C20.2747 29.522 20.055 29.8998 19.8707 30.2847L19.8105 30.3917H19.8211C19.3498 31.4039 19.0911 32.4661 19.0911 33.5639C19.0911 40.254 28.4505 45.6789 40.0002 45.6789C51.5498 45.6789 60.9092 40.254 60.9092 33.5639C60.9057 32.4625 60.6505 31.4004 60.1757 30.3881Z" fill="url(#paint4_linear_7477_97990)" fill-opacity="0.4"/>
</g>
<path opacity="0.6" d="M107 128C113.678 128 119.091 125.291 119.091 121.951C119.091 118.61 113.678 115.901 107 115.901C100.322 115.901 94.9092 118.61 94.9092 121.951C94.9092 125.291 100.322 128 107 128Z" fill="#BEBEB6" fill-opacity="0.2"/>
<path d="M103.114 101.21H110.886V120.534C110.886 122.271 109.493 123.679 107.773 123.679H106.227C104.507 123.679 103.114 122.271 103.114 120.534V101.21Z" fill="white"/>
<path d="M103.114 101.21H110.886V120.534C110.886 122.271 109.493 123.679 107.773 123.679H106.227C104.507 123.679 103.114 122.271 103.114 120.534V101.21Z" fill="url(#paint5_linear_7477_97990)"/>
<g filter="url(#filter4_i_7477_97990)">
<path d="M125.337 100.66H125.345L125.289 100.564C125.119 100.212 124.922 99.8694 124.696 99.5331L107 68.8022L89.3043 99.5331C89.0784 99.8694 88.8805 100.212 88.7107 100.564L88.6546 100.66H88.6628C88.2341 101.582 88 102.553 88 103.555C88 109.657 96.5066 114.605 107 114.605C117.493 114.605 126 109.657 126 103.555C126.002 102.553 125.767 101.582 125.337 100.66Z" fill="white"/>
<path d="M125.337 100.66H125.345L125.289 100.564C125.119 100.212 124.922 99.8694 124.696 99.5331L107 68.8022L89.3043 99.5331C89.0784 99.8694 88.8805 100.212 88.7107 100.564L88.6546 100.66H88.6628C88.2341 101.582 88 102.553 88 103.555C88 109.657 96.5066 114.605 107 114.605C117.493 114.605 126 109.657 126 103.555C126.002 102.553 125.767 101.582 125.337 100.66Z" fill="url(#paint6_linear_7477_97990)" fill-opacity="0.4"/>
</g>
<g filter="url(#filter5_i_7477_97990)">
<path d="M121.586 90.1603H121.592L121.548 90.0828C121.413 89.8041 121.256 89.532 121.076 89.2665L107 64.9135L92.924 89.2665C92.7436 89.532 92.5863 89.8041 92.4518 90.0828L92.4076 90.1603H92.4141C92.0715 90.8924 91.8862 91.6608 91.8862 92.4539C91.8862 97.2902 98.652 101.21 107 101.21C115.348 101.21 122.114 97.2886 122.114 92.4539C122.114 91.6591 121.928 90.8907 121.586 90.1603Z" fill="white"/>
<path d="M121.586 90.1603H121.592L121.548 90.0828C121.413 89.8041 121.256 89.532 121.076 89.2665L107 64.9135L92.924 89.2665C92.7436 89.532 92.5863 89.8041 92.4518 90.0828L92.4076 90.1603H92.4141C92.0715 90.8924 91.8862 91.6608 91.8862 92.4539C91.8862 97.2902 98.652 101.21 107 101.21C115.348 101.21 122.114 97.2886 122.114 92.4539C122.114 91.6591 121.928 90.8907 121.586 90.1603Z" fill="url(#paint7_linear_7477_97990)" fill-opacity="0.4"/>
</g>
<g filter="url(#filter6_i_7477_97990)">
<path d="M118.67 80.8623H118.675L118.639 80.8024C118.53 80.5837 118.404 80.37 118.261 80.161L107 61.0245L95.7387 80.1594C95.5945 80.3683 95.4682 80.5821 95.3617 80.8008L95.3256 80.8607H95.3305C95.0567 81.4356 94.9092 82.0397 94.9092 82.6632C94.9092 86.4627 100.323 89.5431 107 89.5431C113.678 89.5431 119.091 86.4627 119.091 82.6632C119.091 82.0397 118.943 81.4372 118.67 80.8623Z" fill="white"/>
<path d="M118.67 80.8623H118.675L118.639 80.8024C118.53 80.5837 118.404 80.37 118.261 80.161L107 61.0245L95.7387 80.1594C95.5945 80.3683 95.4682 80.5821 95.3617 80.8008L95.3256 80.8607H95.3305C95.0567 81.4356 94.9092 82.0397 94.9092 82.6632C94.9092 86.4627 100.323 89.5431 107 89.5431C113.678 89.5431 119.091 86.4627 119.091 82.6632C119.091 82.0397 118.943 81.4372 118.67 80.8623Z" fill="url(#paint8_linear_7477_97990)" fill-opacity="0.4"/>
</g>
<g filter="url(#filter7_i_7477_97990)">
<path d="M116.584 72.3727H116.589L116.56 72.3221C116.471 72.14 116.368 71.9613 116.25 71.7877L108.87 59.0784C108.035 57.6404 105.962 57.6404 105.127 59.0784L97.7484 71.7894C97.6306 71.963 97.5262 72.1417 97.4387 72.3238L97.4101 72.3744H97.4151C97.1912 72.8531 97.0684 73.3555 97.0684 73.8747C97.0684 77.039 101.514 79.6048 107 79.6048C112.486 79.6048 116.932 77.039 116.932 73.8747C116.93 73.3538 116.809 72.8515 116.584 72.3727Z" fill="white"/>
<path d="M116.584 72.3727H116.589L116.56 72.3221C116.471 72.14 116.368 71.9613 116.25 71.7877L108.87 59.0784C108.035 57.6404 105.962 57.6404 105.127 59.0784L97.7484 71.7894C97.6306 71.963 97.5262 72.1417 97.4387 72.3238L97.4101 72.3744H97.4151C97.1912 72.8531 97.0684 73.3555 97.0684 73.8747C97.0684 77.039 101.514 79.6048 107 79.6048C112.486 79.6048 116.932 77.039 116.932 73.8747C116.93 73.3538 116.809 72.8515 116.584 72.3727Z" fill="url(#paint9_linear_7477_97990)" fill-opacity="0.4"/>
</g>
<defs>
<filter id="filter0_i_7477_97990" x="0" y="22.8391" width="80" height="96.8395" filterUnits="userSpaceOnUse" color-interpolation-filters="sRGB">
<feFlood flood-opacity="0" result="BackgroundImageFix"/>
<feBlend mode="normal" in="SourceGraphic" in2="BackgroundImageFix" result="shape"/>
<feColorMatrix in="SourceAlpha" type="matrix" values="0 0 0 0 0 0 0 0 0 0 0 0 0 0 0 0 0 0 127 0" result="hardAlpha"/>
<feOffset dy="-4"/>
<feComposite in2="hardAlpha" operator="arithmetic" k2="-1" k3="1"/>
<feColorMatrix type="matrix" values="0 0 0 0 1 0 0 0 0 1 0 0 0 0 1 0 0 0 0.6 0"/>
<feBlend mode="normal" in2="shape" result="effect1_innerShadow_7477_97990"/>
</filter>
<filter id="filter1_i_7477_97990" x="8.18164" y="14.6171" width="63.6365" height="76.7407" filterUnits="userSpaceOnUse" color-interpolation-filters="sRGB">
<feFlood flood-opacity="0" result="BackgroundImageFix"/>
<feBlend mode="normal" in="SourceGraphic" in2="BackgroundImageFix" result="shape"/>
<feColorMatrix in="SourceAlpha" type="matrix" values="0 0 0 0 0 0 0 0 0 0 0 0 0 0 0 0 0 0 127 0" result="hardAlpha"/>
<feOffset dy="-4"/>
<feComposite in2="hardAlpha" operator="arithmetic" k2="-1" k3="1"/>
<feColorMatrix type="matrix" values="0 0 0 0 1 0 0 0 0 1 0 0 0 0 1 0 0 0 0.6 0"/>
<feBlend mode="normal" in2="shape" result="effect1_innerShadow_7477_97990"/>
</filter>
<filter id="filter2_i_7477_97990" x="14.5454" y="6.3949" width="50.9092" height="60.2963" filterUnits="userSpaceOnUse" color-interpolation-filters="sRGB">
<feFlood flood-opacity="0" result="BackgroundImageFix"/>
<feBlend mode="normal" in="SourceGraphic" in2="BackgroundImageFix" result="shape"/>
<feColorMatrix in="SourceAlpha" type="matrix" values="0 0 0 0 0 0 0 0 0 0 0 0 0 0 0 0 0 0 127 0" result="hardAlpha"/>
<feOffset dy="-4"/>
<feComposite in2="hardAlpha" operator="arithmetic" k2="-1" k3="1"/>
<feColorMatrix type="matrix" values="0 0 0 0 1 0 0 0 0 1 0 0 0 0 1 0 0 0 0.6 0"/>
<feBlend mode="normal" in2="shape" result="effect1_innerShadow_7477_97990"/>
</filter>
<filter id="filter3_i_7477_97990" x="19.0911" y="-0.00012207" width="41.8181" height="45.6791" filterUnits="userSpaceOnUse" color-interpolation-filters="sRGB">
<feFlood flood-opacity="0" result="BackgroundImageFix"/>
<feBlend mode="normal" in="SourceGraphic" in2="BackgroundImageFix" result="shape"/>
<feColorMatrix in="SourceAlpha" type="matrix" values="0 0 0 0 0 0 0 0 0 0 0 0 0 0 0 0 0 0 127 0" result="hardAlpha"/>
<feOffset dy="-4"/>
<feComposite in2="hardAlpha" operator="arithmetic" k2="-1" k3="1"/>
<feColorMatrix type="matrix" values="0 0 0 0 1 0 0 0 0 1 0 0 0 0 1 0 0 0 0.6 0"/>
<feBlend mode="normal" in2="shape" result="effect1_innerShadow_7477_97990"/>
</filter>
<filter id="filter4_i_7477_97990" x="88" y="68.8022" width="38" height="45.8025" filterUnits="userSpaceOnUse" color-interpolation-filters="sRGB">
<feFlood flood-opacity="0" result="BackgroundImageFix"/>
<feBlend mode="normal" in="SourceGraphic" in2="BackgroundImageFix" result="shape"/>
<feColorMatrix in="SourceAlpha" type="matrix" values="0 0 0 0 0 0 0 0 0 0 0 0 0 0 0 0 0 0 127 0" result="hardAlpha"/>
<feOffset dy="-4"/>
<feComposite in2="hardAlpha" operator="arithmetic" k2="-1" k3="1"/>
<feColorMatrix type="matrix" values="0 0 0 0 1 0 0 0 0 1 0 0 0 0 1 0 0 0 0.6 0"/>
<feBlend mode="normal" in2="shape" result="effect1_innerShadow_7477_97990"/>
</filter>
<filter id="filter5_i_7477_97990" x="91.8862" y="64.9135" width="30.2273" height="36.2963" filterUnits="userSpaceOnUse" color-interpolation-filters="sRGB">
<feFlood flood-opacity="0" result="BackgroundImageFix"/>
<feBlend mode="normal" in="SourceGraphic" in2="BackgroundImageFix" result="shape"/>
<feColorMatrix in="SourceAlpha" type="matrix" values="0 0 0 0 0 0 0 0 0 0 0 0 0 0 0 0 0 0 127 0" result="hardAlpha"/>
<feOffset dy="-4"/>
<feComposite in2="hardAlpha" operator="arithmetic" k2="-1" k3="1"/>
<feColorMatrix type="matrix" values="0 0 0 0 1 0 0 0 0 1 0 0 0 0 1 0 0 0 0.6 0"/>
<feBlend mode="normal" in2="shape" result="effect1_innerShadow_7477_97990"/>
</filter>
<filter id="filter6_i_7477_97990" x="94.9092" y="61.0245" width="24.1819" height="28.5186" filterUnits="userSpaceOnUse" color-interpolation-filters="sRGB">
<feFlood flood-opacity="0" result="BackgroundImageFix"/>
<feBlend mode="normal" in="SourceGraphic" in2="BackgroundImageFix" result="shape"/>
<feColorMatrix in="SourceAlpha" type="matrix" values="0 0 0 0 0 0 0 0 0 0 0 0 0 0 0 0 0 0 127 0" result="hardAlpha"/>
<feOffset dy="-4"/>
<feComposite in2="hardAlpha" operator="arithmetic" k2="-1" k3="1"/>
<feColorMatrix type="matrix" values="0 0 0 0 1 0 0 0 0 1 0 0 0 0 1 0 0 0 0.6 0"/>
<feBlend mode="normal" in2="shape" result="effect1_innerShadow_7477_97990"/>
</filter>
<filter id="filter7_i_7477_97990" x="97.0684" y="57.9999" width="19.8635" height="21.605" filterUnits="userSpaceOnUse" color-interpolation-filters="sRGB">
<feFlood flood-opacity="0" result="BackgroundImageFix"/>
<feBlend mode="normal" in="SourceGraphic" in2="BackgroundImageFix" result="shape"/>
<feColorMatrix in="SourceAlpha" type="matrix" values="0 0 0 0 0 0 0 0 0 0 0 0 0 0 0 0 0 0 127 0" result="hardAlpha"/>
<feOffset dy="-4"/>
<feComposite in2="hardAlpha" operator="arithmetic" k2="-1" k3="1"/>
<feColorMatrix type="matrix" values="0 0 0 0 1 0 0 0 0 1 0 0 0 0 1 0 0 0 0.6 0"/>
<feBlend mode="normal" in2="shape" result="effect1_innerShadow_7477_97990"/>
</filter>
<linearGradient id="paint0_linear_7477_97990" x1="31.8184" y1="115.111" x2="48.182" y2="115.111" gradientUnits="userSpaceOnUse">
<stop offset="0.266393" stop-color="#F7F8F9"/>
<stop offset="1" stop-color="#EAEBEC"/>
</linearGradient>
<linearGradient id="paint1_linear_7477_97990" x1="5.86557e-07" y1="71.2589" x2="62.0412" y2="54.234" gradientUnits="userSpaceOnUse">
<stop stop-color="#BDC6CB" stop-opacity="0.36"/>
<stop offset="0.491083" stop-color="#DCDDE0"/>
<stop offset="1" stop-color="#CACDCF"/>
</linearGradient>
<linearGradient id="paint2_linear_7477_97990" x1="8.18164" y1="52.9874" x2="57.5064" y2="39.4009" gradientUnits="userSpaceOnUse">
<stop stop-color="#BDC6CB" stop-opacity="0.36"/>
<stop offset="0.491083" stop-color="#DCDDE0"/>
<stop offset="1" stop-color="#CACDCF"/>
</linearGradient>
<linearGradient id="paint3_linear_7477_97990" x1="14.5454" y1="36.5431" x2="53.9034" y2="25.5048" gradientUnits="userSpaceOnUse">
<stop stop-color="#BDC6CB" stop-opacity="0.36"/>
<stop offset="0.491083" stop-color="#DCDDE0"/>
<stop offset="1" stop-color="#CACDCF"/>
</linearGradient>
<linearGradient id="paint4_linear_7477_97990" x1="19.0911" y1="22.8394" x2="51.0119" y2="13.1323" gradientUnits="userSpaceOnUse">
<stop stop-color="#BDC6CB" stop-opacity="0.36"/>
<stop offset="0.491083" stop-color="#DCDDE0"/>
<stop offset="1" stop-color="#CACDCF"/>
</linearGradient>
<linearGradient id="paint5_linear_7477_97990" x1="103.114" y1="112.444" x2="110.886" y2="112.444" gradientUnits="userSpaceOnUse">
<stop offset="0.266393" stop-color="#F7F8F9"/>
<stop offset="1" stop-color="#EAEBEC"/>
</linearGradient>
<linearGradient id="paint6_linear_7477_97990" x1="88" y1="91.7035" x2="117.452" y2="83.5869" gradientUnits="userSpaceOnUse">
<stop stop-color="#BDC6CB" stop-opacity="0.36"/>
<stop offset="0.491083" stop-color="#DCDDE0"/>
<stop offset="1" stop-color="#CACDCF"/>
</linearGradient>
<linearGradient id="paint7_linear_7477_97990" x1="91.8862" y1="83.0616" x2="115.301" y2="76.5843" gradientUnits="userSpaceOnUse">
<stop stop-color="#BDC6CB" stop-opacity="0.36"/>
<stop offset="0.491083" stop-color="#DCDDE0"/>
<stop offset="1" stop-color="#CACDCF"/>
</linearGradient>
<linearGradient id="paint8_linear_7477_97990" x1="94.9092" y1="75.2838" x2="113.593" y2="70.0214" gradientUnits="userSpaceOnUse">
<stop stop-color="#BDC6CB" stop-opacity="0.36"/>
<stop offset="0.491083" stop-color="#DCDDE0"/>
<stop offset="1" stop-color="#CACDCF"/>
</linearGradient>
<linearGradient id="paint9_linear_7477_97990" x1="97.0684" y1="68.8023" x2="112.22" y2="64.1751" gradientUnits="userSpaceOnUse">
<stop stop-color="#BDC6CB" stop-opacity="0.36"/>
<stop offset="0.491083" stop-color="#DCDDE0"/>
<stop offset="1" stop-color="#CACDCF"/>
</linearGradient>
</defs>
</svg>
