<svg width="89" height="152" viewBox="0 0 89 152" fill="none" xmlns="http://www.w3.org/2000/svg">
<path opacity="0.6" d="M71 65.9998C77.3262 65.9998 82.4545 63.4462 82.4545 60.2961C82.4545 57.146 77.3262 54.5924 71 54.5924C64.6738 54.5924 59.5454 57.146 59.5454 60.2961C59.5454 63.4462 64.6738 65.9998 71 65.9998Z" fill="#EBECED"/>
<path d="M67.3184 40.7409H74.682V58.9613C74.682 60.5989 73.3618 61.9261 71.7328 61.9261H70.2675C68.6385 61.9261 67.3184 60.5989 67.3184 58.9613V40.7409Z" fill="white"/>
<path d="M67.3184 40.7409H74.682V58.9613C74.682 60.5989 73.3618 61.9261 71.7328 61.9261H70.2675C68.6385 61.9261 67.3184 60.5989 67.3184 58.9613V40.7409Z" fill="url(#paint0_linear_7477_97990)"/>
<g filter="url(#filter0_i_7477_97990)">
<path d="M88.3721 40.2224H88.3799L88.3268 40.1314C88.1659 39.8002 87.9785 39.4769 87.7644 39.1599L71 10.1851L54.2356 39.1599C54.0216 39.4769 53.8342 39.8002 53.6733 40.1314L53.6202 40.2224H53.628C53.2218 41.092 53 42.007 53 42.9518C53 48.7057 61.0589 53.3703 71 53.3703C80.9412 53.3703 89.0001 48.7057 89.0001 42.9518C89.0016 42.007 88.7798 41.092 88.3721 40.2224Z" fill="white"/>
<path d="M88.3721 40.2224H88.3799L88.3268 40.1314C88.1659 39.8002 87.9785 39.4769 87.7644 39.1599L71 10.1851L54.2356 39.1599C54.0216 39.4769 53.8342 39.8002 53.6733 40.1314L53.6202 40.2224H53.628C53.2218 41.092 53 42.007 53 42.9518C53 48.7057 61.0589 53.3703 71 53.3703C80.9412 53.3703 89.0001 48.7057 89.0001 42.9518C89.0016 42.007 88.7798 41.092 88.3721 40.2224Z" fill="url(#paint1_linear_7477_97990)" fill-opacity="0.4"/>
</g>
<g filter="url(#filter1_i_7477_97990)">
<path d="M84.8182 30.3225H84.8244L84.7825 30.2494C84.6551 29.9866 84.506 29.7301 84.3352 29.4798L71.0001 6.51831L57.665 29.4798C57.4942 29.7301 57.3451 29.9866 57.2177 30.2494L57.1758 30.3225H57.182C56.8574 31.0127 56.6819 31.7372 56.6819 32.4851C56.6819 37.045 63.0916 40.7406 71.0001 40.7406C78.9086 40.7406 85.3183 37.0435 85.3183 32.4851C85.3183 31.7357 85.1428 31.0112 84.8182 30.3225Z" fill="white"/>
<path d="M84.8182 30.3225H84.8244L84.7825 30.2494C84.6551 29.9866 84.506 29.7301 84.3352 29.4798L71.0001 6.51831L57.665 29.4798C57.4942 29.7301 57.3451 29.9866 57.2177 30.2494L57.1758 30.3225H57.182C56.8574 31.0127 56.6819 31.7372 56.6819 32.4851C56.6819 37.045 63.0916 40.7406 71.0001 40.7406C78.9086 40.7406 85.3183 37.0435 85.3183 32.4851C85.3183 31.7357 85.1428 31.0112 84.8182 30.3225Z" fill="url(#paint2_linear_7477_97990)" fill-opacity="0.4"/>
</g>
<g filter="url(#filter2_i_7477_97990)">
<path d="M82.0554 21.5559H82.06L82.0259 21.4994C81.9234 21.2932 81.8038 21.0917 81.6686 20.8947L71 2.85168L60.3313 20.8932C60.1946 21.0901 60.075 21.2917 59.9741 21.4979L59.9399 21.5544H59.9446C59.6852 22.0964 59.5454 22.666 59.5454 23.2539C59.5454 26.8362 64.674 29.7406 71 29.7406C77.326 29.7406 82.4545 26.8362 82.4545 23.2539C82.4545 22.666 82.3148 22.098 82.0554 21.5559Z" fill="white"/>
<path d="M82.0554 21.5559H82.06L82.0259 21.4994C81.9234 21.2932 81.8038 21.0917 81.6686 20.8947L71 2.85168L60.3313 20.8932C60.1946 21.0901 60.075 21.2917 59.9741 21.4979L59.9399 21.5544H59.9446C59.6852 22.0964 59.5454 22.666 59.5454 23.2539C59.5454 26.8362 64.674 29.7406 71 29.7406C77.326 29.7406 82.4545 26.8362 82.4545 23.2539C82.4545 22.666 82.3148 22.098 82.0554 21.5559Z" fill="url(#paint3_linear_7477_97990)" fill-opacity="0.4"/>
</g>
<g filter="url(#filter3_i_7477_97990)">
<path d="M80.0789 13.5514H80.0837L80.0566 13.5037C79.9721 13.332 79.8748 13.1636 79.7632 12.9998L72.7717 1.01675C71.9807 -0.339079 70.016 -0.339079 69.225 1.01675L62.2351 13.0014C62.1235 13.1651 62.0246 13.3336 61.9417 13.5053L61.9146 13.553H61.9193C61.7072 14.0044 61.5908 14.4781 61.5908 14.9676C61.5908 17.9511 65.8026 20.3703 70.9999 20.3703C76.1973 20.3703 80.409 17.9511 80.409 14.9676C80.4074 14.4765 80.2926 14.0028 80.0789 13.5514Z" fill="white"/>
<path d="M80.0789 13.5514H80.0837L80.0566 13.5037C79.9721 13.332 79.8748 13.1636 79.7632 12.9998L72.7717 1.01675C71.9807 -0.339079 70.016 -0.339079 69.225 1.01675L62.2351 13.0014C62.1235 13.1651 62.0246 13.3336 61.9417 13.5053L61.9146 13.553H61.9193C61.7072 14.0044 61.5908 14.4781 61.5908 14.9676C61.5908 17.9511 65.8026 20.3703 70.9999 20.3703C76.1973 20.3703 80.409 17.9511 80.409 14.9676C80.4074 14.4765 80.2926 14.0028 80.0789 13.5514Z" fill="url(#paint4_linear_7477_97990)" fill-opacity="0.4"/>
</g>
<path opacity="0.6" d="M33.9999 152C45.9493 152 55.6363 147.125 55.6363 141.111C55.6363 135.097 45.9493 130.222 33.9999 130.222C22.0505 130.222 12.3635 135.097 12.3635 141.111C12.3635 147.125 22.0505 152 33.9999 152Z" fill="#EBECED"/>
<path d="M27.0454 103.778H40.9545V138.562C40.9545 141.688 38.4608 144.222 35.3839 144.222H32.616C29.5391 144.222 27.0454 141.688 27.0454 138.562V103.778Z" fill="white"/>
<path d="M27.0454 103.778H40.9545V138.562C40.9545 141.688 38.4608 144.222 35.3839 144.222H32.616C29.5391 144.222 27.0454 141.688 27.0454 138.562V103.778Z" fill="url(#paint5_linear_7477_97990)"/>
<g filter="url(#filter4_i_7477_97990)">
<path d="M66.8138 102.788H66.8286L66.7283 102.615C66.4244 101.982 66.0703 101.365 65.666 100.76L34 45.4444L2.33394 100.76C1.92971 101.365 1.57563 101.982 1.27172 102.615L1.1714 102.788H1.18615C0.418988 104.448 0 106.195 0 107.999C0 118.984 15.2223 127.889 34 127.889C52.7777 127.889 68 118.984 68 107.999C68.0029 106.195 67.584 104.448 66.8138 102.788Z" fill="white"/>
<path d="M66.8138 102.788H66.8286L66.7283 102.615C66.4244 101.982 66.0703 101.365 65.666 100.76L34 45.4444L2.33394 100.76C1.92971 101.365 1.57563 101.982 1.27172 102.615L1.1714 102.788H1.18615C0.418988 104.448 0 106.195 0 107.999C0 118.984 15.2223 127.889 34 127.889C52.7777 127.889 68 118.984 68 107.999C68.0029 106.195 67.584 104.448 66.8138 102.788Z" fill="url(#paint6_linear_7477_97990)" fill-opacity="0.4"/>
</g>
<g filter="url(#filter5_i_7477_97990)">
<path d="M60.1011 83.8886H60.1128L60.0336 83.7491C59.7931 83.2475 59.5114 82.7577 59.1887 82.2799L34.0003 38.4443L8.81184 82.2799C8.48914 82.7577 8.20751 83.2475 7.96695 83.7491L7.88774 83.8886H7.89947C7.28634 85.2064 6.95483 86.5895 6.95483 88.0172C6.95483 96.7225 19.0621 103.778 34.0003 103.778C48.9385 103.778 61.0457 96.7196 61.0457 88.0172C61.0457 86.5865 60.7142 85.2034 60.1011 83.8886Z" fill="white"/>
<path d="M60.1011 83.8886H60.1128L60.0336 83.7491C59.7931 83.2475 59.5114 82.7577 59.1887 82.2799L34.0003 38.4443L8.81184 82.2799C8.48914 82.7577 8.20751 83.2475 7.96695 83.7491L7.88774 83.8886H7.89947C7.28634 85.2064 6.95483 86.5895 6.95483 88.0172C6.95483 96.7225 19.0621 103.778 34.0003 103.778C48.9385 103.778 61.0457 96.7196 61.0457 88.0172C61.0457 86.5865 60.7142 85.2034 60.1011 83.8886Z" fill="url(#paint7_linear_7477_97990)" fill-opacity="0.4"/>
</g>
<g filter="url(#filter6_i_7477_97990)">
<path d="M54.8823 67.1523H54.8911L54.8265 67.0445C54.6329 66.6509 54.407 66.2661 54.1518 65.89L33.9999 31.4443L13.848 65.8871C13.5898 66.2632 13.3639 66.648 13.1732 67.0415L13.1087 67.1494H13.1175C12.6276 68.1843 12.3635 69.2717 12.3635 70.394C12.3635 77.233 22.0507 82.7777 33.9999 82.7777C45.949 82.7777 55.6363 77.233 55.6363 70.394C55.6363 69.2717 55.3722 68.1872 54.8823 67.1523Z" fill="white"/>
<path d="M54.8823 67.1523H54.8911L54.8265 67.0445C54.6329 66.6509 54.407 66.2661 54.1518 65.89L33.9999 31.4443L13.848 65.8871C13.5898 66.2632 13.3639 66.648 13.1732 67.0415L13.1087 67.1494H13.1175C12.6276 68.1843 12.3635 69.2717 12.3635 70.394C12.3635 77.233 22.0507 82.7777 33.9999 82.7777C45.949 82.7777 55.6363 77.233 55.6363 70.394C55.6363 69.2717 55.3722 68.1872 54.8823 67.1523Z" fill="url(#paint8_linear_7477_97990)" fill-opacity="0.4"/>
</g>
<g filter="url(#filter7_i_7477_97990)">
<path d="M51.1489 51.8709H51.158L51.1068 51.7799C50.9471 51.4522 50.7634 51.1305 50.5525 50.818L37.3465 27.9412C35.8524 25.3528 32.1412 25.3528 30.6471 27.9412L17.444 50.821C17.2332 51.1335 17.0464 51.4552 16.8898 51.7829L16.8386 51.874H16.8476C16.4469 52.7357 16.2271 53.64 16.2271 54.5746C16.2271 60.2703 24.1826 64.8888 33.9998 64.8888C43.8169 64.8888 51.7725 60.2703 51.7725 54.5746C51.7695 53.637 51.5526 52.7327 51.1489 51.8709Z" fill="white"/>
<path d="M51.1489 51.8709H51.158L51.1068 51.7799C50.9471 51.4522 50.7634 51.1305 50.5525 50.818L37.3465 27.9412C35.8524 25.3528 32.1412 25.3528 30.6471 27.9412L17.444 50.821C17.2332 51.1335 17.0464 51.4552 16.8898 51.7829L16.8386 51.874H16.8476C16.4469 52.7357 16.2271 53.64 16.2271 54.5746C16.2271 60.2703 24.1826 64.8888 33.9998 64.8888C43.8169 64.8888 51.7725 60.2703 51.7725 54.5746C51.7695 53.637 51.5526 52.7327 51.1489 51.8709Z" fill="url(#paint9_linear_7477_97990)" fill-opacity="0.4"/>
</g>
<defs>
<filter id="filter0_i_7477_97990" x="53" y="10.1851" width="36" height="43.1852" filterUnits="userSpaceOnUse" color-interpolation-filters="sRGB">
<feFlood flood-opacity="0" result="BackgroundImageFix"/>
<feBlend mode="normal" in="SourceGraphic" in2="BackgroundImageFix" result="shape"/>
<feColorMatrix in="SourceAlpha" type="matrix" values="0 0 0 0 0 0 0 0 0 0 0 0 0 0 0 0 0 0 127 0" result="hardAlpha"/>
<feOffset dy="-4"/>
<feComposite in2="hardAlpha" operator="arithmetic" k2="-1" k3="1"/>
<feColorMatrix type="matrix" values="0 0 0 0 1 0 0 0 0 1 0 0 0 0 1 0 0 0 0.4 0"/>
<feBlend mode="normal" in2="shape" result="effect1_innerShadow_7477_97990"/>
</filter>
<filter id="filter1_i_7477_97990" x="56.6819" y="6.51831" width="28.6365" height="34.2222" filterUnits="userSpaceOnUse" color-interpolation-filters="sRGB">
<feFlood flood-opacity="0" result="BackgroundImageFix"/>
<feBlend mode="normal" in="SourceGraphic" in2="BackgroundImageFix" result="shape"/>
<feColorMatrix in="SourceAlpha" type="matrix" values="0 0 0 0 0 0 0 0 0 0 0 0 0 0 0 0 0 0 127 0" result="hardAlpha"/>
<feOffset dy="-4"/>
<feComposite in2="hardAlpha" operator="arithmetic" k2="-1" k3="1"/>
<feColorMatrix type="matrix" values="0 0 0 0 1 0 0 0 0 1 0 0 0 0 1 0 0 0 0.4 0"/>
<feBlend mode="normal" in2="shape" result="effect1_innerShadow_7477_97990"/>
</filter>
<filter id="filter2_i_7477_97990" x="59.5454" y="2.85168" width="22.9092" height="26.8889" filterUnits="userSpaceOnUse" color-interpolation-filters="sRGB">
<feFlood flood-opacity="0" result="BackgroundImageFix"/>
<feBlend mode="normal" in="SourceGraphic" in2="BackgroundImageFix" result="shape"/>
<feColorMatrix in="SourceAlpha" type="matrix" values="0 0 0 0 0 0 0 0 0 0 0 0 0 0 0 0 0 0 127 0" result="hardAlpha"/>
<feOffset dy="-4"/>
<feComposite in2="hardAlpha" operator="arithmetic" k2="-1" k3="1"/>
<feColorMatrix type="matrix" values="0 0 0 0 1 0 0 0 0 1 0 0 0 0 1 0 0 0 0.4 0"/>
<feBlend mode="normal" in2="shape" result="effect1_innerShadow_7477_97990"/>
</filter>
<filter id="filter3_i_7477_97990" x="61.5908" y="-0.00012207" width="18.8181" height="20.3704" filterUnits="userSpaceOnUse" color-interpolation-filters="sRGB">
<feFlood flood-opacity="0" result="BackgroundImageFix"/>
<feBlend mode="normal" in="SourceGraphic" in2="BackgroundImageFix" result="shape"/>
<feColorMatrix in="SourceAlpha" type="matrix" values="0 0 0 0 0 0 0 0 0 0 0 0 0 0 0 0 0 0 127 0" result="hardAlpha"/>
<feOffset dy="-4"/>
<feComposite in2="hardAlpha" operator="arithmetic" k2="-1" k3="1"/>
<feColorMatrix type="matrix" values="0 0 0 0 1 0 0 0 0 1 0 0 0 0 1 0 0 0 0.4 0"/>
<feBlend mode="normal" in2="shape" result="effect1_innerShadow_7477_97990"/>
</filter>
<filter id="filter4_i_7477_97990" x="0" y="45.4444" width="68" height="82.4444" filterUnits="userSpaceOnUse" color-interpolation-filters="sRGB">
<feFlood flood-opacity="0" result="BackgroundImageFix"/>
<feBlend mode="normal" in="SourceGraphic" in2="BackgroundImageFix" result="shape"/>
<feColorMatrix in="SourceAlpha" type="matrix" values="0 0 0 0 0 0 0 0 0 0 0 0 0 0 0 0 0 0 127 0" result="hardAlpha"/>
<feOffset dy="-4"/>
<feComposite in2="hardAlpha" operator="arithmetic" k2="-1" k3="1"/>
<feColorMatrix type="matrix" values="0 0 0 0 1 0 0 0 0 1 0 0 0 0 1 0 0 0 0.4 0"/>
<feBlend mode="normal" in2="shape" result="effect1_innerShadow_7477_97990"/>
</filter>
<filter id="filter5_i_7477_97990" x="6.95483" y="38.4443" width="54.0908" height="65.3333" filterUnits="userSpaceOnUse" color-interpolation-filters="sRGB">
<feFlood flood-opacity="0" result="BackgroundImageFix"/>
<feBlend mode="normal" in="SourceGraphic" in2="BackgroundImageFix" result="shape"/>
<feColorMatrix in="SourceAlpha" type="matrix" values="0 0 0 0 0 0 0 0 0 0 0 0 0 0 0 0 0 0 127 0" result="hardAlpha"/>
<feOffset dy="-4"/>
<feComposite in2="hardAlpha" operator="arithmetic" k2="-1" k3="1"/>
<feColorMatrix type="matrix" values="0 0 0 0 1 0 0 0 0 1 0 0 0 0 1 0 0 0 0.4 0"/>
<feBlend mode="normal" in2="shape" result="effect1_innerShadow_7477_97990"/>
</filter>
<filter id="filter6_i_7477_97990" x="12.3635" y="31.4443" width="43.2727" height="51.3333" filterUnits="userSpaceOnUse" color-interpolation-filters="sRGB">
<feFlood flood-opacity="0" result="BackgroundImageFix"/>
<feBlend mode="normal" in="SourceGraphic" in2="BackgroundImageFix" result="shape"/>
<feColorMatrix in="SourceAlpha" type="matrix" values="0 0 0 0 0 0 0 0 0 0 0 0 0 0 0 0 0 0 127 0" result="hardAlpha"/>
<feOffset dy="-4"/>
<feComposite in2="hardAlpha" operator="arithmetic" k2="-1" k3="1"/>
<feColorMatrix type="matrix" values="0 0 0 0 1 0 0 0 0 1 0 0 0 0 1 0 0 0 0.4 0"/>
<feBlend mode="normal" in2="shape" result="effect1_innerShadow_7477_97990"/>
</filter>
<filter id="filter7_i_7477_97990" x="16.2271" y="25.9999" width="35.5454" height="38.8889" filterUnits="userSpaceOnUse" color-interpolation-filters="sRGB">
<feFlood flood-opacity="0" result="BackgroundImageFix"/>
<feBlend mode="normal" in="SourceGraphic" in2="BackgroundImageFix" result="shape"/>
<feColorMatrix in="SourceAlpha" type="matrix" values="0 0 0 0 0 0 0 0 0 0 0 0 0 0 0 0 0 0 127 0" result="hardAlpha"/>
<feOffset dy="-4"/>
<feComposite in2="hardAlpha" operator="arithmetic" k2="-1" k3="1"/>
<feColorMatrix type="matrix" values="0 0 0 0 1 0 0 0 0 1 0 0 0 0 1 0 0 0 0.4 0"/>
<feBlend mode="normal" in2="shape" result="effect1_innerShadow_7477_97990"/>
</filter>
<linearGradient id="paint0_linear_7477_97990" x1="67.3184" y1="51.3335" x2="74.682" y2="51.3335" gradientUnits="userSpaceOnUse">
<stop offset="0.266393" stop-color="#F7F8F9"/>
<stop offset="1" stop-color="#E2E3E4"/>
</linearGradient>
<linearGradient id="paint1_linear_7477_97990" x1="53" y1="31.7777" x2="80.8829" y2="24.0567" gradientUnits="userSpaceOnUse">
<stop stop-color="#BDC6CB" stop-opacity="0.36"/>
<stop offset="0.491083" stop-color="#DCDDE0"/>
<stop offset="1" stop-color="#CACDCF"/>
</linearGradient>
<linearGradient id="paint2_linear_7477_97990" x1="56.6819" y1="23.6294" x2="78.8495" y2="17.4678" gradientUnits="userSpaceOnUse">
<stop stop-color="#BDC6CB" stop-opacity="0.36"/>
<stop offset="0.491083" stop-color="#DCDDE0"/>
<stop offset="1" stop-color="#CACDCF"/>
</linearGradient>
<linearGradient id="paint3_linear_7477_97990" x1="59.5454" y1="16.2961" x2="77.233" y2="11.2904" gradientUnits="userSpaceOnUse">
<stop stop-color="#BDC6CB" stop-opacity="0.36"/>
<stop offset="0.491083" stop-color="#DCDDE0"/>
<stop offset="1" stop-color="#CACDCF"/>
</linearGradient>
<linearGradient id="paint4_linear_7477_97990" x1="61.5908" y1="10.1851" x2="75.933" y2="5.78397" gradientUnits="userSpaceOnUse">
<stop stop-color="#BDC6CB" stop-opacity="0.36"/>
<stop offset="0.491083" stop-color="#DCDDE0"/>
<stop offset="1" stop-color="#CACDCF"/>
</linearGradient>
<linearGradient id="paint5_linear_7477_97990" x1="27.0454" y1="124" x2="40.9545" y2="124" gradientUnits="userSpaceOnUse">
<stop offset="0.266393" stop-color="#F7F8F9"/>
<stop offset="1" stop-color="#E2E3E4"/>
</linearGradient>
<linearGradient id="paint6_linear_7477_97990" x1="4.98574e-07" y1="86.6666" x2="52.7468" y2="72.2153" gradientUnits="userSpaceOnUse">
<stop stop-color="#BDC6CB" stop-opacity="0.36"/>
<stop offset="0.491083" stop-color="#DCDDE0"/>
<stop offset="1" stop-color="#CACDCF"/>
</linearGradient>
<linearGradient id="paint7_linear_7477_97990" x1="6.95483" y1="71.111" x2="48.8903" y2="59.5782" gradientUnits="userSpaceOnUse">
<stop stop-color="#BDC6CB" stop-opacity="0.36"/>
<stop offset="0.491083" stop-color="#DCDDE0"/>
<stop offset="1" stop-color="#CACDCF"/>
</linearGradient>
<linearGradient id="paint8_linear_7477_97990" x1="12.3635" y1="57.111" x2="45.8255" y2="47.7412" gradientUnits="userSpaceOnUse">
<stop stop-color="#BDC6CB" stop-opacity="0.36"/>
<stop offset="0.491083" stop-color="#DCDDE0"/>
<stop offset="1" stop-color="#CACDCF"/>
</linearGradient>
<linearGradient id="paint9_linear_7477_97990" x1="16.2271" y1="45.4443" x2="43.367" y2="37.2042" gradientUnits="userSpaceOnUse">
<stop stop-color="#BDC6CB" stop-opacity="0.36"/>
<stop offset="0.491083" stop-color="#DCDDE0"/>
<stop offset="1" stop-color="#CACDCF"/>
</linearGradient>
</defs>
</svg>
