<svg width="302" height="80" viewBox="0 0 302 80" fill="none" xmlns="http://www.w3.org/2000/svg">
<g clip-path="url(#clip0_114_18782)">
<mask id="mask0_114_18782" style="mask-type:luminance" maskUnits="userSpaceOnUse" x="0" y="0" width="302" height="80">
<path d="M301.667 0H0V80H301.667V0Z" fill="white"/>
</mask>
<g mask="url(#mask0_114_18782)">
<path d="M99.3457 56.6548H102.463V73.497H99.3457V56.6548ZM117.105 61.9258C118.083 62.8772 118.563 64.2807 118.563 66.1363V73.497H115.57V66.5262C115.57 65.4033 115.306 64.5613 114.779 63.9843C114.252 63.4228 113.507 63.1267 112.53 63.1267C111.429 63.1267 110.56 63.454 109.924 64.1247C109.288 64.7952 108.962 65.7465 108.962 66.994V73.497H105.969V60.647H108.823V62.3002C109.319 61.7075 109.94 61.2553 110.684 60.9433C111.429 60.647 112.282 60.4912 113.228 60.4912C114.841 60.4912 116.128 60.959 117.105 61.9102V61.9258ZM133.376 60.647L127.901 73.497H124.814L119.339 60.647H122.457L126.427 70.1753L130.522 60.647H133.392H133.376ZM146.126 68.0388H136.106C136.277 68.9902 136.742 69.7387 137.486 70.2845C138.231 70.8458 139.146 71.111 140.247 71.111C141.643 71.111 142.807 70.6432 143.722 69.7075L145.319 71.5632C144.745 72.2493 144.016 72.7797 143.148 73.1227C142.264 73.4813 141.287 73.6528 140.185 73.6528C138.774 73.6528 137.549 73.3722 136.478 72.8108C135.408 72.2493 134.586 71.4697 133.997 70.4717C133.407 69.4735 133.128 68.3352 133.128 67.072C133.128 65.8088 133.407 64.686 133.981 63.688C134.539 62.69 135.33 61.9102 136.339 61.3488C137.347 60.7875 138.479 60.5067 139.736 60.5067C140.992 60.5067 142.093 60.7875 143.07 61.3332C144.047 61.879 144.823 62.6588 145.366 63.6723C145.909 64.686 146.188 65.84 146.188 67.15C146.188 67.3527 146.172 67.649 146.141 68.0388H146.126ZM137.285 63.766C136.618 64.343 136.215 65.0915 136.075 66.0428H143.318C143.194 65.1072 142.791 64.3585 142.14 63.7815C141.488 63.2045 140.666 62.9083 139.704 62.9083C138.743 62.9083 137.936 63.189 137.269 63.766H137.285ZM149.228 73.263C148.235 72.9823 147.444 72.6393 146.855 72.2338L148.003 69.9413C148.577 70.3313 149.275 70.6432 150.066 70.8615C150.872 71.0953 151.663 71.2045 152.454 71.2045C154.238 71.2045 155.138 70.7367 155.138 69.7855C155.138 69.3332 154.905 69.0213 154.455 68.8498C154.005 68.6783 153.276 68.5067 152.268 68.3508C151.213 68.1948 150.36 68.0077 149.693 67.805C149.026 67.6022 148.453 67.228 147.972 66.7133C147.491 66.1987 147.243 65.4658 147.243 64.5302C147.243 63.3137 147.755 62.3313 148.763 61.5983C149.771 60.8653 151.151 60.5067 152.873 60.5067C153.757 60.5067 154.626 60.6003 155.51 60.803C156.394 61.0057 157.107 61.2708 157.666 61.614L156.518 63.9063C155.432 63.267 154.207 62.9395 152.858 62.9395C151.973 62.9395 151.306 63.0642 150.857 63.3293C150.407 63.5945 150.174 63.9375 150.174 64.3742C150.174 64.8577 150.422 65.2007 150.903 65.4033C151.384 65.6062 152.144 65.7933 153.168 65.9648C154.191 66.1208 155.029 66.3078 155.68 66.5262C156.332 66.729 156.89 67.0877 157.371 67.5867C157.836 68.0857 158.069 68.7875 158.069 69.7075C158.069 70.9083 157.557 71.8752 156.518 72.5925C155.479 73.3098 154.067 73.6685 152.284 73.6685C151.244 73.6685 150.236 73.5282 149.244 73.263H149.228ZM167.608 72.8108C167.252 73.1072 166.833 73.3098 166.336 73.4658C165.84 73.6062 165.297 73.6842 164.739 73.6842C163.327 73.6842 162.257 73.3098 161.481 72.5768C160.721 71.844 160.334 70.768 160.334 69.3488V63.1733H158.224V60.7718H160.334V57.84H163.327V60.7718H166.755V63.1733H163.327V69.2865C163.327 69.9102 163.482 70.3937 163.777 70.7212C164.072 71.0487 164.522 71.2202 165.095 71.2202C165.762 71.2202 166.321 71.0487 166.77 70.69L167.608 72.8263V72.8108Z" fill="white" fill-opacity="0.65"/>
<path d="M61.267 0H18.3025C8.18962 0 0 8.23392 0 18.4015V61.5985C0 71.766 8.18962 80 18.3025 80C28.4155 80 61.267 80 61.267 80C71.38 80 79.5697 71.766 79.5697 61.5985V18.4015C79.5697 8.23392 71.38 0 61.267 0ZM36.4655 55.8752C36.4655 58.4015 35.054 60.7095 32.805 61.8323L23.204 66.651V52.4445C23.204 49.9182 24.6153 47.6102 26.8645 46.4873L36.4655 41.6687V55.8752ZM56.3657 45.8792C56.3657 48.4055 54.9387 50.7135 52.7052 51.8518L43.1042 56.6705V24.1248C43.1042 21.5985 44.5155 19.2905 46.7647 18.1677L56.3657 13.3489V45.8792ZM116.795 21.8947V12.7563C116.795 10.5575 118.036 8.54582 119.99 7.56335L128.351 3.36842C128.351 14.0819 128.351 24.7953 128.351 35.4932C128.351 37.9103 128.087 40.2807 127.125 42.5107C125.636 46.0038 122.906 48.0157 119.354 49.0448C117.679 49.5283 115.973 49.7778 114.252 49.809C111.708 49.8557 109.784 49.8245 107.241 49.8245C107.147 49.8245 99.6093 49.8245 99.4698 49.809V39.6725H112.034C114.779 39.4853 116.345 37.692 116.656 34.9318C116.749 34.1208 116.795 33.2943 116.795 32.4835V21.9103V21.8947ZM211.442 31.189C212.14 33.6375 212.263 36.2728 212.015 38.8148C211.627 42.807 209.657 45.77 206.198 47.7193C203.22 49.4035 199.948 49.9962 196.613 50.2612C194.535 50.4172 192.192 50.4172 190.098 50.2612C186.748 50.0117 183.492 49.4035 180.513 47.7193C177.053 45.77 175.068 42.8227 174.697 38.8148C174.572 37.536 174.588 36.5692 174.588 35.2437H185.895C185.895 35.6803 185.895 35.7427 185.895 36.1482C185.927 38.6433 186.857 39.9688 189.262 40.5458C191.867 41.1852 194.86 41.1852 197.467 40.5458C199.932 39.9377 200.847 38.4405 200.893 36.1325C200.893 35.7583 200.832 35.384 200.755 34.9785C200.522 33.9493 199.777 33.31 198.878 32.8265C197.482 32.078 195.093 31.766 193.557 31.4542C190.627 30.846 187.695 30.3002 184.793 29.5985C182.7 29.0993 180.745 28.2573 178.993 26.963C178.745 26.7758 178.512 26.5887 178.28 26.386C176.852 25.1072 175.828 23.5165 175.287 21.5985C174.805 19.9298 174.588 18.2923 174.618 16.577C174.618 15.8597 174.635 15.1735 174.712 14.3626C175.1 10.3548 177.07 7.4074 180.528 5.45808C183.507 3.77388 186.78 3.18128 190.113 2.91618C192.192 2.76023 194.535 2.76023 196.628 2.91618C199.978 3.1657 203.237 3.77388 206.213 5.45808C209.673 7.4074 211.658 10.3548 212.03 14.3626C212.155 15.6413 212.14 16.6082 212.14 17.9337H200.832C200.832 17.497 200.832 17.4347 200.832 17.0292C200.802 14.5341 199.855 13.2242 197.467 12.6316C194.845 11.9922 191.882 11.9922 189.262 12.6316C187.493 13.0682 186.515 13.9103 186.128 15.3294C185.927 16.0624 185.942 16.9513 186.128 17.809C186.36 18.8382 187.105 19.4775 188.005 19.961C189.4 20.7095 191.65 21.0215 193.17 21.3333C196.102 21.9415 199.033 22.4873 201.933 23.1892C204.027 23.6882 205.982 24.5458 207.733 25.8245C207.982 26.0117 208.215 26.1988 208.448 26.4015C209.875 27.6803 210.898 29.271 211.442 31.189ZM230.24 35.0565L236.677 18.7915L243.113 35.0565H230.225H230.24ZM248.977 49.8402H261.247L242.85 3.36842H230.55L212.155 49.8402H224.423L226.937 43.5088H246.51L249.023 49.8402H248.977ZM158.689 32.7797V3.35283H170.245V29.5048C170.245 34.6823 169.655 39.9688 166.383 44.1637C165.173 45.7077 163.746 47.0643 162.071 48.0468C159.403 49.5907 154.595 50.3392 151.462 50.3392C148.328 50.3392 143.52 49.5907 140.852 48.0468C139.161 47.0643 137.734 45.7077 136.54 44.1637C133.268 39.9688 132.678 34.6978 132.678 29.5048V3.35283H144.233V32.7642C144.233 37.2085 146.808 40.7485 151.462 40.7485C156.115 40.7485 158.689 37.193 158.689 32.7642V32.7797ZM301.667 3.35283V49.8245H290.112C289.583 48.9045 275.827 23.8752 275.67 23.6102V49.8245H264.115V3.35283H275.67C275.67 3.35283 289.553 28.6003 290.112 29.5672V3.35283H301.667Z" fill="white"/>
</g>
</g>
<defs>
<clipPath id="clip0_114_18782">
<rect width="301.667" height="80" fill="white"/>
</clipPath>
</defs>
</svg>
