<svg width="631" height="133" viewBox="0 0 631 133" fill="none" xmlns="http://www.w3.org/2000/svg">
<g clip-path="url(#clip0_9_152)">
<path d="M371.09 5.16062C361.549 9.56656 352.627 15.1898 344.551 21.888C332.437 31.9054 321.725 43.2667 312.939 56.3314C312.063 57.6337 309.391 59.1107 312.777 61.0661C313.948 61.7471 312.271 63.0097 311.274 63.5079C307.642 65.3264 305.594 67.8317 306.677 72.1853C307.029 73.5869 306.389 75.038 305.148 76.0465C304.013 76.9657 302.876 78.0317 301.269 77.2873C299.662 76.5428 299.452 75.0619 299.87 73.5789C300.789 70.3291 299.246 70.0909 297.102 71.5421C293.792 73.7834 289.989 74.8514 286.383 76.3066C282.4 77.9226 278.073 78.4645 274.645 74.8435C272.897 72.9953 272.203 74.3174 271.402 75.5562C268.254 80.414 265.168 85.3115 262.008 90.1594C261.227 91.3505 260.385 92.5933 259.312 93.5164C257.925 94.7075 256.38 94.5924 256.202 92.4861C255.962 89.6571 255.517 86.6714 257.801 84.2653C261.884 79.9634 264.41 74.4504 268.725 70.3331C271.07 68.0938 272.203 65.249 272.359 62.1937C272.893 51.7595 278.888 45.0693 287.698 40.7932C292.141 38.6372 295.009 35.5482 297.645 31.6433C304.441 21.5823 311.506 11.7019 318.499 1.77385C319.074 0.957927 319.554 -0.832732 321.011 0.447729C322.066 1.37482 321.211 2.5997 320.443 3.50297C312.825 12.4364 307.191 22.7595 300.219 32.1654C297.13 36.3344 297.549 37.0729 302.16 38.133C307.956 39.4651 310.514 45.5537 306.857 50.211C303.199 54.8683 297.571 57.0262 292.293 59.343C290.266 60.2443 289.221 58.6343 290.204 56.6709C291.556 53.9769 293.202 51.4339 294.741 48.8273C288.668 51.3386 278.053 62.6384 276.138 68.9077C275.247 71.8339 276.838 73.6722 279.622 74.3134C281.62 74.782 283.619 74.2598 285.618 73.6682C291.795 71.8319 297.371 68.7171 303.038 65.789C304.359 65.106 305.332 64.0459 306.091 62.7754C319.842 39.7192 338.251 21.2388 361.319 7.33442C364.293 5.54774 367.515 4.13625 370.646 2.62352C371.548 2.18876 372.601 1.87509 373.51 2.70491C374.522 3.62406 374.456 4.75167 373.984 5.89118C372.703 8.99605 370.678 11.6483 368.722 14.3422C358.529 28.4035 348.206 42.3734 338.269 56.6113C334.338 62.2473 331.292 68.4928 327.187 75.5959C330.151 73.9243 331.971 72.8742 333.816 71.8677C334.815 71.3257 335.869 70.4443 337.014 71.2542C337.995 71.9431 337.683 73.0608 337.398 74.0494C336.434 77.3965 338.331 76.9538 340.451 76.382C356.447 72.0545 372.118 66.6216 387.351 60.1232C397.943 55.6167 409 52.5972 420.176 49.9529C421.015 49.7544 421.867 49.4904 423 50.3103C421.709 52.0592 419.764 52.5158 417.992 52.9466C399.544 57.4173 382.49 65.6837 364.783 72.1654C356.714 75.1194 348.466 77.4322 340.166 79.5961C338.603 80.005 336.628 80.4239 335.509 79.3817C332.761 76.8228 330.542 78.4883 328.624 80.0586C324.293 83.6062 319.874 86.9533 317.032 92.1684C311.298 102.7 305.214 113.063 297.845 122.616C295.619 125.504 293.222 128.204 290.43 130.529C286.649 133.673 281.437 133.808 278.439 130.983C275.806 128.518 275.495 122.939 277.901 119.34C284.159 109.98 291.957 102.11 301.085 95.4579C306.707 91.3585 312.233 87.1081 317.561 82.6414C321.854 79.0422 324.093 73.837 326.903 69.1559C338.833 49.276 352.665 30.748 366.963 12.5456C368.508 10.5783 369.731 8.55334 371.09 5.16062ZM313.039 91.146C312.529 91.3108 311.943 91.3704 311.518 91.6582C300.945 98.8328 291.532 107.306 283.161 116.914C281.239 119.124 280.647 122.151 280.387 124.909C279.988 129.205 283.241 131.063 286.931 128.837C288.642 127.809 290.15 126.364 291.544 124.911C300.877 115.185 306.177 102.835 313.039 91.146ZM294.463 54.4296L295.481 55.3249C297.943 53.8836 300.573 52.6588 302.826 50.9416C305.078 49.2244 306.401 46.6714 305.474 43.7094C304.788 41.5257 303.241 40.2631 301.541 42.7784C298.996 46.5403 296.804 50.5346 294.463 54.4296ZM289.837 43.0265C280.675 46.8937 274.128 56.387 276.942 61.2686C281.131 55.3388 285.254 49.5043 289.835 43.0265H289.837Z" fill="white"/>
<path d="M4.9 59H2.324V39.4H16.968V59H14.392V41.836H4.9V59ZM23.644 64.04H21.236V44.916H23.028L23.56 46.68H23.7C24.12 46.12 25.744 44.608 28.04 44.608C31.568 44.608 34.536 47.632 34.536 51.944C34.536 56.256 31.568 59.308 28.04 59.308C25.8 59.308 24.176 57.852 23.784 57.292H23.644V64.04ZM27.9 57.04C30.168 57.04 32.128 54.996 32.128 51.944C32.128 48.92 30.168 46.876 27.9 46.876C25.604 46.876 23.644 48.92 23.644 51.944C23.644 54.996 25.604 57.04 27.9 57.04ZM49.8822 51.608C49.8822 52.196 49.8542 52.672 49.7702 53.008H39.0742C39.4382 55.556 41.1182 57.096 43.4422 57.096C45.1222 57.096 46.2142 56.34 46.9142 55.22H49.4062C48.5662 57.348 46.3262 59.308 43.4142 59.308C39.6062 59.308 36.6102 56.228 36.6102 51.944C36.6102 47.772 39.6902 44.608 43.3862 44.608C47.0822 44.608 49.8822 47.66 49.8822 51.608ZM43.3862 46.82C41.2582 46.82 39.4102 48.472 39.0462 51.02H47.5302C47.2502 48.556 45.5982 46.82 43.3862 46.82ZM63.4712 44.916V56.788H65.6552V62.584H63.2752V59H52.9432V62.584H50.5632V56.788H51.7112C52.4672 56.228 53.1112 55.304 53.2232 53.764L53.9792 44.916H63.4712ZM54.4552 56.788H61.0912V47.128H56.1912L55.6032 53.764C55.4632 55.304 55.0432 56.228 54.4552 56.788ZM74.0392 59.308C70.3152 59.308 67.2352 56.144 67.2352 51.944C67.2352 47.772 70.3152 44.608 74.0392 44.608C77.3992 44.608 79.8072 47.24 80.3392 50.012H77.9312C77.4552 48.36 76.1952 46.876 74.0392 46.876C71.6592 46.876 69.6432 48.92 69.6432 51.944C69.6432 54.996 71.6592 57.04 74.0392 57.04C76.1952 57.04 77.4552 55.556 77.9312 53.904H80.3392C79.8072 56.676 77.3992 59.308 74.0392 59.308ZM95.5463 51.608C95.5463 52.196 95.5183 52.672 95.4343 53.008H84.7383C85.1023 55.556 86.7823 57.096 89.1063 57.096C90.7863 57.096 91.8783 56.34 92.5783 55.22H95.0703C94.2303 57.348 91.9903 59.308 89.0783 59.308C85.2703 59.308 82.2743 56.228 82.2743 51.944C82.2743 47.772 85.3543 44.608 89.0503 44.608C92.7463 44.608 95.5463 47.66 95.5463 51.608ZM89.0503 46.82C86.9223 46.82 85.0743 48.472 84.7103 51.02H93.1943C92.9143 48.556 91.2623 46.82 89.0503 46.82ZM109.135 44.916V56.788H111.319V62.584H108.939V59H98.6073V62.584H96.2273V56.788H97.3753C98.1313 56.228 98.7753 55.304 98.8873 53.764L99.6433 44.916H109.135ZM100.119 56.788H106.755V47.128H101.855L101.267 53.764C101.127 55.304 100.707 56.228 100.119 56.788ZM118.562 44.608C121.782 44.608 123.994 46.848 123.994 50.068V59H122.174L121.67 57.236H121.53C120.97 58.048 119.598 59.308 117.302 59.308C114.446 59.308 112.598 57.404 112.598 55.08C112.598 52.392 115.174 50.6 118.926 50.6H121.558V49.956C121.558 48.024 120.354 46.82 118.562 46.82C116.77 46.82 115.874 47.884 115.65 49.116H113.214C113.466 46.764 115.454 44.608 118.562 44.608ZM117.694 57.18C120.074 57.18 121.558 55.584 121.558 53.596V52.532H119.094C116.434 52.532 115.006 53.456 115.006 54.968C115.006 56.256 115.93 57.18 117.694 57.18ZM132.704 59H130.268V47.184H125.872V44.916H137.1V47.184H132.704V59ZM151.246 51.608C151.246 52.196 151.218 52.672 151.134 53.008H140.438C140.802 55.556 142.482 57.096 144.806 57.096C146.486 57.096 147.578 56.34 148.278 55.22H150.77C149.93 57.348 147.69 59.308 144.778 59.308C140.97 59.308 137.974 56.228 137.974 51.944C137.974 47.772 141.053 44.608 144.75 44.608C148.446 44.608 151.246 47.66 151.246 51.608ZM144.75 46.82C142.622 46.82 140.774 48.472 140.41 51.02H148.894C148.614 48.556 146.962 46.82 144.75 46.82ZM152.71 59.308C152.234 59.308 151.926 59.224 151.646 59.14V56.984H152.15C153.578 56.984 154.39 56.2 154.558 54.044L155.314 44.916H164.974V59H162.538V47.184H157.498L156.91 54.38C156.63 57.768 155.034 59.308 152.71 59.308ZM171.191 49.816H174.551C177.491 49.816 179.423 51.692 179.423 54.408C179.423 57.124 177.491 59 174.551 59H168.783V44.916H171.191V49.816ZM171.191 56.844H174.327C176.007 56.844 177.015 55.92 177.015 54.408C177.015 52.868 176.007 51.944 174.327 51.944H171.191V56.844ZM4.312 95H1.904V80.916H13.58V95H11.172V83.184H4.312V95ZM19.7886 100.04H17.3806V80.916H19.1726L19.7046 82.68H19.8446C20.2646 82.12 21.8886 80.608 24.1846 80.608C27.7126 80.608 30.6806 83.632 30.6806 87.944C30.6806 92.256 27.7126 95.308 24.1846 95.308C21.9446 95.308 20.3206 93.852 19.9286 93.292H19.7886V100.04ZM24.0446 93.04C26.3126 93.04 28.2726 90.996 28.2726 87.944C28.2726 84.92 26.3126 82.876 24.0446 82.876C21.7486 82.876 19.7886 84.92 19.7886 87.944C19.7886 90.996 21.7486 93.04 24.0446 93.04ZM38.6908 80.608C41.9108 80.608 44.1228 82.848 44.1228 86.068V95H42.3028L41.7988 93.236H41.6588C41.0988 94.048 39.7268 95.308 37.4308 95.308C34.5748 95.308 32.7268 93.404 32.7268 91.08C32.7268 88.392 35.3028 86.6 39.0548 86.6H41.6868V85.956C41.6868 84.024 40.4828 82.82 38.6908 82.82C36.8988 82.82 36.0028 83.884 35.7788 85.116H33.3428C33.5948 82.764 35.5828 80.608 38.6908 80.608ZM37.8228 93.18C40.2028 93.18 41.6868 91.584 41.6868 89.596V88.532H39.2228C36.5628 88.532 35.1348 89.456 35.1348 90.968C35.1348 92.256 36.0588 93.18 37.8228 93.18ZM56.2988 87.58C57.3908 88 58.6508 89.064 58.6508 91.024C58.6508 93.32 56.8868 95 54.3668 95H47.7868V80.916H53.8348C56.3268 80.916 58.0908 82.596 58.0908 84.668C58.0908 86.18 57.1388 87.16 56.2988 87.58ZM53.4988 82.96H50.1668V86.824H53.4988C54.8708 86.824 55.7388 86.04 55.7388 84.864C55.7388 83.716 54.8708 82.96 53.4988 82.96ZM50.1668 92.956H54.0588C55.3468 92.956 56.2988 92.06 56.2988 90.828C56.2988 89.652 55.3468 88.728 54.0588 88.728H50.1668V92.956ZM60.398 95.308C59.922 95.308 59.614 95.224 59.334 95.14V92.984H59.838C61.266 92.984 62.078 92.2 62.246 90.044L63.002 80.916H72.662V95H70.226V83.184H65.186L64.598 90.38C64.318 93.768 62.722 95.308 60.398 95.308ZM88.8744 87.608C88.8744 88.196 88.8464 88.672 88.7624 89.008H78.0664C78.4304 91.556 80.1104 93.096 82.4344 93.096C84.1144 93.096 85.2064 92.34 85.9064 91.22H88.3984C87.5584 93.348 85.3184 95.308 82.4064 95.308C78.5984 95.308 75.6024 92.228 75.6024 87.944C75.6024 83.772 78.6824 80.608 82.3784 80.608C86.0744 80.608 88.8744 83.66 88.8744 87.608ZM82.3784 82.82C80.2504 82.82 78.4024 84.472 78.0384 87.02H86.5224C86.2424 84.556 84.5904 82.82 82.3784 82.82ZM101.302 86.796V80.916H103.738V95H101.302V89.064H94.2183V95H91.8103V80.916H94.2183V86.796H101.302ZM109.913 91.248L117.445 80.916H119.573V95H117.193V84.668L109.661 95H107.533V80.916H109.913V91.248ZM127.592 80.916H133.444V95H131.036V89.96H128.068L124.988 95H122.188L125.66 89.596C123.896 88.924 122.72 87.356 122.72 85.424C122.72 82.876 124.736 80.916 127.592 80.916ZM131.064 83.044H127.76C126.22 83.044 125.128 84.052 125.128 85.424C125.128 86.852 126.136 87.804 127.76 87.804H131.064V83.044ZM147.837 95.308C144.113 95.308 141.677 92.648 141.677 89.484H144.225C144.253 91.22 145.681 92.872 147.837 92.872C150.021 92.872 151.393 91.388 151.393 89.232V75.4H153.969V89.232C153.969 92.788 151.561 95.308 147.837 95.308ZM163.552 95.308C160.304 95.308 157.924 92.872 157.924 89.12V80.916H160.332V89.036C160.332 91.5 161.872 93.04 163.944 93.04C166.128 93.04 167.64 91.5 167.64 89.036V80.916H170.076V95H168.256L167.752 93.236H167.612C167.08 94.048 165.624 95.308 163.552 95.308ZM178.376 95.308C175.212 95.308 173.14 93.208 172.972 90.8H175.38C175.52 92.2 176.584 93.18 178.376 93.18C180.112 93.18 181.008 92.312 181.008 91.22C181.008 88.084 173.336 89.54 173.336 84.64C173.336 82.428 175.184 80.608 178.18 80.608C181.12 80.608 183.08 82.568 183.22 84.976H180.84C180.672 83.576 179.804 82.736 178.18 82.736C176.584 82.736 175.744 83.548 175.744 84.556C175.744 87.552 183.416 86.18 183.416 91.136C183.416 93.488 181.596 95.308 178.376 95.308ZM191.46 80.608C194.68 80.608 196.892 82.848 196.892 86.068V95H195.072L194.568 93.236H194.428C193.868 94.048 192.496 95.308 190.2 95.308C187.344 95.308 185.496 93.404 185.496 91.08C185.496 88.392 188.072 86.6 191.824 86.6H194.456V85.956C194.456 84.024 193.252 82.82 191.46 82.82C189.668 82.82 188.772 83.884 188.548 85.116H186.112C186.364 82.764 188.352 80.608 191.46 80.608ZM190.592 93.18C192.972 93.18 194.456 91.584 194.456 89.596V88.532H191.992C189.332 88.532 187.904 89.456 187.904 90.968C187.904 92.256 188.828 93.18 190.592 93.18ZM202.964 95H200.556V80.916H202.348L202.88 82.68H203.02C203.552 81.868 204.98 80.608 207.052 80.608C210.3 80.608 212.708 83.044 212.708 86.796V95H210.272V86.88C210.272 84.416 208.76 82.876 206.688 82.876C204.504 82.876 202.964 84.416 202.964 86.88V95ZM226.166 95H223.59V75.4H226.166V95ZM232.824 95H230.416V80.916H232.208L232.74 82.68H232.88C233.412 81.868 234.84 80.608 236.912 80.608C240.16 80.608 242.568 83.044 242.568 86.796V95H240.132V86.88C240.132 84.416 238.62 82.876 236.548 82.876C234.364 82.876 232.824 84.416 232.824 86.88V95ZM250.986 91.92L255.158 80.916H257.65L252.078 95H249.81L244.21 80.916H246.786L250.986 91.92ZM271.831 87.608C271.831 88.196 271.803 88.672 271.719 89.008H261.023C261.387 91.556 263.067 93.096 265.391 93.096C267.071 93.096 268.163 92.34 268.863 91.22H271.355C270.515 93.348 268.275 95.308 265.363 95.308C261.555 95.308 258.559 92.228 258.559 87.944C258.559 83.772 261.639 80.608 265.335 80.608C269.031 80.608 271.831 83.66 271.831 87.608ZM265.335 82.82C263.207 82.82 261.359 84.472 260.995 87.02H269.479C269.199 84.556 267.547 82.82 265.335 82.82ZM279.247 95.308C276.083 95.308 274.011 93.208 273.843 90.8H276.251C276.391 92.2 277.455 93.18 279.247 93.18C280.983 93.18 281.879 92.312 281.879 91.22C281.879 88.084 274.207 89.54 274.207 84.64C274.207 82.428 276.055 80.608 279.051 80.608C281.991 80.608 283.951 82.568 284.091 84.976H281.711C281.543 83.576 280.675 82.736 279.051 82.736C277.455 82.736 276.615 83.548 276.615 84.556C276.615 87.552 284.287 86.18 284.287 91.136C284.287 93.488 282.467 95.308 279.247 95.308ZM292.058 95.308C289.706 95.308 287.914 93.6 287.914 90.604V83.128H285.506V81H286.57C287.662 81 288.278 80.412 288.278 79.32V77.22H290.322V80.916H293.514V83.128H290.322V90.52C290.322 92.256 291.218 93.04 292.534 93.04C292.898 93.04 293.206 92.984 293.514 92.844V95.056C293.178 95.168 292.73 95.308 292.058 95.308Z" fill="white"/>
<path d="M423.528 48.92L431.564 59H427.476L420.224 49.732V59H416.976V39.4H420.224V48.388L427.196 39.4H431.032L423.528 48.92ZM438.092 44.496C441.564 44.496 443.748 46.82 443.748 50.264V59H441.452L440.892 57.404H440.752C440.192 58.132 438.876 59.336 436.608 59.336C433.836 59.336 431.848 57.432 431.848 55.108C431.848 52.28 434.536 50.488 438.428 50.488H440.696V50.012C440.696 48.304 439.66 47.268 438.064 47.268C436.524 47.268 435.74 48.22 435.572 49.144H432.492C432.744 46.764 434.676 44.496 438.092 44.496ZM437.252 56.732C439.352 56.732 440.696 55.276 440.696 53.596V52.7H438.456C436.048 52.7 434.928 53.568 434.928 54.856C434.928 55.948 435.712 56.732 437.252 56.732ZM453.679 59.336C449.759 59.336 446.651 56.536 446.651 50.572C446.651 44.552 448.807 40.464 454.379 39.652C456.199 39.372 457.683 39.176 459.111 38.952V41.78C457.795 42.032 456.171 42.284 454.883 42.48C451.271 43.012 450.039 45.112 449.675 47.408H449.815C450.375 46.568 451.859 45.336 454.183 45.336C457.571 45.336 460.511 48.192 460.511 52.336C460.511 56.48 457.543 59.336 453.679 59.336ZM453.651 56.48C455.751 56.48 457.431 54.884 457.431 52.336C457.431 49.76 455.751 48.164 453.651 48.164C451.551 48.164 449.843 49.76 449.843 52.336C449.843 54.884 451.551 56.48 453.651 56.48ZM468.608 44.496C472.08 44.496 474.264 46.82 474.264 50.264V59H471.968L471.408 57.404H471.268C470.708 58.132 469.392 59.336 467.124 59.336C464.352 59.336 462.364 57.432 462.364 55.108C462.364 52.28 465.052 50.488 468.944 50.488H471.212V50.012C471.212 48.304 470.176 47.268 468.58 47.268C467.04 47.268 466.256 48.22 466.088 49.144H463.008C463.26 46.764 465.192 44.496 468.608 44.496ZM467.768 56.732C469.868 56.732 471.212 55.276 471.212 53.596V52.7H468.972C466.564 52.7 465.444 53.568 465.444 54.856C465.444 55.948 466.228 56.732 467.768 56.732ZM487.078 50.488V44.832H490.158V59H487.078V53.344H480.778V59H477.698V44.832H480.778V50.488H487.078ZM499.965 59.336C496.129 59.336 492.937 56.032 492.937 51.916C492.937 47.772 496.129 44.496 499.965 44.496C503.801 44.496 506.993 47.772 506.993 51.916C506.993 56.032 503.801 59.336 499.965 59.336ZM499.965 56.48C502.149 56.48 503.941 54.604 503.941 51.916C503.941 49.228 502.149 47.352 499.965 47.352C497.781 47.352 495.989 49.228 495.989 51.916C495.989 54.604 497.781 56.48 499.965 56.48ZM518.872 51.552C519.992 51.972 521.196 53.064 521.196 54.968C521.196 57.236 519.376 59 516.8 59H509.772V44.832H516.268C518.816 44.832 520.636 46.568 520.636 48.612C520.636 50.124 519.684 51.16 518.872 51.552ZM515.708 47.24H512.74V50.656H515.708C516.912 50.656 517.668 49.984 517.668 48.92C517.668 47.912 516.912 47.24 515.708 47.24ZM512.74 56.592H516.268C517.388 56.592 518.228 55.836 518.228 54.716C518.228 53.68 517.388 52.868 516.268 52.868H512.74V56.592ZM541.074 54.268L547.822 39.4H550.734V59H547.57V46.4L541.83 59H540.094L534.41 46.54V59H531.246V39.4H534.326L541.074 54.268ZM559.991 44.496C563.463 44.496 565.647 46.82 565.647 50.264V59H563.351L562.791 57.404H562.651C562.091 58.132 560.775 59.336 558.507 59.336C555.735 59.336 553.747 57.432 553.747 55.108C553.747 52.28 556.435 50.488 560.327 50.488H562.595V50.012C562.595 48.304 561.559 47.268 559.963 47.268C558.423 47.268 557.639 48.22 557.471 49.144H554.391C554.643 46.764 556.575 44.496 559.991 44.496ZM559.151 56.732C561.251 56.732 562.595 55.276 562.595 53.596V52.7H560.355C557.947 52.7 556.827 53.568 556.827 54.856C556.827 55.948 557.611 56.732 559.151 56.732ZM575.213 51.552L581.289 59H577.453L572.161 52.308V59H569.081V44.832H572.161V51.104L577.117 44.832H580.673L575.213 51.552ZM588.477 59.336C584.641 59.336 581.449 56.032 581.449 51.916C581.449 47.772 584.641 44.496 588.477 44.496C592.005 44.496 594.469 47.268 595.029 50.04H591.949C591.613 48.892 590.493 47.352 588.477 47.352C586.293 47.352 584.501 49.228 584.501 51.916C584.501 54.604 586.293 56.48 588.477 56.48C590.493 56.48 591.613 54.94 591.949 53.792H595.029C594.469 56.536 592.005 59.336 588.477 59.336ZM600.596 54.576L607.484 44.832H610.2V59H607.204V49.312L600.344 59H597.628V44.832H600.596V54.576ZM621.516 55.052L626.052 44.832H629.216V59H626.22V50.516L622.3 59H620.704L616.756 50.432V59H613.788V44.832H616.98L621.516 55.052ZM452.071 84.556C453.415 85.004 455.487 86.46 455.487 89.372C455.487 92.536 452.911 95 449.159 95H441.011V75.4H448.823C452.323 75.4 454.703 77.696 454.703 80.58C454.703 82.876 453.247 84.108 452.071 84.556ZM448.543 78.228H444.259V83.38H448.543C450.279 83.38 451.455 82.288 451.455 80.776C451.455 79.292 450.279 78.228 448.543 78.228ZM444.259 92.172H448.879C450.867 92.172 452.239 90.884 452.239 89.12C452.239 87.384 450.867 86.096 448.879 86.096H444.259V92.172ZM457.311 95.336C456.807 95.336 456.415 95.252 456.163 95.168V92.424H456.667C457.983 92.424 458.711 91.696 458.851 89.736L459.607 80.832H469.799V95H466.719V83.688H462.351L461.791 90.324C461.511 93.684 459.887 95.336 457.311 95.336ZM478.671 80.496C482.143 80.496 484.327 82.82 484.327 86.264V95H482.031L481.471 93.404H481.331C480.771 94.132 479.455 95.336 477.187 95.336C474.415 95.336 472.427 93.432 472.427 91.108C472.427 88.28 475.115 86.488 479.007 86.488H481.275V86.012C481.275 84.304 480.239 83.268 478.643 83.268C477.103 83.268 476.319 84.22 476.151 85.144H473.071C473.323 82.764 475.255 80.496 478.671 80.496ZM477.831 92.732C479.931 92.732 481.275 91.276 481.275 89.596V88.7H479.035C476.627 88.7 475.507 89.568 475.507 90.856C475.507 91.948 476.291 92.732 477.831 92.732ZM499.135 80.832V92.228H501.347V98.584H498.379V95H488.831V98.584H485.835V92.228H487.039C487.739 91.668 488.299 90.856 488.439 89.456L489.139 80.832H499.135ZM490.343 92.228H496.167V83.604H491.883L491.407 89.456C491.267 90.8 490.903 91.696 490.343 92.228ZM506.561 90.576L513.449 80.832H516.165V95H513.169V85.312L506.309 95H503.593V80.832H506.561V90.576ZM527.481 91.052L532.017 80.832H535.181V95H532.185V86.516L528.265 95H526.669L522.721 86.432V95H519.753V80.832H522.945L527.481 91.052ZM541.725 90.576L548.613 80.832H551.329V95H548.333V85.312L541.473 95H538.757V80.832H541.725V90.576ZM557.997 100.04H554.917V80.832H557.213L557.773 82.4H557.913C558.305 81.896 559.845 80.496 562.141 80.496C565.641 80.496 568.665 83.604 568.665 87.916C568.665 92.228 565.641 95.336 562.141 95.336C559.985 95.336 558.445 94.02 558.137 93.516H557.997V100.04ZM561.805 92.48C563.849 92.48 565.613 90.632 565.613 87.916C565.613 85.2 563.849 83.352 561.805 83.352C559.761 83.352 557.997 85.2 557.997 87.916C557.997 90.632 559.761 92.48 561.805 92.48ZM577.649 95.336C573.813 95.336 570.621 92.032 570.621 87.916C570.621 83.772 573.813 80.496 577.649 80.496C581.485 80.496 584.677 83.772 584.677 87.916C584.677 92.032 581.485 95.336 577.649 95.336ZM577.649 92.48C579.833 92.48 581.625 90.604 581.625 87.916C581.625 85.228 579.833 83.352 577.649 83.352C575.465 83.352 573.673 85.228 573.673 87.916C573.673 90.604 575.465 92.48 577.649 92.48ZM596.556 87.552C597.676 87.972 598.88 89.064 598.88 90.968C598.88 93.236 597.06 95 594.484 95H587.456V80.832H593.952C596.5 80.832 598.32 82.568 598.32 84.612C598.32 86.124 597.368 87.16 596.556 87.552ZM593.392 83.24H590.424V86.656H593.392C594.596 86.656 595.352 85.984 595.352 84.92C595.352 83.912 594.596 83.24 593.392 83.24ZM590.424 92.592H593.952C595.072 92.592 595.912 91.836 595.912 90.716C595.912 89.68 595.072 88.868 593.952 88.868H590.424V92.592ZM604.615 90.576L611.503 80.832H614.219V95H611.223V85.312L604.363 95H601.647V80.832H604.615V90.576ZM626.152 87.16V80.832H629.204V95H626.152V90.044C625.508 90.408 624.136 90.996 622.512 90.996C619.544 90.996 617.304 88.924 617.304 85.676V80.832H620.384V85.424C620.384 87.188 621.42 88.14 623.212 88.14C624.472 88.14 625.48 87.636 626.152 87.16Z" fill="white"/>
</g>
<defs>
<clipPath id="clip0_9_152">
<rect width="631" height="133" fill="white"/>
</clipPath>
</defs>
</svg>
