<svg width="544" height="240" viewBox="0 0 544 240" fill="none" xmlns="http://www.w3.org/2000/svg">
<path d="M6.37983 30.3798H3.02591V4.86084H22.0922V30.3798H18.7383V8.03249H6.37983V30.3798Z" fill="white"/>
<path d="M30.7844 36.9419H27.6492V12.0426H29.9823L30.675 14.3393H30.8573C31.4041 13.6102 33.5185 11.6416 36.5079 11.6416C41.1013 11.6416 44.9656 15.5788 44.9656 21.193C44.9656 26.8072 41.1013 30.7808 36.5079 30.7808C33.5915 30.7808 31.477 28.8851 30.9666 28.156H30.7844V36.9419ZM36.3256 27.8279C39.2785 27.8279 41.8304 25.1667 41.8304 21.193C41.8304 17.2558 39.2785 14.5945 36.3256 14.5945C33.3363 14.5945 30.7844 17.2558 30.7844 21.193C30.7844 25.1667 33.3363 27.8279 36.3256 27.8279Z" fill="white"/>
<path d="M64.9462 20.7555C64.9462 21.5211 64.9097 22.1408 64.8004 22.5783H50.8743C51.3482 25.8958 53.5356 27.9008 56.5614 27.9008C58.7487 27.9008 60.1705 26.9165 61.0819 25.4583H64.3264C63.2328 28.2289 60.3163 30.7808 56.5249 30.7808C51.567 30.7808 47.6662 26.7707 47.6662 21.193C47.6662 15.7611 51.6763 11.6416 56.4885 11.6416C61.3006 11.6416 64.9462 15.6153 64.9462 20.7555ZM56.4885 14.5216C53.7178 14.5216 51.3118 16.6725 50.8378 19.99H61.8839C61.5194 16.7819 59.3685 14.5216 56.4885 14.5216Z" fill="white"/>
<path d="M82.6389 12.0426V27.4998H85.4824V35.0462H82.3837V30.3798H68.9315V35.0462H65.8328V27.4998H67.3275C68.3118 26.7707 69.1503 25.5677 69.2961 23.5626L70.2804 12.0426H82.6389ZM70.9002 27.4998H79.5402V14.9226H73.1604L72.3948 23.5626C72.2126 25.5677 71.6657 26.7707 70.9002 27.4998Z" fill="white"/>
<path d="M96.3984 30.7808C91.5497 30.7808 87.5396 26.6613 87.5396 21.193C87.5396 15.7611 91.5497 11.6416 96.3984 11.6416C100.773 11.6416 103.908 15.0684 104.601 18.6775H101.466C100.846 16.5267 99.2054 14.5945 96.3984 14.5945C93.2996 14.5945 90.6748 17.2558 90.6748 21.193C90.6748 25.1667 93.2996 27.8279 96.3984 27.8279C99.2054 27.8279 100.846 25.8958 101.466 23.7449H104.601C103.908 27.354 100.773 30.7808 96.3984 30.7808Z" fill="white"/>
<path d="M124.4 20.7555C124.4 21.5211 124.364 22.1408 124.254 22.5783H110.328C110.802 25.8958 112.99 27.9008 116.016 27.9008C118.203 27.9008 119.625 26.9165 120.536 25.4583H123.781C122.687 28.2289 119.77 30.7808 115.979 30.7808C111.021 30.7808 107.12 26.7707 107.12 21.193C107.12 15.7611 111.13 11.6416 115.943 11.6416C120.755 11.6416 124.4 15.6153 124.4 20.7555ZM115.943 14.5216C113.172 14.5216 110.766 16.6725 110.292 19.99H121.338C120.973 16.7819 118.823 14.5216 115.943 14.5216Z" fill="white"/>
<path d="M142.093 12.0426V27.4998H144.937V35.0462H141.838V30.3798H128.386V35.0462H125.287V27.4998H126.782C127.766 26.7707 128.604 25.5677 128.75 23.5626L129.735 12.0426H142.093ZM130.354 27.4998H138.994V14.9226H132.615L131.849 23.5626C131.667 25.5677 131.12 26.7707 130.354 27.4998Z" fill="white"/>
<path d="M154.366 11.6416C158.559 11.6416 161.439 14.5581 161.439 18.7505V30.3798H159.069L158.413 28.0831H158.231C157.502 29.1403 155.715 30.7808 152.726 30.7808C149.007 30.7808 146.601 28.3019 146.601 25.276C146.601 21.7763 149.955 19.4431 154.84 19.4431H158.267V18.6046C158.267 16.0892 156.699 14.5216 154.366 14.5216C152.033 14.5216 150.867 15.9069 150.575 17.511H147.403C147.731 14.4487 150.32 11.6416 154.366 11.6416ZM153.236 28.0102C156.335 28.0102 158.267 25.9322 158.267 23.3439V21.9586H155.059C151.596 21.9586 149.736 23.1616 149.736 25.1302C149.736 26.8072 150.939 28.0102 153.236 28.0102Z" fill="white"/>
<path d="M172.78 30.3798H169.608V14.9955H163.885V12.0426H178.503V14.9955H172.78V30.3798Z" fill="white"/>
<path d="M196.92 20.7555C196.92 21.5211 196.884 22.1408 196.774 22.5783H182.848C183.322 25.8958 185.509 27.9008 188.535 27.9008C190.723 27.9008 192.144 26.9165 193.056 25.4583H196.3C195.207 28.2289 192.29 30.7808 188.499 30.7808C183.541 30.7808 179.64 26.7707 179.64 21.193C179.64 15.7611 183.65 11.6416 188.462 11.6416C193.275 11.6416 196.92 15.6153 196.92 20.7555ZM188.462 14.5216C185.692 14.5216 183.286 16.6725 182.812 19.99H193.858C193.493 16.7819 191.342 14.5216 188.462 14.5216Z" fill="white"/>
<path d="M198.827 30.7808C198.208 30.7808 197.807 30.6715 197.442 30.5621V27.755H198.098C199.958 27.755 201.015 26.7343 201.234 23.9272L202.218 12.0426H214.795V30.3798H211.623V14.9955H205.061L204.296 24.3646C203.931 28.7758 201.853 30.7808 198.827 30.7808Z" fill="white"/>
<path d="M222.889 18.4224H227.263C231.091 18.4224 233.607 20.8649 233.607 24.4011C233.607 27.9373 231.091 30.3798 227.263 30.3798H219.754V12.0426H222.889V18.4224ZM222.889 27.5727H226.972C229.159 27.5727 230.472 26.3697 230.472 24.4011C230.472 22.396 229.159 21.193 226.972 21.193H222.889V27.5727Z" fill="white"/>
<path d="M5.61426 75.9495H2.47907V57.6122H17.6811V75.9495H14.5459V60.5651H5.61426V75.9495Z" fill="white"/>
<path d="M25.7646 82.5115H22.6294V57.6122H24.9626L25.6552 59.9089H25.8375C26.3843 59.1798 28.4988 57.2112 31.4881 57.2112C36.0815 57.2112 39.9459 61.1484 39.9459 66.7626C39.9459 72.3768 36.0815 76.3505 31.4881 76.3505C28.5717 76.3505 26.4572 74.4548 25.9469 73.7257H25.7646V82.5115ZM31.3058 73.3976C34.2588 73.3976 36.8107 70.7363 36.8107 66.7626C36.8107 62.8254 34.2588 60.1641 31.3058 60.1641C28.3165 60.1641 25.7646 62.8254 25.7646 66.7626C25.7646 70.7363 28.3165 73.3976 31.3058 73.3976Z" fill="white"/>
<path d="M50.375 57.2112C54.5674 57.2112 57.4474 60.1277 57.4474 64.3201V75.9495H55.0778L54.4216 73.6527H54.2393C53.5102 74.71 51.7239 76.3505 48.7345 76.3505C45.016 76.3505 42.61 73.8715 42.61 70.8457C42.61 67.3459 45.9639 65.0127 50.849 65.0127H54.2758V64.1743C54.2758 61.6588 52.7082 60.0912 50.375 60.0912C48.0419 60.0912 46.8753 61.4765 46.5836 63.0806H43.412C43.7401 60.0183 46.3284 57.2112 50.375 57.2112ZM49.2449 73.5798C52.3436 73.5798 54.2758 71.5018 54.2758 68.9135V67.5282H51.0677C47.6044 67.5282 45.7452 68.7312 45.7452 70.6998C45.7452 72.3768 46.9482 73.5798 49.2449 73.5798Z" fill="white"/>
<path d="M73.3005 66.2887C74.7223 66.8355 76.3628 68.2208 76.3628 70.7727C76.3628 73.7621 74.0661 75.9495 70.7851 75.9495H62.218V57.6122H70.0924C73.337 57.6122 75.6337 59.7996 75.6337 62.4973C75.6337 64.4659 74.3942 65.7419 73.3005 66.2887ZM69.655 60.2735H65.3167V65.3044H69.655C71.4413 65.3044 72.5714 64.2836 72.5714 62.7525C72.5714 61.2578 71.4413 60.2735 69.655 60.2735ZM65.3167 73.2882H70.3841C72.061 73.2882 73.3005 72.1216 73.3005 70.5176C73.3005 68.9864 72.061 67.7834 70.3841 67.7834H65.3167V73.2882Z" fill="white"/>
<path d="M78.6376 76.3505C78.0178 76.3505 77.6168 76.2411 77.2523 76.1317V73.3246H77.9085C79.7677 73.3246 80.8249 72.3039 81.0437 69.4968L82.028 57.6122H94.6052V75.9495H91.4335V60.5651H84.8715L84.1059 69.9343C83.7414 74.3454 81.6634 76.3505 78.6376 76.3505Z" fill="white"/>
<path d="M115.714 66.3251C115.714 67.0907 115.677 67.7105 115.568 68.1479H101.642C102.116 71.4654 104.303 73.4705 107.329 73.4705C109.516 73.4705 110.938 72.4862 111.849 71.0279H115.094C114 73.7986 111.084 76.3505 107.292 76.3505C102.334 76.3505 98.4336 72.3403 98.4336 66.7626C98.4336 61.3307 102.444 57.2112 107.256 57.2112C112.068 57.2112 115.714 61.1849 115.714 66.3251ZM107.256 60.0912C104.485 60.0912 102.079 62.2421 101.605 65.5596H112.651C112.287 62.3515 110.136 60.0912 107.256 60.0912Z" fill="white"/>
<path d="M131.895 65.2679V57.6122H135.066V75.9495H131.895V68.2208H122.671V75.9495H119.536V57.6122H122.671V65.2679H131.895Z" fill="white"/>
<path d="M143.106 71.0644L152.912 57.6122H155.683V75.9495H152.584V62.4973L142.777 75.9495H140.007V57.6122H143.106V71.0644Z" fill="white"/>
<path d="M166.124 57.6122H173.743V75.9495H170.608V69.3874H166.744L162.733 75.9495H159.088L163.608 68.9135C161.312 68.0386 159.781 65.997 159.781 63.4816C159.781 60.1641 162.405 57.6122 166.124 57.6122ZM170.644 60.3829H166.343C164.338 60.3829 162.916 61.6953 162.916 63.4816C162.916 65.3408 164.228 66.5803 166.343 66.5803H170.644V60.3829Z" fill="white"/>
<path d="M192.482 76.3505C187.634 76.3505 184.462 72.8872 184.462 68.7677H187.78C187.816 71.0279 189.675 73.1788 192.482 73.1788C195.326 73.1788 197.112 71.2467 197.112 68.4396V50.4305H200.466V68.4396C200.466 73.0694 197.331 76.3505 192.482 76.3505Z" fill="white"/>
<path d="M212.943 76.3505C208.714 76.3505 205.616 73.1788 205.616 68.2938V57.6122H208.751V68.1844C208.751 71.3925 210.756 73.3976 213.454 73.3976C216.297 73.3976 218.266 71.3925 218.266 68.1844V57.6122H221.437V75.9495H219.068L218.412 73.6527H218.229C217.537 74.71 215.641 76.3505 212.943 76.3505Z" fill="white"/>
<path d="M232.244 76.3505C228.124 76.3505 225.427 73.6163 225.208 70.4811H228.343C228.525 72.3039 229.911 73.5798 232.244 73.5798C234.504 73.5798 235.671 72.4497 235.671 71.0279C235.671 66.9449 225.682 68.8406 225.682 62.4608C225.682 59.5808 228.088 57.2112 231.989 57.2112C235.817 57.2112 238.369 59.7631 238.551 62.8983H235.452C235.233 61.0755 234.103 59.9819 231.989 59.9819C229.911 59.9819 228.817 61.0391 228.817 62.3515C228.817 66.2522 238.806 64.4659 238.806 70.9186C238.806 73.9808 236.436 76.3505 232.244 76.3505Z" fill="white"/>
<path d="M249.279 57.2112C253.472 57.2112 256.352 60.1277 256.352 64.3201V75.9495H253.982L253.326 73.6527H253.144C252.414 74.71 250.628 76.3505 247.639 76.3505C243.92 76.3505 241.514 73.8715 241.514 70.8457C241.514 67.3459 244.868 65.0127 249.753 65.0127H253.18V64.1743C253.18 61.6588 251.612 60.0912 249.279 60.0912C246.946 60.0912 245.78 61.4765 245.488 63.0806H242.316C242.644 60.0183 245.233 57.2112 249.279 57.2112ZM248.149 73.5798C251.248 73.5798 253.18 71.5018 253.18 68.9135V67.5282H249.972C246.509 67.5282 244.649 68.7312 244.649 70.6998C244.649 72.3768 245.852 73.5798 248.149 73.5798Z" fill="white"/>
<path d="M264.257 75.9495H261.122V57.6122H263.455L264.148 59.9089H264.33C265.023 58.8517 266.882 57.2112 269.58 57.2112C273.809 57.2112 276.944 60.3829 276.944 65.2679V75.9495H273.772V65.3773C273.772 62.1692 271.804 60.1641 269.106 60.1641C266.263 60.1641 264.257 62.1692 264.257 65.3773V75.9495Z" fill="white"/>
<path d="M294.465 75.9495H291.111V50.4305H294.465V75.9495Z" fill="white"/>
<path d="M303.134 75.9495H299.999V57.6122H302.332L303.025 59.9089H303.207C303.9 58.8517 305.759 57.2112 308.457 57.2112C312.685 57.2112 315.821 60.3829 315.821 65.2679V75.9495H312.649V65.3773C312.649 62.1692 310.68 60.1641 307.983 60.1641C305.139 60.1641 303.134 62.1692 303.134 65.3773V75.9495Z" fill="white"/>
<path d="M326.782 71.9393L332.213 57.6122H335.458L328.203 75.9495H325.25L317.959 57.6122H321.313L326.782 71.9393Z" fill="white"/>
<path d="M353.922 66.3251C353.922 67.0907 353.885 67.7105 353.776 68.1479H339.85C340.324 71.4654 342.511 73.4705 345.537 73.4705C347.724 73.4705 349.146 72.4862 350.057 71.0279H353.302C352.208 73.7986 349.292 76.3505 345.5 76.3505C340.542 76.3505 336.642 72.3403 336.642 66.7626C336.642 61.3307 340.652 57.2112 345.464 57.2112C350.276 57.2112 353.922 61.1849 353.922 66.3251ZM345.464 60.0912C342.693 60.0912 340.287 62.2421 339.813 65.5596H350.859C350.495 62.3515 348.344 60.0912 345.464 60.0912Z" fill="white"/>
<path d="M363.577 76.3505C359.458 76.3505 356.76 73.6163 356.541 70.4811H359.676C359.859 72.3039 361.244 73.5798 363.577 73.5798C365.837 73.5798 367.004 72.4497 367.004 71.0279C367.004 66.9449 357.015 68.8406 357.015 62.4608C357.015 59.5808 359.421 57.2112 363.322 57.2112C367.15 57.2112 369.702 59.7631 369.884 62.8983H366.785C366.566 61.0755 365.436 59.9819 363.322 59.9819C361.244 59.9819 360.15 61.0391 360.15 62.3515C360.15 66.2522 370.139 64.4659 370.139 70.9186C370.139 73.9808 367.769 76.3505 363.577 76.3505Z" fill="white"/>
<path d="M380.256 76.3505C377.194 76.3505 374.861 74.1267 374.861 70.2259V60.4922H371.726V57.7216H373.111C374.533 57.7216 375.335 56.956 375.335 55.5343V52.8001H377.996V57.6122H382.152V60.4922H377.996V70.1165C377.996 72.3768 379.163 73.3976 380.876 73.3976C381.35 73.3976 381.751 73.3246 382.152 73.1424V76.0224C381.715 76.1682 381.131 76.3505 380.256 76.3505Z" fill="white"/>
<path d="M13.7439 134.145C6.92667 134.145 1.20312 128.276 1.20312 120.911C1.20312 113.547 6.92667 107.678 13.7439 107.678C20.1601 107.678 24.1702 112.527 25.3003 117.229H19.8684C19.2852 115.079 17.2072 112.709 13.7439 112.709C9.80667 112.709 6.41629 116.172 6.41629 120.911C6.41629 125.651 9.80667 129.114 13.7439 129.114C17.2072 129.114 19.2852 126.744 20.0507 124.63H25.4826C24.3889 129.26 20.3059 134.145 13.7439 134.145Z" fill="white"/>
<path d="M35.9295 114.605C40.8145 114.605 43.6945 117.813 43.6945 122.552V133.671H39.976L39.174 131.848H38.9917C38.2262 132.65 36.5857 134.145 33.7057 134.145C30.1695 134.145 27.4353 131.702 27.4353 128.604C27.4353 124.776 31.0808 122.406 36.3669 122.406H38.7365V122.042C38.7365 120.109 37.6429 119.016 35.893 119.016C34.216 119.016 33.414 120.146 33.2682 120.911H28.3102C28.5654 117.776 31.0444 114.605 35.9295 114.605ZM34.8722 130.098C37.2419 130.098 38.7365 128.421 38.7365 126.671V125.724H36.2211C33.414 125.724 32.3933 126.744 32.3933 128.13C32.3933 129.26 33.2317 130.098 34.8722 130.098Z" fill="white"/>
<path d="M46.8881 134.145C46.1954 134.145 45.6121 134.036 45.2476 133.926V129.479H45.9402C47.4714 129.479 48.3099 128.64 48.4921 126.416L49.44 115.079H63.4754V133.671H58.5175V119.672H53.8147L53.1585 127.51C52.7939 131.848 50.6066 134.145 46.8881 134.145Z" fill="white"/>
<path d="M72.5398 126.781L80.5601 115.079H84.9347V133.671H80.159V121.969L72.1388 133.671H67.7641V115.079H72.5398V126.781Z" fill="white"/>
<path d="M99.7309 127.401L105.053 115.079H110.267V133.671H105.491V123.646L100.934 133.671H98.5643L94.0074 123.646V133.671H89.2317V115.079H94.4084L99.7309 127.401Z" fill="white"/>
<path d="M123.11 134.145C117.97 134.145 113.595 129.661 113.595 124.375C113.595 119.089 117.97 114.605 123.11 114.605C128.251 114.605 132.625 119.089 132.625 124.375C132.625 129.661 128.251 134.145 123.11 134.145ZM123.11 129.551C125.699 129.551 127.667 127.401 127.667 124.375C127.667 121.349 125.699 119.198 123.11 119.198C120.522 119.198 118.553 121.349 118.553 124.375C118.553 127.401 120.522 129.551 123.11 129.551Z" fill="white"/>
<path d="M148.736 123.937C150.195 124.521 151.653 125.942 151.653 128.312C151.653 131.265 149.21 133.671 145.747 133.671H135.941V115.079H145.054C148.481 115.079 150.924 117.412 150.924 120.109C150.924 122.042 149.757 123.427 148.736 123.937ZM144.07 118.761H140.716V122.552H144.07C145.31 122.552 146.148 121.859 146.148 120.583C146.148 119.49 145.31 118.761 144.07 118.761ZM140.716 129.989H144.726C146.002 129.989 146.877 129.223 146.877 127.911C146.877 126.744 146.002 125.869 144.726 125.869H140.716V129.989Z" fill="white"/>
<path d="M175.146 133.671H169.932V113.183H162.532V108.152H182.546V113.183H175.146V133.671Z" fill="white"/>
<path d="M187.817 126.781L195.837 115.079H200.212V133.671H195.436V121.969L187.416 133.671H183.041V115.079H187.817V126.781Z" fill="white"/>
<path d="M215.008 127.401L220.33 115.079H225.544V133.671H220.768V123.646L216.211 133.671H213.841L209.284 123.646V133.671H204.509V115.079H209.685L215.008 127.401Z" fill="white"/>
<path d="M237.403 127.182L241.486 115.079H246.59L239.153 134.218C237.367 138.848 235.434 140.415 232.81 140.415C231.825 140.415 230.987 140.197 230.476 140.014V135.494C230.841 135.676 231.242 135.749 231.825 135.749C233.356 135.749 234.268 135.202 234.851 133.525L234.96 133.161L227.706 115.079H233.065L237.403 127.182Z" fill="white"/>
<path d="M253.683 140.233H248.725V115.079H252.444L253.246 116.901H253.428C253.939 116.282 255.798 114.605 258.714 114.605C263.271 114.605 267.318 118.761 267.318 124.375C267.318 129.989 263.271 134.145 258.714 134.145C256.053 134.145 254.23 132.614 253.866 132.067H253.683V140.233ZM258.022 129.551C260.318 129.551 262.36 127.437 262.36 124.375C262.36 121.312 260.318 119.198 258.022 119.198C255.725 119.198 253.683 121.312 253.683 124.375C253.683 127.437 255.725 129.551 258.022 129.551Z" fill="white"/>
<path d="M2.55199 153.722H12.2857C17.3165 153.722 21.1444 157.44 21.1444 162.362C21.1444 167.283 17.3165 171.002 12.2857 171.002H7.76515V179.241H2.55199V153.722ZM7.76515 165.971H12.1763C14.2178 165.971 15.9312 164.44 15.9312 162.362C15.9312 160.284 14.2178 158.752 12.1763 158.752H7.76515V165.971Z" fill="white"/>
<path d="M31.1589 160.174C36.0439 160.174 38.924 163.382 38.924 168.122V179.241H35.2055L34.4034 177.418H34.2212C33.4556 178.22 31.8151 179.715 28.9351 179.715C25.3989 179.715 22.6647 177.272 22.6647 174.173C22.6647 170.345 26.3103 167.976 31.5964 167.976H33.966V167.611C33.966 165.679 32.8723 164.585 31.1224 164.585C29.4455 164.585 28.6434 165.716 28.4976 166.481H23.5396C23.7948 163.346 26.2738 160.174 31.1589 160.174ZM30.1017 175.668C32.4713 175.668 33.966 173.991 33.966 172.241V171.293H31.4505C28.6434 171.293 27.6227 172.314 27.6227 173.699C27.6227 174.829 28.4612 175.668 30.1017 175.668Z" fill="white"/>
<path d="M66.9353 169.944C66.9353 175.267 62.7065 179.605 56.9829 179.715V185.803H52.0249V179.715C46.3014 179.605 42.0725 175.267 42.0725 169.944C42.0725 164.622 46.3014 160.284 52.0249 160.174V153.722H56.9829V160.174C62.7065 160.284 66.9353 164.622 66.9353 169.944ZM47.0305 169.944C47.0305 173.007 48.9991 175.048 52.1343 175.121V164.768C48.9991 164.841 47.0305 166.919 47.0305 169.944ZM56.8735 164.768V175.121C60.0087 175.048 61.9773 173.007 61.9773 169.944C61.9773 166.919 60.0087 164.841 56.8735 164.768Z" fill="white"/>
<path d="M79.7153 169.762L85.9128 179.241H80.2257L76.5437 173.225L72.8616 179.241H67.3933L73.5908 169.762L67.7943 160.648H73.4085L76.7624 166.226L80.0799 160.648H85.4753L79.7153 169.762Z" fill="white"/>
<path d="M94.992 160.174C99.877 160.174 102.757 163.382 102.757 168.122V179.241H99.0385L98.2365 177.418H98.0542C97.2887 178.22 95.6482 179.715 92.7682 179.715C89.232 179.715 86.4978 177.272 86.4978 174.173C86.4978 170.345 90.1434 167.976 95.4294 167.976H97.799V167.611C97.799 165.679 96.7054 164.585 94.9555 164.585C93.2785 164.585 92.4765 165.716 92.3307 166.481H87.3727C87.6279 163.346 90.1069 160.174 94.992 160.174ZM93.9347 175.668C96.3044 175.668 97.799 173.991 97.799 172.241V171.293H95.2836C92.4765 171.293 91.4558 172.314 91.4558 173.699C91.4558 174.829 92.2942 175.668 93.9347 175.668Z" fill="white"/>
<path d="M115.21 179.241H110.252V165.242H104.82V160.648H120.642V165.242H115.21V179.241Z" fill="white"/>
<path d="M131.049 179.715C125.909 179.715 121.535 175.23 121.535 169.944C121.535 164.658 125.909 160.174 131.049 160.174C136.19 160.174 140.564 164.658 140.564 169.944C140.564 175.23 136.19 179.715 131.049 179.715ZM131.049 175.121C133.638 175.121 135.606 172.97 135.606 169.944C135.606 166.919 133.638 164.768 131.049 164.768C128.461 164.768 126.493 166.919 126.493 169.944C126.493 172.97 128.461 175.121 131.049 175.121Z" fill="white"/>
<path d="M156.676 169.507C158.134 170.09 159.592 171.512 159.592 173.882C159.592 176.835 157.149 179.241 153.686 179.241H143.88V160.648H152.994C156.42 160.648 158.863 162.981 158.863 165.679C158.863 167.611 157.696 168.997 156.676 169.507ZM152.009 164.33H148.655V168.122H152.009C153.249 168.122 154.087 167.429 154.087 166.153C154.087 165.059 153.249 164.33 152.009 164.33ZM148.655 175.559H152.665C153.941 175.559 154.816 174.793 154.816 173.481C154.816 172.314 153.941 171.439 152.665 171.439H148.655V175.559Z" fill="white"/>
<path d="M167.702 172.35L175.722 160.648H180.097V179.241H175.321V167.538L167.301 179.241H162.926V160.648H167.702V172.35Z" fill="white"/>
<path d="M195.221 168.559V160.648H200.179V179.241H195.221V173.152C194.419 173.59 192.669 174.283 190.628 174.283C186.727 174.283 183.738 171.476 183.738 167.101V160.648H188.696V166.554C188.696 168.668 189.789 169.689 191.94 169.689C193.289 169.689 194.419 169.142 195.221 168.559Z" fill="white"/>
</svg>
