<svg width="179" height="79" viewBox="0 0 179 79" fill="none" xmlns="http://www.w3.org/2000/svg">
<path d="M2.80797 10.1321C1.21197 10.1321 0.167969 8.9921 0.167969 7.6361H1.25997C1.27197 8.3801 1.88397 9.0881 2.80797 9.0881C3.74397 9.0881 4.33197 8.4521 4.33197 7.5281V1.6001H5.43597V7.5281C5.43597 9.0521 4.40397 10.1321 2.80797 10.1321Z" fill="white"/>
<path d="M9.54297 10.1321C8.15097 10.1321 7.13097 9.0881 7.13097 7.4801V3.9641H8.16297V7.4441C8.16297 8.5001 8.82297 9.1601 9.71097 9.1601C10.647 9.1601 11.295 8.5001 11.295 7.4441V3.9641H12.339V10.0001H11.559L11.343 9.2441H11.283C11.055 9.5921 10.431 10.1321 9.54297 10.1321Z" fill="white"/>
<path d="M15.8961 10.1321C14.5401 10.1321 13.6521 9.2321 13.5801 8.2001H14.6121C14.6721 8.8001 15.1281 9.2201 15.8961 9.2201C16.6401 9.2201 17.0241 8.8481 17.0241 8.3801C17.0241 7.0361 13.7361 7.6601 13.7361 5.5601C13.7361 4.6121 14.5281 3.8321 15.8121 3.8321C17.0721 3.8321 17.9121 4.6721 17.9721 5.7041H16.9521C16.8801 5.1041 16.5081 4.7441 15.8121 4.7441C15.1281 4.7441 14.7681 5.0921 14.7681 5.5241C14.7681 6.8081 18.0561 6.2201 18.0561 8.3441C18.0561 9.3521 17.2761 10.1321 15.8961 10.1321Z" fill="white"/>
<path d="M21.5036 3.8321C22.8836 3.8321 23.8316 4.7921 23.8316 6.1721V10.0001H23.0516L22.8356 9.2441H22.7756C22.5356 9.5921 21.9476 10.1321 20.9636 10.1321C19.7396 10.1321 18.9476 9.3161 18.9476 8.3201C18.9476 7.1681 20.0516 6.4001 21.6596 6.4001H22.7876V6.1241C22.7876 5.2961 22.2716 4.7801 21.5036 4.7801C20.7356 4.7801 20.3516 5.2361 20.2556 5.7641H19.2116C19.3196 4.7561 20.1716 3.8321 21.5036 3.8321ZM21.1316 9.2201C22.1516 9.2201 22.7876 8.5361 22.7876 7.6841V7.2281H21.7316C20.5916 7.2281 19.9796 7.6241 19.9796 8.2721C19.9796 8.8241 20.3756 9.2201 21.1316 9.2201Z" fill="white"/>
<path d="M26.4339 10.0001H25.4019V3.9641H26.1699L26.3979 4.7201H26.4579C26.6859 4.3721 27.2979 3.8321 28.1859 3.8321C29.5779 3.8321 30.6099 4.8761 30.6099 6.4841V10.0001H29.5659V6.5201C29.5659 5.4641 28.9179 4.8041 28.0299 4.8041C27.0939 4.8041 26.4339 5.4641 26.4339 6.5201V10.0001Z" fill="white"/>
<path d="M36.3773 10.0001H35.2733V1.6001H36.3773V10.0001Z" fill="white"/>
<path d="M39.2308 10.0001H38.1988V3.9641H38.9668L39.1948 4.7201H39.2548C39.4828 4.3721 40.0948 3.8321 40.9828 3.8321C42.3748 3.8321 43.4068 4.8761 43.4068 6.4841V10.0001H42.3628V6.5201C42.3628 5.4641 41.7148 4.8041 40.8268 4.8041C39.8908 4.8041 39.2308 5.4641 39.2308 6.5201V10.0001Z" fill="white"/>
<path d="M47.0148 8.6801L48.8027 3.9641H49.8708L47.4827 10.0001H46.5107L44.1107 3.9641H45.2147L47.0148 8.6801Z" fill="white"/>
<path d="M55.9484 6.8321C55.9484 7.0841 55.9364 7.2881 55.9004 7.4321H51.3164C51.4724 8.5241 52.1924 9.1841 53.1884 9.1841C53.9084 9.1841 54.3764 8.8601 54.6764 8.3801H55.7444C55.3844 9.2921 54.4244 10.1321 53.1764 10.1321C51.5444 10.1321 50.2604 8.8121 50.2604 6.9761C50.2604 5.1881 51.5804 3.8321 53.1644 3.8321C54.7484 3.8321 55.9484 5.1401 55.9484 6.8321ZM53.1644 4.7801C52.2524 4.7801 51.4604 5.4881 51.3044 6.5801H54.9404C54.8204 5.5241 54.1124 4.7801 53.1644 4.7801Z" fill="white"/>
<path d="M59.1266 10.1321C57.7706 10.1321 56.8826 9.2321 56.8106 8.2001H57.8426C57.9026 8.8001 58.3586 9.2201 59.1266 9.2201C59.8706 9.2201 60.2546 8.8481 60.2546 8.3801C60.2546 7.0361 56.9666 7.6601 56.9666 5.5601C56.9666 4.6121 57.7586 3.8321 59.0426 3.8321C60.3026 3.8321 61.1426 4.6721 61.2026 5.7041H60.1826C60.1106 5.1041 59.7386 4.7441 59.0426 4.7441C58.3586 4.7441 57.9986 5.0921 57.9986 5.5241C57.9986 6.8081 61.2866 6.2201 61.2866 8.3441C61.2866 9.3521 60.5066 10.1321 59.1266 10.1321Z" fill="white"/>
<path d="M64.6169 10.1321C63.6089 10.1321 62.8409 9.4001 62.8409 8.1161V4.9121H61.8089V4.0001H62.2649C62.7329 4.0001 62.9969 3.7481 62.9969 3.2801V2.3801H63.8729V3.9641H65.2409V4.9121H63.8729V8.0801C63.8729 8.8241 64.2569 9.1601 64.8209 9.1601C64.9769 9.1601 65.1089 9.1361 65.2409 9.0761V10.0241C65.0969 10.0721 64.9049 10.1321 64.6169 10.1321Z" fill="white"/>
<path d="M2.09997 20.0321H4.25997C5.81997 20.0321 6.89997 21.1001 6.89997 22.5161C6.89997 23.9321 5.81997 25.0001 4.25997 25.0001H0.995969V16.6001H6.26397V17.6081H2.09997V20.0321ZM2.09997 23.9921H4.24797C5.18397 23.9921 5.79597 23.4161 5.79597 22.5161C5.79597 21.6161 5.18397 21.0401 4.24797 21.0401H2.09997V23.9921Z" fill="white"/>
<path d="M10.3239 18.8321C11.7039 18.8321 12.6519 19.7921 12.6519 21.1721V25.0001H11.8719L11.6559 24.2441H11.5959C11.3559 24.5921 10.7679 25.1321 9.78391 25.1321C8.55991 25.1321 7.76791 24.3161 7.76791 23.3201C7.76791 22.1681 8.87191 21.4001 10.4799 21.4001H11.6079V21.1241C11.6079 20.2961 11.0919 19.7801 10.3239 19.7801C9.55591 19.7801 9.17191 20.2361 9.07591 20.7641H8.03191C8.13991 19.7561 8.99191 18.8321 10.3239 18.8321ZM9.95191 24.2201C10.9719 24.2201 11.6079 23.5361 11.6079 22.6841V22.2281H10.5519C9.41191 22.2281 8.79991 22.6241 8.79991 23.2721C8.79991 23.8241 9.19591 24.2201 9.95191 24.2201Z" fill="white"/>
<path d="M16.7662 25.1321C15.1702 25.1321 13.8502 23.7761 13.8502 21.9761C13.8502 20.1881 15.1702 18.8321 16.7662 18.8321C18.2062 18.8321 19.2382 19.9601 19.4662 21.1481H18.4342C18.2302 20.4401 17.6902 19.8041 16.7662 19.8041C15.7462 19.8041 14.8822 20.6801 14.8822 21.9761C14.8822 23.2841 15.7462 24.1601 16.7662 24.1601C17.6902 24.1601 18.2302 23.5241 18.4342 22.8161H19.4662C19.2382 24.0041 18.2062 25.1321 16.7662 25.1321Z" fill="white"/>
<path d="M22.8395 21.8561L24.7715 24.0281H25.7195V26.5361H24.6995V25.0001H24.2675L21.6995 22.0001V25.0001H20.6675V18.9641H21.6995V21.8081L24.0875 18.9641H25.3235L22.8395 21.8561Z" fill="white"/>
<path d="M28.5348 18.8321C29.9148 18.8321 30.8628 19.7921 30.8628 21.1721V25.0001H30.0828L29.8668 24.2441H29.8068C29.5668 24.5921 28.9788 25.1321 27.9948 25.1321C26.7708 25.1321 25.9788 24.3161 25.9788 23.3201C25.9788 22.1681 27.0828 21.4001 28.6908 21.4001H29.8188V21.1241C29.8188 20.2961 29.3028 19.7801 28.5348 19.7801C27.7668 19.7801 27.3828 20.2361 27.2868 20.7641H26.2428C26.3508 19.7561 27.2028 18.8321 28.5348 18.8321ZM28.1628 24.2201C29.1828 24.2201 29.8188 23.5361 29.8188 22.6841V22.2281H28.7628C27.6228 22.2281 27.0108 22.6241 27.0108 23.2721C27.0108 23.8241 27.4068 24.2201 28.1628 24.2201Z" fill="white"/>
<path d="M33.4652 27.1601H32.4332V18.9641H33.2012L33.4292 19.7201H33.4892C33.6692 19.4801 34.3652 18.8321 35.3492 18.8321C36.8612 18.8321 38.1332 20.1281 38.1332 21.9761C38.1332 23.8241 36.8612 25.1321 35.3492 25.1321C34.3892 25.1321 33.6932 24.5081 33.5252 24.2681H33.4652V27.1601ZM35.2892 24.1601C36.2612 24.1601 37.1012 23.2841 37.1012 21.9761C37.1012 20.6801 36.2612 19.8041 35.2892 19.8041C34.3052 19.8041 33.4652 20.6801 33.4652 21.9761C33.4652 23.2841 34.3052 24.1601 35.2892 24.1601Z" fill="white"/>
<path d="M42.5861 23.6321L44.6981 18.9641H45.7301V25.0001H44.7101V21.0521L42.8621 25.0001H42.2621L40.4141 21.0521V25.0001H39.3941V18.9641H40.4621L42.5861 23.6321Z" fill="white"/>
<path d="M49.5348 18.8321C50.9148 18.8321 51.8628 19.7921 51.8628 21.1721V25.0001H51.0828L50.8668 24.2441H50.8068C50.5668 24.5921 49.9788 25.1321 48.9948 25.1321C47.7708 25.1321 46.9788 24.3161 46.9788 23.3201C46.9788 22.1681 48.0828 21.4001 49.6908 21.4001H50.8188V21.1241C50.8188 20.2961 50.3028 19.7801 49.5348 19.7801C48.7668 19.7801 48.3828 20.2361 48.2868 20.7641H47.2428C47.3508 19.7561 48.2028 18.8321 49.5348 18.8321ZM49.1628 24.2201C50.1828 24.2201 50.8188 23.5361 50.8188 22.6841V22.2281H49.7628C48.6228 22.2281 48.0108 22.6241 48.0108 23.2721C48.0108 23.8241 48.4068 24.2201 49.1628 24.2201Z" fill="white"/>
<path d="M59.3634 25.0001H58.2594V17.6441H55.7154V16.6001H61.9074V17.6441H59.3634V25.0001Z" fill="white"/>
<path d="M64.4967 18.8321C66.0807 18.8321 67.4127 20.1881 67.4127 21.9761C67.4127 23.7761 66.0807 25.1321 64.4967 25.1321C62.9007 25.1321 61.5807 23.7761 61.5807 21.9761C61.5807 20.1881 62.9007 18.8321 64.4967 18.8321ZM64.4967 19.7801C63.5607 19.7801 62.7807 20.4761 62.6127 21.5681H66.3687C66.2127 20.4761 65.4327 19.7801 64.4967 19.7801ZM64.4967 24.1841C65.4207 24.1841 66.2007 23.4881 66.3687 22.3961H62.6247C62.7807 23.4881 63.5727 24.1841 64.4967 24.1841Z" fill="white"/>
<path d="M69.6878 27.1601H68.6558V18.9641H69.4238L69.6518 19.7201H69.7118C69.8918 19.4801 70.5878 18.8321 71.5718 18.8321C73.0838 18.8321 74.3558 20.1281 74.3558 21.9761C74.3558 23.8241 73.0838 25.1321 71.5718 25.1321C70.6118 25.1321 69.9158 24.5081 69.7478 24.2681H69.6878V27.1601ZM71.5118 24.1601C72.4838 24.1601 73.3238 23.2841 73.3238 21.9761C73.3238 20.6801 72.4838 19.8041 71.5118 19.8041C70.5278 19.8041 69.6878 20.6801 69.6878 21.9761C69.6878 23.2841 70.5278 24.1601 71.5118 24.1601Z" fill="white"/>
<path d="M77.7887 18.8321C79.1687 18.8321 80.1168 19.7921 80.1168 21.1721V25.0001H79.3368L79.1208 24.2441H79.0608C78.8208 24.5921 78.2327 25.1321 77.2487 25.1321C76.0247 25.1321 75.2327 24.3161 75.2327 23.3201C75.2327 22.1681 76.3367 21.4001 77.9447 21.4001H79.0727V21.1241C79.0727 20.2961 78.5567 19.7801 77.7887 19.7801C77.0207 19.7801 76.6367 20.2361 76.5407 20.7641H75.4967C75.6047 19.7561 76.4567 18.8321 77.7887 18.8321ZM77.4167 24.2201C78.4367 24.2201 79.0727 23.5361 79.0727 22.6841V22.2281H78.0167C76.8767 22.2281 76.2647 22.6241 76.2647 23.2721C76.2647 23.8241 76.6607 24.2201 77.4167 24.2201Z" fill="white"/>
<path d="M85.8871 18.9641V19.9361H82.9471V21.9041H85.1071V22.7921H82.9471V25.0001H81.9151V22.7921H80.9671V21.9041H81.9151V18.9641H85.8871Z" fill="white"/>
<path d="M88.8161 18.8321C90.1961 18.8321 91.1441 19.7921 91.1441 21.1721V25.0001H90.3641L90.1481 24.2441H90.0881C89.8481 24.5921 89.2601 25.1321 88.2761 25.1321C87.0521 25.1321 86.2601 24.3161 86.2601 23.3201C86.2601 22.1681 87.3641 21.4001 88.9721 21.4001H90.1001V21.1241C90.1001 20.2961 89.5841 19.7801 88.8161 19.7801C88.0481 19.7801 87.6641 20.2361 87.5681 20.7641H86.5241C86.6321 19.7561 87.4841 18.8321 88.8161 18.8321ZM88.4441 24.2201C89.4641 24.2201 90.1001 23.5361 90.1001 22.6841V22.2281H89.0441C87.9041 22.2281 87.2921 22.6241 87.2921 23.2721C87.2921 23.8241 87.6881 24.2201 88.4441 24.2201Z" fill="white"/>
<path d="M95.2584 25.1321C93.6624 25.1321 92.3424 23.7761 92.3424 21.9761C92.3424 20.1881 93.6624 18.8321 95.2584 18.8321C96.6984 18.8321 97.7304 19.9601 97.9584 21.1481H96.9264C96.7224 20.4401 96.1824 19.8041 95.2584 19.8041C94.2384 19.8041 93.3744 20.6801 93.3744 21.9761C93.3744 23.2841 94.2384 24.1601 95.2584 24.1601C96.1824 24.1601 96.7224 23.5241 96.9264 22.8161H97.9584C97.7304 24.0041 96.6984 25.1321 95.2584 25.1321Z" fill="white"/>
<path d="M100.192 21.0641H101.548C102.808 21.0641 103.648 21.8681 103.648 23.0321C103.648 24.1961 102.808 25.0001 101.548 25.0001H99.1597V18.9641H100.192V21.0641ZM104.488 25.0001V18.9641H105.52V25.0001H104.488ZM100.192 24.0761H101.464C102.184 24.0761 102.616 23.6801 102.616 23.0321C102.616 22.3721 102.184 21.9761 101.464 21.9761H100.192V24.0761Z" fill="white"/>
<path d="M4.52397 44.1561C2.27997 44.1561 0.395969 42.2241 0.395969 39.8001C0.395969 37.3761 2.27997 35.4441 4.52397 35.4441C6.63597 35.4441 7.95597 37.0401 8.32797 38.5881H6.53997C6.34797 37.8801 5.66397 37.1001 4.52397 37.1001C3.22797 37.1001 2.11197 38.2401 2.11197 39.8001C2.11197 41.3601 3.22797 42.5001 4.52397 42.5001C5.66397 42.5001 6.34797 41.7201 6.59997 41.0241H8.38797C8.02797 42.5481 6.68397 44.1561 4.52397 44.1561Z" fill="white"/>
<path d="M11.8267 37.7241C13.4347 37.7241 14.3827 38.7801 14.3827 40.3401V44.0001H13.1587L12.8947 43.4001H12.8347C12.5827 43.6641 12.0427 44.1561 11.0947 44.1561C9.93072 44.1561 9.03072 43.3521 9.03072 42.3321C9.03072 41.0721 10.2307 40.2921 11.9707 40.2921H12.7507V40.1721C12.7507 39.5361 12.3907 39.1761 11.8147 39.1761C11.2627 39.1761 10.9987 39.5481 10.9507 39.8001H9.31872C9.40272 38.7681 10.2187 37.7241 11.8267 37.7241ZM11.4787 42.8241C12.2587 42.8241 12.7507 42.2721 12.7507 41.6961V41.3841H11.9227C10.9987 41.3841 10.6627 41.7201 10.6627 42.1761C10.6627 42.5481 10.9387 42.8241 11.4787 42.8241Z" fill="white"/>
<path d="M15.4339 44.1561C15.2059 44.1561 15.0139 44.1201 14.8939 44.0841V42.6201H15.1219C15.6259 42.6201 15.9019 42.3441 15.9619 41.6121L16.2739 37.8801H20.8939V44.0001H19.2619V39.3921H17.7139L17.4979 41.9721C17.3779 43.4001 16.6579 44.1561 15.4339 44.1561Z" fill="white"/>
<path d="M23.8776 41.7321L26.5176 37.8801H27.9576V44.0001H26.3856V40.1481L23.7456 44.0001H22.3056V37.8801H23.8776V41.7321Z" fill="white"/>
<path d="M32.828 41.9361L34.58 37.8801H36.296V44.0001H34.724V40.7001L33.224 44.0001H32.444L30.944 40.7001V44.0001H29.372V37.8801H31.076L32.828 41.9361Z" fill="white"/>
<path d="M40.5238 44.1561C38.8318 44.1561 37.3918 42.6801 37.3918 40.9401C37.3918 39.2001 38.8318 37.7241 40.5238 37.7241C42.2158 37.7241 43.6558 39.2001 43.6558 40.9401C43.6558 42.6801 42.2158 44.1561 40.5238 44.1561ZM40.5238 42.6441C41.3758 42.6441 42.0238 41.9361 42.0238 40.9401C42.0238 39.9441 41.3758 39.2361 40.5238 39.2361C39.6718 39.2361 39.0238 39.9441 39.0238 40.9401C39.0238 41.9361 39.6718 42.6441 40.5238 42.6441Z" fill="white"/>
<path d="M48.959 40.7961C49.439 40.9881 49.919 41.4561 49.919 42.2361C49.919 43.2081 49.115 44.0001 47.975 44.0001H44.747V37.8801H47.747C48.875 37.8801 49.679 38.6481 49.679 39.5361C49.679 40.1721 49.295 40.6281 48.959 40.7961ZM47.423 39.0921H46.319V40.3401H47.423C47.831 40.3401 48.107 40.1121 48.107 39.6921C48.107 39.3321 47.831 39.0921 47.423 39.0921ZM46.319 42.7881H47.639C48.059 42.7881 48.347 42.5361 48.347 42.1041C48.347 41.7201 48.059 41.4321 47.639 41.4321H46.319V42.7881Z" fill="white"/>
<path d="M57.652 44.0001H55.936V37.2561H53.5V35.6001H60.088V37.2561H57.652V44.0001Z" fill="white"/>
<path d="M61.8229 41.7321L64.4629 37.8801H65.9029V44.0001H64.3309V40.1481L61.6909 44.0001H60.2509V37.8801H61.8229V41.7321Z" fill="white"/>
<path d="M70.7733 41.9361L72.5253 37.8801H74.2413V44.0001H72.6693V40.7001L71.1693 44.0001H70.3893L68.8893 40.7001V44.0001H67.3173V37.8801H69.0213L70.7733 41.9361Z" fill="white"/>
<path d="M78.1451 41.8641L79.4891 37.8801H81.1691L78.7211 44.1801C78.1331 45.7041 77.4971 46.2201 76.6331 46.2201C76.3091 46.2201 76.0331 46.1481 75.8651 46.0881V44.6001C75.9851 44.6601 76.1171 44.6841 76.3091 44.6841C76.8131 44.6841 77.1131 44.5041 77.3051 43.9521L77.3411 43.8321L74.9531 37.8801H76.7171L78.1451 41.8641Z" fill="white"/>
<path d="M83.504 46.1601H81.872V37.8801H83.096L83.36 38.4801H83.42C83.588 38.2761 84.2 37.7241 85.16 37.7241C86.66 37.7241 87.992 39.0921 87.992 40.9401C87.992 42.7881 86.66 44.1561 85.16 44.1561C84.284 44.1561 83.684 43.6521 83.564 43.4721H83.504V46.1601ZM84.932 42.6441C85.688 42.6441 86.36 41.9481 86.36 40.9401C86.36 39.9321 85.688 39.2361 84.932 39.2361C84.176 39.2361 83.504 39.9321 83.504 40.9401C83.504 41.9481 84.176 42.6441 84.932 42.6441Z" fill="white"/>
<path d="M0.839969 50.6001H4.04397C5.69997 50.6001 6.95997 51.8241 6.95997 53.4441C6.95997 55.0641 5.69997 56.2881 4.04397 56.2881H2.55597V59.0001H0.839969V50.6001ZM2.55597 54.6321H4.00797C4.67997 54.6321 5.24397 54.1281 5.24397 53.4441C5.24397 52.7601 4.67997 52.2561 4.00797 52.2561H2.55597V54.6321Z" fill="white"/>
<path d="M10.2564 52.7241C11.8644 52.7241 12.8124 53.7801 12.8124 55.3401V59.0001H11.5884L11.3244 58.4001H11.2644C11.0124 58.6641 10.4724 59.1561 9.52441 59.1561C8.36041 59.1561 7.46041 58.3521 7.46041 57.3321C7.46041 56.0721 8.66041 55.2921 10.4004 55.2921H11.1804V55.1721C11.1804 54.5361 10.8204 54.1761 10.2444 54.1761C9.69241 54.1761 9.42841 54.5481 9.38041 54.8001H7.74841C7.83241 53.7681 8.64841 52.7241 10.2564 52.7241ZM9.90841 57.8241C10.6884 57.8241 11.1804 57.2721 11.1804 56.6961V56.3841H10.3524C9.42841 56.3841 9.09241 56.7201 9.09241 57.1761C9.09241 57.5481 9.36841 57.8241 9.90841 57.8241Z" fill="white"/>
<path d="M22.0328 55.9401C22.0328 57.6921 20.6408 59.1201 18.7568 59.1561V61.1601H17.1248V59.1561C15.2408 59.1201 13.8488 57.6921 13.8488 55.9401C13.8488 54.1881 15.2408 52.7601 17.1248 52.7241V50.6001H18.7568V52.7241C20.6408 52.7601 22.0328 54.1881 22.0328 55.9401ZM15.4808 55.9401C15.4808 56.9481 16.1288 57.6201 17.1608 57.6441V54.2361C16.1288 54.2601 15.4808 54.9441 15.4808 55.9401ZM18.7208 54.2361V57.6441C19.7528 57.6201 20.4008 56.9481 20.4008 55.9401C20.4008 54.9441 19.7528 54.2601 18.7208 54.2361Z" fill="white"/>
<path d="M26.2396 55.8801L28.2796 59.0001H26.4076L25.1956 57.0201L23.9836 59.0001H22.1836L24.2236 55.8801L22.3156 52.8801H24.1636L25.2676 54.7161L26.3596 52.8801H28.1356L26.2396 55.8801Z" fill="white"/>
<path d="M31.2681 52.7241C32.8761 52.7241 33.8241 53.7801 33.8241 55.3401V59.0001H32.6001L32.3361 58.4001H32.2761C32.0241 58.6641 31.4841 59.1561 30.5361 59.1561C29.3721 59.1561 28.4721 58.3521 28.4721 57.3321C28.4721 56.0721 29.6721 55.2921 31.4121 55.2921H32.1921V55.1721C32.1921 54.5361 31.8321 54.1761 31.2561 54.1761C30.7041 54.1761 30.4401 54.5481 30.3921 54.8001H28.7601C28.8441 53.7681 29.6601 52.7241 31.2681 52.7241ZM30.9201 57.8241C31.7001 57.8241 32.1921 57.2721 32.1921 56.6961V56.3841H31.3641C30.4401 56.3841 30.1041 56.7201 30.1041 57.1761C30.1041 57.5481 30.3801 57.8241 30.9201 57.8241Z" fill="white"/>
<path d="M37.9233 59.0001H36.2913V54.3921H34.5033V52.8801H39.7113V54.3921H37.9233V59.0001Z" fill="white"/>
<path d="M43.1371 59.1561C41.4451 59.1561 40.0051 57.6801 40.0051 55.9401C40.0051 54.2001 41.4451 52.7241 43.1371 52.7241C44.8291 52.7241 46.2691 54.2001 46.2691 55.9401C46.2691 57.6801 44.8291 59.1561 43.1371 59.1561ZM43.1371 57.6441C43.9891 57.6441 44.6371 56.9361 44.6371 55.9401C44.6371 54.9441 43.9891 54.2361 43.1371 54.2361C42.2851 54.2361 41.6371 54.9441 41.6371 55.9401C41.6371 56.9361 42.2851 57.6441 43.1371 57.6441Z" fill="white"/>
<path d="M51.5723 55.7961C52.0523 55.9881 52.5323 56.4561 52.5323 57.2361C52.5323 58.2081 51.7283 59.0001 50.5883 59.0001H47.3603V52.8801H50.3603C51.4883 52.8801 52.2923 53.6481 52.2923 54.5361C52.2923 55.1721 51.9083 55.6281 51.5723 55.7961ZM50.0363 54.0921H48.9323V55.3401H50.0363C50.4443 55.3401 50.7203 55.1121 50.7203 54.6921C50.7203 54.3321 50.4443 54.0921 50.0363 54.0921ZM48.9323 57.7881H50.2523C50.6723 57.7881 50.9603 57.5361 50.9603 57.1041C50.9603 56.7201 50.6723 56.4321 50.2523 56.4321H48.9323V57.7881Z" fill="white"/>
<path d="M55.2018 56.7321L57.8418 52.8801H59.2818V59.0001H57.7098V55.1481L55.0698 59.0001H53.6298V52.8801H55.2018V56.7321Z" fill="white"/>
<path d="M64.2602 55.4841V52.8801H65.8923V59.0001H64.2602V56.9961C63.9962 57.1401 63.4202 57.3681 62.7482 57.3681C61.4642 57.3681 60.4803 56.4441 60.4803 55.0041V52.8801H62.1123V54.8241C62.1123 55.5201 62.4722 55.8561 63.1802 55.8561C63.6242 55.8561 63.9962 55.6761 64.2602 55.4841Z" fill="white"/>
</svg>
