<svg width="544" height="240" viewBox="0 0 544 240" fill="none" xmlns="http://www.w3.org/2000/svg">
<g clip-path="url(#clip0_18_9)">
<path d="M7.3 29H3.988V3.8H22.816V29H19.504V6.932H7.3V29ZM31.3995 35.48H28.3035V10.892H30.6075L31.2915 13.16H31.4715C32.0115 12.44 34.0995 10.496 37.0515 10.496C41.5875 10.496 45.4035 14.384 45.4035 19.928C45.4035 25.472 41.5875 29.396 37.0515 29.396C34.1715 29.396 32.0835 27.524 31.5795 26.804H31.3995V35.48ZM36.8715 26.48C39.7875 26.48 42.3075 23.852 42.3075 19.928C42.3075 16.04 39.7875 13.412 36.8715 13.412C33.9195 13.412 31.3995 16.04 31.3995 19.928C31.3995 23.852 33.9195 26.48 36.8715 26.48ZM65.1343 19.496C65.1343 20.252 65.0983 20.864 64.9903 21.296H51.2383C51.7063 24.572 53.8663 26.552 56.8543 26.552C59.0143 26.552 60.4183 25.58 61.3183 24.14H64.5223C63.4423 26.876 60.5623 29.396 56.8183 29.396C51.9223 29.396 48.0703 25.436 48.0703 19.928C48.0703 14.564 52.0303 10.496 56.7823 10.496C61.5343 10.496 65.1343 14.42 65.1343 19.496ZM56.7823 13.34C54.0463 13.34 51.6703 15.464 51.2023 18.74H62.1103C61.7503 15.572 59.6263 13.34 56.7823 13.34ZM82.6058 10.892V26.156H85.4138V33.608H82.3538V29H69.0698V33.608H66.0098V26.156H67.4858C68.4578 25.436 69.2858 24.248 69.4298 22.268L70.4018 10.892H82.6058ZM71.0138 26.156H79.5458V13.736H73.2458L72.4898 22.268C72.3098 24.248 71.7698 25.436 71.0138 26.156ZM96.1933 29.396C91.4053 29.396 87.4453 25.328 87.4453 19.928C87.4453 14.564 91.4053 10.496 96.1933 10.496C100.513 10.496 103.609 13.88 104.293 17.444H101.197C100.585 15.32 98.9653 13.412 96.1933 13.412C93.1333 13.412 90.5413 16.04 90.5413 19.928C90.5413 23.852 93.1333 26.48 96.1933 26.48C98.9653 26.48 100.585 24.572 101.197 22.448H104.293C103.609 26.012 100.513 29.396 96.1933 29.396ZM123.845 19.496C123.845 20.252 123.809 20.864 123.701 21.296H109.949C110.417 24.572 112.577 26.552 115.565 26.552C117.725 26.552 119.129 25.58 120.029 24.14H123.233C122.153 26.876 119.273 29.396 115.529 29.396C110.633 29.396 106.781 25.436 106.781 19.928C106.781 14.564 110.741 10.496 115.493 10.496C120.245 10.496 123.845 14.42 123.845 19.496ZM115.493 13.34C112.757 13.34 110.381 15.464 109.913 18.74H120.821C120.461 15.572 118.337 13.34 115.493 13.34ZM141.317 10.892V26.156H144.125V33.608H141.065V29H127.781V33.608H124.721V26.156H126.197C127.169 25.436 127.997 24.248 128.141 22.268L129.113 10.892H141.317ZM129.725 26.156H138.257V13.736H131.957L131.201 22.268C131.021 24.248 130.481 25.436 129.725 26.156ZM153.437 10.496C157.577 10.496 160.421 13.376 160.421 17.516V29H158.081L157.433 26.732H157.253C156.533 27.776 154.769 29.396 151.817 29.396C148.145 29.396 145.769 26.948 145.769 23.96C145.769 20.504 149.081 18.2 153.905 18.2H157.289V17.372C157.289 14.888 155.741 13.34 153.437 13.34C151.133 13.34 149.981 14.708 149.693 16.292H146.561C146.885 13.268 149.441 10.496 153.437 10.496ZM152.321 26.66C155.381 26.66 157.289 24.608 157.289 22.052V20.684H154.121C150.701 20.684 148.865 21.872 148.865 23.816C148.865 25.472 150.053 26.66 152.321 26.66ZM171.62 29H168.488V13.808H162.836V10.892H177.272V13.808H171.62V29ZM195.459 19.496C195.459 20.252 195.423 20.864 195.315 21.296H181.562C182.031 24.572 184.191 26.552 187.179 26.552C189.339 26.552 190.743 25.58 191.643 24.14H194.847C193.767 26.876 190.887 29.396 187.143 29.396C182.247 29.396 178.395 25.436 178.395 19.928C178.395 14.564 182.354 10.496 187.107 10.496C191.859 10.496 195.459 14.42 195.459 19.496ZM187.107 13.34C184.371 13.34 181.995 15.464 181.527 18.74H192.435C192.075 15.572 189.951 13.34 187.107 13.34ZM197.342 29.396C196.73 29.396 196.334 29.288 195.974 29.18V26.408H196.622C198.458 26.408 199.502 25.4 199.718 22.628L200.69 10.892H213.11V29H209.978V13.808H203.498L202.742 23.06C202.382 27.416 200.33 29.396 197.342 29.396ZM221.103 17.192H225.423C229.203 17.192 231.687 19.604 231.687 23.096C231.687 26.588 229.203 29 225.423 29H218.007V10.892H221.103V17.192ZM221.103 26.228H225.135C227.295 26.228 228.591 25.04 228.591 23.096C228.591 21.116 227.295 19.928 225.135 19.928H221.103V26.228ZM6.544 75H3.448V56.892H18.46V75H15.364V59.808H6.544V75ZM26.4424 81.48H23.3464V56.892H25.6504L26.3344 59.16H26.5144C27.0544 58.44 29.1424 56.496 32.0944 56.496C36.6304 56.496 40.4464 60.384 40.4464 65.928C40.4464 71.472 36.6304 75.396 32.0944 75.396C29.2144 75.396 27.1264 73.524 26.6224 72.804H26.4424V81.48ZM31.9144 72.48C34.8304 72.48 37.3504 69.852 37.3504 65.928C37.3504 62.04 34.8304 59.412 31.9144 59.412C28.9624 59.412 26.4424 62.04 26.4424 65.928C26.4424 69.852 28.9624 72.48 31.9144 72.48ZM50.7453 56.496C54.8853 56.496 57.7293 59.376 57.7293 63.516V75H55.3893L54.7413 72.732H54.5613C53.8413 73.776 52.0773 75.396 49.1253 75.396C45.4533 75.396 43.0773 72.948 43.0773 69.96C43.0773 66.504 46.3893 64.2 51.2133 64.2H54.5973V63.372C54.5973 60.888 53.0493 59.34 50.7453 59.34C48.4413 59.34 47.2893 60.708 47.0013 62.292H43.8693C44.1933 59.268 46.7493 56.496 50.7453 56.496ZM49.6293 72.66C52.6893 72.66 54.5973 70.608 54.5973 68.052V66.684H51.4293C48.0093 66.684 46.1733 67.872 46.1733 69.816C46.1733 71.472 47.3613 72.66 49.6293 72.66ZM73.3842 65.46C74.7882 66 76.4082 67.368 76.4082 69.888C76.4082 72.84 74.1402 75 70.9002 75H62.4402V56.892H70.2162C73.4202 56.892 75.6882 59.052 75.6882 61.716C75.6882 63.66 74.4642 64.92 73.3842 65.46ZM69.7842 59.52H65.5002V64.488H69.7842C71.5482 64.488 72.6642 63.48 72.6642 61.968C72.6642 60.492 71.5482 59.52 69.7842 59.52ZM65.5002 72.372H70.5042C72.1602 72.372 73.3842 71.22 73.3842 69.636C73.3842 68.124 72.1602 66.936 70.5042 66.936H65.5002V72.372ZM78.6545 75.396C78.0425 75.396 77.6465 75.288 77.2865 75.18V72.408H77.9345C79.7705 72.408 80.8145 71.4 81.0305 68.628L82.0025 56.892H94.4225V75H91.2905V59.808H84.8105L84.0545 69.06C83.6945 73.416 81.6425 75.396 78.6545 75.396ZM115.267 65.496C115.267 66.252 115.231 66.864 115.123 67.296H101.371C101.839 70.572 103.999 72.552 106.987 72.552C109.147 72.552 110.551 71.58 111.451 70.14H114.655C113.575 72.876 110.695 75.396 106.951 75.396C102.055 75.396 98.2031 71.436 98.2031 65.928C98.2031 60.564 102.163 56.496 106.915 56.496C111.667 56.496 115.267 60.42 115.267 65.496ZM106.915 59.34C104.179 59.34 101.803 61.464 101.335 64.74H112.243C111.883 61.572 109.759 59.34 106.915 59.34ZM131.246 64.452V56.892H134.378V75H131.246V67.368H122.138V75H119.042V56.892H122.138V64.452H131.246ZM142.317 70.176L152.001 56.892H154.737V75H151.677V61.716L141.993 75H139.257V56.892H142.317V70.176ZM165.047 56.892H172.571V75H169.475V68.52H165.659L161.699 75H158.099L162.563 68.052C160.295 67.188 158.783 65.172 158.783 62.688C158.783 59.412 161.375 56.892 165.047 56.892ZM169.511 59.628H165.263C163.283 59.628 161.879 60.924 161.879 62.688C161.879 64.524 163.175 65.748 165.263 65.748H169.511V59.628ZM191.076 75.396C186.288 75.396 183.156 71.976 183.156 67.908H186.432C186.468 70.14 188.304 72.264 191.076 72.264C193.884 72.264 195.648 70.356 195.648 67.584V49.8H198.96V67.584C198.96 72.156 195.864 75.396 191.076 75.396ZM211.281 75.396C207.105 75.396 204.045 72.264 204.045 67.44V56.892H207.141V67.332C207.141 70.5 209.121 72.48 211.785 72.48C214.593 72.48 216.537 70.5 216.537 67.332V56.892H219.669V75H217.329L216.681 72.732H216.501C215.817 73.776 213.945 75.396 211.281 75.396ZM230.341 75.396C226.273 75.396 223.609 72.696 223.393 69.6H226.489C226.669 71.4 228.037 72.66 230.341 72.66C232.573 72.66 233.725 71.544 233.725 70.14C233.725 66.108 223.861 67.98 223.861 61.68C223.861 58.836 226.237 56.496 230.089 56.496C233.869 56.496 236.389 59.016 236.569 62.112H233.509C233.293 60.312 232.177 59.232 230.089 59.232C228.037 59.232 226.957 60.276 226.957 61.572C226.957 65.424 236.821 63.66 236.821 70.032C236.821 73.056 234.481 75.396 230.341 75.396ZM247.163 56.496C251.303 56.496 254.147 59.376 254.147 63.516V75H251.807L251.159 72.732H250.979C250.259 73.776 248.495 75.396 245.543 75.396C241.871 75.396 239.495 72.948 239.495 69.96C239.495 66.504 242.807 64.2 247.631 64.2H251.015V63.372C251.015 60.888 249.467 59.34 247.163 59.34C244.859 59.34 243.707 60.708 243.419 62.292H240.287C240.611 59.268 243.167 56.496 247.163 56.496ZM246.047 72.66C249.107 72.66 251.015 70.608 251.015 68.052V66.684H247.847C244.427 66.684 242.591 67.872 242.591 69.816C242.591 71.472 243.779 72.66 246.047 72.66ZM261.954 75H258.858V56.892H261.162L261.846 59.16H262.026C262.71 58.116 264.546 56.496 267.21 56.496C271.386 56.496 274.482 59.628 274.482 64.452V75H271.35V64.56C271.35 61.392 269.406 59.412 266.742 59.412C263.934 59.412 261.954 61.392 261.954 64.56V75ZM291.784 75H288.472V49.8H291.784V75ZM300.345 75H297.249V56.892H299.553L300.237 59.16H300.417C301.101 58.116 302.937 56.496 305.601 56.496C309.777 56.496 312.873 59.628 312.873 64.452V75H309.741V64.56C309.741 61.392 307.797 59.412 305.133 59.412C302.325 59.412 300.345 61.392 300.345 64.56V75ZM323.697 71.04L329.061 56.892H332.265L325.101 75H322.185L314.985 56.892H318.297L323.697 71.04ZM350.498 65.496C350.498 66.252 350.462 66.864 350.354 67.296H336.602C337.07 70.572 339.23 72.552 342.218 72.552C344.378 72.552 345.782 71.58 346.682 70.14H349.886C348.806 72.876 345.926 75.396 342.182 75.396C337.286 75.396 333.434 71.436 333.434 65.928C333.434 60.564 337.394 56.496 342.146 56.496C346.898 56.496 350.498 60.42 350.498 65.496ZM342.146 59.34C339.41 59.34 337.034 61.464 336.566 64.74H347.474C347.114 61.572 344.99 59.34 342.146 59.34ZM360.032 75.396C355.964 75.396 353.3 72.696 353.084 69.6H356.18C356.36 71.4 357.728 72.66 360.032 72.66C362.264 72.66 363.416 71.544 363.416 70.14C363.416 66.108 353.552 67.98 353.552 61.68C353.552 58.836 355.928 56.496 359.78 56.496C363.56 56.496 366.08 59.016 366.26 62.112H363.2C362.984 60.312 361.868 59.232 359.78 59.232C357.728 59.232 356.648 60.276 356.648 61.572C356.648 65.424 366.512 63.66 366.512 70.032C366.512 73.056 364.172 75.396 360.032 75.396ZM376.503 75.396C373.479 75.396 371.175 73.2 371.175 69.348V59.736H368.079V57H369.447C370.851 57 371.643 56.244 371.643 54.84V52.14H374.271V56.892H378.375V59.736H374.271V69.24C374.271 71.472 375.423 72.48 377.115 72.48C377.583 72.48 377.979 72.408 378.375 72.228V75.072C377.943 75.216 377.367 75.396 376.503 75.396Z" fill="white"/>
<path d="M13.6 120.04L23.356 133H16.948L8.668 121.696V133H3.52V107.8H8.668V118.708L16.552 107.8H22.636L13.6 120.04ZM31.9099 114.172C36.7339 114.172 39.5779 117.34 39.5779 122.02V133H35.9059L35.1139 131.2H34.9339C34.1779 131.992 32.5579 133.468 29.7139 133.468C26.2219 133.468 23.5219 131.056 23.5219 127.996C23.5219 124.216 27.1219 121.876 32.3419 121.876H34.6819V121.516C34.6819 119.608 33.6019 118.528 31.8739 118.528C30.2179 118.528 29.4259 119.644 29.2819 120.4H24.3859C24.6379 117.304 27.0859 114.172 31.9099 114.172ZM30.8659 129.472C33.2059 129.472 34.6819 127.816 34.6819 126.088V125.152H32.1979C29.4259 125.152 28.4179 126.16 28.4179 127.528C28.4179 128.644 29.2459 129.472 30.8659 129.472ZM52.5152 133.468C47.1512 133.468 43.0472 129.688 43.0472 121.948C43.0472 114.46 45.7832 109.06 53.2352 107.98C55.7192 107.62 57.6992 107.404 59.7872 107.08V111.508C57.9872 111.904 55.7912 112.228 54.2072 112.444C50.1392 112.984 48.4112 115 47.8352 117.7H48.0152C48.8072 116.62 50.6432 115.36 53.4152 115.36C57.8432 115.36 61.6592 119.14 61.6592 124.396C61.6592 129.688 57.8072 133.468 52.5152 133.468ZM52.4432 128.932C54.8912 128.932 56.7632 127.132 56.7632 124.396C56.7632 121.624 54.8912 119.824 52.4432 119.824C49.9952 119.824 48.1232 121.624 48.1232 124.396C48.1232 127.132 49.9952 128.932 52.4432 128.932ZM72.1287 114.172C76.9527 114.172 79.7967 117.34 79.7967 122.02V133H76.1247L75.3327 131.2H75.1527C74.3967 131.992 72.7767 133.468 69.9327 133.468C66.4407 133.468 63.7407 131.056 63.7407 127.996C63.7407 124.216 67.3407 121.876 72.5607 121.876H74.9007V121.516C74.9007 119.608 73.8207 118.528 72.0927 118.528C70.4367 118.528 69.6447 119.644 69.5007 120.4H64.6047C64.8567 117.304 67.3047 114.172 72.1287 114.172ZM71.0847 129.472C73.4247 129.472 74.9007 127.816 74.9007 126.088V125.152H72.4167C69.6447 125.152 68.6367 126.16 68.6367 127.528C68.6367 128.644 69.4647 129.472 71.0847 129.472ZM95.7939 121.624V114.64H100.69V133H95.7939V126.16H88.7739V133H83.8779V114.64H88.7739V121.624H95.7939ZM113.361 133.468C108.285 133.468 103.965 129.04 103.965 123.82C103.965 118.6 108.285 114.172 113.361 114.172C118.437 114.172 122.757 118.6 122.757 123.82C122.757 129.04 118.437 133.468 113.361 133.468ZM113.361 128.932C115.917 128.932 117.861 126.808 117.861 123.82C117.861 120.832 115.917 118.708 113.361 118.708C110.805 118.708 108.861 120.832 108.861 123.82C108.861 126.808 110.805 128.932 113.361 128.932ZM138.666 123.388C140.106 123.964 141.546 125.368 141.546 127.708C141.546 130.624 139.134 133 135.714 133H126.03V114.64H135.03C138.414 114.64 140.826 116.944 140.826 119.608C140.826 121.516 139.674 122.884 138.666 123.388ZM134.058 118.276H130.746V122.02H134.058C135.282 122.02 136.11 121.336 136.11 120.076C136.11 118.996 135.282 118.276 134.058 118.276ZM130.746 129.364H134.706C135.966 129.364 136.83 128.608 136.83 127.312C136.83 126.16 135.966 125.296 134.706 125.296H130.746V129.364ZM167.445 125.584L175.689 107.8H180.261V133H175.293V118.456L168.525 133H165.969L159.273 118.6V133H154.305V107.8H159.201L167.445 125.584ZM192.117 114.172C196.941 114.172 199.785 117.34 199.785 122.02V133H196.113L195.321 131.2H195.141C194.385 131.992 192.765 133.468 189.921 133.468C186.429 133.468 183.729 131.056 183.729 127.996C183.729 124.216 187.329 121.876 192.549 121.876H194.889V121.516C194.889 119.608 193.809 118.528 192.081 118.528C190.425 118.528 189.633 119.644 189.489 120.4H184.593C184.845 117.304 187.293 114.172 192.117 114.172ZM191.073 129.472C193.413 129.472 194.889 127.816 194.889 126.088V125.152H192.405C189.633 125.152 188.625 126.16 188.625 127.528C188.625 128.644 189.453 129.472 191.073 129.472ZM213.334 123.28L220.642 133H214.63L208.762 124.792V133H203.866V114.64H208.762V122.2L214.27 114.64H219.85L213.334 123.28ZM230.044 133.468C224.968 133.468 220.648 129.04 220.648 123.82C220.648 118.6 224.968 114.172 230.044 114.172C234.832 114.172 238.072 117.988 238.792 121.552H233.896C233.68 120.76 232.456 118.708 230.044 118.708C227.488 118.708 225.544 120.832 225.544 123.82C225.544 126.808 227.488 128.932 230.044 128.932C232.456 128.932 233.68 126.844 233.896 126.088H238.792C238.072 129.652 234.832 133.468 230.044 133.468ZM246.621 126.196L254.541 114.64H258.861V133H254.145V121.444L246.225 133H241.905V114.64H246.621V126.196ZM273.472 126.808L278.728 114.64H283.876V133H279.16V123.1L274.66 133H272.32L267.82 123.1V133H263.104V114.64H268.216L273.472 126.808ZM18.64 165.608C20.404 166.256 22.888 168.128 22.888 171.8C22.888 175.796 19.54 179 14.644 179H3.52V153.8H14.212C18.748 153.8 21.88 156.788 21.88 160.532C21.88 163.448 20.116 165.068 18.64 165.608ZM13.6 158.192H8.668V163.772H13.6C15.4 163.772 16.732 162.584 16.732 160.964C16.732 159.38 15.4 158.192 13.6 158.192ZM8.668 174.608H14.068C16.228 174.608 17.74 173.24 17.74 171.296C17.74 169.352 16.228 168.02 14.068 168.02H8.668V174.608ZM25.1886 179.468C24.5046 179.468 23.9286 179.36 23.5686 179.252V174.86H24.2526C25.7646 174.86 26.5926 174.032 26.7726 171.836L27.7086 160.64H41.5686V179H36.6726V165.176H32.0286L31.3806 172.916C31.0206 177.2 28.8606 179.468 25.1886 179.468ZM53.0037 160.172C57.8277 160.172 60.6717 163.34 60.6717 168.02V179H56.9997L56.2077 177.2H56.0277C55.2717 177.992 53.6517 179.468 50.8077 179.468C47.3157 179.468 44.6157 177.056 44.6157 173.996C44.6157 170.216 48.2157 167.876 53.4357 167.876H55.7757V167.516C55.7757 165.608 54.6957 164.528 52.9677 164.528C51.3117 164.528 50.5197 165.644 50.3757 166.4H45.4797C45.7317 163.304 48.1797 160.172 53.0037 160.172ZM51.9597 175.472C54.2997 175.472 55.7757 173.816 55.7757 172.088V171.152H53.2917C50.5197 171.152 49.5117 172.16 49.5117 173.528C49.5117 174.644 50.3397 175.472 51.9597 175.472ZM80.0613 160.64V174.644H82.9413V183.608H78.2253V179H67.1013V183.608H62.3853V174.644H63.9693C64.8333 173.96 65.4453 173.024 65.5893 171.404L66.4893 160.64H80.0613ZM69.0453 174.644H75.3453V164.996H70.8453L70.2693 171.404C70.1253 172.88 69.7293 173.96 69.0453 174.644ZM90.2463 172.196L98.1663 160.64H102.486V179H97.7703V167.444L89.8503 179H85.5303V160.64H90.2463V172.196ZM117.097 172.808L122.353 160.64H127.501V179H122.785V169.1L118.285 179H115.945L111.445 169.1V179H106.729V160.64H111.841L117.097 172.808ZM136.477 172.196L144.397 160.64H148.717V179H144.001V167.444L136.081 179H131.761V160.64H136.477V172.196ZM157.856 185.48H152.96V160.64H156.632L157.424 162.44H157.604C158.108 161.828 159.944 160.172 162.824 160.172C167.324 160.172 171.32 164.276 171.32 169.82C171.32 175.364 167.324 179.468 162.824 179.468C160.196 179.468 158.396 177.956 158.036 177.416H157.856V185.48ZM162.14 174.932C164.408 174.932 166.424 172.844 166.424 169.82C166.424 166.796 164.408 164.708 162.14 164.708C159.872 164.708 157.856 166.796 157.856 169.82C157.856 172.844 159.872 174.932 162.14 174.932ZM183.005 179.468C177.929 179.468 173.609 175.04 173.609 169.82C173.609 164.6 177.929 160.172 183.005 160.172C188.081 160.172 192.401 164.6 192.401 169.82C192.401 175.04 188.081 179.468 183.005 179.468ZM183.005 174.932C185.561 174.932 187.505 172.808 187.505 169.82C187.505 166.832 185.561 164.708 183.005 164.708C180.449 164.708 178.505 166.832 178.505 169.82C178.505 172.808 180.449 174.932 183.005 174.932ZM208.311 169.388C209.751 169.964 211.191 171.368 211.191 173.708C211.191 176.624 208.779 179 205.359 179H195.675V160.64H204.675C208.059 160.64 210.471 162.944 210.471 165.608C210.471 167.516 209.319 168.884 208.311 169.388ZM203.703 164.276H200.391V168.02H203.703C204.927 168.02 205.755 167.336 205.755 166.076C205.755 164.996 204.927 164.276 203.703 164.276ZM200.391 175.364H204.351C205.611 175.364 206.475 174.608 206.475 173.312C206.475 172.16 205.611 171.296 204.351 171.296H200.391V175.364ZM219.199 172.196L227.119 160.64H231.439V179H226.723V167.444L218.803 179H214.483V160.64H219.199V172.196ZM246.375 168.452V160.64H251.271V179H246.375V172.988C245.583 173.42 243.855 174.104 241.839 174.104C237.987 174.104 235.035 171.332 235.035 167.012V160.64H239.931V166.472C239.931 168.56 241.011 169.568 243.135 169.568C244.467 169.568 245.583 169.028 246.375 168.452Z" fill="white"/>
<path d="M468.466 52.5663C454.583 59.0262 441.601 67.2707 429.849 77.0914C412.223 91.7786 396.635 108.436 383.851 127.591C382.577 129.501 378.689 131.666 383.615 134.533C385.319 135.531 382.879 137.383 381.428 138.113C376.144 140.779 373.163 144.453 374.74 150.836C375.251 152.891 374.321 155.018 372.515 156.497C370.863 157.844 369.208 159.407 366.87 158.316C364.532 157.224 364.227 155.053 364.834 152.879C366.172 148.114 363.927 147.765 360.807 149.893C355.991 153.179 350.456 154.745 345.21 156.878C339.414 159.247 333.118 160.042 328.131 154.733C325.586 152.023 324.577 153.962 323.411 155.778C318.83 162.9 314.34 170.081 309.742 177.189C308.605 178.935 307.381 180.757 305.819 182.11C303.801 183.857 301.553 183.688 301.294 180.6C300.945 176.452 300.297 172.075 303.621 168.547C309.562 162.24 313.238 154.157 319.517 148.12C322.928 144.837 324.577 140.666 324.804 136.186C325.58 120.888 334.305 111.079 347.124 104.81C353.589 101.649 357.762 97.1196 361.598 91.3944C371.485 76.6432 381.766 62.1569 391.941 47.6008C392.779 46.4045 393.477 43.7791 395.597 45.6564C397.132 47.0157 395.888 48.8116 394.771 50.1359C383.685 63.2338 375.487 78.3692 365.343 92.1599C360.847 98.2722 361.458 99.355 368.167 100.909C376.601 102.862 380.323 111.789 375.001 118.618C369.679 125.446 361.49 128.61 353.81 132.007C350.861 133.328 349.34 130.968 350.771 128.089C352.736 124.139 355.133 120.411 357.372 116.589C348.534 120.271 333.089 136.838 330.303 146.03C329.006 150.32 331.321 153.016 335.372 153.956C338.28 154.643 341.188 153.877 344.096 153.01C353.085 150.317 361.199 145.751 369.444 141.457C371.366 140.456 372.782 138.902 373.887 137.039C393.896 103.235 420.683 76.1397 454.249 55.7535C458.576 53.1339 463.264 51.0644 467.821 48.8465C469.132 48.2091 470.665 47.7492 471.988 48.9658C473.46 50.3135 473.364 51.9667 472.678 53.6374C470.813 58.1897 467.867 62.0783 465.02 66.0281C450.189 86.6442 435.168 107.126 420.709 128.002C414.988 136.265 410.556 145.422 404.583 155.836C408.896 153.385 411.545 151.846 414.229 150.37C415.683 149.575 417.216 148.283 418.882 149.47C420.31 150.48 419.857 152.119 419.441 153.569C418.039 158.476 420.799 157.827 423.884 156.989C447.159 150.644 469.962 142.678 492.127 133.15C507.54 126.543 523.628 122.116 539.891 118.239C541.112 117.948 542.351 117.561 544 118.763C542.121 121.327 539.292 121.997 536.712 122.629C509.87 129.183 485.055 141.303 459.288 150.806C447.548 155.138 435.546 158.528 423.469 161.701C421.194 162.301 418.321 162.915 416.693 161.387C412.694 157.635 409.466 160.077 406.674 162.379C400.372 167.581 393.942 172.488 389.807 180.134C381.463 195.575 372.611 210.769 361.888 224.775C358.649 229.01 355.162 232.968 351.099 236.377C345.597 240.987 338.012 241.185 333.65 237.043C329.82 233.428 329.367 225.249 332.868 219.972C341.973 206.248 353.321 194.711 366.603 184.957C374.783 178.947 382.824 172.715 390.577 166.166C396.824 160.889 400.081 153.257 404.17 146.394C421.529 117.247 441.656 90.0817 462.461 63.3939C464.709 60.5095 466.489 57.5406 468.466 52.5663ZM383.996 178.635C383.255 178.877 382.403 178.964 381.783 179.386C366.399 189.905 352.702 202.328 340.522 216.415C337.725 219.655 336.864 224.094 336.486 228.137C335.904 234.435 340.639 237.16 346.007 233.897C348.496 232.389 350.692 230.27 352.719 228.139C366.3 213.88 374.013 195.773 383.996 178.635ZM356.968 124.803L358.448 126.115C362.031 124.002 365.858 122.206 369.136 119.689C372.413 117.171 374.338 113.428 372.989 109.085C371.991 105.884 369.74 104.032 367.266 107.72C363.564 113.236 360.373 119.092 356.968 124.803ZM350.235 108.084C336.904 113.754 327.377 127.673 331.472 134.83C337.568 126.136 343.567 117.581 350.233 108.084H350.235Z" fill="white"/>
</g>
<defs>
<clipPath id="clip0_18_9">
<rect width="544" height="240" fill="white"/>
</clipPath>
</defs>
</svg>
