<svg width="24" height="26" viewBox="0 0 24 26" fill="none" xmlns="http://www.w3.org/2000/svg">
<path d="M16.19 4H7.81C4.17 4 2 6.17 2 9.81V18.18C2 21.83 4.17 24 7.81 24H16.18C19.82 24 21.99 21.83 21.99 18.19V9.81C22 6.17 19.83 4 16.19 4ZM18.5 18.4C18.5 19.9 17.9 20.5 16.4 20.5H12.6C11.1 20.5 10.5 19.9 10.5 18.4V16.6C10.5 15.1 11.1 14.5 12.6 14.5H16.4C17.9 14.5 18.5 15.1 18.5 16.6V18.4Z" fill="url(#paint0_linear_17_918)"/>
<defs>
<linearGradient id="paint0_linear_17_918" x1="1.99562" y1="23.9621" x2="22.9237" y2="22.9315" gradientUnits="userSpaceOnUse">
<stop stop-color="#F77248"/>
<stop offset="1" stop-color="#F2244B"/>
</linearGradient>
</defs>
</svg>
