<svg width="24" height="26" viewBox="0 0 24 26" fill="none" xmlns="http://www.w3.org/2000/svg">
<path d="M20.95 6.13C20.66 5.71 20.29 5.34 19.87 5.05C18.92 4.36 17.68 4 16.19 4H7.81C7.61 4 7.41 4.01 7.22 4.03C3.94 4.24 2 6.37 2 9.81V18.19C2 19.68 2.36 20.92 3.05 21.87C3.34 22.29 3.71 22.66 4.13 22.95C4.95 23.55 5.99 23.9 7.22 23.98C7.41 23.99 7.61 24 7.81 24H16.19C19.83 24 22 21.83 22 18.19V9.81C22 8.32 21.64 7.08 20.95 6.13ZM11.39 17.88H8.52C8.11 17.88 7.77 17.54 7.77 17.13C7.77 16.72 8.11 16.38 8.52 16.38H9.52V9.91H6.95C6.84 9.91 6.75 10 6.75 10.11V10.89C6.75 11.3 6.41 11.63 6 11.63C5.59 11.63 5.25 11.3 5.25 10.88V10.1C5.25 9.16 6.01 8.4 6.95 8.4H13.59C14.53 8.4 15.29 9.16 15.29 10.1V10.88C15.29 11.29 14.95 11.63 14.54 11.63C14.13 11.63 13.79 11.29 13.79 10.88V10.1C13.79 9.99 13.7 9.9 13.59 9.9H11.02V16.38H11.39C11.8 16.38 12.14 16.72 12.14 17.13C12.14 17.54 11.8 17.88 11.39 17.88ZM18.75 14.23C18.75 14.64 18.41 14.98 18 14.98C17.59 14.98 17.25 14.64 17.25 14.23V13.9H15.7V18.1H16.05C16.46 18.1 16.8 18.44 16.8 18.85C16.8 19.26 16.46 19.6 16.05 19.6H13.85C13.44 19.6 13.1 19.26 13.1 18.85C13.1 18.44 13.44 18.1 13.85 18.1H14.2V13.9H13.72C13.31 13.9 12.97 13.56 12.97 13.15C12.97 12.74 13.31 12.4 13.72 12.4H17.32C18.11 12.4 18.75 13.04 18.75 13.83V14.23Z" fill="url(#paint0_linear_17_777)"/>
<defs>
<linearGradient id="paint0_linear_17_777" x1="1.99562" y1="23.9621" x2="22.934" y2="22.9305" gradientUnits="userSpaceOnUse">
<stop stop-color="#F77248"/>
<stop offset="1" stop-color="#F2244B"/>
</linearGradient>
</defs>
</svg>
