<svg width="24" height="26" viewBox="0 0 24 26" fill="none" xmlns="http://www.w3.org/2000/svg">
<path d="M15 24.75C14.73 24.75 14.48 24.6 14.35 24.37C14.22 24.14 14.22 23.85 14.36 23.62L15.41 21.87C15.62 21.51 16.08 21.4 16.44 21.61C16.8 21.82 16.91 22.28 16.7 22.64L16.43 23.09C19.19 22.44 21.26 19.96 21.26 17C21.26 16.59 21.6 16.25 22.01 16.25C22.42 16.25 22.76 16.59 22.76 17C22.75 21.27 19.27 24.75 15 24.75Z" fill="url(#paint0_linear_17_969)"/>
<path d="M2 11.75C1.59 11.75 1.25 11.41 1.25 11C1.25 6.73 4.73 3.25 9 3.25C9.27 3.25 9.52 3.4 9.65 3.63C9.78 3.86 9.78 4.15 9.64 4.38L8.59 6.14C8.38 6.49 7.92 6.61 7.56 6.39C7.21 6.18 7.09 5.72 7.31 5.36L7.58 4.91C4.81 5.56 2.75 8.04 2.75 11C2.75 11.41 2.41 11.75 2 11.75Z" fill="url(#paint1_linear_17_969)"/>
<path d="M10.67 15.85L7.53002 14.16C7.20002 13.98 6.80002 13.98 6.47002 14.16L3.33002 15.85C3.10002 15.97 2.96002 16.22 2.96002 16.49C2.96002 16.76 3.10002 17.01 3.33002 17.13L6.47002 18.82C6.64002 18.91 6.82002 18.95 7.00002 18.95C7.18002 18.95 7.36002 18.91 7.53002 18.82L10.67 17.13C10.9 17.01 11.04 16.76 11.04 16.49C11.04 16.22 10.89 15.98 10.67 15.85Z" fill="url(#paint2_linear_17_969)"/>
<path d="M5.95 19.41L3.03 17.95C2.81 17.84 2.55 17.85 2.33 17.98C2.13 18.11 2 18.34 2 18.59V21.35C2 21.83 2.26 22.26 2.69 22.47L5.61 23.93C5.71 23.97 5.82 24 5.93 24C6.06 24 6.19 23.96 6.31 23.89C6.52 23.76 6.65 23.53 6.65 23.28V20.52C6.65 20.05 6.38 19.62 5.95 19.41Z" fill="url(#paint3_linear_17_969)"/>
<path d="M11.66 17.98C11.45 17.85 11.19 17.84 10.96 17.95L8.03998 19.41C7.60998 19.62 7.34998 20.05 7.34998 20.53V23.29C7.34998 23.54 7.47998 23.77 7.68998 23.9C7.80998 23.96 7.93998 24 8.06998 24C8.17998 24 8.28998 23.97 8.38998 23.92L11.31 22.46C11.74 22.25 12 21.82 12 21.34V18.58C12 18.34 11.87 18.11 11.66 17.98Z" fill="url(#paint4_linear_17_969)"/>
<path d="M20.67 5.83L17.53 4.14C17.2 3.96 16.8 3.96 16.47 4.14L13.33 5.83C13.1 5.95 12.96 6.2 12.96 6.47C12.96 6.74 13.1 6.99001 13.33 7.11L16.47 8.8C16.64 8.89001 16.82 8.93 17 8.93C17.18 8.93 17.36 8.89001 17.53 8.8L20.67 7.11C20.9 6.99001 21.04 6.74 21.04 6.47C21.04 6.19 20.89 5.95 20.67 5.83Z" fill="url(#paint5_linear_17_969)"/>
<path d="M15.95 9.37999L13.03 7.91999C12.81 7.80999 12.55 7.81999 12.33 7.94999C12.13 8.07999 12 8.30999 12 8.55999V11.32C12 11.8 12.26 12.23 12.69 12.44L15.61 13.9C15.71 13.95 15.82 13.98 15.93 13.98C16.06 13.98 16.19 13.94 16.31 13.87C16.52 13.74 16.65 13.51 16.65 13.26V10.5C16.65 10.02 16.38 9.58999 15.95 9.37999Z" fill="url(#paint6_linear_17_969)"/>
<path d="M21.66 7.94999C21.45 7.81999 21.19 7.80999 20.96 7.91999L18.04 9.37999C17.61 9.58999 17.35 10.02 17.35 10.5V13.26C17.35 13.51 17.48 13.74 17.69 13.87C17.81 13.94 17.94 13.98 18.07 13.98C18.18 13.98 18.29 13.95 18.39 13.9L21.31 12.44C21.74 12.22 22 11.79 22 11.32V8.55999C22 8.30999 21.87 8.07999 21.66 7.94999Z" fill="url(#paint7_linear_17_969)"/>
<defs>
<linearGradient id="paint0_linear_17_969" x1="14.2519" y1="24.7339" x2="23.1572" y2="24.2948" gradientUnits="userSpaceOnUse">
<stop stop-color="#F77248"/>
<stop offset="1" stop-color="#F2244B"/>
</linearGradient>
<linearGradient id="paint1_linear_17_969" x1="1.24814" y1="11.7339" x2="10.1431" y2="11.2958" gradientUnits="userSpaceOnUse">
<stop stop-color="#F77248"/>
<stop offset="1" stop-color="#F2244B"/>
</linearGradient>
<linearGradient id="paint2_linear_17_969" x1="2.95825" y1="18.9407" x2="11.3829" y2="18.2597" gradientUnits="userSpaceOnUse">
<stop stop-color="#F77248"/>
<stop offset="1" stop-color="#F2244B"/>
</linearGradient>
<linearGradient id="paint3_linear_17_969" x1="1.99898" y1="23.9884" x2="6.87217" y2="23.8061" gradientUnits="userSpaceOnUse">
<stop stop-color="#F77248"/>
<stop offset="1" stop-color="#F2244B"/>
</linearGradient>
<linearGradient id="paint4_linear_17_969" x1="7.34896" y1="23.9884" x2="12.2221" y2="23.8061" gradientUnits="userSpaceOnUse">
<stop stop-color="#F77248"/>
<stop offset="1" stop-color="#F2244B"/>
</linearGradient>
<linearGradient id="paint5_linear_17_969" x1="12.9583" y1="8.92066" x2="21.3829" y2="8.23973" gradientUnits="userSpaceOnUse">
<stop stop-color="#F77248"/>
<stop offset="1" stop-color="#F2244B"/>
</linearGradient>
<linearGradient id="paint6_linear_17_969" x1="11.999" y1="13.9683" x2="16.8722" y2="13.7864" gradientUnits="userSpaceOnUse">
<stop stop-color="#F77248"/>
<stop offset="1" stop-color="#F2244B"/>
</linearGradient>
<linearGradient id="paint7_linear_17_969" x1="17.349" y1="13.9683" x2="22.2222" y2="13.7864" gradientUnits="userSpaceOnUse">
<stop stop-color="#F77248"/>
<stop offset="1" stop-color="#F2244B"/>
</linearGradient>
</defs>
</svg>
