<svg width="24" height="26" viewBox="0 0 24 26" fill="none" xmlns="http://www.w3.org/2000/svg">
<path d="M17 4.42999H7C4 4.42999 2 6.42999 2 9.42999V15.43C2 18.43 4 20.43 7 20.43V22.56C7 23.36 7.89 23.84 8.55 23.39L13 20.43H17C20 20.43 22 18.43 22 15.43V9.42999C22 6.42999 20 4.42999 17 4.42999ZM12 16.6C11.58 16.6 11.25 16.26 11.25 15.85C11.25 15.44 11.58 15.1 12 15.1C12.42 15.1 12.75 15.44 12.75 15.85C12.75 16.26 12.42 16.6 12 16.6ZM13.26 12.45C12.87 12.71 12.75 12.88 12.75 13.16V13.37C12.75 13.78 12.41 14.12 12 14.12C11.59 14.12 11.25 13.78 11.25 13.37V13.16C11.25 12 12.1 11.43 12.42 11.21C12.79 10.96 12.91 10.79 12.91 10.53C12.91 10.03 12.5 9.61999 12 9.61999C11.5 9.61999 11.09 10.03 11.09 10.53C11.09 10.94 10.75 11.28 10.34 11.28C9.93 11.28 9.59 10.94 9.59 10.53C9.59 9.19999 10.67 8.11999 12 8.11999C13.33 8.11999 14.41 9.19999 14.41 10.53C14.41 11.67 13.57 12.24 13.26 12.45Z" fill="url(#paint0_linear_17_952)"/>
<defs>
<linearGradient id="paint0_linear_17_952" x1="1.99562" y1="23.5269" x2="22.9293" y2="22.4488" gradientUnits="userSpaceOnUse">
<stop stop-color="#F77248"/>
<stop offset="1" stop-color="#F2244B"/>
</linearGradient>
</defs>
</svg>
