<svg width="34" height="34" viewBox="0 0 34 34" fill="none" xmlns="http://www.w3.org/2000/svg">
<rect x="5" y="5" width="24" height="24" rx="8" fill="#FF6700" fill-opacity="1"/>
<path d="M15.5371 9.89747L11.0221 12.845C9.57465 13.79 9.57465 15.905 11.0221 16.85L15.5371 
19.7975C16.3471 20.33 17.6821 20.33 18.4921 19.7975L22.9846 16.85C24.4246 15.905 24.4246 
13.7975 22.9846 12.8525L18.4921 9.90497C17.6821 9.36497 16.3471 9.36497 15.5371 9.89747Z" 
stroke="#fff" stroke-width="1.5" stroke-linecap="round" stroke-linejoin="round"/>
<path d="M12.2223 17.8101L12.2148 21.3276C12.2148 22.2801 12.9498 23.3001 13.8498 
23.6001L16.2423 24.3951C16.6548 24.5301 17.3373 24.5301 17.7573 24.3951L20.1498 
23.6001C21.0498 23.3001 21.7848 22.2801 21.7848 21.3276V17.8476" stroke="#fff" stroke-width="1.5" stroke-linecap="round" stroke-linejoin="round"/>
<path d="M24.0508 19.25V14.75" stroke="#fff" stroke-width="1.5" stroke-linecap="round" stroke-linejoin="round"/>
</svg>
