<svg width="30" height="30" viewBox="0 0 30 30" fill="none" xmlns="http://www.w3.org/2000/svg">
<path d="M1 10.0625C1 8.26606 1.0008 6.97987 1.08453 5.9717C1.16726 4.9755 1.32575 4.34066 1.59108 3.82988C2.08918 2.87101 2.87101 2.08918 3.82988 1.59108C4.34066 1.32575 4.9755 1.16726 5.9717 1.08453C6.97987 1.0008 8.26606 1 10.0625 1H19.9375C21.7339 1 23.0201 1.0008 24.0283 1.08453C25.0245 1.16726 25.6593 1.32575 26.1701 1.59108C27.129 2.08918 27.9108 2.87101 28.4089 3.82988C28.6742 4.34066 28.8327 4.9755 28.9155 5.9717C28.9992 6.97987 29 8.26606 29 10.0625V19.9375C29 21.7339 28.9992 23.0201 28.9155 24.0283C28.8327 25.0245 28.6742 25.6593 28.4089 26.1701C27.9108 27.129 27.129 27.9108 26.1701 28.4089C25.6593 28.6742 25.0245 28.8327 24.0283 28.9155C23.0201 28.9992 21.7339 29 19.9375 29H10.0625C8.26606 29 6.97987 28.9992 5.9717 28.9155C4.9755 28.8327 4.34066 28.6742 3.82988 28.4089C2.87101 27.9108 2.08918 27.129 1.59108 26.1701C1.32575 25.6593 1.16726 25.0245 1.08453 24.0283C1.0008 23.0201 1 21.7339 1 19.9375V10.0625Z" stroke="#F05323" stroke-width="2"/>
<path d="M19.2903 17.5862L19.8581 13.9655H16.4516V11.431C16.4516 10.4172 16.8065 9.62069 18.3677 9.62069H20V6.28966C19.0774 6.14483 18.0839 6 17.1613 6C14.2516 6 12.1935 7.81035 12.1935 11.069V13.9655H9V17.5862H12.1935V27C13.6129 27 15.0323 27 16.4516 27V17.5862H19.2903Z" fill="#F05323"/>
</svg>
