<svg width="34" height="34" viewBox="0 0 34 34" fill="none" xmlns="http://www.w3.org/2000/svg">
<rect x="5" y="5" width="24" height="24" rx="8" fill="#FF6700" fill-opacity="1"/>
<path d="M21.9289 12.4015C21.522 11.4299 20.8371 10.6003 19.9601 10.0168C19.0832 9.43336 18.0533 9.12207 17 9.12207C15.9467 9.12207 14.9169 9.43336 14.0399 10.0168C13.163 10.6003 12.478 11.4299 12.0711 12.4015C11.1954 12.807 10.4533 13.4535 9.93157 14.2653C9.40985 15.0772 9.13009 16.0208 9.12502 16.9858C9.11729 19.7154 11.33 21.9921 14.0567 22.0624C14.8816 22.0839 15.6991 21.9026 16.4375 21.5344V24.3124C16.4375 24.4616 16.4968 24.6047 16.6023 24.7102C16.7078 24.8156 16.8508 24.8749 17 24.8749C17.1492 24.8749 17.2923 24.8156 17.3978 24.7102C17.5033 24.6047 17.5625 24.4616 17.5625 24.3124V21.5344C18.2613 21.8828 19.0317 22.0636 19.8125 22.0624H19.9433C22.67 21.9921 24.8828 19.7168 24.875 16.9873C24.8703 16.022 24.5907 15.078 24.069 14.2659C23.5472 13.4537 22.8049 12.807 21.9289 12.4015ZM19.9145 20.9374C19.1021 20.9601 18.3029 20.729 17.6279 20.2765C17.6059 20.2624 17.5841 20.249 17.5625 20.2364V17.3472L20.6267 15.8158C20.6929 15.7828 20.7518 15.737 20.8002 15.6812C20.8487 15.6254 20.8856 15.5605 20.909 15.4904C20.9324 15.4203 20.9417 15.3462 20.9365 15.2725C20.9312 15.1988 20.9115 15.1268 20.8785 15.0607C20.8454 14.9946 20.7996 14.9356 20.7438 14.8872C20.688 14.8388 20.6231 14.8018 20.553 14.7784C20.4829 14.7551 20.4088 14.7457 20.3351 14.751C20.2614 14.7562 20.1894 14.7759 20.1233 14.809L17.5625 16.0901V14.1874C17.5625 14.0382 17.5033 13.8951 17.3978 13.7897C17.2923 13.6842 17.1492 13.6249 17 13.6249C16.8508 13.6249 16.7078 13.6842 16.6023 13.7897C16.4968 13.8951 16.4375 14.0382 16.4375 14.1874V17.7776L13.8767 16.4965C13.7432 16.4297 13.5886 16.4187 13.447 16.4659C13.3054 16.5131 13.1883 16.6147 13.1216 16.7482C13.0548 16.8817 13.0438 17.0363 13.091 17.1779C13.1383 17.3195 13.2398 17.4366 13.3733 17.5033L16.4375 19.0347V20.2343C16.4155 20.2469 16.3937 20.2603 16.3721 20.2744C15.6972 20.7273 14.8981 20.959 14.0856 20.9374C13.1963 20.9152 12.3407 20.5925 11.6582 20.0219C10.9758 19.4513 10.5067 18.6664 10.3273 17.7951C10.1479 16.9238 10.2688 16.0175 10.6704 15.2237C11.072 14.4299 11.7305 13.7955 12.5387 13.4238C12.7943 13.3067 12.9964 13.0976 13.1047 12.8381C13.4258 12.0708 13.9665 11.4155 14.659 10.9546C15.3514 10.4937 16.1647 10.2478 16.9965 10.2478C17.8283 10.2478 18.6416 10.4937 19.334 10.9546C20.0265 11.4155 20.5672 12.0708 20.8883 12.8381C20.9966 13.0976 21.1987 13.3067 21.4543 13.4238C22.2625 13.7955 22.921 14.4299 23.3226 15.2237C23.7242 16.0175 23.8451 16.9238 23.6657 17.7951C23.4864 18.6664 23.0172 19.4513 22.3348 20.0219C21.6523 20.5925 20.7967 20.9152 19.9074 20.9374H19.9145Z" fill="#fff"/>
</svg>
