<svg width="34" height="34" viewBox="0 0 34 34" fill="none" xmlns="http://www.w3.org/2000/svg">
<rect x="5" y="5" width="24" height="24" rx="8" fill="#FF6700" fill-opacity="1"/>
<path d="M13.9996 24.5H19.9996C23.0146 24.5 23.5546 23.2925 23.7121 21.8225L24.2746 15.8225C24.4771 13.9925 23.9521 12.5 20.7496 12.5H13.2496C10.0471 12.5 9.52213 13.9925 9.72463 15.8225L10.2871 21.8225C10.4446 23.2925 10.9846 24.5 13.9996 24.5Z" stroke="#fff" stroke-width="1.5" stroke-miterlimit="10" stroke-linecap="round" stroke-linejoin="round"/>
<path d="M14 12.5V11.9C14 10.5725 14 9.5 16.4 9.5H17.6C20 9.5 20 10.5725 20 11.9V12.5" stroke="#fff" stroke-width="1.5" stroke-miterlimit="10" stroke-linecap="round" stroke-linejoin="round"/>
<path d="M18.5 17.75V18.5C18.5 18.5075 18.5 18.5075 18.5 18.515C18.5 19.3325 18.4925 20 17 20C15.515 20 15.5 19.34 15.5 18.5225V17.75C15.5 17 15.5 17 16.25 17H17.75C18.5 17 18.5 17 18.5 17.75Z" stroke="#fff" stroke-width="1.5" stroke-miterlimit="10" stroke-linecap="round" stroke-linejoin="round"/>
<path d="M24.2375 16.25C22.505 17.51 20.525 18.26 18.5 18.515" stroke="#fff" stroke-width="1.5" stroke-miterlimit="10" stroke-linecap="round" stroke-linejoin="round"/>
<path d="M9.96484 16.4526C11.6523 17.6076 13.5573 18.3051 15.4998 18.5226" stroke="#fff" stroke-width="1.5" stroke-miterlimit="10" stroke-linecap="round" stroke-linejoin="round"/>
</svg>
