<svg width="34" height="34" viewBox="0 0 34 34" fill="none" xmlns="http://www.w3.org/2000/svg">
<rect x="5" y="5" width="24" height="24" rx="8" fill="#FF6700" fill-opacity="1"/>
<path d="M12 14.1923C12 11.3698 14.4162 9 17.5 9C20.5838 9 23 11.3698 23 14.1923C23 15.6059 22.6915 16.2916 22.2757 16.9175C22.122 17.149 21.9691 17.351 21.7907 17.5867C21.6802 17.7327 21.5599 17.8917 21.4236 18.0786C21.0896 18.5364 20.7289 19.0742 20.3824 19.7681C20.1245 20.2845 20.0463 20.954 20.0091 21.5048C19.9836 21.8834 19.9743 22.2831 19.9672 22.6593C19.9662 22.712 19.9653 22.7642 19.9643 22.8159C19.9584 23.1416 19.9529 23.4463 19.9395 23.7307C19.9149 24.2537 19.8673 24.5581 19.8156 24.6939C19.8047 24.7224 19.7315 24.8792 19.1545 24.9586C18.7581 25.0131 18.37 25.0025 17.9791 24.9918C17.8201 24.9874 17.6607 24.9831 17.5 24.9831C17.3292 24.9831 17.1683 24.9878 17.0135 24.9923C16.6548 25.0028 16.3282 25.0123 15.9841 24.9604C15.651 24.9102 15.4882 24.8242 15.4006 24.7295L15.1052 21.49C15.0644 20.9396 14.9779 20.2568 14.6851 19.7295C14.3069 19.0484 13.9287 18.5099 13.5869 18.0487C13.485 17.9112 13.3903 17.7855 13.3012 17.6674C13.0795 17.3733 12.8931 17.126 12.7202 16.8609C12.2943 16.2081 12 15.519 12 14.1923Z" stroke="#fff" stroke-width="2"/>
</svg>
