<svg width="30" height="30" viewBox="0 0 30 30" fill="none" xmlns="http://www.w3.org/2000/svg">
<path d="M15.0019 1C11.1995 1 10.7224 1.01663 9.22894 1.08459C7.73845 1.15285 6.72106 1.38882 5.83084 1.73506C4.91 2.09268 4.12888 2.57105 3.35067 3.34957C2.57188 4.1278 2.09352 4.90895 1.73475 5.82953C1.38765 6.72006 1.15138 7.73778 1.0843 9.22773C1.0175 10.7212 1 11.1987 1 15.0012C1 18.8037 1.01692 19.2794 1.08459 20.7729C1.15313 22.2634 1.3891 23.2808 1.73504 24.1711C2.09293 25.0919 2.57129 25.8731 3.34979 26.6513C4.12771 27.4301 4.90884 27.9097 5.82909 28.2673C6.71989 28.6135 7.73757 28.8495 9.22778 28.9178C10.7212 28.9857 11.1981 29.0024 15.0002 29.0024C18.8028 29.0024 19.2786 28.9857 20.772 28.9178C22.2625 28.8495 23.281 28.6135 24.1718 28.2673C25.0924 27.9097 25.8723 27.4301 26.6503 26.6513C27.4291 25.8731 27.9074 25.0919 28.2662 24.1714C28.6104 23.2808 28.8466 22.2631 28.9166 20.7732C28.9837 19.2797 29.0012 18.8037 29.0012 15.0012C29.0012 11.1987 28.9837 10.7215 28.9166 9.22803C28.8466 7.73748 28.6104 6.72006 28.2662 5.82982C27.9074 4.90895 27.4291 4.1278 26.6503 3.34957C25.8715 2.57076 25.0927 2.09238 24.171 1.73506C23.2784 1.38882 22.2604 1.15285 20.7699 1.08459C19.2765 1.01663 18.8011 1 14.9975 1H15.0019ZM13.7459 3.52313C14.1187 3.52255 14.5346 3.52313 15.0019 3.52313C18.7401 3.52313 19.1832 3.53655 20.6594 3.60364C22.0245 3.66606 22.7653 3.89416 23.2589 4.0858C23.9122 4.33957 24.3781 4.64293 24.8678 5.13297C25.3578 5.62301 25.6612 6.08972 25.9155 6.74311C26.1071 7.23607 26.3355 7.97696 26.3977 9.34208C26.4647 10.818 26.4793 11.2614 26.4793 14.998C26.4793 18.7345 26.4647 19.1779 26.3977 20.6539C26.3352 22.019 26.1071 22.7599 25.9155 23.2528C25.6617 23.9062 25.3578 24.3715 24.8678 24.8612C24.3778 25.3513 23.9125 25.6546 23.2589 25.9084C22.7659 26.1009 22.0245 26.3284 20.6594 26.3908C19.1835 26.4579 18.7401 26.4725 15.0019 26.4725C11.2634 26.4725 10.8204 26.4579 9.34445 26.3908C7.97938 26.3278 7.2385 26.0997 6.74468 25.9081C6.09132 25.6543 5.62462 25.351 5.1346 24.8609C4.64457 24.3709 4.34122 23.9053 4.08687 23.2517C3.89524 22.7587 3.66685 22.0178 3.60472 20.6527C3.53764 19.1767 3.52422 18.7334 3.52422 14.9945C3.52422 11.2556 3.53764 10.8145 3.60472 9.33858C3.66714 7.97346 3.89524 7.23257 4.08687 6.73902C4.34064 6.08564 4.64457 5.61893 5.1346 5.12889C5.62462 4.63885 6.09132 4.33549 6.74468 4.08113C7.23821 3.88862 7.97938 3.6611 9.34445 3.59839C10.636 3.54005 11.1365 3.52255 13.7459 3.51963V3.52313ZM22.4754 5.84791C21.5479 5.84791 20.7953 6.5996 20.7953 7.52747C20.7953 8.45504 21.5479 9.20761 22.4754 9.20761C23.403 9.20761 24.1555 8.45504 24.1555 7.52747C24.1555 6.59989 23.403 5.84732 22.4754 5.84732V5.84791ZM15.0019 7.81099C11.0312 7.81099 7.81195 11.0304 7.81195 15.0012C7.81195 18.972 11.0312 22.1899 15.0019 22.1899C18.9726 22.1899 22.1907 18.972 22.1907 15.0012C22.1907 11.0304 18.9723 7.81099 15.0016 7.81099H15.0019ZM15.0019 10.3341C17.5792 10.3341 19.6688 12.4235 19.6688 15.0012C19.6688 17.5786 17.5792 19.6682 15.0019 19.6682C12.4243 19.6682 10.335 17.5786 10.335 15.0012C10.335 12.4235 12.4243 10.3341 15.0019 10.3341Z" fill="#F05323"/>
</svg>
