<svg width="34" height="34" viewBox="0 0 34 34" fill="none" xmlns="http://www.w3.org/2000/svg">
<rect x="5" y="5" width="24" height="24" rx="8" fill="#FF6700" fill-opacity="1"/>
<path d="M22.7556 22.001L23.9345 21.73L23.4726 21.012L23.7467 20.8739L23.6371 20.2516C23.5953 20.0141 23.4748 19.8347 23.3971 19.7347C23.3061 19.6175 23.1969 19.5121 23.0815 19.4209C23.0074 19.3624 22.9256 19.3057 22.8368 19.2528C22.8345 19.1906 22.831 19.1246 22.8263 19.0552C22.7966 18.6213 22.7145 18.0438 22.5098 17.4024C22.6683 16.7116 22.8667 15.6234 22.9387 14.4743C23.0174 13.2165 22.9583 11.7125 22.3792 10.6059L21.9739 9.83147L21.2111 10.2582C19.9659 10.9547 18.9918 12.2146 18.3552 13.2093C18.0282 13.7202 17.772 14.1906 17.5972 14.5338C17.5939 14.5404 17.5905 14.5469 17.5872 14.5534C17.4592 14.5491 17.3362 14.5497 17.2104 14.5545C17.2071 14.5478 17.2037 14.5411 17.2002 14.5343C17.0257 14.1912 16.7699 13.7207 16.4434 13.2097C15.8076 12.215 14.8343 10.9549 13.5889 10.2582L12.8261 9.83147L12.4208 10.6059C11.8417 11.7125 11.7826 13.2165 11.8613 14.4743C11.9333 15.6234 12.1317 16.7116 12.2902 17.4024C12.0855 18.0438 12.0034 18.6213 11.9737 19.0552C11.969 19.1246 11.9655 19.1906 11.9632 19.2528C11.8744 19.3058 11.7926 19.3624 11.7185 19.4209C11.6031 19.5121 11.4939 19.6175 11.4029 19.7347C11.3252 19.8347 11.2047 20.0141 11.1629 20.2516L11.0533 20.8739L11.3274 21.012L10.8655 21.73L12.0444 22.001C12.1257 22.0197 12.2046 22.034 12.2684 22.0453C12.2867 22.0485 12.3034 22.0514 12.3191 22.0541C12.3639 22.0619 12.3999 22.0682 12.4375 22.0755C12.5295 22.0935 12.5584 22.1051 12.5585 22.1048C12.5585 22.1048 12.5579 22.1045 12.5568 22.104C12.7381 22.1953 12.7703 22.2198 12.8231 22.2599C12.828 22.2636 12.8331 22.2675 12.8384 22.2715C12.9622 22.3648 13.1295 22.4904 13.5612 22.7547C14.5004 23.3297 15.9966 23.811 17.3762 23.8497L17.4 23.8503L17.4238 23.8497C18.8034 23.811 20.2996 23.3297 21.2388 22.7547C21.6705 22.4904 21.8378 22.3648 21.9616 22.2715C21.9669 22.2675 21.972 22.2636 21.9769 22.2599C22.0297 22.2198 22.0619 22.1953 22.2432 22.104C22.2421 22.1045 22.2415 22.1048 22.2415 22.1048C22.2416 22.1051 22.2705 22.0935 22.3625 22.0755C22.4001 22.0682 22.4361 22.0619 22.4809 22.0541C22.4966 22.0514 22.5133 22.0485 22.5316 22.0453C22.5954 22.034 22.6743 22.0197 22.7556 22.001Z" stroke="#fff" stroke-width="1.7" stroke-linecap="round"/>
</svg>
