<svg width="34" height="34" viewBox="0 0 34 34" fill="none" xmlns="http://www.w3.org/2000/svg">
<rect x="5" y="5" width="24" height="24" rx="8" fill="#FF6700" fill-opacity="1"/>
<path fill-rule="evenodd" clip-rule="evenodd" d="M9.5 12.5C9.5 11.2574 10.5074 10.25 11.75 10.25H22.25C23.4926 10.25 24.5 11.2574 24.5 12.5V19.3182C24.5 20.5608 23.4926 21.5682 22.25 21.5682H19.1318L13.4375 24.1666V21.5682H11.75C10.5074 21.5682 9.5 20.5608 9.5 19.3182V12.5ZM11.75 11.75C11.3358 11.75 11 12.0858 11 12.5V19.3182C11 19.7324 11.3358 20.0682 11.75 20.0682H14.9375V21.8334L18.8057 20.0682H22.25C22.6642 20.0682 23 19.7324 23 19.3182V12.5C23 12.0858 22.6642 11.75 22.25 11.75H11.75Z" fill="#fff"/>
</svg>
