<svg width="30" height="30" viewBox="0 0 30 30" fill="none" xmlns="http://www.w3.org/2000/svg">
<path fill-rule="evenodd" clip-rule="evenodd" d="M15.6938 0.892308C19.1769 1.06349 22.4226 2.49984 24.9015 4.98047C27.5458 7.62636 29.0012 11.1434 28.9998 14.8837C28.9966 22.6021 22.7132 28.8821 14.9944 28.8821C12.0917 28.8821 9.78505 27.9903 8.29565 27.1783L0.871094 29.1249L2.85808 21.8709C1.63244 19.748 0.987518 17.3399 0.988529 14.8726C0.991628 7.15442 7.2745 0.875 14.9942 0.875L15.6938 0.892308ZM8.63961 24.6441L9.06475 24.8962C10.852 25.9563 12.9007 26.5172 14.9896 26.518H14.9943C21.4104 26.518 26.6325 21.2984 26.635 14.8829C26.6363 11.774 25.4266 8.85078 23.2288 6.65157C21.0309 4.45223 18.1082 3.24034 14.9989 3.23933C8.57789 3.23933 3.35578 8.45837 3.35322 14.8734C3.35235 17.0719 3.96776 19.213 5.13302 21.0654L5.4098 21.5057L4.23382 25.7992L8.63961 24.6441ZM22.0502 18.2125C21.9627 18.0665 21.7295 17.9791 21.3795 17.804C21.0296 17.6289 19.3091 16.7827 18.9883 16.6659C18.6675 16.5493 18.4342 16.491 18.2009 16.841C17.9677 17.1911 17.297 17.9791 17.0928 18.2125C16.8887 18.4459 16.6846 18.4752 16.3347 18.3001C15.9847 18.125 14.8571 17.7556 13.5205 16.564C12.4801 15.6365 11.7778 14.4911 11.5736 14.1409C11.3695 13.7908 11.5519 13.6015 11.727 13.4271C11.8845 13.2703 12.0771 13.0185 12.252 12.8143C12.427 12.6101 12.4853 12.4641 12.602 12.2308C12.7186 11.9973 12.6603 11.7931 12.5728 11.618C12.4853 11.4429 11.7855 9.72118 11.4939 9.02081C11.2097 8.33884 10.9212 8.43116 10.7064 8.42039C10.5025 8.41029 10.269 8.40807 10.0358 8.40807C9.80245 8.40807 9.42332 8.49554 9.10254 8.84579C8.78177 9.1959 7.87772 10.0422 7.87772 11.7637C7.87772 13.4855 9.13172 15.1486 9.30669 15.3821C9.48167 15.6156 11.7743 19.1484 15.2848 20.6636C16.1197 21.024 16.7716 21.2392 17.2798 21.4004C18.1182 21.6666 18.881 21.6291 19.484 21.539C20.1564 21.4386 21.5545 20.6928 21.8461 19.8759C22.1377 19.0587 22.1377 18.3584 22.0502 18.2125Z" fill="#F05323"/>
</svg>
