<svg width="48" height="49" viewBox="0 0 48 49" fill="none" xmlns="http://www.w3.org/2000/svg">
<g clip-path="url(#clip0_1033_6124)">
<path d="M0.0273438 16.6C0.0273438 10.9051 0.0273438 8.05764 1.15321 5.89026C2.10196 4.06382 3.59117 2.57462 5.4176 1.62587C7.58498 0.5 10.4324 0.5 16.1273 0.5H31.9273C37.6222 0.5 40.4697 0.5 42.6371 1.62587C44.4635 2.57462 45.9527 4.06382 46.9015 5.89026C48.0273 8.05764 48.0273 10.9051 48.0273 16.6V32.4C48.0273 38.0949 48.0273 40.9424 46.9015 43.1097C45.9527 44.9362 44.4635 46.4254 42.6371 47.3741C40.4697 48.5 37.6222 48.5 31.9273 48.5H16.1273C10.4324 48.5 7.58498 48.5 5.4176 47.3741C3.59117 46.4254 2.10196 44.9362 1.15321 43.1097C0.0273438 40.9424 0.0273438 38.0949 0.0273438 32.4V16.6Z" fill="#BEBEB6" fill-opacity="0.4"/>
<path d="M24.0004 7.0459C19.2602 7.0459 18.6653 7.06663 16.8035 7.15135C14.9454 7.23644 13.6771 7.53063 12.5673 7.96226C11.4193 8.40808 10.4455 9.00444 9.47538 9.97499C8.5045 10.9452 7.90815 11.919 7.46089 13.0666C7.02818 14.1768 6.73364 15.4455 6.65001 17.303C6.56674 19.1648 6.54492 19.7601 6.54492 24.5004C6.54492 29.2408 6.56601 29.8339 6.65037 31.6957C6.73583 33.5539 7.03 34.8223 7.46126 35.9321C7.90743 37.0801 8.50377 38.0539 9.47429 39.0241C10.4441 39.995 11.4179 40.5928 12.5651 41.0386C13.6756 41.4703 14.9443 41.7644 16.8021 41.8495C18.6638 41.9343 19.2584 41.955 23.9982 41.955C28.7388 41.955 29.3319 41.9343 31.1936 41.8495C33.0518 41.7644 34.3215 41.4703 35.432 41.0386C36.5796 40.5928 37.552 39.995 38.5218 39.0241C39.4927 38.0539 40.089 37.0801 40.5363 35.9324C40.9653 34.8223 41.2599 33.5535 41.3471 31.6961C41.4308 29.8343 41.4526 29.2408 41.4526 24.5004C41.4526 19.7601 41.4308 19.1652 41.3471 17.3034C41.2599 15.4452 40.9653 14.1768 40.5363 13.067C40.089 11.919 39.4927 10.9452 38.5218 9.97499C37.5509 9.00408 36.58 8.40772 35.431 7.96226C34.3183 7.53063 33.0492 7.23644 31.1911 7.15135C29.3293 7.06663 28.7366 7.0459 23.9949 7.0459H24.0004ZM22.4346 10.1914C22.8993 10.1906 23.4179 10.1914 24.0004 10.1914C28.6606 10.1914 29.213 10.2081 31.0533 10.2917C32.755 10.3695 33.6786 10.6539 34.2939 10.8928C35.1084 11.2092 35.6891 11.5874 36.2997 12.1983C36.9105 12.8092 37.2887 13.391 37.6058 14.2055C37.8447 14.8201 38.1294 15.7437 38.2069 17.4455C38.2905 19.2855 38.3087 19.8383 38.3087 24.4964C38.3087 29.1546 38.2905 29.7074 38.2069 31.5474C38.1291 33.2492 37.8447 34.1728 37.6058 34.7874C37.2894 35.6019 36.9105 36.1819 36.2997 36.7924C35.6888 37.4034 35.1088 37.7815 34.2939 38.0979C33.6794 38.3379 32.755 38.6215 31.0533 38.6994C29.2133 38.783 28.6606 38.8012 24.0004 38.8012C19.3398 38.8012 18.7875 38.783 16.9475 38.6994C15.2457 38.6208 14.3221 38.3364 13.7065 38.0975C12.892 37.7812 12.3102 37.403 11.6993 36.7921C11.0884 36.1812 10.7103 35.6008 10.3932 34.7859C10.1543 34.1714 9.86955 33.2477 9.7921 31.5459C9.70846 29.7059 9.69174 29.1532 9.69174 24.4921C9.69174 19.831 9.70846 19.2812 9.7921 17.4412C9.86991 15.7394 10.1543 14.8157 10.3932 14.2004C10.7095 13.3859 11.0884 12.8041 11.6993 12.1932C12.3102 11.5823 12.892 11.2041 13.7065 10.887C14.3218 10.647 15.2457 10.3634 16.9475 10.2852C18.5576 10.2124 19.1816 10.1906 22.4346 10.187V10.1914ZM33.3172 13.0895C32.1609 13.0895 31.2227 14.0266 31.2227 15.1834C31.2227 16.3397 32.1609 17.2779 33.3172 17.2779C34.4735 17.2779 35.4117 16.3397 35.4117 15.1834C35.4117 14.027 34.4735 13.0888 33.3172 13.0888V13.0895ZM24.0004 15.5368C19.0504 15.5368 15.037 19.5503 15.037 24.5004C15.037 29.4506 19.0504 33.4623 24.0004 33.4623C28.9504 33.4623 32.9623 29.4506 32.9623 24.5004C32.9623 19.5503 28.9501 15.5368 24 15.5368H24.0004ZM24.0004 18.6823C27.2134 18.6823 29.8184 21.287 29.8184 24.5004C29.8184 27.7135 27.2134 30.3186 24.0004 30.3186C20.787 30.3186 18.1824 27.7135 18.1824 24.5004C18.1824 21.287 20.787 18.6823 24.0004 18.6823Z" fill="white"/>
</g>
<defs>
<clipPath id="clip0_1033_6124">
<rect width="48" height="48" fill="white" transform="translate(0 0.5)"/>
</clipPath>
</defs>
</svg>
