<svg width="52" height="80" viewBox="0 0 52 80" fill="none" xmlns="http://www.w3.org/2000/svg">
<g clip-path="url(#clip0_1040_4040)">
<path d="M24.7724 50.2595L22.4266 50.2595C22.1482 50.2594 21.8754 50.182 21.6384 50.0361C21.4014 49.8901 21.2095 49.6813 21.0841 49.4329L19.9995 47.2601L28.3053 47.2601C28.9215 47.2438 29.5345 47.3532 30.107 47.5816C30.526 47.7629 30.8966 48.0397 31.1893 48.3901C31.4819 48.7404 31.6884 49.1544 31.7922 49.5989C31.9162 50.0299 31.9827 50.4753 31.99 50.9237C31.99 51.5844 31.99 52.0825 31.99 52.7431L31.99 55.1208L29.3651 55.1208L29.3651 51.496C29.3534 51.1769 29.2197 50.8745 28.9917 50.651C28.7636 50.4276 28.4585 50.3001 28.1392 50.2949C27.9291 50.2737 27.718 50.2631 27.5068 50.2631L24.7724 50.2595ZM19.9995 5.26498L26.7685 5.26498C26.5176 5.40984 19.9995 9.01336 19.9995 9.01336L19.9995 12.0128L32.0112 12.0128L32.0112 9.01336L25.2317 9.01336C25.2988 8.97097 31.7604 5.39924 31.9971 5.26498L31.9971 2.26559L19.9854 2.26559L19.9995 5.26498ZM29.6584 41.2613C29.6584 42.466 28.7398 43.1373 27.5952 43.1373L19.9995 43.1373L19.9995 46.1367L26.7508 46.1367C28.0898 46.1367 29.4534 45.9812 30.538 45.1334C30.9409 44.8286 31.2805 44.4482 31.5378 44.0134C31.929 43.1487 32.1314 42.2105 32.1314 41.2613C32.1314 40.3122 31.929 39.374 31.5378 38.5092C31.2797 38.0741 30.9403 37.6926 30.538 37.3858C29.4534 36.5379 28.0898 36.386 26.7508 36.386L19.9995 36.386L19.9995 39.3854L27.5987 39.3854C28.7398 39.3854 29.6584 40.0531 29.6584 41.2613ZM28.1816 20.8096L23.9846 19.1385L28.1816 17.464L28.1816 20.8096ZM32.0006 15.9448L32.0006 12.7653L19.9995 17.5523L19.9995 20.7319L32.0112 25.5083L32.0112 22.3287L30.3755 21.6787L30.3755 16.5984L32.0006 15.9448ZM27.1853 25.6779C26.7067 25.8118 26.2771 26.0818 25.9488 26.4551C25.8994 26.5116 25.8499 26.5752 25.8005 26.6388C25.4769 27.0928 25.2475 27.6069 25.1257 28.1509C24.949 28.9069 24.8077 29.67 24.6488 30.4296C24.5866 30.8899 24.4679 31.3408 24.2955 31.7721C24.2439 31.8889 24.1671 31.9929 24.0706 32.0766C23.9741 32.1603 23.8603 32.2216 23.7373 32.2561C23.5272 32.3073 23.3079 32.3073 23.0978 32.2561C22.9128 32.2058 22.7469 32.1018 22.6211 31.9571C22.4953 31.8124 22.4153 31.6337 22.3913 31.4435C22.2252 30.7467 22.2252 30.0206 22.3913 29.3238C22.4273 29.0583 22.5666 28.8178 22.779 28.6545C22.9913 28.4911 23.2595 28.418 23.5253 28.4512L23.7585 28.4512L23.7585 25.5154C23.4508 25.5088 23.1431 25.5182 22.8364 25.5436C22.3548 25.5762 21.8897 25.7325 21.4862 25.9973C21.0827 26.2622 20.7544 26.6268 20.533 27.0557C20.1362 27.8221 19.9131 28.6664 19.8794 29.5287C19.837 30.092 19.837 30.6577 19.8794 31.2209C19.9135 32.0832 20.1367 32.9274 20.533 33.6939C20.7538 34.1219 21.081 34.4858 21.4832 34.7506C21.8854 35.0154 22.349 35.1723 22.8293 35.206C23.0195 35.2243 23.2106 35.2326 23.4017 35.2307C23.8402 35.2405 24.2776 35.1821 24.6982 35.0576C25.1773 34.9246 25.6071 34.6545 25.9347 34.2804C25.988 34.2223 26.0375 34.161 26.0831 34.0967C26.4111 33.647 26.6431 33.1348 26.7649 32.5917C26.9451 31.8357 27.0864 31.0726 27.2419 30.313C27.3053 29.8415 27.4239 29.379 27.5952 28.9352C27.6459 28.818 27.722 28.7136 27.8179 28.6293C27.9138 28.545 28.0271 28.483 28.1498 28.4476C28.2472 28.4247 28.3466 28.4117 28.4466 28.4088C28.7136 28.3858 28.9795 28.4649 29.1905 28.6301C29.4016 28.7953 29.5423 29.0343 29.5842 29.2991C29.7485 29.9961 29.7485 30.7218 29.5842 31.4188C29.5481 31.6842 29.4088 31.9247 29.1964 32.0881C28.9841 32.2515 28.716 32.3245 28.4501 32.2914L28.2134 32.2914L28.2134 35.2272C28.5266 35.2404 28.8403 35.2369 29.1532 35.2166C29.6336 35.1815 30.0971 35.0241 30.4996 34.7595C30.9021 34.4948 31.2303 34.1317 31.453 33.7045C31.8493 32.938 32.0725 32.0938 32.1066 31.2315C32.149 30.6683 32.149 30.1026 32.1066 29.5393C32.0729 28.677 31.8498 27.8327 31.453 27.0663C31.2303 26.6391 30.9021 26.276 30.4996 26.0114C30.0971 25.7467 29.6336 25.5894 29.1532 25.5542C28.4953 25.4713 27.8277 25.5133 27.1853 25.6779ZM17.0001 64.2179L17.0001 72.3117C17.0001 73.6234 17.5212 74.8815 18.4488 75.809C19.3763 76.7366 20.6343 77.2577 21.9461 77.2577L30.0364 77.2577C30.6889 77.2623 31.3358 77.1379 31.94 76.8914C32.5441 76.6449 33.0936 76.2813 33.5566 75.8216C34.0196 75.3618 34.3871 74.815 34.6379 74.2126C34.8886 73.6102 35.0177 72.9642 35.0177 72.3117L35.0177 64.2179C35.0219 63.5627 34.896 62.9132 34.6471 62.3072C34.3982 61.7011 34.0314 61.1505 33.5679 60.6874C33.1045 60.2242 32.5536 59.8578 31.9474 59.6094C31.3411 59.3609 30.6915 59.2354 30.0364 59.2401L21.9461 59.2401C21.2939 59.2401 20.6481 59.369 20.046 59.6196C19.4438 59.8701 18.8972 60.2373 18.4375 60.7C17.9778 61.1626 17.6141 61.7116 17.3674 62.3154C17.1207 62.9191 16.9959 63.5657 17.0001 64.2179ZM29.5736 69.0084C29.8518 69.0088 30.1245 69.0867 30.361 69.2333C30.5975 69.38 30.7885 69.5896 30.9125 69.8387L32.0006 72.0078L28.7999 72.0079C28.5215 72.0079 28.2487 71.9302 28.0121 71.7835C27.7755 71.6368 27.5846 71.427 27.4609 71.1776L26.3763 69.0084L29.5736 69.0084ZM27.3231 64.5076C27.6006 64.5094 27.8722 64.5879 28.1079 64.7344C28.3436 64.8809 28.5341 65.0898 28.6586 65.3378L29.7502 67.507L22.4266 67.507C22.1481 67.5076 21.8749 67.4306 21.6378 67.2845C21.4006 67.1385 21.2089 66.9293 21.0841 66.6803L19.9995 64.5076L27.3231 64.5076Z" fill="#D6D6D6"/>
</g>
<defs>
<clipPath id="clip0_1040_4040">
<rect width="74.9921" height="17.9999" fill="white" transform="translate(17 77.2578) rotate(-90)"/>
</clipPath>
</defs>
</svg>
