<svg width="48" height="74" viewBox="0 0 48 74" fill="none" xmlns="http://www.w3.org/2000/svg">
<path d="M14.8418 26.2854V25.2409C14.9724 25.1538 15.3815 24.9275 15.9734 24.7186C16.7132 24.4575 17.8448 24.1093 19.194 23.8917C20.5431 23.6741 22.0229 23.5 24.3295 23.5C26.6362 23.5 27.6807 23.6306 29.5522 23.8917C31.0493 24.1006 32.7873 24.9362 33.4691 25.3279V26.2854L32.5116 25.7631C31.9894 25.5745 30.6663 25.1364 29.5522 24.8927C28.1595 24.588 25.4176 24.4575 24.3295 24.4575C23.2415 24.4575 21.5006 24.5445 19.194 24.8492C17.3486 25.0929 15.5236 25.9082 14.8418 26.2854Z" fill="#D6D6D6"/>
<path d="M37.7324 68.371V67.457H42.1716V68.371H40.6919V73.7242H39.2557V68.371H37.7324Z" fill="#D6D6D6"/>
<path fill-rule="evenodd" clip-rule="evenodd" d="M25.8945 67.4609V73.7281H27.2872V70.9427L28.8105 73.7281H30.5078L28.5929 70.638C29.0136 70.522 29.855 70.1332 29.855 69.5065C29.855 69.3977 29.8567 69.2931 29.8583 69.1929C29.8683 68.571 29.8756 68.115 29.4633 67.8526C28.9846 67.548 28.6364 67.4609 27.6354 67.4609H25.8945ZM27.2873 68.0728V70.3359C27.6935 70.2924 28.5059 70.0661 28.5059 69.509C28.5059 68.8126 28.4189 68.0728 27.8966 68.0728H27.2873Z" fill="#D6D6D6"/>
<path d="M17.7564 73.7242L15.4062 67.457H17.1471L18.5833 71.6786L20.1066 67.457H21.0641L18.5833 73.7242H17.7564Z" fill="#D6D6D6"/>
<path d="M13.2734 73.7242V67.457H14.6661V73.7242H13.2734Z" fill="#D6D6D6"/>
<path d="M35.4707 73.7242V67.457H36.8634V73.7242H35.4707Z" fill="#D6D6D6"/>
<path d="M6.57227 67.457V73.7242H7.39918V69.5026L11.0985 73.7242H11.8384V67.457H11.0985V71.5481L7.52974 67.457H6.57227Z" fill="#D6D6D6"/>
<path d="M0.0429688 71.9833V67.457H1.43567V71.8092C1.43567 72.6361 2.13374 73.0866 3.13301 73.0278C3.87288 72.9843 4.39514 72.2879 4.39514 71.7657V67.457H5.26558V70.8953C5.26558 71.8527 5.17854 72.3315 4.61275 73.0278C4.05704 73.7118 3.87288 73.6806 1.6968 73.6806C0.443369 73.6806 0.0719833 72.5491 0.0429688 71.9833Z" fill="#D6D6D6"/>
<path d="M24.0675 38.4727L0 43.6082V48.3521L24.0675 43.6082L47.8739 48.3521V43.6082L24.0675 38.4727Z" fill="#D6D6D6"/>
<path d="M24.0675 44.3047L0 48.918V49.8755L24.0675 45.2622L47.8739 49.8755V48.918L24.0675 44.3047Z" fill="#D6D6D6"/>
<path d="M0 50.5737L23.9805 46.0039L47.9175 50.5737H0Z" fill="#D6D6D6"/>
<path d="M0 66.1504V51.7012H2.74187V58.0989L7.26813 51.7012H9.22661L4.65683 57.7507L9.35718 66.1504H6.61531L2.74187 59.7092V66.1504H0Z" fill="#D6D6D6"/>
<path d="M11.0117 66.1504V51.7012H13.6665V66.1504H11.0117Z" fill="#D6D6D6"/>
<path d="M17.1033 51.7012L15.2754 66.1504H17.1033L17.7561 57.0108L21.499 66.1504H22.1954L25.9817 56.7062L26.5475 66.1504H29.6811L28.1578 51.7012H26.5475L22.5 61.45L18.6266 51.7012H17.1033Z" fill="#D6D6D6"/>
<path d="M31.3789 66.1504V51.7012H38.0813V53.6597L37.0803 53.4856L35.9922 53.442H34.0773V57.7942H36.9497L37.5155 57.7507L38.0813 57.6201V59.5351L37.5155 59.4045L36.9932 59.361H34.0773V64.453H35.9922L37.2108 64.366L38.0813 64.2354V66.1504H31.3789Z" fill="#D6D6D6"/>
<path fill-rule="evenodd" clip-rule="evenodd" d="M39.7363 66.1523H42.5217V59.9723C43.7984 59.9578 46.3781 59.5638 47.0915 58.449C47.6737 57.5393 47.7648 57.0454 47.859 56.5349C47.8774 56.4348 47.896 56.334 47.9184 56.2294C48.0474 55.6277 48.0065 55.2806 47.9216 54.5594L47.9184 54.532C47.8217 53.7097 47.2656 52.3995 46.047 52.0948C44.9559 51.822 44.6066 51.8325 44.57 51.8336C44.5687 51.8337 44.5678 51.8337 44.5672 51.8337C43.9434 51.7902 42.5565 51.7031 41.9995 51.7031H39.7363V66.1523ZM42.5217 53.0101V58.6244C43.3776 58.6824 45.0895 58.2936 45.0895 56.2742C45.0895 53.7499 44.6107 53.0101 42.5217 53.0101Z" fill="#D6D6D6"/>
<path d="M21.6309 73.7242V67.457H25.0256V68.2404H23.0236V69.9813H24.9385V70.7647H23.0236V72.7667H25.0256V73.7242H21.6309Z" fill="#D6D6D6"/>
<path d="M34.2521 67.8517L33.9039 68.8092C33.8314 68.6931 33.6689 68.4262 33.5993 68.2869C33.5122 68.1128 33.077 67.9822 32.7724 67.9822C32.4677 67.9822 32.2501 68.0693 31.989 68.548C31.7801 68.931 32.1341 69.2879 32.3372 69.4185C32.6853 69.6216 33.4861 70.0974 33.9039 70.3759C34.4262 70.7241 34.5132 71.0699 34.5132 71.464C34.5132 71.8992 34.4511 72.2909 34.3392 72.552C34.2086 72.8567 33.843 73.2136 33.5993 73.4225C33.2946 73.6836 32.6418 73.7271 31.989 73.7271C31.4667 73.7271 31.017 73.524 30.8574 73.4225L31.1621 72.1168L31.5102 72.7261C31.6843 73.0308 32.3372 73.1178 32.6418 73.0743C32.9465 73.0308 33.2993 72.9521 33.3817 72.3344C33.4687 71.6816 33.1206 71.5199 32.6418 71.2464C32.2356 71.0143 31.371 70.5848 31.1621 70.3759C30.9009 70.1148 30.8574 69.6361 30.8574 68.9832C30.8574 68.3304 31.2056 67.9822 31.3362 67.8517C31.4667 67.7211 32.0325 67.5035 32.9029 67.46C33.5993 67.4252 34.0925 67.7066 34.2521 67.8517Z" fill="#D6D6D6"/>
<path d="M44.218 71.0693L42.4336 67.457H44.0874L45.2625 70.0683L46.5246 67.457H47.5256L45.6542 70.8082V73.6806H44.218V71.0693Z" fill="#D6D6D6"/>
<path d="M16.5379 39.3864L13.709 39.9521V32.0312L14.1007 31.8571C13.9701 31.9006 14.1703 31.8223 16.0156 31.1607C18.3223 30.3338 23.0662 30.1597 27.3313 30.2468C30.7434 30.3164 33.4824 31.5524 34.4253 32.1617V39.9957L31.5529 39.2993V35.2083C31.5384 34.8601 31.4833 34.0506 31.3788 33.598C31.2744 33.1453 30.9291 32.9451 30.7695 32.9016C30.639 32.8581 30.2647 32.771 29.812 32.771C29.3594 32.771 28.8546 33.2498 28.8546 33.8156V38.8206L25.721 38.1242V33.598C25.721 32.8581 25.1987 32.4664 25.1117 32.4229C25.0246 32.3794 24.5024 32.0312 23.6319 32.1617C22.9356 32.2662 22.5439 32.771 22.5004 33.2933V38.1242L19.2798 38.8206V33.598C19.2798 33.2498 18.9026 32.9887 18.714 32.9016C18.5109 32.8581 17.9648 32.7671 17.5389 32.9016C16.712 33.1627 16.5814 33.8156 16.5814 34.3378L16.5379 39.3864Z" fill="#D6D6D6"/>
<path d="M18.4965 29.6836C16.6511 29.8577 14.2458 30.9457 13.2738 31.468L12.9257 31.0763C12.7371 30.8442 12.2554 30.1972 11.8376 29.466C11.4198 28.7348 12.2556 27.9738 12.7951 27.6816C13.8396 27.1158 15.7274 26.4843 16.8862 26.1583C18.2788 25.7667 20.8902 25.5055 21.7171 25.4185C22.7616 25.3085 25.0247 25.2879 26.635 25.4185C28.2453 25.549 30.4649 25.9843 32.1623 26.376C33.8596 26.7677 35.5817 27.7341 36.0793 28.1168C36.645 28.5521 36.3839 29.4225 36.2533 29.7271C36.094 30.0989 35.3394 31.0328 34.9477 31.468C34.7156 31.3519 34.0163 31.0067 33.0763 30.554C31.9012 29.9883 28.9852 29.5095 26.635 29.3354C24.2849 29.1614 20.8031 29.466 18.4965 29.6836Z" fill="#D6D6D6"/>
<path d="M15.8848 22.0202V24.0222C16.7987 23.7466 18.9748 23.1518 20.3675 22.9777C22.1084 22.7601 23.4576 22.7601 24.6762 22.8036C25.651 22.8384 27.7227 23.0212 28.6366 23.1083C28.8252 23.1228 29.4374 23.204 30.3775 23.4129C31.3176 23.6218 32.0749 23.9352 32.336 24.0658V21.9767C31.8863 21.8316 30.7257 21.4669 30.3775 21.3674C29.8553 21.2182 29.333 21.1498 28.6366 21.0628C27.8968 21.0047 26.0689 20.8887 24.6762 20.8887C22.9353 20.8887 22.5871 20.8887 20.3675 20.9757C18.5918 21.0454 16.6391 21.7011 15.8848 22.0202Z" fill="#D6D6D6"/>
<path fill-rule="evenodd" clip-rule="evenodd" d="M21.1074 20.2811H27.1134L24.3716 0L21.1074 20.2811ZM22.0213 20.2365L23.6316 6.65773L22.5436 17.8428L22.326 20.2365H22.0213Z" fill="#D6D6D6"/>
</svg>
