<svg width="48" height="49" viewBox="0 0 48 49" fill="none" xmlns="http://www.w3.org/2000/svg">
<path d="M0 16.6C0 10.9051 0 8.05764 1.12587 5.89026C2.07462 4.06382 3.56382 2.57462 5.39026 1.62587C7.55764 0.5 10.4051 0.5 16.1 0.5H31.9C37.5949 0.5 40.4424 0.5 42.6097 1.62587C44.4362 2.57462 45.9254 4.06382 46.8741 5.89026C48 8.05764 48 10.9051 48 16.6V32.4C48 38.0949 48 40.9424 46.8741 43.1097C45.9254 44.9362 44.4362 46.4254 42.6097 47.3741C40.4424 48.5 37.5949 48.5 31.9 48.5H16.1C10.4051 48.5 7.55764 48.5 5.39026 47.3741C3.56382 46.4254 2.07462 44.9362 1.12587 43.1097C0 40.9424 0 38.0949 0 32.4V16.6Z" fill="#BEBEB6" fill-opacity="0.4"/>
<path d="M10.7734 15.4061C13.0731 15.4061 14.9374 13.5418 14.9374 11.2421C14.9374 8.94241 13.0731 7.07812 10.7734 7.07812C8.47366 7.07812 6.60938 8.94241 6.60938 11.2421C6.60938 13.5418 8.47366 15.4061 10.7734 15.4061Z" fill="white"/>
<path d="M18.7509 18.4834H25.6519V21.6448C25.6519 21.6448 27.5246 17.8994 32.62 17.8994C37.1653 17.8994 40.9305 20.1385 40.9305 26.9635V41.3555H33.779V28.7074C33.779 24.6814 31.6296 24.2385 29.9917 24.2385C26.5925 24.2385 26.0106 27.1705 26.0106 29.2326V41.3555H18.7509V18.4834Z" fill="white"/>
<path d="M7.14351 18.4834H14.4032V41.3555H7.14351V18.4834Z" fill="white"/>
</svg>
