<svg width="52" height="53" viewBox="0 0 52 53" fill="none" xmlns="http://www.w3.org/2000/svg">
<path d="M37.6336 0.500295H14.2747C10.4889 0.500295 6.85816 2.0042 4.18121 4.68115C1.50426 7.35811 0.000364176 10.9888 0.000364176 14.7746V38.1234C-0.0130868 40.0065 0.3462 41.8736 1.05753 43.6173C1.76885 45.3609 2.81816 46.9465 4.14499 48.2829C5.47183 49.6192 7.04996 50.6797 8.78848 51.4035C10.527 52.1272 12.3915 52.4997 14.2747 52.4997H37.6336C39.5244 52.5119 41.3988 52.1483 43.148 51.43C44.8971 50.7117 46.4861 49.6531 47.8227 48.3156C49.1593 46.978 50.2168 45.3883 50.9339 43.6386C51.6509 41.8889 52.0132 40.0142 51.9996 38.1234V14.7746C51.9997 12.8924 51.6274 11.0287 50.9044 9.29081C50.1813 7.55296 49.1216 5.97527 47.7864 4.64857C46.4512 3.32187 44.8667 2.27235 43.1243 1.56041C41.3818 0.84848 39.5158 0.488195 37.6336 0.500295ZM23.8079 36.7877C23.8068 37.5908 23.5821 38.3778 23.1589 39.0603C22.7357 39.7428 22.1307 40.294 21.4118 40.652L15.1515 43.7923V34.5548C15.1514 33.7515 15.3756 32.964 15.799 32.2813C16.2223 31.5985 16.8279 31.0476 17.5476 30.6905L23.8079 27.5604V36.7877ZM36.7975 30.2929C36.7923 31.0938 36.5657 31.8776 36.1428 32.5577C35.72 33.2379 35.1173 33.7879 34.4015 34.147L28.1411 37.2975V16.1613C28.1393 15.3575 28.3616 14.5692 28.7831 13.8848C29.2045 13.2004 29.8084 12.647 30.527 12.2868L36.7975 9.15667V30.2929Z" fill="#FF6700"/>
</svg>
