<svg width="50" height="54" viewBox="0 0 50 54" fill="none" xmlns="http://www.w3.org/2000/svg">
<path d="M5.21295 16.9531V23.7905L3.41727 23.0308L1 28.2107L4.24604 33.3905L6.17986 32.838L7.90648 37.6726L5.6964 38.5704L7.42302 45.8913H14.3295L14.9511 44.9934L18.6806 46.5819L18.059 48.3085L24.9655 52.7977L31.7338 48.3085L31.1122 46.5819L35.0489 44.9934L35.5324 45.8913H42.4389L44.4417 38.5704L42.4389 37.6726L43.8892 32.838L45.754 33.3905L49 28.2107L46.5827 23.0308L44.4417 23.7905V16.9531M6.59424 16.9531V25.6553L4.17698 24.8956L2.51942 28.2797L4.79856 31.733L7.0777 31.1805L9.4259 38.4323L7.0777 39.3992L8.45899 44.579H13.5698L14.3986 43.1977L20.4072 45.8222L19.7165 47.6869L24.9655 51.0711L30.1453 47.6869L29.4547 45.8222L35.5324 43.1977L36.3612 44.579H41.3338L42.7151 39.3992L40.3669 38.4323L42.7151 31.1805L44.9942 31.733L47.2734 28.2797L45.754 24.8956L43.1986 25.6553V16.9531" stroke="#D6D6D6" stroke-width="0.375675"/>
<path d="M13.9844 39.1866V34.4902H18.6808V39.1866H13.9844Z" stroke="#D6D6D6" stroke-width="0.375675"/>
<path d="M19.7871 42.6412V40.293H24.4835V44.8512" stroke="#D6D6D6" stroke-width="0.375675"/>
<path d="M19.7871 33.3898V28.6934H24.4835V33.3898H19.7871Z" stroke="#D6D6D6" stroke-width="0.375675"/>
<path d="M13.9844 27.587V22.8906H18.6808V27.587H13.9844Z" stroke="#D6D6D6" stroke-width="0.375675"/>
<path d="M25.5879 27.587V22.8906H30.2843V27.587H25.5879Z" stroke="#D6D6D6" stroke-width="0.375675"/>
<path d="M31.3887 21.7902V17.0938H36.0851V21.7902H31.3887Z" stroke="#D6D6D6" stroke-width="0.375675"/>
<path d="M40.0231 27.587H37.1914V22.8906H40.0921" stroke="#D6D6D6" stroke-width="0.375675"/>
<path d="M10.0473 21.7902H12.8789V17.0938H9.97819" stroke="#D6D6D6" stroke-width="0.375675"/>
<path d="M11.4285 33.3898H12.8789V28.6934H9.97819" stroke="#D6D6D6" stroke-width="0.375675"/>
<path d="M19.7871 21.7902V17.0938H24.4835V21.7902H19.7871Z" stroke="#D6D6D6" stroke-width="0.375675"/>
<path d="M31.3887 33.3898V28.6934H36.0851V33.3898H31.3887Z" stroke="#D6D6D6" stroke-width="0.375675"/>
<path d="M37.1914 39.4629V34.4902H38.1583" stroke="#D6D6D6" stroke-width="0.375675"/>
<path d="M31.3887 42.2268V40.293H36.4995" stroke="#D6D6D6" stroke-width="0.375675"/>
<path d="M25.5879 39.1866V34.4902H30.2843V39.1866H25.5879Z" stroke="#D6D6D6" stroke-width="0.375675"/>
<path d="M13.1561 39.0487L11.6367 34.2832H13.1561V39.0487Z" fill="#D6D6D6"/>
<rect x="13.709" y="16.8125" width="5.38705" height="5.24892" fill="#D6D6D6"/>
<rect x="19.373" y="22.6152" width="5.38705" height="5.24892" fill="#D6D6D6"/>
<path d="M9.91016 22.6152H13.1562V27.8642H9.91016V22.6152Z" fill="#D6D6D6"/>
<path d="M36.9141 16.9512H40.1601V22.2001H36.9141V16.9512Z" fill="#D6D6D6"/>
<rect x="25.1738" y="28.4121" width="5.38705" height="5.24892" fill="#D6D6D6"/>
<rect x="13.5703" y="28.4121" width="5.38705" height="5.24892" fill="#D6D6D6"/>
<rect x="19.5098" y="34.2148" width="5.38705" height="5.24892" fill="#D6D6D6"/>
<path d="M25.3125 40.0176H30.6996V42.4348L25.3125 44.9212V40.0176Z" fill="#D6D6D6"/>
<rect x="31.1133" y="34.2148" width="5.38705" height="5.24892" fill="#D6D6D6"/>
<rect x="31.1133" y="22.6152" width="5.38705" height="5.24892" fill="#D6D6D6"/>
<path d="M36.9141 28.4121H39.8838L38.5026 33.661H36.9141V28.4121Z" fill="#D6D6D6"/>
<rect x="25.1738" y="16.8125" width="5.38705" height="5.24892" fill="#D6D6D6"/>
<path d="M19.0259 39.9587L19.0259 42.5746L13.7769 39.9586L19.0259 39.9587Z" fill="#D6D6D6"/>
<path d="M9.70117 13.8475H19.6465V12.4662H20.9587V3.34961H23.7904V4.79997H26.2076V3.34961H28.9702V12.4662H30.4206V13.8475H40.1587" stroke="#D6D6D6" stroke-width="0.469593"/>
<path d="M26.2083 3.41727C26.2083 1.96782 25.6898 1 24.9651 1C24.2404 1 23.791 1.96782 23.791 3.41727" stroke="#D6D6D6" stroke-width="0.469593"/>
<rect x="28.9004" y="1.89648" width="1.79568" height="1.79568" fill="#D6D6D6"/>
<rect x="19.3691" y="1.89648" width="1.79568" height="1.79568" fill="#D6D6D6"/>
<rect x="16.4688" y="7.28516" width="1.79568" height="1.79568" fill="#D6D6D6"/>
<rect x="9.70117" y="7.28516" width="1.79568" height="1.79568" fill="#D6D6D6"/>
<rect x="9.70117" y="11.8457" width="1.79568" height="1.79568" fill="#D6D6D6"/>
<path d="M11.3594 13.4991V8.80273H16.7464V13.7063" stroke="#D6D6D6" stroke-width="0.469593"/>
<rect width="1.79568" height="1.79568" transform="matrix(-1 0 0 1 33.4609 7.28516)" fill="#D6D6D6"/>
<rect width="1.79568" height="1.79568" transform="matrix(-1 0 0 1 40.2285 7.28516)" fill="#D6D6D6"/>
<rect width="1.79568" height="1.79568" transform="matrix(-1 0 0 1 40.2285 11.8457)" fill="#D6D6D6"/>
<path d="M38.5703 13.4991V8.80273H33.1833V13.7063" stroke="#D6D6D6" stroke-width="0.469593"/>
</svg>
