<svg width="48" height="72" viewBox="0 0 48 72" fill="none" xmlns="http://www.w3.org/2000/svg">
<path d="M30.1902 27.3013C30.4618 27.474 30.7477 27.6453 31.03 27.8117C31.0335 27.8129 31.0365 27.8156 31.0405 27.8169H38.507L47.3118 36.617V61.6507L37.1855 71.3973H10.5546L0.429982 61.6363L0.435144 48.2787H13.8303C13.8382 48.241 13.8418 48.2053 13.8523 48.1686C13.8992 48.0127 13.9796 47.8813 14.0745 47.7622H0.0051614L0 61.9175L10.4597 72H37.5393L48 61.9325V36.4304L38.8693 27.3013H30.1902Z" fill="white"/>
<path d="M37.541 0.151268H10.4617L0.00195312 10.2029V36.8073L9.13123 45.9473H13.1581C13.1436 45.7156 13.2111 45.5042 13.2713 45.3442H9.23388L0.430744 36.5323V10.398L10.5579 0.668106H37.1863L47.3125 10.4133V25.003L33.9941 24.9962C34.0422 25.2406 34.019 25.4435 33.9773 25.5994H48.0008V10.2186L37.541 0.151268Z" fill="white"/>
<path d="M21.2483 44.1368H9.73347L1.63867 36.0317V10.9134L11.0445 1.87562H36.6973L46.1043 10.9281V23.7945H25.5727V29.0243H38.0075L46.1043 37.117V61.1358L36.6973 70.1875H11.0433L1.63867 61.1207L1.64384 49.4918H14.9004H21.2203L21.2483 44.1368Z" fill="white"/>
<path d="M21.0272 45.3423H9.23283L0.429688 36.5304V10.3961L10.5569 0.666206H37.1852L47.3115 10.4114V25.0011H25.5723V27.8141H38.5067L47.3115 36.6142V61.6479L37.1852 71.3945H10.5543L0.429688 61.6336L0.434849 48.276H21.2265L21.0272 45.3423Z" fill="white"/>
<path d="M27.5345 37.3002C27.8879 37.6973 29.8495 38.98 30.5354 39.2957C32.0273 39.9768 32.8015 41.0809 33.263 42.484C33.7007 43.8095 33.2253 43.5187 32.8696 43.3549C32.5146 43.1911 32.4134 42.8354 31.532 42.8531C30.6492 42.8741 30.1509 42.8106 29.522 42.324C29.3588 42.1981 29.2239 42.0526 29.1087 41.9306C29.1012 41.928 29.0972 41.9242 29.0883 41.9177C28.4853 41.4664 28.6049 42.9704 28.7286 43.2169C29.1637 44.0801 29.4601 43.7275 31.9752 45.0427C33.1707 45.6686 33.4516 46.5099 33.5777 46.8617C33.7788 47.4334 33.9876 47.5958 32.1589 47.3451C31.5737 47.2656 30.5202 46.8994 30.0213 46.5679C29.5375 46.2419 28.5711 46.5057 28.6585 47.2154C29.1087 48.2989 30.268 48.9784 31.3761 49.1148C32.3435 49.2339 32.7822 49.4423 32.9579 49.6554C33.4903 50.2489 32.5077 51.116 32.5077 51.116C32.017 51.6731 32.547 52.3317 32.9097 52.5253C33.4993 52.8191 34.6413 53.4908 35.0248 54.459C37.0066 59.4733 35.0883 58.0388 34.1464 57.4619C33.2045 56.8847 31.4089 55.4119 29.7717 55.5415C28.1344 55.669 27.5885 55.7533 26.6193 54.9972C25.6476 54.2404 25.7449 55.4657 25.7449 55.4657C25.7449 55.4657 25.7449 56.9537 25.7449 61.5142C25.8034 62.8707 26.0569 64.161 27.1534 65.2582C28.0526 66.1573 28.7359 65.988 30.0054 67.506C30.59 68.2057 32.4974 68.9609 33.7722 68.9752L36.211 68.9766L44.8959 60.6193V37.6155L37.5062 30.2285L32.6963 30.2274C33.1032 30.8862 33.3375 31.7466 33.5082 33.0042C33.5137 33.7603 32.4944 33.3925 32.1652 33.1966C31.9336 33.0403 31.6328 32.895 31.2358 32.8055C30.4967 32.63 28.7269 31.8699 28.2452 31.6981C27.7523 31.5231 27.3939 31.8802 27.337 32.014L27.3379 32.0154C27.2149 32.244 27.4719 32.7078 27.4719 32.7078C28.1681 34.2516 29.4442 34.1708 30.8517 35.1559C32.7806 36.5097 31.747 36.793 31.3509 36.5891C30.9563 36.3851 30.3097 36.5121 30.3097 36.5121C28.7504 36.932 28.2823 36.2979 27.3707 36.0591C26.4595 35.8185 27.2069 36.9296 27.5345 37.3002Z" fill="#D6D6D6"/>
<path d="M18.7228 65.6123C19.3245 64.6803 20.3862 63.889 21.0603 63.2153C21.7726 62.5048 21.9001 60.8877 21.9219 59.1292C21.9219 56.4195 21.9219 55.4667 21.9219 55.4667L21.9271 55.5044C21.9271 55.1385 21.9271 54.8473 21.9271 54.6287L21.9284 54.6277V54.0437C21.9299 54.0209 21.9299 53.9691 21.9284 53.9066V52.3275C21.9284 51.9627 21.4971 51.9337 20.5527 52.9334C19.6066 53.9316 18.0161 53.8517 17.096 53.9316C16.1801 54.0133 13.5347 55.3631 12.7784 56.3332C12.3094 56.9381 11.6454 56.4413 11.9158 55.2553H11.9094C12.0367 54.7171 12.2719 54 12.6487 53.0488C13.1738 51.7239 15.1277 50.9506 15.1277 50.9506C15.1277 50.9506 15.329 50.8623 15.5059 50.6906H13.8491C13.8491 50.692 13.848 50.692 13.848 50.692H2.85163L2.84766 60.604L11.5297 68.9635L14.3224 68.9648C16.9469 68.8374 17.9278 66.8443 18.7228 65.6123Z" fill="#D6D6D6"/>
<path d="M11.5297 3.08289L2.84766 11.427V35.5326L10.2356 42.9297H17.1743C18.3646 42.4201 18.6141 42.4622 18.9426 41.8101C18.992 41.7108 19.0401 41.4127 19.0426 41.1173C19.0583 41.0339 19.209 40.1539 18.7725 40.3705C18.0302 40.7367 16.5348 39.7739 15.4122 40.3425C14.291 40.9118 15.1109 39.5942 15.2693 39.366C15.2693 39.366 15.8698 38.5892 16.7741 38.0764C16.808 38.0588 16.8362 38.0387 16.8624 38.021C16.9509 37.9744 17.0416 37.9297 17.1353 37.8874C17.8212 37.5728 19.7845 36.2904 20.1369 35.8912C20.3461 35.6577 20.7187 35.1273 20.737 34.8311C20.7981 34.5764 20.8464 34.1709 20.5966 34.0112C20.2224 33.7709 19.9237 34.2461 19.3379 34.501C18.7516 34.7556 18.3125 34.8611 17.7902 34.878C17.2898 34.8946 16.8104 34.7076 16.5102 34.7529C16.2075 34.8001 16.032 34.5764 16.5844 34.0331C16.8338 33.7863 16.9404 33.6769 17.0573 33.5928C18.3685 32.769 19.5431 32.757 20.199 31.3007C20.199 31.3007 20.7124 29.9871 19.7262 30.5459C19.183 30.8551 18.8894 31.3007 17.3404 31.3007C15.7944 31.3007 15.1913 32.0142 14.929 32.3287C14.929 32.3287 13.8803 33.7709 14.1415 31.7515C14.4051 29.7325 14.8018 28.7073 15.7709 27.9238C16.6051 27.2481 18.6802 26.341 19.4274 25.3443C19.8133 24.9689 20.7761 23.8908 20.2145 22.972C19.981 22.5887 19.4042 23.5864 18.8088 23.7137H18.8074C18.1333 23.892 17.2691 24.1088 16.6103 23.9787C15.7944 23.8166 15.2732 24.1216 14.9691 24.2594C14.6666 24.3946 14.0883 23.9646 14.7925 23.1757C15.736 22.1194 18.0161 20.7397 19.5523 19.9159C19.7627 19.8315 20.2772 19.6089 20.7487 19.3152C20.7578 19.3101 20.7683 19.3061 20.7761 19.3025C20.893 19.2517 21.0644 19.148 21.1632 19.022C21.4997 18.7476 21.7272 18.437 21.6491 18.1255C21.5777 17.8369 21.4385 17.7434 20.9867 17.6966C20.6254 17.6605 20.034 18.0706 19.5326 18.0315C18.7633 17.9705 17.6396 18.1433 18.0126 17.6092C18.3594 17.1106 18.9283 16.792 19.0881 16.7066C19.4053 16.5638 19.825 16.3829 20.4499 16.1065C21.4268 15.676 21.2904 14.5829 20.9113 14.5443C20.3199 14.4833 18.7308 14.9823 19.8496 13.7281C19.8496 13.7281 20.3838 13.2031 20.9152 12.8626C21.3389 12.6223 21.687 12.5287 22.1042 12.3809C22.3691 12.2884 23.0473 11.6933 21.4296 11.6323C21.4296 11.6323 20.5214 11.6546 20.6981 11.2476C20.8386 10.9757 21.6321 10.4848 21.6321 10.4848C21.6321 10.4848 22.2741 10.0559 22.5329 9.7977C22.7835 9.56443 22.959 9.37386 22.9472 9.16245C22.9357 8.92004 22.3001 8.62275 22.0299 8.28581C21.8364 8.0434 21.9999 7.95853 22.1093 7.92753C22.1663 7.91737 22.2338 7.90924 22.3197 7.90974C22.9746 7.91127 23.1644 7.26891 23.5448 5.59084C23.6607 5.08569 23.6685 4.97897 23.836 4.97744C23.8372 4.97744 23.8372 4.97744 23.8372 4.97744C23.8503 4.97744 23.8608 4.9805 23.8711 4.9805C23.8711 4.9805 24.0347 5.83274 24.2711 6.78104C24.4687 7.30347 24.6936 7.52605 25.0783 7.52504C25.1615 7.52504 25.229 7.53164 25.2875 7.54486C25.3937 7.57331 25.5615 7.65818 25.3667 7.90161C25.2187 8.08609 24.7754 8.38897 24.7444 8.57396C24.6128 9.09689 25.1182 9.2834 25.6357 9.31999C26.3672 9.36979 26.0619 9.81548 25.2744 10.3913C24.5103 10.9488 26.4605 12.1339 26.4605 12.1339C27.5726 12.977 26.7792 13.197 26.5529 13.3149C26.3269 13.4318 25.7032 13.8074 26.3309 14.0472C26.9588 14.2841 27.8234 15.1378 27.8234 15.1378C28.9414 16.391 27.3523 15.893 26.7623 15.954C26.3831 15.9931 26.2465 17.0857 27.2232 17.5177C28.7121 18.1758 29.0412 18.2881 29.5697 18.6723C30.5509 19.3879 30.0302 19.9942 28.8034 19.7807C28.8034 19.7807 28.0159 19.5866 27.464 19.6923C27.122 19.7584 26.8828 19.8351 26.7216 19.9159C26.6376 20.0419 26.4411 20.5395 28.1509 21.0568C28.9698 21.3035 29.9806 21.909 30.8799 22.6004L44.897 22.5847V11.4412L36.212 3.08289H11.5297Z" fill="#D6D6D6"/>
<path d="M46.1039 23.7926L32.2257 23.7912C32.5171 24.0929 32.7604 24.3825 32.9251 24.6398C33.5475 25.3882 33.0069 25.7936 32.7097 25.6691C32.7097 25.6691 32.4798 25.5597 32.3315 25.5025C32.1926 25.4583 31.5974 25.392 31.5127 25.3934C30.7762 25.3702 28.788 25.2415 27.5811 24.5566C27.1056 24.2877 27.0574 24.936 27.2664 25.448C27.3786 25.7235 27.8018 26.3302 28.3696 26.9071C28.5125 27.0657 28.6862 27.2243 28.8817 27.3773C29.1087 27.5711 29.3509 27.7466 29.5964 27.8868C29.599 27.8881 29.6 27.8881 29.6014 27.8907C30.2416 28.3026 30.9449 28.6848 31.466 29.0238L38.0071 29.0224L46.1039 37.115V61.1339L36.6968 70.1856H11.0429L1.63824 61.1188L1.64341 49.4835H14.2354C14.2354 49.4849 14.2366 49.4849 14.238 49.4859H15.4749C15.332 49.3198 15.1305 49.1415 14.8498 48.9503C14.8498 48.9503 13.752 48.0204 16.2948 47.7058C17.4033 47.5692 18.561 46.8897 19.013 45.8064C19.0988 45.0967 18.1322 44.8313 17.6488 45.1592C17.1525 45.4908 16.0962 45.8564 15.5126 45.9364C13.6833 46.187 13.891 46.0242 14.0938 45.4525C14.1873 45.189 14.368 44.6527 14.954 44.1365L9.73305 44.1349L1.63824 36.0298V10.9115L11.044 1.87368H36.6968L46.1039 10.9262V23.7926ZM47.3115 10.4114L37.1852 0.666206H10.5569L0.429688 10.3961V36.5304L9.23283 45.3423H13.2702C13.1711 45.6075 13.0425 46.0178 13.322 46.4194C13.6275 46.8611 14.1548 46.8611 14.3523 46.8611C14.5927 46.8611 14.9212 46.8327 15.4294 46.7668L15.4308 46.7678C15.4308 46.7678 15.6427 46.9479 14.9981 47.1547V47.1563C14.4694 47.3409 14.0079 47.6437 13.852 48.1658C13.8415 48.2025 13.838 48.2382 13.83 48.276H0.434849L0.429688 61.6336L10.5543 71.3945H37.1852L47.3115 61.6479V36.6142L38.5067 27.8141H31.0402C31.0362 27.8129 31.0333 27.8101 31.0297 27.8089C30.7007 27.6142 30.3617 27.4152 30.0526 27.2126L29.9408 27.1423L29.9186 27.1348C29.7548 27.0331 29.5781 26.9047 29.384 26.7433C29.2182 26.6109 29.0793 26.4834 28.9761 26.3667L28.9483 26.3381C28.7503 26.1355 28.5816 25.9419 28.446 25.7715C29.6133 26.104 30.8788 26.1848 31.4869 26.2057H31.5633C31.604 26.2057 31.6427 26.2069 31.6778 26.2069L31.7324 26.212C31.8779 26.2238 31.9911 26.2484 32.0639 26.2692C32.142 26.3016 32.2128 26.3342 32.2744 26.3629L32.5916 26.4795C32.6664 26.4952 32.7449 26.5031 32.8239 26.5031C33.2838 26.5031 33.7087 26.2305 33.9048 25.8093C33.9733 25.6637 34.0679 25.3725 33.9931 24.9943L47.3115 25.0011V10.4114Z" fill="#D6D6D6"/>
<path d="M36.2116 69.3281L33.7758 69.3267C32.552 69.3124 30.6558 68.4856 30.085 67.8025C29.3261 66.896 28.7604 66.5753 28.2611 66.2917C27.9143 66.0951 27.5867 65.9095 27.2268 65.5482C26.1052 64.4256 25.9004 63.1186 25.8468 61.8765L25.8462 55.4742C25.838 55.3654 25.8432 55.055 25.9643 54.9233C25.9996 54.8846 26.0427 54.8669 26.0979 54.8669C26.1773 54.8669 26.3212 54.9055 26.5608 55.0927C27.1828 55.5774 27.6453 55.7406 28.3937 55.7406C28.7173 55.7406 29.0885 55.7126 29.557 55.6749L29.7823 55.6576C31.0909 55.5501 32.5049 56.5023 33.5184 57.1842C33.7348 57.3297 33.9283 57.4607 34.0974 57.564L34.2691 57.6706C34.6572 57.9145 35.1412 58.2175 35.4969 58.2175C35.6607 58.2175 35.7904 58.1524 35.8751 58.0289C36.0554 57.7641 36.1729 57.104 35.1203 54.4389C34.7303 53.4541 33.5977 52.7716 32.9589 52.455C32.7402 52.3361 32.4775 52.0481 32.4225 51.7441C32.3863 51.5454 32.4414 51.362 32.5768 51.207C32.6016 51.1861 33.1858 50.6628 33.2166 50.1223C33.2285 49.9271 33.167 49.7526 33.038 49.6081C32.8077 49.3302 32.2691 49.1416 31.3913 49.0324C30.412 48.9119 29.2209 48.3009 28.7584 47.2071C28.7421 47.0496 28.7852 46.9132 28.8844 46.8017C29.0234 46.6443 29.2695 46.545 29.5256 46.545C29.695 46.545 29.8522 46.5881 29.9683 46.6671C30.4984 47.0195 31.5743 47.3833 32.1476 47.4602C32.7372 47.5406 33.0876 47.5759 33.3218 47.5759C33.5684 47.5759 33.7014 47.5352 33.7675 47.4393C33.8509 47.3198 33.7933 47.1654 33.7203 46.9704C33.7054 46.9317 33.6901 46.89 33.6673 46.8245C33.5366 46.4597 33.2319 45.6035 32.024 44.9708C31.0006 44.4354 30.3352 44.1714 29.8939 43.9971C29.2384 43.7376 29.0621 43.6692 28.8195 43.1891C28.7401 43.0294 28.666 42.2512 28.8189 42.0026C28.8522 41.95 28.8795 41.95 28.892 41.95C28.9122 41.95 28.9565 41.9589 29.0369 42.0183L29.0492 42.0264C29.161 42.1453 29.299 42.2925 29.4637 42.4199C30.1361 42.9386 30.6691 42.9886 31.5366 42.9698L31.5987 42.9684C32.147 42.9684 32.3501 43.1256 32.5456 43.2761C32.631 43.3426 32.7188 43.4105 32.8305 43.4605L32.8904 43.4895C33.0231 43.5514 33.1604 43.6165 33.2801 43.6165C33.3878 43.6165 33.4483 43.5643 33.48 43.5207C33.5574 43.4139 33.6037 43.206 33.3605 42.4691C32.8378 40.8814 31.9544 39.8488 30.5798 39.2208C29.9068 38.9117 27.9593 37.6423 27.6115 37.2496C27.2969 36.8942 26.9747 36.3374 27.0458 36.1804C27.0502 36.1714 27.063 36.1417 27.155 36.1417C27.206 36.1417 27.2711 36.1508 27.3479 36.1714C27.5931 36.2362 27.8121 36.3324 28.0229 36.4262C28.4031 36.5951 28.7967 36.7688 29.3639 36.7688C29.6602 36.7688 29.9792 36.7225 30.3316 36.6272C30.3336 36.6259 30.5257 36.5901 30.758 36.5901C30.9853 36.5901 31.1753 36.6249 31.3073 36.6938C31.3956 36.7394 31.5068 36.7638 31.621 36.7638C31.8473 36.7638 32.0196 36.664 32.0712 36.5037C32.1738 36.1778 31.7837 35.7024 30.9113 35.0906C30.414 34.7421 29.9246 34.5228 29.4929 34.3274C28.6611 33.9522 28.004 33.6561 27.5613 32.6762C27.4726 32.515 27.3574 32.2111 27.4283 32.0785L27.4492 32.0396C27.5103 31.9512 27.7039 31.7678 27.9822 31.7678C28.0586 31.7678 28.1366 31.7807 28.2145 31.8095C28.358 31.8601 28.6174 31.9641 28.9291 32.089C29.6721 32.3866 30.6909 32.7945 31.217 32.919C31.5525 32.9956 31.8538 33.1217 32.1162 33.2986C32.3044 33.4103 32.7048 33.5767 33.0419 33.5767C33.2266 33.5767 33.3709 33.5261 33.4697 33.4272C33.5644 33.3309 33.6121 33.1945 33.6101 33.0076C33.438 31.7458 33.1039 30.6115 32.7789 30.1839C32.5738 29.9153 32.0418 29.2562 31.5183 28.9523C31.2672 28.8066 30.3902 28.2936 29.6745 27.8348L29.6483 27.8164C29.4175 27.684 29.1818 27.5164 28.946 27.3161C28.7464 27.1579 28.5787 27.0033 28.4434 26.8524C27.8865 26.2858 27.4706 25.6949 27.3615 25.4259C27.2393 25.1269 27.2139 24.7878 27.3033 24.6552C27.3505 24.588 27.425 24.5969 27.5345 24.6592C28.753 25.3516 30.7223 25.4843 31.5177 25.5102C31.6001 25.5102 32.1774 25.574 32.2985 25.6115C32.4434 25.6688 32.6687 25.7753 32.6737 25.7781C32.8825 25.8638 33.16 25.7467 33.2637 25.5233C33.3331 25.3753 33.3917 25.0568 33.0115 24.602C32.8484 24.3488 32.6096 24.0575 32.2995 23.7367C32.2929 23.73 31.6091 23.0362 30.941 22.5335C30.3783 22.1111 28.9906 21.2186 28.1813 20.9743C27.0938 20.6455 26.8393 20.339 26.7852 20.1871C26.758 20.1088 26.7723 20.0478 26.7937 20.0067C26.9549 19.9299 27.1867 19.8623 27.4845 19.8034C27.5867 19.7841 27.7068 19.7734 27.8412 19.7734C28.3004 19.7734 28.7762 19.8893 28.7882 19.8918C29.5084 20.0178 30.0497 19.8674 30.1629 19.5203C30.2151 19.3618 30.2145 19.0319 29.6305 18.6056C29.1842 18.2803 28.8721 18.1441 27.9435 17.7376C27.7475 17.6517 27.5242 17.5541 27.2652 17.4387C26.6393 17.1633 26.5449 16.6277 26.5876 16.3548C26.613 16.1942 26.6895 16.0758 26.7742 16.0666C26.9072 16.0509 27.0938 16.0692 27.2949 16.0875C27.4537 16.1002 27.6179 16.1149 27.7644 16.1149C27.9669 16.1149 28.2101 16.0925 28.2899 15.9131C28.3703 15.7327 28.2498 15.4781 27.8954 15.0802C27.8597 15.0451 27.0071 14.2097 26.3688 13.9678C26.2398 13.9185 26.1634 13.86 26.1608 13.8082C26.1555 13.7147 26.3361 13.5541 26.6005 13.4169C26.621 13.4067 26.6462 13.395 26.674 13.3823C26.8367 13.3076 27.1097 13.1836 27.1375 12.9255C27.1643 12.6825 26.9638 12.402 26.5142 12.0625C26.1545 11.8435 25.2169 11.1788 25.198 10.7336C25.194 10.6355 25.2367 10.5562 25.3344 10.4856C26.1455 9.89304 26.1842 9.63183 26.1425 9.487C26.0784 9.26339 25.7515 9.24154 25.6449 9.23442C25.2701 9.20749 25.0013 9.10839 24.8885 8.95339C24.823 8.86293 24.8078 8.75113 24.8433 8.60477C24.8576 8.52244 25.0557 8.34609 25.1869 8.22972C25.2897 8.13824 25.387 8.05236 25.447 7.97765C25.545 7.85518 25.5788 7.74337 25.5468 7.64631C25.5172 7.55788 25.4367 7.49385 25.3116 7.46234C25.2466 7.44659 25.1712 7.43846 25.0771 7.43846C24.7464 7.43846 24.554 7.255 24.3702 6.77069C24.1358 5.83611 23.9712 4.98386 23.97 4.97522L23.952 4.89391L23.8376 4.89137C23.6057 4.89341 23.5706 5.04739 23.4781 5.4575L23.4499 5.58252C23.0729 7.24331 22.8903 7.82367 22.311 7.82367C22.2354 7.82367 22.1659 7.83078 22.0829 7.84501C21.9281 7.88974 21.8723 7.97206 21.8529 8.03304C21.8223 8.12909 21.8561 8.24039 21.9541 8.36185C22.0782 8.51786 22.266 8.65812 22.448 8.79381C22.6247 8.92544 22.8449 9.09111 22.8498 9.18157C22.8585 9.34063 22.7214 9.50021 22.4631 9.74109C22.216 9.98909 21.585 10.4114 21.5819 10.4134C21.4981 10.4653 20.7589 10.9282 20.6088 11.2215C20.5516 11.3541 20.5837 11.4502 20.6219 11.5076C20.7628 11.7226 21.2174 11.7459 21.4068 11.7459L21.4279 11.7454C22.2973 11.7785 22.3688 11.9604 22.374 11.997C22.3897 12.0966 22.1971 12.2572 22.073 12.3004C21.9891 12.3309 21.9087 12.3583 21.8296 12.3842C21.513 12.492 21.2148 12.5931 20.8632 12.7928C20.3281 13.1343 19.8038 13.6486 19.7772 13.6756C19.4262 14.0689 19.3059 14.324 19.3865 14.5039C19.4665 14.6828 19.7089 14.7062 19.9108 14.7062C20.0579 14.7062 20.2213 14.6919 20.3807 14.6772C20.5818 14.6594 20.7688 14.6421 20.9018 14.6574C20.9869 14.6655 21.0634 14.7855 21.0888 14.9476C21.1315 15.2195 21.0369 15.7536 20.4106 16.029C20.1145 16.1601 19.8635 16.2694 19.6484 16.3639C19.4105 16.4681 19.2158 16.5535 19.0429 16.6317C18.7689 16.7786 18.2587 17.0972 17.9314 17.5658C17.8385 17.7 17.8162 17.8153 17.8659 17.9114C17.9768 18.1248 18.3953 18.1258 18.9242 18.1289C19.1287 18.1289 19.3399 18.1299 19.527 18.1441C19.8113 18.165 20.1287 18.0532 20.4021 17.953C20.6242 17.8712 20.8363 17.7935 20.9772 17.8092C21.4104 17.8545 21.4973 17.9322 21.5549 18.1624C21.613 18.3977 21.461 18.6655 21.0868 18.973C21.005 19.0787 20.8527 19.1747 20.7386 19.224L20.6985 19.2449C20.2014 19.5539 19.6684 19.7765 19.5066 19.841C17.7845 20.7649 15.6225 22.1125 14.7186 23.1249C14.2839 23.6119 14.3359 23.9471 14.4064 24.1032C14.5096 24.3333 14.7994 24.4579 15.0123 24.3642L15.1115 24.3176C15.3547 24.2031 15.6872 24.0474 16.1539 24.0474C16.2962 24.0474 16.4436 24.0613 16.592 24.0912C16.731 24.1188 16.886 24.133 17.0538 24.133C17.664 24.133 18.3687 23.9471 18.8305 23.8263C19.1255 23.7628 19.3998 23.5195 19.6422 23.3052C19.8038 23.161 19.987 22.9984 20.0783 22.9984C20.0882 22.9984 20.1065 22.9984 20.1305 23.0389C20.6481 23.8836 19.7643 24.8919 19.3496 25.2986C18.8863 25.9156 17.8878 26.5056 17.0063 27.0251C16.4993 27.3253 16.0203 27.6087 15.71 27.8597C14.7544 28.6327 14.318 29.6513 14.0439 31.7537C13.9663 32.3501 13.9929 32.6994 14.1275 32.8527C14.1791 32.9113 14.2458 32.9414 14.322 32.9414C14.6045 32.9414 14.9462 32.4916 15.0079 32.4059C15.2544 32.1099 15.8321 31.4143 17.3428 31.4143C18.6266 31.4143 19.0846 31.1042 19.4893 30.8312C19.5828 30.7677 19.6751 30.705 19.7766 30.6478C20.13 30.4477 20.178 30.5203 20.2022 30.5569C20.2844 30.6778 20.1966 31.0508 20.1105 31.2729C19.6724 32.246 19.0149 32.5424 18.1833 32.9178C17.8067 33.088 17.4177 33.2634 17.0012 33.5261C16.8848 33.6091 16.7836 33.7103 16.5621 33.9314L16.5166 33.9753C16.2 34.2874 16.0753 34.5341 16.1473 34.7096C16.198 34.8345 16.3449 34.894 16.5275 34.8656C16.6639 34.8448 16.8463 34.8799 17.0484 34.9149C17.2539 34.9514 17.4863 34.9929 17.7263 34.9929L17.7944 34.9915C18.3362 34.9746 18.7807 34.8656 19.3794 34.607C19.5951 34.5123 19.7701 34.3926 19.9249 34.286C20.1826 34.1093 20.357 33.9898 20.5445 34.1093C20.7464 34.2381 20.6919 34.6109 20.6385 34.8396C20.6242 35.0854 20.2904 35.5867 20.0645 35.8388C19.7156 36.2322 17.7671 37.5033 17.0947 37.81C16.9992 37.8541 16.9081 37.8993 16.7997 37.9579C16.7783 37.9722 16.7554 37.988 16.727 38.0035C15.8154 38.5191 15.2177 39.2863 15.1897 39.3221C15.1659 39.3574 14.6039 40.1668 14.7641 40.4761C14.7881 40.5215 14.8493 40.5979 14.9896 40.5979C15.1042 40.5979 15.258 40.5479 15.4595 40.4447C15.69 40.3281 15.9546 40.2726 16.268 40.2726C16.647 40.2726 17.0347 40.353 17.4103 40.4322C17.9757 40.5505 18.496 40.6309 18.8176 40.4735C18.9 40.4322 18.9099 40.4423 18.9287 40.4655C19.0074 40.5608 18.9865 40.9007 18.9448 41.1309C18.9423 41.4349 18.8902 41.7082 18.8561 41.7791C18.6141 42.2591 18.4382 42.3276 17.7825 42.5876C17.6033 42.6591 17.3914 42.7421 17.1358 42.8527C17.0655 42.884 15.4081 43.6322 14.8921 44.0765C14.3804 44.5172 14.1147 45.1173 14.0014 45.4359L13.9559 45.5588C13.8827 45.7539 13.8242 45.9088 13.9081 46.0293C13.9744 46.1257 14.1076 46.1658 14.355 46.1658C14.5894 46.1658 14.9404 46.1305 15.5296 46.0501C16.1047 45.9723 17.1816 45.6087 17.7079 45.2561C17.8236 45.1783 17.9809 45.1356 18.1498 45.1356C18.4065 45.1356 18.652 45.2335 18.791 45.3907C18.891 45.5034 18.9339 45.6398 18.9176 45.7972C18.4551 46.8908 17.2642 47.5019 16.2857 47.6226C15.2229 47.754 14.6511 48.0031 14.5368 48.3852C14.4322 48.7363 14.7727 49.03 14.7963 49.0493C15.0801 49.2412 15.2709 49.4285 15.4061 49.5704C15.5548 49.7278 15.7061 49.9833 15.6848 50.2314C15.6719 50.3847 15.5895 50.6408 15.0928 50.8736C14.5968 51.1047 15.0928 50.8736 15.0936 50.8736C15.0119 50.9064 13.0914 51.6774 12.5566 53.0283C12.1989 53.9349 11.9484 54.6819 11.8134 55.2475L11.79 55.3706H11.7943C11.707 55.8528 11.7654 56.2619 11.9597 56.5049C12.1902 56.7935 12.5884 56.758 12.858 56.4104C13.6058 55.4508 16.2518 54.1235 17.1068 54.0461C17.2434 54.0346 17.394 54.0259 17.5558 54.0183C18.5007 53.9659 19.7945 53.8958 20.6262 53.0176C21.3345 52.269 21.6506 52.2106 21.7311 52.2106C21.7661 52.2106 21.8308 52.2106 21.8308 52.3432V53.9242C21.8322 53.9826 21.8328 54.032 21.8308 54.0594L21.8243 59.4895C21.8034 61.164 21.6879 62.8105 20.9919 63.5047C20.7958 63.7018 20.5653 63.9087 20.3215 64.1279C19.7363 64.6537 19.0729 65.2505 18.6417 65.9192C18.5662 66.0356 18.4894 66.1574 18.4096 66.2861C17.6644 67.4794 16.6438 69.2021 14.32 69.3154L11.5293 69.314L36.2116 69.3281Z" fill="white"/>
<path d="M16.2445 69.0494L31.5818 69.058C30.8522 68.7536 30.1991 68.3558 29.8799 67.9735C29.1519 67.104 28.609 66.7945 28.1296 66.5231C27.7822 66.326 27.4223 66.1217 27.0371 65.736C25.8507 64.5483 25.6354 63.1843 25.5803 61.8874L25.5789 55.4734C25.5757 55.4424 25.5471 54.9815 25.7673 54.7421C25.9688 54.5226 26.3033 54.5535 26.7231 54.8808C27.5602 55.5349 28.0551 55.5258 29.5351 55.4089L29.7604 55.392C31.1311 55.2737 32.6174 56.2575 33.6645 56.9619C33.8978 57.1189 34.0771 57.24 34.2343 57.3355L34.4086 57.4433C34.7505 57.6583 35.2165 57.9505 35.4958 57.9505C35.5921 57.9505 35.6309 57.9112 35.6543 57.8782C35.7803 57.6916 35.8482 57.0081 34.8725 54.5353C34.5132 53.6312 33.4448 52.992 32.8397 52.6916C32.5509 52.5376 32.2303 52.1812 32.1594 51.7916C32.1092 51.5121 32.1842 51.2492 32.3758 51.0319C32.5813 50.8454 32.9307 50.4466 32.9499 50.1062C32.9578 49.9825 32.9207 49.8773 32.8384 49.785C32.7057 49.6256 32.349 49.4187 31.3578 49.2967C30.3047 49.1656 29.016 48.5016 28.5121 47.3101L28.4929 47.2331C28.4684 47.0034 28.5346 46.7928 28.6835 46.6243C29.0015 46.2653 29.7167 46.1756 30.1161 46.446C30.608 46.7735 31.6492 47.1239 32.1822 47.196C33.2526 47.3439 33.551 47.2827 33.555 47.2797C33.546 47.2659 33.5024 47.1487 33.4706 47.0644L33.4144 46.9109C33.2953 46.5756 33.0141 45.7899 31.8998 45.2053C30.8893 44.6778 30.2303 44.4162 29.7955 44.2435C29.1206 43.9775 28.8695 43.8766 28.5812 43.3081C28.4704 43.0857 28.3791 42.2061 28.5921 41.8629C28.7206 41.6554 28.9468 41.6201 29.1946 41.8033C29.3538 41.9621 29.4785 42.0946 29.6254 42.2087C30.1703 42.6286 30.6061 42.706 31.2681 42.706L31.5976 42.701C32.2359 42.701 32.4969 42.9025 32.7073 43.0649C32.7861 43.1258 32.8572 43.1804 32.939 43.2181L33.0041 43.2499C33.0934 43.2912 33.2165 43.3482 33.277 43.3495C33.2751 43.3379 33.3162 43.1868 33.1067 42.5521C32.6091 41.039 31.7713 40.0568 30.4685 39.4632C29.8223 39.1655 27.808 37.8731 27.4113 37.4261C27.403 37.4166 26.606 36.5058 26.8025 36.0706C26.8482 35.9704 27.0308 35.8082 27.4159 35.9146C27.68 35.9835 27.9082 36.0836 28.128 36.1822C28.5018 36.347 28.8526 36.5018 29.3628 36.5018C29.6367 36.5018 29.9305 36.4591 30.261 36.3694C30.2924 36.359 30.5217 36.3228 30.7569 36.3228C31.0309 36.3228 31.2572 36.368 31.4293 36.4577C31.5563 36.5226 31.7962 36.4836 31.8164 36.4214C31.8194 36.4111 31.8994 36.1084 30.7573 35.3079C30.2848 34.9766 29.8114 34.7634 29.3932 34.5739C28.5339 34.1865 27.8014 33.8552 27.3181 32.7856C27.277 32.7129 27.0348 32.2452 27.1926 31.9517L27.2293 31.8879C27.3286 31.7438 27.5986 31.5006 27.9811 31.5006C28.0893 31.5006 28.1971 31.5203 28.3027 31.558C28.4423 31.6073 28.6914 31.7061 28.9921 31.8272C29.7654 32.1361 30.7718 32.539 31.277 32.6584C31.6433 32.7429 31.9758 32.8835 32.263 33.0768C32.4661 33.1963 33.1192 33.4044 33.2794 33.238C33.2959 33.2226 33.3445 33.1731 33.3426 33.0093C33.1818 31.8411 32.8606 30.7316 32.5654 30.3445C32.3703 30.0884 31.8646 29.4609 31.3837 29.1814C31.0567 28.9918 30.221 28.5009 29.5301 28.0588C29.269 27.9055 29.0189 27.7277 28.7728 27.5182C28.5693 27.3575 28.3891 27.1909 28.2447 27.0295C27.666 26.4413 27.2357 25.8251 27.1132 25.5252C26.9786 25.195 26.9167 24.7509 27.0818 24.5052C27.2049 24.3273 27.4149 24.2856 27.6645 24.4258C28.8317 25.0898 30.754 25.2185 31.5252 25.243C31.6185 25.243 32.2243 25.3094 32.3762 25.3576C32.5475 25.4239 32.7861 25.5355 32.7911 25.5392H32.7921C32.8893 25.5392 32.9826 25.4938 33.021 25.4106C33.0561 25.3364 33.1033 25.1273 32.8066 24.7726C32.6329 24.5052 32.4036 24.2282 32.1068 23.9204C32.0383 23.8501 31.4025 23.2135 30.7802 22.7459C30.2471 22.3455 28.8714 21.4607 28.1038 21.2279C27.1757 20.9486 26.6626 20.6371 26.5335 20.2757C26.4863 20.1406 26.4948 20.0028 26.5558 19.8834L26.5971 19.8041L26.6785 19.765C26.8601 19.6791 27.1132 19.6039 27.4322 19.5414C27.8904 19.4545 28.6769 19.5922 28.8447 19.6313C28.9856 19.6562 29.1301 19.6689 29.2615 19.6689C29.6565 19.6689 29.8716 19.5521 29.9093 19.4377C29.9464 19.3208 29.8527 19.0972 29.4725 18.8187C29.0497 18.5128 28.7434 18.3776 27.8358 17.9797L27.1563 17.6809C26.3826 17.3404 26.2685 16.6609 26.3235 16.3128C26.3697 16.0226 26.5355 15.8229 26.7464 15.8011C26.869 15.7878 27.0636 15.7995 27.27 15.8178C27.4715 15.8346 27.6264 15.8473 27.7633 15.8473C27.9979 15.8473 28.0426 15.8072 28.0466 15.8031C28.0466 15.8021 28.075 15.6811 27.6958 15.2578C27.4938 15.055 26.7731 14.405 26.2735 14.216C26.0297 14.123 25.9027 13.9898 25.8943 13.8201C25.8788 13.5492 26.2024 13.3221 26.477 13.1798L26.5647 13.1381C26.6744 13.0878 26.8601 13.0029 26.8724 12.8952C26.8774 12.8454 26.8561 12.6548 26.3529 12.2737C26.2302 12.2005 24.9591 11.4092 24.9313 10.744C24.9259 10.6129 24.9643 10.4243 25.1767 10.2698C25.8993 9.74234 25.8864 9.56091 25.8858 9.55939C25.8838 9.55837 25.8421 9.51365 25.6263 9.49942C25.1632 9.46588 24.8328 9.3307 24.6718 9.1076C24.5595 8.9526 24.5295 8.76202 24.5835 8.54147C24.6061 8.40781 24.7281 8.27924 25.0091 8.02971C25.1084 7.94128 25.1886 7.87268 25.2376 7.81068C25.2793 7.75885 25.2906 7.72632 25.2912 7.71768C25.2035 7.70955 25.1469 7.70396 25.076 7.70396C24.5148 7.70396 24.2784 7.27911 24.1204 6.86442C23.9697 6.26932 23.8456 5.69963 23.7742 5.35355C23.7617 5.40488 23.7488 5.46129 23.7373 5.51515L23.7079 5.64119C23.3615 7.16781 23.1522 8.08917 22.31 8.08917C22.25 8.08917 22.1946 8.09476 22.1285 8.10645C22.1078 8.11052 22.1188 8.14254 22.1604 8.19386C22.2645 8.32498 22.4376 8.45457 22.6061 8.58009C22.9138 8.80929 23.1032 8.96073 23.1145 9.16604C23.1302 9.45673 22.9098 9.68542 22.643 9.93545C22.376 10.2033 21.7229 10.6378 21.7173 10.6408C21.289 10.9066 20.9124 11.2085 20.8449 11.3416C20.8673 11.3975 21.043 11.4788 21.4057 11.4788C21.925 11.4971 22.5801 11.5673 22.6359 11.9581C22.6808 12.2427 22.3481 12.4851 22.1604 12.5517L21.9125 12.636C21.6108 12.7387 21.3241 12.8352 20.9934 13.0233C20.4822 13.35 19.969 13.8577 19.9643 13.8628C19.5994 14.2724 19.6278 14.3934 19.6286 14.3949C19.6294 14.3949 19.6713 14.4386 19.9097 14.4386C20.0494 14.4386 20.2049 14.4249 20.3556 14.4117C20.6083 14.3903 20.7867 14.3751 20.9305 14.3918C21.1389 14.4127 21.3052 14.6144 21.3507 14.9056C21.4057 15.2522 21.291 15.9306 20.5166 16.2711L19.6391 16.6569C19.4533 16.7387 19.2951 16.8088 19.1522 16.8739C18.9139 17.0014 18.4449 17.2921 18.1487 17.717C18.107 17.7769 18.105 17.8044 18.105 17.8044C18.1753 17.8587 18.6249 17.8603 18.9225 17.8613C19.1357 17.8613 19.3541 17.8628 19.5472 17.8786C19.5492 17.8786 19.5512 17.8786 19.5532 17.8786C19.8275 17.8786 20.106 17.7769 20.3093 17.7017C20.5348 17.6184 20.7486 17.5406 20.9376 17.5406L21.0051 17.5442C21.4599 17.5914 21.71 17.69 21.8121 18.0981C21.9401 18.6124 21.4242 19.0383 21.2554 19.178C21.1768 19.2883 20.9845 19.4062 20.8427 19.4677C20.3639 19.765 19.8624 19.983 19.6058 20.0872C17.9295 20.9877 15.7969 22.3157 14.9157 23.3004C14.5687 23.6905 14.6132 23.915 14.6483 23.9942C14.6856 24.0776 14.7839 24.1282 14.8561 24.1282L14.999 24.075C15.2484 23.9581 15.6272 23.78 16.1528 23.78C16.3134 23.78 16.4782 23.7969 16.6434 23.8295C17.223 23.9452 18.1925 23.7163 18.7619 23.5682C18.9991 23.5163 19.2441 23.2992 19.4608 23.1084C19.7247 22.8744 19.8936 22.7314 20.0772 22.7314H20.2273L20.3567 22.9004C20.7907 23.6075 20.4912 24.5506 19.5349 25.4874C19.0666 26.1173 18.044 26.7206 17.1418 27.2532C16.6408 27.5494 16.1711 27.8275 15.8767 28.0653C14.9814 28.7891 14.5708 29.7636 14.3064 31.7865C14.2133 32.5065 14.3064 32.6532 14.3261 32.6754C14.3884 32.6743 14.6 32.5131 14.791 32.2492C15.0729 31.91 15.707 31.1473 17.3417 31.1473C18.5435 31.1473 18.9475 30.8745 19.3388 30.6095C19.438 30.542 19.5369 30.4757 19.6451 30.4148C19.8501 30.2988 19.9964 30.247 20.1177 30.247C20.2078 30.247 20.3341 30.2756 20.4233 30.4094C20.6051 30.6744 20.4187 31.211 20.3576 31.368C19.8728 32.4456 19.1412 32.7753 18.2942 33.159C17.9244 33.325 17.5442 33.4967 17.1418 33.7498C17.055 33.8137 16.959 33.9084 16.7483 34.119L16.7005 34.1659C16.3835 34.4787 16.3924 34.6074 16.3924 34.6088L16.4859 34.602C16.6419 34.5764 16.8395 34.6074 17.0675 34.6479C17.2879 34.6868 17.5069 34.7257 17.7253 34.7257L17.7908 34.7245C18.289 34.7088 18.7061 34.6074 19.2725 34.362C19.4674 34.276 19.6298 34.1645 19.7729 34.0668C20.0878 33.85 20.4004 33.7019 20.6869 33.8852C20.9442 34.0476 21.0156 34.3892 20.8967 34.8984C20.8826 35.2131 20.4621 35.7913 20.2615 36.0159C19.8636 36.4647 17.8485 37.757 17.2042 38.0518C17.115 38.0925 17.0285 38.1352 16.9258 38.1907C16.9135 38.2001 16.8841 38.2196 16.8492 38.2378C15.9865 38.7278 15.4054 39.4761 15.3998 39.4841C15.1412 39.8543 14.9742 40.2549 15.0022 40.3586C15.0203 40.3313 15.1184 40.3192 15.3373 40.2077C15.9156 39.9139 16.7731 40.0241 17.4644 40.1709C17.9464 40.2726 18.4772 40.3426 18.699 40.234C18.7548 40.2051 18.8188 40.1773 18.8945 40.1773H19.0197L19.1323 40.295C19.2991 40.4961 19.2498 40.9342 19.2056 41.1768C19.2076 41.4365 19.1573 41.764 19.0938 41.894C18.8054 42.4674 18.5538 42.567 17.8807 42.834C17.7024 42.9049 17.4924 42.9868 17.2391 43.0967C16.6108 43.3809 15.4439 43.951 15.0645 44.2772C14.5996 44.6778 14.355 45.2301 14.2511 45.5235L14.2042 45.6509C14.1732 45.7337 14.1327 45.8415 14.1315 45.8858C14.1438 45.8792 14.199 45.8991 14.3539 45.8991C14.5748 45.8991 14.9153 45.8649 15.4925 45.7859C16.0289 45.7129 17.0695 45.3627 17.5587 45.0345C17.9593 44.7646 18.6722 44.8553 18.9894 45.2142C19.1389 45.3836 19.2052 45.5933 19.1809 45.823L19.1615 45.8991C18.6578 47.0911 17.3703 47.7558 16.317 47.8868C15.0481 48.043 14.827 48.3402 14.7904 48.4613C14.7364 48.6422 14.9613 48.8405 14.9633 48.842C15.2466 49.033 15.4524 49.2341 15.5974 49.386C15.6893 49.4829 15.9853 49.8306 15.949 50.2529C15.919 50.6078 15.6688 50.8961 15.2043 51.1131L15.1733 51.0485L15.2015 51.1146L14.9385 51.231C14.4077 51.4831 13.189 52.1503 12.8029 53.126C12.4561 54.0026 12.2131 54.7268 12.0791 55.2747L12.0553 55.4181C11.9826 55.817 12.0241 56.1611 12.1662 56.3374C12.2903 56.494 12.4946 56.4442 12.6464 56.2468C13.4443 55.2229 16.1657 53.8625 17.0821 53.7807C17.2222 53.7684 17.3761 53.7599 17.541 53.7507C18.4429 53.7019 19.674 53.6338 20.4322 52.8338C20.9833 52.2515 21.4319 51.9435 21.7301 51.9435C21.9524 51.9435 22.096 52.1004 22.096 52.3424V53.9234C22.0975 53.9875 22.0975 54.0439 22.0955 54.0769L22.0896 59.4888C22.0642 61.4926 21.8998 62.9723 21.1788 63.6919C20.9805 63.8922 20.7466 64.1021 20.4991 64.3252C19.9254 64.8395 19.2764 65.4239 18.8639 66.0622C18.7891 66.1775 18.7132 66.3 18.6346 66.4261L18.5814 66.5104C18.0786 67.3174 17.3989 68.4076 16.2445 69.0494ZM36.2105 69.5938L14.3318 69.581H14.3189L11.5282 69.5801L11.529 69.0464L14.3189 69.0478C16.4401 68.9387 17.4166 67.373 18.1298 66.2295L18.183 66.144C18.2636 66.0155 18.341 65.8911 18.4169 65.7741C18.8675 65.0758 19.5448 64.4665 20.1423 63.9287C20.3828 63.7127 20.6097 63.5101 20.8024 63.3169C21.4335 62.6862 21.5381 61.0261 21.5568 59.4852L21.5631 54.0586C21.5659 54.0175 21.5645 53.9784 21.5639 53.9286L21.5631 52.5529C21.419 52.6382 21.178 52.8191 20.8187 53.1998C19.9153 54.1537 18.5612 54.228 17.573 54.2821C17.41 54.2915 17.2623 54.299 17.1287 54.3111C16.3333 54.3824 13.7665 55.6751 13.0667 56.5732C12.7082 57.0367 12.0767 57.0784 11.7505 56.6702C11.5531 56.4237 11.4647 56.0634 11.4927 55.636H11.4727L11.5511 55.1969C11.6916 54.6085 11.9449 53.8498 12.308 52.9295C12.864 51.5248 14.7352 50.7299 14.982 50.6297C15.2601 50.498 15.4054 50.3567 15.4187 50.2088C15.4316 50.0586 15.3244 49.8709 15.2121 49.7526C15.0774 49.6129 14.9048 49.4435 14.6455 49.2679C14.6072 49.2381 14.1218 48.8405 14.2808 48.309C14.4311 47.8064 15.0574 47.5051 16.2521 47.3582C17.141 47.2486 18.2207 46.703 18.6539 45.7323C18.6539 45.6678 18.6339 45.6156 18.5902 45.5661C18.4449 45.4024 18.0389 45.3518 17.8557 45.4768C17.2911 45.8544 16.18 46.2306 15.564 46.3136C14.9625 46.3963 14.6 46.4317 14.3539 46.4317C14.1109 46.4317 13.8411 46.4013 13.688 46.181C13.5255 45.9457 13.6212 45.6907 13.7048 45.4663L13.7512 45.3428C13.8717 45.0024 14.1595 44.3552 14.7175 43.8742C15.2295 43.4325 16.7265 42.7437 17.0213 42.6103C17.2883 42.4959 17.5023 42.4116 17.6839 42.3397C18.3234 42.0866 18.4214 42.0473 18.617 41.6594C18.6307 41.6211 18.6755 41.3991 18.6773 41.1278C18.6996 40.9967 18.7105 40.8782 18.7132 40.7873C18.3869 40.8717 17.8406 40.7937 17.3546 40.6924C16.7174 40.5577 16.0216 40.4568 15.5785 40.6821C15.0302 40.9626 14.6846 40.8961 14.5282 40.5987C14.3213 40.2023 14.7164 39.5333 14.9705 39.1694C15.0042 39.1252 15.6311 38.3168 16.5947 37.7715L16.6714 37.7237C16.7857 37.6621 16.8811 37.6141 16.9818 37.5674C17.6754 37.2504 19.5611 36.0043 19.8636 35.6611C20.1245 35.3717 20.3647 34.9506 20.3716 34.8232C20.4477 34.4787 20.4147 34.3515 20.3973 34.3306C20.323 34.3243 20.1892 34.4257 20.0741 34.5047C19.9196 34.6114 19.727 34.7437 19.4851 34.8493C18.8503 35.1247 18.3785 35.2388 17.8019 35.2573L17.7276 35.2585C17.4598 35.2585 17.2053 35.2131 17.0013 35.1765C16.8421 35.1481 16.72 35.1247 16.6179 35.1247C16.5231 35.1352 16.4802 35.1376 16.4393 35.1376C16.1844 35.1376 15.9831 35.0155 15.8993 34.8075C15.7242 34.3814 16.1786 33.9318 16.3281 33.7849C16.5973 33.5187 16.7095 33.4056 16.8449 33.3095C17.2917 33.0276 17.6887 32.8483 18.0727 32.6743C18.8852 32.3078 19.4706 32.0428 19.8668 31.1629C19.9073 31.0575 19.9363 30.9448 19.9528 30.8521C19.9383 30.8602 19.923 30.8694 19.9065 30.8785C19.811 30.9317 19.7251 30.99 19.638 31.05C19.2216 31.3305 18.7067 31.6803 17.3417 31.6803C15.9567 31.6803 15.4533 32.2842 15.2115 32.5754C15.0814 32.7558 14.7118 33.2069 14.3209 33.2069C14.1681 33.2069 14.0283 33.1431 13.9263 33.0276C13.7327 32.808 13.6886 32.4156 13.7788 31.7178C14.0632 29.5387 14.5248 28.4745 15.542 27.6522C15.8664 27.3896 16.3521 27.101 16.8669 26.7972C17.7304 26.2879 18.7047 25.7122 19.1357 25.1377C19.491 24.7855 20.1866 24.0047 19.9839 23.355C19.9292 23.4046 19.8628 23.463 19.8176 23.5033C19.548 23.7425 19.2464 24.0087 18.8852 24.0853C18.2856 24.2427 17.2351 24.4893 16.5393 24.3517C15.9791 24.2388 15.5279 24.4141 15.2244 24.5584L15.1229 24.6052C14.7656 24.7622 14.3213 24.5647 14.1623 24.2114C14.066 23.997 13.9843 23.5463 14.5188 22.947C15.4459 21.9092 17.6381 20.541 19.3796 19.6064C19.5998 19.5155 20.1001 19.3015 20.5569 19.0179L20.6188 18.9854C20.7258 18.9387 20.8332 18.8635 20.8759 18.8086C21.1873 18.5438 21.3255 18.3476 21.2957 18.2267C21.2703 18.1261 21.266 18.1057 20.9487 18.0732C20.9481 18.0732 20.9473 18.0732 20.9473 18.0732C20.8423 18.0732 20.6486 18.1449 20.4931 18.2018C20.19 18.3126 19.8928 18.4122 19.5947 18.4122L19.5071 18.4096C19.3239 18.3939 19.1204 18.3939 18.9225 18.3939C18.3018 18.3913 17.814 18.3888 17.6287 18.0331C17.5607 17.9019 17.5204 17.689 17.7119 17.4131C18.072 16.8977 18.621 16.5542 18.9165 16.3977C19.0763 16.323 19.2369 16.2528 19.4247 16.1695L20.3016 15.7853C20.9015 15.52 20.8286 15.0093 20.8246 14.9885C20.8199 14.9575 20.8128 14.9341 20.807 14.9173C20.6962 14.9117 20.5678 14.9259 20.4294 14.9392C20.2358 14.9559 20.0639 14.9717 19.9097 14.9717C19.7439 14.9717 19.3036 14.9717 19.1428 14.6114C18.9783 14.2439 19.2701 13.842 19.577 13.4974C19.5935 13.4811 20.1483 12.9323 20.7192 12.5679C21.1057 12.3474 21.4293 12.2376 21.7434 12.1319L21.9421 12.0633C21.8297 12.0404 21.6626 12.0196 21.4162 12.0104C21.4143 12.0104 21.4119 12.0104 21.4093 12.0104C21.0468 12.0104 20.5914 11.9474 20.3979 11.6532C20.2944 11.4951 20.2823 11.304 20.3631 11.1155C20.5394 10.7699 21.1748 10.3506 21.4402 10.1865C21.5538 10.1118 22.0747 9.752 22.2734 9.55227C22.4671 9.37186 22.5418 9.27886 22.5688 9.2316C22.5001 9.16502 22.361 9.06136 22.2875 9.00596C22.0927 8.86061 21.8907 8.70968 21.7453 8.52673C21.5498 8.28483 21.5572 8.08054 21.5985 7.95196C21.6302 7.85032 21.7261 7.6694 22.0084 7.5886C22.1348 7.56421 22.2188 7.55658 22.31 7.55658C22.6535 7.55658 22.8094 7.19576 23.1891 5.52227L23.2182 5.39725C23.3102 4.98511 23.391 4.62784 23.8345 4.62428L24.1652 4.6319L24.229 4.91599C24.2322 4.9348 24.3925 5.77027 24.627 6.70485C24.8067 7.17137 24.9502 7.17137 25.076 7.17137C25.1898 7.17137 25.2867 7.18204 25.3732 7.20237C25.5886 7.25726 25.7379 7.3843 25.798 7.56065C25.8407 7.69176 25.8507 7.89707 25.6537 8.14355C25.589 8.22333 25.4882 8.31634 25.3785 8.4134C25.297 8.48607 25.1227 8.64056 25.0893 8.69748C25.078 8.76101 25.0967 8.78743 25.1026 8.79557C25.1404 8.8474 25.3009 8.94244 25.6624 8.96785C26.073 8.9958 26.3201 9.14521 26.3975 9.41303C26.5028 9.77995 26.2397 10.1525 25.4906 10.6998C25.4716 10.931 26.0382 11.4616 26.6516 11.8341C27.01 12.1039 27.452 12.4952 27.401 12.9536C27.3563 13.3612 26.9703 13.5381 26.7856 13.6229L26.5994 13.4161L26.7221 13.6524C26.6531 13.6885 26.5955 13.7225 26.5498 13.754C27.2446 14.059 28.074 14.8833 28.0829 14.8909C28.402 15.2486 28.6964 15.6527 28.5316 16.0206C28.3712 16.3804 27.9295 16.3804 27.7633 16.3804C27.6119 16.3804 27.4411 16.3657 27.277 16.3514C27.0878 16.3347 26.9723 16.327 26.8671 16.326C26.8605 16.3423 26.8541 16.3657 26.8496 16.3956C26.8456 16.418 26.7721 16.9313 27.3716 17.195L27.992 17.4674C28.9965 17.9086 29.3157 18.0473 29.7856 18.3888C30.5062 18.9153 30.4893 19.3752 30.4145 19.6029C30.2567 20.0847 29.596 20.3006 28.7414 20.1538C28.6163 20.1238 27.9205 19.9927 27.5324 20.0638C27.3355 20.1029 27.1896 20.1421 27.0828 20.1766C27.1831 20.2706 27.4649 20.48 28.257 20.7189C29.1484 20.9877 30.5822 21.931 31.0998 22.3207C31.7529 22.8109 32.4135 23.4735 32.4869 23.5476C32.8109 23.8828 33.0617 24.1881 33.2344 24.4583C33.691 25.0003 33.6001 25.4303 33.5033 25.6355C33.3455 25.9744 32.9068 26.1606 32.5714 26.0228C32.5416 26.0085 32.3351 25.9109 32.2005 25.859C32.13 25.8394 31.608 25.7773 31.5152 25.7758C30.7212 25.7499 28.7906 25.6187 27.5156 24.952C27.5241 25.0505 27.5499 25.1859 27.6065 25.3234C27.6923 25.5355 28.0665 26.0903 28.6318 26.6648C28.7648 26.8127 28.9236 26.958 29.1102 27.1061C29.3395 27.3014 29.5619 27.4599 29.7796 27.5847C30.4998 28.0473 31.3277 28.533 31.6512 28.7216C32.1946 29.0372 32.7226 29.6725 32.9892 30.0221C33.3449 30.4884 33.6919 31.6461 33.873 32.9704C33.8785 33.2599 33.8041 33.4657 33.6576 33.6134C33.5068 33.7655 33.2999 33.8421 33.0408 33.8421C32.6204 33.8421 32.1628 33.6357 31.9792 33.5265C31.7336 33.3613 31.4606 33.2472 31.1563 33.1771C30.61 33.0482 29.5837 32.6363 28.8327 32.3362C28.5028 32.2036 28.2606 32.1075 28.1246 32.0594C27.8934 31.9763 27.6952 32.1478 27.6671 32.1907C27.6651 32.2244 27.7101 32.3973 27.7935 32.5464C28.2034 33.4538 28.7897 33.7174 29.601 34.0841C30.0522 34.288 30.5495 34.5129 31.063 34.8726C32.0681 35.5769 32.4691 36.1213 32.3242 36.5828C32.2352 36.8593 31.9659 37.0295 31.6199 37.0295C31.4617 37.0295 31.3117 36.9957 31.1851 36.9292C31.1301 36.9018 31.0031 36.8551 30.7569 36.8551C30.5654 36.8551 30.404 36.8829 30.3837 36.8869C30.0234 36.9854 29.6839 37.035 29.3628 37.035C28.7404 37.035 28.3023 36.8415 27.9156 36.6698C27.7405 36.5917 27.5622 36.5133 27.3736 36.4551C27.4669 36.6165 27.6253 36.8647 27.81 37.0735C28.1111 37.4132 29.995 38.6603 30.6898 38.9788C32.136 39.6385 33.065 40.7218 33.6126 42.3853C33.8442 43.0897 33.8667 43.4391 33.6943 43.6773C33.4984 43.9463 33.074 43.8693 32.7768 43.7303C32.5813 43.6406 32.4781 43.5596 32.3861 43.4901C32.1991 43.3456 32.0552 43.234 31.5976 43.234L31.2681 43.238C30.5207 43.238 29.9589 43.1387 29.3002 42.6295C29.1867 42.5426 29.0874 42.4489 29.0001 42.3605C28.9836 42.6061 29.014 42.9664 29.0587 43.0728C29.2526 43.4573 29.3509 43.4967 29.9901 43.7482C30.4373 43.9252 31.1107 44.1928 32.1465 44.7334C33.4448 45.4141 33.7747 46.3384 33.9157 46.7328L33.9679 46.8748C34.0522 47.1021 34.1485 47.3568 33.9848 47.5904C33.8339 47.8112 33.5639 47.8409 33.3207 47.8409C33.074 47.8409 32.7123 47.8064 32.1108 47.723C31.4984 47.6414 30.3881 47.2659 29.8199 46.8877C29.6347 46.763 29.2268 46.8132 29.0828 46.976C29.0397 47.0252 29.0193 47.0778 29.0193 47.1422C29.4537 48.1131 30.534 48.6584 31.4229 48.768C32.3841 48.8863 32.9624 49.0991 33.2417 49.4382C33.4121 49.6282 33.4968 49.8724 33.4819 50.1374C33.4458 50.7563 32.8691 51.3017 32.7534 51.4043C32.6924 51.4775 32.6621 51.5795 32.6829 51.6965C32.7216 51.9069 32.9207 52.1321 33.0839 52.219C33.7499 52.5503 34.942 53.2699 35.3668 54.3397C36.4473 57.0758 36.3401 57.8153 36.0934 58.1776C35.96 58.3753 35.7476 58.4829 35.4958 58.4829C35.0631 58.4829 34.5436 58.1567 34.1261 57.8961L33.955 57.7893C33.7946 57.6906 33.6076 57.5646 33.4001 57.426C32.3837 56.7403 31.0303 55.8337 29.802 55.9223L29.5768 55.939C27.9569 56.0676 27.3405 56.0376 26.3966 55.3011C26.2685 55.2021 26.1855 55.161 26.1399 55.1441C26.1176 55.2163 26.1027 55.3515 26.1107 55.4526L26.1127 61.8757C26.1627 63.0543 26.3559 64.3013 27.4139 65.3594C27.7488 65.6944 28.0466 65.8631 28.391 66.0596C28.9111 66.354 29.4988 66.6883 30.2878 67.6316C30.7857 68.2266 32.5962 69.0413 33.7684 69.0595L36.2105 69.0605V69.5938Z" fill="white"/>
</svg>
