<svg width="40" height="80" viewBox="0 0 40 80" fill="none" xmlns="http://www.w3.org/2000/svg">
<path d="M17.6608 60.0652L0.0214844 65.5078L0.0214841 59.6062L8.34935 57.3767L0.0214839 55.475L0.0214837 49.5078L18.71 54.9504L19.6936 54.9504L19.6936 52.1963L21.3985 52.1963L25.0706 60.0652L22.5133 60.0652L22.5133 63.3439L19.6936 63.3439L19.6936 60.0652L17.6608 60.0652Z" fill="#D9D9D9"/>
<path d="M6.31656 80L0.0214844 80L0.0214838 65.9016L6.31656 65.9016L5.79197 70.2951L27.7592 70.2951L33.8575 75.9344L6.31656 75.9344L6.31656 80Z" fill="#D9D9D9"/>
<path fill-rule="evenodd" clip-rule="evenodd" d="M0.0163917 48.0664L22.1147 48.0664L23.6885 43.0172L16.7377 43.0172C16.7596 40.9844 15.7541 37.1156 12.6065 36.0008C12.4869 35.9585 12.3556 35.9092 12.2127 35.8556C10.7046 35.2897 7.90976 34.2411 4.01639 35.7385C-0.0387813 37.2982 -0.0332966 37.6978 0.00713719 40.6439C0.0115555 40.9658 0.0163911 41.3182 0.0163914 41.7058L0.0163917 48.0664ZM6.31653 43.1456L10.5788 43.1456C10.71 42.4461 10.6837 41.0079 9.52964 40.8505C8.08702 40.6538 7.23456 40.6538 6.77555 41.3751C6.31653 42.0964 6.31653 42.8177 6.31653 43.1456Z" fill="#D9D9D9"/>
<path fill-rule="evenodd" clip-rule="evenodd" d="M0.0156248 29.1804L20.9336 34.623L23.2943 29.7706L18.7697 28.7214L18.7697 23.6722L24.8025 22.2952L22.573 17.3116L0.0156245 22.8198L0.0156248 29.1804ZM6.70299 26.098L12.8014 27.4095L12.8014 24.5898L6.70299 26.098Z" fill="#D9D9D9"/>
<path d="M24.2838 15.2168L0.0214844 15.2168L0.0214841 9.90533L8.61164 10.0365L8.61164 5.57746L0.021484 5.57746L0.0214837 0.134841L37.3329 0.134839L32.5461 5.64303L15.169 5.64303L15.169 9.90532L28.8739 9.90532L24.2838 15.2168Z" fill="#D9D9D9"/>
<path fill-rule="evenodd" clip-rule="evenodd" d="M37.2702 79.9375L25.0734 68.5932L25.0734 60.1342L20.8112 52.3965L23.4997 42.3638L20.0898 36.0687L25.2702 24.2654L22.0571 17.708L37.2702 0.00311967L37.2702 79.9375ZM33.6669 73.644L30.4538 66.6276L33.2734 61.3161L26.3882 54.6931L32.6177 46.4309L28.7488 43.4145L31.5685 36.5948L26.7816 33.9063L31.5685 21.7096L28.6177 17.5128L31.5685 15.0866L31.5685 10.8243L29.0111 11.021L23.8964 17.5128L26.7816 24.2669L21.339 35.9391L24.9456 42.1686L22.0603 52.9227L26.3882 59.8079L26.3882 68.0046L33.0111 73.5128L33.7324 74.3653L33.6669 73.644Z" fill="#D9D9D9"/>
<path d="M39.6256 80L38.4453 80L38.4453 0.196777L39.6256 0.196777L39.6256 80Z" fill="#D9D9D9"/>
</svg>
