<svg width="48" height="57" viewBox="0 0 48 57" fill="none" xmlns="http://www.w3.org/2000/svg">
<path d="M47.8537 0H0V47.764H47.8537V0Z" fill="#D6D6D6"/>
<path d="M3.20261 50.0423L2.56671 52.2201C2.56261 52.2477 2.54807 52.2726 2.52611 52.2897C2.50415 52.3068 2.47645 52.3149 2.44873 52.3121H2.22458C2.19877 52.3133 2.17343 52.305 2.1534 52.2886C2.13338 52.2723 2.12008 52.2492 2.11604 52.2237L1.67835 50.6652H1.67127L1.22886 52.213C1.20526 52.2909 1.17813 52.3121 1.11088 52.3121H0.896161C0.838352 52.3121 0.807679 52.2944 0.784083 52.2095L0.134031 50.0553C0.130224 50.041 0.127853 50.0263 0.126953 50.0116C0.126953 49.9738 0.147009 49.9573 0.188301 49.9573H0.515097C0.528423 49.9551 0.54205 49.9556 0.555197 49.9587C0.568345 49.9618 0.580755 49.9674 0.591715 49.9753C0.602675 49.9832 0.611969 49.9932 0.619066 50.0047C0.626163 50.0162 0.630924 50.0289 0.633073 50.0423L1.04481 51.6114L1.48133 50.0281C1.48565 50.0052 1.49854 49.9847 1.51738 49.9709C1.53622 49.9571 1.5596 49.951 1.58279 49.9538H1.81166C1.83334 49.9519 1.85496 49.9581 1.87237 49.9712C1.88978 49.9842 1.90177 50.0032 1.90604 50.0246L2.34256 51.6114L2.75547 50.0352C2.75954 50.0112 2.77274 49.9897 2.79231 49.9751C2.81188 49.9606 2.83631 49.9542 2.86047 49.9573H3.15306C3.16036 49.9566 3.16775 49.9575 3.17466 49.96C3.18158 49.9624 3.18787 49.9664 3.19306 49.9716C3.19826 49.9768 3.20223 49.9831 3.2047 49.99C3.20716 49.9969 3.20806 50.0043 3.20732 50.0116C3.20741 50.022 3.20582 50.0324 3.20261 50.0423Z" fill="#D6D6D6"/>
<path d="M3.58589 52.3102H3.28741C3.2532 52.3102 3.24022 52.2925 3.24022 52.2654C3.23764 52.2533 3.23764 52.2409 3.24022 52.2288L4.06605 50.0227C4.07179 50.0028 4.08394 49.9855 4.10059 49.9733C4.11724 49.9612 4.13746 49.9549 4.15808 49.9554H4.4306C4.45107 49.9537 4.47153 49.9588 4.48881 49.9699C4.50609 49.9809 4.51922 49.9974 4.52616 50.0168L5.35908 52.2111C5.36461 52.2254 5.36702 52.2407 5.36616 52.256C5.36616 52.289 5.34964 52.3102 5.30481 52.3102H5.00161C4.97529 52.3141 4.94847 52.3079 4.92657 52.2928C4.90467 52.2777 4.88932 52.2548 4.88363 52.2288L4.70667 51.7286H3.84662L3.66965 52.2383C3.66612 52.2581 3.65586 52.2761 3.6406 52.2892C3.62533 52.3023 3.60601 52.3097 3.58589 52.3102ZM4.59931 51.3983L4.36336 50.6798C4.33268 50.5842 4.31145 50.5134 4.29493 50.4592H4.28785C4.27133 50.517 4.2501 50.5878 4.21589 50.6833L3.97993 51.3983H4.59931Z" fill="#D6D6D6"/>
<path d="M7.37889 52.3099H7.06979C7.04334 52.3125 7.01669 52.3075 6.99304 52.2953C6.96939 52.2832 6.94975 52.2645 6.93648 52.2415L6.44687 51.4416H6.18497V52.225C6.18497 52.2757 6.16373 52.3099 6.10592 52.3099H5.8275C5.76969 52.3099 5.74609 52.2828 5.74609 52.225V50.053C5.74609 49.9787 5.76261 49.9551 5.83694 49.9551H6.3407C6.63682 49.9551 6.95064 49.9987 7.13114 50.2064C7.20196 50.296 7.25153 50.4005 7.27612 50.512C7.30072 50.6235 7.29968 50.7392 7.27311 50.8503C7.24653 50.9613 7.1951 51.0649 7.12269 51.1533C7.05028 51.2416 6.95878 51.3123 6.85508 51.3602L7.4131 52.2214C7.42275 52.2354 7.42846 52.2517 7.42962 52.2686C7.42962 52.2957 7.41546 52.3099 7.37889 52.3099ZM6.35367 50.2878H6.18379V51.1136H6.39497C6.66631 51.1136 6.84682 50.9673 6.84682 50.6924C6.848 50.394 6.65098 50.2878 6.35367 50.2878Z" fill="#D6D6D6"/>
<path d="M10.7451 50.0424L10.1092 52.2202C10.1046 52.2475 10.0899 52.2721 10.0681 52.2891C10.0463 52.3062 10.0188 52.3144 9.99124 52.3123H9.77535C9.74954 52.3134 9.7242 52.3051 9.70417 52.2887C9.68415 52.2724 9.67084 52.2493 9.66681 52.2238L9.22086 50.6653H9.21378L8.77136 52.2132C8.74777 52.291 8.72063 52.3123 8.65339 52.3123H8.43513C8.37732 52.3123 8.34665 52.2946 8.32305 52.2096L7.673 50.0554C7.6715 50.0408 7.6715 50.0262 7.673 50.0117C7.673 49.974 7.69306 49.9574 7.73435 49.9574H8.05996C8.07331 49.9551 8.08699 49.9554 8.1002 49.9584C8.11341 49.9615 8.12588 49.9671 8.13688 49.975C8.14787 49.9829 8.15717 49.993 8.16422 50.0045C8.17128 50.0161 8.17594 50.029 8.17794 50.0424L8.59322 51.6115L9.02383 50.0282C9.02816 50.0053 9.04104 49.9848 9.05988 49.971C9.07872 49.9572 9.10211 49.9511 9.12529 49.9539H9.35299C9.37481 49.952 9.39659 49.9581 9.41419 49.9712C9.4318 49.9842 9.44402 50.0032 9.44855 50.0247L9.88034 51.6079H9.89332L10.3051 50.0318C10.3094 50.0076 10.3228 49.9861 10.3426 49.9716C10.3624 49.9571 10.3869 49.9508 10.4112 49.9539H10.7038C10.7111 49.9534 10.7184 49.9544 10.7252 49.957C10.732 49.9595 10.7382 49.9635 10.7434 49.9686C10.7485 49.9738 10.7525 49.98 10.755 49.9868C10.7576 49.9936 10.7586 50.0009 10.7581 50.0082C10.756 50.0203 10.7516 50.0319 10.7451 50.0424Z" fill="#D6D6D6"/>
<path d="M12.0724 50.1674C12.0724 50.2229 12.0488 50.2394 12.0016 50.2394H11.8069V52.022H11.991C12.0006 52.0213 12.0103 52.0227 12.0193 52.0261C12.0284 52.0294 12.0366 52.0347 12.0434 52.0415C12.0502 52.0484 12.0555 52.0566 12.0589 52.0656C12.0622 52.0747 12.0636 52.0844 12.0629 52.094V52.2403C12.0629 52.2816 12.0452 52.3087 12.0016 52.3087H11.1911C11.1822 52.3096 11.1733 52.3085 11.1649 52.3056C11.1565 52.3027 11.1489 52.298 11.1425 52.2918C11.1361 52.2856 11.1311 52.2781 11.1279 52.2699C11.1247 52.2616 11.1233 52.2527 11.1238 52.2438V52.0904C11.1238 52.0433 11.1439 52.022 11.1911 52.022H11.3716V50.2394H11.1746C11.1653 50.2408 11.1557 50.24 11.1468 50.237C11.1379 50.2341 11.1297 50.2291 11.1231 50.2224C11.1164 50.2158 11.1114 50.2077 11.1085 50.1987C11.1055 50.1898 11.1047 50.1803 11.1061 50.171V50.0247C11.1051 50.0161 11.106 50.0074 11.1086 49.9992C11.1112 49.991 11.1156 49.9834 11.1214 49.977C11.1273 49.9706 11.1344 49.9656 11.1423 49.9622C11.1503 49.9588 11.1589 49.9572 11.1675 49.9574H12.0016C12.0106 49.9564 12.0198 49.9574 12.0284 49.9602C12.0371 49.963 12.045 49.9676 12.0517 49.9738C12.0584 49.9799 12.0637 49.9874 12.0673 49.9958C12.0709 50.0042 12.0726 50.0132 12.0724 50.0223V50.1674Z" fill="#D6D6D6"/>
<path d="M14.2714 52.2131C14.0576 52.3054 13.8271 52.3528 13.5943 52.3524C12.8758 52.3524 12.5254 51.8462 12.5254 51.1443C12.5254 50.4423 12.9442 49.9102 13.6285 49.9102C13.8498 49.9079 14.0686 49.9568 14.2679 50.053C14.308 50.0742 14.3222 50.0907 14.3222 50.112C14.3215 50.1271 14.3179 50.1419 14.3116 50.1556L14.2337 50.3703C14.2231 50.401 14.2066 50.414 14.1865 50.414C14.1732 50.412 14.1604 50.4076 14.1488 50.401C13.997 50.3207 13.8273 50.2801 13.6556 50.283C13.1837 50.283 12.9985 50.7184 12.9985 51.1301C12.9985 51.6539 13.2439 51.9878 13.6615 51.9878C13.8309 51.9862 13.998 51.9492 14.1523 51.8793C14.1648 51.8725 14.1784 51.8677 14.1924 51.8651C14.2172 51.8651 14.2337 51.8816 14.2479 51.9158L14.3151 52.0999C14.3216 52.1148 14.3252 52.1308 14.3257 52.1471C14.3257 52.1754 14.3116 52.1966 14.2714 52.2131Z" fill="#D6D6D6"/>
<path d="M16.4354 52.31H16.0957C16.0632 52.3121 16.0308 52.3053 16.0019 52.2903C15.973 52.2753 15.9487 52.2528 15.9317 52.2251L15.1967 51.2813V52.2251C15.1967 52.2864 15.1731 52.31 15.1141 52.31H14.8428C14.7814 52.31 14.7578 52.2864 14.7578 52.2251V50.0366C14.7578 49.9788 14.7885 49.9552 14.8428 49.9552H15.1141C15.1696 49.9552 15.1967 49.9753 15.1967 50.0366V50.9993L15.9045 50.0166C15.9186 49.9967 15.9374 49.9806 15.9592 49.9699C15.9811 49.9592 16.0053 49.9541 16.0296 49.9552H16.3021C16.3363 49.9552 16.3564 49.9753 16.3564 49.9989C16.3565 50.0137 16.352 50.0281 16.3434 50.0402L15.5565 51.0878L16.4626 52.2003C16.4784 52.2175 16.489 52.2387 16.4933 52.2617C16.4909 52.2923 16.4697 52.31 16.4354 52.31Z" fill="#D6D6D6"/>
<path d="M18.5189 52.3099H17.8854C17.8146 52.3099 17.7969 52.2828 17.7969 52.2108V50.0436C17.7969 49.9716 17.8275 49.9551 17.8995 49.9551H18.4104C18.9578 49.9551 19.2645 50.1214 19.2645 50.5296C19.2699 50.645 19.2342 50.7586 19.1638 50.8502C19.0934 50.9418 18.9928 51.0054 18.8799 51.0298C18.956 51.0309 19.0312 51.0471 19.101 51.0774C19.1708 51.1077 19.234 51.1515 19.2867 51.2064C19.3395 51.2612 19.3809 51.326 19.4084 51.397C19.436 51.4679 19.4492 51.5436 19.4474 51.6197C19.4497 52.173 19.0014 52.3099 18.5189 52.3099ZM18.4233 50.2878H18.2334V50.9213H18.4104C18.6581 50.9213 18.8351 50.8564 18.8351 50.5815C18.8351 50.3597 18.6616 50.2878 18.4233 50.2878ZM18.8221 51.2918C18.7068 51.244 18.5821 51.223 18.4575 51.2304H18.2334V51.9725H18.4847C18.593 51.9772 18.7013 51.9624 18.8044 51.9288C18.8664 51.9027 18.9188 51.8578 18.9541 51.8005C18.9894 51.7432 19.006 51.6763 19.0014 51.6091C19.0063 51.5444 18.9918 51.4797 18.9599 51.4232C18.928 51.3667 18.88 51.321 18.8221 51.2918Z" fill="#D6D6D6"/>
<path d="M21.8976 51.2646C21.8976 51.9654 21.5684 52.35 20.9042 52.35C20.1869 52.35 19.9238 51.956 19.9238 51.2575V50.0365C19.9238 49.9787 19.958 49.9551 20.0123 49.9551H20.2813C20.3391 49.9551 20.3639 49.9787 20.3639 50.0365V51.2162C20.3639 51.7165 20.4925 51.9748 20.9207 51.9748C21.349 51.9748 21.4622 51.7023 21.4622 51.2162V50.0365C21.4622 49.9787 21.4929 49.9551 21.5472 49.9551H21.8162C21.874 49.9551 21.8976 49.9787 21.8976 50.0365V51.2646Z" fill="#D6D6D6"/>
<path d="M23.1067 52.3519C22.8856 52.3508 22.6661 52.3142 22.4567 52.2433C22.4453 52.2408 22.4348 52.2358 22.4257 52.2285C22.4167 52.2213 22.4094 52.212 22.4045 52.2016C22.3996 52.1911 22.3972 52.1796 22.3974 52.168C22.3977 52.1564 22.4006 52.1451 22.4059 52.1348L22.4779 51.913C22.4873 51.8788 22.505 51.8587 22.5392 51.8587C22.5566 51.8595 22.5737 51.8631 22.59 51.8693C22.7521 51.9316 22.9236 51.9659 23.0973 51.9708C23.2801 51.9708 23.4878 51.8823 23.4878 51.6688C23.4878 51.5119 23.3698 51.4328 23.24 51.362L22.7976 51.1414C22.6804 51.093 22.58 51.0114 22.5087 50.9065C22.4374 50.8017 22.3984 50.6783 22.3965 50.5515C22.3965 50.1374 22.8047 49.9086 23.1822 49.9086C23.3912 49.904 23.5988 49.9442 23.791 50.0265C23.8358 50.0478 23.8594 50.0678 23.8594 50.095C23.859 50.1101 23.8554 50.125 23.8488 50.1386L23.7674 50.3463C23.7532 50.384 23.7332 50.3982 23.7096 50.3982C23.6908 50.3964 23.6725 50.3916 23.6553 50.384C23.5129 50.3224 23.3607 50.2869 23.2058 50.279C23.0454 50.279 22.8625 50.3463 22.8625 50.5374C22.8625 50.6766 22.9911 50.758 23.1043 50.8134L23.4819 50.9963C23.7509 51.1261 23.9337 51.3066 23.9337 51.6192C23.9325 52.097 23.5515 52.3519 23.1067 52.3519Z" fill="#D6D6D6"/>
<path d="M25.336 50.1674C25.336 50.2229 25.3124 50.2394 25.264 50.2394H25.0706V52.022H25.2546C25.2642 52.0213 25.2738 52.0227 25.2828 52.026C25.2918 52.0294 25.3 52.0347 25.3067 52.0416C25.3134 52.0484 25.3186 52.0567 25.3218 52.0657C25.3251 52.0748 25.3263 52.0844 25.3254 52.094V52.2403C25.3254 52.2816 25.3089 52.3087 25.264 52.3087H24.4547C24.4458 52.3098 24.4367 52.3088 24.4282 52.306C24.4196 52.3032 24.4118 52.2985 24.4053 52.2923C24.3988 52.2861 24.3937 52.2785 24.3904 52.2702C24.3871 52.2618 24.3857 52.2528 24.3863 52.2438V52.0904C24.3863 52.0432 24.4075 52.022 24.4547 52.022H24.6411V50.2394H24.4441C24.4348 50.2408 24.4253 50.24 24.4163 50.237C24.4074 50.2341 24.3993 50.2291 24.3926 50.2224C24.386 50.2158 24.381 50.2076 24.378 50.1987C24.3751 50.1898 24.3743 50.1803 24.3757 50.171V50.0247C24.3746 50.0161 24.3755 50.0074 24.3781 49.9992C24.3808 49.991 24.3851 49.9834 24.391 49.977C24.3968 49.9706 24.4039 49.9656 24.4119 49.9622C24.4198 49.9588 24.4284 49.9572 24.437 49.9574H25.2699C25.279 49.9564 25.2882 49.9574 25.2969 49.9602C25.3056 49.963 25.3137 49.9676 25.3205 49.9737C25.3273 49.9799 25.3327 49.9874 25.3364 49.9957C25.3401 50.0041 25.3419 50.0132 25.3419 50.0223L25.336 50.1674Z" fill="#D6D6D6"/>
<path d="M27.8675 52.2185C27.8675 52.2928 27.8369 52.3105 27.7861 52.3105H27.5585C27.5325 52.3105 27.507 52.3039 27.4843 52.2913C27.4616 52.2787 27.4425 52.2606 27.4287 52.2386L26.3197 50.7214H26.3126V52.2221C26.3126 52.2869 26.2819 52.3105 26.2241 52.3105H25.9787C25.915 52.3105 25.8867 52.2928 25.8867 52.2256V50.0477C25.8867 49.9758 25.9174 49.9557 25.9787 49.9557H26.2005C26.2245 49.9532 26.2486 49.9581 26.2697 49.9697C26.2908 49.9813 26.3078 49.9991 26.3185 50.0206L27.4381 51.5543H27.4452V50.0442C27.4452 49.9793 27.4759 49.9557 27.5337 49.9557H27.7885C27.8593 49.9557 27.8699 49.9935 27.8699 50.0477L27.8675 52.2185Z" fill="#D6D6D6"/>
<path d="M29.8959 52.2285C29.8959 52.2828 29.8712 52.3099 29.8134 52.3099H28.551C28.4838 52.3099 28.459 52.2922 28.459 52.2179V50.04C28.459 49.9858 28.4838 49.9551 28.538 49.9551H29.8204C29.8889 49.9551 29.8983 49.9858 29.8924 50.0329L29.8688 50.237C29.8617 50.2984 29.824 50.309 29.7508 50.309H28.8967V50.9248H29.6836C29.7485 50.9248 29.7685 50.952 29.7685 50.9992V51.1938C29.7685 51.2516 29.7449 51.2752 29.6871 51.2752H28.8967V51.956H29.8086C29.8676 51.956 29.8948 51.9796 29.8948 52.0338L29.8959 52.2285Z" fill="#D6D6D6"/>
<path d="M31.0122 52.3519C30.7911 52.3509 30.5716 52.3143 30.3621 52.2433C30.3506 52.2412 30.3397 52.2364 30.3304 52.2292C30.3211 52.2221 30.3136 52.2129 30.3085 52.2023C30.3034 52.1917 30.301 52.1801 30.3013 52.1683C30.3016 52.1566 30.3046 52.1451 30.3102 52.1348L30.3822 51.913C30.3928 51.8788 30.4093 51.8587 30.4435 51.8587C30.4609 51.8594 30.4781 51.863 30.4943 51.8693C30.6564 51.9316 30.8279 51.9659 31.0016 51.9708C31.1856 51.9708 31.3932 51.8823 31.3932 51.6688C31.3932 51.5119 31.2753 51.4328 31.1443 51.362L30.7019 51.1414C30.5847 51.093 30.4843 51.0114 30.413 50.9065C30.3417 50.8017 30.3027 50.6783 30.3008 50.5515C30.3008 50.1374 30.709 49.9086 31.0865 49.9086C31.2955 49.904 31.5031 49.9442 31.6953 50.0265C31.7401 50.0478 31.7637 50.0678 31.7637 50.095C31.7633 50.1101 31.7597 50.125 31.7531 50.1386L31.6717 50.3463C31.6587 50.384 31.6375 50.3982 31.6139 50.3982C31.5951 50.3964 31.5768 50.3916 31.5596 50.384C31.4173 50.3221 31.265 50.2866 31.1101 50.279C30.9508 50.279 30.7668 50.3463 30.7668 50.5374C30.7668 50.6766 30.8966 50.758 31.0086 50.8134L31.3862 50.9963C31.6552 51.1261 31.8392 51.3066 31.8392 51.6192C31.8439 52.097 31.4593 52.3519 31.0122 52.3519Z" fill="#D6D6D6"/>
<path d="M32.9516 52.3519C32.7305 52.3509 32.511 52.3143 32.3016 52.2433C32.2901 52.241 32.2794 52.2361 32.2702 52.2289C32.261 52.2217 32.2537 52.2125 32.2487 52.2019C32.2438 52.1913 32.2414 52.1797 32.2418 52.1681C32.2422 52.1564 32.2453 52.145 32.2509 52.1348L32.3228 51.913C32.3323 51.8788 32.35 51.8587 32.383 51.8587C32.4007 51.8595 32.4183 51.8631 32.4349 51.8693C32.597 51.9318 32.7685 51.9661 32.9422 51.9708C33.1251 51.9708 33.3327 51.8823 33.3327 51.6688C33.3327 51.5119 33.2147 51.4328 33.0849 51.362L32.6425 51.1414C32.5252 51.0931 32.4246 51.0115 32.3531 50.9067C32.2817 50.8018 32.2424 50.6784 32.2402 50.5515C32.2402 50.1374 32.6484 49.9086 33.0271 49.9086C33.2362 49.904 33.4437 49.9442 33.6359 50.0265C33.6795 50.0478 33.7043 50.0678 33.7043 50.095C33.7039 50.1101 33.7003 50.125 33.6937 50.1386L33.6123 50.3463C33.5981 50.384 33.5781 50.3982 33.5545 50.3982C33.5354 50.3964 33.5167 50.3916 33.499 50.384C33.3572 50.3223 33.2053 50.2867 33.0507 50.279C32.8903 50.279 32.7062 50.3463 32.7062 50.5374C32.7062 50.6766 32.836 50.758 32.9481 50.8134L33.3256 50.9963C33.5946 51.1261 33.7786 51.3066 33.7786 51.6192C33.7786 52.097 33.394 52.3519 32.9516 52.3519Z" fill="#D6D6D6"/>
<path d="M35.811 52.3519C35.5899 52.3508 35.3704 52.3142 35.161 52.2433C35.1495 52.241 35.1388 52.2361 35.1296 52.2289C35.1204 52.2217 35.1131 52.2125 35.1081 52.2019C35.1032 52.1913 35.1008 52.1797 35.1012 52.1681C35.1015 52.1564 35.1046 52.145 35.1102 52.1348L35.1822 51.913C35.1916 51.8788 35.2093 51.8587 35.2435 51.8587C35.2609 51.8595 35.278 51.8631 35.2943 51.8693C35.4563 51.9318 35.6279 51.9661 35.8016 51.9708C35.9844 51.9708 36.1921 51.8823 36.1921 51.6688C36.1921 51.5119 36.0741 51.4328 35.9443 51.362L35.5019 51.1414C35.3846 51.0931 35.284 51.0115 35.2125 50.9067C35.141 50.8018 35.1018 50.6784 35.0996 50.5515C35.0996 50.1374 35.509 49.9086 35.8865 49.9086C36.0955 49.904 36.3031 49.9442 36.4953 50.0265C36.5401 50.0478 36.5637 50.0678 36.5637 50.095C36.5633 50.1101 36.5597 50.125 36.5531 50.1386L36.4717 50.3463C36.4575 50.384 36.4375 50.3982 36.4139 50.3982C36.3951 50.3965 36.3768 50.3917 36.3596 50.384C36.2172 50.3224 36.065 50.2869 35.9101 50.279C35.7497 50.279 35.5668 50.3463 35.5668 50.5374C35.5668 50.6766 35.6954 50.758 35.8027 50.8134L36.1815 50.9963C36.4493 51.1261 36.6333 51.3066 36.6333 51.6192C36.638 52.097 36.2534 52.3519 35.811 52.3519Z" fill="#D6D6D6"/>
<path d="M38.7687 52.2131C38.5546 52.3058 38.3237 52.3532 38.0904 52.3524C37.3719 52.3524 37.0215 51.8462 37.0215 51.1443C37.0215 50.4423 37.4415 49.9102 38.1257 49.9102C38.3471 49.9078 38.5659 49.9567 38.7652 50.053C38.8065 50.0742 38.8194 50.0907 38.8194 50.112C38.8188 50.127 38.8156 50.1417 38.81 50.1556L38.731 50.3704C38.7215 50.401 38.7038 50.414 38.6838 50.414C38.6705 50.4119 38.6578 50.4075 38.646 50.401C38.4942 50.3207 38.3246 50.2802 38.1529 50.283C37.681 50.283 37.4957 50.7184 37.4957 51.1301C37.4957 51.6539 37.7411 51.9878 38.16 51.9878C38.3289 51.986 38.4957 51.9491 38.6496 51.8793C38.6624 51.8723 38.6764 51.8675 38.6909 51.8651C38.7144 51.8651 38.731 51.8816 38.7451 51.9158L38.8136 52.0999C38.8192 52.115 38.8224 52.131 38.823 52.1471C38.823 52.1754 38.81 52.1966 38.7687 52.2131Z" fill="#D6D6D6"/>
<path d="M41.0831 52.225C41.0831 52.2863 41.0583 52.3099 41.0005 52.3099H40.7315C40.6713 52.3099 40.6442 52.2863 40.6442 52.225V51.2752H39.6768V52.225C39.6768 52.2863 39.6497 52.3099 39.5918 52.3099H39.3264C39.265 52.3099 39.2344 52.2863 39.2344 52.225V50.0365C39.2344 49.9787 39.2721 49.9551 39.3264 49.9551H39.5918C39.6461 49.9551 39.6768 49.9751 39.6768 50.0365V50.9248H40.6442V50.0365C40.6442 49.9787 40.6772 49.9551 40.7315 49.9551H41.0005C41.0559 49.9551 41.0831 49.9751 41.0831 50.0365V52.225Z" fill="#D6D6D6"/>
<path d="M42.6178 52.3523C41.9677 52.3523 41.5938 51.8804 41.5938 51.1418C41.5938 50.4033 42.0019 49.9102 42.6414 49.9102C43.315 49.9102 43.6654 50.421 43.6654 51.1182C43.6654 51.8898 43.2265 52.3523 42.6178 52.3523ZM42.6308 50.2841C42.291 50.2841 42.0633 50.6003 42.0633 51.1312C42.0633 51.6963 42.2698 51.9818 42.6308 51.9818C42.9682 51.9818 43.1959 51.6857 43.1959 51.1312C43.1959 50.559 42.9953 50.2841 42.6308 50.2841Z" fill="#D6D6D6"/>
<path d="M45.0807 52.3523C44.4306 52.3523 44.0566 51.8804 44.0566 51.1418C44.0566 50.4033 44.4601 49.9102 45.1043 49.9102C45.7791 49.9102 46.1295 50.421 46.1295 51.1182C46.1295 51.8898 45.6906 52.3523 45.0807 52.3523ZM45.0948 50.2841C44.7539 50.2841 44.5262 50.6003 44.5262 51.1312C44.5262 51.6963 44.7338 51.9818 45.0948 51.9818C45.4311 51.9818 45.6599 51.6857 45.6599 51.1312C45.6599 50.559 45.4582 50.2841 45.0948 50.2841Z" fill="#D6D6D6"/>
<path d="M48.0002 52.2289C48.0002 52.2891 47.9695 52.3103 47.9176 52.3103H46.7024C46.6422 52.3103 46.6139 52.2891 46.6139 52.2147V50.0404C46.6124 50.0291 46.6135 50.0176 46.6171 50.0068C46.6207 49.996 46.6267 49.9861 46.6346 49.978C46.6426 49.9698 46.6523 49.9635 46.663 49.9596C46.6737 49.9557 46.6852 49.9543 46.6965 49.9555H46.9679C47.0292 49.9555 47.054 49.9791 47.054 50.044V51.9457H47.914C47.9718 51.9457 47.9966 51.9729 47.9966 52.0236L48.0002 52.2289Z" fill="#D6D6D6"/>
<path d="M1.1057 56.7672C1.1057 56.8144 1.08918 56.8356 1.04435 56.8356H0.850872C0.806041 56.8356 0.789524 56.8144 0.789524 56.7672V54.7392H0.132394C0.0922821 54.7392 0.078125 54.725 0.078125 54.6849V54.5421C0.078125 54.5009 0.0922822 54.4902 0.128855 54.4902H1.79351C1.83716 54.4902 1.85131 54.5115 1.84778 54.5445L1.82772 54.6849C1.82064 54.7321 1.78997 54.7392 1.74278 54.7392H1.1057V56.7672Z" fill="#D6D6D6"/>
<path d="M3.97132 56.7643C3.97132 56.8115 3.95126 56.8363 3.90643 56.8363H3.72357C3.71402 56.8373 3.70436 56.8361 3.69535 56.8328C3.68633 56.8295 3.6782 56.8241 3.67158 56.8172C3.66496 56.8102 3.66004 56.8018 3.65719 56.7927C3.65434 56.7835 3.65364 56.7738 3.65514 56.7643V55.7297H2.55914V56.7643C2.56064 56.7738 2.55994 56.7835 2.55709 56.7927C2.55424 56.8018 2.54931 56.8102 2.5427 56.8172C2.53608 56.8241 2.52795 56.8295 2.51893 56.8328C2.50992 56.8361 2.50026 56.8373 2.49071 56.8363H2.31139C2.30184 56.8373 2.29218 56.8361 2.28317 56.8328C2.27415 56.8295 2.26602 56.8241 2.2594 56.8172C2.25278 56.8102 2.24786 56.8018 2.24501 56.7927C2.24216 56.7835 2.24146 56.7738 2.24296 56.7643V54.5593C2.24156 54.55 2.24237 54.5405 2.24532 54.5316C2.24826 54.5226 2.25326 54.5145 2.25992 54.5079C2.26657 54.5012 2.27469 54.4962 2.28363 54.4933C2.29257 54.4903 2.30208 54.4895 2.31139 54.4909H2.49071C2.50002 54.4895 2.50952 54.4903 2.51846 54.4933C2.5274 54.4962 2.53552 54.5012 2.54218 54.5079C2.54883 54.5145 2.55384 54.5226 2.55678 54.5316C2.55973 54.5405 2.56053 54.55 2.55914 54.5593V55.4854H3.65514V54.5593C3.65374 54.55 3.65455 54.5405 3.6575 54.5316C3.66044 54.5226 3.66544 54.5145 3.6721 54.5079C3.67875 54.5012 3.68688 54.4962 3.69581 54.4933C3.70475 54.4903 3.71426 54.4895 3.72357 54.4909H3.90643C3.95126 54.4909 3.97132 54.5121 3.97132 54.5593V56.7643Z" fill="#D6D6D6"/>
<path d="M5.91122 56.7743C5.91122 56.8144 5.89353 56.8356 5.8428 56.8356H4.65477C4.59696 56.8356 4.58398 56.8215 4.58398 56.7636V54.5587C4.58398 54.5115 4.6005 54.4902 4.64769 54.4902H5.84633C5.89706 54.4902 5.90414 54.515 5.9006 54.5551L5.88645 54.6849C5.88645 54.7321 5.85223 54.7392 5.79443 54.7392H4.90016V55.4848H5.70004C5.74723 55.4848 5.76729 55.5048 5.76729 55.5449V55.6629C5.76729 55.7113 5.75077 55.7243 5.70358 55.7243H4.90016V56.582H5.84398C5.89471 56.582 5.91594 56.5985 5.91594 56.6398L5.91122 56.7743Z" fill="#D6D6D6"/>
<path d="M9.16445 55.8097C9.16445 56.4326 8.90608 56.8715 8.23243 56.8715C7.4939 56.8715 7.29688 56.4574 7.29688 55.7932V54.5591C7.29688 54.5155 7.31693 54.4907 7.36176 54.4907H7.54816C7.59653 54.4907 7.61305 54.5155 7.61305 54.5591V55.7601C7.61305 56.2167 7.67086 56.6037 8.23597 56.6037C8.77984 56.6037 8.84827 56.1955 8.84827 55.7566V54.5591C8.84712 54.5499 8.8481 54.5405 8.85113 54.5316C8.85417 54.5228 8.85917 54.5148 8.86577 54.5082C8.87237 54.5016 8.88038 54.4966 8.88921 54.4936C8.89803 54.4905 8.90743 54.4896 8.91669 54.4907H9.09956C9.14793 54.4907 9.16445 54.5155 9.16445 54.5591V55.8097Z" fill="#D6D6D6"/>
<path d="M11.6155 56.7639C11.6155 56.8217 11.5989 56.8359 11.5577 56.8359H11.4019C11.3606 56.8359 11.3335 56.8182 11.2993 56.771L10.0711 55.0485H10.0641V56.7639C10.0656 56.7734 10.0649 56.7831 10.062 56.7923C10.0592 56.8015 10.0542 56.8098 10.0476 56.8168C10.041 56.8238 10.0329 56.8291 10.0239 56.8324C10.0148 56.8357 10.0052 56.8369 9.99564 56.8359H9.83991C9.79154 56.8359 9.77148 56.8147 9.77148 56.7639V54.5625C9.77148 54.5117 9.79508 54.4905 9.83991 54.4905H9.97558C9.99387 54.4891 10.0122 54.4933 10.028 54.5026C10.0438 54.5118 10.0564 54.5258 10.0641 54.5424L11.3158 56.3015H11.3229V54.5625C11.3229 54.5082 11.3429 54.4905 11.3878 54.4905H11.5459C11.5978 54.4905 11.6107 54.5117 11.6107 54.5625L11.6155 56.7639Z" fill="#D6D6D6"/>
<path d="M13.0138 54.6472C13.0138 54.6944 13.0008 54.7014 12.956 54.7014H12.7484V56.6209H12.9525C12.9938 56.6209 13.0103 56.641 13.0103 56.6717V56.7802C13.0103 56.8179 13.0008 56.8356 12.9631 56.8356H12.2375C12.201 56.8356 12.1868 56.818 12.1868 56.7837V56.6658C12.1868 56.6315 12.1974 56.6186 12.2375 56.6186H12.4416V54.7014H12.2246C12.1868 54.7014 12.1738 54.6908 12.1738 54.6543V54.5363C12.1738 54.5021 12.1868 54.4844 12.221 54.4844H12.9607C13.0056 54.4844 13.0185 54.5021 13.0185 54.5327L13.0138 54.6472Z" fill="#D6D6D6"/>
<path d="M15.2872 54.4902C15.3485 54.4902 15.3485 54.5209 15.3344 54.5622L14.5486 56.7707C14.5435 56.79 14.532 56.807 14.5159 56.8188C14.4998 56.8306 14.4801 56.8365 14.4602 56.8356H14.3009C14.2525 56.8356 14.2289 56.8179 14.2089 56.7636L13.3984 54.5728C13.3854 54.5315 13.3913 54.4902 13.4467 54.4902H13.6438C13.7086 54.4902 13.7322 54.5044 13.7488 54.5551L14.3953 56.3897H14.4023L15.0253 54.5622C15.0453 54.5044 15.063 54.4902 15.1267 54.4902H15.2872Z" fill="#D6D6D6"/>
<path d="M17.0909 56.7743C17.0909 56.8144 17.0744 56.8356 17.0225 56.8356H15.8298C15.772 56.8356 15.7578 56.8215 15.7578 56.7636V54.5587C15.7578 54.5115 15.7755 54.4902 15.8227 54.4902H17.0202C17.0721 54.4902 17.078 54.515 17.0744 54.5551L17.0615 54.6849C17.0615 54.7321 17.0272 54.7392 16.9694 54.7392H16.074V55.4848H16.8739C16.9222 55.4848 16.9423 55.5048 16.9423 55.5449V55.6629C16.9423 55.7113 16.9258 55.7243 16.8774 55.7243H16.074V56.582H17.0178C17.0697 56.582 17.0898 56.5985 17.0898 56.6398L17.0909 56.7743Z" fill="#D6D6D6"/>
<path d="M18.2309 55.8824H17.9041V56.7636C17.9041 56.8085 17.884 56.8356 17.8404 56.8356H17.6528C17.6091 56.8356 17.5879 56.8108 17.5879 56.7636V54.5657C17.5879 54.5115 17.6056 54.4902 17.6563 54.4902H18.1518C18.4586 54.4902 18.7205 54.5516 18.8703 54.7356C18.9369 54.825 18.9815 54.9288 19.0004 55.0386C19.0193 55.1484 19.012 55.2611 18.9791 55.3676C18.9462 55.474 18.8887 55.5712 18.8111 55.6513C18.7336 55.7313 18.6383 55.7919 18.5329 55.8281V55.8352L19.0874 56.7636C19.1086 56.7943 19.1015 56.8356 19.0532 56.8356H18.8491C18.8274 56.8375 18.8056 56.8327 18.7868 56.8217C18.768 56.8107 18.753 56.7941 18.7441 56.7743L18.2309 55.8824ZM18.1223 54.7321H17.9041V55.644H18.1672C18.4656 55.644 18.6839 55.4848 18.6839 55.1816C18.6839 54.8477 18.4727 54.7321 18.1223 54.7321Z" fill="#D6D6D6"/>
<path d="M20.5898 56.2225C20.5898 56.0325 20.4577 55.924 20.2913 55.8355L19.8584 55.5995C19.7506 55.5517 19.6584 55.4746 19.5923 55.377C19.5262 55.2794 19.4888 55.1652 19.4844 55.0474C19.4844 54.6569 19.8489 54.4457 20.2052 54.4457C20.3908 54.441 20.5754 54.4756 20.7467 54.5472C20.7809 54.5614 20.801 54.5779 20.801 54.605C20.8005 54.6156 20.7981 54.626 20.7939 54.6357L20.7432 54.7749C20.741 54.7857 20.7351 54.7954 20.7264 54.8023C20.7178 54.8092 20.707 54.8129 20.696 54.8126C20.6817 54.8123 20.6677 54.8091 20.6547 54.8032C20.5184 54.743 20.3718 54.7094 20.2229 54.7041C20.0318 54.7041 19.8112 54.7926 19.8112 55.0203C19.8112 55.1972 19.9291 55.2963 20.0766 55.3742L20.44 55.5689C20.7054 55.7116 20.9036 55.8815 20.9036 56.1977C20.9036 56.6436 20.532 56.8678 20.1144 56.8678C19.9199 56.8661 19.7269 56.8343 19.5422 56.7734C19.5333 56.7714 19.525 56.7674 19.5178 56.7618C19.5107 56.7562 19.5048 56.7492 19.5006 56.7411C19.4965 56.733 19.4941 56.7241 19.4938 56.715C19.4934 56.7059 19.495 56.6969 19.4985 56.6885L19.5422 56.5351C19.5563 56.4903 19.5894 56.4832 19.6307 56.5009C19.7849 56.562 19.9486 56.5955 20.1144 56.6C20.3456 56.6012 20.5898 56.4915 20.5898 56.2225Z" fill="#D6D6D6"/>
<path d="M22.1818 54.6472C22.1818 54.6944 22.1688 54.7014 22.124 54.7014H21.9163V56.6209H22.1216C22.1617 56.6209 22.1794 56.641 22.1794 56.6717V56.7802C22.1794 56.8179 22.1688 56.8356 22.1311 56.8356H21.4067C21.3689 56.8356 21.356 56.818 21.356 56.7837V56.6658C21.356 56.6315 21.3654 56.6186 21.4067 56.6186H21.6108V54.7014H21.3925C21.356 54.7014 21.3418 54.6908 21.3418 54.6543V54.5363C21.3418 54.5021 21.356 54.4844 21.389 54.4844H22.124C22.1688 54.4844 22.1818 54.5021 22.1818 54.5327V54.6472Z" fill="#D6D6D6"/>
<path d="M23.5784 56.7672C23.5784 56.8144 23.5618 56.8356 23.517 56.8356H23.3235C23.2787 56.8356 23.2622 56.8144 23.2622 56.7672V54.7392H22.605C22.5649 54.7392 22.5508 54.725 22.5508 54.6849V54.5421C22.5508 54.5009 22.5649 54.4902 22.6015 54.4902H24.2662C24.3098 54.4902 24.324 54.5115 24.3204 54.5445L24.3004 54.6849C24.2933 54.7321 24.2626 54.7392 24.2143 54.7392H23.5784V56.7672Z" fill="#D6D6D6"/>
<path d="M26.262 54.5693L25.5754 55.9095V56.7743C25.5754 56.8179 25.5577 56.8356 25.5176 56.8356H25.3159C25.2758 56.8356 25.2581 56.8179 25.2581 56.7707V55.9166L24.5301 54.5587C24.5239 54.5483 24.5203 54.5365 24.5195 54.5244C24.5195 54.5044 24.5372 54.4902 24.5714 54.4902H24.7578C24.8157 54.4902 24.8499 54.5044 24.8758 54.548L25.4339 55.6511L25.9718 54.5587C25.999 54.5044 26.0167 54.4902 26.0768 54.4902H26.2208C26.2573 54.4902 26.275 54.5044 26.275 54.5244C26.2751 54.5403 26.2706 54.5559 26.262 54.5693Z" fill="#D6D6D6"/>
<path d="M28.4662 56.8697C27.8563 56.8697 27.5 56.4143 27.5 55.6722C27.5 54.9302 27.9047 54.4512 28.4969 54.4512C29.1222 54.4512 29.4667 54.9408 29.4667 55.6486C29.4667 56.419 29.0337 56.8697 28.4662 56.8697ZM28.4898 54.7131C28.0981 54.7131 27.8327 55.1012 27.8327 55.6569C27.8327 56.2468 28.0686 56.6007 28.4792 56.6007C28.8638 56.6007 29.1293 56.2338 29.1293 55.6486C29.1293 55.0635 28.9051 54.7107 28.4898 54.7107V54.7131Z" fill="#D6D6D6"/>
<path d="M31.1804 54.7396H30.2849V55.4852H31.0848C31.132 55.4852 31.1532 55.5052 31.1532 55.5453V55.6633C31.1532 55.7117 31.1355 55.7247 31.0883 55.7247H30.2849V56.7593C30.2849 56.8171 30.2684 56.8313 30.2165 56.8313H30.0395C29.9853 56.8313 29.9688 56.8207 29.9688 56.7558V54.5591C29.9688 54.5119 29.9853 54.4906 30.0336 54.4906H31.2311C31.2391 54.4896 31.2472 54.4906 31.2548 54.4934C31.2624 54.4963 31.2691 54.5009 31.2745 54.507C31.2798 54.513 31.2836 54.5203 31.2855 54.5281C31.2874 54.536 31.2874 54.5442 31.2854 54.552L31.2712 54.6853C31.2689 54.7325 31.2382 54.7396 31.1804 54.7396Z" fill="#D6D6D6"/>
<path d="M35.3758 54.5631L34.7222 56.7646C34.7192 56.7855 34.7085 56.8046 34.6921 56.8179C34.6757 56.8313 34.6548 56.8379 34.6337 56.8365H34.4674C34.4237 56.8365 34.3966 56.8188 34.3789 56.761L33.9164 54.9985L33.4445 56.761C33.428 56.8188 33.3997 56.8365 33.3525 56.8365H33.1956C33.1484 56.8365 33.1283 56.8259 33.1071 56.7575L32.4641 54.5761C32.46 54.5631 32.4577 54.5496 32.457 54.536C32.457 54.5124 32.4712 54.4912 32.5089 54.4912H32.7201C32.7838 54.4912 32.8086 54.5089 32.8216 54.5631L33.2935 56.3528L33.7524 54.5596C33.7666 54.5018 33.7937 54.4912 33.848 54.4912H33.9943C34.0136 54.4895 34.0328 54.4953 34.0479 54.5073C34.0631 54.5194 34.073 54.5369 34.0757 54.5561L34.5476 56.3528H34.5547L35.0384 54.5631C35.0397 54.5521 35.0432 54.5415 35.0486 54.5319C35.0541 54.5223 35.0615 54.5139 35.0703 54.5071C35.0791 54.5004 35.0892 54.4956 35.0999 54.4928C35.1106 54.4901 35.1218 54.4895 35.1327 54.4912H35.3168C35.3545 54.4912 35.3675 54.5089 35.3675 54.5325C35.3714 54.5423 35.3742 54.5526 35.3758 54.5631Z" fill="#D6D6D6"/>
<path d="M37.0922 56.7745L36.868 56.1409H35.9867L35.7508 56.778C35.7342 56.8217 35.7201 56.8358 35.6729 56.8358H35.4712C35.424 56.8358 35.431 56.7981 35.4405 56.7674L36.2946 54.5388C36.2984 54.5253 36.3064 54.5133 36.3174 54.5046C36.3284 54.4959 36.3419 54.4909 36.356 54.4904H36.5365C36.5499 54.4893 36.5633 54.4928 36.5744 54.5003C36.5856 54.5078 36.5938 54.5189 36.5978 54.5317L37.439 56.7639C37.452 56.8016 37.452 56.8358 37.3942 56.8358H37.183C37.1264 56.8358 37.1099 56.8252 37.0922 56.7745ZM36.7925 55.9062L36.52 55.1275C36.4787 55.0095 36.4551 54.9329 36.4421 54.8857C36.4244 54.9399 36.4008 55.0036 36.3572 55.1334L36.0776 55.9062H36.7925Z" fill="#D6D6D6"/>
<path d="M38.475 55.8824H38.1482V56.7636C38.1482 56.8085 38.1282 56.8356 38.0833 56.8356H37.8957C37.8521 56.8356 37.832 56.8108 37.832 56.7636V54.5657C37.832 54.5115 37.8485 54.4902 37.8993 54.4902H38.3901C38.6956 54.4902 38.9575 54.5516 39.1074 54.7356C39.174 54.8249 39.2186 54.9286 39.2376 55.0384C39.2566 55.1481 39.2494 55.2608 39.2166 55.3672C39.1838 55.4737 39.1264 55.5709 39.049 55.651C38.9716 55.7311 38.8764 55.7917 38.7711 55.8281V55.8352L39.3256 56.7636C39.3457 56.7943 39.3386 56.8356 39.2914 56.8356H39.0873C39.0655 56.8373 39.0437 56.8323 39.0247 56.8214C39.0058 56.8104 38.9906 56.794 38.9811 56.7743L38.475 55.8824ZM38.3653 54.7321H38.1482V55.644H38.4101C38.7098 55.644 38.9269 55.4848 38.9269 55.1816C38.9269 54.8477 38.7169 54.7321 38.3653 54.7321Z" fill="#D6D6D6"/>
<path d="M42.5312 54.563L41.8776 56.7644C41.8752 56.7856 41.8646 56.805 41.8481 56.8185C41.8315 56.832 41.8104 56.8384 41.7891 56.8364H41.6299C41.585 56.8364 41.5579 56.8187 41.5414 56.7609L41.0777 54.9983L40.6058 56.7609C40.5893 56.8187 40.5622 56.8364 40.515 56.8364H40.3581C40.3109 56.8364 40.2897 56.8258 40.2696 56.7574L39.6243 54.576C39.6202 54.5629 39.6178 54.5495 39.6172 54.5358C39.6172 54.5123 39.6313 54.491 39.6679 54.491H39.8791C39.944 54.491 39.9676 54.5087 39.9817 54.563L40.4536 56.3527L40.9138 54.5594C40.9267 54.5016 40.9539 54.491 41.0081 54.491H41.1544C41.1739 54.4893 41.1932 54.495 41.2086 54.5071C41.2239 54.5192 41.2341 54.5366 41.237 54.5559L41.7089 56.3527H41.7148L42.1985 54.563C42.2017 54.5408 42.2136 54.5208 42.2315 54.5073C42.2494 54.4938 42.2719 54.488 42.2941 54.491H42.4781C42.5147 54.491 42.5289 54.5087 42.5289 54.5323C42.5313 54.5423 42.5321 54.5527 42.5312 54.563Z" fill="#D6D6D6"/>
<path d="M43.7392 54.6472C43.7392 54.6944 43.7263 54.7014 43.6814 54.7014H43.4738V56.6209H43.6779C43.7192 56.6209 43.7357 56.641 43.7357 56.6717V56.7802C43.7357 56.8179 43.7263 56.8356 43.6885 56.8356H42.9641C42.9264 56.8356 42.9122 56.818 42.9122 56.7837V56.6658C42.9122 56.6315 42.9228 56.6186 42.9641 56.6186H43.1635V54.7014H42.9453C42.9075 54.7014 42.8945 54.6908 42.8945 54.6543V54.5363C42.8945 54.5021 42.9075 54.4844 42.9417 54.4844H43.6767C43.7215 54.4844 43.7345 54.5021 43.7345 54.5327L43.7392 54.6472Z" fill="#D6D6D6"/>
<path d="M45.8425 56.4885C45.8731 56.472 45.9003 56.479 45.9168 56.5191L45.9616 56.6253C45.9673 56.6336 45.9708 56.6432 45.9718 56.6532C45.9729 56.6631 45.9715 56.6732 45.9678 56.6825C45.9641 56.6919 45.9581 56.7001 45.9505 56.7066C45.9428 56.7131 45.9337 56.7176 45.9239 56.7197C45.7191 56.8175 45.4948 56.8676 45.2679 56.866C44.5601 56.866 44.2227 56.3257 44.2227 55.6615C44.2227 54.9972 44.6108 54.4475 45.2915 54.4475C45.5088 54.4436 45.7234 54.496 45.9144 54.5997C45.9416 54.6174 45.9546 54.628 45.9546 54.648C45.9536 54.6618 45.9504 54.6754 45.9451 54.6881L45.8897 54.8144C45.8802 54.838 45.8661 54.8486 45.8496 54.8486C45.8384 54.8485 45.8277 54.8448 45.8189 54.838C45.6648 54.7486 45.4897 54.7018 45.3116 54.7023C45.2076 54.7013 45.1048 54.7241 45.0109 54.7689C44.9171 54.8136 44.8347 54.8792 44.7701 54.9607C44.6247 55.1585 44.5507 55.3997 44.5601 55.6449C44.5601 56.1558 44.796 56.6147 45.3116 56.6147C45.4958 56.6133 45.6773 56.5702 45.8425 56.4885Z" fill="#D6D6D6"/>
<path d="M47.936 56.8356H47.7001C47.6746 56.8378 47.649 56.8329 47.6261 56.8214C47.6032 56.81 47.5839 56.7925 47.5703 56.7708L46.7197 55.7491V56.7637C46.7197 56.8109 46.6996 56.8356 46.656 56.8356H46.4672C46.4236 56.8356 46.4023 56.8109 46.4023 56.7637V54.5587C46.4023 54.5115 46.4236 54.4903 46.4672 54.4903H46.6548C46.6985 54.4903 46.7185 54.5115 46.7185 54.5587V55.545L47.5385 54.5351C47.5498 54.5207 47.5644 54.5092 47.5809 54.5014C47.5975 54.4936 47.6157 54.4898 47.634 54.4903H47.8251C47.8523 54.4903 47.8653 54.5044 47.8653 54.5245C47.865 54.5343 47.8617 54.5438 47.8558 54.5516L46.984 55.6134L47.9537 56.7531C47.968 56.7685 47.9774 56.7878 47.9809 56.8085C47.9809 56.825 47.9667 56.8356 47.936 56.8356Z" fill="#D6D6D6"/>
<path d="M26.5812 35.0121V25.8099C26.579 25.6831 26.5268 25.5624 26.436 25.474C26.3451 25.3856 26.223 25.3367 26.0963 25.338H22.8708C22.8081 25.3369 22.7459 25.3483 22.6877 25.3715C22.6295 25.3947 22.5765 25.4293 22.5318 25.4732C22.4871 25.5172 22.4516 25.5695 22.4273 25.6273C22.4031 25.6851 22.3906 25.7472 22.3906 25.8099V26.2617C22.3906 26.3244 22.4031 26.3864 22.4273 26.4442C22.4516 26.502 22.4871 26.5544 22.5318 26.5984C22.5765 26.6423 22.6295 26.6769 22.6877 26.7001C22.7459 26.7233 22.8081 26.7347 22.8708 26.7336H23.8488C23.9669 26.7431 24.0773 26.7955 24.1593 26.8809C24.2413 26.9664 24.2891 27.0789 24.2936 27.1973V43.7341C25.1336 45.1569 27.2182 46.1632 29.6556 46.1632C31.6046 46.1632 36.6729 45.361 36.6729 38.2364C36.6741 29.2772 26.5812 31.6851 26.5812 35.0121ZM34.1175 39.4798C34.1175 41.0831 32.9684 45.053 29.7005 45.053C27.2064 45.053 26.5694 42.8363 26.5812 41.0867V39.0964C26.5812 37.3551 27.1215 33.7957 30.6089 33.7957C34.5894 33.7957 34.1163 39.2474 34.1175 39.4798Z" fill="white"/>
<path d="M22.7721 32.4784C22.7134 32.4538 22.6505 32.441 22.5869 32.4407H17.948C17.8693 32.4414 17.792 32.4615 17.7229 32.4991C17.6538 32.5368 17.595 32.5909 17.5516 32.6566C17.5015 32.7334 17.4749 32.8232 17.475 32.9149V33.3739C17.4751 33.4361 17.4871 33.4978 17.5104 33.5556C17.5461 33.6379 17.6047 33.7083 17.6791 33.7585C17.7587 33.817 17.8551 33.8485 17.9539 33.8481H19.1408C19.1907 33.852 19.239 33.8681 19.2812 33.895C19.3235 33.9218 19.3586 33.9586 19.3834 34.0021C19.4082 34.0457 19.4219 34.0946 19.4235 34.1447C19.425 34.1947 19.4142 34.2444 19.3921 34.2894L16.8131 41.4859C16.7246 41.7313 16.5772 41.7325 16.4899 41.4859L13.3517 32.8878C13.2983 32.7613 13.2103 32.6525 13.0978 32.5738C12.9853 32.4951 12.8529 32.4498 12.7158 32.443H12.5718C12.4347 32.4498 12.3023 32.4951 12.1898 32.5738C12.0773 32.6525 11.9893 32.7613 11.936 32.8878L8.773 41.5414C8.68334 41.7856 8.53705 41.7868 8.44384 41.5414L5.70914 34.2788C5.68727 34.2369 5.67559 34.1905 5.67506 34.1433C5.67453 34.0961 5.68516 34.0494 5.7061 34.0071C5.72703 33.9647 5.75766 33.928 5.79551 33.8997C5.83335 33.8715 5.87733 33.8526 5.92386 33.8446H6.72728C6.85244 33.8446 6.97247 33.7949 7.06097 33.7064C7.14947 33.6179 7.19919 33.4978 7.19919 33.3727V32.9208C7.1993 32.8515 7.18414 32.783 7.15478 32.7202C7.12541 32.6574 7.08257 32.6018 7.0293 32.5575C7.02222 32.5516 7.01751 32.5445 7.01043 32.5398C6.92583 32.4708 6.81993 32.4333 6.71077 32.4336H2.06956C1.98668 32.4337 1.9053 32.4557 1.83361 32.4973C1.76695 32.5365 1.7107 32.5911 1.66962 32.6566C1.62266 32.7315 1.59773 32.8182 1.59766 32.9067V33.3656C1.5977 33.4116 1.60446 33.4573 1.61771 33.5013C1.64018 33.5764 1.68068 33.6448 1.73569 33.7007C1.78055 33.7497 1.83527 33.7887 1.89627 33.8152C1.95726 33.8416 2.02315 33.8548 2.08962 33.854H2.85293C2.97153 33.877 3.08274 33.9285 3.1769 34.0041C3.27106 34.0798 3.34533 34.1773 3.39326 34.2882L7.45284 45.2116C7.50673 45.338 7.59524 45.4466 7.70816 45.5249C7.82109 45.6032 7.95383 45.648 8.09109 45.6541H8.26688C8.40418 45.6468 8.53663 45.6008 8.64894 45.5215C8.76125 45.4422 8.84883 45.3327 8.90159 45.2058L9.17766 44.4413L9.49973 43.5505L11.9772 36.7468C12.0669 36.5014 12.2132 36.5014 12.3017 36.7468L15.3691 45.1987C15.4222 45.3255 15.51 45.4346 15.6226 45.5135C15.7351 45.5925 15.8677 45.6379 16.005 45.6446H16.1678C16.3052 45.6378 16.4378 45.5924 16.5507 45.5138C16.6635 45.4351 16.752 45.3264 16.806 45.1999L20.842 34.2953C20.8918 34.1791 20.9705 34.0776 21.0707 34.0006C21.1709 33.9235 21.2891 33.8735 21.4142 33.8552H22.594C22.6576 33.8549 22.7205 33.8421 22.7792 33.8175C22.8649 33.7812 22.9379 33.7204 22.9891 33.6427C23.0403 33.5651 23.0674 33.474 23.0671 33.3809V32.9208C23.068 32.826 23.0404 32.7331 22.9878 32.6541C22.9352 32.5752 22.86 32.514 22.7721 32.4784Z" fill="white"/>
<path d="M46.1561 41.3198C45.9329 40.5315 45.4488 39.8423 44.7829 39.3649C44.5469 39.1903 44.2933 39.0346 44.0491 38.8718L42.3891 37.7593C41.7426 37.3275 41.0914 36.8992 40.4484 36.4674C39.8054 36.0356 39.5719 35.1803 39.9907 34.522C40.3776 33.9121 41.1256 33.61 41.8228 33.564C42.5567 33.5157 43.4521 33.7493 43.9618 34.3097C44.1977 34.5621 44.1859 34.8134 44.1859 35.1355C44.1859 35.3986 44.239 35.6676 44.5328 35.7501C44.7239 35.7846 44.9192 35.7901 45.112 35.7667C45.1775 35.7646 45.242 35.7493 45.3015 35.7219C45.361 35.6944 45.4143 35.6552 45.4584 35.6066C45.5024 35.5581 45.5362 35.5012 45.5578 35.4393C45.5794 35.3774 45.5883 35.3118 45.5839 35.2464V34.0666C45.5839 33.6667 45.5839 33.2679 45.5839 32.868C45.5917 32.7573 45.5615 32.6472 45.4982 32.556C45.4349 32.4649 45.3424 32.398 45.2359 32.3666C45.1151 32.3461 44.9923 32.3409 44.8702 32.3512C43.9535 32.3512 43.025 32.3123 42.1095 32.3784C40.3328 32.5058 38.116 33.2632 37.676 35.231C37.3869 36.5288 38.2151 37.744 39.2498 38.4353C39.7842 38.7892 43.0958 40.9812 43.2456 41.111C43.547 41.3634 43.77 41.6966 43.8886 42.0713C43.9925 42.4018 44.013 42.7529 43.9481 43.0932C43.8833 43.4335 43.7352 43.7524 43.517 44.0215C43.0632 44.5678 42.4171 44.9191 41.712 45.0031C40.9365 45.1027 40.153 44.8934 39.5306 44.4203C39.2749 44.2377 39.0458 44.0205 38.8498 43.7749C38.7601 43.6676 38.6855 43.5485 38.628 43.421C38.5876 43.2833 38.5716 43.1395 38.5808 42.9963V41.9616C38.5829 41.8942 38.5709 41.8271 38.5458 41.7645C38.5207 41.7019 38.4829 41.6452 38.4348 41.5979C38.3868 41.5506 38.3294 41.5138 38.2665 41.4897C38.2035 41.4656 38.1362 41.4547 38.0688 41.4579C37.8329 41.4579 37.5344 41.4071 37.3433 41.5758C37.1864 41.715 37.1816 41.8967 37.1816 42.0867V43.8776C37.1816 44.1041 37.1345 44.5158 37.3079 44.6963C37.5377 44.9374 37.8012 45.144 38.0901 45.3098C38.6843 45.6431 39.3291 45.8766 39.9989 46.0011C40.8644 46.1859 41.7552 46.2198 42.6322 46.1014C43.9122 45.9068 45.0755 45.2178 45.7208 44.0746C46.1809 43.2523 46.398 42.2424 46.1561 41.3198Z" fill="white"/>
</svg>
