<svg width="21" height="15" viewBox="0 0 21 15" fill="none" xmlns="http://www.w3.org/2000/svg">
<path d="M10.506 14.012H10.486C10.424 14.012 4.221 14 2.656 13.575C1.79543 13.3432 1.12335 12.6707 0.892004 11.81C0.610583 10.2224 0.474685 8.61235 0.486004 7C0.478734 5.38501 0.618308 3.77271 0.903004 2.183C1.14071 1.32151 1.80983 0.645949 2.669 0.4C4.191 0 10.223 0 10.479 0H10.5C10.563 0 16.782 0.012 18.331 0.437C19.1898 0.670009 19.8605 1.3411 20.093 2.2C20.3834 3.79354 20.5197 5.41134 20.5 7.031C20.507 8.64403 20.3671 10.2543 20.082 11.842C19.8477 12.7016 19.1752 13.3726 18.315 13.605C16.795 14.008 10.762 14.012 10.506 14.012ZM8.506 4.005L8.50101 10.005L13.713 7.005L8.506 4.005Z" fill="#1A1A23"/>
</svg>
