<svg width="160" height="160" viewBox="0 0 160 160" fill="none" xmlns="http://www.w3.org/2000/svg">
<path d="M73.3621 111.751C73.3621 116.803 70.5391 121.419 66.041 123.665L46.8389 133.302V104.889C46.8389 99.8364 49.6618 95.2204 54.1599 92.9748L73.3621 83.3374V111.751ZM113.162 91.7584C113.162 96.8111 110.308 101.427 105.841 103.704L86.6392 113.341V48.2497C86.6392 43.197 89.4621 38.581 93.9602 36.3354L113.162 26.698V91.7584Z" fill="white"/>
<path d="M122.967 0H37.0378C16.8119 0 0.432617 16.4678 0.432617 36.8031V123.197C0.432617 143.532 16.8119 160 37.0378 160C57.2636 160 122.967 160 122.967 160C143.193 160 159.572 143.532 159.572 123.197V36.8031C159.572 16.4678 143.193 0 122.967 0ZM73.3637 111.75C73.3637 116.803 70.5408 121.419 66.0427 123.665L46.8405 133.302V104.889C46.8405 99.8363 49.6634 95.2203 54.1615 92.9747L73.3637 83.3372V111.75ZM113.164 91.7583C113.164 96.8109 110.31 101.427 105.843 103.704L86.6408 113.341V48.2495C86.6408 43.1969 89.4637 38.5809 93.9618 36.3353L113.164 26.6979V91.7583Z" fill="#FF4810"/>
</svg>
