<svg width="80" height="80" viewBox="0 0 80 80" fill="none" xmlns="http://www.w3.org/2000/svg">
<path d="M0 24C0 10.7452 10.7452 0 24 0H56C69.2548 0 80 10.7452 80 24V56C80 69.2548 69.2548 80 56 80H24C10.7452 80 0 69.2548 0 56V24Z" fill="white"/>
<path d="M41.938 42.032L37.882 46.114H45.37V49H33.436V46.686L39.754 40.238C41.496 38.496 42.406 37.508 42.406 35.922C42.406 34.362 41.184 33.27 39.338 33.27C37.44 33.27 36.166 34.518 36.14 36.312H33.202C33.254 33.036 35.802 30.488 39.338 30.488C43.03 30.488 45.422 32.854 45.422 35.818C45.422 38.288 43.862 40.082 41.938 42.032Z" fill="#898D94"/>
</svg>
