<svg width="80" height="80" viewBox="0 0 80 80" fill="none" xmlns="http://www.w3.org/2000/svg">
<path d="M0 24C0 10.7452 10.7452 0 24 0H56C69.2548 0 80 10.7452 80 24V56C80 69.2548 69.2548 80 56 80H24C10.7452 80 0 69.2548 0 56V24Z" fill="white"/>
<path d="M42.718 39.536C44.252 40.16 45.734 41.512 45.734 44.008C45.734 46.816 43.29 49.312 39.494 49.312C35.594 49.312 33.332 46.79 33.046 44.008H36.062C36.218 45.152 37.388 46.53 39.468 46.53C41.522 46.53 42.718 45.36 42.718 43.774C42.718 42.162 41.522 40.992 39.364 40.992H38.064V38.47H39.234C41.184 38.47 42.302 37.378 42.302 35.896C42.302 34.388 41.184 33.27 39.39 33.27C37.57 33.27 36.452 34.466 36.322 35.688H33.306C33.514 32.958 35.906 30.488 39.364 30.488C42.952 30.488 45.318 32.906 45.318 35.688C45.318 37.56 44.07 38.808 42.718 39.536Z" fill="#898D94"/>
</svg>
