<svg width="256" height="38" viewBox="0 0 256 38" fill="none" xmlns="http://www.w3.org/2000/svg">
<rect width="128" height="38" rx="5" fill="black"/>
<path d="M64.603 20.6636C62.373 20.6636 60.5554 22.3632 60.5554 24.704C60.5554 27.0305 62.373 28.7443 64.603 28.7443C66.834 28.7443 68.6516 27.0305 68.6516 24.704C68.6507 22.3632 66.8331 20.6636 64.603 20.6636ZM64.603 27.154C63.3809 27.154 62.3275 26.1442 62.3275 24.7049C62.3275 23.2505 63.3818 22.2558 64.603 22.2558C65.8252 22.2558 66.8786 23.2505 66.8786 24.7049C66.8786 26.1432 65.8252 27.154 64.603 27.154ZM55.772 20.6636C53.5419 20.6636 51.7243 22.3632 51.7243 24.704C51.7243 27.0305 53.5419 28.7443 55.772 28.7443C58.003 28.7443 59.8206 27.0305 59.8206 24.704C59.8206 22.3632 58.003 20.6636 55.772 20.6636ZM55.772 27.154C54.5498 27.154 53.4964 26.1442 53.4964 24.7049C53.4964 23.2505 54.5508 22.2558 55.772 22.2558C56.9941 22.2558 58.0475 23.2505 58.0475 24.7049C58.0485 26.1432 56.9941 27.154 55.772 27.154ZM45.2684 21.9043V23.6181H49.3625C49.2402 24.5824 48.9197 25.2863 48.4305 25.7756C47.835 26.3722 46.903 27.0305 45.2684 27.0305C42.7482 27.0305 40.778 24.9947 40.778 22.4696C40.778 19.9445 42.7482 17.9086 45.2684 17.9086C46.628 17.9086 47.6207 18.4444 48.3537 19.1332L49.5606 17.9238C48.5366 16.9444 47.178 16.1948 45.2684 16.1948C41.8162 16.1948 38.9139 19.0106 38.9139 22.4696C38.9139 25.9285 41.8162 28.7443 45.2684 28.7443C47.1315 28.7443 48.5376 28.1316 49.6365 26.984C50.7667 25.8516 51.1185 24.2594 51.1185 22.974C51.1185 22.5769 51.0881 22.2093 51.0265 21.9034H45.2684V21.9043ZM88.2271 23.2353C87.8914 22.3328 86.8674 20.6636 84.7749 20.6636C82.6975 20.6636 80.9709 22.3014 80.9709 24.704C80.9709 26.9688 82.6823 28.7443 84.973 28.7443C86.821 28.7443 87.8905 27.6119 88.3342 26.9536L86.9594 26.0349C86.5014 26.7085 85.8747 27.1521 84.973 27.1521C84.0723 27.1521 83.4304 26.7389 83.0179 25.9276L88.4101 23.6932L88.2271 23.2353ZM82.7278 24.5824C82.6823 23.0206 83.9348 22.2254 84.8365 22.2254C85.5391 22.2254 86.1345 22.5779 86.3336 23.0823L82.7278 24.5824ZM78.3445 28.5002H80.1157V16.6242H78.3445V28.5002ZM75.4413 21.5671H75.3806C74.9833 21.0921 74.2191 20.6636 73.2577 20.6636C71.241 20.6636 69.3931 22.4392 69.3931 24.7201C69.3931 26.9849 71.241 28.7453 73.2577 28.7453C74.2201 28.7453 74.9833 28.3168 75.3806 27.8276H75.4413V28.409C75.4413 29.9546 74.6164 30.7811 73.2881 30.7811C72.2034 30.7811 71.5311 30.0012 71.2562 29.3428L69.7135 29.986C70.1563 31.0566 71.332 32.3733 73.2881 32.3733C75.3654 32.3733 77.1224 31.1488 77.1224 28.1639V20.9097H75.4422V21.5671H75.4413ZM73.4104 27.154C72.1882 27.154 71.1651 26.128 71.1651 24.7201C71.1651 23.2961 72.1882 22.2558 73.4104 22.2558C74.6164 22.2558 75.5636 23.2961 75.5636 24.7201C75.5636 26.128 74.6164 27.154 73.4104 27.154ZM96.5272 16.6242H92.288V28.5002H94.0563V24.001H96.5262C98.487 24.001 100.416 22.5788 100.416 20.3131C100.416 18.0473 98.4879 16.6242 96.5272 16.6242ZM96.5727 22.348H94.0563V18.2772H96.5727C97.8953 18.2772 98.6463 19.3745 98.6463 20.3131C98.6463 21.2327 97.8953 22.348 96.5727 22.348ZM107.507 20.6427C106.226 20.6427 104.899 21.208 104.35 22.461L105.92 23.1175C106.256 22.461 106.882 22.2463 107.537 22.2463C108.452 22.2463 109.382 22.7964 109.397 23.7739V23.8965C109.077 23.7131 108.39 23.4386 107.552 23.4386C105.86 23.4386 104.136 24.3705 104.136 26.1119C104.136 27.7012 105.524 28.7244 107.079 28.7244C108.268 28.7244 108.924 28.1895 109.336 27.5625H109.396V28.4793H111.105V23.9259C111.106 21.8188 109.534 20.6427 107.507 20.6427ZM107.292 27.1512C106.714 27.1512 105.905 26.8605 105.905 26.1423C105.905 25.2255 106.912 24.874 107.782 24.874C108.558 24.874 108.925 25.0422 109.397 25.2711C109.26 26.3722 108.315 27.1512 107.292 27.1512ZM117.327 20.9021L115.299 26.0511H115.238L113.133 20.9021H111.227L114.384 28.0983L112.584 32.1016H114.429L119.294 20.9021H117.327ZM101.392 28.5002H103.16V16.6242H101.392V28.5002Z" fill="white"/>
<path d="M44.9593 9.73078C44.9593 10.5269 44.7242 11.1605 44.253 11.6336C43.7182 12.196 43.0204 12.4772 42.1632 12.4772C41.3422 12.4772 40.6434 12.1922 40.0697 11.6222C39.4952 11.0513 39.2079 10.3445 39.2079 9.50088C39.2079 8.65633 39.4952 7.94953 40.0697 7.37953C40.6434 6.80858 41.3422 6.52358 42.1632 6.52358C42.571 6.52358 42.9606 6.60338 43.3304 6.76203C43.7011 6.92163 43.9979 7.13348 44.2198 7.39853L43.7201 7.90013C43.3437 7.44888 42.8251 7.22373 42.1623 7.22373C41.5631 7.22373 41.0454 7.43463 40.6083 7.85643C40.1712 8.27823 39.9531 8.82638 39.9531 9.49993C39.9531 10.1735 40.1712 10.7216 40.6083 11.1434C41.0454 11.5652 41.5631 11.7761 42.1623 11.7761C42.7976 11.7761 43.3276 11.5643 43.7514 11.1396C44.0264 10.8632 44.1856 10.4784 44.2283 9.98538H42.1623V9.30043H44.9186C44.947 9.44958 44.9593 9.59303 44.9593 9.73078Z" fill="white"/>
<path d="M49.3304 7.35014H46.74V9.15704H49.0763V9.84199H46.74V11.6489H49.3304V12.35H46.009V6.64999H49.3304V7.35014Z" fill="white"/>
<path d="M52.4127 12.35H51.6817V7.35014H50.0926V6.64999H54.0018V7.35014H52.4127V12.35Z" fill="white"/>
<path d="M56.8301 12.35V6.64999H57.5611V12.35H56.8301Z" fill="white"/>
<path d="M60.803 12.35H60.072V7.35014H58.4829V6.64999H62.3921V7.35014H60.803V12.35Z" fill="white"/>
<path d="M69.7922 11.6137C69.2328 12.1894 68.5378 12.4773 67.7062 12.4773C66.8747 12.4773 66.1797 12.1894 65.6213 11.6137C65.0619 11.038 64.7831 10.3331 64.7831 9.49998C64.7831 8.66683 65.0619 7.96193 65.6213 7.38623C66.1797 6.81053 66.8747 6.52173 67.7062 6.52173C68.533 6.52173 69.2271 6.81148 69.7884 7.39003C70.3497 7.96858 70.6303 8.67158 70.6303 9.49998C70.6303 10.3331 70.3506 11.038 69.7922 11.6137ZM66.1608 11.1359C66.5817 11.5634 67.0966 11.7762 67.7062 11.7762C68.3159 11.7762 68.8317 11.5624 69.2517 11.1359C69.6727 10.7084 69.8841 10.1631 69.8841 9.49998C69.8841 8.83688 69.6727 8.29158 69.2517 7.86408C68.8317 7.43658 68.3159 7.22378 67.7062 7.22378C67.0966 7.22378 66.5817 7.43753 66.1608 7.86408C65.7407 8.29158 65.5293 8.83688 65.5293 9.49998C65.5293 10.1631 65.7407 10.7084 66.1608 11.1359Z" fill="white"/>
<path d="M71.6562 12.35V6.64999H72.5456L75.3104 11.0836H75.3417L75.3104 9.98544V6.64999H76.0414V12.35H75.2782L72.3854 7.70069H72.3541L72.3854 8.79889V12.35H71.6562Z" fill="white"/>
<path d="M44.9593 9.73078C44.9593 10.5269 44.7242 11.1605 44.253 11.6336C43.7182 12.196 43.0204 12.4772 42.1632 12.4772C41.3422 12.4772 40.6434 12.1922 40.0697 11.6222C39.4952 11.0513 39.2079 10.3445 39.2079 9.50088C39.2079 8.65633 39.4952 7.94953 40.0697 7.37953C40.6434 6.80858 41.3422 6.52358 42.1632 6.52358C42.571 6.52358 42.9606 6.60338 43.3304 6.76203C43.7011 6.92163 43.9979 7.13348 44.2198 7.39853L43.7201 7.90013C43.3437 7.44888 42.8251 7.22373 42.1623 7.22373C41.5631 7.22373 41.0454 7.43463 40.6083 7.85643C40.1712 8.27823 39.9531 8.82638 39.9531 9.49993C39.9531 10.1735 40.1712 10.7216 40.6083 11.1434C41.0454 11.5652 41.5631 11.7761 42.1623 11.7761C42.7976 11.7761 43.3276 11.5643 43.7514 11.1396C44.0264 10.8632 44.1856 10.4784 44.2283 9.98538H42.1623V9.30043H44.9186C44.947 9.44958 44.9593 9.59303 44.9593 9.73078Z" stroke="white" stroke-width="0.2" stroke-miterlimit="10"/>
<path d="M49.3304 7.35014H46.74V9.15704H49.0763V9.84199H46.74V11.6489H49.3304V12.35H46.009V6.64999H49.3304V7.35014Z" stroke="white" stroke-width="0.2" stroke-miterlimit="10"/>
<path d="M52.4127 12.35H51.6817V7.35014H50.0926V6.64999H54.0018V7.35014H52.4127V12.35Z" stroke="white" stroke-width="0.2" stroke-miterlimit="10"/>
<path d="M56.8301 12.35V6.64999H57.5611V12.35H56.8301Z" stroke="white" stroke-width="0.2" stroke-miterlimit="10"/>
<path d="M60.803 12.35H60.072V7.35014H58.4829V6.64999H62.3921V7.35014H60.803V12.35Z" stroke="white" stroke-width="0.2" stroke-miterlimit="10"/>
<path d="M69.7922 11.6137C69.2328 12.1894 68.5378 12.4773 67.7062 12.4773C66.8747 12.4773 66.1797 12.1894 65.6213 11.6137C65.0619 11.038 64.7831 10.3331 64.7831 9.49998C64.7831 8.66683 65.0619 7.96193 65.6213 7.38623C66.1797 6.81053 66.8747 6.52173 67.7062 6.52173C68.533 6.52173 69.2271 6.81148 69.7884 7.39003C70.3497 7.96858 70.6303 8.67158 70.6303 9.49998C70.6303 10.3331 70.3506 11.038 69.7922 11.6137ZM66.1608 11.1359C66.5817 11.5634 67.0966 11.7762 67.7062 11.7762C68.3159 11.7762 68.8317 11.5624 69.2517 11.1359C69.6727 10.7084 69.8841 10.1631 69.8841 9.49998C69.8841 8.83688 69.6727 8.29158 69.2517 7.86408C68.8317 7.43658 68.3159 7.22378 67.7062 7.22378C67.0966 7.22378 66.5817 7.43753 66.1608 7.86408C65.7407 8.29158 65.5293 8.83688 65.5293 9.49998C65.5293 10.1631 65.7407 10.7084 66.1608 11.1359Z" stroke="white" stroke-width="0.2" stroke-miterlimit="10"/>
<path d="M71.6562 12.35V6.64999H72.5456L75.3104 11.0836H75.3417L75.3104 9.98544V6.64999H76.0414V12.35H75.2782L72.3854 7.70069H72.3541L72.3854 8.79889V12.35H71.6562Z" stroke="white" stroke-width="0.2" stroke-miterlimit="10"/>
<g filter="url(#filter0_ii)">
<path d="M9.89487 7.16115C9.61896 7.45375 9.45588 7.90785 9.45588 8.4959V29.5061C9.45588 30.0951 9.61896 30.5482 9.89487 30.8408L9.96503 30.9092L21.7116 19.1397V19.001V18.8623L9.96503 7.0918L9.89487 7.16115Z" fill="url(#paint0_linear)"/>
<path d="M25.6265 23.0642L21.7116 19.1397V19.001V18.8623L25.6275 14.9388L25.7157 14.9892L30.355 17.6302C31.6795 18.3845 31.6795 19.6185 30.355 20.3738L25.7157 23.0148L25.6265 23.0642Z" fill="url(#paint1_linear)"/>
<g filter="url(#filter1_i)">
<path d="M25.7157 23.0138L21.7107 19.001L9.89488 30.8408C10.331 31.3044 11.0526 31.3614 11.8651 30.8997L25.7157 23.0138Z" fill="url(#paint2_linear)"/>
</g>
<path d="M25.7157 14.9882L11.8651 7.10321C11.0526 6.64056 10.331 6.69851 9.89488 7.16211L21.7116 19.002L25.7157 14.9882Z" fill="url(#paint3_linear)"/>
</g>
<rect x="143" width="113" height="38" rx="7" fill="#0C0D10"/>
<path d="M219.77 18.2408V20.4173H218.418V21.8446H219.77V26.6944C219.77 28.3504 220.513 29.0128 222.381 29.0128C222.709 29.0128 223.022 28.9733 223.295 28.926V27.5145C223.061 27.5381 222.912 27.5539 222.655 27.5539C221.818 27.5539 221.451 27.1596 221.451 26.2606V21.8446H223.295V20.4173H221.451V18.2408H219.77Z" fill="white"/>
<path d="M228.055 29.1311C230.54 29.1311 232.064 27.4514 232.064 24.6677C232.064 21.8998 230.532 20.2123 228.055 20.2123C225.569 20.2123 224.037 21.8998 224.037 24.6677C224.037 27.4514 225.561 29.1311 228.055 29.1311ZM228.055 27.6249C226.593 27.6249 225.772 26.5445 225.772 24.6677C225.772 22.8067 226.593 21.7185 228.055 21.7185C229.508 21.7185 230.337 22.8067 230.337 24.6677C230.337 26.5366 229.508 27.6249 228.055 27.6249Z" fill="white"/>
<path d="M233.369 28.9655H235.049V23.8949C235.049 22.6884 235.948 21.8762 237.222 21.8762C237.519 21.8762 238.019 21.9314 238.16 21.9787V20.3069C237.98 20.2596 237.66 20.2359 237.41 20.2359C236.3 20.2359 235.354 20.851 235.112 21.6948H234.987V20.3779H233.369V28.9655Z" fill="white"/>
<path d="M242.333 21.6554C243.576 21.6554 244.389 22.5307 244.428 23.8791H240.129C240.222 22.5386 241.09 21.6554 242.333 21.6554ZM244.42 26.647C244.107 27.3173 243.412 27.688 242.395 27.688C241.051 27.688 240.183 26.7338 240.129 25.2276V25.133H246.14V24.5416C246.14 21.8446 244.709 20.2123 242.341 20.2123C239.941 20.2123 238.417 21.955 238.417 24.6993C238.417 27.4435 239.91 29.1311 242.349 29.1311C244.295 29.1311 245.655 28.1848 246.038 26.647H244.42Z" fill="white"/>
<path d="M208.749 25.7942C208.879 27.9029 210.621 29.2515 213.213 29.2515C215.984 29.2515 217.718 27.8375 217.718 25.5817C217.718 23.8081 216.729 22.8273 214.331 22.2633L213.043 21.9446C211.52 21.5849 210.904 21.1027 210.904 20.2608C210.904 19.1983 211.86 18.5036 213.294 18.5036C214.655 18.5036 215.595 19.182 215.765 20.269H217.532C217.426 18.2829 215.692 16.8853 213.319 16.8853C210.767 16.8853 209.065 18.2829 209.065 20.3834C209.065 22.1162 210.029 23.146 212.144 23.6446L213.651 24.0124C215.198 24.3802 215.879 24.9196 215.879 25.8187C215.879 26.8649 214.809 27.625 213.351 27.625C211.787 27.625 210.702 26.9139 210.548 25.7942H208.749Z" fill="white"/>
<path d="M191.34 20.2359C190.184 20.2359 189.183 20.8195 188.667 21.7973H188.542V20.3779H186.924V31.8201H188.605V27.6643H188.738C189.183 28.5712 190.144 29.1074 191.356 29.1074C193.506 29.1074 194.874 27.3962 194.874 24.6677C194.874 21.9393 193.506 20.2359 191.34 20.2359ZM190.864 27.5854C189.457 27.5854 188.573 26.4657 188.573 24.6756C188.573 22.8777 189.457 21.7579 190.871 21.7579C192.294 21.7579 193.146 22.854 193.146 24.6677C193.146 26.4893 192.294 27.5854 190.864 27.5854Z" fill="white"/>
<path d="M200.754 20.2359C199.597 20.2359 198.597 20.8195 198.081 21.7973H197.956V20.3779H196.338V31.8201H198.018V27.6643H198.151C198.597 28.5712 199.558 29.1074 200.77 29.1074C202.919 29.1074 204.287 27.3962 204.287 24.6677C204.287 21.9393 202.919 20.2359 200.754 20.2359ZM200.277 27.5854C198.87 27.5854 197.987 26.4657 197.987 24.6756C197.987 22.8777 198.87 21.7579 200.285 21.7579C201.708 21.7579 202.56 22.854 202.56 24.6677C202.56 26.4893 201.708 27.5854 200.277 27.5854Z" fill="white"/>
<path d="M183.909 28.9655H185.837L181.616 17.1713H179.664L175.443 28.9655H177.306L178.384 25.8351H182.839L183.909 28.9655ZM180.547 19.3127H180.684L182.378 24.2985H178.845L180.547 19.3127Z" fill="white"/>
<path d="M176.571 8.27543V13.965H178.608C180.288 13.965 181.261 12.9201 181.261 11.1025C181.261 9.3124 180.28 8.27543 178.608 8.27543H176.571ZM177.447 9.07977H178.51C179.679 9.07977 180.37 9.82892 180.37 11.1143C180.37 12.4194 179.69 13.1606 178.51 13.1606H177.447V9.07977Z" fill="white"/>
<path d="M184.242 14.0478C185.485 14.0478 186.247 13.208 186.247 11.8161C186.247 10.4322 185.481 9.5884 184.242 9.5884C182.999 9.5884 182.233 10.4322 182.233 11.8161C182.233 13.208 182.995 14.0478 184.242 14.0478ZM184.242 13.2947C183.511 13.2947 183.101 12.7545 183.101 11.8161C183.101 10.8856 183.511 10.3415 184.242 10.3415C184.969 10.3415 185.383 10.8856 185.383 11.8161C185.383 12.7506 184.969 13.2947 184.242 13.2947Z" fill="white"/>
<path d="M192.737 9.6712H191.897L191.138 12.9477H191.072L190.197 9.6712H189.391L188.516 12.9477H188.453L187.691 9.6712H186.839L188.012 13.965H188.876L189.751 10.8028H189.817L190.697 13.965H191.568L192.737 9.6712Z" fill="white"/>
<path d="M193.705 13.965H194.545V11.4534C194.545 10.7831 194.94 10.3651 195.561 10.3651C196.182 10.3651 196.479 10.7082 196.479 11.3982V13.965H197.32V11.1853C197.32 10.1641 196.796 9.5884 195.846 9.5884C195.205 9.5884 194.783 9.87623 194.576 10.3533H194.514V9.6712H193.705V13.965Z" fill="white"/>
<path d="M198.643 13.965H199.483V7.99548H198.643V13.965Z" fill="white"/>
<path d="M202.644 14.0478C203.886 14.0478 204.649 13.208 204.649 11.8161C204.649 10.4322 203.883 9.5884 202.644 9.5884C201.401 9.5884 200.635 10.4322 200.635 11.8161C200.635 13.208 201.397 14.0478 202.644 14.0478ZM202.644 13.2947C201.913 13.2947 201.502 12.7545 201.502 11.8161C201.502 10.8856 201.913 10.3415 202.644 10.3415C203.371 10.3415 203.785 10.8856 203.785 11.8161C203.785 12.7506 203.371 13.2947 202.644 13.2947Z" fill="white"/>
<path d="M207.152 13.3223C206.695 13.3223 206.363 13.0976 206.363 12.7112C206.363 12.3326 206.629 12.1316 207.215 12.0921L208.254 12.0251V12.3839C208.254 12.9162 207.785 13.3223 207.152 13.3223ZM206.937 14.036C207.496 14.036 207.961 13.7915 208.215 13.3617H208.282V13.965H209.091V11.0315C209.091 10.1246 208.489 9.5884 207.422 9.5884C206.457 9.5884 205.769 10.0615 205.683 10.7989H206.496C206.589 10.4953 206.914 10.3218 207.383 10.3218C207.957 10.3218 208.254 10.5781 208.254 11.0315V11.4021L207.101 11.4692C206.089 11.5322 205.519 11.9778 205.519 12.7506C205.519 13.5352 206.117 14.036 206.937 14.036Z" fill="white"/>
<path d="M211.942 14.036C212.528 14.036 213.025 13.756 213.279 13.2868H213.345V13.965H214.15V7.99548H213.31V10.3533H213.248C213.017 9.88018 212.525 9.60023 211.942 9.60023C210.867 9.60023 210.176 10.4598 210.176 11.8161C210.176 13.1764 210.86 14.036 211.942 14.036ZM212.181 10.3612C212.884 10.3612 213.326 10.925 213.326 11.8201C213.326 12.719 212.888 13.275 212.181 13.275C211.469 13.275 211.043 12.7269 211.043 11.8161C211.043 10.9132 211.473 10.3612 212.181 10.3612Z" fill="white"/>
<path d="M219.599 14.0478C220.842 14.0478 221.604 13.208 221.604 11.8161C221.604 10.4322 220.838 9.5884 219.599 9.5884C218.357 9.5884 217.59 10.4322 217.59 11.8161C217.59 13.208 218.353 14.0478 219.599 14.0478ZM219.599 13.2947C218.868 13.2947 218.458 12.7545 218.458 11.8161C218.458 10.8856 218.868 10.3415 219.599 10.3415C220.326 10.3415 220.741 10.8856 220.741 11.8161C220.741 12.7506 220.326 13.2947 219.599 13.2947Z" fill="white"/>
<path d="M222.717 13.965H223.557V11.4534C223.557 10.7831 223.952 10.3651 224.573 10.3651C225.194 10.3651 225.491 10.7082 225.491 11.3982V13.965H226.332V11.1853C226.332 10.1641 225.808 9.5884 224.858 9.5884C224.217 9.5884 223.795 9.87623 223.588 10.3533H223.526V9.6712H222.717V13.965Z" fill="white"/>
<path d="M230.202 8.60269V9.69092H229.526V10.4046H230.202V12.8294C230.202 13.6574 230.573 13.9886 231.507 13.9886C231.671 13.9886 231.828 13.9689 231.964 13.9453V13.2395C231.847 13.2513 231.773 13.2592 231.644 13.2592C231.226 13.2592 231.042 13.0621 231.042 12.6126V10.4046H231.964V9.69092H231.042V8.60269H230.202Z" fill="white"/>
<path d="M233.092 13.965H233.933V11.4573C233.933 10.8068 234.316 10.3691 235.003 10.3691C235.598 10.3691 235.914 10.7161 235.914 11.4021V13.965H236.754V11.1932C236.754 10.1719 236.195 9.59235 235.289 9.59235C234.648 9.59235 234.198 9.88018 233.991 10.3612H233.925V7.99548H233.092V13.965Z" fill="white"/>
<path d="M239.786 10.3099C240.407 10.3099 240.814 10.7476 240.833 11.4218H238.683C238.73 10.7516 239.164 10.3099 239.786 10.3099ZM240.829 12.8058C240.673 13.1409 240.325 13.3262 239.817 13.3262C239.145 13.3262 238.711 12.8492 238.683 12.0961V12.0488H241.689V11.753C241.689 10.4046 240.974 9.5884 239.79 9.5884C238.59 9.5884 237.828 10.4598 237.828 11.8319C237.828 13.204 238.574 14.0478 239.793 14.0478C240.767 14.0478 241.447 13.5746 241.638 12.8058H240.829Z" fill="white"/>
<path d="M166.324 19.2858C166.345 17.6888 167.195 16.1777 168.543 15.3413C167.692 14.1155 166.267 13.3383 164.785 13.2915C163.204 13.1241 161.671 14.2461 160.865 14.2461C160.043 14.2461 158.803 13.3081 157.467 13.3359C155.725 13.3926 154.102 14.3914 153.255 15.9273C151.434 19.1083 152.792 23.7833 154.537 26.3546C155.409 27.6137 156.43 29.0201 157.764 28.9703C159.07 28.9156 159.558 28.13 161.135 28.13C162.697 28.13 163.155 28.9703 164.516 28.9385C165.918 28.9156 166.801 27.6739 167.643 26.4029C168.27 25.5057 168.753 24.5142 169.073 23.465C167.426 22.7622 166.326 21.0899 166.324 19.2858Z" fill="white"/>
<path d="M163.752 11.6005C164.516 10.675 164.892 9.48544 164.801 8.28442C163.634 8.40813 162.555 8.97106 161.781 9.86105C161.023 10.7306 160.629 11.8993 160.704 13.0544C161.872 13.0665 163.02 12.5188 163.752 11.6005Z" fill="white"/>
<defs>
<filter id="filter0_ii" x="9.45588" y="6.78394" width="21.8925" height="24.4347" filterUnits="userSpaceOnUse" color-interpolation-filters="sRGB">
<feFlood flood-opacity="0" result="BackgroundImageFix"/>
<feBlend mode="normal" in="SourceGraphic" in2="BackgroundImageFix" result="shape"/>
<feColorMatrix in="SourceAlpha" type="matrix" values="0 0 0 0 0 0 0 0 0 0 0 0 0 0 0 0 0 0 127 0" result="hardAlpha"/>
<feOffset dy="-0.15"/>
<feComposite in2="hardAlpha" operator="arithmetic" k2="-1" k3="1"/>
<feColorMatrix type="matrix" values="0 0 0 0 0 0 0 0 0 0 0 0 0 0 0 0 0 0 0.12 0"/>
<feBlend mode="normal" in2="shape" result="effect1_innerShadow"/>
<feColorMatrix in="SourceAlpha" type="matrix" values="0 0 0 0 0 0 0 0 0 0 0 0 0 0 0 0 0 0 127 0" result="hardAlpha"/>
<feOffset dy="0.15"/>
<feComposite in2="hardAlpha" operator="arithmetic" k2="-1" k3="1"/>
<feColorMatrix type="matrix" values="0 0 0 0 1 0 0 0 0 1 0 0 0 0 1 0 0 0 0.25 0"/>
<feBlend mode="normal" in2="effect1_innerShadow" result="effect2_innerShadow"/>
</filter>
<filter id="filter1_i" x="9.89487" y="19.001" width="15.8208" height="12.2176" filterUnits="userSpaceOnUse" color-interpolation-filters="sRGB">
<feFlood flood-opacity="0" result="BackgroundImageFix"/>
<feBlend mode="normal" in="SourceGraphic" in2="BackgroundImageFix" result="shape"/>
<feColorMatrix in="SourceAlpha" type="matrix" values="0 0 0 0 0 0 0 0 0 0 0 0 0 0 0 0 0 0 127 0" result="hardAlpha"/>
<feOffset dy="-0.15"/>
<feComposite in2="hardAlpha" operator="arithmetic" k2="-1" k3="1"/>
<feColorMatrix type="matrix" values="0 0 0 0 0 0 0 0 0 0 0 0 0 0 0 0 0 0 0.08 0"/>
<feBlend mode="normal" in2="shape" result="effect1_innerShadow"/>
</filter>
<linearGradient id="paint0_linear" x1="20.6704" y1="8.2736" x2="4.72752" y2="24.1854" gradientUnits="userSpaceOnUse">
<stop stop-color="#00A0FF"/>
<stop offset="0.0066" stop-color="#00A1FF"/>
<stop offset="0.2601" stop-color="#00BEFF"/>
<stop offset="0.5122" stop-color="#00D2FF"/>
<stop offset="0.7604" stop-color="#00DFFF"/>
<stop offset="1" stop-color="#00E3FF"/>
</linearGradient>
<linearGradient id="paint1_linear" x1="32.0792" y1="19.001" x2="9.13787" y2="19.001" gradientUnits="userSpaceOnUse">
<stop stop-color="#FFE000"/>
<stop offset="0.4087" stop-color="#FFBD00"/>
<stop offset="0.7754" stop-color="#FFA500"/>
<stop offset="1" stop-color="#FF9C00"/>
</linearGradient>
<linearGradient id="paint2_linear" x1="23.5407" y1="21.1802" x2="1.92019" y2="42.7586" gradientUnits="userSpaceOnUse">
<stop stop-color="#FF3A44"/>
<stop offset="1" stop-color="#C31162"/>
</linearGradient>
<linearGradient id="paint3_linear" x1="6.91902" y1="0.168017" x2="16.5732" y2="9.80337" gradientUnits="userSpaceOnUse">
<stop stop-color="#32A071"/>
<stop offset="0.0685" stop-color="#2DA771"/>
<stop offset="0.4762" stop-color="#15CF74"/>
<stop offset="0.8009" stop-color="#06E775"/>
<stop offset="1" stop-color="#00F076"/>
</linearGradient>
</defs>
</svg>
