<svg width="18" height="18" viewBox="0 0 18 18" fill="none" xmlns="http://www.w3.org/2000/svg">
<path d="M6.00091 9C6.00091 7.34321 7.34364 5.99976 9.00043 5.99976C10.6572 5.99976 12.0007 7.34321 12.0007 9C12.0007 10.6568 10.6572 12.0002 9.00043 12.0002C7.34364 12.0002 6.00091 10.6568 6.00091 9ZM4.37904 9C4.37904 11.5524 6.44803 13.6214 9.00043 13.6214C11.5528 13.6214 13.6218 11.5524 13.6218 9C13.6218 6.4476 11.5528 4.37861 9.00043 4.37861C6.44803 4.37861 4.37904 6.4476 4.37904 9ZM12.7248 4.19537C12.7247 4.40897 12.7879 4.6178 12.9065 4.79546C13.0251 4.97311 13.1938 5.1116 13.3911 5.19342C13.5884 5.27525 13.8055 5.29672 14.015 5.25513C14.2246 5.21354 14.417 5.11076 14.5681 4.95978C14.7192 4.8088 14.8222 4.6164 14.8639 4.40692C14.9057 4.19744 14.8844 3.98028 14.8027 3.7829C14.7211 3.58552 14.5827 3.4168 14.4051 3.29805C14.2276 3.17931 14.0188 3.11589 13.8052 3.1158H13.8048C13.5185 3.11593 13.2439 3.2297 13.0414 3.43212C12.8389 3.63454 12.725 3.90905 12.7248 4.19537V4.19537ZM5.36443 16.3258C4.48696 16.2858 4.01004 16.1397 3.69309 16.0162C3.2729 15.8526 2.97309 15.6578 2.65788 15.343C2.34266 15.0282 2.14754 14.7287 1.98468 14.3085C1.86112 13.9917 1.71496 13.5146 1.67508 12.6372C1.63144 11.6885 1.62273 11.4035 1.62273 9.00007C1.62273 6.59664 1.63216 6.31246 1.67508 5.36299C1.71504 4.48553 1.86228 4.00939 1.98468 3.69166C2.14826 3.27146 2.34309 2.97166 2.65788 2.65644C2.97266 2.34122 3.27218 2.1461 3.69309 1.98324C4.00989 1.85969 4.48696 1.71353 5.36443 1.67364C6.3131 1.63001 6.59808 1.6213 9.00043 1.6213C11.4028 1.6213 11.688 1.63073 12.6375 1.67364C13.515 1.7136 13.9911 1.86084 14.3088 1.98324C14.729 2.1461 15.0288 2.34166 15.3441 2.65644C15.6593 2.97122 15.8537 3.27146 16.0173 3.69166C16.1408 4.00846 16.287 4.48553 16.3269 5.36299C16.3705 6.31246 16.3792 6.59664 16.3792 9.00007C16.3792 11.4035 16.3705 11.6877 16.3269 12.6372C16.2869 13.5146 16.14 13.9915 16.0173 14.3085C15.8537 14.7287 15.6588 15.0285 15.3441 15.343C15.0293 15.6575 14.729 15.8526 14.3088 16.0162C13.992 16.1397 13.515 16.2859 12.6375 16.3258C11.6888 16.3694 11.4039 16.3781 9.00043 16.3781C6.597 16.3781 6.31281 16.3694 5.36443 16.3258V16.3258ZM5.28991 0.054504C4.3318 0.098136 3.67711 0.250056 3.10536 0.472536C2.51323 0.702288 2.01196 1.01052 1.51106 1.51063C1.01016 2.01074 0.702715 2.5128 0.472963 3.10493C0.250483 3.67704 0.0985632 4.33138 0.0549312 5.28948C0.0105792 6.2491 0.000427246 6.55589 0.000427246 9C0.000427246 11.4441 0.0105792 11.7509 0.0549312 12.7105C0.0985632 13.6687 0.250483 14.323 0.472963 14.8951C0.702715 15.4868 1.01023 15.9895 1.51106 16.4894C2.01189 16.9893 2.51323 17.2971 3.10536 17.5275C3.67819 17.7499 4.3318 17.9019 5.28991 17.9455C6.25003 17.9891 6.55632 18 9.00043 18C11.4445 18 11.7513 17.9898 12.7109 17.9455C13.6691 17.9019 14.3234 17.7499 14.8955 17.5275C15.4873 17.2971 15.9889 16.9895 16.4898 16.4894C16.9907 15.9893 17.2975 15.4868 17.5279 14.8951C17.7504 14.323 17.903 13.6686 17.9459 12.7105C17.9896 11.7502 17.9997 11.4441 17.9997 9C17.9997 6.55589 17.9896 6.2491 17.9459 5.28948C17.9023 4.3313 17.7504 3.67668 17.5279 3.10493C17.2975 2.51316 16.9899 2.01154 16.4898 1.51063C15.9897 1.00973 15.4873 0.702288 14.8962 0.472536C14.3234 0.250056 13.6691 0.097416 12.7117 0.054504C11.7521 0.010872 11.4453 0 9.00115 0C6.55704 0 6.25003 0.010152 5.28991 0.054504Z" fill="url(#paint0_radial)"/>
<path d="M6.00091 9C6.00091 7.34321 7.34364 5.99976 9.00043 5.99976C10.6572 5.99976 12.0007 7.34321 12.0007 9C12.0007 10.6568 10.6572 12.0002 9.00043 12.0002C7.34364 12.0002 6.00091 10.6568 6.00091 9ZM4.37904 9C4.37904 11.5524 6.44803 13.6214 9.00043 13.6214C11.5528 13.6214 13.6218 11.5524 13.6218 9C13.6218 6.4476 11.5528 4.37861 9.00043 4.37861C6.44803 4.37861 4.37904 6.4476 4.37904 9ZM12.7248 4.19537C12.7247 4.40897 12.7879 4.6178 12.9065 4.79546C13.0251 4.97311 13.1938 5.1116 13.3911 5.19342C13.5884 5.27525 13.8055 5.29672 14.015 5.25513C14.2246 5.21354 14.417 5.11076 14.5681 4.95978C14.7192 4.8088 14.8222 4.6164 14.8639 4.40692C14.9057 4.19744 14.8844 3.98028 14.8027 3.7829C14.7211 3.58552 14.5827 3.4168 14.4051 3.29805C14.2276 3.17931 14.0188 3.11589 13.8052 3.1158H13.8048C13.5185 3.11593 13.2439 3.2297 13.0414 3.43212C12.8389 3.63454 12.725 3.90905 12.7248 4.19537V4.19537ZM5.36443 16.3258C4.48696 16.2858 4.01004 16.1397 3.69309 16.0162C3.2729 15.8526 2.97309 15.6578 2.65788 15.343C2.34266 15.0282 2.14754 14.7287 1.98468 14.3085C1.86112 13.9917 1.71496 13.5146 1.67508 12.6372C1.63144 11.6885 1.62273 11.4035 1.62273 9.00007C1.62273 6.59664 1.63216 6.31246 1.67508 5.36299C1.71504 4.48553 1.86228 4.00939 1.98468 3.69166C2.14826 3.27146 2.34309 2.97166 2.65788 2.65644C2.97266 2.34122 3.27218 2.1461 3.69309 1.98324C4.00989 1.85969 4.48696 1.71353 5.36443 1.67364C6.3131 1.63001 6.59808 1.6213 9.00043 1.6213C11.4028 1.6213 11.688 1.63073 12.6375 1.67364C13.515 1.7136 13.9911 1.86084 14.3088 1.98324C14.729 2.1461 15.0288 2.34166 15.3441 2.65644C15.6593 2.97122 15.8537 3.27146 16.0173 3.69166C16.1408 4.00846 16.287 4.48553 16.3269 5.36299C16.3705 6.31246 16.3792 6.59664 16.3792 9.00007C16.3792 11.4035 16.3705 11.6877 16.3269 12.6372C16.2869 13.5146 16.14 13.9915 16.0173 14.3085C15.8537 14.7287 15.6588 15.0285 15.3441 15.343C15.0293 15.6575 14.729 15.8526 14.3088 16.0162C13.992 16.1397 13.515 16.2859 12.6375 16.3258C11.6888 16.3694 11.4039 16.3781 9.00043 16.3781C6.597 16.3781 6.31281 16.3694 5.36443 16.3258V16.3258ZM5.28991 0.054504C4.3318 0.098136 3.67711 0.250056 3.10536 0.472536C2.51323 0.702288 2.01196 1.01052 1.51106 1.51063C1.01016 2.01074 0.702715 2.5128 0.472963 3.10493C0.250483 3.67704 0.0985632 4.33138 0.0549312 5.28948C0.0105792 6.2491 0.000427246 6.55589 0.000427246 9C0.000427246 11.4441 0.0105792 11.7509 0.0549312 12.7105C0.0985632 13.6687 0.250483 14.323 0.472963 14.8951C0.702715 15.4868 1.01023 15.9895 1.51106 16.4894C2.01189 16.9893 2.51323 17.2971 3.10536 17.5275C3.67819 17.7499 4.3318 17.9019 5.28991 17.9455C6.25003 17.9891 6.55632 18 9.00043 18C11.4445 18 11.7513 17.9898 12.7109 17.9455C13.6691 17.9019 14.3234 17.7499 14.8955 17.5275C15.4873 17.2971 15.9889 16.9895 16.4898 16.4894C16.9907 15.9893 17.2975 15.4868 17.5279 14.8951C17.7504 14.323 17.903 13.6686 17.9459 12.7105C17.9896 11.7502 17.9997 11.4441 17.9997 9C17.9997 6.55589 17.9896 6.2491 17.9459 5.28948C17.9023 4.3313 17.7504 3.67668 17.5279 3.10493C17.2975 2.51316 16.9899 2.01154 16.4898 1.51063C15.9897 1.00973 15.4873 0.702288 14.8962 0.472536C14.3234 0.250056 13.6691 0.097416 12.7117 0.054504C11.7521 0.010872 11.4453 0 9.00115 0C6.55704 0 6.25003 0.010152 5.28991 0.054504Z" fill="url(#paint1_radial)"/>
<defs>
<radialGradient id="paint0_radial" cx="0" cy="0" r="1" gradientUnits="userSpaceOnUse" gradientTransform="translate(2.39183 18.085) scale(23.4975)">
<stop offset="0.09" stop-color="#FA8F21"/>
<stop offset="0.78" stop-color="#D82D7E"/>
</radialGradient>
<radialGradient id="paint1_radial" cx="0" cy="0" r="1" gradientUnits="userSpaceOnUse" gradientTransform="translate(10.9166 18.8914) scale(18.5193)">
<stop offset="0.64" stop-color="#8C3AAA" stop-opacity="0"/>
<stop offset="1" stop-color="#8C3AAA"/>
</radialGradient>
</defs>
</svg>
