<svg width="560" height="333" viewBox="0 0 560 333" fill="none" xmlns="http://www.w3.org/2000/svg">
<g clip-path="url(#clip0)">
<g filter="url(#filter0_d)">
<rect width="560" height="333" rx="8" fill="white"/>
</g>
<path fill-rule="evenodd" clip-rule="evenodd" d="M438.183 290.578C456.588 285.647 467.51 266.729 462.578 248.324C457.647 229.92 438.729 218.998 420.324 223.929C401.92 228.861 390.998 247.778 395.929 266.183C400.861 284.588 419.778 295.51 438.183 290.578ZM432.388 262.348L426.506 263.924L426.147 262.671C425.099 259.647 425.72 257.363 428.3 254.786C430.705 252.35 431.276 251.033 430.735 249.014L430.729 248.992C430.171 246.908 428.072 245.887 425.574 246.557C423.031 247.238 421.809 249.311 422.275 251.583L422.3 251.763L416.307 253.369L416.249 253.151C415.058 248.001 417.833 243.232 424.622 241.413C430.924 239.724 436.045 242.029 437.377 247.001L437.383 247.023C438.256 250.28 437.252 252.993 434.617 255.63C432.124 258.09 431.597 259.395 432.15 261.458L432.388 262.348ZM435.036 269.133C435.548 271.044 434.335 272.974 432.323 273.513C430.332 274.047 428.317 272.981 427.805 271.07C427.293 269.159 428.506 267.229 430.496 266.695C432.508 266.156 434.524 267.222 435.036 269.133Z" fill="#3C4764"/>
<path fill-rule="evenodd" clip-rule="evenodd" d="M291.397 96.0215C306.043 99.9458 321.097 91.2543 325.021 76.6085C328.946 61.9627 320.254 46.9087 305.609 42.9844C290.963 39.06 275.909 47.7515 271.984 62.3973C268.06 77.0431 276.751 92.0972 291.397 96.0215ZM298.636 74.2611L293.955 73.0069L294.206 72C294.688 69.4992 296.024 68.172 298.827 67.4231C301.454 66.7008 302.372 66.0208 302.802 64.4138L302.807 64.3965C303.251 62.7378 302.211 61.1997 300.223 60.6669C298.199 60.1247 296.532 61.067 295.95 62.8185L295.895 62.952L291.126 61.6742L291.173 61.5014C292.402 57.4786 296.212 55.2956 301.614 56.7431C306.629 58.0869 309.241 61.7128 308.18 65.6697L308.176 65.687C307.481 68.2788 305.711 69.7489 302.845 70.5183C300.148 71.2216 299.266 71.9111 298.826 73.5526L298.636 74.2611ZM297.761 79.99C297.354 81.5105 295.75 82.3586 294.148 81.9295C292.565 81.5051 291.6 79.9687 292.007 78.4481C292.414 76.9276 294.018 76.0795 295.602 76.5039C297.203 76.9329 298.169 78.4694 297.761 79.99Z" fill="#3C4764"/>
<g filter="url(#filter1_f)">
<path fill-rule="evenodd" clip-rule="evenodd" d="M486.606 143.767C497.271 137.61 500.924 123.974 494.767 113.31C488.61 102.645 474.974 98.9913 464.309 105.148C453.645 111.305 449.991 124.942 456.148 135.606C462.305 146.271 475.942 149.924 486.606 143.767ZM478.267 127.114L474.859 129.082L474.424 128.359C473.265 126.647 473.27 125.117 474.45 123.077C475.543 121.154 475.68 120.236 475.004 119.066L474.997 119.054C474.3 117.846 472.819 117.56 471.371 118.396C469.898 119.247 469.482 120.745 470.153 122.085L470.198 122.193L466.726 124.198L466.653 124.072C465.049 121.056 465.983 117.615 469.917 115.344C473.568 113.235 477.151 113.818 478.814 116.699L478.821 116.712C479.911 118.599 479.738 120.46 478.535 122.547C477.39 124.5 477.279 125.403 477.969 126.598L478.267 127.114ZM481.054 130.906C481.693 132.013 481.259 133.422 480.093 134.095C478.94 134.761 477.504 134.432 476.864 133.325C476.225 132.218 476.659 130.81 477.812 130.144C478.978 129.471 480.415 129.799 481.054 130.906Z" fill="#3C4764"/>
</g>
<g filter="url(#filter2_f)">
<path fill-rule="evenodd" clip-rule="evenodd" d="M275.727 248.776C268.146 261.907 272.645 278.698 285.776 286.279C298.907 293.86 315.698 289.361 323.279 276.23C330.86 263.099 326.361 246.308 313.23 238.727C300.099 231.146 283.308 235.645 275.727 248.776ZM294.872 261.4L297.295 257.203L298.203 257.706C300.494 258.819 301.43 260.453 301.428 263.355C301.446 266.079 301.865 267.141 303.306 267.973L303.321 267.982C304.809 268.841 306.563 268.234 307.593 266.451C308.64 264.637 308.161 262.783 306.62 261.767L306.506 261.68L308.974 257.404L309.129 257.493C312.697 259.722 313.819 263.967 311.023 268.81C308.427 273.307 304.248 274.891 300.701 272.843L300.685 272.834C298.362 271.492 297.4 269.401 297.398 266.434C297.417 263.647 296.979 262.616 295.508 261.767L294.872 261.4ZM289.565 259.072C288.202 258.285 287.798 256.516 288.627 255.08C289.447 253.661 291.18 253.126 292.544 253.913C293.907 254.7 294.311 256.469 293.491 257.889C292.662 259.325 290.929 259.859 289.565 259.072Z" fill="#3C4764"/>
</g>
<path d="M175.157 158V134.044H154.422V158H159.436V138.178H170.144V158H175.157ZM187.193 158.365C192.572 158.365 196.009 154.912 196.009 149.102V149.068C196.009 143.308 192.522 139.838 187.193 139.838C181.864 139.838 178.378 143.341 178.378 149.068V149.102C178.378 154.896 181.798 158.365 187.193 158.365ZM187.21 154.563C184.819 154.563 183.309 152.588 183.309 149.102V149.068C183.309 145.632 184.853 143.64 187.193 143.64C189.551 143.64 191.078 145.632 191.078 149.068V149.102C191.078 152.571 189.584 154.563 187.21 154.563ZM214.47 158V140.203H209.622V147.109C209.024 147.856 207.846 148.354 206.534 148.354C204.409 148.354 203.214 147.242 203.214 145.101V140.203H198.366V145.881C198.366 149.898 200.807 152.372 204.891 152.372C206.8 152.372 208.477 151.691 209.522 150.546H209.622V158H214.47ZM226.024 158.365C231.088 158.365 233.545 155.36 234.109 152.737L234.143 152.555H229.693L229.66 152.654C229.328 153.65 228.116 154.746 226.124 154.746C223.65 154.746 222.106 153.086 222.04 150.247H234.292V148.753C234.292 143.374 231.038 139.838 225.825 139.838C220.596 139.838 217.259 143.457 217.259 149.118V149.135C217.259 154.829 220.562 158.365 226.024 158.365ZM225.908 143.457C227.9 143.457 229.345 144.735 229.644 147.192H222.106C222.422 144.785 223.899 143.457 225.908 143.457ZM241.646 158V146.097H241.763L246.345 157.004H249.698L254.297 146.097H254.413V158H258.979V140.203H252.753L248.121 151.824H248.005L243.373 140.203H237.081V158H241.646ZM265.221 163.86C269.188 163.86 271.579 162.516 272.974 158.315L279.066 140.203H273.953L270.201 154.115H270.052L266.3 140.203H260.987L267.263 158L267.063 158.581C266.632 159.793 265.835 160.208 264.391 160.208C263.66 160.208 263.096 160.108 262.764 160.042V163.645C263.328 163.744 264.274 163.86 265.221 163.86ZM299.47 158H304.317V140.203H299.47V147.043H292.663V140.203H287.815V158H292.663V150.712H299.47V158ZM315.872 158.365C320.936 158.365 323.393 155.36 323.957 152.737L323.99 152.555H319.541L319.508 152.654C319.176 153.65 317.964 154.746 315.972 154.746C313.498 154.746 311.954 153.086 311.888 150.247H324.14V148.753C324.14 143.374 320.886 139.838 315.673 139.838C310.443 139.838 307.106 143.457 307.106 149.118V149.135C307.106 154.829 310.41 158.365 315.872 158.365ZM315.756 143.457C317.748 143.457 319.192 144.735 319.491 147.192H311.954C312.27 144.785 313.747 143.457 315.756 143.457ZM332.905 149.749L333.271 143.872H338.168V158H343.016V140.203H329.104L328.572 149.351C328.39 152.538 327.809 153.982 326.082 153.982C325.634 153.982 325.302 153.933 325.103 153.883V157.95C325.385 158.033 326.016 158.166 326.912 158.166C331.278 158.166 332.59 154.896 332.905 149.749ZM346.519 158H354.819C359.02 158 361.709 155.543 361.709 151.691V151.658C361.709 147.807 359.02 145.35 354.819 145.35H351.366V140.203H346.519V158ZM353.939 149.002C355.683 149.002 356.778 150.031 356.778 151.658V151.691C356.778 153.302 355.683 154.348 353.939 154.348H351.366V149.002H353.939ZM371.653 158.365C376.368 158.365 379.439 156.157 379.439 152.804V152.771C379.439 150.646 378.128 149.251 375.688 148.803V148.67C377.763 148.205 378.958 146.811 378.958 144.885V144.852C378.958 141.73 376.252 139.838 371.786 139.838C367.254 139.838 364.564 141.83 364.1 145.499L364.083 145.632H368.615L368.632 145.499C368.881 144.188 369.943 143.507 371.653 143.507C373.28 143.507 374.243 144.237 374.243 145.482V145.516C374.243 146.811 373.33 147.491 371.521 147.491H369.146V150.513H371.554C373.596 150.513 374.608 151.193 374.608 152.555V152.588C374.608 153.916 373.496 154.696 371.62 154.696C369.794 154.696 368.648 154.032 368.283 152.688L368.233 152.505H363.635L363.651 152.671C364.017 156.257 366.988 158.365 371.653 158.365ZM392.521 158H397.27V140.203H389.019C384.702 140.203 381.896 142.594 381.896 146.362V146.396C381.896 148.936 383.391 150.762 385.814 151.525L381.133 158H386.528L390.479 152.256H392.521V158ZM389.5 148.836C387.807 148.836 386.744 147.823 386.744 146.412V146.379C386.744 144.818 387.79 143.822 389.5 143.822H392.521V148.836H389.5ZM154.189 199.365C159.568 199.365 162.855 195.829 162.855 190.085V190.068C162.855 184.357 159.535 180.838 154.239 180.838C149.591 180.838 146.337 183.61 146.154 187.196V187.346H150.653L150.687 187.213C151.052 185.752 152.214 184.64 154.14 184.64C156.099 184.64 157.443 185.968 157.892 188.292H151.566V191.463H157.958C157.626 194.103 156.215 195.563 154.14 195.563C152.28 195.563 151.052 194.534 150.687 192.907L150.653 192.758H146.138V192.907C146.37 196.809 149.641 199.365 154.189 199.365ZM179.606 181.203H164.167V184.872H169.463V199H174.311V184.872H179.606V181.203ZM189.866 199.365C195.245 199.365 198.682 195.912 198.682 190.102V190.068C198.682 184.308 195.195 180.838 189.866 180.838C184.537 180.838 181.051 184.341 181.051 190.068V190.102C181.051 195.896 184.471 199.365 189.866 199.365ZM189.883 195.563C187.492 195.563 185.981 193.588 185.981 190.102V190.068C185.981 186.632 187.525 184.64 189.866 184.64C192.224 184.64 193.751 186.632 193.751 190.068V190.102C193.751 193.571 192.257 195.563 189.883 195.563ZM208.211 199H213.059V184.855H219.699V199H224.547V181.203H208.211V199ZM228 204.811H232.848V195.962H232.947C233.91 198.07 235.902 199.365 238.459 199.365C242.908 199.365 245.647 195.879 245.647 190.102V190.085C245.647 184.291 242.908 180.838 238.393 180.838C235.853 180.838 233.927 182.149 232.947 184.308H232.848V181.203H228V204.811ZM236.782 195.348C234.441 195.348 232.814 193.322 232.814 190.118V190.102C232.814 186.881 234.441 184.855 236.782 184.855C239.189 184.855 240.717 186.831 240.717 190.085V190.102C240.717 193.339 239.206 195.348 236.782 195.348ZM256.571 199.365C261.95 199.365 265.387 195.912 265.387 190.102V190.068C265.387 184.308 261.9 180.838 256.571 180.838C251.242 180.838 247.756 184.341 247.756 190.068V190.102C247.756 195.896 251.176 199.365 256.571 199.365ZM256.588 195.563C254.197 195.563 252.687 193.588 252.687 190.102V190.068C252.687 186.632 254.23 184.64 256.571 184.64C258.929 184.64 260.456 186.632 260.456 190.068V190.102C260.456 193.571 258.962 195.563 256.588 195.563ZM268.176 199H273.023V184.855H279.664V199H284.512V181.203H268.176V199ZM290.737 204.86C294.705 204.86 297.096 203.516 298.49 199.315L304.583 181.203H299.47L295.718 195.115H295.568L291.816 181.203H286.504L292.779 199L292.58 199.581C292.148 200.793 291.352 201.208 289.907 201.208C289.177 201.208 288.612 201.108 288.28 201.042V204.645C288.845 204.744 289.791 204.86 290.737 204.86ZM314.179 199.365C318.943 199.365 321.998 196.41 322.23 192.525L322.247 192.426H317.731L317.698 192.575C317.383 194.368 316.171 195.563 314.229 195.563C311.821 195.563 310.327 193.588 310.327 190.102V190.085C310.327 186.682 311.821 184.64 314.212 184.64C316.204 184.64 317.399 185.935 317.698 187.628L317.715 187.777H322.23L322.214 187.661C322.031 183.81 318.96 180.838 314.146 180.838C308.8 180.838 305.396 184.374 305.396 190.068V190.085C305.396 195.829 308.767 199.365 314.179 199.365ZM338.882 181.203H323.442V184.872H328.738V199H333.586V184.872H338.882V181.203ZM341.355 199H346.104L353.109 187.744H353.292V199H358.057V181.203H353.309L346.286 192.31H346.12V181.203H341.355V199ZM375.97 181.203H360.53V184.872H365.826V199H370.674V184.872H375.97V181.203ZM378.443 199H386.744C390.944 199 393.634 196.543 393.634 192.691V192.658C393.634 188.807 390.944 186.35 386.744 186.35H383.291V181.203H378.443V199ZM385.864 190.002C387.607 190.002 388.703 191.031 388.703 192.658V192.691C388.703 194.302 387.607 195.348 385.864 195.348H383.291V190.002H385.864ZM400.656 191.247H405.072V190.566C405.072 188.989 405.687 188.159 407.895 186.881C410.235 185.503 411.447 183.76 411.447 181.27V181.253C411.447 177.451 408.293 174.828 403.562 174.828C398.465 174.828 395.626 177.7 395.493 181.602V181.768H399.992L400.009 181.635C400.108 179.925 401.354 178.68 403.263 178.68C405.139 178.68 406.417 179.809 406.417 181.402V181.419C406.417 182.963 405.77 183.793 403.628 185.071C401.337 186.416 400.474 187.927 400.64 190.284L400.656 191.247ZM402.931 199.199C404.441 199.199 405.653 198.054 405.653 196.593C405.653 195.132 404.441 193.986 402.931 193.986C401.437 193.986 400.225 195.132 400.225 196.593C400.225 198.054 401.437 199.199 402.931 199.199Z" fill="#FF5400"/>
<g filter="url(#filter3_f)">
<path fill-rule="evenodd" clip-rule="evenodd" d="M104.183 127.578C122.588 122.647 133.51 103.729 128.578 85.3244C123.647 66.9199 104.729 55.9978 86.3244 60.9293C67.9199 65.8608 56.9978 84.7784 61.9293 103.183C66.8607 121.588 85.7784 132.51 104.183 127.578ZM98.3882 99.3483L92.5062 100.924L92.1467 99.6709C91.0994 96.6468 91.7198 94.3628 94.3001 91.7863C96.7046 89.35 97.2761 88.0333 96.735 86.0139L96.7292 85.9922C96.1707 83.9077 94.0724 82.8874 91.5736 83.557C89.0307 84.2383 87.8086 86.3112 88.2751 88.5833L88.2996 88.7629L82.307 90.3686L82.2488 90.1515C81.0585 85.0014 83.8332 80.2318 90.6218 78.4128C96.924 76.7241 102.045 79.0291 103.377 84.0015L103.383 84.0232C104.256 87.2802 103.252 89.9927 100.617 92.6304C98.1242 95.0903 97.597 96.3953 98.1497 98.458L98.3882 99.3483ZM101.036 106.133C101.548 108.044 100.335 109.974 98.3226 110.513C96.3324 111.047 94.3168 109.981 93.8048 108.07C93.2928 106.159 94.5055 104.229 96.4957 103.695C98.508 103.156 100.524 104.222 101.036 106.133Z" fill="#3C4764"/>
</g>
<g filter="url(#filter4_f)">
<path fill-rule="evenodd" clip-rule="evenodd" d="M187.259 49.0108C178.279 55.6441 176.377 68.3008 183.011 77.2802C189.644 86.2597 202.301 88.1615 211.28 81.5282C220.26 74.8948 222.162 62.2381 215.528 53.2587C208.895 44.2793 196.238 42.3774 187.259 49.0108ZM196.468 63.163L199.338 61.0431L199.803 61.6495C201.022 63.0742 201.173 64.4526 200.318 66.4106C199.529 68.2544 199.5 69.095 200.227 70.0802L200.235 70.0908C200.987 71.1078 202.35 71.2145 203.569 70.3139C204.809 69.3974 205.032 68.0051 204.29 66.8661L204.238 66.7734L207.162 64.6135L207.24 64.7195C208.993 67.2728 208.502 70.4684 205.19 72.9151C202.115 75.1865 198.829 75.027 197.037 72.601L197.029 72.5904C195.855 71.0013 195.821 69.3072 196.693 67.3041C197.525 65.4284 197.533 64.6038 196.789 63.5974L196.468 63.163ZM193.571 60.0308C192.882 59.0985 193.13 57.7857 194.111 57.0605C195.082 56.3432 196.41 56.4924 197.099 57.4246C197.787 58.3569 197.54 59.6697 196.569 60.3869C195.587 61.1122 194.259 60.963 193.571 60.0308Z" fill="#3C4764"/>
</g>
<g filter="url(#filter5_f)">
<path fill-rule="evenodd" clip-rule="evenodd" d="M180.525 276.282C191.309 279.172 202.393 272.772 205.282 261.989C208.172 251.205 201.772 240.121 190.989 237.232C180.205 234.342 169.121 240.742 166.232 251.525C163.342 262.309 169.742 273.393 180.525 276.282ZM185.855 260.26L182.409 259.337L182.593 258.595C182.948 256.754 183.932 255.777 185.996 255.226C187.93 254.694 188.605 254.193 188.922 253.01L188.926 252.997C189.253 251.776 188.487 250.643 187.023 250.251C185.533 249.852 184.306 250.546 183.877 251.835L183.837 251.934L180.326 250.993L180.36 250.866C181.265 247.904 184.07 246.296 188.047 247.362C191.74 248.351 193.663 251.021 192.882 253.935L192.879 253.947C192.368 255.856 191.064 256.938 188.954 257.505C186.968 258.022 186.319 258.53 185.995 259.739L185.855 260.26ZM185.211 264.478C184.911 265.598 183.73 266.222 182.551 265.906C181.385 265.594 180.674 264.463 180.974 263.343C181.274 262.224 182.455 261.599 183.621 261.912C184.8 262.228 185.511 263.359 185.211 264.478Z" fill="#3C4764"/>
</g>
<g filter="url(#filter6_f)">
<path fill-rule="evenodd" clip-rule="evenodd" d="M394.584 53.1231C387.77 49.1891 379.057 51.5237 375.123 58.3376C371.189 65.1515 373.524 73.8644 380.338 77.7984C387.152 81.7324 395.864 79.3978 399.798 72.5839C403.732 65.77 401.398 57.0571 394.584 53.1231ZM388.033 63.058L390.211 64.3152L389.95 64.7862C389.373 65.975 388.525 66.4608 387.019 66.4597C385.605 66.4689 385.054 66.6866 384.622 67.4342L384.618 67.4422C384.172 68.214 384.487 69.1246 385.412 69.6587C386.353 70.2022 387.316 69.9538 387.843 69.1542L387.888 69.0946L390.107 70.3755L390.06 70.4559C388.904 72.3072 386.701 72.8897 384.188 71.4386C381.855 70.0915 381.032 67.9233 382.095 66.0824L382.1 66.0744C382.796 64.8685 383.881 64.3695 385.421 64.3687C386.867 64.3783 387.402 64.1513 387.843 63.3876L388.033 63.058ZM389.241 60.304C389.65 59.5965 390.567 59.3869 391.312 59.817C392.049 60.2424 392.327 61.1422 391.918 61.8496C391.51 62.557 390.592 62.7667 389.855 62.3413C389.11 61.9111 388.833 61.0114 389.241 60.304Z" fill="#3C4764"/>
</g>
<g filter="url(#filter7_f)">
<path fill-rule="evenodd" clip-rule="evenodd" d="M115.584 203.123C108.77 199.189 100.057 201.524 96.1231 208.338C92.1891 215.152 94.5238 223.864 101.338 227.798C108.152 231.732 116.864 229.398 120.798 222.584C124.732 215.77 122.398 207.057 115.584 203.123ZM109.033 213.058L111.211 214.315L110.95 214.786C110.373 215.975 109.525 216.461 108.019 216.46C106.605 216.469 106.054 216.687 105.622 217.434L105.618 217.442C105.172 218.214 105.487 219.125 106.412 219.659C107.353 220.202 108.316 219.954 108.843 219.154L108.888 219.095L111.107 220.375L111.06 220.456C109.904 222.307 107.701 222.89 105.188 221.439C102.855 220.092 102.032 217.923 103.095 216.082L103.1 216.074C103.796 214.869 104.881 214.369 106.421 214.369C107.867 214.378 108.402 214.151 108.843 213.388L109.033 213.058ZM110.241 210.304C110.65 209.597 111.567 209.387 112.312 209.817C113.049 210.242 113.327 211.142 112.918 211.85C112.51 212.557 111.592 212.767 110.855 212.341C110.11 211.911 109.833 211.011 110.241 210.304Z" fill="#3C4764"/>
</g>
</g>
<defs>
<filter id="filter0_d" x="-30" y="-26" width="620" height="393" filterUnits="userSpaceOnUse" color-interpolation-filters="sRGB">
<feFlood flood-opacity="0" result="BackgroundImageFix"/>
<feColorMatrix in="SourceAlpha" type="matrix" values="0 0 0 0 0 0 0 0 0 0 0 0 0 0 0 0 0 0 127 0"/>
<feOffset dy="4"/>
<feGaussianBlur stdDeviation="15"/>
<feColorMatrix type="matrix" values="0 0 0 0 0 0 0 0 0 0 0 0 0 0 0 0 0 0 0.01 0"/>
<feBlend mode="normal" in2="BackgroundImageFix" result="effect1_dropShadow"/>
<feBlend mode="normal" in="SourceGraphic" in2="effect1_dropShadow" result="shape"/>
</filter>
<filter id="filter1_f" x="445.157" y="94.1574" width="60.6008" height="60.6008" filterUnits="userSpaceOnUse" color-interpolation-filters="sRGB">
<feFlood flood-opacity="0" result="BackgroundImageFix"/>
<feBlend mode="normal" in="SourceGraphic" in2="BackgroundImageFix" result="shape"/>
<feGaussianBlur stdDeviation="4" result="effect1_foregroundBlur"/>
</filter>
<filter id="filter2_f" x="256" y="219" width="87.0058" height="87.0058" filterUnits="userSpaceOnUse" color-interpolation-filters="sRGB">
<feFlood flood-opacity="0" result="BackgroundImageFix"/>
<feBlend mode="normal" in="SourceGraphic" in2="BackgroundImageFix" result="shape"/>
<feGaussianBlur stdDeviation="3" result="effect1_foregroundBlur"/>
</filter>
<filter id="filter3_f" x="56.7451" y="55.7451" width="77.0171" height="77.0171" filterUnits="userSpaceOnUse" color-interpolation-filters="sRGB">
<feFlood flood-opacity="0" result="BackgroundImageFix"/>
<feBlend mode="normal" in="SourceGraphic" in2="BackgroundImageFix" result="shape"/>
<feGaussianBlur stdDeviation="2" result="effect1_foregroundBlur"/>
</filter>
<filter id="filter4_f" x="169" y="35" width="60.539" height="60.539" filterUnits="userSpaceOnUse" color-interpolation-filters="sRGB">
<feFlood flood-opacity="0" result="BackgroundImageFix"/>
<feBlend mode="normal" in="SourceGraphic" in2="BackgroundImageFix" result="shape"/>
<feGaussianBlur stdDeviation="1" result="effect1_foregroundBlur"/>
</filter>
<filter id="filter5_f" x="149" y="220" width="73.5139" height="73.5139" filterUnits="userSpaceOnUse" color-interpolation-filters="sRGB">
<feFlood flood-opacity="0" result="BackgroundImageFix"/>
<feBlend mode="normal" in="SourceGraphic" in2="BackgroundImageFix" result="shape"/>
<feGaussianBlur stdDeviation="6" result="effect1_foregroundBlur"/>
</filter>
<filter id="filter6_f" x="366" y="44" width="42.9216" height="42.9216" filterUnits="userSpaceOnUse" color-interpolation-filters="sRGB">
<feFlood flood-opacity="0" result="BackgroundImageFix"/>
<feBlend mode="normal" in="SourceGraphic" in2="BackgroundImageFix" result="shape"/>
<feGaussianBlur stdDeviation="1" result="effect1_foregroundBlur"/>
</filter>
<filter id="filter7_f" x="85" y="192" width="46.9216" height="46.9216" filterUnits="userSpaceOnUse" color-interpolation-filters="sRGB">
<feFlood flood-opacity="0" result="BackgroundImageFix"/>
<feBlend mode="normal" in="SourceGraphic" in2="BackgroundImageFix" result="shape"/>
<feGaussianBlur stdDeviation="2" result="effect1_foregroundBlur"/>
</filter>
<clipPath id="clip0">
<rect width="560" height="333" rx="6" fill="white"/>
</clipPath>
</defs>
</svg>
