<svg width="18" height="18" viewBox="0 0 18 18" fill="none" xmlns="http://www.w3.org/2000/svg">
<path fill-rule="evenodd" clip-rule="evenodd" d="M1.8 0H16.2C17.1942 0 18 0.805824 18 1.8V16.2C18 17.1942 17.1942 18 16.2 18H1.8C0.805824 18 0 17.1942 0 16.2V1.8C0 0.805824 0.805824 0 1.8 0Z" fill="#010101"/>
<path fill-rule="evenodd" clip-rule="evenodd" d="M11.3026 16.56C11.8503 16.56 12.2943 16.1196 12.2943 15.5764C12.2943 15.0331 11.8503 14.5927 11.3026 14.5927H11.1532C11.7009 14.5927 12.1449 15.0331 12.1449 15.5764C12.1449 16.1196 11.7009 16.56 11.1532 16.56H11.3026Z" fill="#EE1D51"/>
<path fill-rule="evenodd" clip-rule="evenodd" d="M11.1396 14.5927H10.9902C10.4425 14.5927 9.99843 15.0331 9.99843 15.5764C9.99843 16.1196 10.4425 16.56 10.9902 16.56H11.1396C10.5918 16.56 10.1478 16.1196 10.1478 15.5764C10.1478 15.0331 10.5918 14.5927 11.1396 14.5927V14.5927Z" fill="#66C8CF"/>
<path d="M11.1464 16.0545C11.4128 16.0545 11.6288 15.8404 11.6288 15.5763C11.6288 15.3121 11.4128 15.098 11.1464 15.098C10.88 15.098 10.6641 15.3121 10.6641 15.5763C10.6641 15.8404 10.88 16.0545 11.1464 16.0545Z" fill="#010101"/>
<path fill-rule="evenodd" clip-rule="evenodd" d="M3.60001 14.1479V14.6465H4.18407V16.5465H4.76835V14.66H5.24377L5.40677 14.1479H3.60001ZM8.38189 14.1479V14.6465H8.96595V16.5465H9.55023V14.66H10.0256L10.1887 14.1479H8.38189ZM5.51557 14.4309C5.51557 14.2747 5.64308 14.1479 5.80061 14.1479C5.95829 14.1479 6.08595 14.2747 6.08595 14.4309C6.08595 14.5871 5.95837 14.7139 5.80061 14.7139C5.64308 14.7138 5.51557 14.5871 5.51557 14.4309ZM5.51557 14.916H6.08595V16.5465H5.51557V14.916ZM6.33053 14.1479V16.5465H6.90113V15.9267L7.07775 15.7649L7.63467 16.5599H8.24595L7.44437 15.4011L8.16437 14.7003H7.47159L6.90113 15.2663V14.1479H6.33053ZM12.4844 14.1479V16.5465H13.055V15.9267L13.2316 15.7649L13.7887 16.5599H14.4L13.5984 15.4011L14.3184 14.7003H13.6256L13.055 15.2663V14.1479H12.4844Z" fill="white"/>
<path fill-rule="evenodd" clip-rule="evenodd" d="M11.604 5.84533C12.392 6.40829 13.3574 6.73956 14.3999 6.73956V4.7343C14.2026 4.73437 14.0058 4.71379 13.8128 4.67288V6.25133C12.7703 6.25133 11.805 5.92006 11.0168 5.35709V9.44921C11.0168 11.4963 9.35652 13.1557 7.30847 13.1557C6.54433 13.1557 5.83405 12.9248 5.244 12.5288C5.91742 13.217 6.85652 13.6439 7.89549 13.6439C9.94368 13.6439 11.6041 11.9845 11.6041 9.93737V5.84533H11.604ZM12.3283 3.82227C11.9256 3.38257 11.6613 2.81427 11.604 2.186V1.9281H11.0476C11.1876 2.72658 11.6654 3.40878 12.3283 3.82227V3.82227ZM6.53936 10.958C6.31439 10.6631 6.19279 10.3024 6.19333 9.93153C6.19333 8.99525 6.95279 8.23615 7.88973 8.23615C8.06432 8.23603 8.23788 8.26282 8.40432 8.31557V6.26552C8.20985 6.23888 8.0136 6.22759 7.81737 6.23175V7.82741C7.65086 7.77466 7.47723 7.74787 7.30257 7.74799C6.36563 7.74799 5.60624 8.50709 5.60624 9.44345C5.60624 10.1055 5.98582 10.6787 6.53936 10.958V10.958Z" fill="#EE1D52"/>
<path fill-rule="evenodd" clip-rule="evenodd" d="M11.0168 5.35709C11.805 5.92006 12.7702 6.25133 13.8127 6.25133V4.67288C13.2308 4.54904 12.7157 4.24506 12.3283 3.82227C11.6653 3.40878 11.1876 2.72658 11.0476 1.9281H9.58605V9.93729C9.58274 10.871 8.82459 11.627 7.88967 11.627C7.33873 11.627 6.84928 11.3645 6.53932 10.958C5.98578 10.6787 5.6062 10.1055 5.6062 9.44345C5.6062 8.50709 6.36558 7.74799 7.30251 7.74799C7.48201 7.74799 7.65502 7.77593 7.81731 7.82741V6.23175C5.80528 6.27329 4.18709 7.91647 4.18709 9.93736C4.18709 10.9462 4.59007 11.8607 5.24404 12.5289C5.83408 12.9249 6.54436 13.1558 7.30849 13.1558C9.35652 13.1558 11.0168 11.4963 11.0168 9.44928V5.35709Z" fill="white"/>
<path fill-rule="evenodd" clip-rule="evenodd" d="M13.8127 4.67288V4.24607C13.2879 4.24686 12.7735 4.09998 12.3283 3.82221C12.7224 4.25347 13.2413 4.55088 13.8127 4.67288V4.67288ZM11.0475 1.9281C11.0342 1.8518 11.0239 1.77498 11.0168 1.69785V1.43994H8.99881V9.44922C8.99557 10.3828 8.23749 11.1388 7.3025 11.1388C7.02797 11.1388 6.76884 11.0738 6.53931 10.958C6.84927 11.3646 7.33872 11.627 7.88966 11.627C8.8245 11.627 9.58272 10.871 9.58603 9.93731V1.9281H11.0475ZM7.81737 6.23176V5.77736C7.64874 5.75431 7.47874 5.74279 7.30855 5.74288C5.26031 5.74288 3.60001 7.40233 3.60001 9.44922C3.60001 10.7325 4.25254 11.8635 5.24411 12.5288C4.59014 11.8606 4.18716 10.9461 4.18716 9.93731C4.18716 7.91648 5.80527 6.2733 7.81737 6.23176V6.23176Z" fill="#69C9D0"/>
<path fill-rule="evenodd" clip-rule="evenodd" d="M11.1531 16.56C11.7008 16.56 12.1449 16.1196 12.1449 15.5764C12.1449 15.0331 11.7008 14.5927 11.1531 14.5927H11.1396C10.5919 14.5927 10.1478 15.0331 10.1478 15.5764C10.1478 16.1196 10.5919 16.56 11.1396 16.56H11.1531ZM10.6641 15.5764C10.6641 15.3121 10.8801 15.0981 11.1465 15.0981C11.4127 15.0981 11.6287 15.3121 11.6287 15.5764C11.6287 15.8406 11.4127 16.0548 11.1465 16.0548C10.8801 16.0547 10.6641 15.8406 10.6641 15.5764Z" fill="white"/>
</svg>
