<svg width="18" height="18" viewBox="0 0 18 18" fill="none" xmlns="http://www.w3.org/2000/svg">
<g clip-path="url(#clip0)">
<path d="M17.9991 13.45C17.9991 13.5485 17.9961 13.7623 17.9902 13.9274C17.9757 14.3314 17.9437 14.8527 17.8953 15.0902C17.8225 15.4471 17.7126 15.784 17.5693 16.0645C17.3998 16.3962 17.1836 16.6933 16.9267 16.9498C16.6703 17.2057 16.3735 17.4211 16.0422 17.5899C15.7604 17.7335 15.4213 17.8435 15.0624 17.9159C14.8272 17.9634 14.3098 17.9948 13.9084 18.0091C13.7431 18.015 13.5293 18.018 13.4311 18.018L4.56769 18.0166C4.46913 18.0166 4.25541 18.0135 4.0903 18.0076C3.68629 17.9931 3.16499 17.9611 2.92746 17.9127C2.57051 17.8399 2.23359 17.73 1.95318 17.5868C1.62144 17.4172 1.32431 17.201 1.06787 16.9441C0.811925 16.6877 0.596556 16.3909 0.427751 16.0597C0.284066 15.7778 0.174131 15.4388 0.101656 15.0798C0.0541945 14.8446 0.0227821 14.3272 0.00849094 13.9258C0.00261978 13.7606 -0.000350952 13.5468 -0.000350952 13.4486L0.00105531 4.58522C0.00105531 4.48666 0.0040612 4.27293 0.00998509 4.10782C0.0244872 3.70382 0.0564973 3.18252 0.104926 2.94501C0.177717 2.58807 0.287582 2.25115 0.430862 1.97072C0.60037 1.639 0.816601 1.34186 1.07351 1.08542C1.32987 0.829497 1.62673 0.614112 1.95796 0.445292C2.23986 0.301644 2.5789 0.19171 2.93786 0.119235C3.17301 0.0717568 3.69042 0.0403447 4.09184 0.0260713C4.25711 0.0201826 4.47092 0.0172119 4.56908 0.0172119L13.4325 0.0186357C13.5311 0.0186357 13.7448 0.0216416 13.9099 0.0275654C14.3139 0.0420674 14.8352 0.0740771 15.0728 0.122505C15.4297 0.195296 15.7666 0.305159 16.0471 0.448438C16.3788 0.617944 16.6759 0.834173 16.9324 1.09108C17.1883 1.34744 17.4037 1.64428 17.5725 1.97552C17.7162 2.25742 17.8261 2.59643 17.8986 2.9554C17.946 3.19056 17.9774 3.70795 17.9917 4.10938C17.9976 4.27465 18.0006 4.48844 18.0006 4.58663L17.9991 13.45V13.45Z" fill="url(#paint0_linear)"/>
<path d="M13.7691 4.27585C12.5504 3.05616 10.9297 2.38411 9.20288 2.38342C5.64501 2.38342 2.74933 5.27798 2.7479 8.83586C2.74745 9.97315 3.04468 11.0833 3.60954 12.0618L2.69378 15.4057L6.11565 14.5084C7.05848 15.0224 8.11996 15.2934 9.20032 15.2938H9.20297C12.7605 15.2938 15.6564 12.3989 15.6579 8.84099C15.6586 7.11681 14.9878 5.49554 13.7691 4.27585V4.27585ZM9.20297 14.204H9.20077C8.23806 14.2036 7.29383 13.9451 6.4701 13.4564L6.27417 13.3402L4.24358 13.8727L4.78559 11.8935L4.65799 11.6906C4.12094 10.8367 3.8373 9.84966 3.83772 8.83628C3.83888 5.87913 6.24567 3.47327 9.20504 3.47327C10.638 3.47381 11.9851 4.03244 12.9981 5.04619C14.011 6.05994 14.5685 7.4075 14.568 8.84059C14.5668 11.798 12.1601 14.204 9.20297 14.204V14.204ZM12.1458 10.1871C11.9845 10.1064 11.1916 9.71635 11.0437 9.66254C10.8959 9.60872 10.7884 9.58182 10.6808 9.74326C10.5733 9.90466 10.2642 10.2678 10.1701 10.3754C10.076 10.4831 9.98197 10.4965 9.82069 10.4158C9.65939 10.3351 9.13971 10.1648 8.52366 9.61554C8.04421 9.18806 7.72049 8.66001 7.62641 8.49857C7.53233 8.33715 7.61641 8.24991 7.69715 8.16951C7.76969 8.09728 7.85843 7.98119 7.93908 7.88705C8.01971 7.79292 8.0466 7.72563 8.10036 7.61803C8.15413 7.51042 8.12723 7.41625 8.08691 7.33555C8.0466 7.25485 7.72402 6.46123 7.58962 6.13841C7.45872 5.82401 7.32572 5.86655 7.22672 5.86161C7.13274 5.85693 7.02511 5.85595 6.9176 5.85595C6.8101 5.85595 6.63535 5.89629 6.48752 6.05771C6.33968 6.21913 5.92303 6.6092 5.92303 7.4028C5.92303 8.1964 6.50095 8.96311 6.5816 9.0707C6.66224 9.17832 7.71889 10.8069 9.33683 11.5053C9.72165 11.6714 10.0221 11.7706 10.2563 11.845C10.6427 11.9676 10.9943 11.9503 11.2722 11.9088C11.5821 11.8626 12.2264 11.5188 12.3609 11.1422C12.4953 10.7655 12.4953 10.4427 12.4549 10.3755C12.4146 10.3082 12.3071 10.2678 12.1458 10.1871V10.1871Z" fill="white"/>
</g>
<defs>
<linearGradient id="paint0_linear" x1="9.00011" y1="0.0172119" x2="9.00011" y2="18.018" gradientUnits="userSpaceOnUse">
<stop stop-color="#61FD7D"/>
<stop offset="1" stop-color="#2BB826"/>
</linearGradient>
<clipPath id="clip0">
<rect width="18" height="18" fill="white"/>
</clipPath>
</defs>
</svg>
