<svg width="276" height="29" viewBox="0 0 276 29" fill="none" xmlns="http://www.w3.org/2000/svg">
<rect width="132" height="29" rx="10" fill="#09339E"/>
<path d="M22.3555 19H24.5001V12.2734H26.9434V10.5449H19.918V12.2734H22.3555V19ZM28.8358 19H34.6307V17.2715H30.9862V15.543H34.4139V13.9609H30.9862V12.2734H34.6307V10.5449H28.8358V19ZM36.2184 19H38.5035L40.1383 16.2578H40.191L41.8375 19H44.2516L41.5797 14.7695V14.7402L44.275 10.5449H41.8844L40.3434 13.4102H40.2848L38.732 10.5449H36.2184L38.8023 14.7168V14.752L36.2184 19ZM46.1439 19H48.2943V15.5898H51.6634V19H53.808V10.5449H51.6634V13.8613H48.2943V10.5449H46.1439V19ZM59.9308 19.2285C62.4737 19.2285 64.0968 17.5234 64.0968 14.7754V14.7637C64.0968 12.0215 62.4679 10.3164 59.9308 10.3164C57.3878 10.3164 55.7589 12.0215 55.7589 14.7637V14.7754C55.7589 17.5234 57.3761 19.2285 59.9308 19.2285ZM59.9308 17.4473C58.7296 17.4473 57.9445 16.4043 57.9445 14.7754V14.7637C57.9445 13.1406 58.7413 12.0977 59.9308 12.0977C61.1144 12.0977 61.9054 13.1406 61.9054 14.7637V14.7754C61.9054 16.4043 61.1144 17.4473 59.9308 17.4473ZM65.8075 19.0879C67.6942 19.0879 68.3915 17.6699 68.497 15.5664L68.6669 12.2734H70.829V19H72.9794V10.5449H66.7567L66.5341 15.4082C66.4872 16.416 66.2997 17.1836 65.4852 17.1836C65.3036 17.1836 65.1454 17.1543 65.0516 17.1367V19C65.1688 19.0352 65.4501 19.0879 65.8075 19.0879ZM79.1022 19.2285C81.6452 19.2285 83.2682 17.5234 83.2682 14.7754V14.7637C83.2682 12.0215 81.6393 10.3164 79.1022 10.3164C76.5592 10.3164 74.9303 12.0215 74.9303 14.7637V14.7754C74.9303 17.5234 76.5475 19.2285 79.1022 19.2285ZM79.1022 17.4473C77.901 17.4473 77.1159 16.4043 77.1159 14.7754V14.7637C77.1159 13.1406 77.9127 12.0977 79.1022 12.0977C80.2858 12.0977 81.0768 13.1406 81.0768 14.7637V14.7754C81.0768 16.4043 80.2858 17.4473 79.1022 17.4473ZM87.3754 19V12.2734H90.9027V10.5449H85.225V19H87.3754ZM92.8478 19H94.8986L98.297 13.8672H98.4142V19H100.559V10.5449H98.508L95.1095 15.6836H94.9923V10.5449H92.8478V19ZM102.908 19H104.959L108.357 13.8672H108.475V19H110.619V10.5449H108.568L105.17 15.6836H105.053V10.5449H102.908V19Z" fill="white"/>
<rect x="144.5" y="0.5" width="131" height="28" rx="9.5" stroke="#E5E5E5"/>
<rect x="210" y="6" width="5" height="17" rx="2.5" fill="#FE5000"/>
<rect x="221" y="6" width="5" height="17" rx="2.5" fill="#FE5000"/>
<rect x="232" y="6" width="5" height="17" rx="2.5" fill="#FE5000"/>
<rect x="243" y="6" width="5" height="17" rx="2.5" fill="#FE5000"/>
<rect x="254" y="6" width="5" height="17" rx="2.5" fill="#E5E5E5"/>
<path d="M164.995 19H167.146V16.5215H168.634C170.527 16.5215 171.745 15.3613 171.745 13.5508V13.5391C171.745 11.7285 170.527 10.5449 168.634 10.5449H164.995V19ZM168.119 12.1914C169.033 12.1914 169.572 12.6602 169.572 13.5391V13.5508C169.572 14.4297 169.033 14.9043 168.119 14.9043H167.146V12.1914H168.119ZM173.685 19H175.735L179.134 13.8672H179.251V19H181.396V10.5449H179.345L175.946 15.6836H175.829V10.5449H173.685V19ZM187.436 19.2285C189.604 19.2285 191.104 17.9102 191.245 16.0234V15.9297H189.177L189.165 15.9941C189.018 16.8672 188.368 17.4473 187.442 17.4473C186.259 17.4473 185.538 16.4336 185.538 14.7695V14.7578C185.538 13.1055 186.259 12.0977 187.436 12.0977C188.362 12.0977 189.042 12.7188 189.165 13.6035L189.171 13.6562H191.239V13.5508C191.116 11.6816 189.563 10.3164 187.436 10.3164C184.899 10.3164 183.347 12.0098 183.347 14.7637V14.7754C183.347 17.5293 184.905 19.2285 187.436 19.2285ZM195.311 19V15.707H195.616L198.188 19H200.719L197.409 14.7051L200.544 10.5449H198.235L195.604 14.084H195.311V10.5449H193.161V19H195.311Z" fill="#21212B"/>
</svg>
