<svg width="319" height="300" viewBox="0 0 319 300" fill="none" xmlns="http://www.w3.org/2000/svg">
<path d="M17.4465 232.406C5.73703 225.646 -0.0782054 216.771 0.000794319 207.91C0.0787353 199.168 5.89397 190.44 17.4465 183.771L57.5964 160.59L117.076 126.249C140.338 112.819 178.053 112.819 201.315 126.249L272.907 167.583L300.945 183.771C312.498 190.44 318.313 199.168 318.391 207.91C318.47 216.771 312.655 225.646 300.945 232.406L201.315 289.927C178.053 303.358 140.338 303.358 117.076 289.927L17.4465 232.406Z" fill="#C4C4C4"/>
<path d="M17.4465 232.406C5.73703 225.646 -0.0782054 216.771 0.000794319 207.91C0.0787353 199.168 5.89397 190.44 17.4465 183.771L57.5964 160.59L117.076 126.249C140.338 112.819 178.053 112.819 201.315 126.249L272.907 167.583L300.945 183.771C312.498 190.44 318.313 199.168 318.391 207.91C318.47 216.771 312.655 225.646 300.945 232.406L201.315 289.927C178.053 303.358 140.338 303.358 117.076 289.927L17.4465 232.406Z" fill="white"/>
<path d="M17.4465 232.406C5.73703 225.646 -0.0782054 216.771 0.000794319 207.91C0.0787353 199.168 5.89397 190.44 17.4465 183.771L57.5964 160.59L117.076 126.249C140.338 112.819 178.053 112.819 201.315 126.249L272.907 167.583L300.945 183.771C312.498 190.44 318.313 199.168 318.391 207.91C318.47 216.771 312.655 225.646 300.945 232.406L201.315 289.927C178.053 303.358 140.338 303.358 117.076 289.927L17.4465 232.406Z" fill="url(#paint0_linear_1434_7848)" fill-opacity="0.3"/>
<path d="M0.000794319 207.91C0.0787353 199.168 5.89397 190.44 17.4465 183.771L57.5964 160.59L0.000794319 180.333V207.91Z" fill="#C4C4C4"/>
<path d="M0.000794319 207.91C0.0787353 199.168 5.89397 190.44 17.4465 183.771L57.5964 160.59L0.000794319 180.333V207.91Z" fill="white"/>
<path d="M0.000794319 207.91C0.0787353 199.168 5.89397 190.44 17.4465 183.771L57.5964 160.59L0.000794319 180.333V207.91Z" fill="url(#paint1_linear_1434_7848)" fill-opacity="0.3"/>
<path d="M300.945 183.771C312.498 190.44 318.313 199.168 318.391 207.91V180.333L272.907 167.583L300.945 183.771Z" fill="#C4C4C4"/>
<path d="M300.945 183.771C312.498 190.44 318.313 199.168 318.391 207.91V180.333L272.907 167.583L300.945 183.771Z" fill="white"/>
<path d="M300.945 183.771C312.498 190.44 318.313 199.168 318.391 207.91V180.333L272.907 167.583L300.945 183.771Z" fill="url(#paint2_linear_1434_7848)" fill-opacity="0.3"/>
<path d="M17.4465 204.896C-5.8155 191.466 -5.8155 169.691 17.4465 156.261L117.076 98.7398C140.338 85.3094 178.053 85.3094 201.315 98.7398L300.945 156.261C324.207 169.691 324.207 191.466 300.945 204.896L201.315 262.418C178.053 275.848 140.338 275.848 117.076 262.418L17.4465 204.896Z" fill="#C4C4C4"/>
<path d="M17.4465 204.896C-5.8155 191.466 -5.8155 169.691 17.4465 156.261L117.076 98.7398C140.338 85.3094 178.053 85.3094 201.315 98.7398L300.945 156.261C324.207 169.691 324.207 191.466 300.945 204.896L201.315 262.418C178.053 275.848 140.338 275.848 117.076 262.418L17.4465 204.896Z" fill="white"/>
<path d="M17.4465 204.896C-5.8155 191.466 -5.8155 169.691 17.4465 156.261L117.076 98.7398C140.338 85.3094 178.053 85.3094 201.315 98.7398L300.945 156.261C324.207 169.691 324.207 191.466 300.945 204.896L201.315 262.418C178.053 275.848 140.338 275.848 117.076 262.418L17.4465 204.896Z" fill="url(#paint3_linear_1434_7848)" fill-opacity="0.15"/>
<g filter="url(#filter0_f_1434_7848)">
<rect width="117.222" height="136.97" rx="29" transform="matrix(0.866025 -0.5 0.866025 0.5 51.9556 166.418)" fill="black" fill-opacity="0.08"/>
</g>
<rect width="122.607" height="68.2859" transform="matrix(0.866041 0.499972 -0.866041 0.499972 168.417 15.9528)" fill="url(#paint4_linear_1434_7848)"/>
<rect width="122.607" height="68.2859" transform="matrix(0.866041 0.499972 -0.866041 0.499972 168.417 15.9528)" fill="#9BD050"/>
<rect width="122.607" height="68.2859" transform="matrix(0.866041 0.499972 -0.866041 0.499972 168.417 15.9528)" fill="url(#paint5_linear_1434_7848)" fill-opacity="0.75"/>
<path fill-rule="evenodd" clip-rule="evenodd" d="M188.519 36.5603L166.308 24.3374L160.562 27.6549L182.773 39.8778L188.519 36.5603ZM178.388 42.4094L156.177 30.1865L150.431 33.504L159.776 38.4709L146.204 46.3068L152.219 49.5962L165.653 41.8401L172.642 45.7269L178.388 42.4094Z" fill="white" fill-opacity="0.5"/>
<rect width="35.4674" height="68.2914" transform="matrix(0.866041 0.499972 -0.866041 0.499972 202.724 35.5568)" fill="#F6F6F5"/>
<rect width="7.86502" height="68.2914" transform="matrix(0.866041 0.499972 -0.866041 0.499972 226.644 49.3669)" fill="#EBEBE8"/>
<rect width="7.86899" height="68.2914" transform="matrix(0.866041 0.499972 -0.866041 0.499972 202.724 35.5444)" fill="#BEBEB6" fill-opacity="0.2"/>
<rect width="122.627" height="31.2428" transform="matrix(0.866009 0.500028 3.18609e-05 1 109.279 50.0379)" fill="url(#paint6_linear_1434_7848)"/>
<rect width="122.627" height="31.2428" transform="matrix(0.866009 0.500028 3.18609e-05 1 109.279 50.0379)" fill="#5B6F40"/>
<rect width="122.627" height="31.2428" transform="matrix(0.866009 0.500028 3.18609e-05 1 109.279 50.0379)" fill="url(#paint7_linear_1434_7848)" fill-opacity="0.75"/>
<path d="M109.217 57.322L215.513 119.221" stroke="white" stroke-opacity="0.2" stroke-width="2"/>
<path d="M109.279 65.4183L215.522 127.374" stroke="white" stroke-opacity="0.2" stroke-width="2"/>
<path d="M109.279 73.6502L215.519 135.543" stroke="white" stroke-opacity="0.2" stroke-width="2"/>
<rect width="35.5321" height="31.5191" transform="matrix(0.866009 0.500028 3.18609e-05 1 143.586 69.6297)" fill="#F6F6F5"/>
<rect width="35.5321" height="31.5191" transform="matrix(0.866009 0.500028 3.18609e-05 1 143.586 69.6297)" fill="#CBCBCA"/>
<rect width="7.87401" height="31.5191" transform="matrix(0.866009 0.500028 3.18609e-05 1 143.586 69.6297)" fill="#C2C2C0"/>
<rect width="7.81958" height="31.5191" transform="matrix(0.866009 0.500028 3.18609e-05 1 167.589 83.5076)" fill="#BEBEB6" fill-opacity="0.2"/>
<rect width="7.81958" height="31.5191" transform="matrix(0.866009 0.500028 3.18609e-05 1 167.589 83.5076)" fill="#C2C2C0"/>
<rect width="68.3855" height="31.2438" transform="matrix(0.866009 -0.500028 -3.18609e-05 1 215.439 111.374)" fill="#B5E86F"/>
<path d="M215.439 119.204L274.671 85.0035M215.439 127.375L274.671 93.175M215.439 135.531L274.671 101.331" stroke="white" stroke-opacity="0.2" stroke-width="2"/>
<rect width="122.607" height="68.2859" transform="matrix(0.866041 0.499972 -0.866041 0.499972 101.084 54.7174)" fill="url(#paint8_linear_1434_7848)"/>
<rect width="122.607" height="68.2859" transform="matrix(0.866041 0.499972 -0.866041 0.499972 101.084 54.7174)" fill="#9BD050"/>
<rect width="122.607" height="68.2859" transform="matrix(0.866041 0.499972 -0.866041 0.499972 101.084 54.7174)" fill="url(#paint9_linear_1434_7848)" fill-opacity="0.75"/>
<path fill-rule="evenodd" clip-rule="evenodd" d="M121.187 75.3249L98.976 63.102L93.23 66.4194L115.441 78.6424L121.187 75.3249ZM111.056 81.174L88.8451 68.9511L83.0991 72.2685L92.4438 77.2354L78.8716 85.0714L84.8867 88.3607L98.3206 80.6047L105.31 84.4914L111.056 81.174Z" fill="white" fill-opacity="0.5"/>
<rect width="35.4674" height="68.2914" transform="matrix(0.866041 0.499972 -0.866041 0.499972 135.392 74.3213)" fill="#F6F6F5"/>
<rect width="7.86502" height="68.2914" transform="matrix(0.866041 0.499972 -0.866041 0.499972 159.312 88.1438)" fill="#EBEBE8"/>
<rect width="7.86899" height="68.2914" transform="matrix(0.866041 0.499972 -0.866041 0.499972 135.392 74.309)" fill="#BEBEB6" fill-opacity="0.2"/>
<rect width="122.627" height="31.2428" transform="matrix(0.866009 0.500028 3.18609e-05 1 41.9465 88.8024)" fill="url(#paint10_linear_1434_7848)"/>
<rect width="122.627" height="31.2428" transform="matrix(0.866009 0.500028 3.18609e-05 1 41.9465 88.8024)" fill="#5B6F40"/>
<rect width="122.627" height="31.2428" transform="matrix(0.866009 0.500028 3.18609e-05 1 41.9465 88.8024)" fill="url(#paint11_linear_1434_7848)" fill-opacity="0.75"/>
<path d="M41.8845 96.0865L148.18 157.986" stroke="white" stroke-opacity="0.2" stroke-width="2"/>
<path d="M41.9465 104.183L148.189 166.139" stroke="white" stroke-opacity="0.2" stroke-width="2"/>
<path d="M41.9465 112.415L148.186 174.307" stroke="white" stroke-opacity="0.2" stroke-width="2"/>
<rect width="35.5321" height="31.5191" transform="matrix(0.866009 0.500028 3.18609e-05 1 76.2542 108.394)" fill="#F6F6F5"/>
<rect width="35.5321" height="31.5191" transform="matrix(0.866009 0.500028 3.18609e-05 1 76.2542 108.394)" fill="#CBCBCA"/>
<rect width="7.87401" height="31.5191" transform="matrix(0.866009 0.500028 3.18609e-05 1 76.2542 108.394)" fill="#C2C2C0"/>
<rect width="7.81958" height="31.5191" transform="matrix(0.866009 0.500028 3.18609e-05 1 100.257 122.284)" fill="#BEBEB6" fill-opacity="0.2"/>
<rect width="7.81958" height="31.5191" transform="matrix(0.866009 0.500028 3.18609e-05 1 100.257 122.284)" fill="#C2C2C0"/>
<rect width="68.3855" height="31.2438" transform="matrix(0.866009 -0.500028 -3.18609e-05 1 148.107 150.139)" fill="#B5E86F"/>
<path d="M148.107 157.968L207.339 123.768M148.107 166.14L207.339 131.94M148.107 174.296L207.339 140.096" stroke="white" stroke-opacity="0.2" stroke-width="2"/>
<rect width="122.607" height="68.2859" transform="matrix(0.866041 0.499972 -0.866041 0.499972 130.62 0)" fill="url(#paint12_linear_1434_7848)"/>
<rect width="122.607" height="68.2859" transform="matrix(0.866041 0.499972 -0.866041 0.499972 130.62 0)" fill="#9BD050"/>
<rect width="122.607" height="68.2859" transform="matrix(0.866041 0.499972 -0.866041 0.499972 130.62 0)" fill="url(#paint13_linear_1434_7848)" fill-opacity="0.75"/>
<path fill-rule="evenodd" clip-rule="evenodd" d="M150.722 20.6075L128.511 8.38464L122.765 11.7021L144.976 23.925L150.722 20.6075ZM140.591 26.4566L118.38 14.2337L112.634 17.5512L121.979 22.5181L108.407 30.354L114.422 33.6434L127.856 25.8873L134.845 29.7741L140.591 26.4566Z" fill="white" fill-opacity="0.5"/>
<rect width="35.4674" height="68.2914" transform="matrix(0.866041 0.499972 -0.866041 0.499972 164.927 19.6039)" fill="#F6F6F5"/>
<rect width="7.86502" height="68.2914" transform="matrix(0.866041 0.499972 -0.866041 0.499972 188.848 33.4264)" fill="#EBEBE8"/>
<rect width="7.86899" height="68.2914" transform="matrix(0.866041 0.499972 -0.866041 0.499972 164.927 19.5916)" fill="#BEBEB6" fill-opacity="0.2"/>
<rect width="122.627" height="31.2428" transform="matrix(0.866009 0.500028 3.18609e-05 1 71.4822 34.0851)" fill="url(#paint14_linear_1434_7848)"/>
<rect width="122.627" height="31.2428" transform="matrix(0.866009 0.500028 3.18609e-05 1 71.4822 34.0851)" fill="#5B6F40"/>
<rect width="122.627" height="31.2428" transform="matrix(0.866009 0.500028 3.18609e-05 1 71.4822 34.0851)" fill="url(#paint15_linear_1434_7848)" fill-opacity="0.75"/>
<path d="M71.4202 41.3692L177.716 103.269" stroke="white" stroke-opacity="0.2" stroke-width="2"/>
<path d="M71.4822 49.4655L177.724 111.422" stroke="white" stroke-opacity="0.2" stroke-width="2"/>
<path d="M71.4822 57.6974L177.722 119.59" stroke="white" stroke-opacity="0.2" stroke-width="2"/>
<rect width="35.5321" height="31.5191" transform="matrix(0.866009 0.500028 3.18609e-05 1 105.79 53.6768)" fill="#F6F6F5"/>
<rect width="35.5321" height="31.5191" transform="matrix(0.866009 0.500028 3.18609e-05 1 105.79 53.6768)" fill="#CBCBCA"/>
<rect width="7.87401" height="31.5191" transform="matrix(0.866009 0.500028 3.18609e-05 1 105.79 53.6768)" fill="#C2C2C0"/>
<rect width="7.81958" height="31.5191" transform="matrix(0.866009 0.500028 3.18609e-05 1 129.792 67.5671)" fill="#BEBEB6" fill-opacity="0.2"/>
<rect width="7.81958" height="31.5191" transform="matrix(0.866009 0.500028 3.18609e-05 1 129.792 67.5671)" fill="#C2C2C0"/>
<rect width="68.3855" height="31.2438" transform="matrix(0.866009 -0.500028 -3.18609e-05 1 177.643 95.4214)" fill="#B5E86F"/>
<path d="M177.643 103.251L236.874 69.0507M177.643 111.422L236.874 77.2221M177.643 119.578L236.874 85.3782" stroke="white" stroke-opacity="0.2" stroke-width="2"/>
<defs>
<filter id="filter0_f_1434_7848" x="46.6675" y="96.3008" width="230.713" height="150.108" filterUnits="userSpaceOnUse" color-interpolation-filters="sRGB">
<feFlood flood-opacity="0" result="BackgroundImageFix"/>
<feBlend mode="normal" in="SourceGraphic" in2="BackgroundImageFix" result="shape"/>
<feGaussianBlur stdDeviation="10" result="effect1_foregroundBlur_1434_7848"/>
</filter>
<linearGradient id="paint0_linear_1434_7848" x1="-178.877" y1="-2.61851" x2="-52.5298" y2="362.386" gradientUnits="userSpaceOnUse">
<stop stop-color="#CCD1D3" stop-opacity="0.6"/>
<stop offset="1" stop-color="#C3C6CA"/>
</linearGradient>
<linearGradient id="paint1_linear_1434_7848" x1="-178.877" y1="-2.61851" x2="-52.5298" y2="362.386" gradientUnits="userSpaceOnUse">
<stop stop-color="#CCD1D3" stop-opacity="0.6"/>
<stop offset="1" stop-color="#C3C6CA"/>
</linearGradient>
<linearGradient id="paint2_linear_1434_7848" x1="-178.877" y1="-2.61851" x2="-52.5298" y2="362.386" gradientUnits="userSpaceOnUse">
<stop stop-color="#CCD1D3" stop-opacity="0.6"/>
<stop offset="1" stop-color="#C3C6CA"/>
</linearGradient>
<linearGradient id="paint3_linear_1434_7848" x1="1.38561" y1="155.55" x2="255.138" y2="10.4584" gradientUnits="userSpaceOnUse">
<stop stop-color="#BDC6CB" stop-opacity="0.36"/>
<stop offset="1" stop-color="#B7BEC8"/>
</linearGradient>
<linearGradient id="paint4_linear_1434_7848" x1="121.289" y1="39.0845" x2="62.0304" y2="97.0571" gradientUnits="userSpaceOnUse">
<stop stop-color="#95E0A1"/>
<stop offset="1" stop-color="#53BD5D"/>
</linearGradient>
<linearGradient id="paint5_linear_1434_7848" x1="92.7783" y1="-3.11508" x2="-3.24481" y2="81.0005" gradientUnits="userSpaceOnUse">
<stop stop-color="#B4E76C"/>
<stop offset="1" stop-color="#89C138"/>
</linearGradient>
<linearGradient id="paint6_linear_1434_7848" x1="-17.9348" y1="50.9196" x2="-8.5539" y2="0.402897" gradientUnits="userSpaceOnUse">
<stop stop-color="#9DDA9F"/>
<stop offset="1" stop-color="#78C577"/>
</linearGradient>
<linearGradient id="paint7_linear_1434_7848" x1="79.2645" y1="-1.81198" x2="-2.77785" y2="-5.90507" gradientUnits="userSpaceOnUse">
<stop stop-color="#B4E76C"/>
<stop offset="1" stop-color="#89C138"/>
</linearGradient>
<linearGradient id="paint8_linear_1434_7848" x1="121.289" y1="39.0845" x2="62.0304" y2="97.0571" gradientUnits="userSpaceOnUse">
<stop stop-color="#95E0A1"/>
<stop offset="1" stop-color="#53BD5D"/>
</linearGradient>
<linearGradient id="paint9_linear_1434_7848" x1="92.7783" y1="-3.11508" x2="-3.24481" y2="81.0005" gradientUnits="userSpaceOnUse">
<stop stop-color="#B4E76C"/>
<stop offset="1" stop-color="#89C138"/>
</linearGradient>
<linearGradient id="paint10_linear_1434_7848" x1="-17.9348" y1="50.9196" x2="-8.5539" y2="0.402897" gradientUnits="userSpaceOnUse">
<stop stop-color="#9DDA9F"/>
<stop offset="1" stop-color="#78C577"/>
</linearGradient>
<linearGradient id="paint11_linear_1434_7848" x1="79.2645" y1="-1.81198" x2="-2.77785" y2="-5.90507" gradientUnits="userSpaceOnUse">
<stop stop-color="#B4E76C"/>
<stop offset="1" stop-color="#89C138"/>
</linearGradient>
<linearGradient id="paint12_linear_1434_7848" x1="121.289" y1="39.0845" x2="62.0304" y2="97.0571" gradientUnits="userSpaceOnUse">
<stop stop-color="#95E0A1"/>
<stop offset="1" stop-color="#53BD5D"/>
</linearGradient>
<linearGradient id="paint13_linear_1434_7848" x1="92.7783" y1="-3.11508" x2="-3.24481" y2="81.0005" gradientUnits="userSpaceOnUse">
<stop stop-color="#B4E76C"/>
<stop offset="1" stop-color="#89C138"/>
</linearGradient>
<linearGradient id="paint14_linear_1434_7848" x1="-17.9348" y1="50.9196" x2="-8.5539" y2="0.402897" gradientUnits="userSpaceOnUse">
<stop stop-color="#9DDA9F"/>
<stop offset="1" stop-color="#78C577"/>
</linearGradient>
<linearGradient id="paint15_linear_1434_7848" x1="79.2645" y1="-1.81198" x2="-2.77785" y2="-5.90507" gradientUnits="userSpaceOnUse">
<stop stop-color="#B4E76C"/>
<stop offset="1" stop-color="#89C138"/>
</linearGradient>
</defs>
</svg>
