<svg width="116" height="196" viewBox="0 0 116 196" fill="none" xmlns="http://www.w3.org/2000/svg">
<g clip-path="url(#clip0_1_68)">
<g filter="url(#filter0_f_1_68)">
<path d="M17.5083 139.659C8.27697 134.113 8.42934 125.383 17.8486 120.162V120.162C27.2679 114.941 42.3871 115.205 51.6185 120.752L103.906 152.169C113.137 157.716 112.985 166.445 103.565 171.666V171.666C94.1461 176.887 79.0268 176.623 69.7955 171.077L17.5083 139.659Z" fill="black" fill-opacity="0.08"/>
</g>
<path d="M17.516 27.116C17.516 22.7348 19.5358 19.3457 21.8461 17.616C24.6153 15.5429 28.5566 16.4903 33.1044 19.116L100.654 58.116C108.997 62.9323 116.243 74.4834 116.243 84.116L116.243 144.116C116.243 148.603 114.323 150.917 111.913 152.616C111.645 152.805 111.337 152.966 111.047 153.116C108.339 154.516 104.679 154.44 100.654 152.116L90.2621 146.116L33.1044 113.116C24.7623 108.3 17.516 96.7486 17.516 87.116L17.516 42.116L17.516 27.116Z" fill="#DFDFDF"/>
<path d="M17.516 27.116C17.516 22.7348 19.5358 19.3457 21.8461 17.616C24.6153 15.5429 28.5566 16.4903 33.1044 19.116L100.654 58.116C108.997 62.9323 116.243 74.4834 116.243 84.116L116.243 144.116C116.243 148.603 114.323 150.917 111.913 152.616C111.645 152.805 111.337 152.966 111.047 153.116C108.339 154.516 104.679 154.44 100.654 152.116L90.2621 146.116L33.1044 113.116C24.7623 108.3 17.516 96.7486 17.516 87.116L17.516 42.116L17.516 27.116Z" fill="url(#paint0_linear_1_68)" fill-opacity="0.8"/>
<path d="M17.516 27.116C17.516 22.7348 19.5358 19.3457 21.8461 17.616L2.79355 29.616L13.1859 40.616L17.516 42.116L17.516 27.116Z" fill="#DFDFDF"/>
<path d="M17.516 27.116C17.516 22.7348 19.5358 19.3457 21.8461 17.616L2.79355 29.616L13.1859 40.616L17.516 42.116L17.516 27.116Z" fill="url(#paint1_linear_1_68)" fill-opacity="0.8"/>
<path d="M111.047 153.116C108.339 154.516 104.679 154.44 100.654 152.116L90.2621 146.116L84.1999 152.616L91.9942 165.116L111.047 153.116Z" fill="#DFDFDF"/>
<path d="M111.047 153.116C108.339 154.516 104.679 154.44 100.654 152.116L90.2621 146.116L84.1999 152.616L91.9942 165.116L111.047 153.116Z" fill="url(#paint2_linear_1_68)" fill-opacity="0.8"/>
<path d="M-0.206452 39.616C-0.206452 29.9834 6.17389 26.2997 14.516 31.116L82.932 70.616C91.2741 75.4323 97.6544 86.4834 97.6544 96.116L97.6544 156.116C97.6544 165.749 91.2741 169.432 82.932 164.616L14.516 125.116C6.17388 120.3 -0.206456 109.249 -0.206456 99.616L-0.206452 39.616Z" fill="white"/>
<path d="M-0.206452 39.616C-0.206452 29.9834 6.17389 26.2997 14.516 31.116L82.932 70.616C91.2741 75.4323 97.6544 86.4834 97.6544 96.116L97.6544 156.116C97.6544 165.749 91.2741 169.432 82.932 164.616L14.516 125.116C6.17388 120.3 -0.206456 109.249 -0.206456 99.616L-0.206452 39.616Z" fill="url(#paint3_linear_1_68)" fill-opacity="0.5"/>
<path d="M-0.206452 39.616C-0.206452 29.9834 6.17389 26.2997 14.516 31.116L82.932 70.616C91.2741 75.4323 97.6544 86.4834 97.6544 96.116L97.6544 156.116C97.6544 165.749 91.2741 169.432 82.932 164.616L14.516 125.116C6.17388 120.3 -0.206456 109.249 -0.206456 99.616L-0.206452 39.616Z" fill="#D3B5B5"/>
<path d="M-0.206452 39.616C-0.206452 29.9834 6.17389 26.2997 14.516 31.116L82.932 70.616C91.2741 75.4323 97.6544 86.4834 97.6544 96.116L97.6544 156.116C97.6544 165.749 91.2741 169.432 82.932 164.616L14.516 125.116C6.17388 120.3 -0.206456 109.249 -0.206456 99.616L-0.206452 39.616Z" fill="url(#paint4_linear_1_68)" fill-opacity="0.75"/>
<path d="M-0.206452 39.616C-0.206452 29.9834 6.17389 26.2997 14.516 31.116L82.932 70.616C91.2741 75.4323 97.6544 86.4834 97.6544 96.116L97.6544 156.116C97.6544 165.749 91.2741 169.432 82.932 164.616L14.516 125.116C6.17388 120.3 -0.206456 109.249 -0.206456 99.616L-0.206452 39.616Z" fill="white"/>
<path d="M-0.206452 39.616C-0.206452 29.9834 6.17389 26.2997 14.516 31.116L82.932 70.616C91.2741 75.4323 97.6544 86.4834 97.6544 96.116L97.6544 156.116C97.6544 165.749 91.2741 169.432 82.932 164.616L14.516 125.116C6.17388 120.3 -0.206456 109.249 -0.206456 99.616L-0.206452 39.616Z" fill="url(#paint5_linear_1_68)" fill-opacity="0.65"/>
<path d="M66.9705 32.616L47.9179 19.616C46.8751 19.014 46.1859 19.4119 46.1859 20.616L46.1859 32.616L40.1237 35.116L39.2576 16.616L35.7935 14.616L40.9897 10.616C42.6347 9.33999 45.1852 10.0383 47.9179 11.616L69.5685 24.116C74.5217 26.9757 78.2288 33.3967 78.2288 39.116L78.2288 51.116L72.1666 54.616L68.7025 35.616C68.7025 34.4119 68.0132 33.2181 66.9705 32.616Z" fill="#C4C4C4"/>
<path d="M66.9705 32.616L47.9179 19.616C46.8751 19.014 46.1859 19.4119 46.1859 20.616L46.1859 32.616L40.1237 35.116L39.2576 16.616L35.7935 14.616L40.9897 10.616C42.6347 9.33999 45.1852 10.0383 47.9179 11.616L69.5685 24.116C74.5217 26.9757 78.2288 33.3967 78.2288 39.116L78.2288 51.116L72.1666 54.616L68.7025 35.616C68.7025 34.4119 68.0132 33.2181 66.9705 32.616Z" fill="white"/>
<path d="M66.9705 32.616L47.9179 19.616C46.8751 19.014 46.1859 19.4119 46.1859 20.616L46.1859 32.616L40.1237 35.116L39.2576 16.616L35.7935 14.616L40.9897 10.616C42.6347 9.33999 45.1852 10.0383 47.9179 11.616L69.5685 24.116C74.5217 26.9757 78.2288 33.3967 78.2288 39.116L78.2288 51.116L72.1666 54.616L68.7025 35.616C68.7025 34.4119 68.0132 33.2181 66.9705 32.616Z" fill="url(#paint6_linear_1_68)" fill-opacity="0.3"/>
<path d="M66.9705 32.616L47.9179 19.616C46.8751 19.014 46.1859 19.4119 46.1859 20.616L46.1859 32.616L40.1237 35.116L39.2576 16.616L35.7935 14.616L40.9897 10.616C42.6347 9.33999 45.1852 10.0383 47.9179 11.616L69.5685 24.116C74.5217 26.9757 78.2288 33.3967 78.2288 39.116L78.2288 51.116L72.1666 54.616L68.7025 35.616C68.7025 34.4119 68.0132 33.2181 66.9705 32.616Z" fill="white"/>
<path d="M66.9705 32.616L47.9179 19.616C46.8751 19.014 46.1859 19.4119 46.1859 20.616L46.1859 32.616L40.1237 35.116L39.2576 16.616L35.7935 14.616L40.9897 10.616C42.6347 9.33999 45.1852 10.0383 47.9179 11.616L69.5685 24.116C74.5217 26.9757 78.2288 33.3967 78.2288 39.116L78.2288 51.116L72.1666 54.616L68.7025 35.616C68.7025 34.4119 68.0132 33.2181 66.9705 32.616Z" fill="url(#paint7_linear_1_68)" fill-opacity="0.75"/>
<path d="M66.9705 32.616L47.9179 19.616C46.8751 19.014 46.1859 19.4119 46.1859 20.616L46.1859 32.616L40.1237 35.116L39.2576 16.616L35.7935 14.616L40.9897 10.616C42.6347 9.33999 45.1852 10.0383 47.9179 11.616L69.5685 24.116C74.5217 26.9757 78.2288 33.3967 78.2288 39.116L78.2288 51.116L72.1666 54.616L68.7025 35.616C68.7025 34.4119 68.0132 33.2181 66.9705 32.616Z" fill="#DFDFDF"/>
<path d="M66.9705 32.616L47.9179 19.616C46.8751 19.014 46.1859 19.4119 46.1859 20.616L46.1859 32.616L40.1237 35.116L39.2576 16.616L35.7935 14.616L40.9897 10.616C42.6347 9.33999 45.1852 10.0383 47.9179 11.616L69.5685 24.116C74.5217 26.9757 78.2288 33.3967 78.2288 39.116L78.2288 51.116L72.1666 54.616L68.7025 35.616C68.7025 34.4119 68.0132 33.2181 66.9705 32.616Z" fill="url(#paint8_linear_1_68)" fill-opacity="0.8"/>
<path d="M63.1044 35.116L41.4538 22.616C40.411 22.014 39.7218 22.4119 39.7218 23.616L39.7218 35.616L32.7935 31.616L32.7935 19.616C32.7935 13.8967 36.5007 11.7563 41.4538 14.616L63.1044 27.116C68.0576 29.9757 71.7647 36.3967 71.7647 42.116L71.7647 54.116L64.8365 50.116L64.8365 38.116C64.8365 36.9119 64.1472 35.7181 63.1044 35.116Z" fill="white"/>
<path d="M63.1044 35.116L41.4538 22.616C40.411 22.014 39.7218 22.4119 39.7218 23.616L39.7218 35.616L32.7935 31.616L32.7935 19.616C32.7935 13.8967 36.5007 11.7563 41.4538 14.616L63.1044 27.116C68.0576 29.9757 71.7647 36.3967 71.7647 42.116L71.7647 54.116L64.8365 50.116L64.8365 38.116C64.8365 36.9119 64.1472 35.7181 63.1044 35.116Z" fill="url(#paint9_linear_1_68)" fill-opacity="0.65"/>
</g>
<defs>
<filter id="filter0_f_1_68" x="-18.3167" y="87.4126" width="158.047" height="117.003" filterUnits="userSpaceOnUse" color-interpolation-filters="sRGB">
<feFlood flood-opacity="0" result="BackgroundImageFix"/>
<feBlend mode="normal" in="SourceGraphic" in2="BackgroundImageFix" result="shape"/>
<feGaussianBlur stdDeviation="14.5" result="effect1_foregroundBlur_1_68"/>
</filter>
<linearGradient id="paint0_linear_1_68" x1="50.1407" y1="56.8886" x2="95.2064" y2="179.159" gradientUnits="userSpaceOnUse">
<stop stop-color="#9EC1D5" stop-opacity="0.36"/>
<stop offset="1" stop-color="#9FB1CB"/>
</linearGradient>
<linearGradient id="paint1_linear_1_68" x1="50.1407" y1="56.8886" x2="95.2064" y2="179.159" gradientUnits="userSpaceOnUse">
<stop stop-color="#9EC1D5" stop-opacity="0.36"/>
<stop offset="1" stop-color="#9FB1CB"/>
</linearGradient>
<linearGradient id="paint2_linear_1_68" x1="50.1407" y1="56.8886" x2="95.2064" y2="179.159" gradientUnits="userSpaceOnUse">
<stop stop-color="#9EC1D5" stop-opacity="0.36"/>
<stop offset="1" stop-color="#9FB1CB"/>
</linearGradient>
<linearGradient id="paint3_linear_1_68" x1="154.434" y1="16.6141" x2="36.8193" y2="130.779" gradientUnits="userSpaceOnUse">
<stop stop-color="#CCD1D3" stop-opacity="0.36"/>
<stop offset="1" stop-color="#C3C6CA"/>
</linearGradient>
<linearGradient id="paint4_linear_1_68" x1="93.7259" y1="50.8323" x2="34.7322" y2="115.525" gradientUnits="userSpaceOnUse">
<stop stop-color="#FFA877"/>
<stop offset="1" stop-color="#FF0707"/>
</linearGradient>
<linearGradient id="paint5_linear_1_68" x1="31.1825" y1="9.33624" x2="-11.3181" y2="195.528" gradientUnits="userSpaceOnUse">
<stop stop-color="#9EC1D5" stop-opacity="0.36"/>
<stop offset="1" stop-color="#9FB1CB"/>
</linearGradient>
<linearGradient id="paint6_linear_1_68" x1="68.3838" y1="43.5906" x2="-117.651" y2="-54.4318" gradientUnits="userSpaceOnUse">
<stop stop-color="#C9CFD2" stop-opacity="0.36"/>
<stop offset="1" stop-color="#B5BDC8"/>
</linearGradient>
<linearGradient id="paint7_linear_1_68" x1="72.4222" y1="26.8736" x2="110.228" y2="77.9949" gradientUnits="userSpaceOnUse">
<stop stop-color="#FFA877"/>
<stop offset="1" stop-color="#FF0707"/>
</linearGradient>
<linearGradient id="paint8_linear_1_68" x1="53.5036" y1="22.0745" x2="56.2722" y2="57.8202" gradientUnits="userSpaceOnUse">
<stop stop-color="#9EC1D5" stop-opacity="0.36"/>
<stop offset="1" stop-color="#9FB1CB"/>
</linearGradient>
<linearGradient id="paint9_linear_1_68" x1="51.1726" y1="20.0158" x2="59.021" y2="75.4525" gradientUnits="userSpaceOnUse">
<stop stop-color="#9EC1D5" stop-opacity="0.36"/>
<stop offset="1" stop-color="#9FB1CB"/>
</linearGradient>
<clipPath id="clip0_1_68">
<rect width="116" height="196" fill="white"/>
</clipPath>
</defs>
</svg>
