<svg width="24" height="24" viewBox="0 0 24 24" fill="none" xmlns="http://www.w3.org/2000/svg">
<rect x="0.47998" y="0.72998" width="23.04" height="22.54" rx="11.27" fill="#FF7348"/>
<path d="M13.36 19.27H10.64V9.06998H13.36V19.27ZM12 7.76998C11.5733 7.76998 11.2133 7.62331 10.92 7.32998C10.6266 7.03665 10.48 6.67665 10.48 6.24998C10.48 5.82331 10.6266 5.46331 10.92 5.16998C11.2133 4.87665 11.5733 4.72998 12 4.72998C12.4266 4.72998 12.7866 4.87665 13.08 5.16998C13.3733 5.46331 13.52 5.82331 13.52 6.24998C13.52 6.67665 13.3733 7.03665 13.08 7.32998C12.7866 7.62331 12.4266 7.76998 12 7.76998Z" fill="white"/>
</svg>
