<svg width="20" height="21" viewBox="0 0 20 21" fill="none" xmlns="http://www.w3.org/2000/svg">
<path d="M9.99999 1.79462C5.40832 1.79462 1.66666 5.53628 1.66666 10.128C1.66666 14.7196 5.40832 18.4613 9.99999 18.4613C14.5917 18.4613 18.3333 14.7196 18.3333 10.128C18.3333 5.53628 14.5917 1.79462 9.99999 1.79462ZM12.325 10.5696L9.38332 13.5113C9.25832 13.6363 9.09999 13.6946 8.94166 13.6946C8.78332 13.6946 8.62499 13.6363 8.49999 13.5113C8.25832 13.2696 8.25832 12.8696 8.49999 12.628L11 10.128L8.49999 7.62795C8.25832 7.38628 8.25832 6.98628 8.49999 6.74462C8.74166 6.50295 9.14166 6.50295 9.38332 6.74462L12.325 9.68628C12.575 9.92795 12.575 10.328 12.325 10.5696Z" fill="url(#paint0_linear_95_318)"/>
<defs>
<linearGradient id="paint0_linear_95_318" x1="18.3333" y1="18.4613" x2="1.66666" y2="18.4613" gradientUnits="userSpaceOnUse">
<stop stop-color="#F05323"/>
<stop offset="1" stop-color="#FF7253"/>
</linearGradient>
</defs>
</svg>
