<svg width="24" height="26" viewBox="0 0 24 26" fill="none" xmlns="http://www.w3.org/2000/svg">
<path d="M17.71 4H16.76C16.37 4 16.05 4.32 16.05 4.71C16.05 5.11 16.37 5.43 16.76 5.43H17.71C19.42 5.43 20.81 6.82 20.81 8.52V14.4C20.45 14.21 20.05 14.11 19.62 14.11H15.81C14.37 14.11 13.19 15.28 13.19 16.73V18.29H10.81V16.73C10.81 15.28 9.63001 14.11 8.19001 14.11H4.38001C3.95001 14.11 3.55001 14.21 3.19001 14.4V8.52C3.19001 6.82 4.58001 5.43 6.29001 5.43H7.24001C7.63001 5.43 7.95001 5.11 7.95001 4.71C7.95001 4.32 7.63001 4 7.24001 4H6.29001C3.79001 4 1.76001 6.03 1.76001 8.52V16.73V21.38C1.76001 22.83 2.94001 24 4.38001 24H8.19001C9.63001 24 10.81 22.83 10.81 21.38V19.71H13.19V21.38C13.19 22.83 14.37 24 15.81 24H19.62C21.06 24 22.24 22.83 22.24 21.38V16.73V8.52C22.24 6.03 20.21 4 17.71 4Z" fill="url(#paint0_linear_2_414)"/>
<defs>
<linearGradient id="paint0_linear_2_414" x1="1.75553" y1="23.9621" x2="23.194" y2="22.8805" gradientUnits="userSpaceOnUse">
<stop stop-color="#F77248"/>
<stop offset="1" stop-color="#F2244B"/>
</linearGradient>
</defs>
</svg>
