<svg width="24" height="27" viewBox="0 0 24 27" fill="none" xmlns="http://www.w3.org/2000/svg">
<path d="M16.44 5.22791C14.63 5.22791 13.01 6.10791 12 7.45791C10.99 6.10791 9.37 5.22791 7.56 5.22791C4.49 5.22791 2 7.72791 2 10.8179C2 12.0079 2.19 13.1079 2.52 14.1279C4.1 19.1279 8.97 22.1179 11.38 22.9379C11.72 23.0579 12.28 23.0579 12.62 22.9379C15.03 22.1179 19.9 19.1279 21.48 14.1279C21.81 13.1079 22 12.0079 22 10.8179C22 7.72791 19.51 5.22791 16.44 5.22791Z" fill="url(#paint0_linear_2_458)"/>
<defs>
<linearGradient id="paint0_linear_2_458" x1="1.99562" y1="22.9941" x2="22.9207" y2="21.8358" gradientUnits="userSpaceOnUse">
<stop stop-color="#F77248"/>
<stop offset="1" stop-color="#F2244B"/>
</linearGradient>
</defs>
</svg>
