<svg width="52" height="52" viewBox="0 0 52 52" fill="none" xmlns="http://www.w3.org/2000/svg">
<path d="M36.6066 15.3493C30.7624 9.50504 21.2376 9.50504 15.3934 15.3493C9.54916 21.1935 9.54916 30.7182 15.3934 36.5625C21.2376 42.4067 30.7624 42.4067 36.6066 36.5625C42.4508 30.7182 42.4508 21.1935 36.6066 15.3493ZM27.1243 31.9592C27.1243 32.5744 26.6152 33.0835 26 33.0835C25.6818 33.0835 25.406 32.9562 25.2045 32.7547C25.003 32.5532 24.8757 32.2774 24.8757 31.9592L24.8757 27.0802L19.9967 27.0802C19.6785 27.0802 19.4027 26.9529 19.2012 26.7514C18.9996 26.5498 18.8724 26.2741 18.8724 25.9559C18.8724 25.3407 19.3815 24.8316 19.9967 24.8316L24.8757 24.8316L24.8757 19.9525C24.8757 19.3374 25.3848 18.8282 26 18.8282C26.6152 18.8282 27.1243 19.3374 27.1243 19.9525L27.1243 24.8316L32.0033 24.8316C32.6185 24.8316 33.1276 25.3407 33.1276 25.9559C33.1276 26.5711 32.6185 27.0802 32.0033 27.0802L27.1243 27.0802L27.1243 31.9592Z" fill="url(#paint0_linear_95_286)"/>
<defs>
<linearGradient id="paint0_linear_95_286" x1="4.82238" y1="25.911" x2="28.1251" y2="47.0254" gradientUnits="userSpaceOnUse">
<stop stop-color="#F77248"/>
<stop offset="1" stop-color="#F2244B"/>
</linearGradient>
</defs>
</svg>
