<svg width="24" height="26" viewBox="0 0 24 26" fill="none" xmlns="http://www.w3.org/2000/svg">
<path d="M14.35 4H9.65001C8.61001 4 7.76001 4.84 7.76001 5.88V6.82C7.76001 7.86 8.60001 8.7 9.64001 8.7H14.35C15.39 8.7 16.23 7.86 16.23 6.82V5.88C16.24 4.84 15.39 4 14.35 4Z" fill="url(#paint0_linear_2_370)"/>
<path d="M17.24 6.81998C17.24 8.40998 15.94 9.70998 14.35 9.70998H9.65004C8.06004 9.70998 6.76004 8.40998 6.76004 6.81998C6.76004 6.25998 6.16004 5.90998 5.66004 6.16998C4.25004 6.91998 3.29004 8.40998 3.29004 10.12V19.53C3.29004 21.99 5.30004 24 7.76004 24H16.24C18.7 24 20.71 21.99 20.71 19.53V10.12C20.71 8.40998 19.75 6.91998 18.34 6.16998C17.84 5.90998 17.24 6.25998 17.24 6.81998ZM12.38 18.95H8.00004C7.59004 18.95 7.25004 18.61 7.25004 18.2C7.25004 17.79 7.59004 17.45 8.00004 17.45H12.38C12.79 17.45 13.13 17.79 13.13 18.2C13.13 18.61 12.79 18.95 12.38 18.95ZM15 14.95H8.00004C7.59004 14.95 7.25004 14.61 7.25004 14.2C7.25004 13.79 7.59004 13.45 8.00004 13.45H15C15.41 13.45 15.75 13.79 15.75 14.2C15.75 14.61 15.41 14.95 15 14.95Z" fill="url(#paint1_linear_2_370)"/>
<defs>
<linearGradient id="paint0_linear_2_370" x1="7.75816" y1="8.69109" x2="16.5777" y2="7.90804" gradientUnits="userSpaceOnUse">
<stop stop-color="#F77248"/>
<stop offset="1" stop-color="#F2244B"/>
</linearGradient>
<linearGradient id="paint1_linear_2_370" x1="3.28623" y1="23.966" x2="21.526" y2="23.0923" gradientUnits="userSpaceOnUse">
<stop stop-color="#F77248"/>
<stop offset="1" stop-color="#F2244B"/>
</linearGradient>
</defs>
</svg>
