<svg width="24" height="27" viewBox="0 0 24 27" fill="none" xmlns="http://www.w3.org/2000/svg">
<path d="M16.83 17.7952C17.5 17.3552 18.38 17.8352 18.38 18.6352V19.9252C18.38 21.1952 17.39 22.5552 16.2 22.9552L13.01 24.0152C12.45 24.2052 11.54 24.2052 10.99 24.0152L7.8 22.9552C6.6 22.5552 5.62 21.1952 5.62 19.9252V18.6252C5.62 17.8352 6.5 17.3552 7.16 17.7852L9.22 19.1252C10.01 19.6552 11.01 19.9152 12.01 19.9152C13.01 19.9152 14.01 19.6552 14.8 19.1252L16.83 17.7952Z" fill="url(#paint0_linear_2_507)"/>
<path d="M19.98 8.61533L13.99 4.68533C12.91 3.97533 11.13 3.97533 10.05 4.68533L4.03002 8.61533C2.10002 9.86533 2.10002 12.6953 4.03002 13.9553L5.63002 14.9953L10.05 17.8753C11.13 18.5853 12.91 18.5853 13.99 17.8753L18.38 14.9953L19.75 14.0953V17.1553C19.75 17.5653 20.09 17.9053 20.5 17.9053C20.91 17.9053 21.25 17.5653 21.25 17.1553V12.2353C21.65 10.9453 21.24 9.44533 19.98 8.61533Z" fill="url(#paint1_linear_2_507)"/>
<defs>
<linearGradient id="paint0_linear_2_507" x1="5.6172" y1="24.1453" x2="18.8855" y2="22.8687" gradientUnits="userSpaceOnUse">
<stop stop-color="#F77248"/>
<stop offset="1" stop-color="#F2244B"/>
</linearGradient>
<linearGradient id="paint1_linear_2_507" x1="2.5784" y1="18.3808" x2="22.2409" y2="17.1022" gradientUnits="userSpaceOnUse">
<stop stop-color="#F77248"/>
<stop offset="1" stop-color="#F2244B"/>
</linearGradient>
</defs>
</svg>
