<svg width="24" height="26" viewBox="0 0 24 26" fill="none" xmlns="http://www.w3.org/2000/svg">
<path d="M21.25 14.75C21.67 14.75 22 14.41 22 14C22 13.58 21.67 13.25 21.25 13.25H20V11.05H21.25C21.67 11.05 22 10.72 22 10.3C22 9.89 21.67 9.55 21.25 9.55H19.77C19.29 7.96 18.04 6.71 16.45 6.23V4.75C16.45 4.34 16.11 4 15.7 4C15.29 4 14.95 4.34 14.95 4.75V6H12.75V4.75C12.75 4.34 12.41 4 12 4C11.59 4 11.25 4.34 11.25 4.75V6H9.06V4.75C9.06 4.34 8.72 4 8.31 4C7.89 4 7.56 4.34 7.56 4.75V6.23C5.96 6.71 4.71 7.96 4.23 9.55H2.75C2.34 9.55 2 9.89 2 10.3C2 10.72 2.34 11.05 2.75 11.05H4V13.25H2.75C2.34 13.25 2 13.58 2 14C2 14.41 2.34 14.75 2.75 14.75H4V16.95H2.75C2.34 16.95 2 17.28 2 17.7C2 18.11 2.34 18.45 2.75 18.45H4.23C4.7 20.04 5.96 21.29 7.56 21.77V23.25C7.56 23.66 7.89 24 8.31 24C8.72 24 9.06 23.66 9.06 23.25V22H11.26V23.25C11.26 23.66 11.59 24 12.01 24C12.42 24 12.76 23.66 12.76 23.25V22H14.95V23.25C14.95 23.66 15.29 24 15.7 24C16.11 24 16.45 23.66 16.45 23.25V21.77C18.04 21.29 19.29 20.04 19.77 18.45H21.25C21.67 18.45 22 18.11 22 17.7C22 17.28 21.67 16.95 21.25 16.95H20V14.75H21.25ZM17.26 16.26C17.26 17.91 15.91 19.26 14.26 19.26H9.74C8.09 19.26 6.74 17.91 6.74 16.26V11.74C6.74 10.09 8.09 8.74 9.74 8.74H14.26C15.91 8.74 17.26 10.09 17.26 11.74V16.26Z" fill="url(#paint0_linear_2_345)"/>
<path d="M10.02 18.25H13.99C15.24 18.25 16.26 17.24 16.26 15.98V12.01C16.26 10.76 15.25 9.73999 13.99 9.73999H10.02C8.77 9.73999 7.75 10.75 7.75 12.01V15.98C7.75 17.24 8.76 18.25 10.02 18.25Z" fill="url(#paint1_linear_2_345)"/>
<defs>
<linearGradient id="paint0_linear_2_345" x1="1.99562" y1="23.9621" x2="22.934" y2="22.9305" gradientUnits="userSpaceOnUse">
<stop stop-color="#F77248"/>
<stop offset="1" stop-color="#F2244B"/>
</linearGradient>
<linearGradient id="paint1_linear_2_345" x1="7.74814" y1="18.2339" x2="16.6574" y2="17.7949" gradientUnits="userSpaceOnUse">
<stop stop-color="#F77248"/>
<stop offset="1" stop-color="#F2244B"/>
</linearGradient>
</defs>
</svg>
