<svg width="24" height="27" viewBox="0 0 24 27" fill="none" xmlns="http://www.w3.org/2000/svg">
<path d="M22 13.0979V15.1579C22 15.7079 21.56 16.1579 21 16.1779H19.04C17.96 16.1779 16.97 15.3879 16.88 14.3079C16.82 13.6779 17.06 13.0879 17.48 12.6779C17.85 12.2979 18.36 12.0779 18.92 12.0779H21C21.56 12.0979 22 12.5479 22 13.0979Z" fill="url(#paint0_linear_2_471)"/>
<path d="M20.47 17.6779H19.04C17.14 17.6779 15.54 16.2479 15.38 14.4279C15.29 13.3879 15.67 12.3479 16.43 11.6079C17.07 10.9479 17.96 10.5779 18.92 10.5779H20.47C20.76 10.5779 21 10.3379 20.97 10.0479C20.75 7.61793 19.14 5.95793 16.75 5.67793C16.51 5.63793 16.26 5.62793 16 5.62793H7C6.72 5.62793 6.45 5.64793 6.19 5.68793C3.64 6.00793 2 7.90793 2 10.6279V17.6279C2 20.3879 4.24 22.6279 7 22.6279H16C18.8 22.6279 20.73 20.8779 20.97 18.2079C21 17.9179 20.76 17.6779 20.47 17.6779ZM13 11.8779H7C6.59 11.8779 6.25 11.5379 6.25 11.1279C6.25 10.7179 6.59 10.3779 7 10.3779H13C13.41 10.3779 13.75 10.7179 13.75 11.1279C13.75 11.5379 13.41 11.8779 13 11.8779Z" fill="url(#paint1_linear_2_471)"/>
<defs>
<linearGradient id="paint0_linear_2_471" x1="16.8697" y1="16.1701" x2="22.2322" y2="15.8396" gradientUnits="userSpaceOnUse">
<stop stop-color="#F77248"/>
<stop offset="1" stop-color="#F2244B"/>
</linearGradient>
<linearGradient id="paint1_linear_2_471" x1="1.99585" y1="22.5957" x2="21.8468" y2="21.5042" gradientUnits="userSpaceOnUse">
<stop stop-color="#F77248"/>
<stop offset="1" stop-color="#F2244B"/>
</linearGradient>
</defs>
</svg>
