<svg width="24" height="25" viewBox="0 0 24 25" fill="none" xmlns="http://www.w3.org/2000/svg">
<path d="M18.8 10.0652C17.67 10.0652 16.66 10.6152 16.03 11.4552C15.4 10.6152 14.39 10.0652 13.26 10.0652C11.35 10.0652 9.80005 11.6252 9.80005 13.5452C9.80005 14.2852 9.92005 14.9752 10.12 15.6052C11.1 18.7152 14.14 20.5852 15.64 21.0952C15.85 21.1652 16.2 21.1652 16.41 21.0952C17.91 20.5852 20.95 18.7252 21.93 15.6052C22.14 14.9652 22.25 14.2852 22.25 13.5452C22.26 11.6252 20.71 10.0652 18.8 10.0652Z" fill="url(#paint0_linear_84_149)"/>
<path d="M20.75 8.49537C20.75 8.72537 20.52 8.87537 20.3 8.81537C18.95 8.46537 17.47 8.75537 16.35 9.55537C16.13 9.71537 15.83 9.71537 15.62 9.55537C14.83 8.97537 13.87 8.65537 12.86 8.65537C10.28 8.65537 8.18 10.7654 8.18 13.3654C8.18 16.1854 9.53 18.2954 10.89 19.7054C10.96 19.7754 10.9 19.8954 10.81 19.8554C8.08 18.9254 2 15.0654 2 8.49537C2 5.59537 4.33 3.25537 7.21 3.25537C8.92 3.25537 10.43 4.07537 11.38 5.34537C12.34 4.07537 13.85 3.25537 15.55 3.25537C18.42 3.25537 20.75 5.59537 20.75 8.49537Z" fill="url(#paint1_linear_84_149)"/>
<defs>
<linearGradient id="paint0_linear_84_149" x1="9.79732" y1="21.1267" x2="22.8233" y2="20.4057" gradientUnits="userSpaceOnUse">
<stop stop-color="#F77248"/>
<stop offset="1" stop-color="#F2244B"/>
</linearGradient>
<linearGradient id="paint1_linear_84_149" x1="1.99589" y1="19.8318" x2="21.6126" y2="18.7408" gradientUnits="userSpaceOnUse">
<stop stop-color="#F77248"/>
<stop offset="1" stop-color="#F2244B"/>
</linearGradient>
</defs>
</svg>
