<svg width="24" height="25" viewBox="0 0 24 25" fill="none" xmlns="http://www.w3.org/2000/svg">
<path d="M17 4.15527H7C4 4.15527 2 5.65527 2 9.15527V12.7153C2 13.0853 2.38 13.3153 2.71 13.1653C3.69 12.7153 4.82 12.5453 6.01 12.7553C8.64 13.2253 10.57 15.6653 10.5 18.3353C10.49 18.7553 10.43 19.1653 10.32 19.5653C10.24 19.8753 10.49 20.1653 10.81 20.1653H17C20 20.1653 22 18.6653 22 15.1653V9.15527C22 5.65527 20 4.15527 17 4.15527ZM12 14.6553C10.62 14.6553 9.5 13.5353 9.5 12.1553C9.5 10.7753 10.62 9.65527 12 9.65527C13.38 9.65527 14.5 10.7753 14.5 12.1553C14.5 13.5353 13.38 14.6553 12 14.6553ZM19.25 14.1553C19.25 14.5653 18.91 14.9053 18.5 14.9053C18.09 14.9053 17.75 14.5653 17.75 14.1553V10.1553C17.75 9.74527 18.09 9.40527 18.5 9.40527C18.91 9.40527 19.25 9.74527 19.25 10.1553V14.1553Z" fill="url(#paint0_linear_84_196)"/>
<path d="M5 14.1553C2.79 14.1553 1 15.9453 1 18.1553C1 18.9053 1.21 19.6153 1.58 20.2153C2.27 21.3753 3.54 22.1553 5 22.1553C6.46 22.1553 7.73 21.3753 8.42 20.2153C8.79 19.6153 9 18.9053 9 18.1553C9 15.9453 7.21 14.1553 5 14.1553ZM6.97 17.8253L4.84 19.7953C4.7 19.9253 4.51 19.9953 4.33 19.9953C4.14 19.9953 3.95 19.9253 3.8 19.7753L2.81 18.7853C2.52 18.4953 2.52 18.0153 2.81 17.7253C3.1 17.4353 3.58 17.4353 3.87 17.7253L4.35 18.2053L5.95 16.7253C6.25 16.4453 6.73 16.4653 7.01 16.7653C7.29 17.0653 7.27 17.5453 6.97 17.8253Z" fill="url(#paint1_linear_84_196)"/>
<defs>
<linearGradient id="paint0_linear_84_196" x1="1.99562" y1="20.1349" x2="22.9057" y2="18.848" gradientUnits="userSpaceOnUse">
<stop stop-color="#F77248"/>
<stop offset="1" stop-color="#F2244B"/>
</linearGradient>
<linearGradient id="paint1_linear_84_196" x1="0.998248" y1="22.1401" x2="9.37362" y2="21.7275" gradientUnits="userSpaceOnUse">
<stop stop-color="#F77248"/>
<stop offset="1" stop-color="#F2244B"/>
</linearGradient>
</defs>
</svg>
