<svg width="24" height="26" viewBox="0 0 24 26" fill="none" xmlns="http://www.w3.org/2000/svg">
<path d="M5.86365 8.53457L9.72547 10.8705L12.0534 6.68918L11.6087 5.51529C11.6087 5.51529 10.9611 3.93014 9.4206 4.12048C8.04031 4.29085 7.75645 5.24382 7.5002 5.70501C7.24394 6.1662 5.86365 8.53457 5.86365 8.53457ZM19.6882 9.38082L15.9194 11.8771L18.4225 15.9455L19.63 16.0703C19.63 16.0703 21.2827 16.2001 21.8282 14.6873C22.3143 13.3325 21.6296 12.6322 21.3571 12.1829C21.0847 11.7336 19.6882 9.38082 19.6882 9.38082ZM12.0954 21.755L12.045 17.1056L7.39997 17.168L6.66002 18.1734C6.66002 18.1734 5.68181 19.5626 6.62941 20.8432C7.47919 21.9884 8.38118 21.858 8.89249 21.8542C9.4038 21.8505 12.0954 21.755 12.0954 21.755Z" fill="url(#paint0_linear_2_339)"/>
<path d="M11.4162 4.01248L16.4063 4C16.4063 4 17.2006 4.01872 17.5795 4.76574C17.9585 5.51276 18.5833 6.50629 18.5833 6.50629L20.0018 5.83915L17.8618 9.72964L13.3096 9.86632L14.6898 8.99261C14.6898 8.99261 12.3855 3.91575 11.4162 4.09424V4.01248ZM22.0006 16.2444L19.7251 20.6628C19.7251 20.6628 19.3424 21.3574 18.5024 21.3493C17.6623 21.3412 16.4885 21.4398 16.4885 21.4398L16.4339 23L13.9376 19.3211L15.9007 15.2334L16.0494 16.856C16.0494 16.856 21.6386 17.1474 21.9253 16.2076L22.0006 16.2444ZM5.82694 19.4421L3.25471 15.1878C3.25471 15.1878 2.86386 14.5013 3.31745 13.7936C3.77104 13.0859 4.30368 12.0406 4.30368 12.0406L3 11.1719L7.45435 11.0046L9.9055 14.8227L8.4456 14.0951C8.4456 14.0951 5.246 18.662 5.89595 19.3997L5.82694 19.4421Z" fill="url(#paint1_linear_2_339)"/>
<defs>
<linearGradient id="paint0_linear_2_339" x1="5.86011" y1="21.8268" x2="22.7587" y2="21.0703" gradientUnits="userSpaceOnUse">
<stop stop-color="#F77248"/>
<stop offset="1" stop-color="#F2244B"/>
</linearGradient>
<linearGradient id="paint1_linear_2_339" x1="2.99584" y1="22.964" x2="22.888" y2="21.9839" gradientUnits="userSpaceOnUse">
<stop stop-color="#F77248"/>
<stop offset="1" stop-color="#F2244B"/>
</linearGradient>
</defs>
</svg>
