<svg width="24" height="25" viewBox="0 0 24 25" fill="none" xmlns="http://www.w3.org/2000/svg">
<path d="M17 4.59131H7C4 4.59131 2 6.09131 2 9.59131V13.1513C2 13.5213 2.38 13.7513 2.71 13.6013C3.69 13.1513 4.82 12.9813 6.01 13.1913C8.64 13.6613 10.57 16.1013 10.5 18.7713C10.49 19.1913 10.43 19.6013 10.32 20.0013C10.24 20.3113 10.49 20.6013 10.81 20.6013H17C20 20.6013 22 19.1013 22 15.6013V9.59131C22 6.09131 20 4.59131 17 4.59131ZM12 15.0913C10.62 15.0913 9.5 13.9713 9.5 12.5913C9.5 11.2113 10.62 10.0913 12 10.0913C13.38 10.0913 14.5 11.2113 14.5 12.5913C14.5 13.9713 13.38 15.0913 12 15.0913ZM19.25 14.5913C19.25 15.0013 18.91 15.3413 18.5 15.3413C18.09 15.3413 17.75 15.0013 17.75 14.5913V10.5913C17.75 10.1813 18.09 9.84131 18.5 9.84131C18.91 9.84131 19.25 10.1813 19.25 10.5913V14.5913Z" fill="url(#paint0_linear_2_517)"/>
<path d="M5 14.5913C2.79 14.5913 1 16.3813 1 18.5913C1 19.3413 1.21 20.0513 1.58 20.6513C2.27 21.8113 3.54 22.5913 5 22.5913C6.46 22.5913 7.73 21.8113 8.42 20.6513C8.79 20.0513 9 19.3413 9 18.5913C9 16.3813 7.21 14.5913 5 14.5913ZM6.97 18.2613L4.84 20.2313C4.7 20.3613 4.51 20.4313 4.33 20.4313C4.14 20.4313 3.95 20.3613 3.8 20.2113L2.81 19.2213C2.52 18.9313 2.52 18.4513 2.81 18.1613C3.1 17.8713 3.58 17.8713 3.87 18.1613L4.35 18.6413L5.95 17.1613C6.25 16.8813 6.73 16.9013 7.01 17.2013C7.29 17.5013 7.27 17.9813 6.97 18.2613Z" fill="url(#paint1_linear_2_517)"/>
<defs>
<linearGradient id="paint0_linear_2_517" x1="1.99562" y1="20.5709" x2="22.9057" y2="19.284" gradientUnits="userSpaceOnUse">
<stop stop-color="#F77248"/>
<stop offset="1" stop-color="#F2244B"/>
</linearGradient>
<linearGradient id="paint1_linear_2_517" x1="0.998248" y1="22.5761" x2="9.37362" y2="22.1635" gradientUnits="userSpaceOnUse">
<stop stop-color="#F77248"/>
<stop offset="1" stop-color="#F2244B"/>
</linearGradient>
</defs>
</svg>
