<svg width="24" height="25" viewBox="0 0 24 25" fill="none" xmlns="http://www.w3.org/2000/svg">
<path d="M18 2.59131H6C4.34 2.59131 3 3.92131 3 5.56131V16.4713C3 18.1113 4.34 19.4513 6 19.4513H6.76C7.55 19.4513 8.32 19.7613 8.88 20.3213L10.59 22.0113C11.37 22.7813 12.63 22.7813 13.41 22.0113L15.12 20.3213C15.68 19.7613 16.45 19.4513 17.24 19.4513H18C19.66 19.4513 21 18.1113 21 16.4713V5.56131C21 3.92131 19.66 2.59131 18 2.59131ZM12 6.14131C13.08 6.14131 13.95 7.02131 13.95 8.09131C13.95 9.15131 13.11 10.0013 12.07 10.0413C12.03 10.0413 11.97 10.0413 11.92 10.0413C10.87 10.0013 10.04 9.15131 10.04 8.09131C10.05 7.02131 10.92 6.14131 12 6.14131ZM14.75 15.2813C13.24 16.2913 10.76 16.2913 9.25 15.2813C7.92 14.4013 7.92 12.9413 9.25 12.0513C10.77 11.0413 13.25 11.0413 14.75 12.0513C16.08 12.9413 16.08 14.3913 14.75 15.2813Z" fill="url(#paint0_linear_83_473)"/>
<defs>
<linearGradient id="paint0_linear_83_473" x1="2.99606" y1="22.5509" x2="21.8493" y2="21.7148" gradientUnits="userSpaceOnUse">
<stop stop-color="#F77248"/>
<stop offset="1" stop-color="#F2244B"/>
</linearGradient>
</defs>
</svg>
