<svg width="20" height="21" viewBox="0 0 20 21" fill="none" xmlns="http://www.w3.org/2000/svg">
<path d="M13 1.15527C13 0.602989 12.5523 0.155273 12 0.155273H8C7.44772 0.155273 7 0.602989 7 1.15527V6.15527C7 6.70756 6.55228 7.15527 6 7.15527H1C0.447715 7.15527 0 7.60299 0 8.15527V12.1553C0 12.7076 0.447715 13.1553 1 13.1553H6C6.55228 13.1553 7 13.603 7 14.1553V19.1553C7 19.7076 7.44772 20.1553 8 20.1553H12C12.5523 20.1553 13 19.7076 13 19.1553V14.1553C13 13.603 13.4477 13.1553 14 13.1553H19C19.5523 13.1553 20 12.7076 20 12.1553V8.15527C20 7.60299 19.5523 7.15527 19 7.15527H14C13.4477 7.15527 13 6.70756 13 6.15527V1.15527Z" fill="url(#paint0_linear_2_523)"/>
<defs>
<linearGradient id="paint0_linear_2_523" x1="-0.0043789" y1="20.1173" x2="20.934" y2="19.0858" gradientUnits="userSpaceOnUse">
<stop stop-color="#F77248"/>
<stop offset="1" stop-color="#F2244B"/>
</linearGradient>
</defs>
</svg>
