<svg width="200" height="138" viewBox="0 0 200 138" fill="none" xmlns="http://www.w3.org/2000/svg">
<path d="M199.258 68.21H192.734L108.732 19.7111C102.887 16.3334 95.685 16.3506 89.8494 19.7369L6.43086 68.21H0.00215149V77.3718V77.3804C0.010746 80.5432 1.58354 83.706 4.71195 85.5108L90.5369 135.058C96.3812 138.436 103.583 138.419 109.419 135.032L194.574 85.5452C197.711 83.7232 199.266 80.5518 199.258 77.3804V68.2014V68.21Z" fill="url(#paint0_linear_205_12601)"/>
<path d="M194.548 60.0796L108.723 10.5236C102.879 7.14594 95.6765 7.16313 89.8408 10.5494L4.68618 60.0367C-1.57064 63.6722 -1.56205 72.7136 4.71196 76.3319L90.5369 125.879C96.3812 129.257 103.583 129.24 109.419 125.854L194.574 76.3663C200.831 72.7308 200.822 63.6894 194.548 60.0711V60.0796Z" fill="url(#paint1_linear_205_12601)"/>
<g opacity="0.9">
<path d="M99.9041 39.7667C70.6452 39.7177 46.993 53.3719 47.0812 70.2607L80.6236 70.3195C80.6138 67.4475 82.4958 64.5854 86.2695 62.3995C93.8366 58.0278 106.148 58.0572 113.764 62.4485C121.38 66.8398 121.419 73.9463 113.862 78.3179L137.661 92.0603C147.973 86.1007 153.109 78.9061 153.06 70.4567C152.972 53.5581 129.173 39.8157 99.9041 39.7667Z" fill="url(#paint2_linear_205_12601)"/>
<path opacity="0.9" d="M80.6138 30.5627L47.0812 30.5039V70.3196H80.6138V30.5627Z" fill="url(#paint3_linear_205_12601)"/>
<path d="M86.2793 62.4094C93.8465 58.0377 106.158 58.0671 113.774 62.4584C117.538 64.6345 119.449 67.4673 119.498 70.3098V30.749C119.528 27.8378 117.626 24.9168 113.774 22.6918C106.158 18.2907 93.8465 18.2711 86.2793 22.6428C82.5448 24.7992 80.6726 27.6222 80.6334 30.455H80.6138V70.349H80.6334C80.6138 67.477 82.4958 64.5953 86.2793 62.4094Z" fill="url(#paint4_linear_205_12601)"/>
<path opacity="0.85" d="M137.661 52.2935V92.1092C147.973 86.1496 153.109 78.9549 153.06 70.5056V30.6899C153.109 39.1393 147.973 46.3437 137.661 52.2935Z" fill="#E8E8E8"/>
<path opacity="0.85" d="M137.661 52.2935V92.1092C147.973 86.1496 153.109 78.9549 153.06 70.5056V30.6899C153.109 39.1393 147.973 46.3437 137.661 52.2935Z" fill="#E8E8E8"/>
<path opacity="0.85" d="M137.661 52.2935V92.1092C147.973 86.1496 153.109 78.9549 153.06 70.5056V30.6899C153.109 39.1393 147.973 46.3437 137.661 52.2935Z" fill="#E8E8E8"/>
<path opacity="0.85" d="M113.754 38.4927L113.852 38.5613V78.3083L137.661 92.1095V52.2939L113.754 38.4927Z" fill="url(#paint5_linear_205_12601)"/>
<path style="mix-blend-mode:color-dodge" d="M137.661 51.8919L114.597 38.571C114.352 38.7278 114.127 38.8847 113.862 39.0415L137.661 52.7839C147.973 46.8243 153.109 39.6296 153.06 31.1803C153.06 31.0627 153.05 30.9451 153.041 30.8176C152.874 39.0317 147.748 46.0597 137.652 51.8919H137.661Z" fill="white"/>
<path d="M99.9041 0.000131524C70.6452 -0.0488784 46.993 13.6053 47.0812 30.5039L80.6236 30.5627C80.6138 27.6907 82.4958 24.8286 86.2695 22.6427C93.8366 18.271 106.148 18.3004 113.764 22.6917C121.38 27.083 121.419 34.1895 113.862 38.5611L137.661 52.3035C147.973 46.3439 153.109 39.1493 153.06 30.6999C152.972 13.7915 129.173 0.0491414 99.9041 0.000131524Z" fill="url(#paint6_linear_205_12601)"/>
<path style="mix-blend-mode:color-dodge" d="M119.469 30.71C119.675 27.6811 117.783 24.6131 113.774 22.2901C106.158 17.889 93.8464 17.8694 86.2793 22.241C82.4957 24.4269 80.6138 27.2891 80.6334 30.161L47.1204 30.0924C47.1106 30.3865 47.0812 30.6806 47.091 30.9844L80.6334 31.0432C80.6236 28.1712 82.5056 25.3091 86.2793 23.1232C93.8464 18.7515 106.158 18.7809 113.774 23.1722C117.401 25.2601 119.283 27.9654 119.469 30.7002V30.71Z" fill="white"/>
</g>
<g opacity="0.95">
<path d="M114.048 64.3209C113.98 64.3601 113.921 64.4091 113.852 64.4483C110.049 66.644 105.06 67.7222 100.071 67.7124V81.592C105.06 81.6116 110.059 80.5236 113.852 78.328C113.921 78.2888 113.98 78.2397 114.048 78.2005V64.3209Z" fill="#FF6700"/>
<path opacity="0.95" d="M100.237 86.493L100.13 67.4771C100.13 67.4771 100.159 67.4771 100.169 67.4771L100.071 67.3595L100.237 101C114.872 101.029 127.34 98.0593 137.661 92.1095V77.6026C127.35 83.5622 114.872 86.5224 100.237 86.493Z" fill="#FF6700"/>
<path opacity="0.95" d="M114.156 64.0267C114.048 64.0855 113.96 64.1542 113.852 64.2228C110.069 66.4086 105.109 67.4966 100.139 67.4868L100.247 86.983C114.881 87.0124 127.35 83.5621 137.671 77.6025L114.166 64.0267H114.156Z" fill="#FF6700"/>
<path style="mix-blend-mode:color-dodge" d="M100.237 86.2478L100.08 67.526V67.6044L100.237 87.0025C114.872 87.032 127.34 84.062 137.661 78.1121L136.985 77.7201C126.801 83.4248 114.558 86.2674 100.237 86.238V86.2478Z" fill="url(#paint7_radial_205_12601)"/>
</g>
<g opacity="0.95">
<path d="M114.048 64.3207C113.98 64.3599 113.921 64.4089 113.852 64.4481C110.049 66.6437 105.06 67.722 100.071 67.7122V81.5918C105.06 81.6114 110.059 80.5234 113.852 78.3277C113.921 78.2885 113.98 78.2395 114.048 78.2003V64.3207Z" fill="url(#paint8_linear_205_12601)"/>
<path opacity="0.95" d="M100.237 86.4927L100.13 67.4769C100.13 67.4769 100.159 67.4769 100.169 67.4769L100.071 67.3593L100.237 101C114.872 101.029 127.34 98.0591 137.661 92.1093V77.6023C127.35 83.5619 114.872 86.5221 100.237 86.4927Z" fill="url(#paint9_linear_205_12601)"/>
<path opacity="0.95" d="M114.156 64.0266C114.048 64.0854 113.96 64.154 113.852 64.2226C110.069 66.4085 105.109 67.4965 100.139 67.4867L100.247 86.9829C114.881 87.0123 127.35 83.562 137.671 77.6024L114.166 64.0266H114.156Z" fill="url(#paint10_linear_205_12601)"/>
<path style="mix-blend-mode:color-dodge" d="M100.237 86.2477L100.081 67.5259V67.6043L100.237 87.0024C114.872 87.0318 127.34 84.0618 137.661 78.112L136.985 77.7199C126.801 83.4247 114.558 86.2673 100.237 86.2379V86.2477Z" fill="url(#paint11_radial_205_12601)"/>
</g>
<g opacity="0.9">
<path d="M100.13 56.1755C95.1501 56.1755 90.1707 55.0581 86.3675 52.8624C82.5056 50.6374 80.604 47.7164 80.6432 44.8052H80.6236V70.3295H80.6432C80.6628 73.2015 82.5742 76.0735 86.3773 78.2691C90.1903 80.4648 95.1697 81.5724 100.139 81.5822V56.1853L100.13 56.1755Z" fill="url(#paint12_linear_205_12601)"/>
<path opacity="0.9" d="M47.0812 44.6678V70.3098C47.1694 87.2085 70.9686 100.951 100.237 101V75.3579C70.9686 75.3088 47.1694 61.5665 47.0812 44.6678Z" fill="url(#paint13_linear_205_12601)"/>
<path opacity="0.9" d="M86.3577 52.8623C82.4663 50.6177 80.5648 47.6673 80.6334 44.7267L47.0812 44.6678C47.1694 61.5665 70.9686 75.3088 100.237 75.3579L100.13 56.1754C95.1501 56.1754 90.1707 55.0678 86.3577 52.8623Z" fill="url(#paint14_linear_205_12601)"/>
<path style="mix-blend-mode:color-dodge" d="M100.071 56.0578H99.8257L99.9825 74.9854C73.821 74.9364 52.0508 63.9484 47.6497 49.5591C51.4038 64.3895 73.5465 75.8284 100.237 75.8774L100.071 56.0676V56.0578Z" fill="url(#paint15_radial_205_12601)"/>
</g>
<g opacity="0.9">
<path d="M99.9041 39.7667C70.6452 39.7177 46.993 53.3719 47.0812 70.2607L80.6236 70.3195C80.6138 67.4475 82.4958 64.5854 86.2695 62.3995C93.8366 58.0278 106.148 58.0572 113.764 62.4485C121.38 66.8398 121.419 73.9463 113.862 78.3179L137.661 92.0603C147.973 86.1007 153.109 78.9061 153.06 70.4567C152.972 53.5581 129.173 39.8157 99.9041 39.7667Z" fill="url(#paint16_linear_205_12601)"/>
<path opacity="0.9" d="M80.6138 30.5627L47.0812 30.5039V70.3196H80.6138V30.5627Z" fill="url(#paint17_linear_205_12601)"/>
<path d="M86.2793 62.4094C93.8465 58.0377 106.158 58.0671 113.774 62.4584C117.538 64.6345 119.449 67.4673 119.498 70.3098V30.749C119.528 27.8378 117.626 24.9168 113.774 22.6918C106.158 18.2907 93.8465 18.2711 86.2793 22.6428C82.5448 24.7992 80.6726 27.6222 80.6334 30.455H80.6138V70.349H80.6334C80.6138 67.477 82.4958 64.5953 86.2793 62.4094Z" fill="url(#paint18_linear_205_12601)"/>
<path opacity="0.85" d="M137.661 52.2935V92.1092C147.973 86.1496 153.109 78.9549 153.06 70.5056V30.6899C153.109 39.1393 147.973 46.3437 137.661 52.2935Z" fill="#E8E8E8"/>
<path opacity="0.85" d="M137.661 52.2935V92.1092C147.973 86.1496 153.109 78.9549 153.06 70.5056V30.6899C153.109 39.1393 147.973 46.3437 137.661 52.2935Z" fill="#E8E8E8"/>
<path opacity="0.85" d="M137.661 52.2935V92.1092C147.973 86.1496 153.109 78.9549 153.06 70.5056V30.6899C153.109 39.1393 147.973 46.3437 137.661 52.2935Z" fill="#E8E8E8"/>
<path opacity="0.85" d="M113.754 38.4927L113.852 38.5613V78.3083L137.661 92.1095V52.2939L113.754 38.4927Z" fill="url(#paint19_linear_205_12601)"/>
<path style="mix-blend-mode:color-dodge" d="M137.661 51.8919L114.597 38.571C114.352 38.7278 114.127 38.8847 113.862 39.0415L137.661 52.7839C147.973 46.8243 153.109 39.6296 153.06 31.1803C153.06 31.0627 153.05 30.9451 153.041 30.8176C152.874 39.0317 147.748 46.0597 137.652 51.8919H137.661Z" fill="white"/>
<path d="M99.9041 0.000131524C70.6452 -0.0488784 46.993 13.6053 47.0812 30.5039L80.6236 30.5627C80.6138 27.6907 82.4958 24.8286 86.2695 22.6427C93.8366 18.271 106.148 18.3004 113.764 22.6917C121.38 27.083 121.419 34.1895 113.862 38.5611L137.661 52.3035C147.973 46.3439 153.109 39.1493 153.06 30.6999C152.972 13.7915 129.173 0.0491414 99.9041 0.000131524Z" fill="url(#paint20_linear_205_12601)"/>
<path style="mix-blend-mode:color-dodge" d="M119.469 30.71C119.675 27.6811 117.783 24.6131 113.774 22.2901C106.158 17.889 93.8464 17.8694 86.2793 22.241C82.4957 24.4269 80.6138 27.2891 80.6334 30.161L47.1204 30.0924C47.1106 30.3865 47.0812 30.6806 47.091 30.9844L80.6334 31.0432C80.6236 28.1712 82.5056 25.3091 86.2793 23.1232C93.8464 18.7515 106.158 18.7809 113.774 23.1722C117.401 25.2601 119.283 27.9654 119.469 30.7002V30.71Z" fill="white"/>
</g>
<g opacity="0.95">
<path d="M114.048 64.3209C113.98 64.3601 113.921 64.4091 113.852 64.4483C110.049 66.644 105.06 67.7222 100.071 67.7124V81.592C105.06 81.6116 110.059 80.5236 113.852 78.328C113.921 78.2888 113.98 78.2397 114.048 78.2005V64.3209Z" fill="#FF6700"/>
<path opacity="0.95" d="M100.237 86.493L100.13 67.4771C100.13 67.4771 100.159 67.4771 100.169 67.4771L100.071 67.3595L100.237 101C114.872 101.029 127.34 98.0593 137.661 92.1095V77.6026C127.35 83.5622 114.872 86.5224 100.237 86.493Z" fill="#FF6700"/>
<path opacity="0.95" d="M114.156 64.0267C114.048 64.0855 113.96 64.1542 113.852 64.2228C110.069 66.4086 105.109 67.4966 100.139 67.4868L100.247 86.983C114.881 87.0124 127.35 83.5621 137.671 77.6025L114.166 64.0267H114.156Z" fill="#FF6700"/>
<path style="mix-blend-mode:color-dodge" d="M100.237 86.2478L100.08 67.526V67.6044L100.237 87.0025C114.872 87.032 127.34 84.062 137.661 78.1121L136.985 77.7201C126.801 83.4248 114.558 86.2674 100.237 86.238V86.2478Z" fill="url(#paint21_radial_205_12601)"/>
</g>
<g opacity="0.95">
<path d="M114.048 64.3207C113.98 64.3599 113.921 64.4089 113.852 64.4481C110.049 66.6437 105.06 67.722 100.071 67.7122V81.5918C105.06 81.6114 110.059 80.5234 113.852 78.3277C113.921 78.2885 113.98 78.2395 114.048 78.2003V64.3207Z" fill="url(#paint22_linear_205_12601)"/>
<path opacity="0.95" d="M100.237 86.4927L100.13 67.4769C100.13 67.4769 100.159 67.4769 100.169 67.4769L100.071 67.3593L100.237 101C114.872 101.029 127.34 98.0591 137.661 92.1093V77.6023C127.35 83.5619 114.872 86.5221 100.237 86.4927Z" fill="url(#paint23_linear_205_12601)"/>
<path opacity="0.95" d="M114.156 64.0266C114.048 64.0854 113.96 64.154 113.852 64.2226C110.069 66.4085 105.109 67.4965 100.139 67.4867L100.247 86.9829C114.881 87.0123 127.35 83.562 137.671 77.6024L114.166 64.0266H114.156Z" fill="url(#paint24_linear_205_12601)"/>
<path style="mix-blend-mode:color-dodge" d="M100.237 86.2477L100.081 67.5259V67.6043L100.237 87.0024C114.872 87.0318 127.34 84.0618 137.661 78.112L136.985 77.7199C126.801 83.4247 114.558 86.2673 100.237 86.2379V86.2477Z" fill="url(#paint25_radial_205_12601)"/>
</g>
<g opacity="0.9">
<path d="M100.13 56.1755C95.1501 56.1755 90.1707 55.0581 86.3675 52.8624C82.5056 50.6374 80.604 47.7164 80.6432 44.8052H80.6236V70.3295H80.6432C80.6628 73.2015 82.5742 76.0735 86.3773 78.2691C90.1903 80.4648 95.1697 81.5724 100.139 81.5822V56.1853L100.13 56.1755Z" fill="url(#paint26_linear_205_12601)"/>
<path opacity="0.9" d="M47.0812 44.6678V70.3098C47.1694 87.2085 70.9686 100.951 100.237 101V75.3579C70.9686 75.3088 47.1694 61.5665 47.0812 44.6678Z" fill="url(#paint27_linear_205_12601)"/>
<path opacity="0.9" d="M86.3577 52.8623C82.4663 50.6177 80.5648 47.6673 80.6334 44.7267L47.0812 44.6678C47.1694 61.5665 70.9686 75.3088 100.237 75.3579L100.13 56.1754C95.1501 56.1754 90.1707 55.0678 86.3577 52.8623Z" fill="url(#paint28_linear_205_12601)"/>
<path style="mix-blend-mode:color-dodge" d="M100.071 56.0578H99.8257L99.9825 74.9854C73.821 74.9364 52.0508 63.9484 47.6497 49.5591C51.4038 64.3895 73.5465 75.8284 100.237 75.8774L100.071 56.0676V56.0578Z" fill="url(#paint29_radial_205_12601)"/>
</g>
<g opacity="0.9">
<path d="M99.9041 39.7667C70.6452 39.7177 46.993 53.3719 47.0812 70.2607L80.6236 70.3195C80.6138 67.4475 82.4958 64.5854 86.2695 62.3995C93.8366 58.0278 106.148 58.0572 113.764 62.4485C121.38 66.8398 121.419 73.9463 113.862 78.3179L137.661 92.0603C147.973 86.1007 153.109 78.9061 153.06 70.4567C152.972 53.5581 129.173 39.8157 99.9041 39.7667Z" fill="url(#paint30_linear_205_12601)"/>
<path opacity="0.9" d="M80.6138 30.5627L47.0812 30.5039V70.3196H80.6138V30.5627Z" fill="url(#paint31_linear_205_12601)"/>
<path d="M86.2793 62.4094C93.8465 58.0377 106.158 58.0671 113.774 62.4584C117.538 64.6345 119.449 67.4673 119.498 70.3098V30.749C119.528 27.8378 117.626 24.9168 113.774 22.6918C106.158 18.2907 93.8465 18.2711 86.2793 22.6428C82.5448 24.7992 80.6726 27.6222 80.6334 30.455H80.6138V70.349H80.6334C80.6138 67.477 82.4958 64.5953 86.2793 62.4094Z" fill="url(#paint32_linear_205_12601)"/>
<path opacity="0.85" d="M137.661 52.2935V92.1092C147.973 86.1496 153.109 78.9549 153.06 70.5056V30.6899C153.109 39.1393 147.973 46.3437 137.661 52.2935Z" fill="#E8E8E8"/>
<path opacity="0.85" d="M137.661 52.2935V92.1092C147.973 86.1496 153.109 78.9549 153.06 70.5056V30.6899C153.109 39.1393 147.973 46.3437 137.661 52.2935Z" fill="#E8E8E8"/>
<path opacity="0.85" d="M137.661 52.2935V92.1092C147.973 86.1496 153.109 78.9549 153.06 70.5056V30.6899C153.109 39.1393 147.973 46.3437 137.661 52.2935Z" fill="#E8E8E8"/>
<path opacity="0.85" d="M113.754 38.4927L113.852 38.5613V78.3083L137.661 92.1095V52.2939L113.754 38.4927Z" fill="url(#paint33_linear_205_12601)"/>
<path style="mix-blend-mode:color-dodge" d="M137.661 51.8919L114.597 38.571C114.352 38.7278 114.127 38.8847 113.862 39.0415L137.661 52.7839C147.973 46.8243 153.109 39.6296 153.06 31.1803C153.06 31.0627 153.05 30.9451 153.041 30.8176C152.874 39.0317 147.748 46.0597 137.652 51.8919H137.661Z" fill="white"/>
<path d="M99.9041 0.000131524C70.6452 -0.0488784 46.993 13.6053 47.0812 30.5039L80.6236 30.5627C80.6138 27.6907 82.4958 24.8286 86.2695 22.6427C93.8366 18.271 106.148 18.3004 113.764 22.6917C121.38 27.083 121.419 34.1895 113.862 38.5611L137.661 52.3035C147.973 46.3439 153.109 39.1493 153.06 30.6999C152.972 13.7915 129.173 0.0491414 99.9041 0.000131524Z" fill="url(#paint34_linear_205_12601)"/>
<path style="mix-blend-mode:color-dodge" d="M119.469 30.71C119.675 27.6811 117.783 24.6131 113.774 22.2901C106.158 17.889 93.8464 17.8694 86.2793 22.241C82.4957 24.4269 80.6138 27.2891 80.6334 30.161L47.1204 30.0924C47.1106 30.3865 47.0812 30.6806 47.091 30.9844L80.6334 31.0432C80.6236 28.1712 82.5056 25.3091 86.2793 23.1232C93.8464 18.7515 106.158 18.7809 113.774 23.1722C117.401 25.2601 119.283 27.9654 119.469 30.7002V30.71Z" fill="white"/>
</g>
<g opacity="0.95">
<path d="M114.048 64.3209C113.98 64.3601 113.921 64.4091 113.852 64.4483C110.049 66.644 105.06 67.7222 100.071 67.7124V81.592C105.06 81.6116 110.059 80.5236 113.852 78.328C113.921 78.2888 113.98 78.2397 114.048 78.2005V64.3209Z" fill="#FF6700"/>
<path opacity="0.95" d="M100.237 86.493L100.13 67.4771C100.13 67.4771 100.159 67.4771 100.169 67.4771L100.071 67.3595L100.237 101C114.872 101.029 127.34 98.0593 137.661 92.1095V77.6026C127.35 83.5622 114.872 86.5224 100.237 86.493Z" fill="#FF6700"/>
<path opacity="0.95" d="M114.156 64.0267C114.048 64.0855 113.96 64.1542 113.852 64.2228C110.069 66.4086 105.109 67.4966 100.139 67.4868L100.247 86.983C114.881 87.0124 127.35 83.5621 137.671 77.6025L114.166 64.0267H114.156Z" fill="#FF6700"/>
<path style="mix-blend-mode:color-dodge" d="M100.237 86.2478L100.08 67.526V67.6044L100.237 87.0025C114.872 87.032 127.34 84.062 137.661 78.1121L136.985 77.7201C126.801 83.4248 114.558 86.2674 100.237 86.238V86.2478Z" fill="url(#paint35_radial_205_12601)"/>
</g>
<g opacity="0.95">
<path d="M114.048 64.3207C113.98 64.3599 113.921 64.4089 113.852 64.4481C110.049 66.6437 105.06 67.722 100.071 67.7122V81.5918C105.06 81.6114 110.059 80.5234 113.852 78.3277C113.921 78.2885 113.98 78.2395 114.048 78.2003V64.3207Z" fill="url(#paint36_linear_205_12601)"/>
<path opacity="0.95" d="M100.237 86.4927L100.13 67.4769C100.13 67.4769 100.159 67.4769 100.169 67.4769L100.071 67.3593L100.237 101C114.872 101.029 127.34 98.0591 137.661 92.1093V77.6023C127.35 83.5619 114.872 86.5221 100.237 86.4927Z" fill="url(#paint37_linear_205_12601)"/>
<path opacity="0.95" d="M114.156 64.0266C114.048 64.0854 113.96 64.154 113.852 64.2226C110.069 66.4085 105.109 67.4965 100.139 67.4867L100.247 86.9829C114.881 87.0123 127.35 83.562 137.671 77.6024L114.166 64.0266H114.156Z" fill="url(#paint38_linear_205_12601)"/>
<path style="mix-blend-mode:color-dodge" d="M100.237 86.2477L100.081 67.5259V67.6043L100.237 87.0024C114.872 87.0318 127.34 84.0618 137.661 78.112L136.985 77.7199C126.801 83.4247 114.558 86.2673 100.237 86.2379V86.2477Z" fill="url(#paint39_radial_205_12601)"/>
</g>
<g opacity="0.9">
<path d="M100.13 56.1755C95.1501 56.1755 90.1707 55.0581 86.3675 52.8624C82.5056 50.6374 80.604 47.7164 80.6432 44.8052H80.6236V70.3295H80.6432C80.6628 73.2015 82.5742 76.0735 86.3773 78.2691C90.1903 80.4648 95.1697 81.5724 100.139 81.5822V56.1853L100.13 56.1755Z" fill="url(#paint40_linear_205_12601)"/>
<path opacity="0.9" d="M47.0812 44.6678V70.3098C47.1694 87.2085 70.9686 100.951 100.237 101V75.3579C70.9686 75.3088 47.1694 61.5665 47.0812 44.6678Z" fill="url(#paint41_linear_205_12601)"/>
<path opacity="0.9" d="M86.3577 52.8623C82.4663 50.6177 80.5648 47.6673 80.6334 44.7267L47.0812 44.6678C47.1694 61.5665 70.9686 75.3088 100.237 75.3579L100.13 56.1754C95.1501 56.1754 90.1707 55.0678 86.3577 52.8623Z" fill="url(#paint42_linear_205_12601)"/>
<path style="mix-blend-mode:color-dodge" d="M100.071 56.0578H99.8257L99.9825 74.9854C73.821 74.9364 52.0508 63.9484 47.6497 49.5591C51.4038 64.3895 73.5465 75.8284 100.237 75.8774L100.071 56.0676V56.0578Z" fill="url(#paint43_radial_205_12601)"/>
</g>
<g opacity="0.9">
<path d="M99.9041 39.7667C70.6452 39.7177 46.993 53.3719 47.0812 70.2607L80.6236 70.3195C80.6138 67.4475 82.4958 64.5854 86.2695 62.3995C93.8366 58.0278 106.148 58.0572 113.764 62.4485C121.38 66.8398 121.419 73.9463 113.862 78.3179L137.661 92.0603C147.973 86.1007 153.109 78.9061 153.06 70.4567C152.972 53.5581 129.173 39.8157 99.9041 39.7667Z" fill="url(#paint44_linear_205_12601)"/>
<path opacity="0.9" d="M80.6138 30.5627L47.0812 30.5039V70.3196H80.6138V30.5627Z" fill="url(#paint45_linear_205_12601)"/>
<path d="M86.2793 62.4094C93.8465 58.0377 106.158 58.0671 113.774 62.4584C117.538 64.6345 119.449 67.4673 119.498 70.3098V30.749C119.528 27.8378 117.626 24.9168 113.774 22.6918C106.158 18.2907 93.8465 18.2711 86.2793 22.6428C82.5448 24.7992 80.6726 27.6222 80.6334 30.455H80.6138V70.349H80.6334C80.6138 67.477 82.4958 64.5953 86.2793 62.4094Z" fill="url(#paint46_linear_205_12601)"/>
<path opacity="0.85" d="M137.661 52.2935V92.1092C147.973 86.1496 153.109 78.9549 153.06 70.5056V30.6899C153.109 39.1393 147.973 46.3437 137.661 52.2935Z" fill="#E8E8E8"/>
<path opacity="0.85" d="M137.661 52.2935V92.1092C147.973 86.1496 153.109 78.9549 153.06 70.5056V30.6899C153.109 39.1393 147.973 46.3437 137.661 52.2935Z" fill="#E8E8E8"/>
<path opacity="0.85" d="M137.661 52.2935V92.1092C147.973 86.1496 153.109 78.9549 153.06 70.5056V30.6899C153.109 39.1393 147.973 46.3437 137.661 52.2935Z" fill="#E8E8E8"/>
<path opacity="0.85" d="M113.754 38.4927L113.852 38.5613V78.3083L137.661 92.1095V52.2939L113.754 38.4927Z" fill="url(#paint47_linear_205_12601)"/>
<path style="mix-blend-mode:color-dodge" d="M137.661 51.8919L114.597 38.571C114.352 38.7278 114.127 38.8847 113.862 39.0415L137.661 52.7839C147.973 46.8243 153.109 39.6296 153.06 31.1803C153.06 31.0627 153.05 30.9451 153.041 30.8176C152.874 39.0317 147.748 46.0597 137.652 51.8919H137.661Z" fill="white"/>
<path d="M99.9041 0.000131524C70.6452 -0.0488784 46.993 13.6053 47.0812 30.5039L80.6236 30.5627C80.6138 27.6907 82.4958 24.8286 86.2695 22.6427C93.8366 18.271 106.148 18.3004 113.764 22.6917C121.38 27.083 121.419 34.1895 113.862 38.5611L137.661 52.3035C147.973 46.3439 153.109 39.1493 153.06 30.6999C152.972 13.7915 129.173 0.0491414 99.9041 0.000131524Z" fill="url(#paint48_linear_205_12601)"/>
<path style="mix-blend-mode:color-dodge" d="M119.469 30.71C119.675 27.6811 117.783 24.6131 113.774 22.2901C106.158 17.889 93.8464 17.8694 86.2793 22.241C82.4957 24.4269 80.6138 27.2891 80.6334 30.161L47.1204 30.0924C47.1106 30.3865 47.0812 30.6806 47.091 30.9844L80.6334 31.0432C80.6236 28.1712 82.5056 25.3091 86.2793 23.1232C93.8464 18.7515 106.158 18.7809 113.774 23.1722C117.401 25.2601 119.283 27.9654 119.469 30.7002V30.71Z" fill="white"/>
</g>
<g opacity="0.95">
<path d="M114.048 64.3209C113.98 64.3601 113.921 64.4091 113.852 64.4483C110.049 66.644 105.06 67.7222 100.071 67.7124V81.592C105.06 81.6116 110.059 80.5236 113.852 78.328C113.921 78.2888 113.98 78.2397 114.048 78.2005V64.3209Z" fill="#FF6700"/>
<path opacity="0.95" d="M100.237 86.493L100.13 67.4771C100.13 67.4771 100.159 67.4771 100.169 67.4771L100.071 67.3595L100.237 101C114.872 101.029 127.34 98.0593 137.661 92.1095V77.6026C127.35 83.5622 114.872 86.5224 100.237 86.493Z" fill="#FF6700"/>
<path opacity="0.95" d="M114.156 64.0267C114.048 64.0855 113.96 64.1542 113.852 64.2228C110.069 66.4086 105.109 67.4966 100.139 67.4868L100.247 86.983C114.881 87.0124 127.35 83.5621 137.671 77.6025L114.166 64.0267H114.156Z" fill="#FF6700"/>
<path style="mix-blend-mode:color-dodge" d="M100.237 86.2478L100.08 67.526V67.6044L100.237 87.0025C114.872 87.032 127.34 84.062 137.661 78.1121L136.985 77.7201C126.801 83.4248 114.558 86.2674 100.237 86.238V86.2478Z" fill="url(#paint49_radial_205_12601)"/>
</g>
<g opacity="0.95">
<path d="M114.048 64.3207C113.98 64.3599 113.921 64.4089 113.852 64.4481C110.049 66.6437 105.06 67.722 100.071 67.7122V81.5918C105.06 81.6114 110.059 80.5234 113.852 78.3277C113.921 78.2885 113.98 78.2395 114.048 78.2003V64.3207Z" fill="url(#paint50_linear_205_12601)"/>
<path opacity="0.95" d="M100.237 86.4927L100.13 67.4769C100.13 67.4769 100.159 67.4769 100.169 67.4769L100.071 67.3593L100.237 101C114.872 101.029 127.34 98.0591 137.661 92.1093V77.6023C127.35 83.5619 114.872 86.5221 100.237 86.4927Z" fill="url(#paint51_linear_205_12601)"/>
<path opacity="0.95" d="M114.156 64.0266C114.048 64.0854 113.96 64.154 113.852 64.2226C110.069 66.4085 105.109 67.4965 100.139 67.4867L100.247 86.9829C114.881 87.0123 127.35 83.562 137.671 77.6024L114.166 64.0266H114.156Z" fill="url(#paint52_linear_205_12601)"/>
<path style="mix-blend-mode:color-dodge" d="M100.237 86.2477L100.081 67.5259V67.6043L100.237 87.0024C114.872 87.0318 127.34 84.0618 137.661 78.112L136.985 77.7199C126.801 83.4247 114.558 86.2673 100.237 86.2379V86.2477Z" fill="url(#paint53_radial_205_12601)"/>
</g>
<g opacity="0.9">
<path d="M100.13 56.1755C95.1501 56.1755 90.1707 55.0581 86.3675 52.8624C82.5056 50.6374 80.604 47.7164 80.6432 44.8052H80.6236V70.3295H80.6432C80.6628 73.2015 82.5742 76.0735 86.3773 78.2691C90.1903 80.4648 95.1697 81.5724 100.139 81.5822V56.1853L100.13 56.1755Z" fill="url(#paint54_linear_205_12601)"/>
<path opacity="0.9" d="M47.0812 44.6678V70.3098C47.1694 87.2085 70.9686 100.951 100.237 101V75.3579C70.9686 75.3088 47.1694 61.5665 47.0812 44.6678Z" fill="url(#paint55_linear_205_12601)"/>
<path opacity="0.9" d="M86.3577 52.8623C82.4663 50.6177 80.5648 47.6673 80.6334 44.7267L47.0812 44.6678C47.1694 61.5665 70.9686 75.3088 100.237 75.3579L100.13 56.1754C95.1501 56.1754 90.1707 55.0678 86.3577 52.8623Z" fill="url(#paint56_linear_205_12601)"/>
<path style="mix-blend-mode:color-dodge" d="M100.071 56.0578H99.8257L99.9825 74.9854C73.821 74.9364 52.0508 63.9484 47.6497 49.5591C51.4038 64.3895 73.5465 75.8284 100.237 75.8774L100.071 56.0676V56.0578Z" fill="url(#paint57_radial_205_12601)"/>
</g>
<defs>
<linearGradient id="paint0_linear_205_12601" x1="60" y1="26.7056" x2="203.5" y2="92.2056" gradientUnits="userSpaceOnUse">
<stop stop-color="#EAEAEA"/>
<stop offset="1" stop-color="#B0B0B0"/>
</linearGradient>
<linearGradient id="paint1_linear_205_12601" x1="22.7777" y1="25.9593" x2="188.652" y2="77.9562" gradientUnits="userSpaceOnUse">
<stop stop-color="white"/>
<stop offset="1" stop-color="#D7D7D7"/>
</linearGradient>
<linearGradient id="paint2_linear_205_12601" x1="100.071" y1="39.7666" x2="100.071" y2="92.0603" gradientUnits="userSpaceOnUse">
<stop stop-color="white"/>
<stop offset="1" stop-color="#B5B5B5"/>
</linearGradient>
<linearGradient id="paint3_linear_205_12601" x1="63.8475" y1="30.5039" x2="63.8475" y2="70.3196" gradientUnits="userSpaceOnUse">
<stop stop-color="#E8E8E8"/>
<stop offset="1" stop-color="#CDCDCD"/>
</linearGradient>
<linearGradient id="paint4_linear_205_12601" x1="100.056" y1="19.3774" x2="100.056" y2="70.349" gradientUnits="userSpaceOnUse">
<stop stop-color="white"/>
<stop offset="1" stop-color="#CBCBCB"/>
</linearGradient>
<linearGradient id="paint5_linear_205_12601" x1="125.708" y1="38.4927" x2="125.708" y2="92.1095" gradientUnits="userSpaceOnUse">
<stop stop-color="#E8E8E8"/>
<stop offset="1" stop-color="#C8C8C8"/>
</linearGradient>
<linearGradient id="paint6_linear_205_12601" x1="100.093" y1="41.0209" x2="136.065" y2="-32.1856" gradientUnits="userSpaceOnUse">
<stop stop-color="white"/>
<stop offset="1" stop-color="#D9D9D9"/>
</linearGradient>
<radialGradient id="paint7_radial_205_12601" cx="0" cy="0" r="1" gradientUnits="userSpaceOnUse" gradientTransform="translate(118.048 81.9349) scale(15.6342 15.6342)">
<stop stop-color="white"/>
<stop offset="1"/>
</radialGradient>
<linearGradient id="paint8_linear_205_12601" x1="107.06" y1="64.3207" x2="107.06" y2="81.592" gradientUnits="userSpaceOnUse">
<stop stop-color="#FF6700"/>
<stop offset="1" stop-color="#FF9C58"/>
</linearGradient>
<linearGradient id="paint9_linear_205_12601" x1="118.866" y1="67.3593" x2="118.866" y2="101" gradientUnits="userSpaceOnUse">
<stop stop-color="#FF6700"/>
<stop offset="1" stop-color="#FF9C58"/>
</linearGradient>
<linearGradient id="paint10_linear_205_12601" x1="118.905" y1="64.0266" x2="118.905" y2="86.983" gradientUnits="userSpaceOnUse">
<stop stop-color="#FF6700"/>
<stop offset="1" stop-color="#FF9C58"/>
</linearGradient>
<radialGradient id="paint11_radial_205_12601" cx="0" cy="0" r="1" gradientUnits="userSpaceOnUse" gradientTransform="translate(118.048 81.9348) scale(15.6342 15.6342)">
<stop stop-color="white"/>
<stop offset="1"/>
</radialGradient>
<linearGradient id="paint12_linear_205_12601" x1="90.3815" y1="44.8052" x2="90.3815" y2="81.5822" gradientUnits="userSpaceOnUse">
<stop stop-color="#FAFAFA"/>
<stop offset="1" stop-color="#9F9F9F"/>
</linearGradient>
<linearGradient id="paint13_linear_205_12601" x1="73.6593" y1="44.6678" x2="73.6593" y2="101" gradientUnits="userSpaceOnUse">
<stop stop-color="#F0F0F0"/>
<stop offset="1" stop-color="#CDCDCD"/>
</linearGradient>
<linearGradient id="paint14_linear_205_12601" x1="73.6593" y1="44.6678" x2="73.6593" y2="75.3579" gradientUnits="userSpaceOnUse">
<stop stop-color="white"/>
<stop offset="1" stop-color="#F3F3F3"/>
</linearGradient>
<radialGradient id="paint15_radial_205_12601" cx="0" cy="0" r="1" gradientUnits="userSpaceOnUse" gradientTransform="translate(75.2129 65.8696) scale(21.0057)">
<stop stop-color="white"/>
<stop offset="1"/>
</radialGradient>
<linearGradient id="paint16_linear_205_12601" x1="100.071" y1="39.7666" x2="100.071" y2="92.0603" gradientUnits="userSpaceOnUse">
<stop stop-color="white"/>
<stop offset="1" stop-color="#B5B5B5"/>
</linearGradient>
<linearGradient id="paint17_linear_205_12601" x1="63.8475" y1="30.5039" x2="63.8475" y2="70.3196" gradientUnits="userSpaceOnUse">
<stop stop-color="#E8E8E8"/>
<stop offset="1" stop-color="#CDCDCD"/>
</linearGradient>
<linearGradient id="paint18_linear_205_12601" x1="100.056" y1="19.3774" x2="100.056" y2="70.349" gradientUnits="userSpaceOnUse">
<stop stop-color="white"/>
<stop offset="1" stop-color="#CBCBCB"/>
</linearGradient>
<linearGradient id="paint19_linear_205_12601" x1="125.708" y1="38.4927" x2="125.708" y2="92.1095" gradientUnits="userSpaceOnUse">
<stop stop-color="#E8E8E8"/>
<stop offset="1" stop-color="#C8C8C8"/>
</linearGradient>
<linearGradient id="paint20_linear_205_12601" x1="100.093" y1="41.0209" x2="136.065" y2="-32.1856" gradientUnits="userSpaceOnUse">
<stop stop-color="white"/>
<stop offset="1" stop-color="#D9D9D9"/>
</linearGradient>
<radialGradient id="paint21_radial_205_12601" cx="0" cy="0" r="1" gradientUnits="userSpaceOnUse" gradientTransform="translate(118.048 81.9349) scale(15.6342 15.6342)">
<stop stop-color="white"/>
<stop offset="1"/>
</radialGradient>
<linearGradient id="paint22_linear_205_12601" x1="107.06" y1="64.3207" x2="107.06" y2="81.592" gradientUnits="userSpaceOnUse">
<stop stop-color="#FF6700"/>
<stop offset="1" stop-color="#FF9C58"/>
</linearGradient>
<linearGradient id="paint23_linear_205_12601" x1="118.866" y1="67.3593" x2="118.866" y2="101" gradientUnits="userSpaceOnUse">
<stop stop-color="#FF6700"/>
<stop offset="1" stop-color="#FF9C58"/>
</linearGradient>
<linearGradient id="paint24_linear_205_12601" x1="118.905" y1="64.0266" x2="118.905" y2="86.983" gradientUnits="userSpaceOnUse">
<stop stop-color="#FF6700"/>
<stop offset="1" stop-color="#FF9C58"/>
</linearGradient>
<radialGradient id="paint25_radial_205_12601" cx="0" cy="0" r="1" gradientUnits="userSpaceOnUse" gradientTransform="translate(118.048 81.9348) scale(15.6342 15.6342)">
<stop stop-color="white"/>
<stop offset="1"/>
</radialGradient>
<linearGradient id="paint26_linear_205_12601" x1="90.3815" y1="44.8052" x2="90.3815" y2="81.5822" gradientUnits="userSpaceOnUse">
<stop stop-color="#FAFAFA"/>
<stop offset="1" stop-color="#9F9F9F"/>
</linearGradient>
<linearGradient id="paint27_linear_205_12601" x1="73.6593" y1="44.6678" x2="73.6593" y2="101" gradientUnits="userSpaceOnUse">
<stop stop-color="#F0F0F0"/>
<stop offset="1" stop-color="#CDCDCD"/>
</linearGradient>
<linearGradient id="paint28_linear_205_12601" x1="73.6593" y1="44.6678" x2="73.6593" y2="75.3579" gradientUnits="userSpaceOnUse">
<stop stop-color="white"/>
<stop offset="1" stop-color="#F3F3F3"/>
</linearGradient>
<radialGradient id="paint29_radial_205_12601" cx="0" cy="0" r="1" gradientUnits="userSpaceOnUse" gradientTransform="translate(75.2129 65.8696) scale(21.0057)">
<stop stop-color="white"/>
<stop offset="1"/>
</radialGradient>
<linearGradient id="paint30_linear_205_12601" x1="100.071" y1="39.7666" x2="100.071" y2="92.0603" gradientUnits="userSpaceOnUse">
<stop stop-color="white"/>
<stop offset="1" stop-color="#B5B5B5"/>
</linearGradient>
<linearGradient id="paint31_linear_205_12601" x1="63.8475" y1="30.5039" x2="63.8475" y2="70.3196" gradientUnits="userSpaceOnUse">
<stop stop-color="#E8E8E8"/>
<stop offset="1" stop-color="#CDCDCD"/>
</linearGradient>
<linearGradient id="paint32_linear_205_12601" x1="100.056" y1="19.3774" x2="100.056" y2="70.349" gradientUnits="userSpaceOnUse">
<stop stop-color="white"/>
<stop offset="1" stop-color="#CBCBCB"/>
</linearGradient>
<linearGradient id="paint33_linear_205_12601" x1="125.708" y1="38.4927" x2="125.708" y2="92.1095" gradientUnits="userSpaceOnUse">
<stop stop-color="#E8E8E8"/>
<stop offset="1" stop-color="#C8C8C8"/>
</linearGradient>
<linearGradient id="paint34_linear_205_12601" x1="100.093" y1="41.0209" x2="136.065" y2="-32.1856" gradientUnits="userSpaceOnUse">
<stop stop-color="white"/>
<stop offset="1" stop-color="#D9D9D9"/>
</linearGradient>
<radialGradient id="paint35_radial_205_12601" cx="0" cy="0" r="1" gradientUnits="userSpaceOnUse" gradientTransform="translate(118.048 81.9349) scale(15.6342 15.6342)">
<stop stop-color="white"/>
<stop offset="1"/>
</radialGradient>
<linearGradient id="paint36_linear_205_12601" x1="107.06" y1="64.3207" x2="107.06" y2="81.592" gradientUnits="userSpaceOnUse">
<stop stop-color="#FF6700"/>
<stop offset="1" stop-color="#FF9C58"/>
</linearGradient>
<linearGradient id="paint37_linear_205_12601" x1="118.866" y1="67.3593" x2="118.866" y2="101" gradientUnits="userSpaceOnUse">
<stop stop-color="#FF6700"/>
<stop offset="1" stop-color="#FF9C58"/>
</linearGradient>
<linearGradient id="paint38_linear_205_12601" x1="118.905" y1="64.0266" x2="118.905" y2="86.983" gradientUnits="userSpaceOnUse">
<stop stop-color="#FF6700"/>
<stop offset="1" stop-color="#FF9C58"/>
</linearGradient>
<radialGradient id="paint39_radial_205_12601" cx="0" cy="0" r="1" gradientUnits="userSpaceOnUse" gradientTransform="translate(118.048 81.9348) scale(15.6342 15.6342)">
<stop stop-color="white"/>
<stop offset="1"/>
</radialGradient>
<linearGradient id="paint40_linear_205_12601" x1="90.3815" y1="44.8052" x2="90.3815" y2="81.5822" gradientUnits="userSpaceOnUse">
<stop stop-color="#FAFAFA"/>
<stop offset="1" stop-color="#9F9F9F"/>
</linearGradient>
<linearGradient id="paint41_linear_205_12601" x1="73.6593" y1="44.6678" x2="73.6593" y2="101" gradientUnits="userSpaceOnUse">
<stop stop-color="#F0F0F0"/>
<stop offset="1" stop-color="#CDCDCD"/>
</linearGradient>
<linearGradient id="paint42_linear_205_12601" x1="73.6593" y1="44.6678" x2="73.6593" y2="75.3579" gradientUnits="userSpaceOnUse">
<stop stop-color="white"/>
<stop offset="1" stop-color="#F3F3F3"/>
</linearGradient>
<radialGradient id="paint43_radial_205_12601" cx="0" cy="0" r="1" gradientUnits="userSpaceOnUse" gradientTransform="translate(75.2129 65.8696) scale(21.0057)">
<stop stop-color="white"/>
<stop offset="1"/>
</radialGradient>
<linearGradient id="paint44_linear_205_12601" x1="100.071" y1="39.7666" x2="100.071" y2="92.0603" gradientUnits="userSpaceOnUse">
<stop stop-color="white"/>
<stop offset="1" stop-color="#B5B5B5"/>
</linearGradient>
<linearGradient id="paint45_linear_205_12601" x1="63.8475" y1="30.5039" x2="63.8475" y2="70.3196" gradientUnits="userSpaceOnUse">
<stop stop-color="#E8E8E8"/>
<stop offset="1" stop-color="#CDCDCD"/>
</linearGradient>
<linearGradient id="paint46_linear_205_12601" x1="100.056" y1="19.3774" x2="100.056" y2="70.349" gradientUnits="userSpaceOnUse">
<stop stop-color="white"/>
<stop offset="1" stop-color="#CBCBCB"/>
</linearGradient>
<linearGradient id="paint47_linear_205_12601" x1="125.708" y1="38.4927" x2="125.708" y2="92.1095" gradientUnits="userSpaceOnUse">
<stop stop-color="#E8E8E8"/>
<stop offset="1" stop-color="#C8C8C8"/>
</linearGradient>
<linearGradient id="paint48_linear_205_12601" x1="100.093" y1="41.0209" x2="136.065" y2="-32.1856" gradientUnits="userSpaceOnUse">
<stop stop-color="white"/>
<stop offset="1" stop-color="#D9D9D9"/>
</linearGradient>
<radialGradient id="paint49_radial_205_12601" cx="0" cy="0" r="1" gradientUnits="userSpaceOnUse" gradientTransform="translate(118.048 81.9349) scale(15.6342 15.6342)">
<stop stop-color="white"/>
<stop offset="1"/>
</radialGradient>
<linearGradient id="paint50_linear_205_12601" x1="107.06" y1="64.3207" x2="107.06" y2="81.592" gradientUnits="userSpaceOnUse">
<stop stop-color="#FF6700"/>
<stop offset="1" stop-color="#FF9C58"/>
</linearGradient>
<linearGradient id="paint51_linear_205_12601" x1="118.866" y1="67.3593" x2="118.866" y2="101" gradientUnits="userSpaceOnUse">
<stop stop-color="#FF6700"/>
<stop offset="1" stop-color="#FF9C58"/>
</linearGradient>
<linearGradient id="paint52_linear_205_12601" x1="118.905" y1="64.0266" x2="118.905" y2="86.983" gradientUnits="userSpaceOnUse">
<stop stop-color="#FF6700"/>
<stop offset="1" stop-color="#FF9C58"/>
</linearGradient>
<radialGradient id="paint53_radial_205_12601" cx="0" cy="0" r="1" gradientUnits="userSpaceOnUse" gradientTransform="translate(118.048 81.9348) scale(15.6342 15.6342)">
<stop stop-color="white"/>
<stop offset="1"/>
</radialGradient>
<linearGradient id="paint54_linear_205_12601" x1="90.3815" y1="44.8052" x2="90.3815" y2="81.5822" gradientUnits="userSpaceOnUse">
<stop stop-color="#FAFAFA"/>
<stop offset="1" stop-color="#9F9F9F"/>
</linearGradient>
<linearGradient id="paint55_linear_205_12601" x1="73.6593" y1="44.6678" x2="73.6593" y2="101" gradientUnits="userSpaceOnUse">
<stop stop-color="#F0F0F0"/>
<stop offset="1" stop-color="#CDCDCD"/>
</linearGradient>
<linearGradient id="paint56_linear_205_12601" x1="73.6593" y1="44.6678" x2="73.6593" y2="75.3579" gradientUnits="userSpaceOnUse">
<stop stop-color="white"/>
<stop offset="1" stop-color="#F3F3F3"/>
</linearGradient>
<radialGradient id="paint57_radial_205_12601" cx="0" cy="0" r="1" gradientUnits="userSpaceOnUse" gradientTransform="translate(75.2129 65.8696) scale(21.0057)">
<stop stop-color="white"/>
<stop offset="1"/>
</radialGradient>
</defs>
</svg>
