<svg width="103" height="123" viewBox="0 0 103 123" fill="none" xmlns="http://www.w3.org/2000/svg">
<path d="M102.486 84.2319H41.3599V93.6632C41.3599 103.497 55.0451 111.465 71.9231 111.465C88.8011 111.465 102.486 103.497 102.486 93.6632C102.486 93.5846 102.486 93.4962 102.476 93.4176H102.486V84.2319Z" fill="url(#paint0_linear_1_1350)"/>
<path d="M71.9231 102.151C88.8026 102.151 102.486 94.1813 102.486 84.3498C102.486 74.5183 88.8026 66.5483 71.9231 66.5483C55.0435 66.5483 41.3599 74.5183 41.3599 84.3498C41.3599 94.1813 55.0435 102.151 71.9231 102.151Z" fill="url(#paint1_linear_1_1350)"/>
<path style="mix-blend-mode:color-dodge" d="M71.9231 102.083C55.2219 102.083 41.6645 94.2821 41.3697 84.6052C41.3697 84.7133 41.3599 84.8214 41.3599 84.9196C41.3599 94.7536 55.0451 102.721 71.9231 102.721C88.8011 102.721 102.486 94.7536 102.486 84.9196C102.486 84.8115 102.476 84.7035 102.476 84.6052C102.182 94.2919 88.6242 102.083 71.9231 102.083Z" fill="url(#paint2_radial_1_1350)"/>
<path d="M92.603 87.2969V94.5079C98.252 91.2463 101.071 87.2969 101.042 82.6697V75.4587C101.071 80.0859 98.252 84.0353 92.603 87.2969Z" fill="url(#paint3_linear_1_1350)"/>
<path d="M79.4484 89.6844L72.0115 74.6829L72.0508 85.293L72.0213 86.3835L61.6174 86.3639L42.9809 75.6063V82.5619C43.03 91.8163 56.0667 99.3515 72.1097 99.3809C80.1263 99.3908 86.9639 97.7698 92.6128 94.5081V86.5603L79.4582 89.6844H79.4484Z" fill="url(#paint4_linear_1_1350)"/>
<path d="M72.0116 75.8518L42.981 75.8026C42.9319 66.5482 55.8901 59.0622 71.9232 59.0916C87.9563 59.1211 101.003 66.6465 101.052 75.9107C101.081 80.5379 98.2619 84.4872 92.613 87.7489L72.0214 75.8616L72.0116 75.8518Z" fill="url(#paint5_linear_1_1350)"/>
<path d="M92.603 87.6211L72.0115 75.7338L71.9918 75.7632L42.9711 75.7141C43.0202 84.9685 56.0569 92.5037 72.0999 92.5332V92.5037C80.1164 92.5135 86.9541 90.8925 92.603 87.6309V87.6211Z" fill="url(#paint6_linear_1_1350)"/>
<path d="M102.486 67.5012H41.3599V76.9325C41.3599 86.7665 55.0451 94.7339 71.9231 94.7339C88.8011 94.7339 102.486 86.7665 102.486 76.9325C102.486 76.8539 102.486 76.7655 102.476 76.6869H102.486V67.5012Z" fill="url(#paint7_linear_1_1350)"/>
<path d="M71.9231 85.4304C88.8026 85.4304 102.486 77.4604 102.486 67.6289C102.486 57.7974 88.8026 49.8274 71.9231 49.8274C55.0435 49.8274 41.3599 57.7974 41.3599 67.6289C41.3599 77.4604 55.0435 85.4304 71.9231 85.4304Z" fill="url(#paint8_linear_1_1350)"/>
<path style="mix-blend-mode:color-dodge" d="M71.9231 85.3518C55.2219 85.3518 41.6645 77.5514 41.3697 67.8745C41.3697 67.9826 41.3599 68.0906 41.3599 68.1889C41.3599 78.0229 55.0451 85.9904 71.9231 85.9904C88.8011 85.9904 102.486 78.0229 102.486 68.1889C102.486 68.0808 102.476 67.9728 102.476 67.8745C102.182 77.5612 88.6242 85.3518 71.9231 85.3518Z" fill="url(#paint9_radial_1_1350)"/>
<path d="M51.4199 70.4876V77.6986C45.771 74.4369 42.9515 70.4876 42.9809 65.8604V58.6494C42.9515 63.2766 45.771 67.226 51.4199 70.4876Z" fill="url(#paint10_linear_1_1350)"/>
<path d="M64.5745 72.8749L72.0115 57.8733L71.9231 82.5714C63.9065 82.5812 57.0688 80.9602 51.4199 77.6986V69.7508L64.5745 72.8749Z" fill="url(#paint11_linear_1_1350)"/>
<path d="M71.982 68.4833L72.0115 69.5738L82.4154 69.5541L101.052 58.7966V65.7522C101.003 75.0066 87.966 82.5418 71.9231 82.5712V68.5226L71.982 68.4931V68.4833Z" fill="url(#paint12_linear_1_1350)"/>
<path d="M72.0115 59.0424L101.042 58.9933C101.091 49.7389 88.133 42.2528 72.0999 42.2823C56.0668 42.3118 43.0202 49.8371 42.9711 59.1014C42.9416 63.7286 45.7612 67.6779 51.4101 70.9396L72.0017 59.0523L72.0115 59.0424Z" fill="url(#paint13_linear_1_1350)"/>
<path d="M72.0115 58.9146L51.4199 70.8019C57.0688 74.0635 63.9065 75.6845 71.9231 75.6747L72.0115 58.9146Z" fill="url(#paint14_linear_1_1350)"/>
<path d="M72.0115 58.9442L71.9231 75.7043C87.9562 75.6748 101.003 68.1495 101.052 58.8853L72.0213 58.9344L72.0115 58.9442Z" fill="url(#paint15_linear_1_1350)"/>
<path d="M102.486 51.2422H41.3599V60.6734C41.3599 70.5075 55.0451 78.4749 71.9231 78.4749C88.8011 78.4749 102.486 70.5075 102.486 60.6734C102.486 60.5948 102.486 60.5064 102.476 60.4278H102.486V51.2422Z" fill="url(#paint16_linear_1_1350)"/>
<path d="M71.9231 69.1616C88.8026 69.1616 102.486 61.1916 102.486 51.3601C102.486 41.5286 88.8026 33.5586 71.9231 33.5586C55.0435 33.5586 41.3599 41.5286 41.3599 51.3601C41.3599 61.1916 55.0435 69.1616 71.9231 69.1616Z" fill="url(#paint17_linear_1_1350)"/>
<g style="mix-blend-mode:color-dodge">
<path d="M71.9231 69.0928C55.2219 69.0928 41.6645 61.2923 41.3697 51.6155C41.3697 51.7235 41.3599 51.8316 41.3599 51.9299C41.3599 61.7639 55.0451 69.7313 71.9231 69.7313C88.8011 69.7313 102.486 61.7639 102.486 51.9299C102.486 51.8218 102.476 51.7137 102.476 51.6155C102.182 61.3022 88.6242 69.0928 71.9231 69.0928Z" fill="url(#paint18_linear_1_1350)"/>
</g>
<path d="M92.603 54.2876V61.4986C98.252 58.237 101.071 54.2876 101.042 49.6604V42.4495C101.071 47.0767 98.252 51.026 92.603 54.2876Z" fill="url(#paint19_linear_1_1350)"/>
<path d="M79.4484 56.6749L72.0115 41.6733L72.0999 66.3714C80.1164 66.3812 86.9541 64.7602 92.603 61.4986V53.5508L79.4484 56.6749Z" fill="url(#paint20_linear_1_1350)"/>
<path d="M72.0409 52.2834L72.0115 53.3738L61.6076 53.3542L42.9711 42.5967V49.5522C43.0202 58.8066 56.0569 66.3418 72.0999 66.3713V52.3227L72.0409 52.2932V52.2834Z" fill="url(#paint21_linear_1_1350)"/>
<path d="M72.0116 42.8522L42.981 42.8031C42.9319 33.5487 55.8901 26.0627 71.9232 26.0921C87.9563 26.1216 101.003 33.6469 101.052 42.9112C101.081 47.5384 98.2619 51.4877 92.613 54.7494L72.0214 42.8621L72.0116 42.8522Z" fill="url(#paint22_linear_1_1350)"/>
<path d="M72.0115 42.7246L92.603 54.6119C86.9541 57.8736 80.1164 59.4945 72.0999 59.4847L72.0115 42.7246Z" fill="url(#paint23_linear_1_1350)"/>
<path d="M72.0115 42.754L72.0999 59.5141C56.0667 59.4847 43.0202 51.9593 42.9711 42.6951L72.0016 42.7442L72.0115 42.754Z" fill="url(#paint24_linear_1_1350)"/>
<path style="mix-blend-mode:multiply" d="M71.6774 51.8021C81.9755 51.8021 90.3238 47.7027 90.3238 42.6459C90.3238 37.5891 81.9755 33.4897 71.6774 33.4897C61.3793 33.4897 53.0311 37.5891 53.0311 42.6459C53.0311 47.7027 61.3793 51.8021 71.6774 51.8021Z" fill="url(#paint25_radial_1_1350)"/>
<path d="M102.486 18.1738H41.3599V27.6051C41.3599 37.4391 55.0451 45.4066 71.9231 45.4066C88.8011 45.4066 102.486 37.4391 102.486 27.6051C102.486 27.5265 102.486 27.4381 102.476 27.3595H102.486V18.1738Z" fill="url(#paint26_linear_1_1350)"/>
<path d="M71.9231 36.103C88.8026 36.103 102.486 28.133 102.486 18.3015C102.486 8.47 88.8026 0.5 71.9231 0.5C55.0435 0.5 41.3599 8.47 41.3599 18.3015C41.3599 28.133 55.0435 36.103 71.9231 36.103Z" fill="url(#paint27_linear_1_1350)"/>
<g style="mix-blend-mode:color-dodge">
<path d="M71.9231 36.0244C55.2219 36.0244 41.6645 28.224 41.3697 18.5471C41.3697 18.6552 41.3599 18.7633 41.3599 18.8615C41.3599 28.6955 55.0451 36.663 71.9231 36.663C88.8011 36.663 102.486 28.6955 102.486 18.8615C102.486 18.7534 102.476 18.6454 102.476 18.5471C102.182 28.2338 88.6242 36.0244 71.9231 36.0244Z" fill="url(#paint28_linear_1_1350)"/>
</g>
<path d="M84.1542 16.1011H59.6919V20.9542C59.6919 24.8839 65.164 28.0768 71.923 28.0768C78.6821 28.0768 84.1542 24.8839 84.1542 20.9542C84.1542 20.9248 84.1542 20.8855 84.1542 20.856V16.1011Z" fill="url(#paint29_linear_1_1350)"/>
<path d="M71.923 23.2727C78.6781 23.2727 84.1542 20.0838 84.1542 16.1501C84.1542 12.2165 78.6781 9.02759 71.923 9.02759C65.168 9.02759 59.6919 12.2165 59.6919 16.1501C59.6919 20.0838 65.168 23.2727 71.923 23.2727Z" fill="url(#paint30_linear_1_1350)"/>
<path d="M71.923 20.6594C76.1714 20.6594 79.6154 18.6537 79.6154 16.1796C79.6154 13.7054 76.1714 11.6997 71.923 11.6997C67.6746 11.6997 64.2307 13.7054 64.2307 16.1796C64.2307 18.6537 67.6746 20.6594 71.923 20.6594Z" fill="url(#paint31_linear_1_1350)"/>
<path d="M71.923 15.9438C74.8506 15.9438 77.4049 16.8967 78.7017 18.3016C79.2912 17.6728 79.6154 16.9458 79.6154 16.1795C79.6154 13.7038 76.1671 11.6997 71.923 11.6997C67.6789 11.6997 64.2307 13.7038 64.2307 16.1795C64.2307 16.9458 64.5647 17.6728 65.1443 18.3016C66.4411 16.8967 68.9954 15.9438 71.923 15.9438Z" fill="url(#paint32_linear_1_1350)"/>
<g style="mix-blend-mode:color-dodge">
<path d="M71.923 23.2431C65.2426 23.2431 59.8196 20.119 59.7017 16.2483C59.7017 16.2876 59.7017 16.3367 59.7017 16.376C59.7017 20.3057 65.1738 23.4986 71.9329 23.4986C78.6919 23.4986 84.164 20.3057 84.164 16.376C84.164 16.3367 84.164 16.2876 84.164 16.2483C84.0461 20.119 78.6232 23.2431 71.9427 23.2431H71.923Z" fill="url(#paint33_linear_1_1350)"/>
</g>
<path d="M43.5115 80.8524C36.5854 76.9326 29.8165 70.2521 24.1381 61.7345L24.0595 61.6854C18.3811 63.6502 11.6122 62.5106 4.68615 58.4336L4.4209 58.2764L4.79422 71.2149C6.11066 91.2759 12.9483 99.9998 23.9613 118.646L24.2265 118.803C35.2395 112.87 42.0771 112.034 43.3936 93.4962L43.7669 80.99L43.5016 80.8426L43.5115 80.8524Z" fill="url(#paint34_linear_1_1350)"/>
<path d="M45.8398 78.8383C38.9137 74.9184 32.1449 68.2379 26.4665 59.7203L26.3879 59.6712C20.7095 61.6361 13.9406 60.4964 7.01451 56.4194L6.74926 56.2622L4.49951 58.3253L4.68617 58.4334C11.6122 62.5104 18.3811 63.65 24.0595 61.6852L24.1381 61.7343C29.8165 70.2519 36.5854 76.9324 43.5115 80.8522L43.7767 80.9996L43.4034 93.5058C42.5487 105.609 39.3362 110.158 34.1392 113.518C40.6232 109.686 44.7592 105.089 45.7318 91.4919L46.1051 78.9856L45.8398 78.8383Z" fill="url(#paint35_linear_1_1350)"/>
<path d="M46.105 78.9856L45.8398 78.8382C38.9137 74.9183 32.1448 68.2379 26.4664 59.7203L26.3878 59.6711L24.0595 61.6851L24.1381 61.7342C29.8165 70.2518 36.5854 76.9323 43.5115 80.8522L43.7767 80.9995L46.105 78.9856Z" fill="url(#paint36_linear_1_1350)"/>
<path d="M43.7767 81.0096L43.4034 93.5158C42.5487 105.619 39.3362 110.168 34.1392 113.528C40.6231 109.696 44.7591 105.099 45.7317 91.5018L46.1051 78.9956L43.7767 81.0096Z" fill="url(#paint37_linear_1_1350)"/>
<path d="M42.7943 81.3533C36.0254 77.5218 29.4039 70.9887 23.8532 62.6578L23.7746 62.6185C18.2239 64.5342 11.6024 63.4241 4.8335 59.4453L4.57807 59.2881L2.37744 61.302L2.5641 61.4101C9.33299 65.3987 15.9545 66.5089 21.5052 64.5833L21.5838 64.6226C27.1345 72.9437 33.756 79.4867 40.5249 83.3181L40.7803 83.4655L40.4168 95.6966C39.5817 107.525 36.438 111.985 31.3589 115.266C37.6955 111.523 41.7431 107.024 42.6862 93.7318L43.0497 81.5006L42.7943 81.3533Z" fill="url(#paint38_linear_1_1350)"/>
<path d="M43.0595 81.5008L42.8041 81.3534C36.0352 77.522 29.4137 70.9889 23.863 62.658L23.7844 62.6187L21.5052 64.5933L21.5838 64.6326C27.1345 72.9537 33.756 79.4967 40.5249 83.3281L40.7803 83.4755L43.0595 81.5008Z" fill="url(#paint39_linear_1_1350)"/>
<path d="M40.7803 83.4753L40.4168 95.7065C39.5818 107.535 36.438 111.995 31.3589 115.276C37.6955 111.533 41.7431 107.034 42.6862 93.7417L43.0497 81.5105L40.7705 83.4852L40.7803 83.4753Z" fill="url(#paint40_linear_1_1350)"/>
<g style="mix-blend-mode:color-dodge">
<path d="M43.7865 80.6656C36.8605 76.7458 30.0916 70.0653 24.4132 61.5477L24.3346 61.4986C18.6562 63.4634 11.8873 62.3238 4.96124 58.2468L4.69598 58.0896L4.71563 58.738C11.5729 62.7266 18.2829 63.8368 23.9023 61.8817L23.9809 61.9309C29.6593 70.4485 36.4282 77.1289 43.3543 81.0488L43.6195 81.1962L43.2462 93.7024C42.5585 103.35 40.3775 108.193 36.8998 111.465C40.633 108.193 42.9711 103.35 43.6785 93.3094L44.0518 80.8032L43.7865 80.6558V80.6656Z" fill="url(#paint41_linear_1_1350)"/>
</g>
<path d="M39.0906 84.8705C32.1645 80.9506 25.3956 74.2702 19.7172 65.7526L19.6386 65.7034C13.9602 67.6683 7.19133 66.5287 0.265254 62.4516L0 62.2944L0.37332 75.2329C1.68977 95.294 8.52742 104.018 19.5404 122.664L19.8056 122.821C30.8186 116.888 37.6562 116.053 38.9727 97.5142L39.346 85.008L39.0807 84.8607L39.0906 84.8705Z" fill="url(#paint42_linear_1_1350)"/>
<path d="M41.4189 82.8563C34.4928 78.9365 27.724 72.256 22.0456 63.7384L21.967 63.6893C16.2886 65.6541 9.51969 64.5145 2.59362 60.4375L2.32836 60.2803L0.0884399 62.3532L0.2751 62.4613C7.20117 66.5383 13.9701 67.6779 19.6485 65.7131L19.727 65.7622C25.4054 74.2798 32.1743 80.9603 39.1004 84.8801L39.3657 85.0275L38.9923 97.5337C38.1376 109.637 34.9251 114.186 29.7281 117.546C36.2121 113.714 40.3481 109.116 41.3207 95.5197L41.694 83.0135L41.4287 82.8661L41.4189 82.8563Z" fill="url(#paint43_linear_1_1350)"/>
<path d="M41.6842 83.0039L41.4189 82.8565C34.4928 78.9366 27.7239 72.2562 22.0455 63.7386L21.967 63.6895L19.6386 65.7034L19.7172 65.7525C25.3956 74.2701 32.1645 80.9506 39.0906 84.8705L39.3558 85.0178L41.6842 83.0039Z" fill="url(#paint44_linear_1_1350)"/>
<path d="M39.3558 85.0179L38.9825 97.5241C38.1278 109.628 34.9153 114.176 29.7183 117.536C36.2022 113.705 40.3382 109.107 41.3108 95.5101L41.6842 83.0039L39.3558 85.0179Z" fill="url(#paint45_linear_1_1350)"/>
<path d="M18.3123 114.186C9.76528 100.009 5.46227 92.8771 4.43073 77.3155L4.19495 69.1516C9.68668 71.6371 14.9426 72.4231 19.6877 71.48C24.423 77.8952 29.6888 83.1806 35.1707 87.0317L34.9349 94.9304C33.8935 109.293 29.6004 111.465 21.0533 115.768C20.6014 115.993 20.1495 116.219 19.6877 116.455C19.226 115.679 18.7643 114.923 18.3222 114.186H18.3123Z" fill="url(#paint46_linear_1_1350)"/>
<path d="M19.6877 71.48C24.423 77.8953 29.6888 83.1807 35.1707 87.0318L34.9349 94.9304C33.8936 109.293 29.6004 111.465 21.0533 115.768C20.6014 115.994 20.1495 116.22 19.6877 116.455V71.4702V71.48Z" fill="url(#paint47_linear_1_1350)"/>
<g style="mix-blend-mode:color-dodge">
<path d="M39.3656 84.6739C32.4396 80.7541 25.6707 74.0736 19.9923 65.556L19.9137 65.5069C14.2353 67.4717 7.46641 66.3321 0.540339 62.2551L0.275085 62.0979L0.294734 62.7463C7.15204 66.7349 13.862 67.8451 19.4814 65.89L19.56 65.9392C25.2384 74.4568 32.0073 81.1372 38.9334 85.0571L39.1986 85.2045L38.8253 97.7107C38.1376 107.358 35.9566 112.201 32.4789 115.473C36.2121 112.201 38.5502 107.358 39.2576 97.3177L39.6309 84.8115L39.3656 84.6641V84.6739Z" fill="url(#paint48_linear_1_1350)"/>
</g>
<path d="M19.6877 71.48C14.9525 72.4231 9.68668 71.6371 4.19495 69.1516V69.6526C9.56879 72.0006 14.697 72.7571 19.3341 71.8336C24.0693 78.2488 29.3351 83.5343 34.817 87.3854L34.5812 95.284C34.0016 103.31 32.4003 107.525 29.62 110.443C32.6262 107.515 34.3356 103.291 34.9349 94.9402L35.1707 87.0415C29.679 83.1904 24.423 77.905 19.6877 71.4898V71.48Z" fill="white"/>
<defs>
<linearGradient id="paint0_linear_1_1350" x1="71.9231" y1="84.2319" x2="71.9231" y2="111.465" gradientUnits="userSpaceOnUse">
<stop stop-color="#EBEBEB"/>
<stop offset="1" stop-color="#C9C9C9"/>
</linearGradient>
<linearGradient id="paint1_linear_1_1350" x1="71.9231" y1="66.5483" x2="71.9231" y2="102.151" gradientUnits="userSpaceOnUse">
<stop stop-color="#EBEBEB"/>
<stop offset="1" stop-color="#C9C9C9"/>
</linearGradient>
<radialGradient id="paint2_radial_1_1350" cx="0" cy="0" r="1" gradientUnits="userSpaceOnUse" gradientTransform="translate(62.1185 99.6952) scale(22.5368 22.5368)">
<stop stop-color="white"/>
<stop offset="1"/>
</radialGradient>
<linearGradient id="paint3_linear_1_1350" x1="97.4327" y1="83.2883" x2="96.6489" y2="94.4957" gradientUnits="userSpaceOnUse">
<stop stop-color="#FF8A3A"/>
<stop offset="1" stop-color="#FF6700"/>
</linearGradient>
<linearGradient id="paint4_linear_1_1350" x1="67.7969" y1="74.6829" x2="72.0558" y2="96.903" gradientUnits="userSpaceOnUse">
<stop stop-color="#DFDFDF"/>
<stop offset="1" stop-color="#969696"/>
</linearGradient>
<linearGradient id="paint5_linear_1_1350" x1="95.796" y1="46.3988" x2="72.7779" y2="74.9577" gradientUnits="userSpaceOnUse">
<stop offset="0.1" stop-color="#45108A"/>
<stop offset="1" stop-color="#7C1DC9"/>
</linearGradient>
<linearGradient id="paint6_linear_1_1350" x1="89.4101" y1="54.2973" x2="58.4246" y2="93.5058" gradientUnits="userSpaceOnUse">
<stop offset="0.04" stop-color="#138BBD"/>
<stop offset="0.23" stop-color="#169AC6"/>
<stop offset="0.59" stop-color="#1EC2DF"/>
<stop offset="1" stop-color="#2AF6FF"/>
</linearGradient>
<linearGradient id="paint7_linear_1_1350" x1="71.9231" y1="67.5012" x2="71.9231" y2="94.7339" gradientUnits="userSpaceOnUse">
<stop stop-color="#EBEBEB"/>
<stop offset="1" stop-color="#C9C9C9"/>
</linearGradient>
<linearGradient id="paint8_linear_1_1350" x1="71.9231" y1="49.8274" x2="71.9231" y2="85.4304" gradientUnits="userSpaceOnUse">
<stop stop-color="#EBEBEB"/>
<stop offset="1" stop-color="#C9C9C9"/>
</linearGradient>
<radialGradient id="paint9_radial_1_1350" cx="0" cy="0" r="1" gradientUnits="userSpaceOnUse" gradientTransform="translate(0.501008 82.9645) scale(22.5368 22.5367)">
<stop stop-color="white"/>
<stop offset="1"/>
</radialGradient>
<linearGradient id="paint10_linear_1_1350" x1="49.6221" y1="58.4628" x2="34.3946" y2="73.1991" gradientUnits="userSpaceOnUse">
<stop stop-color="#CDCDCD"/>
<stop offset="1" stop-color="#C9C9C9"/>
</linearGradient>
<linearGradient id="paint11_linear_1_1350" x1="61.7157" y1="57.8733" x2="61.7157" y2="82.5714" gradientUnits="userSpaceOnUse">
<stop stop-color="#EBEBEB"/>
<stop offset="1" stop-color="#C9C9C9"/>
</linearGradient>
<linearGradient id="paint12_linear_1_1350" x1="101.14" y1="70.6839" x2="42.9908" y2="70.6839" gradientUnits="userSpaceOnUse">
<stop offset="0.04" stop-color="#F7AA90"/>
<stop offset="0.23" stop-color="#F9B996"/>
<stop offset="0.61" stop-color="#FEE1A6"/>
<stop offset="0.63" stop-color="#FFE4A7"/>
<stop offset="0.87" stop-color="#F7AA90"/>
</linearGradient>
<linearGradient id="paint13_linear_1_1350" x1="48.2271" y1="29.5894" x2="71.2452" y2="58.1484" gradientUnits="userSpaceOnUse">
<stop offset="0.1" stop-color="#45108A"/>
<stop offset="1" stop-color="#7C1DC9"/>
</linearGradient>
<linearGradient id="paint14_linear_1_1350" x1="50.1329" y1="48.776" x2="69.8305" y2="76.1364" gradientUnits="userSpaceOnUse">
<stop offset="0.04" stop-color="#9F19AB"/>
<stop offset="0.24" stop-color="#AE24B0"/>
<stop offset="0.65" stop-color="#D643BF"/>
<stop offset="1" stop-color="#FF63CE"/>
</linearGradient>
<linearGradient id="paint15_linear_1_1350" x1="63.8967" y1="38.7161" x2="90.707" y2="72.6392" gradientUnits="userSpaceOnUse">
<stop offset="0.04" stop-color="#138BBD"/>
<stop offset="0.23" stop-color="#169AC6"/>
<stop offset="0.59" stop-color="#1EC2DF"/>
<stop offset="1" stop-color="#2AF6FF"/>
</linearGradient>
<linearGradient id="paint16_linear_1_1350" x1="71.9231" y1="51.2422" x2="71.9231" y2="78.4749" gradientUnits="userSpaceOnUse">
<stop stop-color="#EBEBEB"/>
<stop offset="1" stop-color="#C9C9C9"/>
</linearGradient>
<linearGradient id="paint17_linear_1_1350" x1="71.9231" y1="33.5586" x2="71.9231" y2="69.1616" gradientUnits="userSpaceOnUse">
<stop stop-color="#EBEBEB"/>
<stop offset="1" stop-color="#C9C9C9"/>
</linearGradient>
<linearGradient id="paint18_linear_1_1350" x1="71.9231" y1="51.6155" x2="71.9231" y2="69.7313" gradientUnits="userSpaceOnUse">
<stop stop-color="#EBEBEB"/>
<stop offset="1" stop-color="#C9C9C9"/>
</linearGradient>
<linearGradient id="paint19_linear_1_1350" x1="96.8226" y1="42.4495" x2="105.62" y2="52.5683" gradientUnits="userSpaceOnUse">
<stop stop-color="#DFDFDF"/>
<stop offset="1" stop-color="#969696"/>
</linearGradient>
<linearGradient id="paint20_linear_1_1350" x1="43.0693" y1="54.0224" x2="100.079" y2="54.0224" gradientUnits="userSpaceOnUse">
<stop offset="0.04" stop-color="#FF6700"/>
<stop offset="0.16" stop-color="#FF8E42"/>
<stop offset="0.41" stop-color="#CD6A26"/>
<stop offset="0.63" stop-color="#FF9853"/>
<stop offset="0.87" stop-color="#FF8533"/>
</linearGradient>
<linearGradient id="paint21_linear_1_1350" x1="57.5355" y1="42.5967" x2="57.5355" y2="66.3713" gradientUnits="userSpaceOnUse">
<stop stop-color="#EBEBEB"/>
<stop offset="1" stop-color="#C9C9C9"/>
</linearGradient>
<linearGradient id="paint22_linear_1_1350" x1="95.796" y1="13.3894" x2="72.7779" y2="41.9582" gradientUnits="userSpaceOnUse">
<stop offset="0.04" stop-color="#E6E6E6"/>
<stop offset="0.23" stop-color="#9F9F9F"/>
<stop offset="0.59" stop-color="#919191"/>
<stop offset="1" stop-color="#AEAEAE"/>
</linearGradient>
<linearGradient id="paint23_linear_1_1350" x1="93.89" y1="32.5762" x2="74.2023" y2="59.9366" gradientUnits="userSpaceOnUse">
<stop offset="0.04" stop-color="#E65D00"/>
<stop offset="0.24" stop-color="#FFAC74"/>
<stop offset="0.65" stop-color="#FF9C59"/>
<stop offset="1" stop-color="#FF8634"/>
</linearGradient>
<linearGradient id="paint24_linear_1_1350" x1="57.5355" y1="42.6951" x2="57.5355" y2="59.5141" gradientUnits="userSpaceOnUse">
<stop stop-color="#EBEBEB"/>
<stop offset="1" stop-color="#C9C9C9"/>
</linearGradient>
<radialGradient id="paint25_radial_1_1350" cx="0" cy="0" r="1" gradientUnits="userSpaceOnUse" gradientTransform="translate(70.9383 42.2993) scale(18.6293 9.15676)">
<stop offset="0.19" stop-color="#5F5C5D"/>
<stop offset="1" stop-color="white"/>
</radialGradient>
<linearGradient id="paint26_linear_1_1350" x1="71.9231" y1="18.1738" x2="71.9231" y2="45.4066" gradientUnits="userSpaceOnUse">
<stop stop-color="#EBEBEB"/>
<stop offset="1" stop-color="#C9C9C9"/>
</linearGradient>
<linearGradient id="paint27_linear_1_1350" x1="71.9231" y1="0.5" x2="71.9231" y2="36.103" gradientUnits="userSpaceOnUse">
<stop stop-color="#EBEBEB"/>
<stop offset="1" stop-color="#C9C9C9"/>
</linearGradient>
<linearGradient id="paint28_linear_1_1350" x1="71.9231" y1="18.5471" x2="71.9231" y2="36.663" gradientUnits="userSpaceOnUse">
<stop stop-color="#EBEBEB"/>
<stop offset="1" stop-color="#C9C9C9"/>
</linearGradient>
<linearGradient id="paint29_linear_1_1350" x1="71.923" y1="16.1011" x2="71.923" y2="28.0768" gradientUnits="userSpaceOnUse">
<stop stop-color="#EBEBEB"/>
<stop offset="1" stop-color="#C9C9C9"/>
</linearGradient>
<linearGradient id="paint30_linear_1_1350" x1="71.923" y1="9.02759" x2="71.923" y2="23.2727" gradientUnits="userSpaceOnUse">
<stop stop-color="#EBEBEB"/>
<stop offset="1" stop-color="#C9C9C9"/>
</linearGradient>
<linearGradient id="paint31_linear_1_1350" x1="71.923" y1="11.6997" x2="71.923" y2="20.6594" gradientUnits="userSpaceOnUse">
<stop stop-color="#ACACAC"/>
<stop offset="1" stop-color="#767676"/>
</linearGradient>
<linearGradient id="paint32_linear_1_1350" x1="71.923" y1="11.6997" x2="71.923" y2="18.3016" gradientUnits="userSpaceOnUse">
<stop stop-color="#ACACAC"/>
<stop offset="1" stop-color="#767676"/>
</linearGradient>
<linearGradient id="paint33_linear_1_1350" x1="71.9329" y1="16.2483" x2="71.9329" y2="23.4986" gradientUnits="userSpaceOnUse">
<stop stop-color="#EBEBEB"/>
<stop offset="1" stop-color="#C9C9C9"/>
</linearGradient>
<linearGradient id="paint34_linear_1_1350" x1="24.0939" y1="58.2764" x2="24.0939" y2="118.803" gradientUnits="userSpaceOnUse">
<stop stop-color="#E3E3E3"/>
<stop offset="0.576596" stop-color="#DBDBDB"/>
<stop offset="1" stop-color="#D5D5D5"/>
</linearGradient>
<linearGradient id="paint35_linear_1_1350" x1="25.3023" y1="56.2622" x2="25.3023" y2="113.518" gradientUnits="userSpaceOnUse">
<stop stop-color="#E3E3E3"/>
<stop offset="0.576596" stop-color="#DBDBDB"/>
<stop offset="1" stop-color="#D5D5D5"/>
</linearGradient>
<linearGradient id="paint36_linear_1_1350" x1="35.0823" y1="59.6711" x2="35.0823" y2="80.9995" gradientUnits="userSpaceOnUse">
<stop stop-color="#E3E3E3"/>
<stop offset="0.576596" stop-color="#DBDBDB"/>
<stop offset="1" stop-color="#D5D5D5"/>
</linearGradient>
<linearGradient id="paint37_linear_1_1350" x1="40.1221" y1="78.9956" x2="40.1221" y2="113.528" gradientUnits="userSpaceOnUse">
<stop stop-color="#E3E3E3"/>
<stop offset="0.576596" stop-color="#DBDBDB"/>
<stop offset="1" stop-color="#D5D5D5"/>
</linearGradient>
<linearGradient id="paint38_linear_1_1350" x1="22.7136" y1="59.2881" x2="22.7136" y2="115.266" gradientUnits="userSpaceOnUse">
<stop stop-color="#E3E3E3"/>
<stop offset="0.576596" stop-color="#DBDBDB"/>
<stop offset="1" stop-color="#D5D5D5"/>
</linearGradient>
<linearGradient id="paint39_linear_1_1350" x1="32.2824" y1="62.6187" x2="32.2824" y2="83.4755" gradientUnits="userSpaceOnUse">
<stop stop-color="#E3E3E3"/>
<stop offset="0.576596" stop-color="#DBDBDB"/>
<stop offset="1" stop-color="#D5D5D5"/>
</linearGradient>
<linearGradient id="paint40_linear_1_1350" x1="37.2043" y1="81.5105" x2="37.2043" y2="115.276" gradientUnits="userSpaceOnUse">
<stop stop-color="#E3E3E3"/>
<stop offset="0.576596" stop-color="#DBDBDB"/>
<stop offset="1" stop-color="#D5D5D5"/>
</linearGradient>
<linearGradient id="paint41_linear_1_1350" x1="24.3739" y1="58.0896" x2="24.3739" y2="111.465" gradientUnits="userSpaceOnUse">
<stop stop-color="#E3E3E3"/>
<stop offset="0.576596" stop-color="#DBDBDB"/>
<stop offset="1" stop-color="#D5D5D5"/>
</linearGradient>
<linearGradient id="paint42_linear_1_1350" x1="19.673" y1="62.2944" x2="19.673" y2="122.821" gradientUnits="userSpaceOnUse">
<stop stop-color="#E3E3E3"/>
<stop offset="0.576596" stop-color="#DBDBDB"/>
<stop offset="1" stop-color="#D5D5D5"/>
</linearGradient>
<linearGradient id="paint43_linear_1_1350" x1="20.8912" y1="60.2803" x2="20.8912" y2="117.546" gradientUnits="userSpaceOnUse">
<stop stop-color="#E3E3E3"/>
<stop offset="0.576596" stop-color="#DBDBDB"/>
<stop offset="1" stop-color="#D5D5D5"/>
</linearGradient>
<linearGradient id="paint44_linear_1_1350" x1="30.6614" y1="63.6895" x2="30.6614" y2="85.0178" gradientUnits="userSpaceOnUse">
<stop stop-color="#E3E3E3"/>
<stop offset="0.576596" stop-color="#DBDBDB"/>
<stop offset="1" stop-color="#D5D5D5"/>
</linearGradient>
<linearGradient id="paint45_linear_1_1350" x1="35.7012" y1="83.0039" x2="35.7012" y2="117.536" gradientUnits="userSpaceOnUse">
<stop stop-color="#E3E3E3"/>
<stop offset="0.576596" stop-color="#DBDBDB"/>
<stop offset="1" stop-color="#D5D5D5"/>
</linearGradient>
<linearGradient id="paint46_linear_1_1350" x1="19.6828" y1="69.1516" x2="19.6828" y2="116.455" gradientUnits="userSpaceOnUse">
<stop stop-color="#FF7110"/>
<stop offset="1" stop-color="#FFA466"/>
</linearGradient>
<linearGradient id="paint47_linear_1_1350" x1="27.4292" y1="71.4702" x2="27.4292" y2="116.455" gradientUnits="userSpaceOnUse">
<stop stop-color="#FF7110"/>
<stop offset="1" stop-color="#FFA466"/>
</linearGradient>
<linearGradient id="paint48_linear_1_1350" x1="19.953" y1="62.0979" x2="19.953" y2="115.473" gradientUnits="userSpaceOnUse">
<stop stop-color="#E3E3E3"/>
<stop offset="0.576596" stop-color="#DBDBDB"/>
<stop offset="1" stop-color="#D5D5D5"/>
</linearGradient>
</defs>
</svg>
