<svg width="200" height="179" viewBox="0 0 200 179" fill="none" xmlns="http://www.w3.org/2000/svg">
<path d="M199.258 109.605H192.734L108.732 61.1065C102.887 57.7288 95.685 57.746 89.8493 61.1322L6.43084 109.605H0.00213623V118.767V118.776C0.0107308 121.939 1.58353 125.101 4.71194 126.906L90.5369 176.454C96.3812 179.831 103.583 179.814 109.419 176.428L194.574 126.941C197.711 125.119 199.266 121.947 199.258 118.776V109.597V109.605Z" fill="url(#paint0_linear_292_4054)"/>
<path d="M194.548 101.475L108.723 51.919C102.879 48.5413 95.6765 48.5585 89.8408 51.9448L4.68618 101.432C-1.57064 105.068 -1.56205 114.109 4.71196 117.727L90.5369 167.275C96.3812 170.652 103.583 170.635 109.419 167.249L194.574 117.762C200.831 114.126 200.822 105.085 194.548 101.466V101.475Z" fill="url(#paint1_linear_292_4054)"/>
<g clip-path="url(#clip0_292_4054)">
<path d="M99.0417 6.20587C87.3519 -0.588171 76.6879 -1.60848 68.6958 2.19666L62.2664 5.86977V5.90578C70.2465 2.17266 80.8509 3.22897 92.4811 9.987C117.304 24.4153 137.427 59.3458 137.427 88.0104C137.427 101.923 132.68 111.802 124.962 116.639L129.28 114.106C138.322 109.869 144.012 99.4738 144.012 84.2413C144.012 55.5767 123.889 20.6462 99.0656 6.21787L99.0417 6.20587Z" fill="url(#paint2_linear_292_4054)"/>
<path d="M92.4692 9.987C67.6461 -4.44133 47.5229 7.10613 47.5229 35.7707C47.5229 64.4353 67.6461 99.3658 92.4692 113.794C117.292 128.222 137.416 116.675 137.416 88.0104C137.416 59.3458 117.292 24.4033 92.4692 9.987Z" fill="url(#paint3_linear_292_4054)"/>
<path d="M93.1372 9.60287C80.5527 2.29268 69.173 1.65649 61.0139 6.54196C69.1252 2.07662 80.2306 2.86885 92.4811 9.98699C117.304 24.4153 137.427 59.3338 137.427 88.0104C137.427 102.139 132.537 112.102 124.604 116.855C132.93 112.27 138.095 102.151 138.095 87.6263C138.095 58.9617 117.972 24.0312 93.1491 9.60287H93.1372Z" fill="white"/>
<path d="M124.451 116.942C141.894 106.681 141.714 73.7123 124.05 43.3049C106.385 12.8975 77.925 -3.43421 60.4818 6.8271C43.0387 17.0884 43.2181 50.057 60.8825 80.4644C78.547 110.872 107.007 127.204 124.451 116.942Z" fill="#FFAC74"/>
<path d="M122.717 113.958C139.216 104.252 139.047 73.0697 122.34 44.3105C105.633 15.5513 78.7147 0.105651 62.2156 9.81158C45.7165 19.5175 45.885 50.6996 62.592 79.4588C79.2989 108.218 106.218 123.664 122.717 113.958Z" fill="white"/>
<path d="M118.358 106.467C132.48 98.1596 132.336 71.4703 118.036 46.8547C103.736 22.2392 80.6958 9.01884 66.5741 17.3263C52.4523 25.6337 52.5967 52.323 66.8965 76.9386C81.1963 101.554 104.237 114.774 118.358 106.467Z" fill="url(#paint4_linear_292_4054)"/>
<path d="M113.452 98.0214C124.895 91.2898 124.776 69.6592 113.186 49.708C101.595 29.7569 82.9234 19.0403 71.4804 25.7719C60.0374 32.5035 60.1567 54.1341 71.7468 74.0853C83.3369 94.0364 102.009 104.753 113.452 98.0214Z" fill="white"/>
<path d="M108.817 90.042C117.734 84.7959 117.643 67.942 108.613 52.3978C99.5833 36.8535 85.0336 28.5052 76.1158 33.7513C67.198 38.9974 67.289 55.8513 76.3191 71.3955C85.3492 86.9398 99.8988 95.2881 108.817 90.042Z" fill="url(#paint5_linear_292_4054)"/>
<path d="M104.458 82.5394C110.999 78.6918 110.932 66.3307 104.309 54.93C97.6858 43.5294 87.0148 37.4064 80.4743 41.254C73.9338 45.1015 74.0007 57.4627 80.6236 68.8633C87.2465 80.264 97.9176 86.3869 104.458 82.5394Z" fill="white"/>
<path d="M93.1253 110.565C69.6501 96.9291 50.6123 63.8832 50.6123 36.767C50.6123 23.8272 54.9543 14.5724 62.0398 9.91498C54.5606 14.4163 49.9563 23.8392 49.9563 37.1752C49.9563 64.2913 68.994 97.3252 92.4692 110.973C104.744 118.103 115.789 118.524 123.555 113.422C115.837 118.079 105.054 117.491 93.1253 110.553V110.565Z" fill="#D9D9D9"/>
<path d="M93.1252 95.5247C76.831 86.0658 63.6381 63.1389 63.6381 44.3293C63.6381 35.3146 66.6799 28.8927 71.6302 25.6757C66.2863 28.7366 62.9821 35.3386 62.9821 44.7374C62.9821 63.5471 76.1869 86.4619 92.4692 95.9328C100.95 100.866 108.596 101.154 113.976 97.6613C108.644 100.722 101.272 100.242 93.1252 95.5127V95.5247Z" fill="#CED3F4"/>
<path d="M93.1253 80.9283C83.8211 75.5146 76.2704 62.4187 76.2704 51.6755C76.2704 46.67 77.9165 43.0449 80.6004 41.1723C77.5229 42.9129 75.6143 46.694 75.6143 52.0956C75.6143 62.8389 83.165 75.9348 92.4692 81.3484C97.4433 84.2293 101.905 84.3493 104.982 82.1887C101.94 83.9052 97.7416 83.6291 93.1253 80.9403V80.9283Z" fill="#CED3F4"/>
<path d="M101.845 67.3402C101.845 73.318 97.6461 75.7307 92.4692 72.7178C87.2923 69.7049 83.0934 62.4187 83.0934 56.4409C83.0934 50.4631 87.2923 48.0504 92.4692 51.0633C97.6461 54.0762 101.845 61.3624 101.845 67.3402Z" fill="url(#paint6_linear_292_4054)"/>
<path opacity="0.5" d="M93.4712 62.1066C93.4712 62.5748 93.1372 62.7668 92.7316 62.5268C92.326 62.2867 91.992 61.7105 91.992 61.2424C91.992 60.7742 92.326 60.5822 92.7316 60.8222C93.1372 61.0623 93.4712 61.6385 93.4712 62.1066Z" fill="url(#paint7_linear_292_4054)"/>
<path d="M92.4692 51.0513C90.1312 49.6949 87.9841 49.4428 86.338 50.127C87.8886 49.7309 89.7853 50.067 91.837 51.2674C97.0139 54.2803 101.213 61.5665 101.213 67.5443C101.213 70.8212 99.9483 73.0179 97.9562 73.8462C100.306 73.246 101.833 70.9413 101.833 67.3282C101.833 61.3504 97.6342 54.0642 92.4572 51.0513H92.4692Z" fill="#A74300"/>
<path d="M25.0736 101.43L20.159 100.758C17.4751 100.398 17.2247 96.581 19.837 95.8608L47.3916 88.2865L25.0736 101.43Z" fill="url(#paint8_linear_292_4054)"/>
<path d="M25.2644 100.95L20.3499 100.278C18.6441 100.05 17.9284 98.4295 18.2863 97.0971C17.5706 98.4896 18.2386 100.506 20.159 100.77L25.0736 101.442L47.3916 88.2985L46.2107 88.6226L25.2763 100.962L25.2644 100.95Z" fill="url(#paint9_linear_292_4054)"/>
<g style="mix-blend-mode:screen" opacity="0.7">
<path d="M20.2783 100.422L25.1928 101.094L46.5209 88.5266L46.2107 88.6106L25.2763 100.95L20.3618 100.278C18.656 100.05 17.9403 98.4295 18.2982 97.0971C18.2743 97.1571 18.2505 97.2172 18.2266 97.2652C17.8807 98.5976 18.5964 100.182 20.2902 100.422H20.2783Z" fill="url(#paint10_linear_292_4054)"/>
</g>
<path d="M94.3897 61.0383C94.3897 61.1343 94.3539 61.2064 94.3062 61.2424C94.3062 61.2424 93.8171 63.5111 87.7932 67.0281C79.1809 72.0456 83.0219 69.3808 83.0219 69.3808C82.7952 69.5129 82.9384 69.2248 82.5925 69.0207C81.9006 68.6126 81.328 67.6403 81.328 66.8361C81.328 66.4399 80.9583 66.4399 81.1849 66.3079C81.1849 66.3079 76.9742 68.3365 85.5865 63.319C91.6342 59.8019 93.8648 60.4861 93.8648 60.4861C93.9245 60.4501 93.996 60.4621 94.0915 60.5102C94.2704 60.6062 94.4016 60.8583 94.4016 61.0623L94.3897 61.0383Z" fill="#D9D9D9"/>
<path d="M83.6779 68.6486C83.6779 69.5609 83.0338 69.933 82.2465 69.4648C81.4593 69.0087 80.8151 67.8924 80.8151 66.9801C80.8151 66.0678 81.4593 65.6957 82.2465 66.1638C83.0338 66.62 83.6779 67.7363 83.6779 68.6486Z" fill="#CED3F4"/>
<path d="M83.3917 68.6846C83.3917 69.1047 83.2485 69.4168 83.0099 69.5609L23.5587 104.323C23.3082 104.467 23.4752 104.143 23.0934 103.927C22.342 103.483 21.7217 102.427 21.7217 101.55C21.7217 101.118 21.328 101.118 21.5666 100.974L81.0656 66.1999C81.3161 66.0678 81.6501 66.0918 82.0199 66.3079C82.7714 66.752 83.3917 67.8083 83.3917 68.6846Z" fill="url(#paint11_linear_292_4054)"/>
<path d="M23.9046 103.471C23.9046 104.347 23.2962 104.695 22.5328 104.251C21.7813 103.807 21.161 102.751 21.161 101.875C21.161 100.998 21.7694 100.65 22.5328 101.094C23.2962 101.538 23.9046 102.595 23.9046 103.471Z" fill="url(#paint12_linear_292_4054)"/>
<path d="M24.2505 99.6179L47.0338 86.4019L29.2485 84.9375C22.5924 84.3853 18.4413 92.0676 22.5328 97.3852L24.2505 99.6179Z" fill="url(#paint13_linear_292_4054)"/>
<path d="M24.6083 99.5459L47.3916 86.3299L29.6064 84.8655C22.9503 84.3133 18.7992 91.9956 22.8907 97.3132L24.5964 99.5459H24.6083Z" fill="url(#paint14_linear_292_4054)"/>
<g style="mix-blend-mode:screen" opacity="0.7">
<path d="M23.2366 97.4572C19.1451 92.1397 23.2843 84.4573 29.9523 85.0095L47.2246 86.4379L47.4036 86.3299L29.6183 84.8655C22.9622 84.3133 18.8111 91.9956 22.9026 97.3132L24.6203 99.5459L24.7753 99.4498L23.2485 97.4572H23.2366Z" fill="#836DF3"/>
</g>
<path d="M25.6938 102.307L26.2545 104.335C27.7455 109.737 34.8907 110.805 37.8847 106.076L48.4891 89.3068L25.7058 102.319L25.6938 102.307Z" fill="url(#paint15_linear_292_4054)"/>
<path d="M26.0517 102.019L26.6123 104.047C28.1034 109.449 35.2485 110.517 38.2426 105.788L48.8469 89.0187L26.0636 102.031L26.0517 102.019Z" fill="url(#paint16_linear_292_4054)"/>
<g style="mix-blend-mode:screen" opacity="0.7">
<path d="M38.4215 105.452C35.4274 110.181 28.2942 109.113 26.7913 103.711L26.2903 101.887L26.0398 102.031L26.6004 104.059C28.0915 109.461 35.2366 110.529 38.2306 105.8L48.835 89.0307L48.7992 89.0547L38.4215 105.464V105.452Z" fill="#836DF3"/>
</g>
</g>
<defs>
<linearGradient id="paint0_linear_292_4054" x1="60" y1="68.1009" x2="203.5" y2="133.601" gradientUnits="userSpaceOnUse">
<stop stop-color="#EAEAEA"/>
<stop offset="1" stop-color="#B0B0B0"/>
</linearGradient>
<linearGradient id="paint1_linear_292_4054" x1="22.7777" y1="67.3547" x2="188.652" y2="119.352" gradientUnits="userSpaceOnUse">
<stop stop-color="white"/>
<stop offset="1" stop-color="#D7D7D7"/>
</linearGradient>
<linearGradient id="paint2_linear_292_4054" x1="103.139" y1="0.0012207" x2="149.058" y2="83.5553" gradientUnits="userSpaceOnUse">
<stop stop-color="#FF6700"/>
<stop offset="1" stop-color="#FF9666"/>
</linearGradient>
<linearGradient id="paint3_linear_292_4054" x1="-978.617" y1="-560.414" x2="-888.431" y2="-508.671" gradientUnits="userSpaceOnUse">
<stop stop-color="#311B61"/>
<stop offset="0.2" stop-color="#290E52"/>
<stop offset="0.49" stop-color="#200041"/>
<stop offset="1" stop-color="#0F001F"/>
</linearGradient>
<linearGradient id="paint4_linear_292_4054" x1="66.5741" y1="17.3263" x2="138.313" y2="52.0651" gradientUnits="userSpaceOnUse">
<stop stop-color="#DFDFDF"/>
<stop offset="1" stop-color="#969696"/>
</linearGradient>
<linearGradient id="paint5_linear_292_4054" x1="76.1158" y1="33.7513" x2="109.124" y2="89.8613" gradientUnits="userSpaceOnUse">
<stop stop-color="#EBEBEB"/>
<stop offset="1" stop-color="#C9C9C9"/>
</linearGradient>
<linearGradient id="paint6_linear_292_4054" x1="92.4692" y1="49.7655" x2="101.496" y2="67.8876" gradientUnits="userSpaceOnUse">
<stop stop-color="#FF6700"/>
<stop offset="1" stop-color="#FF9666"/>
</linearGradient>
<linearGradient id="paint7_linear_292_4054" x1="91.992" y1="61.6745" x2="93.4712" y2="61.6745" gradientUnits="userSpaceOnUse">
<stop stop-color="#311B61"/>
<stop offset="0.2" stop-color="#290E52"/>
<stop offset="0.49" stop-color="#200041"/>
<stop offset="1" stop-color="#0F001F"/>
</linearGradient>
<linearGradient id="paint8_linear_292_4054" x1="32.6989" y1="88.2865" x2="32.6989" y2="101.43" gradientUnits="userSpaceOnUse">
<stop stop-color="#EBEBEB"/>
<stop offset="1" stop-color="#C9C9C9"/>
</linearGradient>
<linearGradient id="paint9_linear_292_4054" x1="32.699" y1="88.2985" x2="34.7502" y2="100.205" gradientUnits="userSpaceOnUse">
<stop stop-color="#DFDFDF"/>
<stop offset="1" stop-color="#969696"/>
</linearGradient>
<linearGradient id="paint10_linear_292_4054" x1="32.3313" y1="88.5266" x2="34.2743" y2="99.9173" gradientUnits="userSpaceOnUse">
<stop stop-color="#DFDFDF"/>
<stop offset="1" stop-color="#969696"/>
</linearGradient>
<linearGradient id="paint11_linear_292_4054" x1="52.4407" y1="66.1186" x2="52.4407" y2="104.359" gradientUnits="userSpaceOnUse">
<stop stop-color="#EBEBEB"/>
<stop offset="1" stop-color="#C9C9C9"/>
</linearGradient>
<linearGradient id="paint12_linear_292_4054" x1="22.5328" y1="100.901" x2="22.5328" y2="104.444" gradientUnits="userSpaceOnUse">
<stop stop-color="#EBEBEB"/>
<stop offset="1" stop-color="#C9C9C9"/>
</linearGradient>
<linearGradient id="paint13_linear_292_4054" x1="33.9709" y1="84.9093" x2="36.8122" y2="98.0121" gradientUnits="userSpaceOnUse">
<stop stop-color="#DFDFDF"/>
<stop offset="1" stop-color="#969696"/>
</linearGradient>
<linearGradient id="paint14_linear_292_4054" x1="34.3288" y1="84.8373" x2="34.3288" y2="99.5459" gradientUnits="userSpaceOnUse">
<stop stop-color="#EBEBEB"/>
<stop offset="1" stop-color="#C9C9C9"/>
</linearGradient>
<linearGradient id="paint15_linear_292_4054" x1="37.0915" y1="89.3068" x2="42.6332" y2="105.896" gradientUnits="userSpaceOnUse">
<stop stop-color="#DFDFDF"/>
<stop offset="1" stop-color="#969696"/>
</linearGradient>
<linearGradient id="paint16_linear_292_4054" x1="37.4493" y1="89.0187" x2="42.991" y2="105.608" gradientUnits="userSpaceOnUse">
<stop stop-color="#DFDFDF"/>
<stop offset="1" stop-color="#969696"/>
</linearGradient>
<clipPath id="clip0_292_4054">
<rect width="126" height="120" fill="white" transform="translate(18)"/>
</clipPath>
</defs>
</svg>
