<svg width="40" height="40" viewBox="0 0 40 40" fill="none" xmlns="http://www.w3.org/2000/svg">
<rect width="40" height="40" rx="16" fill="#E4E5E1"/>
<g clip-path="url(#clip0_330_1654)">
<path d="M16.17 32.7601C16.02 32.5201 15.78 32.3001 15.73 32.0401C15.55 30.9801 15.08 30.8301 14.21 31.4101C13.79 31.6901 13.33 31.5401 12.97 31.1801C11.51 29.7201 10.05 28.2701 8.59 26.8101C8.14 26.3701 8.11 25.8801 8.44 25.3601C8.83 24.7501 8.82 24.2601 7.98 24.1001C7.17 23.9401 7 23.3801 7 22.6401C7.02 20.7801 7.02 18.9301 7 17.0701C7 16.3301 7.2 15.7901 8.02 15.6301C8.72 15.5001 8.93 15.1101 8.5 14.4901C7.98 13.7501 8.3 13.2101 8.86 12.6601C10.16 11.3901 11.45 10.1201 12.71 8.81011C13.28 8.22011 13.84 8.01011 14.55 8.51011C15.16 8.94011 15.49 8.63011 15.62 8.06011C15.81 7.19011 16.36 6.99011 17.16 7.00011C18.97 7.03011 20.79 7.02011 22.6 7.00011C23.32 7.00011 23.92 7.12011 24.09 7.95011C24.25 8.71011 24.64 8.93011 25.31 8.47011C25.94 8.03011 26.46 8.23011 26.95 8.73011C28.31 10.1101 29.66 11.5001 31.06 12.8401C31.56 13.3201 31.69 13.7801 31.32 14.3501C30.88 15.0301 30.94 15.4801 31.83 15.6301C32.28 15.7001 32.47 16.1101 32.75 16.4001V23.5801C32.55 23.7101 32.36 23.9301 32.15 23.9701C31.02 24.1701 30.78 24.6801 31.43 25.6501C31.72 26.0901 31.46 26.4901 31.1 26.8401C29.7 28.2201 28.31 29.6201 26.93 31.0201C26.52 31.4401 26.03 31.7201 25.51 31.3801C24.61 30.7801 24.2 31.0301 24.01 32.0201C23.96 32.2801 23.73 32.5001 23.58 32.7401H16.15L16.17 32.7601ZM30.48 13.7901C30.39 13.6701 30.31 13.5201 30.2 13.4101C28.93 12.1201 27.64 10.8401 26.38 9.54011C26.07 9.22011 25.81 9.36011 25.51 9.51011C24.42 10.0201 23.64 9.67011 23.26 8.58011C23.06 8.00011 22.7 8.01011 22.23 8.01011C20.66 8.03011 19.1 8.04011 17.53 8.01011C16.97 8.00011 16.66 8.11011 16.44 8.70011C16.08 9.67011 15.35 10.0301 14.37 9.53011C13.89 9.29011 13.58 9.32011 13.2 9.73011C12.06 10.9201 10.89 12.0801 9.71 13.2301C9.37 13.5601 9.25 13.8201 9.5 14.2801C10.03 15.2701 9.74 16.0801 8.69 16.4601C8.1 16.6701 7.98 16.9801 8 17.5401C8.04 19.1101 8.03 20.6701 8 22.2401C7.99 22.8001 8.11 23.1201 8.69 23.3301C9.67 23.6901 10 24.4401 9.53 25.4101C9.3 25.8901 9.32 26.2001 9.72 26.5801C10.91 27.7201 12.07 28.8901 13.22 30.0701C13.55 30.4101 13.81 30.5301 14.27 30.2901C15.26 29.7801 16.08 30.0701 16.46 31.1001C16.68 31.7001 17 31.7901 17.55 31.7801C19.12 31.7501 20.68 31.7501 22.25 31.7901C22.82 31.8001 23.12 31.6601 23.33 31.0801C23.69 30.1001 24.44 29.7401 25.39 30.2701C25.98 30.6001 26.28 30.3601 26.65 29.9801C27.74 28.8601 28.83 27.7401 29.96 26.6501C30.32 26.3001 30.53 26.0301 30.27 25.5001C29.74 24.4201 30.16 23.6501 31.22 23.2601C31.73 23.0701 31.76 22.7701 31.76 22.3301C31.75 20.7201 31.75 19.1101 31.78 17.5101C31.79 16.9501 31.68 16.6001 31.06 16.4301C29.97 16.1301 29.8 15.3701 30.23 14.4001C30.31 14.2101 30.39 14.0301 30.49 13.8001L30.48 13.7901Z" fill="#ADADB0"/>
<path d="M19.67 30.84C18.21 31.1 17.14 30.61 16.64 29.08C16.43 28.44 15.95 28.47 15.44 28.74C14.49 29.23 13.58 29.2 12.85 28.39C11.8 27.23 10.03 26.34 10.99 24.28C11.33 23.55 11.1 23.26 10.41 23.02C9.36999 22.65 8.77999 21.86 8.83999 20.75C8.90999 19.25 8.45999 17.5 10.43 16.74C11 16.52 11.32 16.32 11.07 15.58C10.27 13.22 12.69 10.52 15.18 11.07C16.11 11.27 16.58 11.12 16.86 10.23C16.95 9.93001 17.18 9.65001 17.42 9.43001C18.75 8.19001 22.29 8.80001 23.02 10.45C23.36 11.22 23.72 11.35 24.42 11C25.5 10.47 26.41 10.78 27.19 11.64C27.66 12.16 28.2 12.62 28.61 13.17C29.15 13.89 29.16 14.71 28.74 15.5C28.4 16.13 28.58 16.49 29.24 16.71C30.36 17.08 30.92 17.88 30.89 19.04C30.85 20.56 31.26 22.31 29.3 23.03C28.45 23.34 28.48 23.78 28.8 24.44C29.29 25.47 29.02 26.35 28.2 27.11C27.72 27.56 27.29 28.07 26.79 28.49C26.02 29.13 25.14 29.22 24.25 28.76C23.77 28.52 23.34 28.45 23.15 29.04C22.58 30.75 21.36 31.16 19.69 30.84H19.67ZM14.71 11.96C13 11.92 11.54 13.87 12.05 15.37C12.38 16.32 12.19 17.19 11.19 17.48C9.36999 18.01 9.96999 19.47 9.83999 20.63C9.73999 21.53 10.34 21.9 11.1 22.2C12.07 22.58 12.47 23.54 12.02 24.39C11.58 25.22 11.64 25.97 12.34 26.48C13.2 27.1 13.68 28.67 15.27 27.74C16.03 27.29 17.03 27.45 17.29 28.27C17.81 29.87 18.95 29.91 20.28 29.94C21.25 29.97 21.83 29.69 22.17 28.76C22.59 27.61 23.4 27.28 24.49 27.8C25.3 28.19 25.91 28.02 26.48 27.42C26.82 27.06 27.16 26.7 27.52 26.37C28.04 25.88 28.11 25.37 27.83 24.7C27.27 23.32 27.49 22.68 28.82 22.17C30.4 21.56 29.71 20.25 29.86 19.2C29.97 18.41 29.6 17.92 28.82 17.61C27.53 17.1 27.28 16.42 27.83 15.08C28.11 14.41 27.99 13.88 27.52 13.39C27.15 13.01 26.75 12.65 26.39 12.25C25.91 11.73 25.41 11.61 24.73 11.88C23.26 12.46 22.7 12.26 22.13 10.85C21.5 9.29001 20.17 10.04 19.13 9.86001C18.37 9.73001 17.89 10.14 17.63 10.85C17.2 12.02 16.37 12.4 15.19 12.06C14.99 12 14.79 11.97 14.7 11.95L14.71 11.96Z" fill="#ADADB0"/>
<path d="M19.9 12.95C23.71 12.96 26.81 16.07 26.81 19.87C26.81 23.73 23.66 26.85 19.8 26.81C16 26.77 12.92 23.63 12.95 19.83C12.98 16.03 16.1 12.94 19.9 12.95ZM25.82 19.92C25.82 16.65 23.2 13.97 19.98 13.94C16.65 13.91 13.94 16.56 13.94 19.85C13.94 23.12 16.56 25.8 19.78 25.83C23.1 25.86 25.82 23.21 25.82 19.92Z" fill="#ADADB0"/>
</g>
<defs>
<clipPath id="clip0_330_1654">
<rect width="26" height="26" fill="white" transform="translate(7 7)"/>
</clipPath>
</defs>
</svg>
