<svg width="136" height="72" viewBox="0 0 136 72" fill="none" xmlns="http://www.w3.org/2000/svg">
<path d="M9.61099 49.0002L52.899 24.0004L4.09994 26.2961L1.07413 29.1955L0.414207 33.5482L0.898618 36.5038L2.34483 40.0912L3.79806 42.8994L5.41978 45.0125L9.61099 49.0002Z" fill="url(#paint0_linear_265_4646)"/>
<path d="M45.9909 1.20502C46.0681 1.1629 46.1383 1.11376 46.2156 1.07866L46.2296 1.07163C47.9566 0.144937 50.3085 0.313427 52.892 1.80878L112.018 35.9422C111.765 36.1317 111.548 36.3564 111.337 36.6021L109.098 35.3103L97.1348 61.314L90.9428 69.7666L86.899 71.1707L82.8482 69.5841L63.184 58.4076L24.1995 36.1177L9.89882 27.5317L6.16395 26.3452L2.80817 26.1416L45.9909 1.20502Z" fill="#8B8B8B"/>
<path d="M92.7192 64.74C92.7192 58.6182 88.4086 51.1555 83.1082 48.0946V49.1476C87.9031 51.9137 91.8065 58.6744 91.8065 64.2135C91.8065 69.7526 87.9031 72.0062 83.1082 69.2331L9.61117 26.8086C6.96447 25.2781 4.56348 25.1377 2.82241 26.1416L45.9911 1.20502C46.0683 1.1629 46.1385 1.11376 46.2158 1.07866L46.2298 1.07163C47.9568 0.144937 50.3087 0.313427 52.8922 1.80878L112.018 35.9422C111.766 36.1317 111.548 36.3564 111.337 36.6021L109.098 35.3103L97.135 61.314L92.1856 68.0677C92.5296 67.1199 92.7192 66.0107 92.7192 64.74Z" fill="url(#paint1_linear_265_4646)"/>
<path d="M92.719 64.157C92.719 64.2623 92.712 64.3606 92.7049 64.4659C92.6417 61.412 91.5325 58.0492 89.7774 55.0725C89.8617 55.0234 89.9389 54.9672 90.0231 54.9181C91.687 57.8737 92.719 61.1733 92.719 64.157Z" fill="#9F9F9F"/>
<path d="M9.61117 26.2186L83.1012 68.6502C87.7838 71.3531 91.6099 69.268 91.7925 64.0097C91.7925 64.0728 91.7995 64.1431 91.7995 64.2133C91.7995 69.7524 87.8961 72.006 83.1012 69.2329L9.61117 26.8083C6.96447 25.2779 4.56348 25.1375 2.82241 26.1414L4.9145 24.9339C6.29753 24.8286 7.90521 25.2358 9.61117 26.2186Z" fill="#9F9F9F"/>
<path d="M97.1348 60.7242L109.098 34.7205L111.337 36.0122C111.428 35.9069 111.52 35.8016 111.618 35.7033L112.018 35.935C111.765 36.1245 111.548 36.3492 111.337 36.5949L109.098 35.3032L97.1348 61.3069L92.1854 68.0605C92.2977 67.7587 92.382 67.4357 92.4592 67.1058L97.1348 60.7242Z" fill="#9F9F9F"/>
<path d="M2.80817 25.5591L2.81551 25.5518L2.80817 25.5591Z" fill="#8B8B8B"/>
<path d="M126.389 23.0878C131.689 26.1487 136 33.6184 136 39.7332C136 42.6888 134.996 44.795 133.353 45.841L133.325 45.8551C133.227 45.9182 133.129 45.9744 133.03 46.0306L89.9038 70.9531L92.5435 66.1792L92.2346 61.4124L91.3991 58.7305L90.1284 55.8732C90.1284 55.8732 89.0754 53.9215 89.0052 53.8724C88.942 53.8303 87.4466 51.8926 87.4466 51.8926L85.9934 50.3762L84.4138 49.3653L83.101 48.0805L126.389 23.0878Z" fill="url(#paint2_linear_265_4646)"/>
<path d="M9.61098 49.0003V47.9472C4.81602 45.1812 0.912657 38.4205 0.912657 32.8814C0.912657 27.3422 4.81602 25.0887 9.61098 27.8618L83.101 70.2933C88.4014 73.3542 92.7119 70.862 92.7119 64.7472C92.7119 58.6253 88.4014 51.1626 83.101 48.1017V49.1548C87.8959 51.9208 91.7993 58.6815 91.7993 64.2206C91.7993 69.7598 87.8959 72.0133 83.101 69.2402L9.61098 26.8087C4.31055 23.7478 0 26.233 0 32.3548C0 38.4767 4.31055 45.9394 9.61098 49.0003Z" fill="#C9C9C9"/>
<path d="M83.349 43.8436L41.6045 19.5068L40 20.4301L81.7445 44.7669L83.349 43.8436Z" fill="white"/>
<path d="M82.6319 35.3369L48.6142 15.5L47.0097 16.4233L81.0274 36.2512L82.6319 35.3369Z" fill="white"/>
<path d="M76.7248 35.9374L45.1094 17.5078L43.5049 18.4221L75.1202 36.8517L76.7248 35.9374Z" fill="white"/>
<path d="M86.8539 41.8449L79.1271 37.3361L77.5225 38.2593L85.2494 42.7592L86.8539 41.8449Z" fill="#FF6700"/>
<defs>
<linearGradient id="paint0_linear_265_4646" x1="0.413365" y1="36.5011" x2="52.8955" y2="36.5011" gradientUnits="userSpaceOnUse">
<stop stop-color="white"/>
<stop offset="1" stop-color="#A5A5A5"/>
</linearGradient>
<linearGradient id="paint1_linear_265_4646" x1="57.4204" y1="0.5" x2="57.4204" y2="70.4199" gradientUnits="userSpaceOnUse">
<stop stop-color="#F0F0F0"/>
<stop offset="1" stop-color="#DEDEDE"/>
</linearGradient>
<linearGradient id="paint2_linear_265_4646" x1="83.1037" y1="47.0226" x2="135.999" y2="47.0226" gradientUnits="userSpaceOnUse">
<stop stop-color="white"/>
<stop offset="1" stop-color="#B9B9B9"/>
</linearGradient>
</defs>
</svg>
