<svg width="100" height="131" viewBox="0 0 100 131" fill="none" xmlns="http://www.w3.org/2000/svg">
<path d="M7.42831 54.7383C7.42831 63.7477 10.577 70.1366 15.6652 73.2313C15.8164 73.3311 24.3808 78.5721 24.5319 78.6469C29.8469 81.5918 26.4463 74.9034 34.5069 70.3113C50.7289 61.0274 63.9029 38.5412 63.9029 20.0981C63.9029 10.9639 72.4169 10.889 67.2027 7.84429C67.0516 7.76942 57.4796 2.35378 57.3285 2.27891C52.0387 -0.566172 44.7842 -0.0420772 36.8243 4.52503C20.5772 13.784 7.42831 36.2702 7.42831 54.7383Z" fill="url(#paint0_linear_1_2364)"/>
<path d="M17.0506 60.3787C17.0506 78.8219 30.1995 86.259 46.4466 76.975C62.6686 67.6911 75.8426 45.205 75.8426 26.7618C75.8426 8.31871 62.6686 0.88156 46.4214 10.1655C30.1995 19.4495 17.0254 41.9356 17.0254 60.3787H17.0506Z" fill="url(#paint1_linear_1_2364)"/>
<path d="M24.7081 56.0113C24.7081 69.6627 34.4312 75.1532 46.4466 68.2901C58.4367 61.4269 68.185 44.8057 68.185 31.1543C68.185 17.5029 58.4619 12.0123 46.4466 18.8755C34.4564 25.7386 24.7081 42.3599 24.7081 56.0113Z" fill="url(#paint2_linear_1_2364)"/>
<path style="mix-blend-mode:multiply" d="M44.4315 66.3932C56.4216 59.53 66.1699 42.9088 66.1699 29.2574C66.1699 24.3658 64.9104 20.5474 62.7693 17.9519C66.1447 20.3727 68.1851 24.8899 68.1851 31.1291C68.1851 44.7805 58.462 61.4018 46.4466 68.265C38.7387 72.6823 31.9879 71.9586 28.1339 67.2916C32.1139 70.1617 37.9326 70.0868 44.4315 66.3682V66.3932Z" fill="url(#paint3_linear_1_2364)"/>
<path style="mix-blend-mode:multiply" d="M36.8243 4.50025C44.8094 -0.0668574 52.0387 -0.590952 57.3285 2.25413C57.3285 2.25413 57.8575 2.55361 58.6635 2.97788C53.4997 0.806633 46.7489 1.53038 39.3685 5.74809C23.1465 15.032 9.97244 37.5182 9.97244 55.9613C9.97244 64.9707 13.1211 71.3597 18.2094 74.4544C18.3353 74.5292 15.8164 73.2814 15.6652 73.2065C10.5518 70.1119 7.42831 63.7229 7.42831 54.7135C7.42831 36.2703 20.5772 13.7842 36.8243 4.50025Z" fill="url(#paint4_linear_1_2364)"/>
<path style="mix-blend-mode:color-dodge" d="M45.1368 9.34179C52.9203 4.89947 59.8726 4.42529 65.112 7.0208C60.2001 5.67313 54.1294 6.6714 47.555 10.4399C31.333 19.7238 18.159 42.21 18.159 60.6531C18.159 70.2615 21.7359 76.8751 27.4287 79.6952C20.2497 77.6986 15.7408 70.5111 15.7408 59.555C15.7408 41.1119 28.8896 18.6257 45.1368 9.34179Z" fill="url(#paint5_radial_1_2364)"/>
<path style="mix-blend-mode:multiply" d="M51.8624 34.1489C51.8624 34.1489 51.6105 34.0491 51.3082 33.9992C51.0059 33.9492 50.6281 33.9492 50.1495 33.9742C49.6709 33.9742 49.1671 34.0491 48.5878 34.1489C48.0084 34.2487 47.4291 34.4234 47.2527 34.673V39.5146L47.8573 39.2151C48.9152 38.9406 49.8976 38.7659 50.7541 38.6661C51.6105 38.5663 52.341 38.6411 52.9203 38.8907C53.5249 39.1403 53.9783 39.5645 54.3058 40.2134C54.6332 40.8623 54.7844 41.7607 54.7844 42.9337C54.7844 44.2814 54.5828 45.5542 54.1546 46.7521C53.7264 47.95 53.1722 49.0481 52.4669 50.0464C51.7616 51.0447 50.9556 51.9681 50.0488 52.7917C49.1419 53.6153 44.7086 54.9629 44.7086 54.9629V60.3287V56.1609C44.7086 56.1609 42.1393 57.3338 40.7287 57.6084C39.3181 57.8829 38.0586 57.9328 36.9251 57.7082L39.1921 51.3192C39.1921 51.3192 39.4944 51.469 39.8722 51.5189C40.2501 51.5937 40.7035 51.5937 41.2828 51.5688C41.837 51.5688 42.4919 51.469 43.1972 51.3442C43.9025 51.1944 44.633 50.9948 47.2527 50.6703V45.9285L43.8774 46.2779C42.8446 46.5025 41.963 46.6273 41.2073 46.6523C40.4516 46.6523 39.8219 46.5525 39.3433 46.2779C38.8395 46.0034 38.4868 45.5791 38.2349 45.0051C37.983 44.4311 37.8823 43.6575 37.8823 42.7091C37.8823 41.4613 38.0586 40.2633 38.4364 39.0904C38.8143 37.9174 39.3181 36.7943 39.9478 35.7461C40.5775 34.6979 41.3332 33.7246 42.2149 32.8262C43.0713 31.9277 44.7086 30.4553 44.7086 30.4553V25.6136V29.2074C44.7086 29.2074 49.822 28.1842 51.0059 28.0594C52.1898 27.9346 53.2478 27.8847 54.1042 27.9596L51.8372 34.099L51.8624 34.1489ZM42.5171 38.7909C42.5171 39.3898 42.6935 39.7392 43.0713 39.889C43.4491 40.0138 43.9781 40.0138 44.7086 39.864V35.4716C43.2476 36.4449 42.5171 37.568 42.5171 38.7909ZM49.6457 46.6523C49.6457 46.0284 49.419 45.679 48.9908 45.5791C48.5626 45.4793 47.958 45.5043 47.2275 45.6291V49.8967C48.8397 48.8984 49.6457 47.8253 49.6457 46.6273V46.6523Z" fill="url(#paint6_linear_1_2364)"/>
<path d="M53.5248 34.823C53.5248 34.823 53.2729 34.7232 52.9706 34.6733C52.6683 34.6234 52.2905 34.6234 51.8119 34.6483C51.3333 34.6483 50.8295 34.7232 50.2502 34.823C49.6708 34.9229 49.0914 35.0976 49.7464 35.3471V40.1888L49.4945 39.8893C50.5524 39.6148 51.5348 39.4401 52.3913 39.3402C53.2477 39.2404 53.9782 39.3153 54.5575 39.5648C55.1621 39.8144 55.6155 40.2387 55.943 40.8876C56.2704 41.5364 56.4216 42.4349 56.4216 43.6079C56.4216 44.9555 56.22 46.2283 55.7918 47.4263C55.3636 48.6242 54.8094 49.7223 54.1041 50.7206C53.3988 51.7188 52.5928 52.6422 51.686 53.4658C50.7791 54.2894 47.2022 55.6371 47.2022 55.6371V59.7799L44.6833 61.0277V56.8599C44.6833 56.8599 43.7765 58.0329 42.3659 58.3074C40.9553 58.582 39.6958 58.6319 38.5623 58.4073L40.8293 52.0183C40.8293 52.0183 41.1316 52.1681 41.5094 52.218C41.8873 52.2928 42.3407 52.2928 42.9201 52.2679C43.4742 52.2679 44.1291 52.1681 44.8344 52.0433C45.5397 51.8935 46.2702 51.6939 47.2274 51.3694V46.6276L45.5146 46.977C44.4818 47.2016 43.6002 47.3264 42.8445 47.3514C42.0888 47.3514 41.4591 47.2516 40.9805 46.977C40.4767 46.7025 40.124 46.3032 39.8721 45.7042C39.6202 45.1302 39.5195 44.3566 39.5195 43.4082C39.5195 42.1604 39.6958 40.9624 40.0736 39.7895C40.4515 38.6165 40.9553 37.4934 41.585 36.4452C42.2147 35.397 42.9704 34.4237 43.8521 33.5253C44.7085 32.6268 44.6833 31.1544 44.6833 31.1544V27.5606L47.2022 26.3127V29.9065C47.2022 29.9065 51.4593 28.8833 52.6432 28.7585C53.8271 28.6337 54.885 28.5838 55.7415 28.6587L53.4744 34.7981L53.5248 34.823ZM45.036 39.465C45.036 40.064 45.2123 40.4134 45.5901 40.5631C45.968 40.6879 46.4969 40.6879 47.2274 40.5382V36.1457C45.7665 37.1191 45.036 38.2421 45.036 39.465ZM52.1646 47.3264C52.1646 46.7025 51.9379 46.3531 51.5096 46.2533C51.0814 46.1535 50.4769 46.1784 49.7464 46.3032V50.5708C51.3585 49.5725 52.1646 48.4994 52.1646 47.3015V47.3264Z" fill="url(#paint7_linear_1_2364)"/>
<g style="mix-blend-mode:color-dodge">
<path d="M53.5248 34.823C53.5248 34.823 53.2729 34.7232 52.9706 34.6733C52.6683 34.6234 52.2905 34.6234 51.8119 34.6483C51.3333 34.6483 50.8295 34.7232 50.2502 34.823C49.6708 34.9229 49.0914 35.0976 49.7464 35.3471V40.1888L49.4945 39.8893C50.5524 39.6148 51.5348 39.4401 52.3913 39.3402C53.2477 39.2404 53.9782 39.3153 54.5575 39.5648C55.1621 39.8144 55.6155 40.2387 55.943 40.8876C56.2704 41.5364 56.4216 42.4349 56.4216 43.6079C56.4216 44.9555 56.22 46.2283 55.7918 47.4263C55.3636 48.6242 54.8094 49.7223 54.1041 50.7206C53.3988 51.7188 52.5928 52.6422 51.686 53.4658C50.7791 54.2894 47.2022 55.6371 47.2022 55.6371V59.7799L44.6833 61.0277V56.8599C44.6833 56.8599 43.7765 58.0329 42.3659 58.3074C40.9553 58.582 39.6958 58.6319 38.5623 58.4073L40.8293 52.0183C40.8293 52.0183 41.1316 52.1681 41.5094 52.218C41.8873 52.2928 42.3407 52.2928 42.9201 52.2679C43.4742 52.2679 44.1291 52.1681 44.8344 52.0433C45.5397 51.8935 46.2702 51.6939 47.2274 51.3694V46.6276L45.5146 46.977C44.4818 47.2016 43.6002 47.3264 42.8445 47.3514C42.0888 47.3514 41.4591 47.2516 40.9805 46.977C40.4767 46.7025 40.124 46.3032 39.8721 45.7042C39.6202 45.1302 39.5195 44.3566 39.5195 43.4082C39.5195 42.1604 39.6958 40.9624 40.0736 39.7895C40.4515 38.6165 40.9553 37.4934 41.585 36.4452C42.2147 35.397 42.9704 34.4237 43.8521 33.5253C44.7085 32.6268 44.6833 31.1544 44.6833 31.1544V27.5606L47.2022 26.3127V29.9065C47.2022 29.9065 51.4593 28.8833 52.6432 28.7585C53.8271 28.6337 54.885 28.5838 55.7415 28.6587L53.4744 34.7981L53.5248 34.823ZM45.036 39.465C45.036 40.064 45.2123 40.4134 45.5901 40.5631C45.968 40.6879 46.4969 40.6879 47.2274 40.5382V36.1457C45.7665 37.1191 45.036 38.2421 45.036 39.465ZM52.1646 47.3264C52.1646 46.7025 51.9379 46.3531 51.5096 46.2533C51.0814 46.1535 50.4769 46.1784 49.7464 46.3032V50.5708C51.3585 49.5725 52.1646 48.4994 52.1646 47.3015V47.3264Z" fill="url(#paint8_radial_1_2364)"/>
</g>
<path d="M99.0624 90.692H44.0425V98.3869C44.0425 98.3869 44.0425 98.5393 44.0425 98.5965C44.0425 107.358 56.3653 114.462 71.5525 114.462C86.7396 114.462 99.0624 107.358 99.0624 98.5965C99.0624 98.5203 99.0624 98.4441 99.0624 98.3869V90.692Z" fill="url(#paint9_linear_1_2364)"/>
<g style="mix-blend-mode:multiply">
<path d="M71.5523 112.767C56.3652 112.767 44.0424 105.663 44.0424 96.9015V98.3871C44.0424 98.3871 44.0424 98.5395 44.0424 98.5967C44.0424 107.358 56.3652 114.463 71.5523 114.463C86.7395 114.463 99.0623 107.358 99.0623 98.5967C99.0623 98.5205 99.0623 98.4443 99.0623 98.3871V96.9015C99.0623 105.663 86.7395 112.767 71.5523 112.767Z" fill="url(#paint10_linear_1_2364)"/>
</g>
<path d="M71.5525 106.653C86.7458 106.653 99.0624 99.5499 99.0624 90.7874C99.0624 82.0248 86.7458 74.9214 71.5525 74.9214C56.3591 74.9214 44.0425 82.0248 44.0425 90.7874C44.0425 99.5499 56.3591 106.653 71.5525 106.653Z" fill="url(#paint11_linear_1_2364)"/>
<path style="mix-blend-mode:screen" d="M71.5525 106.253C56.6729 106.253 44.6 99.4347 44.081 90.9398C44.081 91.1303 44.0425 91.3017 44.0425 91.4922C44.0425 100.254 56.3653 107.358 71.5525 107.358C86.7396 107.358 99.0624 100.254 99.0624 91.4922C99.0624 91.3017 99.024 91.1303 99.024 90.9398C98.5241 99.4537 86.432 106.253 71.5525 106.253Z" fill="url(#paint12_radial_1_2364)"/>
<path d="M92.1225 90.7873C92.1225 97.3394 82.9141 102.653 71.5525 102.653C60.191 102.653 50.9826 97.3394 50.9826 90.7873C50.9826 84.2352 60.191 78.9211 71.5525 78.9211C82.9141 78.9211 92.1225 84.2352 92.1225 90.7873Z" fill="url(#paint13_linear_1_2364)"/>
<path style="mix-blend-mode:screen" d="M72.2253 79.5308C83.2216 79.5308 92.1609 84.502 92.7376 90.7684C92.7568 90.5589 92.7953 90.3494 92.7953 90.1399C92.7953 83.5877 83.5869 78.2737 72.2253 78.2737C60.8638 78.2737 51.6553 83.5877 51.6553 90.1399C51.6553 90.3494 51.6938 90.5589 51.713 90.7684C52.2897 84.521 61.229 79.5308 72.2253 79.5308Z" fill="url(#paint14_radial_1_2364)"/>
<path style="mix-blend-mode:multiply" d="M71.5525 80.1973C82.5488 80.1973 91.4881 85.1685 92.0649 91.4349C92.0841 91.2254 92.1225 91.0159 92.1225 90.8063C92.1225 84.2542 82.9141 78.9402 71.5525 78.9402C60.191 78.9402 50.9826 84.2542 50.9826 90.8063C50.9826 91.0159 51.021 91.2254 51.0402 91.4349C51.617 85.1875 60.5563 80.1973 71.5525 80.1973Z" fill="url(#paint15_linear_1_2364)"/>
<path style="mix-blend-mode:color-dodge" d="M85.99 75.5118C92.1802 77.5879 96.3327 81.7401 95.2946 84.7876C94.2565 87.816 88.3931 88.5969 82.2221 86.5018C76.0318 84.4257 71.8794 80.2735 72.9175 77.226C73.9556 74.1785 79.819 73.4166 85.99 75.5118Z" fill="url(#paint16_radial_1_2364)"/>
<g style="mix-blend-mode:multiply">
<path d="M73.1289 87.0732C72.6098 87.1684 72.0908 87.2827 71.5332 87.4351C71.0526 87.5494 70.5528 87.7017 70.0145 87.8732C69.4762 88.0446 68.9572 88.2351 68.4574 88.4636L70.1106 89.416C70.2644 89.3588 70.4567 89.2826 70.6489 89.2255C70.8412 89.1684 71.0526 89.0922 71.2449 89.016C72.1869 88.6922 73.0712 88.4065 73.8978 88.197C74.7245 87.9684 75.5127 87.8351 76.2432 87.7589C76.9737 87.6827 77.6658 87.7017 78.3194 87.816C78.973 87.9303 79.6074 88.1589 80.2226 88.5017C80.9531 88.9207 81.3953 89.3588 81.5875 89.835C81.7798 90.3112 81.7798 90.7873 81.5875 91.2635C81.3953 91.7397 81.0493 92.2158 80.5494 92.692C80.0496 93.1682 79.4729 93.6063 78.8 94.0443L81.03 95.3205L79.1845 96.3871L76.916 95.0919C75.7818 95.6633 74.5515 96.1585 73.2634 96.6157C71.9562 97.0728 70.6874 97.4156 69.4763 97.6632L68.2843 94.7491C68.8995 94.6348 69.5531 94.4824 70.2068 94.311C70.7643 94.1777 71.3795 93.9872 72.0715 93.7777C72.7636 93.5682 73.398 93.3206 74.0132 93.0349L72.3983 92.1016C71.8216 92.3111 71.2257 92.5206 70.6105 92.7301C69.6877 93.0349 68.8611 93.2634 68.1113 93.4348C67.3616 93.6063 66.6695 93.7015 66.0543 93.7396C65.4199 93.7777 64.8432 93.7396 64.3241 93.6063C63.7859 93.492 63.286 93.3015 62.8054 93.0158C62.1518 92.6349 61.6904 92.2158 61.4597 91.7778C61.229 91.3206 61.1714 90.8635 61.2867 90.3873C61.4021 89.9112 61.652 89.416 62.0749 88.9207C62.4978 88.4255 63.0361 87.9684 63.6897 87.5113L61.8442 86.4446L63.6897 85.3971L65.5545 86.4637C66.112 86.197 66.6695 85.9685 67.2462 85.7399C67.823 85.5304 68.3997 85.3209 68.9572 85.1495C69.5339 84.978 70.0722 84.8066 70.5913 84.6733C71.1103 84.54 71.6101 84.4066 72.0523 84.2924L73.0712 87.0922L73.1289 87.0732ZM66.9194 89.9874C67.1117 90.1016 67.3231 90.1397 67.5923 90.1207C67.8614 90.1016 68.2074 90.0254 68.6112 89.9112L67.2078 89.1112C66.6503 89.4921 66.5542 89.7969 66.9002 90.0064L66.9194 89.9874ZM75.7626 91.454C75.5896 91.3587 75.3589 91.3206 75.0321 91.3587C74.7245 91.3968 74.3592 91.473 73.9555 91.5873L75.3204 92.3682C75.6665 92.1396 75.8587 91.9492 75.9164 91.8158C75.9741 91.6635 75.9164 91.5492 75.7626 91.454Z" fill="url(#paint17_linear_1_2364)"/>
</g>
<path d="M73.1289 86.3875C72.6098 86.4828 72.0908 86.5971 71.5332 86.7494C71.0526 86.8637 70.5528 87.0161 70.0145 87.1875C69.4762 87.3589 68.9572 87.5494 68.4574 87.778L70.1106 88.7303C70.2644 88.6732 70.4567 88.597 70.6489 88.5398C70.8412 88.4827 71.0526 88.4065 71.2449 88.3303C72.1869 88.0065 73.0712 87.7208 73.8978 87.5113C74.7245 87.2827 75.5127 87.1494 76.2432 87.0732C76.9737 86.997 77.6658 87.0161 78.3194 87.1304C78.973 87.2446 79.6074 87.4732 80.2226 87.816C80.9531 88.2351 81.3953 88.6732 81.5875 89.1493C81.7798 89.6255 81.7798 90.1017 81.5875 90.5778C81.3953 91.054 81.0493 91.5302 80.5494 92.0064C80.0496 92.4825 79.4729 92.9206 78.8 93.3587L81.03 94.6348L79.1845 95.6824L76.916 94.3872C75.7818 94.9586 74.5515 95.4538 73.2634 95.9109C71.9562 96.3681 70.6874 96.7109 69.4763 96.9585L68.2843 94.0444C68.8995 93.9301 69.5531 93.7777 70.2068 93.6063C70.7643 93.473 71.3795 93.2825 72.0715 93.073C72.7636 92.8635 73.398 92.6158 74.0132 92.3301L72.3983 91.3969C71.8216 91.6064 71.2257 91.8159 70.6105 92.0254C69.6877 92.3301 68.8611 92.5587 68.1113 92.7301C67.3616 92.9015 66.6695 92.9968 66.0543 93.0349C65.4199 93.073 64.8432 93.0349 64.3241 92.9016C63.7859 92.7873 63.286 92.5968 62.8054 92.3111C62.1518 91.9302 61.6904 91.5111 61.4597 91.073C61.229 90.6159 61.1714 90.1588 61.2867 89.6826C61.4021 89.2065 61.652 88.7112 62.0749 88.216C62.4978 87.7208 63.0361 87.2637 63.6897 86.8066L61.8442 85.7399L63.6897 84.6733L65.5545 85.7399C66.112 85.4733 66.6695 85.2447 67.2462 85.0162C67.823 84.8066 68.3997 84.5971 68.9572 84.4257C69.5147 84.2543 70.0722 84.0829 70.5913 83.9495C71.1103 83.8162 71.6101 83.6829 72.0523 83.5686L73.0712 86.3685L73.1289 86.3875ZM66.9194 89.3017C67.1117 89.416 67.3231 89.4541 67.5923 89.435C67.8614 89.416 68.2074 89.3398 68.6112 89.2255L67.2078 88.4255C66.6503 88.8065 66.5542 89.1112 66.9002 89.3017H66.9194ZM75.7626 90.7683C75.5896 90.6731 75.3589 90.635 75.0321 90.6731C74.7245 90.7112 74.3592 90.7874 73.9555 90.9016L75.3204 91.6825C75.6665 91.454 75.8587 91.2635 75.9164 91.1302C75.9741 90.9778 75.9164 90.8635 75.7626 90.7683Z" fill="url(#paint18_linear_1_2364)"/>
<path style="mix-blend-mode:color-dodge" d="M73.1289 86.3875C72.6098 86.4828 72.0908 86.5971 71.5332 86.7494C71.0526 86.8637 70.5528 87.0161 70.0145 87.1875C69.4762 87.3589 68.9572 87.5494 68.4574 87.778L70.1106 88.7303C70.2644 88.6732 70.4567 88.597 70.6489 88.5398C70.8412 88.4827 71.0526 88.4065 71.2449 88.3303C72.1869 88.0065 73.0712 87.7208 73.8978 87.5113C74.7245 87.2827 75.5127 87.1494 76.2432 87.0732C76.9737 86.997 77.6658 87.0161 78.3194 87.1304C78.973 87.2446 79.6074 87.4732 80.2226 87.816C80.9531 88.2351 81.3953 88.6732 81.5875 89.1493C81.7798 89.6255 81.7798 90.1017 81.5875 90.5778C81.3953 91.054 81.0493 91.5302 80.5494 92.0064C80.0496 92.4825 79.4729 92.9206 78.8 93.3587L81.03 94.6348L79.1845 95.6824L76.916 94.3872C75.7818 94.9586 74.5515 95.4538 73.2634 95.9109C71.9562 96.3681 70.6874 96.7109 69.4763 96.9585L68.2843 94.0444C68.8995 93.9301 69.5531 93.7777 70.2068 93.6063C70.7643 93.473 71.3795 93.2825 72.0715 93.073C72.7636 92.8635 73.398 92.6158 74.0132 92.3301L72.3983 91.3969C71.8216 91.6064 71.2257 91.8159 70.6105 92.0254C69.6877 92.3301 68.8611 92.5587 68.1113 92.7301C67.3616 92.9015 66.6695 92.9968 66.0543 93.0349C65.4199 93.073 64.8432 93.0349 64.3241 92.9016C63.7859 92.7873 63.286 92.5968 62.8054 92.3111C62.1518 91.9302 61.6904 91.5111 61.4597 91.073C61.229 90.6159 61.1714 90.1588 61.2867 89.6826C61.4021 89.2065 61.652 88.7112 62.0749 88.216C62.4978 87.7208 63.0361 87.2637 63.6897 86.8066L61.8442 85.7399L63.6897 84.6733L65.5545 85.7399C66.112 85.4733 66.6695 85.2447 67.2462 85.0162C67.823 84.8066 68.3997 84.5971 68.9572 84.4257C69.5147 84.2543 70.0722 84.0829 70.5913 83.9495C71.1103 83.8162 71.6101 83.6829 72.0523 83.5686L73.0712 86.3685L73.1289 86.3875ZM66.9194 89.3017C67.1117 89.416 67.3231 89.4541 67.5923 89.435C67.8614 89.416 68.2074 89.3398 68.6112 89.2255L67.2078 88.4255C66.6503 88.8065 66.5542 89.1112 66.9002 89.3017H66.9194ZM75.7626 90.7683C75.5896 90.6731 75.3589 90.635 75.0321 90.6731C74.7245 90.7112 74.3592 90.7874 73.9555 90.9016L75.3204 91.6825C75.6665 91.454 75.8587 91.2635 75.9164 91.1302C75.9741 90.9778 75.9164 90.8635 75.7626 90.7683Z" fill="url(#paint19_radial_1_2364)"/>
<path d="M99.0624 82.083H44.0425V89.7779C44.0425 89.7779 44.0425 89.9303 44.0425 89.9874C44.0425 98.749 56.3653 105.853 71.5525 105.853C86.7396 105.853 99.0624 98.749 99.0624 89.9874C99.0624 89.9112 99.0624 89.8351 99.0624 89.7779V82.083Z" fill="url(#paint20_linear_1_2364)"/>
<g style="mix-blend-mode:multiply">
<path d="M71.5523 104.177C56.3652 104.177 44.0424 97.0729 44.0424 88.3114V89.7971C44.0424 89.7971 44.0424 89.9494 44.0424 90.0066C44.0424 98.7681 56.3652 105.873 71.5523 105.873C86.7395 105.873 99.0623 98.7681 99.0623 90.0066C99.0623 89.9304 99.0623 89.8542 99.0623 89.7971V88.3114C99.0623 97.0729 86.7395 104.177 71.5523 104.177Z" fill="url(#paint21_linear_1_2364)"/>
</g>
<path d="M71.5525 98.0633C86.7458 98.0633 99.0624 90.9599 99.0624 82.1973C99.0624 73.4348 86.7458 66.3313 71.5525 66.3313C56.3591 66.3313 44.0425 73.4348 44.0425 82.1973C44.0425 90.9599 56.3591 98.0633 71.5525 98.0633Z" fill="url(#paint22_linear_1_2364)"/>
<path style="mix-blend-mode:screen" d="M71.5525 97.6442C56.6729 97.6442 44.6 90.8254 44.081 82.3306C44.081 82.521 44.0425 82.6925 44.0425 82.8829C44.0425 91.6445 56.3653 98.7489 71.5525 98.7489C86.7396 98.7489 99.0624 91.6445 99.0624 82.8829C99.0624 82.6925 99.024 82.521 99.024 82.3306C98.5241 90.8445 86.432 97.6442 71.5525 97.6442Z" fill="url(#paint23_radial_1_2364)"/>
<path d="M92.1225 82.1973C92.1225 88.7495 82.9141 94.0635 71.5525 94.0635C60.191 94.0635 50.9826 88.7495 50.9826 82.1973C50.9826 75.6452 60.191 70.3312 71.5525 70.3312C82.9141 70.3312 92.1225 75.6452 92.1225 82.1973Z" fill="url(#paint24_linear_1_2364)"/>
<path style="mix-blend-mode:screen" d="M72.2253 70.9214C83.2216 70.9214 92.1609 75.8926 92.7376 82.159C92.7568 81.9495 92.7953 81.74 92.7953 81.5305C92.7953 74.9784 83.5869 69.6643 72.2253 69.6643C60.8638 69.6643 51.6553 74.9784 51.6553 81.5305C51.6553 81.74 51.6938 81.9495 51.713 82.159C52.2897 75.9117 61.229 70.9214 72.2253 70.9214Z" fill="url(#paint25_radial_1_2364)"/>
<path style="mix-blend-mode:multiply" d="M71.5525 71.6072C82.5488 71.6072 91.4881 76.5784 92.0649 82.8448C92.0841 82.6353 92.1225 82.4258 92.1225 82.2163C92.1225 75.6642 82.9141 70.3501 71.5525 70.3501C60.191 70.3501 50.9826 75.6642 50.9826 82.2163C50.9826 82.4258 51.021 82.6353 51.0402 82.8448C51.617 76.5975 60.5563 71.6072 71.5525 71.6072Z" fill="url(#paint26_linear_1_2364)"/>
<path style="mix-blend-mode:color-dodge" d="M85.99 66.9028C92.1802 68.9789 96.3327 73.1311 95.2946 76.1786C94.2565 79.207 88.3931 79.9879 82.2221 77.8928C76.0318 75.8167 71.8794 71.6645 72.9175 68.617C73.9556 65.5695 79.819 64.8076 85.99 66.9028Z" fill="url(#paint27_radial_1_2364)"/>
<g style="mix-blend-mode:multiply">
<path d="M73.1289 78.464C72.6098 78.5592 72.0908 78.6735 71.5332 78.8258C71.0526 78.9401 70.5528 79.0925 70.0145 79.2639C69.4762 79.4353 68.9572 79.6258 68.4574 79.8544L70.1106 80.8067C70.2644 80.7496 70.4567 80.6734 70.6489 80.6162C70.8412 80.5591 71.0526 80.4829 71.2449 80.4067C72.1869 80.0829 73.0712 79.7972 73.8978 79.5877C74.7245 79.3591 75.5127 79.2258 76.2432 79.1496C76.9737 79.0734 77.6658 79.0925 78.3194 79.2068C78.973 79.3211 79.6074 79.5496 80.2226 79.8925C80.9531 80.3115 81.3953 80.7496 81.5875 81.2257C81.7798 81.7019 81.7798 82.1781 81.5875 82.6543C81.3953 83.1304 81.0493 83.6066 80.5494 84.0828C80.0496 84.5589 79.4729 84.997 78.8 85.4351L81.03 86.7112L79.1845 87.7588L76.916 86.4636C75.7818 87.035 74.5515 87.5302 73.2634 87.9874C71.9562 88.4445 70.6874 88.7873 69.4763 89.0349L68.2843 86.1208C68.8995 86.0065 69.5531 85.8541 70.2068 85.6827C70.7643 85.5494 71.3795 85.3589 72.0715 85.1494C72.7636 84.9399 73.398 84.6923 74.0132 84.4066L72.3983 83.4733C71.8216 83.6828 71.2257 83.8923 70.6105 84.1018C69.6877 84.4066 68.8611 84.6351 68.1113 84.8066C67.3616 84.978 66.6695 85.0732 66.0543 85.1113C65.4199 85.1494 64.8432 85.1113 64.3241 84.978C63.7859 84.8637 63.286 84.6732 62.8054 84.3875C62.1518 84.0066 61.6904 83.5876 61.4597 83.1495C61.229 82.6923 61.1714 82.2352 61.2867 81.7591C61.4021 81.2829 61.652 80.7877 62.0749 80.2924C62.4978 79.7972 63.0361 79.3401 63.6897 78.883L61.8442 77.8164L63.6897 76.7497L65.5545 77.8164C66.112 77.5497 66.6695 77.3211 67.2462 77.0926C67.823 76.8831 68.3997 76.6735 68.9572 76.5021C69.5339 76.3307 70.0722 76.1593 70.5913 76.026C71.1103 75.8926 71.6101 75.7593 72.0523 75.645L73.0712 78.4449L73.1289 78.464ZM66.9194 81.3781C67.1117 81.4924 67.3231 81.5305 67.5923 81.5114C67.8614 81.4924 68.2074 81.4162 68.6112 81.3019L67.2078 80.502C66.6503 80.8829 66.5542 81.1876 66.9002 81.3972L66.9194 81.3781ZM75.7626 82.8447C75.5896 82.7495 75.3589 82.7114 75.0321 82.7495C74.7245 82.7876 74.3592 82.8638 73.9555 82.9781L75.3204 83.759C75.6665 83.5304 75.8587 83.3399 75.9164 83.2066C75.9741 83.0542 75.9164 82.94 75.7626 82.8447Z" fill="url(#paint28_linear_1_2364)"/>
</g>
<path d="M73.1289 77.7784C72.6098 77.8736 72.0908 77.9879 71.5332 78.1403C71.0526 78.2546 70.5528 78.4069 70.0145 78.5784C69.4762 78.7498 68.9572 78.9403 68.4574 79.1688L70.1106 80.1212C70.2644 80.064 70.4567 79.9878 70.6489 79.9307C70.8412 79.8735 71.0526 79.7974 71.2449 79.7212C72.1869 79.3974 73.0712 79.1117 73.8978 78.9022C74.7245 78.6736 75.5127 78.5403 76.2432 78.4641C76.9737 78.3879 77.6658 78.4069 78.3194 78.5212C78.973 78.6355 79.6074 78.8641 80.2226 79.2069C80.9531 79.6259 81.3953 80.064 81.5875 80.5402C81.7798 81.0164 81.7798 81.4925 81.5875 81.9687C81.3953 82.4449 81.0493 82.921 80.5494 83.3972C80.0496 83.8734 79.4729 84.3115 78.8 84.7495L81.03 86.0257L79.1845 87.0923L76.916 85.7971C75.7818 86.3685 74.5515 86.8637 73.2634 87.3209C71.9562 87.778 70.6874 88.1208 69.4763 88.3684L68.2843 85.4543C68.8995 85.34 69.5531 85.1876 70.2068 85.0162C70.7643 84.8829 71.3795 84.6924 72.0715 84.4829C72.7636 84.2734 73.398 84.0258 74.0132 83.7401L72.3983 82.8068C71.8216 83.0163 71.2257 83.2258 70.6105 83.4353C69.6877 83.7401 68.8611 83.9686 68.1113 84.14C67.3616 84.3115 66.6695 84.4067 66.0543 84.4448C65.4199 84.4829 64.8432 84.4448 64.3241 84.3115C63.7859 84.1972 63.286 84.0067 62.8054 83.721C62.1518 83.3401 61.6904 82.921 61.4597 82.483C61.229 82.0258 61.1714 81.5687 61.2867 81.0925C61.4021 80.6164 61.652 80.1212 62.0749 79.6259C62.4978 79.1307 63.0361 78.6736 63.6897 78.2165L61.8442 77.1499L63.6897 76.0832L65.5545 77.1499C66.112 76.8832 66.6695 76.6546 67.2462 76.4261C67.823 76.2166 68.3997 76.007 68.9572 75.8356C69.5147 75.6642 70.0722 75.4928 70.5913 75.3595C71.1103 75.2261 71.6101 75.0928 72.0523 74.9785L73.0712 77.7784H73.1289ZM66.9194 80.6926C67.1117 80.8068 67.3231 80.8449 67.5923 80.8259C67.8614 80.8068 68.2074 80.7307 68.6112 80.6164L67.2078 79.8164C66.6503 80.1973 66.5542 80.5021 66.9002 80.7116L66.9194 80.6926ZM75.7626 82.1592C75.5896 82.0639 75.3589 82.0258 75.0321 82.0639C74.7245 82.102 74.3592 82.1782 73.9555 82.2925L75.3204 83.0734C75.6665 82.8449 75.8587 82.6544 75.9164 82.5211C75.9741 82.3687 75.9164 82.2544 75.7626 82.1592Z" fill="url(#paint29_linear_1_2364)"/>
<path style="mix-blend-mode:color-dodge" d="M73.1289 77.7784C72.6098 77.8736 72.0908 77.9879 71.5332 78.1403C71.0526 78.2546 70.5528 78.4069 70.0145 78.5784C69.4762 78.7498 68.9572 78.9403 68.4574 79.1688L70.1106 80.1212C70.2644 80.064 70.4567 79.9878 70.6489 79.9307C70.8412 79.8735 71.0526 79.7974 71.2449 79.7212C72.1869 79.3974 73.0712 79.1117 73.8978 78.9022C74.7245 78.6736 75.5127 78.5403 76.2432 78.4641C76.9737 78.3879 77.6658 78.4069 78.3194 78.5212C78.973 78.6355 79.6074 78.8641 80.2226 79.2069C80.9531 79.6259 81.3953 80.064 81.5875 80.5402C81.7798 81.0164 81.7798 81.4925 81.5875 81.9687C81.3953 82.4449 81.0493 82.921 80.5494 83.3972C80.0496 83.8734 79.4729 84.3115 78.8 84.7495L81.03 86.0257L79.1845 87.0923L76.916 85.7971C75.7818 86.3685 74.5515 86.8637 73.2634 87.3209C71.9562 87.778 70.6874 88.1208 69.4763 88.3684L68.2843 85.4543C68.8995 85.34 69.5531 85.1876 70.2068 85.0162C70.7643 84.8829 71.3795 84.6924 72.0715 84.4829C72.7636 84.2734 73.398 84.0258 74.0132 83.7401L72.3983 82.8068C71.8216 83.0163 71.2257 83.2258 70.6105 83.4353C69.6877 83.7401 68.8611 83.9686 68.1113 84.14C67.3616 84.3115 66.6695 84.4067 66.0543 84.4448C65.4199 84.4829 64.8432 84.4448 64.3241 84.3115C63.7859 84.1972 63.286 84.0067 62.8054 83.721C62.1518 83.3401 61.6904 82.921 61.4597 82.483C61.229 82.0258 61.1714 81.5687 61.2867 81.0925C61.4021 80.6164 61.652 80.1212 62.0749 79.6259C62.4978 79.1307 63.0361 78.6736 63.6897 78.2165L61.8442 77.1499L63.6897 76.0832L65.5545 77.1499C66.112 76.8832 66.6695 76.6546 67.2462 76.4261C67.823 76.2166 68.3997 76.007 68.9572 75.8356C69.5147 75.6642 70.0722 75.4928 70.5913 75.3595C71.1103 75.2261 71.6101 75.0928 72.0523 74.9785L73.0712 77.7784H73.1289ZM66.9194 80.6926C67.1117 80.8068 67.3231 80.8449 67.5923 80.8259C67.8614 80.8068 68.2074 80.7307 68.6112 80.6164L67.2078 79.8164C66.6503 80.1973 66.5542 80.5021 66.9002 80.7116L66.9194 80.6926ZM75.7626 82.1592C75.5896 82.0639 75.3589 82.0258 75.0321 82.0639C74.7245 82.102 74.3592 82.1782 73.9555 82.2925L75.3204 83.0734C75.6665 82.8449 75.8587 82.6544 75.9164 82.5211C75.9741 82.3687 75.9164 82.2544 75.7626 82.1592Z" fill="url(#paint30_radial_1_2364)"/>
<path d="M99.0624 73.0166H44.0425V80.7115C44.0425 80.7115 44.0425 80.8639 44.0425 80.921C44.0425 89.6826 56.3653 96.787 71.5525 96.787C86.7396 96.787 99.0624 89.6826 99.0624 80.921C99.0624 80.8448 99.0624 80.7687 99.0624 80.7115V73.0166Z" fill="url(#paint31_linear_1_2364)"/>
<g style="mix-blend-mode:multiply">
<path d="M71.5523 95.111C56.3652 95.111 44.0424 88.0065 44.0424 79.245V80.7306C44.0424 80.7306 44.0424 80.883 44.0424 80.9402C44.0424 89.7017 56.3652 96.8062 71.5523 96.8062C86.7395 96.8062 99.0623 89.7017 99.0623 80.9402C99.0623 80.864 99.0623 80.7878 99.0623 80.7306V79.245C99.0623 88.0065 86.7395 95.111 71.5523 95.111Z" fill="url(#paint32_linear_1_2364)"/>
</g>
<path d="M71.5525 88.9969C86.7458 88.9969 99.0624 81.8934 99.0624 73.1309C99.0624 64.3683 86.7458 57.2649 71.5525 57.2649C56.3591 57.2649 44.0425 64.3683 44.0425 73.1309C44.0425 81.8934 56.3591 88.9969 71.5525 88.9969Z" fill="url(#paint33_linear_1_2364)"/>
<path style="mix-blend-mode:screen" d="M71.5525 88.5781C56.6729 88.5781 44.6 81.7593 44.081 73.2644C44.081 73.4549 44.0425 73.6263 44.0425 73.8168C44.0425 82.5783 56.3653 89.6828 71.5525 89.6828C86.7396 89.6828 99.0624 82.5783 99.0624 73.8168C99.0624 73.6263 99.024 73.4549 99.024 73.2644C98.5241 81.7783 86.432 88.5781 71.5525 88.5781Z" fill="url(#paint34_radial_1_2364)"/>
<path d="M71.5525 84.9971C82.913 84.9971 92.1225 79.6844 92.1225 73.1309C92.1225 66.5774 82.913 61.2648 71.5525 61.2648C60.1921 61.2648 50.9826 66.5774 50.9826 73.1309C50.9826 79.6844 60.1921 84.9971 71.5525 84.9971Z" fill="url(#paint35_linear_1_2364)"/>
<path style="mix-blend-mode:screen" d="M72.2253 61.8554C83.2216 61.8554 92.1609 66.8266 92.7376 73.093C92.7568 72.8835 92.7953 72.674 92.7953 72.4644C92.7953 65.9123 83.5869 60.5983 72.2253 60.5983C60.8638 60.5983 51.6553 65.9123 51.6553 72.4644C51.6553 72.674 51.6938 72.8835 51.713 73.093C52.2897 66.8456 61.229 61.8554 72.2253 61.8554Z" fill="url(#paint36_radial_1_2364)"/>
<path style="mix-blend-mode:multiply" d="M71.5525 62.541C82.5488 62.541 91.4881 67.5122 92.0649 73.7786C92.0841 73.5691 92.1225 73.3596 92.1225 73.1501C92.1225 66.598 82.9141 61.2839 71.5525 61.2839C60.191 61.2839 50.9826 66.598 50.9826 73.1501C50.9826 73.3596 51.021 73.5691 51.0402 73.7786C51.617 67.5313 60.5563 62.541 71.5525 62.541Z" fill="url(#paint37_linear_1_2364)"/>
<path style="mix-blend-mode:color-dodge" d="M85.99 57.8363C92.1802 59.9125 96.3327 64.0647 95.2946 67.1121C94.2565 70.1406 88.3931 70.9215 82.2221 68.8264C76.0318 66.7503 71.8794 62.5981 72.9175 59.5506C73.9556 56.5221 79.819 55.7412 85.99 57.8363Z" fill="url(#paint38_radial_1_2364)"/>
<g style="mix-blend-mode:multiply">
<path d="M73.1289 69.4168C72.6098 69.5121 72.0908 69.6263 71.5332 69.7787C71.0526 69.893 70.5528 70.0454 70.0145 70.2168C69.4762 70.3882 68.9572 70.5787 68.4574 70.8072L70.1106 71.7596C70.2644 71.7024 70.4567 71.6263 70.6489 71.5691C70.8412 71.512 71.0526 71.4358 71.2449 71.3596C72.1869 71.0358 73.0712 70.7501 73.8978 70.5406C74.7245 70.312 75.5127 70.1787 76.2432 70.1025C76.9737 70.0263 77.6658 70.0454 78.3194 70.1597C78.973 70.2739 79.6074 70.5025 80.2226 70.8453C80.9531 71.2644 81.3953 71.7024 81.5875 72.1786C81.7798 72.6548 81.7798 73.131 81.5875 73.6071C81.3953 74.0833 81.0493 74.5595 80.5494 75.0356C80.0496 75.5118 79.4729 75.9499 78.8 76.388L81.03 77.6641L79.1845 78.7117L76.916 77.4165C75.7818 77.9879 74.5515 78.4831 73.2634 78.9402C71.9562 79.3974 70.6874 79.7402 69.4763 79.9878L68.2843 77.0736C68.8995 76.9594 69.5531 76.807 70.2068 76.6356C70.7643 76.5022 71.3795 76.3118 72.0715 76.1023C72.7636 75.8927 73.398 75.6451 74.0132 75.3594L72.3983 74.4261C71.8216 74.6357 71.2257 74.8452 70.6105 75.0547C69.6877 75.3594 68.8611 75.588 68.1113 75.7594C67.3616 75.9308 66.6695 76.0261 66.0543 76.0642C65.4199 76.1023 64.8432 76.0642 64.3241 75.9308C63.7859 75.8166 63.286 75.6261 62.8054 75.3404C62.1518 74.9594 61.6904 74.5404 61.4597 74.1023C61.229 73.6452 61.1714 73.1881 61.2867 72.7119C61.4021 72.2358 61.652 71.7405 62.0749 71.2453C62.4978 70.7501 63.0361 70.293 63.6897 69.8359L61.8442 68.7692L63.6897 67.7217L65.5545 68.7883C66.112 68.5216 66.6695 68.2931 67.2462 68.0645C67.823 67.855 68.3997 67.6455 68.9572 67.4741C69.5147 67.3026 70.0722 67.1312 70.5913 66.9979C71.1103 66.8646 71.6101 66.7312 72.0523 66.6169L73.0712 69.4168H73.1289ZM66.9194 72.331C67.1117 72.4453 67.3231 72.4834 67.5923 72.4643C67.8614 72.4453 68.2074 72.3691 68.6112 72.2548L67.2078 71.4548C66.6503 71.8358 66.5542 72.1405 66.9002 72.331H66.9194ZM75.7626 73.7976C75.5896 73.7024 75.3589 73.6643 75.0321 73.7024C74.7245 73.7405 74.3592 73.8166 73.9555 73.9309L75.3204 74.7118C75.6665 74.4833 75.8587 74.2928 75.9164 74.1595C75.9741 74.0071 75.9164 73.8928 75.7626 73.7976Z" fill="url(#paint39_linear_1_2364)"/>
</g>
<path d="M73.1289 68.7312C72.6098 68.8264 72.0908 68.9407 71.5332 69.093C71.0526 69.2073 70.5528 69.3597 70.0145 69.5311C69.4762 69.7025 68.9572 69.893 68.4574 70.1216L70.1106 71.0739C70.2644 71.0168 70.4567 70.9406 70.6489 70.8834C70.8412 70.8263 71.0526 70.7501 71.2449 70.6739C72.1869 70.3501 73.0712 70.0644 73.8978 69.8549C74.7245 69.6264 75.5127 69.493 76.2432 69.4168C76.9737 69.3407 77.6658 69.3597 78.3194 69.474C78.973 69.5883 79.6074 69.8168 80.2226 70.1597C80.9531 70.5787 81.3953 71.0168 81.5875 71.4929C81.7798 71.9691 81.7798 72.4453 81.5875 72.9215C81.3953 73.3976 81.0493 73.8738 80.5494 74.35C80.0496 74.8261 79.4729 75.2642 78.8 75.7023L81.03 76.9784L79.1845 78.0451L76.916 76.7499C75.7818 77.3213 74.5515 77.8165 73.2634 78.2736C71.9562 78.7307 70.6874 79.0736 69.4763 79.3212L68.2843 76.407C68.8995 76.2927 69.5531 76.1404 70.2068 75.969C70.7643 75.8356 71.3795 75.6452 72.0715 75.4356C72.7636 75.2261 73.398 74.9785 74.0132 74.6928L72.3983 73.7595C71.8216 73.969 71.2257 74.1785 70.6105 74.3881C69.6877 74.6928 68.8611 74.9214 68.1113 75.0928C67.3616 75.2642 66.6695 75.3595 66.0543 75.3975C65.4199 75.4356 64.8432 75.3975 64.3241 75.2642C63.7859 75.1499 63.286 74.9595 62.8054 74.6738C62.1518 74.2928 61.6904 73.8738 61.4597 73.4357C61.229 72.9786 61.1714 72.5215 61.2867 72.0453C61.4021 71.5691 61.652 71.0739 62.0749 70.5787C62.4978 70.0835 63.0361 69.6264 63.6897 69.1692L61.8442 68.1026L63.6897 67.036L65.5545 68.1026C66.112 67.836 66.6695 67.6074 67.2462 67.3788C67.823 67.1693 68.3997 66.9598 68.9572 66.7884C69.5339 66.617 70.0722 66.4455 70.5913 66.3122C71.1103 66.1789 71.6101 66.0456 72.0523 65.9313L73.0712 68.7312H73.1289ZM66.9194 71.6453C67.1117 71.7596 67.3231 71.7977 67.5923 71.7786C67.8614 71.7596 68.2074 71.6834 68.6112 71.5691L67.2078 70.7692C66.6503 71.1501 66.5542 71.4549 66.9002 71.6453H66.9194ZM75.7626 73.1119C75.5896 73.0167 75.3589 72.9786 75.0321 73.0167C74.7245 73.0548 74.3592 73.131 73.9555 73.2453L75.3204 74.0262C75.6665 73.7976 75.8587 73.6071 75.9164 73.4738C75.9741 73.3214 75.9164 73.2072 75.7626 73.1119Z" fill="url(#paint40_linear_1_2364)"/>
<path style="mix-blend-mode:color-dodge" d="M73.1289 68.7312C72.6098 68.8264 72.0908 68.9407 71.5332 69.093C71.0526 69.2073 70.5528 69.3597 70.0145 69.5311C69.4762 69.7025 68.9572 69.893 68.4574 70.1216L70.1106 71.0739C70.2644 71.0168 70.4567 70.9406 70.6489 70.8834C70.8412 70.8263 71.0526 70.7501 71.2449 70.6739C72.1869 70.3501 73.0712 70.0644 73.8978 69.8549C74.7245 69.6264 75.5127 69.493 76.2432 69.4168C76.9737 69.3407 77.6658 69.3597 78.3194 69.474C78.973 69.5883 79.6074 69.8168 80.2226 70.1597C80.9531 70.5787 81.3953 71.0168 81.5875 71.4929C81.7798 71.9691 81.7798 72.4453 81.5875 72.9215C81.3953 73.3976 81.0493 73.8738 80.5494 74.35C80.0496 74.8261 79.4729 75.2642 78.8 75.7023L81.03 76.9784L79.1845 78.0451L76.916 76.7499C75.7818 77.3213 74.5515 77.8165 73.2634 78.2736C71.9562 78.7307 70.6874 79.0736 69.4763 79.3212L68.2843 76.407C68.8995 76.2927 69.5531 76.1404 70.2068 75.969C70.7643 75.8356 71.3795 75.6452 72.0715 75.4356C72.7636 75.2261 73.398 74.9785 74.0132 74.6928L72.3983 73.7595C71.8216 73.969 71.2257 74.1785 70.6105 74.3881C69.6877 74.6928 68.8611 74.9214 68.1113 75.0928C67.3616 75.2642 66.6695 75.3595 66.0543 75.3975C65.4199 75.4356 64.8432 75.3975 64.3241 75.2642C63.7859 75.1499 63.286 74.9595 62.8054 74.6738C62.1518 74.2928 61.6904 73.8738 61.4597 73.4357C61.229 72.9786 61.1714 72.5215 61.2867 72.0453C61.4021 71.5691 61.652 71.0739 62.0749 70.5787C62.4978 70.0835 63.0361 69.6264 63.6897 69.1692L61.8442 68.1026L63.6897 67.036L65.5545 68.1026C66.112 67.836 66.6695 67.6074 67.2462 67.3788C67.823 67.1693 68.3997 66.9598 68.9572 66.7884C69.5339 66.617 70.0722 66.4455 70.5913 66.3122C71.1103 66.1789 71.6101 66.0456 72.0523 65.9313L73.0712 68.7312H73.1289ZM66.9194 71.6453C67.1117 71.7596 67.3231 71.7977 67.5923 71.7786C67.8614 71.7596 68.2074 71.6834 68.6112 71.5691L67.2078 70.7692C66.6503 71.1501 66.5542 71.4549 66.9002 71.6453H66.9194ZM75.7626 73.1119C75.5896 73.0167 75.3589 72.9786 75.0321 73.0167C74.7245 73.0548 74.3592 73.131 73.9555 73.2453L75.3204 74.0262C75.6665 73.7976 75.8587 73.6071 75.9164 73.4738C75.9741 73.3214 75.9164 73.2072 75.7626 73.1119Z" fill="url(#paint41_radial_1_2364)"/>
<path d="M99.0624 63.8361H44.0425V71.531C44.0425 71.531 44.0425 71.6833 44.0425 71.7405C44.0425 80.502 56.3653 87.6065 71.5525 87.6065C86.7396 87.6065 99.0624 80.502 99.0624 71.7405C99.0624 71.6643 99.0624 71.5881 99.0624 71.531V63.8361Z" fill="url(#paint42_linear_1_2364)"/>
<g style="mix-blend-mode:multiply">
<path d="M71.5523 85.9112C56.3652 85.9112 44.0424 78.8067 44.0424 70.0452V71.5308C44.0424 71.5308 44.0424 71.6832 44.0424 71.7403C44.0424 80.5019 56.3652 87.6063 71.5523 87.6063C86.7395 87.6063 99.0623 80.5019 99.0623 71.7403C99.0623 71.6641 99.0623 71.588 99.0623 71.5308V70.0452C99.0623 78.8067 86.7395 85.9112 71.5523 85.9112Z" fill="url(#paint43_linear_1_2364)"/>
</g>
<path d="M71.5525 79.7972C86.7458 79.7972 99.0624 72.6937 99.0624 63.9312C99.0624 55.1686 86.7458 48.0652 71.5525 48.0652C56.3591 48.0652 44.0425 55.1686 44.0425 63.9312C44.0425 72.6937 56.3591 79.7972 71.5525 79.7972Z" fill="url(#paint44_linear_1_2364)"/>
<path style="mix-blend-mode:screen" d="M71.5525 79.3782C56.6729 79.3782 44.6 72.5595 44.081 64.0646C44.081 64.255 44.0425 64.4265 44.0425 64.6169C44.0425 73.3785 56.3653 80.4829 71.5525 80.4829C86.7396 80.4829 99.0624 73.3785 99.0624 64.6169C99.0624 64.4265 99.024 64.255 99.024 64.0646C98.5241 72.5785 86.432 79.3782 71.5525 79.3782Z" fill="url(#paint45_radial_1_2364)"/>
<path d="M92.1225 63.9314C92.1225 70.4835 82.9141 75.7975 71.5525 75.7975C60.191 75.7975 50.9826 70.4835 50.9826 63.9314C50.9826 57.3792 60.191 52.0652 71.5525 52.0652C82.9141 52.0652 92.1225 57.3792 92.1225 63.9314Z" fill="url(#paint46_linear_1_2364)"/>
<path style="mix-blend-mode:screen" d="M72.2253 52.6555C83.2216 52.6555 92.1609 57.6268 92.7376 63.8932C92.7568 63.6836 92.7953 63.4741 92.7953 63.2646C92.7953 56.7125 83.5869 51.3984 72.2253 51.3984C60.8638 51.3984 51.6553 56.7125 51.6553 63.2646C51.6553 63.4741 51.6938 63.6836 51.713 63.8932C52.2897 57.6458 61.229 52.6555 72.2253 52.6555Z" fill="url(#paint47_radial_1_2364)"/>
<path style="mix-blend-mode:multiply" d="M71.5525 53.3413C82.5488 53.3413 91.4881 58.3125 92.0649 64.5789C92.0841 64.3694 92.1225 64.1599 92.1225 63.9504C92.1225 57.3983 82.9141 52.0842 71.5525 52.0842C60.191 52.0842 50.9826 57.3983 50.9826 63.9504C50.9826 64.1599 51.021 64.3694 51.0402 64.5789C51.617 58.3316 60.5563 53.3413 71.5525 53.3413Z" fill="url(#paint48_linear_1_2364)"/>
<g style="mix-blend-mode:multiply">
<path d="M73.1289 60.2174C72.6098 60.3126 72.0908 60.4269 71.5332 60.5793C71.0526 60.6935 70.5528 60.8459 70.0145 61.0173C69.4762 61.1888 68.9572 61.3792 68.4574 61.6078L70.1106 62.5601C70.2644 62.503 70.4567 62.4268 70.6489 62.3697C70.8412 62.3125 71.0526 62.2363 71.2449 62.1601C72.1869 61.8363 73.0712 61.5506 73.8978 61.3411C74.7245 61.1126 75.5127 60.9792 76.2432 60.9031C76.9737 60.8269 77.6658 60.8459 78.3194 60.9602C78.973 61.0745 79.6074 61.303 80.2226 61.6459C80.9531 62.0649 81.3953 62.503 81.5875 62.9792C81.7798 63.4553 81.7798 63.9315 81.5875 64.4077C81.3953 64.8838 81.0493 65.36 80.5494 65.8362C80.0496 66.3124 79.4729 66.7504 78.8 67.1885L81.03 68.4646L79.1845 69.5313L76.916 68.2361C75.7818 68.8075 74.5515 69.3027 73.2634 69.7598C71.9562 70.2169 70.6874 70.5598 69.4763 70.8074L68.2843 67.8932C68.8995 67.779 69.5531 67.6266 70.2068 67.4552C70.7643 67.3218 71.3795 67.1314 72.0715 66.9218C72.7636 66.7123 73.398 66.4647 74.0132 66.179L72.3983 65.2457C71.8216 65.4552 71.2257 65.6648 70.6105 65.8743C69.6877 66.179 68.8611 66.4076 68.1113 66.579C67.3616 66.7504 66.6695 66.8457 66.0543 66.8838C65.4199 66.9218 64.8432 66.8838 64.3241 66.7504C63.7859 66.6361 63.286 66.4457 62.8054 66.16C62.1518 65.779 61.6904 65.36 61.4597 64.9219C61.229 64.4648 61.1714 64.0077 61.2867 63.5315C61.4021 63.0553 61.652 62.5601 62.0749 62.0649C62.4978 61.5697 63.0361 61.1126 63.6897 60.6554L61.8442 59.5888L63.6897 58.5222L65.5545 59.5888C66.112 59.3222 66.6695 59.0936 67.2462 58.865C67.823 58.6555 68.3997 58.446 68.9572 58.2746C69.5147 58.1032 70.0722 57.9317 70.5913 57.7984C71.1103 57.6651 71.6101 57.5318 72.0523 57.4175L73.0712 60.2174H73.1289ZM66.9194 63.1315C67.1117 63.2458 67.3231 63.2839 67.5923 63.2649C67.8614 63.2458 68.2074 63.1696 68.6112 63.0553L67.2078 62.2554C66.6503 62.6363 66.5542 62.9411 66.9002 63.1506L66.9194 63.1315ZM75.7626 64.5981C75.5896 64.5029 75.3589 64.4648 75.0321 64.5029C74.7245 64.541 74.3592 64.6172 73.9555 64.7315L75.3204 65.5124C75.6665 65.2838 75.8587 65.0934 75.9164 64.96C75.9741 64.8077 75.9164 64.6934 75.7626 64.5981Z" fill="url(#paint49_linear_1_2364)"/>
</g>
<path d="M73.1289 59.5316C72.6098 59.6268 72.0908 59.7411 71.5332 59.8935C71.0526 60.0078 70.5528 60.1601 70.0145 60.3315C69.4762 60.503 68.9572 60.6934 68.4574 60.9029L70.1106 61.8553C70.2644 61.7981 70.4567 61.722 70.6489 61.6648C70.8412 61.6077 71.0526 61.5315 71.2449 61.4553C72.1869 61.1315 73.0712 60.8458 73.8978 60.6363C74.7245 60.4077 75.5127 60.2744 76.2432 60.1982C76.9737 60.122 77.6658 60.1411 78.3194 60.2554C78.973 60.3696 79.6074 60.5982 80.2226 60.941C80.9531 61.3601 81.3953 61.7982 81.5875 62.2743C81.7798 62.7505 81.7798 63.2267 81.5875 63.7028C81.3953 64.179 81.0493 64.6552 80.5494 65.1313C80.0496 65.6075 79.4729 66.0456 78.8 66.4837L81.03 67.7598L79.1845 68.8074L76.916 67.5122C75.7818 68.0836 74.5515 68.5788 73.2634 69.0359C71.9562 69.4931 70.6874 69.8359 69.4763 70.0835L68.2843 67.1694C68.8995 67.0551 69.5531 66.9027 70.2068 66.7313C70.7643 66.5979 71.3795 66.4075 72.0715 66.198C72.7636 65.9884 73.398 65.7408 74.0132 65.4551L72.3983 64.5218C71.8216 64.7314 71.2257 64.9409 70.6105 65.1504C69.6877 65.4551 68.8611 65.6837 68.1113 65.8551C67.3616 66.0265 66.6695 66.1218 66.0543 66.1599C65.4199 66.198 64.8432 66.1599 64.3241 66.0265C63.7859 65.9123 63.286 65.7218 62.8054 65.4361C62.1518 65.0552 61.6904 64.6361 61.4597 64.198C61.229 63.7409 61.1714 63.2838 61.2867 62.8076C61.4021 62.3315 61.652 61.8362 62.0749 61.341C62.4978 60.8458 63.0361 60.3887 63.6897 59.9316L61.8442 58.8649L63.6897 57.8174L65.5545 58.884C66.112 58.6173 66.6695 58.3888 67.2462 58.1602C67.823 57.9507 68.3997 57.7412 68.9572 57.5698C69.5147 57.3983 70.0722 57.2269 70.5913 57.0936C71.1103 56.9603 71.6101 56.8269 72.0523 56.7126L73.0712 59.5125L73.1289 59.5316ZM66.9194 62.4457C67.1117 62.56 67.3231 62.5981 67.5923 62.5791C67.8614 62.56 68.2074 62.4838 68.6112 62.3696L67.2078 61.5696C66.6503 61.9505 66.5542 62.2553 66.9002 62.4457H66.9194ZM75.7626 63.9123C75.5896 63.8171 75.3589 63.779 75.0321 63.8171C74.7245 63.8552 74.3592 63.9314 73.9555 64.0457L75.3204 64.8266C75.6665 64.598 75.8587 64.4076 75.9164 64.2742C75.9741 64.1219 75.9164 64.0076 75.7626 63.9123Z" fill="url(#paint50_linear_1_2364)"/>
<path style="mix-blend-mode:color-dodge" d="M73.1289 59.5316C72.6098 59.6268 72.0908 59.7411 71.5332 59.8935C71.0526 60.0078 70.5528 60.1601 70.0145 60.3315C69.4762 60.503 68.9572 60.6934 68.4574 60.9029L70.1106 61.8553C70.2644 61.7981 70.4567 61.722 70.6489 61.6648C70.8412 61.6077 71.0526 61.5315 71.2449 61.4553C72.1869 61.1315 73.0712 60.8458 73.8978 60.6363C74.7245 60.4077 75.5127 60.2744 76.2432 60.1982C76.9737 60.122 77.6658 60.1411 78.3194 60.2554C78.973 60.3696 79.6074 60.5982 80.2226 60.941C80.9531 61.3601 81.3953 61.7982 81.5875 62.2743C81.7798 62.7505 81.7798 63.2267 81.5875 63.7028C81.3953 64.179 81.0493 64.6552 80.5494 65.1313C80.0496 65.6075 79.4729 66.0456 78.8 66.4837L81.03 67.7598L79.1845 68.8074L76.916 67.5122C75.7818 68.0836 74.5515 68.5788 73.2634 69.0359C71.9562 69.4931 70.6874 69.8359 69.4763 70.0835L68.2843 67.1694C68.8995 67.0551 69.5531 66.9027 70.2068 66.7313C70.7643 66.5979 71.3795 66.4075 72.0715 66.198C72.7636 65.9884 73.398 65.7408 74.0132 65.4551L72.3983 64.5218C71.8216 64.7314 71.2257 64.9409 70.6105 65.1504C69.6877 65.4551 68.8611 65.6837 68.1113 65.8551C67.3616 66.0265 66.6695 66.1218 66.0543 66.1599C65.4199 66.198 64.8432 66.1599 64.3241 66.0265C63.7859 65.9123 63.286 65.7218 62.8054 65.4361C62.1518 65.0552 61.6904 64.6361 61.4597 64.198C61.229 63.7409 61.1714 63.2838 61.2867 62.8076C61.4021 62.3315 61.652 61.8362 62.0749 61.341C62.4978 60.8458 63.0361 60.3887 63.6897 59.9316L61.8442 58.8649L63.6897 57.8174L65.5545 58.884C66.112 58.6173 66.6695 58.3888 67.2462 58.1602C67.823 57.9507 68.3997 57.7412 68.9572 57.5698C69.5147 57.3983 70.0722 57.2269 70.5913 57.0936C71.1103 56.9603 71.6101 56.8269 72.0523 56.7126L73.0712 59.5125L73.1289 59.5316ZM66.9194 62.4457C67.1117 62.56 67.3231 62.5981 67.5923 62.5791C67.8614 62.56 68.2074 62.4838 68.6112 62.3696L67.2078 61.5696C66.6503 61.9505 66.5542 62.2553 66.9002 62.4457H66.9194ZM75.7626 63.9123C75.5896 63.8171 75.3589 63.779 75.0321 63.8171C74.7245 63.8552 74.3592 63.9314 73.9555 64.0457L75.3204 64.8266C75.6665 64.598 75.8587 64.4076 75.9164 64.2742C75.9741 64.1219 75.9164 64.0076 75.7626 63.9123Z" fill="url(#paint51_radial_1_2364)"/>
<path d="M55.0388 106.711H0.0189514V114.405C0.0189514 114.405 0.0189514 114.558 0.0189514 114.615C0.0189514 123.377 12.3417 130.481 27.5289 130.481C42.7161 130.481 55.0388 123.377 55.0388 114.615C55.0388 114.539 55.0388 114.463 55.0388 114.405V106.711Z" fill="url(#paint52_linear_1_2364)"/>
<g style="mix-blend-mode:multiply">
<path d="M27.5289 128.805C12.3417 128.805 0.0189514 121.7 0.0189514 112.939V114.424C0.0189514 114.424 0.0189514 114.577 0.0189514 114.634C0.0189514 123.395 12.3417 130.5 27.5289 130.5C42.7161 130.5 55.0388 123.395 55.0388 114.634C55.0388 114.558 55.0388 114.482 55.0388 114.424V112.939C55.0388 121.7 42.7161 128.805 27.5289 128.805Z" fill="url(#paint53_linear_1_2364)"/>
</g>
<path d="M27.5289 122.691C42.7222 122.691 55.0388 115.587 55.0388 106.825C55.0388 98.0622 42.7222 90.9587 27.5289 90.9587C12.3356 90.9587 0.0189514 98.0622 0.0189514 106.825C0.0189514 115.587 12.3356 122.691 27.5289 122.691Z" fill="url(#paint54_linear_1_2364)"/>
<path style="mix-blend-mode:screen" d="M27.5289 122.272C12.6493 122.272 0.576484 115.453 0.0574287 106.958C0.0574287 107.149 -0.000244141 107.32 -0.000244141 107.51C-0.000244141 116.272 12.3225 123.376 27.5097 123.376C42.6969 123.376 55.0196 116.272 55.0196 107.51C55.0196 107.32 54.9812 107.149 54.9812 106.958C54.4814 115.472 42.3893 122.272 27.5097 122.272H27.5289Z" fill="url(#paint55_radial_1_2364)"/>
<path d="M48.099 106.825C48.099 113.377 38.8905 118.691 27.529 118.691C16.1674 118.691 6.95901 113.377 6.95901 106.825C6.95901 100.273 16.1674 94.9587 27.529 94.9587C38.8905 94.9587 48.099 100.273 48.099 106.825Z" fill="url(#paint56_linear_1_2364)"/>
<path style="mix-blend-mode:screen" d="M28.221 95.5491C39.2172 95.5491 48.1565 100.52 48.7333 106.787C48.7525 106.577 48.7909 106.368 48.7909 106.158C48.7909 99.6061 39.5825 94.292 28.221 94.292C16.8594 94.292 7.65097 99.6061 7.65097 106.158C7.65097 106.368 7.68942 106.577 7.70864 106.787C8.28537 100.539 17.2247 95.5491 28.221 95.5491Z" fill="url(#paint57_radial_1_2364)"/>
<path style="mix-blend-mode:multiply" d="M27.529 96.2348C38.5253 96.2348 47.4646 101.206 48.0413 107.472C48.0605 107.263 48.099 107.053 48.099 106.844C48.099 100.292 38.8905 94.9777 27.529 94.9777C16.1674 94.9777 6.95901 100.292 6.95901 106.844C6.95901 107.053 6.99746 107.263 7.01669 107.472C7.59342 101.225 16.5327 96.2348 27.529 96.2348Z" fill="url(#paint58_linear_1_2364)"/>
<path style="mix-blend-mode:color-dodge" d="M41.9855 91.5302C48.1757 93.6063 52.3282 97.7585 51.2901 100.806C50.252 103.834 44.3886 104.615 38.2176 102.52C32.0274 100.444 27.8749 96.2919 28.913 93.2444C29.9511 90.216 35.8145 89.4351 41.9855 91.5302Z" fill="url(#paint59_radial_1_2364)"/>
<g style="mix-blend-mode:multiply">
<path d="M29.1245 103.092C28.6054 103.187 28.0864 103.301 27.5289 103.454C27.0483 103.568 26.5484 103.72 26.0102 103.892C25.4719 104.063 24.9528 104.253 24.453 104.482L26.1063 105.434C26.2601 105.377 26.4523 105.301 26.6446 105.244C26.8368 105.187 27.0483 105.111 27.2405 105.034C28.1825 104.711 29.0668 104.425 29.8935 104.215C30.7201 103.987 31.5083 103.853 32.2388 103.777C32.9694 103.701 33.6614 103.72 34.3151 103.834C34.9687 103.949 35.6031 104.177 36.2183 104.52C36.9488 104.939 37.3909 105.377 37.5832 105.853C37.7754 106.33 37.7754 106.806 37.5832 107.282C37.3909 107.758 37.0449 108.234 36.5451 108.71C36.0452 109.187 35.4685 109.625 34.7957 110.063L37.0257 111.339L35.1801 112.406L32.9117 111.11C31.7775 111.682 30.5471 112.177 29.2591 112.634C27.9518 113.091 26.683 113.434 25.4719 113.682L24.28 110.767C24.8952 110.653 25.5488 110.501 26.2024 110.329C26.7599 110.196 27.3751 110.006 28.0672 109.796C28.7592 109.587 29.3936 109.339 30.0088 109.053L28.394 108.12C27.8172 108.33 27.2213 108.539 26.6061 108.749C25.6834 109.053 24.8567 109.282 24.107 109.453C23.3572 109.625 22.6651 109.72 22.05 109.758C21.4156 109.796 20.8388 109.758 20.3198 109.625C19.7815 109.51 19.2817 109.32 18.8011 109.034C18.1474 108.653 17.6861 108.234 17.4554 107.796C17.2247 107.339 17.167 106.882 17.2823 106.406C17.3977 105.93 17.6476 105.434 18.0705 104.939C18.4935 104.444 19.0318 103.987 19.6854 103.53L17.8398 102.463L19.6854 101.415L21.5501 102.482C22.1076 102.215 22.6651 101.987 23.2419 101.758C23.8186 101.549 24.3953 101.339 24.9528 101.168C25.5296 100.996 26.0678 100.825 26.5869 100.692C27.1059 100.558 27.6058 100.425 28.0479 100.311L29.0668 103.111L29.1245 103.092ZM22.9151 106.006C23.1073 106.12 23.3188 106.158 23.5879 106.139C23.857 106.12 24.2031 106.044 24.6068 105.93L23.2034 105.13C22.6459 105.511 22.5498 105.815 22.8958 106.006H22.9151ZM31.7582 107.472C31.5852 107.377 31.3545 107.339 31.0277 107.377C30.7201 107.415 30.3549 107.491 29.9511 107.606L31.3161 108.387C31.6621 108.158 31.8543 107.968 31.912 107.834C31.9697 107.682 31.912 107.568 31.7582 107.472Z" fill="url(#paint60_linear_1_2364)"/>
</g>
<path d="M29.1245 102.425C28.6054 102.52 28.0864 102.634 27.5289 102.787C27.0483 102.901 26.5484 103.053 26.0102 103.225C25.4719 103.396 24.9528 103.587 24.453 103.815L26.1063 104.768C26.2601 104.71 26.4523 104.634 26.6446 104.577C26.8368 104.52 27.0483 104.444 27.2405 104.368C28.1825 104.044 29.0668 103.758 29.8935 103.549C30.7201 103.32 31.5083 103.187 32.2388 103.111C32.9694 103.034 33.6614 103.053 34.3151 103.168C34.9687 103.282 35.6031 103.511 36.2183 103.853C36.9488 104.272 37.3909 104.71 37.5832 105.187C37.7754 105.663 37.7754 106.139 37.5832 106.615C37.3909 107.091 37.0449 107.568 36.5451 108.044C36.0452 108.52 35.4685 108.958 34.7957 109.396L37.0257 110.672L35.1801 111.739L32.9117 110.444C31.7775 111.015 30.5471 111.51 29.2591 111.967C27.9518 112.424 26.683 112.767 25.4719 113.015L24.28 110.101C24.8952 109.986 25.5488 109.834 26.2024 109.663C26.7599 109.529 27.3751 109.339 28.0672 109.129C28.7592 108.92 29.3936 108.672 30.0088 108.387L28.394 107.453C27.8172 107.663 27.2213 107.872 26.6061 108.082C25.6834 108.387 24.8567 108.615 24.107 108.787C23.3572 108.958 22.6651 109.053 22.05 109.091C21.4156 109.129 20.8388 109.091 20.3198 108.958C19.7815 108.844 19.2817 108.653 18.8011 108.367C18.1474 107.987 17.6861 107.568 17.4554 107.129C17.2247 106.672 17.167 106.215 17.2823 105.739C17.3977 105.263 17.6476 104.768 18.0705 104.272C18.4935 103.777 19.0318 103.32 19.6854 102.863L17.8398 101.796L19.6854 100.73L21.5501 101.796C22.1076 101.53 22.6651 101.301 23.2419 101.073C23.8186 100.863 24.3953 100.654 24.9528 100.482C25.5296 100.311 26.0678 100.139 26.5869 100.006C27.1059 99.8726 27.6058 99.7393 28.0479 99.625L29.0668 102.425H29.1245ZM22.9151 105.339C23.1073 105.453 23.3188 105.491 23.5879 105.472C23.857 105.453 24.2031 105.377 24.6068 105.263L23.2034 104.463C22.6459 104.844 22.5498 105.149 22.8958 105.358L22.9151 105.339ZM31.7582 106.806C31.5852 106.71 31.3545 106.672 31.0277 106.71C30.7201 106.749 30.3549 106.825 29.9511 106.939L31.3161 107.72C31.6621 107.491 31.8543 107.301 31.912 107.168C31.9697 107.015 31.912 106.901 31.7582 106.806Z" fill="url(#paint61_linear_1_2364)"/>
<path style="mix-blend-mode:color-dodge" d="M29.1245 102.425C28.6054 102.52 28.0864 102.634 27.5289 102.787C27.0483 102.901 26.5484 103.053 26.0102 103.225C25.4719 103.396 24.9528 103.587 24.453 103.815L26.1063 104.768C26.2601 104.71 26.4523 104.634 26.6446 104.577C26.8368 104.52 27.0483 104.444 27.2405 104.368C28.1825 104.044 29.0668 103.758 29.8935 103.549C30.7201 103.32 31.5083 103.187 32.2388 103.111C32.9694 103.034 33.6614 103.053 34.3151 103.168C34.9687 103.282 35.6031 103.511 36.2183 103.853C36.9488 104.272 37.3909 104.71 37.5832 105.187C37.7754 105.663 37.7754 106.139 37.5832 106.615C37.3909 107.091 37.0449 107.568 36.5451 108.044C36.0452 108.52 35.4685 108.958 34.7957 109.396L37.0257 110.672L35.1801 111.739L32.9117 110.444C31.7775 111.015 30.5471 111.51 29.2591 111.967C27.9518 112.424 26.683 112.767 25.4719 113.015L24.28 110.101C24.8952 109.986 25.5488 109.834 26.2024 109.663C26.7599 109.529 27.3751 109.339 28.0672 109.129C28.7592 108.92 29.3936 108.672 30.0088 108.387L28.394 107.453C27.8172 107.663 27.2213 107.872 26.6061 108.082C25.6834 108.387 24.8567 108.615 24.107 108.787C23.3572 108.958 22.6651 109.053 22.05 109.091C21.4156 109.129 20.8388 109.091 20.3198 108.958C19.7815 108.844 19.2817 108.653 18.8011 108.367C18.1474 107.987 17.6861 107.568 17.4554 107.129C17.2247 106.672 17.167 106.215 17.2823 105.739C17.3977 105.263 17.6476 104.768 18.0705 104.272C18.4935 103.777 19.0318 103.32 19.6854 102.863L17.8398 101.796L19.6854 100.73L21.5501 101.796C22.1076 101.53 22.6651 101.301 23.2419 101.073C23.8186 100.863 24.3953 100.654 24.9528 100.482C25.5296 100.311 26.0678 100.139 26.5869 100.006C27.1059 99.8726 27.6058 99.7393 28.0479 99.625L29.0668 102.425H29.1245ZM22.9151 105.339C23.1073 105.453 23.3188 105.491 23.5879 105.472C23.857 105.453 24.2031 105.377 24.6068 105.263L23.2034 104.463C22.6459 104.844 22.5498 105.149 22.8958 105.358L22.9151 105.339ZM31.7582 106.806C31.5852 106.71 31.3545 106.672 31.0277 106.71C30.7201 106.749 30.3549 106.825 29.9511 106.939L31.3161 107.72C31.6621 107.491 31.8543 107.301 31.912 107.168C31.9697 107.015 31.912 106.901 31.7582 106.806Z" fill="url(#paint62_radial_1_2364)"/>
<path d="M55.0388 98.1204H0.0189514V105.815C0.0189514 105.815 0.0189514 105.968 0.0189514 106.025C0.0189514 114.786 12.3417 121.891 27.5289 121.891C42.7161 121.891 55.0388 114.786 55.0388 106.025C55.0388 105.949 55.0388 105.872 55.0388 105.815V98.1204Z" fill="url(#paint63_linear_1_2364)"/>
<g style="mix-blend-mode:multiply">
<path d="M27.5289 120.196C12.3417 120.196 0.0189514 113.091 0.0189514 104.33V105.815C0.0189514 105.815 0.0189514 105.968 0.0189514 106.025C0.0189514 114.786 12.3417 121.891 27.5289 121.891C42.7161 121.891 55.0388 114.786 55.0388 106.025C55.0388 105.949 55.0388 105.873 55.0388 105.815V104.33C55.0388 113.091 42.7161 120.196 27.5289 120.196Z" fill="url(#paint64_linear_1_2364)"/>
</g>
<path d="M27.5289 114.082C42.7222 114.082 55.0388 106.978 55.0388 98.2157C55.0388 89.4532 42.7222 82.3497 27.5289 82.3497C12.3356 82.3497 0.0189514 89.4532 0.0189514 98.2157C0.0189514 106.978 12.3356 114.082 27.5289 114.082Z" fill="url(#paint65_linear_1_2364)"/>
<path style="mix-blend-mode:screen" d="M27.5289 113.663C12.6493 113.663 0.576484 106.844 0.0574287 98.3489C0.0574287 98.5393 -0.000244141 98.7108 -0.000244141 98.9012C-0.000244141 107.663 12.3225 114.767 27.5097 114.767C42.6969 114.767 55.0196 107.663 55.0196 98.9012C55.0196 98.7108 54.9812 98.5393 54.9812 98.3489C54.4814 106.863 42.3893 113.663 27.5097 113.663H27.5289Z" fill="url(#paint66_radial_1_2364)"/>
<path d="M48.099 98.2157C48.099 104.768 38.8905 110.082 27.529 110.082C16.1674 110.082 6.95901 104.768 6.95901 98.2157C6.95901 91.6635 16.1674 86.3495 27.529 86.3495C38.8905 86.3495 48.099 91.6635 48.099 98.2157Z" fill="url(#paint67_linear_1_2364)"/>
<path style="mix-blend-mode:screen" d="M28.221 86.9398C39.2172 86.9398 48.1565 91.911 48.7333 98.1775C48.7525 97.9679 48.7909 97.7584 48.7909 97.5489C48.7909 90.9968 39.5825 85.6827 28.221 85.6827C16.8594 85.6827 7.65097 90.9968 7.65097 97.5489C7.65097 97.7584 7.68942 97.9679 7.70864 98.1775C8.28537 91.9301 17.2247 86.9398 28.221 86.9398Z" fill="url(#paint68_radial_1_2364)"/>
<path style="mix-blend-mode:multiply" d="M27.529 87.6255C38.5253 87.6255 47.4646 92.5967 48.0413 98.8631C48.0605 98.6536 48.099 98.4441 48.099 98.2346C48.099 91.6825 38.8905 86.3684 27.529 86.3684C16.1674 86.3684 6.95901 91.6825 6.95901 98.2346C6.95901 98.4441 6.99746 98.6536 7.01669 98.8631C7.59342 92.6158 16.5327 87.6255 27.529 87.6255Z" fill="url(#paint69_linear_1_2364)"/>
<g style="mix-blend-mode:multiply">
<path d="M29.1245 94.5014C28.6054 94.5967 28.0864 94.711 27.5289 94.8633C27.0483 94.9776 26.5484 95.13 26.0102 95.3014C25.4719 95.4728 24.9528 95.6633 24.453 95.8919L26.1063 96.8442C26.2601 96.7871 26.4523 96.7109 26.6446 96.6537C26.8368 96.5966 27.0483 96.5204 27.2405 96.4442C28.1825 96.1204 29.0668 95.8347 29.8935 95.6252C30.7201 95.3966 31.5083 95.2633 32.2388 95.1871C32.9694 95.1109 33.6614 95.13 34.3151 95.2443C34.9687 95.3585 35.6031 95.5871 36.2183 95.9299C36.9488 96.349 37.3909 96.787 37.5832 97.2632C37.7754 97.7394 37.7754 98.2156 37.5832 98.6917C37.3909 99.1679 37.0449 99.6441 36.5451 100.12C36.0452 100.596 35.4685 101.035 34.7957 101.473L37.0257 102.749L35.1801 103.796L32.9117 102.501C31.7775 103.072 30.5471 103.568 29.2591 104.025C27.9518 104.482 26.683 104.825 25.4719 105.072L24.28 102.158C24.8952 102.044 25.5488 101.892 26.2024 101.72C26.7599 101.587 27.3751 101.396 28.0672 101.187C28.7592 100.977 29.3936 100.73 30.0088 100.444L28.394 99.5107C27.8172 99.7203 27.2213 99.9298 26.6061 100.139C25.6834 100.444 24.8567 100.673 24.107 100.844C23.3572 101.015 22.6651 101.111 22.05 101.149C21.4156 101.187 20.8388 101.149 20.3198 101.015C19.7815 100.901 19.2817 100.711 18.8011 100.425C18.1474 100.044 17.6861 99.625 17.4554 99.1869C17.2247 98.7298 17.167 98.2727 17.2823 97.7965C17.3977 97.3204 17.6476 96.8251 18.0705 96.3299C18.4935 95.8347 19.0318 95.3776 19.6854 94.9205L17.8398 93.8538L19.6854 92.7872L21.5501 93.8538C22.1076 93.5872 22.6651 93.3586 23.2419 93.1301C23.8186 92.9205 24.3953 92.711 24.9528 92.5396C25.5296 92.3682 26.0678 92.1968 26.5869 92.0634C27.1059 91.9301 27.6058 91.7968 28.0479 91.6825L29.0668 94.4824L29.1245 94.5014ZM22.9151 97.4156C23.1073 97.5299 23.3188 97.568 23.5879 97.5489C23.857 97.5299 24.2031 97.4537 24.6068 97.3394L23.2034 96.5394C22.6459 96.9204 22.5498 97.2251 22.8958 97.4156H22.9151ZM31.7582 98.8822C31.5852 98.787 31.3545 98.7489 31.0277 98.787C30.7201 98.8251 30.3549 98.9013 29.9511 99.0155L31.3161 99.7964C31.6621 99.5679 31.8543 99.3774 31.912 99.2441C31.9697 99.0917 31.912 98.9774 31.7582 98.8822Z" fill="url(#paint70_linear_1_2364)"/>
</g>
<path d="M29.1245 93.8159C28.6054 93.9111 28.0864 94.0254 27.5289 94.1778C27.0483 94.2921 26.5484 94.4444 26.0102 94.6158C25.4719 94.7873 24.9528 94.9777 24.453 95.2063L26.1063 96.1586C26.2601 96.1015 26.4523 96.0253 26.6446 95.9682C26.8368 95.911 27.0483 95.8348 27.2405 95.7587C28.1825 95.4349 29.0668 95.1492 29.8935 94.9396C30.7201 94.7111 31.5083 94.5778 32.2388 94.5016C32.9694 94.4254 33.6614 94.4444 34.3151 94.5587C34.9687 94.673 35.6031 94.9015 36.2183 95.2444C36.9488 95.6634 37.3909 96.1015 37.5832 96.5777C37.7754 97.0538 37.7754 97.53 37.5832 98.0062C37.3909 98.4823 37.0449 98.9585 36.5451 99.4347C36.0452 99.9109 35.4685 100.349 34.7957 100.787L37.0257 102.063L35.1801 103.13L32.9117 101.835C31.7775 102.406 30.5471 102.901 29.2591 103.358C27.9518 103.815 26.683 104.158 25.4719 104.406L24.28 101.492C24.8952 101.377 25.5488 101.225 26.2024 101.054C26.7599 100.92 27.3751 100.73 28.0672 100.52C28.7592 100.311 29.3936 100.063 30.0088 99.7775L28.394 98.8442C27.8172 99.0538 27.2213 99.2633 26.6061 99.4728C25.6834 99.7775 24.8567 100.006 24.107 100.178C23.3572 100.349 22.6651 100.444 22.05 100.482C21.4156 100.52 20.8388 100.482 20.3198 100.349C19.7815 100.235 19.2817 100.044 18.8011 99.7585C18.1474 99.3776 17.6861 98.9585 17.4554 98.5204C17.2247 98.0633 17.167 97.6062 17.2823 97.13C17.3977 96.6538 17.6476 96.1586 18.0705 95.6634C18.4935 95.1682 19.0318 94.7111 19.6854 94.254L17.8398 93.1873L19.6854 92.1207L21.5501 93.1873C22.1076 92.9207 22.6651 92.6921 23.2419 92.4636C23.8186 92.254 24.3953 92.0445 24.9528 91.8731C25.5296 91.7017 26.0678 91.5303 26.5869 91.3969C27.1059 91.2636 27.6058 91.1303 28.0479 91.016L29.0668 93.8159H29.1245ZM22.9151 96.73C23.1073 96.8443 23.3188 96.8824 23.5879 96.8634C23.857 96.8443 24.2031 96.7681 24.6068 96.6538L23.2034 95.8539C22.6459 96.2348 22.5498 96.5396 22.8958 96.7491L22.9151 96.73ZM31.7582 98.1967C31.5852 98.1014 31.3545 98.0633 31.0277 98.1014C30.7201 98.1395 30.3549 98.2157 29.9511 98.33L31.3161 99.1109C31.6621 98.8823 31.8543 98.6919 31.912 98.5585C31.9697 98.4062 31.912 98.2919 31.7582 98.1967Z" fill="url(#paint71_linear_1_2364)"/>
<path style="mix-blend-mode:color-dodge" d="M29.1245 93.8159C28.6054 93.9111 28.0864 94.0254 27.5289 94.1778C27.0483 94.2921 26.5484 94.4444 26.0102 94.6158C25.4719 94.7873 24.9528 94.9777 24.453 95.2063L26.1063 96.1586C26.2601 96.1015 26.4523 96.0253 26.6446 95.9682C26.8368 95.911 27.0483 95.8348 27.2405 95.7587C28.1825 95.4349 29.0668 95.1492 29.8935 94.9396C30.7201 94.7111 31.5083 94.5778 32.2388 94.5016C32.9694 94.4254 33.6614 94.4444 34.3151 94.5587C34.9687 94.673 35.6031 94.9015 36.2183 95.2444C36.9488 95.6634 37.3909 96.1015 37.5832 96.5777C37.7754 97.0538 37.7754 97.53 37.5832 98.0062C37.3909 98.4823 37.0449 98.9585 36.5451 99.4347C36.0452 99.9109 35.4685 100.349 34.7957 100.787L37.0257 102.063L35.1801 103.13L32.9117 101.835C31.7775 102.406 30.5471 102.901 29.2591 103.358C27.9518 103.815 26.683 104.158 25.4719 104.406L24.28 101.492C24.8952 101.377 25.5488 101.225 26.2024 101.054C26.7599 100.92 27.3751 100.73 28.0672 100.52C28.7592 100.311 29.3936 100.063 30.0088 99.7775L28.394 98.8442C27.8172 99.0538 27.2213 99.2633 26.6061 99.4728C25.6834 99.7775 24.8567 100.006 24.107 100.178C23.3572 100.349 22.6651 100.444 22.05 100.482C21.4156 100.52 20.8388 100.482 20.3198 100.349C19.7815 100.235 19.2817 100.044 18.8011 99.7585C18.1474 99.3776 17.6861 98.9585 17.4554 98.5204C17.2247 98.0633 17.167 97.6062 17.2823 97.13C17.3977 96.6538 17.6476 96.1586 18.0705 95.6634C18.4935 95.1682 19.0318 94.7111 19.6854 94.254L17.8398 93.1873L19.6854 92.1207L21.5501 93.1873C22.1076 92.9207 22.6651 92.6921 23.2419 92.4636C23.8186 92.254 24.3953 92.0445 24.9528 91.8731C25.5296 91.7017 26.0678 91.5303 26.5869 91.3969C27.1059 91.2636 27.6058 91.1303 28.0479 91.016L29.0668 93.8159H29.1245ZM22.9151 96.73C23.1073 96.8443 23.3188 96.8824 23.5879 96.8634C23.857 96.8443 24.2031 96.7681 24.6068 96.6538L23.2034 95.8539C22.6459 96.2348 22.5498 96.5396 22.8958 96.7491L22.9151 96.73ZM31.7582 98.1967C31.5852 98.1014 31.3545 98.0633 31.0277 98.1014C30.7201 98.1395 30.3549 98.2157 29.9511 98.33L31.3161 99.1109C31.6621 98.8823 31.8543 98.6919 31.912 98.5585C31.9697 98.4062 31.912 98.2919 31.7582 98.1967Z" fill="url(#paint72_radial_1_2364)"/>
<defs>
<linearGradient id="paint0_linear_1_2364" x1="55.3637" y1="1.77977" x2="16.2287" y2="73.8616" gradientUnits="userSpaceOnUse">
<stop stop-color="#FFBB96"/>
<stop offset="0.23" stop-color="#FFFBC9"/>
<stop offset="0.54" stop-color="#F9B673"/>
<stop offset="0.64" stop-color="#F9B876"/>
<stop offset="0.72" stop-color="#FABE81"/>
<stop offset="0.81" stop-color="#FCC892"/>
<stop offset="0.86" stop-color="#FED2A3"/>
<stop offset="0.97" stop-color="#FFC28C"/>
</linearGradient>
<linearGradient id="paint1_linear_1_2364" x1="60.1497" y1="47.6507" x2="-32.4549" y2="19.6511" gradientUnits="userSpaceOnUse">
<stop offset="0.04" stop-color="#FFBA78"/>
<stop offset="0.4" stop-color="#FEC986"/>
<stop offset="1" stop-color="#FEECA8"/>
</linearGradient>
<linearGradient id="paint2_linear_1_2364" x1="24.4814" y1="56.6851" x2="116.493" y2="0.701026" gradientUnits="userSpaceOnUse">
<stop offset="0.04" stop-color="#FFBA78"/>
<stop offset="0.4" stop-color="#FEC986"/>
<stop offset="1" stop-color="#FEECA8"/>
</linearGradient>
<linearGradient id="paint3_linear_1_2364" x1="50.6533" y1="70.7357" x2="45.8552" y2="27.3758" gradientUnits="userSpaceOnUse">
<stop stop-color="#FFBB96"/>
<stop offset="0.23" stop-color="#FFFBC9"/>
<stop offset="0.54" stop-color="#F9B673"/>
<stop offset="0.64" stop-color="#F9B876"/>
<stop offset="0.72" stop-color="#FABE81"/>
<stop offset="0.81" stop-color="#FCC892"/>
<stop offset="0.86" stop-color="#FED2A3"/>
<stop offset="0.97" stop-color="#FFC28C"/>
</linearGradient>
<linearGradient id="paint4_linear_1_2364" x1="46.9505" y1="-2.78716" x2="8.06367" y2="68.8186" gradientUnits="userSpaceOnUse">
<stop stop-color="#FFBB96"/>
<stop offset="0.23" stop-color="#FFFBC9"/>
<stop offset="0.54" stop-color="#F9B673"/>
<stop offset="0.64" stop-color="#F9B876"/>
<stop offset="0.72" stop-color="#FABE81"/>
<stop offset="0.81" stop-color="#FCC892"/>
<stop offset="0.86" stop-color="#FED2A3"/>
<stop offset="0.97" stop-color="#FFC28C"/>
</linearGradient>
<radialGradient id="paint5_radial_1_2364" cx="0" cy="0" r="1" gradientUnits="userSpaceOnUse" gradientTransform="translate(36.7991 29.7066) rotate(-180) scale(31.7638 31.4706)">
<stop stop-color="white"/>
<stop offset="1"/>
</radialGradient>
<linearGradient id="paint6_linear_1_2364" x1="29.3935" y1="21.7204" x2="52.3446" y2="52.3725" gradientUnits="userSpaceOnUse">
<stop stop-color="#FFBB96"/>
<stop offset="0.23" stop-color="#FFFBC9"/>
<stop offset="0.54" stop-color="#F9B673"/>
<stop offset="0.64" stop-color="#F9B876"/>
<stop offset="0.72" stop-color="#FABE81"/>
<stop offset="0.81" stop-color="#FCC892"/>
<stop offset="0.86" stop-color="#FED2A3"/>
<stop offset="0.97" stop-color="#FFC28C"/>
</linearGradient>
<linearGradient id="paint7_linear_1_2364" x1="38.6127" y1="43.6578" x2="56.4468" y2="43.6578" gradientUnits="userSpaceOnUse">
<stop offset="0.04" stop-color="#FFBA78"/>
<stop offset="0.4" stop-color="#FEC986"/>
<stop offset="1" stop-color="#FEECA8"/>
</linearGradient>
<radialGradient id="paint8_radial_1_2364" cx="0" cy="0" r="1" gradientUnits="userSpaceOnUse" gradientTransform="translate(56.6483 31.2792) scale(27.8595 27.6023)">
<stop stop-color="#F49587"/>
<stop offset="0.12" stop-color="#BC7368"/>
<stop offset="0.24" stop-color="#8B544C"/>
<stop offset="0.36" stop-color="#603A35"/>
<stop offset="0.48" stop-color="#3D2522"/>
<stop offset="0.61" stop-color="#221513"/>
<stop offset="0.74" stop-color="#0F0908"/>
<stop offset="0.86" stop-color="#030202"/>
<stop offset="1"/>
</radialGradient>
<linearGradient id="paint9_linear_1_2364" x1="44.2924" y1="102.577" x2="98.4472" y2="102.577" gradientUnits="userSpaceOnUse">
<stop stop-color="#FFBB96"/>
<stop offset="0.23" stop-color="#FFFBC9"/>
<stop offset="0.54" stop-color="#F9B673"/>
<stop offset="0.64" stop-color="#F9B876"/>
<stop offset="0.72" stop-color="#FABE81"/>
<stop offset="0.81" stop-color="#FCC892"/>
<stop offset="0.86" stop-color="#FED2A3"/>
<stop offset="0.97" stop-color="#FFC28C"/>
</linearGradient>
<linearGradient id="paint10_linear_1_2364" x1="44.2923" y1="105.682" x2="98.4471" y2="105.682" gradientUnits="userSpaceOnUse">
<stop stop-color="#FFBB96"/>
<stop offset="0.23" stop-color="#FFFBC9"/>
<stop offset="0.54" stop-color="#F9B673"/>
<stop offset="0.64" stop-color="#F9B876"/>
<stop offset="0.72" stop-color="#FABE81"/>
<stop offset="0.81" stop-color="#FCC892"/>
<stop offset="0.86" stop-color="#FED2A3"/>
<stop offset="0.97" stop-color="#FFC28C"/>
</linearGradient>
<linearGradient id="paint11_linear_1_2364" x1="122.381" y1="40.1038" x2="69.0749" y2="94.2531" gradientUnits="userSpaceOnUse">
<stop offset="0.04" stop-color="#FFBA78"/>
<stop offset="0.4" stop-color="#FEC986"/>
<stop offset="1" stop-color="#FEECA8"/>
</linearGradient>
<radialGradient id="paint12_radial_1_2364" cx="0" cy="0" r="1" gradientUnits="userSpaceOnUse" gradientTransform="translate(59.7295 102.463) scale(34.5845 34.2652)">
<stop stop-color="white"/>
<stop offset="1"/>
</radialGradient>
<linearGradient id="paint13_linear_1_2364" x1="93.6605" y1="68.7501" x2="53.7995" y2="109.232" gradientUnits="userSpaceOnUse">
<stop offset="0.04" stop-color="#FFBA78"/>
<stop offset="0.4" stop-color="#FEC986"/>
<stop offset="1" stop-color="#FEECA8"/>
</linearGradient>
<radialGradient id="paint14_radial_1_2364" cx="0" cy="0" r="1" gradientUnits="userSpaceOnUse" gradientTransform="translate(81.2223 77.7975) scale(15.2064 15.066)">
<stop stop-color="white"/>
<stop offset="1"/>
</radialGradient>
<linearGradient id="paint15_linear_1_2364" x1="101.062" y1="60.0648" x2="63.4481" y2="98.2596" gradientUnits="userSpaceOnUse">
<stop stop-color="#FFBB96"/>
<stop offset="0.23" stop-color="#FFFBC9"/>
<stop offset="0.54" stop-color="#F9B673"/>
<stop offset="0.64" stop-color="#F9B876"/>
<stop offset="0.72" stop-color="#FABE81"/>
<stop offset="0.81" stop-color="#FCC892"/>
<stop offset="0.86" stop-color="#FED2A3"/>
<stop offset="0.97" stop-color="#FFC28C"/>
</linearGradient>
<radialGradient id="paint16_radial_1_2364" cx="0" cy="0" r="1" gradientUnits="userSpaceOnUse" gradientTransform="translate(111.347 90.7757) rotate(-71.0474) scale(5.80825 11.702)">
<stop stop-color="#F49587"/>
<stop offset="0.12" stop-color="#BC7368"/>
<stop offset="0.24" stop-color="#8B544C"/>
<stop offset="0.36" stop-color="#603A35"/>
<stop offset="0.48" stop-color="#3D2522"/>
<stop offset="0.61" stop-color="#221513"/>
<stop offset="0.74" stop-color="#0F0908"/>
<stop offset="0.86" stop-color="#030202"/>
<stop offset="1"/>
</radialGradient>
<linearGradient id="paint17_linear_1_2364" x1="61.2675" y1="90.9397" x2="81.7798" y2="90.9397" gradientUnits="userSpaceOnUse">
<stop stop-color="#FFBB96"/>
<stop offset="0.23" stop-color="#FFFBC9"/>
<stop offset="0.54" stop-color="#F9B673"/>
<stop offset="0.64" stop-color="#F9B876"/>
<stop offset="0.72" stop-color="#FABE81"/>
<stop offset="0.81" stop-color="#FCC892"/>
<stop offset="0.86" stop-color="#FED2A3"/>
<stop offset="0.97" stop-color="#FFC28C"/>
</linearGradient>
<linearGradient id="paint18_linear_1_2364" x1="91.6226" y1="79.2831" x2="74.2225" y2="88.866" gradientUnits="userSpaceOnUse">
<stop offset="0.04" stop-color="#FFBA78"/>
<stop offset="0.4" stop-color="#FEC986"/>
<stop offset="1" stop-color="#FEECA8"/>
</linearGradient>
<radialGradient id="paint19_radial_1_2364" cx="0" cy="0" r="1" gradientUnits="userSpaceOnUse" gradientTransform="translate(57.4995 91.6064) scale(18.3592 18.1897)">
<stop stop-color="#F49587"/>
<stop offset="0.12" stop-color="#BC7368"/>
<stop offset="0.24" stop-color="#8B544C"/>
<stop offset="0.36" stop-color="#603A35"/>
<stop offset="0.48" stop-color="#3D2522"/>
<stop offset="0.61" stop-color="#221513"/>
<stop offset="0.74" stop-color="#0F0908"/>
<stop offset="0.86" stop-color="#030202"/>
<stop offset="1"/>
</radialGradient>
<linearGradient id="paint20_linear_1_2364" x1="44.2924" y1="93.9682" x2="98.4472" y2="93.9682" gradientUnits="userSpaceOnUse">
<stop stop-color="#FFBB96"/>
<stop offset="0.23" stop-color="#FFFBC9"/>
<stop offset="0.54" stop-color="#F9B673"/>
<stop offset="0.64" stop-color="#F9B876"/>
<stop offset="0.72" stop-color="#FABE81"/>
<stop offset="0.81" stop-color="#FCC892"/>
<stop offset="0.86" stop-color="#FED2A3"/>
<stop offset="0.97" stop-color="#FFC28C"/>
</linearGradient>
<linearGradient id="paint21_linear_1_2364" x1="44.2923" y1="97.0729" x2="98.4471" y2="97.0729" gradientUnits="userSpaceOnUse">
<stop stop-color="#FFBB96"/>
<stop offset="0.23" stop-color="#FFFBC9"/>
<stop offset="0.54" stop-color="#F9B673"/>
<stop offset="0.64" stop-color="#F9B876"/>
<stop offset="0.72" stop-color="#FABE81"/>
<stop offset="0.81" stop-color="#FCC892"/>
<stop offset="0.86" stop-color="#FED2A3"/>
<stop offset="0.97" stop-color="#FFC28C"/>
</linearGradient>
<linearGradient id="paint22_linear_1_2364" x1="122.381" y1="31.4947" x2="69.075" y2="85.6629" gradientUnits="userSpaceOnUse">
<stop offset="0.04" stop-color="#FFBA78"/>
<stop offset="0.4" stop-color="#FEC986"/>
<stop offset="1" stop-color="#FEECA8"/>
</linearGradient>
<radialGradient id="paint23_radial_1_2364" cx="0" cy="0" r="1" gradientUnits="userSpaceOnUse" gradientTransform="translate(59.7295 93.8729) scale(34.5845 34.2652)">
<stop stop-color="white"/>
<stop offset="1"/>
</radialGradient>
<linearGradient id="paint24_linear_1_2364" x1="93.6605" y1="60.1411" x2="53.7995" y2="100.623" gradientUnits="userSpaceOnUse">
<stop offset="0.04" stop-color="#FFBA78"/>
<stop offset="0.4" stop-color="#FEC986"/>
<stop offset="1" stop-color="#FEECA8"/>
</linearGradient>
<radialGradient id="paint25_radial_1_2364" cx="0" cy="0" r="1" gradientUnits="userSpaceOnUse" gradientTransform="translate(81.2223 69.1881) scale(15.2064 15.066)">
<stop stop-color="white"/>
<stop offset="1"/>
</radialGradient>
<linearGradient id="paint26_linear_1_2364" x1="101.062" y1="51.4556" x2="63.4482" y2="89.6695" gradientUnits="userSpaceOnUse">
<stop stop-color="#FFBB96"/>
<stop offset="0.23" stop-color="#FFFBC9"/>
<stop offset="0.54" stop-color="#F9B673"/>
<stop offset="0.64" stop-color="#F9B876"/>
<stop offset="0.72" stop-color="#FABE81"/>
<stop offset="0.81" stop-color="#FCC892"/>
<stop offset="0.86" stop-color="#FED2A3"/>
<stop offset="0.97" stop-color="#FFC28C"/>
</linearGradient>
<radialGradient id="paint27_radial_1_2364" cx="0" cy="0" r="1" gradientUnits="userSpaceOnUse" gradientTransform="translate(111.369 82.1793) rotate(-71.0474) scale(5.80825 11.702)">
<stop stop-color="#F49587"/>
<stop offset="0.12" stop-color="#BC7368"/>
<stop offset="0.24" stop-color="#8B544C"/>
<stop offset="0.36" stop-color="#603A35"/>
<stop offset="0.48" stop-color="#3D2522"/>
<stop offset="0.61" stop-color="#221513"/>
<stop offset="0.74" stop-color="#0F0908"/>
<stop offset="0.86" stop-color="#030202"/>
<stop offset="1"/>
</radialGradient>
<linearGradient id="paint28_linear_1_2364" x1="61.2675" y1="82.3495" x2="81.7798" y2="82.3495" gradientUnits="userSpaceOnUse">
<stop stop-color="#FFBB96"/>
<stop offset="0.23" stop-color="#FFFBC9"/>
<stop offset="0.54" stop-color="#F9B673"/>
<stop offset="0.64" stop-color="#F9B876"/>
<stop offset="0.72" stop-color="#FABE81"/>
<stop offset="0.81" stop-color="#FCC892"/>
<stop offset="0.86" stop-color="#FED2A3"/>
<stop offset="0.97" stop-color="#FFC28C"/>
</linearGradient>
<linearGradient id="paint29_linear_1_2364" x1="91.6226" y1="70.6739" x2="74.2227" y2="80.276" gradientUnits="userSpaceOnUse">
<stop offset="0.04" stop-color="#FFBA78"/>
<stop offset="0.4" stop-color="#FEC986"/>
<stop offset="1" stop-color="#FEECA8"/>
</linearGradient>
<radialGradient id="paint30_radial_1_2364" cx="0" cy="0" r="1" gradientUnits="userSpaceOnUse" gradientTransform="translate(57.4995 82.9972) scale(18.3592 18.1897)">
<stop stop-color="#F49587"/>
<stop offset="0.12" stop-color="#BC7368"/>
<stop offset="0.24" stop-color="#8B544C"/>
<stop offset="0.36" stop-color="#603A35"/>
<stop offset="0.48" stop-color="#3D2522"/>
<stop offset="0.61" stop-color="#221513"/>
<stop offset="0.74" stop-color="#0F0908"/>
<stop offset="0.86" stop-color="#030202"/>
<stop offset="1"/>
</radialGradient>
<linearGradient id="paint31_linear_1_2364" x1="44.2924" y1="84.9209" x2="98.4472" y2="84.9209" gradientUnits="userSpaceOnUse">
<stop stop-color="#FFBB96"/>
<stop offset="0.23" stop-color="#FFFBC9"/>
<stop offset="0.54" stop-color="#F9B673"/>
<stop offset="0.64" stop-color="#F9B876"/>
<stop offset="0.72" stop-color="#FABE81"/>
<stop offset="0.81" stop-color="#FCC892"/>
<stop offset="0.86" stop-color="#FED2A3"/>
<stop offset="0.97" stop-color="#FFC28C"/>
</linearGradient>
<linearGradient id="paint32_linear_1_2364" x1="44.2923" y1="88.0256" x2="98.4471" y2="88.0256" gradientUnits="userSpaceOnUse">
<stop stop-color="#FFBB96"/>
<stop offset="0.23" stop-color="#FFFBC9"/>
<stop offset="0.54" stop-color="#F9B673"/>
<stop offset="0.64" stop-color="#F9B876"/>
<stop offset="0.72" stop-color="#FABE81"/>
<stop offset="0.81" stop-color="#FCC892"/>
<stop offset="0.86" stop-color="#FED2A3"/>
<stop offset="0.97" stop-color="#FFC28C"/>
</linearGradient>
<linearGradient id="paint33_linear_1_2364" x1="122.381" y1="22.4473" x2="69.0749" y2="76.5966" gradientUnits="userSpaceOnUse">
<stop offset="0.04" stop-color="#FFBA78"/>
<stop offset="0.4" stop-color="#FEC986"/>
<stop offset="1" stop-color="#FEECA8"/>
</linearGradient>
<radialGradient id="paint34_radial_1_2364" cx="0" cy="0" r="1" gradientUnits="userSpaceOnUse" gradientTransform="translate(59.7295 84.8068) scale(34.5845 34.2652)">
<stop stop-color="white"/>
<stop offset="1"/>
</radialGradient>
<linearGradient id="paint35_linear_1_2364" x1="93.6605" y1="51.0938" x2="53.7995" y2="91.576" gradientUnits="userSpaceOnUse">
<stop offset="0.04" stop-color="#FFBA78"/>
<stop offset="0.4" stop-color="#FEC986"/>
<stop offset="1" stop-color="#FEECA8"/>
</linearGradient>
<radialGradient id="paint36_radial_1_2364" cx="0" cy="0" r="1" gradientUnits="userSpaceOnUse" gradientTransform="translate(81.2223 60.1411) scale(15.2064 15.066)">
<stop stop-color="white"/>
<stop offset="1"/>
</radialGradient>
<linearGradient id="paint37_linear_1_2364" x1="101.062" y1="42.4085" x2="63.4481" y2="80.6034" gradientUnits="userSpaceOnUse">
<stop stop-color="#FFBB96"/>
<stop offset="0.23" stop-color="#FFFBC9"/>
<stop offset="0.54" stop-color="#F9B673"/>
<stop offset="0.64" stop-color="#F9B876"/>
<stop offset="0.72" stop-color="#FABE81"/>
<stop offset="0.81" stop-color="#FCC892"/>
<stop offset="0.86" stop-color="#FED2A3"/>
<stop offset="0.97" stop-color="#FFC28C"/>
</linearGradient>
<radialGradient id="paint38_radial_1_2364" cx="0" cy="0" r="1" gradientUnits="userSpaceOnUse" gradientTransform="translate(111.394 73.1309) rotate(-71.0474) scale(5.80825 11.702)">
<stop stop-color="#F49587"/>
<stop offset="0.12" stop-color="#BC7368"/>
<stop offset="0.24" stop-color="#8B544C"/>
<stop offset="0.36" stop-color="#603A35"/>
<stop offset="0.48" stop-color="#3D2522"/>
<stop offset="0.61" stop-color="#221513"/>
<stop offset="0.74" stop-color="#0F0908"/>
<stop offset="0.86" stop-color="#030202"/>
<stop offset="1"/>
</radialGradient>
<linearGradient id="paint39_linear_1_2364" x1="61.2675" y1="73.2833" x2="81.7798" y2="73.2833" gradientUnits="userSpaceOnUse">
<stop stop-color="#FFBB96"/>
<stop offset="0.23" stop-color="#FFFBC9"/>
<stop offset="0.54" stop-color="#F9B673"/>
<stop offset="0.64" stop-color="#F9B876"/>
<stop offset="0.72" stop-color="#FABE81"/>
<stop offset="0.81" stop-color="#FCC892"/>
<stop offset="0.86" stop-color="#FED2A3"/>
<stop offset="0.97" stop-color="#FFC28C"/>
</linearGradient>
<linearGradient id="paint40_linear_1_2364" x1="91.6226" y1="61.6267" x2="74.2225" y2="71.2096" gradientUnits="userSpaceOnUse">
<stop offset="0.04" stop-color="#FFBA78"/>
<stop offset="0.4" stop-color="#FEC986"/>
<stop offset="1" stop-color="#FEECA8"/>
</linearGradient>
<radialGradient id="paint41_radial_1_2364" cx="0" cy="0" r="1" gradientUnits="userSpaceOnUse" gradientTransform="translate(57.4995 73.95) scale(18.3592 18.1897)">
<stop stop-color="#F49587"/>
<stop offset="0.12" stop-color="#BC7368"/>
<stop offset="0.24" stop-color="#8B544C"/>
<stop offset="0.36" stop-color="#603A35"/>
<stop offset="0.48" stop-color="#3D2522"/>
<stop offset="0.61" stop-color="#221513"/>
<stop offset="0.74" stop-color="#0F0908"/>
<stop offset="0.86" stop-color="#030202"/>
<stop offset="1"/>
</radialGradient>
<linearGradient id="paint42_linear_1_2364" x1="44.2924" y1="75.7213" x2="98.4472" y2="75.7213" gradientUnits="userSpaceOnUse">
<stop stop-color="#FFBB96"/>
<stop offset="0.23" stop-color="#FFFBC9"/>
<stop offset="0.54" stop-color="#F9B673"/>
<stop offset="0.64" stop-color="#F9B876"/>
<stop offset="0.72" stop-color="#FABE81"/>
<stop offset="0.81" stop-color="#FCC892"/>
<stop offset="0.86" stop-color="#FED2A3"/>
<stop offset="0.97" stop-color="#FFC28C"/>
</linearGradient>
<linearGradient id="paint43_linear_1_2364" x1="44.2923" y1="78.8257" x2="98.4471" y2="78.8257" gradientUnits="userSpaceOnUse">
<stop stop-color="#FFBB96"/>
<stop offset="0.23" stop-color="#FFFBC9"/>
<stop offset="0.54" stop-color="#F9B673"/>
<stop offset="0.64" stop-color="#F9B876"/>
<stop offset="0.72" stop-color="#FABE81"/>
<stop offset="0.81" stop-color="#FCC892"/>
<stop offset="0.86" stop-color="#FED2A3"/>
<stop offset="0.97" stop-color="#FFC28C"/>
</linearGradient>
<linearGradient id="paint44_linear_1_2364" x1="122.381" y1="13.2476" x2="69.0749" y2="67.3968" gradientUnits="userSpaceOnUse">
<stop offset="0.04" stop-color="#FFBA78"/>
<stop offset="0.4" stop-color="#FEC986"/>
<stop offset="1" stop-color="#FEECA8"/>
</linearGradient>
<radialGradient id="paint45_radial_1_2364" cx="0" cy="0" r="1" gradientUnits="userSpaceOnUse" gradientTransform="translate(59.7295 75.6069) scale(34.5845 34.2652)">
<stop stop-color="white"/>
<stop offset="1"/>
</radialGradient>
<linearGradient id="paint46_linear_1_2364" x1="93.6605" y1="41.8942" x2="53.7995" y2="82.3764" gradientUnits="userSpaceOnUse">
<stop offset="0.04" stop-color="#FFBA78"/>
<stop offset="0.4" stop-color="#FEC986"/>
<stop offset="1" stop-color="#FEECA8"/>
</linearGradient>
<radialGradient id="paint47_radial_1_2364" cx="0" cy="0" r="1" gradientUnits="userSpaceOnUse" gradientTransform="translate(81.2223 50.9413) scale(15.2064 15.066)">
<stop stop-color="white"/>
<stop offset="1"/>
</radialGradient>
<linearGradient id="paint48_linear_1_2364" x1="101.062" y1="33.2088" x2="63.4481" y2="71.4037" gradientUnits="userSpaceOnUse">
<stop stop-color="#FFBB96"/>
<stop offset="0.23" stop-color="#FFFBC9"/>
<stop offset="0.54" stop-color="#F9B673"/>
<stop offset="0.64" stop-color="#F9B876"/>
<stop offset="0.72" stop-color="#FABE81"/>
<stop offset="0.81" stop-color="#FCC892"/>
<stop offset="0.86" stop-color="#FED2A3"/>
<stop offset="0.97" stop-color="#FFC28C"/>
</linearGradient>
<linearGradient id="paint49_linear_1_2364" x1="61.2675" y1="64.0839" x2="81.7798" y2="64.0839" gradientUnits="userSpaceOnUse">
<stop stop-color="#FFBB96"/>
<stop offset="0.23" stop-color="#FFFBC9"/>
<stop offset="0.54" stop-color="#F9B673"/>
<stop offset="0.64" stop-color="#F9B876"/>
<stop offset="0.72" stop-color="#FABE81"/>
<stop offset="0.81" stop-color="#FCC892"/>
<stop offset="0.86" stop-color="#FED2A3"/>
<stop offset="0.97" stop-color="#FFC28C"/>
</linearGradient>
<linearGradient id="paint50_linear_1_2364" x1="91.6226" y1="52.4271" x2="74.2225" y2="62.01" gradientUnits="userSpaceOnUse">
<stop offset="0.04" stop-color="#FFBA78"/>
<stop offset="0.4" stop-color="#FEC986"/>
<stop offset="1" stop-color="#FEECA8"/>
</linearGradient>
<radialGradient id="paint51_radial_1_2364" cx="0" cy="0" r="1" gradientUnits="userSpaceOnUse" gradientTransform="translate(57.4995 64.7504) scale(18.3592 18.1897)">
<stop stop-color="#F49587"/>
<stop offset="0.12" stop-color="#BC7368"/>
<stop offset="0.24" stop-color="#8B544C"/>
<stop offset="0.36" stop-color="#603A35"/>
<stop offset="0.48" stop-color="#3D2522"/>
<stop offset="0.61" stop-color="#221513"/>
<stop offset="0.74" stop-color="#0F0908"/>
<stop offset="0.86" stop-color="#030202"/>
<stop offset="1"/>
</radialGradient>
<linearGradient id="paint52_linear_1_2364" x1="0.288091" y1="118.615" x2="54.4429" y2="118.615" gradientUnits="userSpaceOnUse">
<stop stop-color="#FFBB96"/>
<stop offset="0.23" stop-color="#FFFBC9"/>
<stop offset="0.54" stop-color="#F9B673"/>
<stop offset="0.64" stop-color="#F9B876"/>
<stop offset="0.72" stop-color="#FABE81"/>
<stop offset="0.81" stop-color="#FCC892"/>
<stop offset="0.86" stop-color="#FED2A3"/>
<stop offset="0.97" stop-color="#FFC28C"/>
</linearGradient>
<linearGradient id="paint53_linear_1_2364" x1="0.288091" y1="121.719" x2="54.4429" y2="121.719" gradientUnits="userSpaceOnUse">
<stop stop-color="#FFBB96"/>
<stop offset="0.23" stop-color="#FFFBC9"/>
<stop offset="0.54" stop-color="#F9B673"/>
<stop offset="0.64" stop-color="#F9B876"/>
<stop offset="0.72" stop-color="#FABE81"/>
<stop offset="0.81" stop-color="#FCC892"/>
<stop offset="0.86" stop-color="#FED2A3"/>
<stop offset="0.97" stop-color="#FFC28C"/>
</linearGradient>
<linearGradient id="paint54_linear_1_2364" x1="78.3771" y1="56.1411" x2="25.0513" y2="110.291" gradientUnits="userSpaceOnUse">
<stop offset="0.04" stop-color="#FFBA78"/>
<stop offset="0.4" stop-color="#FEC986"/>
<stop offset="1" stop-color="#FEECA8"/>
</linearGradient>
<radialGradient id="paint55_radial_1_2364" cx="0" cy="0" r="1" gradientUnits="userSpaceOnUse" gradientTransform="translate(15.706 118.501) scale(34.5845 34.2652)">
<stop stop-color="white"/>
<stop offset="1"/>
</radialGradient>
<linearGradient id="paint56_linear_1_2364" x1="49.6369" y1="84.7877" x2="9.79513" y2="125.27" gradientUnits="userSpaceOnUse">
<stop offset="0.04" stop-color="#FFBA78"/>
<stop offset="0.4" stop-color="#FEC986"/>
<stop offset="1" stop-color="#FEECA8"/>
</linearGradient>
<radialGradient id="paint57_radial_1_2364" cx="0" cy="0" r="1" gradientUnits="userSpaceOnUse" gradientTransform="translate(37.2179 93.8158) scale(15.2064 15.066)">
<stop stop-color="white"/>
<stop offset="1"/>
</radialGradient>
<linearGradient id="paint58_linear_1_2364" x1="57.0575" y1="76.0832" x2="19.4439" y2="114.297" gradientUnits="userSpaceOnUse">
<stop stop-color="#FFBB96"/>
<stop offset="0.23" stop-color="#FFFBC9"/>
<stop offset="0.54" stop-color="#F9B673"/>
<stop offset="0.64" stop-color="#F9B876"/>
<stop offset="0.72" stop-color="#FABE81"/>
<stop offset="0.81" stop-color="#FCC892"/>
<stop offset="0.86" stop-color="#FED2A3"/>
<stop offset="0.97" stop-color="#FFC28C"/>
</linearGradient>
<radialGradient id="paint59_radial_1_2364" cx="0" cy="0" r="1" gradientUnits="userSpaceOnUse" gradientTransform="translate(67.6425 106.922) rotate(-71.0474) scale(5.80825 11.702)">
<stop stop-color="#F49587"/>
<stop offset="0.12" stop-color="#BC7368"/>
<stop offset="0.24" stop-color="#8B544C"/>
<stop offset="0.36" stop-color="#603A35"/>
<stop offset="0.48" stop-color="#3D2522"/>
<stop offset="0.61" stop-color="#221513"/>
<stop offset="0.74" stop-color="#0F0908"/>
<stop offset="0.86" stop-color="#030202"/>
<stop offset="1"/>
</radialGradient>
<linearGradient id="paint60_linear_1_2364" x1="17.2631" y1="106.977" x2="37.7562" y2="106.977" gradientUnits="userSpaceOnUse">
<stop stop-color="#FFBB96"/>
<stop offset="0.23" stop-color="#FFFBC9"/>
<stop offset="0.54" stop-color="#F9B673"/>
<stop offset="0.64" stop-color="#F9B876"/>
<stop offset="0.72" stop-color="#FABE81"/>
<stop offset="0.81" stop-color="#FCC892"/>
<stop offset="0.86" stop-color="#FED2A3"/>
<stop offset="0.97" stop-color="#FFC28C"/>
</linearGradient>
<linearGradient id="paint61_linear_1_2364" x1="47.599" y1="95.3204" x2="30.1989" y2="104.903" gradientUnits="userSpaceOnUse">
<stop offset="0.04" stop-color="#FFBA78"/>
<stop offset="0.4" stop-color="#FEC986"/>
<stop offset="1" stop-color="#FEECA8"/>
</linearGradient>
<radialGradient id="paint62_radial_1_2364" cx="0" cy="0" r="1" gradientUnits="userSpaceOnUse" gradientTransform="translate(13.4759 107.625) scale(18.3592 18.1897)">
<stop stop-color="#F49587"/>
<stop offset="0.12" stop-color="#BC7368"/>
<stop offset="0.24" stop-color="#8B544C"/>
<stop offset="0.36" stop-color="#603A35"/>
<stop offset="0.48" stop-color="#3D2522"/>
<stop offset="0.61" stop-color="#221513"/>
<stop offset="0.74" stop-color="#0F0908"/>
<stop offset="0.86" stop-color="#030202"/>
<stop offset="1"/>
</radialGradient>
<linearGradient id="paint63_linear_1_2364" x1="0.288091" y1="110.006" x2="54.4429" y2="110.006" gradientUnits="userSpaceOnUse">
<stop stop-color="#FFBB96"/>
<stop offset="0.23" stop-color="#FFFBC9"/>
<stop offset="0.54" stop-color="#F9B673"/>
<stop offset="0.64" stop-color="#F9B876"/>
<stop offset="0.72" stop-color="#FABE81"/>
<stop offset="0.81" stop-color="#FCC892"/>
<stop offset="0.86" stop-color="#FED2A3"/>
<stop offset="0.97" stop-color="#FFC28C"/>
</linearGradient>
<linearGradient id="paint64_linear_1_2364" x1="0.288091" y1="113.11" x2="54.4429" y2="113.11" gradientUnits="userSpaceOnUse">
<stop stop-color="#FFBB96"/>
<stop offset="0.23" stop-color="#FFFBC9"/>
<stop offset="0.54" stop-color="#F9B673"/>
<stop offset="0.64" stop-color="#F9B876"/>
<stop offset="0.72" stop-color="#FABE81"/>
<stop offset="0.81" stop-color="#FCC892"/>
<stop offset="0.86" stop-color="#FED2A3"/>
<stop offset="0.97" stop-color="#FFC28C"/>
</linearGradient>
<linearGradient id="paint65_linear_1_2364" x1="78.3771" y1="47.5321" x2="25.0513" y2="101.682" gradientUnits="userSpaceOnUse">
<stop offset="0.04" stop-color="#FFBA78"/>
<stop offset="0.4" stop-color="#FEC986"/>
<stop offset="1" stop-color="#FEECA8"/>
</linearGradient>
<radialGradient id="paint66_radial_1_2364" cx="0" cy="0" r="1" gradientUnits="userSpaceOnUse" gradientTransform="translate(15.706 109.891) scale(34.5845 34.2652)">
<stop stop-color="white"/>
<stop offset="1"/>
</radialGradient>
<linearGradient id="paint67_linear_1_2364" x1="49.6369" y1="76.1785" x2="9.79513" y2="116.661" gradientUnits="userSpaceOnUse">
<stop offset="0.04" stop-color="#FFBA78"/>
<stop offset="0.4" stop-color="#FEC986"/>
<stop offset="1" stop-color="#FEECA8"/>
</linearGradient>
<radialGradient id="paint68_radial_1_2364" cx="0" cy="0" r="1" gradientUnits="userSpaceOnUse" gradientTransform="translate(37.2179 85.2256) scale(15.2064 15.066)">
<stop stop-color="white"/>
<stop offset="1"/>
</radialGradient>
<linearGradient id="paint69_linear_1_2364" x1="57.0575" y1="67.493" x2="19.4437" y2="105.688" gradientUnits="userSpaceOnUse">
<stop stop-color="#FFBB96"/>
<stop offset="0.23" stop-color="#FFFBC9"/>
<stop offset="0.54" stop-color="#F9B673"/>
<stop offset="0.64" stop-color="#F9B876"/>
<stop offset="0.72" stop-color="#FABE81"/>
<stop offset="0.81" stop-color="#FCC892"/>
<stop offset="0.86" stop-color="#FED2A3"/>
<stop offset="0.97" stop-color="#FFC28C"/>
</linearGradient>
<linearGradient id="paint70_linear_1_2364" x1="17.2631" y1="98.3679" x2="37.7562" y2="98.3679" gradientUnits="userSpaceOnUse">
<stop stop-color="#FFBB96"/>
<stop offset="0.23" stop-color="#FFFBC9"/>
<stop offset="0.54" stop-color="#F9B673"/>
<stop offset="0.64" stop-color="#F9B876"/>
<stop offset="0.72" stop-color="#FABE81"/>
<stop offset="0.81" stop-color="#FCC892"/>
<stop offset="0.86" stop-color="#FED2A3"/>
<stop offset="0.97" stop-color="#FFC28C"/>
</linearGradient>
<linearGradient id="paint71_linear_1_2364" x1="47.599" y1="86.7114" x2="30.1989" y2="96.2943" gradientUnits="userSpaceOnUse">
<stop offset="0.04" stop-color="#FFBA78"/>
<stop offset="0.4" stop-color="#FEC986"/>
<stop offset="1" stop-color="#FEECA8"/>
</linearGradient>
<radialGradient id="paint72_radial_1_2364" cx="0" cy="0" r="1" gradientUnits="userSpaceOnUse" gradientTransform="translate(13.4759 99.0347) scale(18.3592 18.1897)">
<stop stop-color="#F49587"/>
<stop offset="0.12" stop-color="#BC7368"/>
<stop offset="0.24" stop-color="#8B544C"/>
<stop offset="0.36" stop-color="#603A35"/>
<stop offset="0.48" stop-color="#3D2522"/>
<stop offset="0.61" stop-color="#221513"/>
<stop offset="0.74" stop-color="#0F0908"/>
<stop offset="0.86" stop-color="#030202"/>
<stop offset="1"/>
</radialGradient>
</defs>
</svg>
