<svg width="200" height="157" viewBox="0 0 200 157" fill="none" xmlns="http://www.w3.org/2000/svg">
<path d="M199.258 87.21H192.734L108.732 38.7111C102.887 35.3334 95.685 35.3506 89.8493 38.7369L6.43084 87.21H0.00213623V96.3718V96.3804C0.0107308 99.5432 1.58353 102.706 4.71194 104.511L90.5369 154.058C96.3812 157.436 103.583 157.419 109.419 154.032L194.574 104.545C197.711 102.723 199.266 99.5518 199.258 96.3804V87.2014V87.21Z" fill="url(#paint0_linear_205_12730)"/>
<path d="M194.548 79.0796L108.723 29.5236C102.879 26.1459 95.6765 26.1631 89.8408 29.5494L4.68618 79.0367C-1.57064 82.6722 -1.56205 91.7136 4.71196 95.3319L90.5369 144.879C96.3812 148.257 103.583 148.24 109.419 144.854L194.574 95.3663C200.831 91.7308 200.822 82.6894 194.548 79.0711V79.0796Z" fill="url(#paint1_linear_205_12730)"/>
<path d="M145.581 37.1756L146.614 36.5769L146.46 91.6065L145.426 92.2149L145.581 37.1756Z" fill="#E5E3E8"/>
<path d="M82.2278 0.598673L83.261 0L146.614 36.577L145.581 37.1757L82.2278 0.598673Z" fill="#F9F7FC"/>
<path d="M145.581 37.1756L145.426 92.2149L82.0733 55.6379L82.2278 0.598633L145.581 37.1756Z" fill="#F5F3FB"/>
<path d="M128.219 53.8034L125.892 52.4612V49.7769L128.219 51.119V53.8034Z" fill="url(#paint2_linear_205_12730)"/>
<path d="M128.219 57.4727L125.892 56.1305V53.4462L128.219 54.7884V57.4727Z" fill="#FF6700"/>
<path d="M128.219 61.1418L125.892 59.7996V57.1152L128.219 58.4574V61.1418Z" fill="#DDDDDD"/>
<path d="M144.055 62.9477L129.34 54.4504V51.766L144.055 60.2633V62.9477Z" fill="url(#paint3_linear_205_12730)"/>
<path d="M144.055 66.617L129.34 58.1197V55.4353L144.055 63.9326V66.617Z" fill="#FF6700"/>
<path d="M144.055 70.2863L129.34 61.789V59.1046L144.055 67.6019V70.2863Z" fill="#DDDDDD"/>
<g opacity="0.2">
<path d="M83.7921 26.052V55.6187L123.951 78.8028V49.2361L123.923 49.2168L83.8983 26.1099L83.8018 26.052H83.7921ZM83.9273 47.2952L87.4324 49.3133V53.3592L83.9273 51.3411V47.2952ZM123.816 53.3592L120.311 51.3411V47.2952L123.816 49.3133V53.3592ZM83.9273 26.2837L87.4324 28.3019V32.3477L83.9273 30.3296V26.2837ZM105.624 47.218V51.2639L102.119 49.2361V45.1902L105.624 47.218ZM102.119 53.4461V49.4002L105.624 51.428V55.4739L102.119 53.4461ZM109.265 53.5234V57.5692L105.76 55.5511V51.5053L109.265 53.5234ZM98.4789 51.3411V47.2952L101.984 49.3133V53.3592L98.4789 51.3411ZM98.4789 47.1407V43.0949L101.984 45.113V49.1588L98.4789 47.1407ZM109.265 49.323V53.3689L105.76 51.3508V47.3049L109.265 49.323ZM112.905 55.6284V59.6742L109.4 57.6465V53.6006L112.905 55.6284ZM112.905 59.8287V63.8746L109.4 61.8469V57.801L112.905 59.8287ZM109.265 61.7696L105.76 59.7515V55.7056L109.265 57.7237V61.7696ZM105.624 59.6646L102.119 57.6368V53.591L105.624 55.6187V59.6646ZM101.984 57.5596L98.4789 55.5415V51.4956L101.984 53.5137V57.5596ZM94.8386 49.2361V45.1902L98.3437 47.218V51.2639L94.8386 49.2361ZM94.8386 45.0357V40.9899L98.3437 43.0176V47.0635L94.8386 45.0357ZM112.895 51.4184V55.4642L109.39 53.4365V49.3906L112.895 51.4184ZM116.536 57.7237V61.7696L113.031 59.7515V55.7056L116.536 57.7237ZM116.536 61.9241V65.97L113.031 63.9519V59.906L116.536 61.9241ZM94.8386 53.4461V49.4002L98.3437 51.428V55.4739L94.8386 53.4461ZM91.1983 47.1407V43.0949L94.7034 45.113V49.1588L91.1983 47.1407ZM91.1983 42.9404V38.8945L94.7034 40.9126V44.9585L91.1983 42.9404ZM94.8386 40.8354V36.7895L98.3437 38.8173V42.8631L94.8386 40.8354ZM98.4789 38.8945L101.984 40.9126V44.9585L98.4789 42.9404V38.8945ZM102.119 40.9995L105.624 43.0273V47.0731L102.119 45.0454V40.9995ZM105.76 43.1045L109.265 45.1226V49.1685L105.76 47.1504V43.1045ZM109.4 45.2095L112.905 47.2373V51.2832L109.4 49.2554V45.2095ZM113.04 47.3145L116.545 49.3327V53.3785L113.04 51.3604V47.3145ZM116.545 53.5427V57.5885L113.04 55.5704V51.5246L116.545 53.5427ZM120.186 59.8481V63.8939L116.681 61.8662V57.8203L120.186 59.8481ZM120.186 64.0484V68.0943L116.681 66.0665V62.0207L120.186 64.0484ZM91.2079 51.3604V47.3145L94.7131 49.3327V53.3785L91.2079 51.3604ZM87.5676 45.055V41.0092L91.0727 43.0369V47.0828L87.5676 45.055ZM87.5676 40.8547V36.8088L91.0727 38.8366V42.8824L87.5676 40.8547ZM91.2079 38.7497V34.7038L94.7131 36.7219V40.7678L91.2079 38.7497ZM91.2079 34.5493V30.5034L94.7131 32.5215V36.5674L91.2079 34.5493ZM94.8483 32.6084L98.3534 34.6362V38.6821L94.8483 36.6543V32.6084ZM98.4886 34.7134L101.994 36.7316V40.7774L98.4886 38.7593V34.7134ZM102.129 36.8185L105.634 38.8462V42.8921L102.129 40.8643V36.8185ZM105.769 38.9235L109.274 40.9416V44.9874L105.769 42.9693V38.9235ZM109.41 41.0285L112.915 43.0562V47.1021L109.41 45.0744V41.0285ZM113.05 43.1335L116.555 45.1516V49.1975L113.05 47.1794V43.1335ZM116.69 45.2385L120.195 47.2663V51.3121L116.69 49.2844V45.2385ZM120.195 51.4666V55.5125L116.69 53.4847V49.4389L120.195 51.4666ZM120.195 55.667V59.7129L116.69 57.6851V53.6392L120.195 55.667ZM123.836 61.9724V66.0182L120.33 64.0001V59.9543L123.836 61.9724ZM123.836 70.2186L120.33 68.2005V64.1546L123.836 66.1727V70.2186ZM116.555 66.1727V70.2186L113.05 68.2005V64.1546L116.555 66.1727ZM112.915 68.1136L109.41 66.0858V62.04L112.915 64.0677V68.1136ZM109.274 66.0086L105.769 63.9905V59.9446L109.274 61.9627V66.0086ZM105.634 63.9036L102.129 61.8758V57.8299L105.634 59.8577V63.9036ZM101.994 61.7986L98.4886 59.7805V55.7346L101.994 57.7527V61.7986ZM98.3534 59.6936L94.8483 57.6658V53.6199L98.3534 55.6477V59.6936ZM94.7131 57.5885L91.2079 55.5704V51.5246L94.7131 53.5427V57.5885ZM87.5676 49.2651V45.2192L91.0727 47.247V51.2928L87.5676 49.2651ZM83.9273 42.9597V38.9138L87.4324 40.9319V44.9778L83.9273 42.9597ZM83.9273 38.7593V34.7134L87.4324 36.7316V40.7774L83.9273 38.7593ZM87.5676 36.6543V32.6084L91.0727 34.6362V38.6821L87.5676 36.6543ZM87.5676 32.4539V28.4081L91.0727 30.4358V34.4817L87.5676 32.4539ZM123.826 57.5885L120.321 55.5704V51.5246L123.826 53.5427V57.5885ZM123.826 61.7889L120.321 59.7708V55.7249L123.826 57.743V61.7889ZM123.826 74.3997L120.321 72.3816V68.3357L123.826 70.3538V74.3997ZM120.186 72.2947L116.681 70.2669V66.221L120.186 68.2488V72.2947ZM120.186 72.4492V76.495L116.681 74.4673V70.4214L120.186 72.4492ZM116.545 74.39L113.04 72.3719V68.326L116.545 70.3441V74.39ZM112.905 72.285L109.4 70.2572V66.2114L112.905 68.2391V72.285ZM109.265 70.18L105.76 68.1619V64.116L109.265 66.1341V70.18ZM105.624 68.075L102.119 66.0472V62.0013L105.624 64.0291V68.075ZM101.984 65.97L98.4789 63.9519V59.906L101.984 61.9241V65.97ZM98.3437 63.865L94.8386 61.8372V57.7913L98.3437 59.8191V63.865ZM94.7034 61.7599L91.1983 59.7418V55.696L94.7034 57.7141V61.7599ZM91.0631 59.6549L87.558 57.6272V53.5813L91.0631 55.6091V59.6549ZM87.558 53.4268V49.3809L91.0631 51.4087V55.4546L87.558 53.4268ZM83.9176 43.0756L87.4228 45.0937V49.1395L83.9176 47.1214V43.0756ZM83.9176 30.4648L87.4228 32.4829V36.5288L83.9176 34.5107V30.4648ZM123.807 78.5518L120.302 76.5336V72.4878L123.807 74.5059V78.5518ZM83.9176 55.5222V51.4763L87.4228 53.4944V57.5403L83.9176 55.5222Z" fill="#828CC0"/>
</g>
<path d="M123.256 65.8057C123.256 65.8057 123.333 65.8057 123.362 65.7864C123.498 65.7284 123.556 65.5643 123.498 65.4291C123.237 64.8498 120.958 59.7707 119.616 58.9596C118.901 58.5251 118.235 59.1527 117.656 59.7031C117.057 60.2631 116.68 60.5915 116.333 60.3694C114.981 59.5003 113.755 56.4201 112.577 53.4267C111.312 50.2305 110.114 47.2082 108.618 46.233C107.816 45.7115 107.034 46.4068 106.358 47.0248C105.673 47.6427 105.18 48.029 104.765 47.7683C103.915 47.2372 103.23 45.2191 102.505 43.0851C101.434 39.9372 100.207 36.3645 97.8995 35.4375C96.3738 34.8292 95.051 35.0803 93.8343 36.2197C92.8108 37.1756 92.019 38.6144 91.2658 40.0048C89.8464 42.6023 88.8711 44.1279 87.3455 43.4231C86.2447 42.9113 85.0377 40.1593 84.6707 39.1358C84.6225 38.9909 84.468 38.9234 84.3231 38.9716C84.1783 39.0199 84.1107 39.1744 84.159 39.3193C84.2169 39.4737 85.5881 43.201 87.1137 43.9155C88.0697 44.3597 88.9387 44.1473 89.7788 43.2782C90.4837 42.5444 91.0823 41.4436 91.7293 40.2752C93.2163 37.5715 94.7516 34.7713 97.6871 35.9493C99.7631 36.7894 100.941 40.2366 101.984 43.2782C102.776 45.6053 103.461 47.6138 104.475 48.2414C105.277 48.7435 106.04 48.0483 106.715 47.44C107.43 46.793 107.893 46.4261 108.318 46.7061C109.67 47.5848 110.887 50.6651 112.065 53.6391C113.339 56.8449 114.537 59.8769 116.033 60.8329C116.758 61.2963 117.424 60.6687 118.023 60.1087C118.592 59.5679 118.998 59.23 119.336 59.4424C120.35 60.0507 122.329 64.1449 123.005 65.6705C123.053 65.7671 123.15 65.8347 123.256 65.8347V65.8057Z" fill="url(#paint4_linear_205_12730)"/>
<path d="M113.581 72.6615L120.05 76.3984V64.5408L113.581 60.804V72.6615Z" fill="#FF6700"/>
<path d="M103.877 67.0609L110.346 70.7978V53.0887L103.877 49.3518V67.0609Z" fill="white"/>
<path d="M84.468 55.8503L90.9376 59.5872V48.5504L84.468 44.8135V55.8503Z" fill="#C6C6C6"/>
<path d="M94.1723 61.4509L100.642 65.1878V42.6893L94.1723 38.9524V61.4509Z" fill="url(#paint5_linear_205_12730)"/>
<path d="M87.3842 19.1866L85.3371 19.7757C86.8531 22.9911 89.2767 25.9072 91.9997 27.4812V24.5264C90.1168 23.4353 88.4367 21.4172 87.3842 19.1963V19.1866Z" fill="#C6C6C6"/>
<path d="M97.3299 23.4738C96.4608 25.3953 94.4041 25.9071 91.9998 24.5166V27.4714C95.4663 29.4702 98.45 28.7266 99.6956 25.9554L97.3299 23.4641V23.4738Z" fill="#C6C6C6"/>
<path d="M91.9997 11.2104V8.2557C88.5332 6.2569 85.5495 7.00041 84.3039 9.77169L86.6696 12.2629C87.5387 10.3414 89.5954 9.82963 91.9997 11.2201V11.2104Z" fill="#C6C6C6"/>
<path d="M86.2351 14.542C86.2351 13.644 86.3896 12.8812 86.6696 12.2632L84.3039 9.77197C83.8983 10.67 83.6762 11.7708 83.6762 13.0647C83.6762 15.218 84.2942 17.574 85.3371 19.7853L87.3841 19.1962C86.6599 17.6706 86.2351 16.0387 86.2351 14.542Z" fill="#C6C6C6"/>
<path d="M96.6153 16.5503L98.6624 15.9612C97.1464 12.7458 94.7228 9.82967 91.9998 8.25574V11.2105C93.8827 12.3016 95.5628 14.3197 96.6153 16.5406V16.5503Z" fill="url(#paint6_linear_205_12730)"/>
<path d="M97.7644 21.195C97.7644 22.093 97.6099 22.8558 97.3299 23.4738L99.6956 25.9651C100.101 25.0671 100.323 23.9663 100.323 22.6724C100.323 20.5191 99.7052 18.163 98.6624 15.9518L96.6153 16.5408C97.3395 18.0664 97.7644 19.6983 97.7644 21.195Z" fill="url(#paint7_linear_205_12730)"/>
<path d="M137.277 52.1327L137.238 52.1134L102.621 32.1254V15.4205L102.66 15.4398L137.277 35.4278V52.1327ZM102.67 32.0965L137.229 52.0458V35.4568L102.67 15.5074V32.0965Z" fill="#E5E3E8"/>
<path d="M137.238 38.2475L102.631 18.2596L102.66 18.2209L137.267 38.1992L137.238 38.2475Z" fill="#E5E3E8"/>
<path d="M137.238 41.0188L102.631 21.0405L102.66 20.9922L137.267 40.9705L137.238 41.0188Z" fill="#E5E3E8"/>
<path d="M102.66 23.7678L102.636 23.8096L137.24 43.7879L137.264 43.7461L102.66 23.7678Z" fill="#E5E3E8"/>
<path d="M102.664 26.5486L102.64 26.5905L137.244 46.5687L137.268 46.5269L102.664 26.5486Z" fill="#E5E3E8"/>
<path d="M102.66 29.3151L102.636 29.3569L137.239 49.3352L137.264 49.2934L102.66 29.3151Z" fill="#E5E3E8"/>
<path d="M133.81 33.4485H133.762V50.0955H133.81V33.4485Z" fill="#E5E3E8"/>
<path d="M130.353 31.4496H130.305V48.0966H130.353V31.4496Z" fill="#E5E3E8"/>
<path d="M126.897 29.4509H126.848V46.0979H126.897V29.4509Z" fill="#E5E3E8"/>
<path d="M123.43 27.4519H123.382V44.0989H123.43V27.4519Z" fill="#E5E3E8"/>
<path d="M119.973 25.4534H119.925V42.1003H119.973V25.4534Z" fill="#E5E3E8"/>
<path d="M116.507 23.4543H116.458V40.1013H116.507V23.4543Z" fill="#E5E3E8"/>
<path d="M113.05 21.4652H113.002V38.1122H113.05V21.4652Z" fill="#E5E3E8"/>
<path d="M109.593 19.4664H109.545V36.1134H109.593V19.4664Z" fill="#E5E3E8"/>
<path d="M106.126 17.4678H106.078V34.1147H106.126V17.4678Z" fill="#E5E3E8"/>
<path d="M106.107 34.1147L102.641 32.1159V18.2402L106.107 20.239V34.1147Z" fill="#C6C6C6"/>
<path d="M111.292 37.1081L107.836 35.1093V26.7375L111.292 28.7363V37.1081Z" fill="url(#paint8_linear_205_12730)"/>
<path d="M132.063 49.1008L128.596 47.102V38.7302L132.063 40.729V49.1008Z" fill="url(#paint9_linear_205_12730)"/>
<path d="M121.682 43.1044L118.216 41.1056V38.0736L121.682 40.0724V43.1044Z" fill="url(#paint10_linear_205_12730)"/>
<path d="M137.248 52.0942L133.791 50.0954V43.1624L137.248 45.1611V52.0942Z" fill="#C6C6C6"/>
<path d="M116.487 40.111L113.031 38.1122V26.9982L116.487 28.997V40.111Z" fill="#C6C6C6"/>
<path d="M126.868 46.0978L123.411 44.099V29.306L126.868 31.3048V46.0978Z" fill="#C6C6C6"/>
<path d="M134.477 75.8289L130.595 81.3521C126.877 76.7269 125.603 70.5084 127.746 67.4571C129.175 65.4197 131.618 65.2072 134.477 66.8584V75.8289Z" fill="#FF6700"/>
<path d="M134.476 75.8287L138.358 85.842C135.886 86.0641 133.067 84.4322 130.585 81.352L134.467 75.8287H134.476Z" fill="white"/>
<path d="M134.477 75.8288L138.358 70.3055C142.076 74.9308 143.35 81.1492 141.207 84.2005C140.492 85.2144 139.604 85.7359 138.358 85.8421L134.477 75.8288Z" fill="url(#paint11_linear_205_12730)"/>
<path d="M134.477 75.8287V66.8583C135.906 67.679 137.122 68.7605 138.358 70.3055L134.477 75.8287Z" fill="#DDDDDD"/>
<g style="mix-blend-mode:multiply" opacity="0.3">
<path d="M105.151 98.2982L94.0951 91.9155L84.2846 96.2897H87.1138L88.4463 106.197H91.6328L105.151 98.2982Z" fill="url(#paint12_linear_205_12730)"/>
</g>
<g style="mix-blend-mode:multiply" opacity="0.3">
<path d="M92.1349 90.8148L81.0788 84.4321L71.2682 88.8063H74.0975L75.43 98.7134H78.6165L92.1349 90.8148Z" fill="url(#paint13_linear_205_12730)"/>
</g>
<g style="mix-blend-mode:multiply" opacity="0.3">
<path d="M79.2055 83.3315L68.159 76.9489L58.3485 81.323H61.1777L62.5006 91.2301H65.6871L79.2055 83.3315Z" fill="url(#paint14_linear_205_12730)"/>
</g>
<path d="M72.8229 32.7629L72.6684 85.3206L62.5006 91.2301L62.6551 38.6724L72.8229 32.7629Z" fill="url(#paint15_linear_205_12730)"/>
<path d="M62.6551 38.6724L62.5006 91.2301L52.2652 85.3206L52.4197 32.7629L62.6551 38.6724Z" fill="url(#paint16_linear_205_12730)"/>
<path d="M72.8229 32.7629L62.6551 38.6724L52.4197 32.7629L62.5875 26.8534L72.8229 32.7629Z" fill="url(#paint17_linear_205_12730)"/>
<path d="M85.7812 65.3616L85.6364 92.804L75.4686 98.7134L75.6135 71.271L85.7812 65.3616Z" fill="url(#paint18_linear_205_12730)"/>
<path d="M75.6135 71.271L75.4686 98.7134L65.2332 92.804L65.3781 65.3616L75.6135 71.271Z" fill="url(#paint19_linear_205_12730)"/>
<path d="M85.7812 65.3615L75.6135 71.271L65.3781 65.3615L75.5459 59.452L85.7812 65.3615Z" fill="url(#paint20_linear_205_12730)"/>
<path d="M98.7493 59.4521L98.5948 100.287L88.427 106.197L88.5815 65.3616L98.7493 59.4521Z" fill="url(#paint21_linear_205_12730)"/>
<path d="M88.5815 65.3616L88.427 106.197L78.1917 100.287L78.3461 59.4521L88.5815 65.3616Z" fill="url(#paint22_linear_205_12730)"/>
<path d="M98.7493 59.4521L88.5815 65.3616L78.3461 59.4521L88.5139 53.5426L98.7493 59.4521Z" fill="url(#paint23_linear_205_12730)"/>
<path d="M111.708 91.201L111.563 107.771L101.395 113.68L101.54 97.1105L111.708 91.201Z" fill="url(#paint24_linear_205_12730)"/>
<path d="M101.54 97.1105L101.395 113.68L91.1597 107.771L91.3045 91.201L101.54 97.1105Z" fill="url(#paint25_linear_205_12730)"/>
<path d="M111.708 91.2011L101.54 97.1106L91.3045 91.2011L101.472 85.2916L111.708 91.2011Z" fill="url(#paint26_linear_205_12730)"/>
<defs>
<linearGradient id="paint0_linear_205_12730" x1="60" y1="45.7056" x2="203.5" y2="111.206" gradientUnits="userSpaceOnUse">
<stop stop-color="#EAEAEA"/>
<stop offset="1" stop-color="#B0B0B0"/>
</linearGradient>
<linearGradient id="paint1_linear_205_12730" x1="22.7777" y1="44.9593" x2="188.652" y2="96.9562" gradientUnits="userSpaceOnUse">
<stop stop-color="white"/>
<stop offset="1" stop-color="#D7D7D7"/>
</linearGradient>
<linearGradient id="paint2_linear_205_12730" x1="127.056" y1="49.7769" x2="127.056" y2="53.8034" gradientUnits="userSpaceOnUse">
<stop stop-color="#FEFEFE"/>
<stop offset="1" stop-color="#D7D7D7"/>
</linearGradient>
<linearGradient id="paint3_linear_205_12730" x1="136.697" y1="51.766" x2="136.697" y2="62.9477" gradientUnits="userSpaceOnUse">
<stop stop-color="#FEFEFE"/>
<stop offset="1" stop-color="#D7D7D7"/>
</linearGradient>
<linearGradient id="paint4_linear_205_12730" x1="103.832" y1="35.1158" x2="103.832" y2="65.8347" gradientUnits="userSpaceOnUse">
<stop stop-color="#FEFEFE"/>
<stop offset="1" stop-color="#D7D7D7"/>
</linearGradient>
<linearGradient id="paint5_linear_205_12730" x1="97.4071" y1="38.9524" x2="97.4071" y2="65.1878" gradientUnits="userSpaceOnUse">
<stop stop-color="#FEFEFE"/>
<stop offset="1" stop-color="#D7D7D7"/>
</linearGradient>
<linearGradient id="paint6_linear_205_12730" x1="95.3311" y1="8.25574" x2="95.3311" y2="16.5503" gradientUnits="userSpaceOnUse">
<stop stop-color="#FEFEFE"/>
<stop offset="1" stop-color="#D7D7D7"/>
</linearGradient>
<linearGradient id="paint7_linear_205_12730" x1="98.4693" y1="15.9518" x2="98.4693" y2="25.9651" gradientUnits="userSpaceOnUse">
<stop stop-color="#FEFEFE"/>
<stop offset="1" stop-color="#D7D7D7"/>
</linearGradient>
<linearGradient id="paint8_linear_205_12730" x1="109.564" y1="26.7375" x2="109.564" y2="37.1081" gradientUnits="userSpaceOnUse">
<stop stop-color="#FEFEFE"/>
<stop offset="1" stop-color="#D7D7D7"/>
</linearGradient>
<linearGradient id="paint9_linear_205_12730" x1="130.329" y1="38.7302" x2="130.329" y2="49.1008" gradientUnits="userSpaceOnUse">
<stop stop-color="#FEFEFE"/>
<stop offset="1" stop-color="#D7D7D7"/>
</linearGradient>
<linearGradient id="paint10_linear_205_12730" x1="119.949" y1="38.0736" x2="119.949" y2="43.1044" gradientUnits="userSpaceOnUse">
<stop stop-color="#FEFEFE"/>
<stop offset="1" stop-color="#D7D7D7"/>
</linearGradient>
<linearGradient id="paint11_linear_205_12730" x1="138.362" y1="70.3055" x2="138.362" y2="85.8421" gradientUnits="userSpaceOnUse">
<stop stop-color="#FEFEFE"/>
<stop offset="1" stop-color="#D7D7D7"/>
</linearGradient>
<linearGradient id="paint12_linear_205_12730" x1="94.7179" y1="91.9155" x2="94.7179" y2="106.197" gradientUnits="userSpaceOnUse">
<stop stop-color="white"/>
<stop offset="1" stop-color="#989898"/>
</linearGradient>
<linearGradient id="paint13_linear_205_12730" x1="81.7016" y1="84.4321" x2="81.7016" y2="98.7134" gradientUnits="userSpaceOnUse">
<stop stop-color="white"/>
<stop offset="1" stop-color="#989898"/>
</linearGradient>
<linearGradient id="paint14_linear_205_12730" x1="68.777" y1="76.9489" x2="68.777" y2="91.2301" gradientUnits="userSpaceOnUse">
<stop stop-color="white"/>
<stop offset="1" stop-color="#989898"/>
</linearGradient>
<linearGradient id="paint15_linear_205_12730" x1="68.6322" y1="37.6585" x2="67.6617" y2="91.2301" gradientUnits="userSpaceOnUse">
<stop stop-color="#FFBB8D"/>
<stop offset="1" stop-color="#FF6700"/>
</linearGradient>
<linearGradient id="paint16_linear_205_12730" x1="57.4602" y1="32.7629" x2="57.4602" y2="91.2301" gradientUnits="userSpaceOnUse">
<stop stop-color="#FFAD75"/>
<stop offset="1" stop-color="#FF6700"/>
</linearGradient>
<linearGradient id="paint17_linear_205_12730" x1="62.8385" y1="42.4864" x2="62.3557" y2="17.8636" gradientUnits="userSpaceOnUse">
<stop stop-color="#FFA76B"/>
<stop offset="1" stop-color="#FF6700"/>
</linearGradient>
<linearGradient id="paint18_linear_205_12730" x1="80.6249" y1="65.3616" x2="80.6249" y2="98.7134" gradientUnits="userSpaceOnUse">
<stop stop-color="white"/>
<stop offset="1" stop-color="#989898"/>
</linearGradient>
<linearGradient id="paint19_linear_205_12730" x1="70.4234" y1="65.3616" x2="70.4234" y2="98.7134" gradientUnits="userSpaceOnUse">
<stop stop-color="white"/>
<stop offset="1" stop-color="#989898"/>
</linearGradient>
<linearGradient id="paint20_linear_205_12730" x1="75.3912" y1="73.8684" x2="75.874" y2="52.1424" gradientUnits="userSpaceOnUse">
<stop stop-color="#FEFEFE"/>
<stop offset="1" stop-color="#D7D7D7"/>
</linearGradient>
<linearGradient id="paint21_linear_205_12730" x1="94.2206" y1="62.2813" x2="93.5882" y2="106.197" gradientUnits="userSpaceOnUse">
<stop stop-color="#FEFEFE"/>
<stop offset="1" stop-color="#D7D7D7"/>
<stop offset="1" stop-color="#D7D7D7"/>
</linearGradient>
<linearGradient id="paint22_linear_205_12730" x1="83.3866" y1="59.4521" x2="83.3866" y2="106.197" gradientUnits="userSpaceOnUse">
<stop stop-color="white"/>
<stop offset="1" stop-color="#989898"/>
</linearGradient>
<linearGradient id="paint23_linear_205_12730" x1="88.427" y1="69.0404" x2="88.427" y2="47.3144" gradientUnits="userSpaceOnUse">
<stop stop-color="#FEFEFE"/>
<stop offset="1" stop-color="#D7D7D7"/>
</linearGradient>
<linearGradient id="paint24_linear_205_12730" x1="106.551" y1="91.201" x2="106.551" y2="113.68" gradientUnits="userSpaceOnUse">
<stop stop-color="white"/>
<stop offset="1" stop-color="#989898"/>
</linearGradient>
<linearGradient id="paint25_linear_205_12730" x1="96.3498" y1="91.201" x2="96.3498" y2="113.68" gradientUnits="userSpaceOnUse">
<stop stop-color="white"/>
<stop offset="1" stop-color="#989898"/>
</linearGradient>
<linearGradient id="paint26_linear_205_12730" x1="101.945" y1="94.1461" x2="101.945" y2="70.9717" gradientUnits="userSpaceOnUse">
<stop stop-color="#FEFEFE"/>
<stop offset="1" stop-color="#D7D7D7"/>
</linearGradient>
</defs>
</svg>
