<svg width="192" height="131" viewBox="0 0 192 131" fill="none" xmlns="http://www.w3.org/2000/svg">
<path d="M70.177 31.9817C73.01 29.2019 79.3738 28.3739 84.0758 30.2547C87.855 31.7628 89.31 35.0453 87.2459 37.3992C86.0748 38.7359 84.129 39.6703 81.9052 40.1317C80.8524 40.3505 80.7341 41.1844 81.6982 41.5156L100.766 48.0451L112.08 36.9497C112.814 36.2341 114.689 36.3406 115.144 37.1331C115.877 38.4165 117.451 39.5521 119.722 40.2381C123.98 41.5216 129.309 40.6935 131.852 38.3574C134.644 35.7905 133.183 32.4075 128.676 30.8638C126.653 30.1719 124.365 29.9708 122.229 30.1955C120.804 30.3493 119.728 29.4503 120.461 28.7287L131.775 17.6334L82.7983 0.866105C80.6572 0.132722 77.9011 0.5349 76.6473 1.771L47.9034 29.9471L66.995 36.4825C67.9472 36.8078 69.1479 36.3524 68.9704 35.7255C68.6156 34.4775 68.9823 33.1586 70.177 31.9876V31.9817Z" fill="url(#paint0_linear_1_2470)"/>
<path d="M122.229 30.1955C124.365 29.9648 126.653 30.1659 128.676 30.8638C129.498 31.1477 130.214 31.4908 130.829 31.8752L131.781 30.9466V17.6393L120.467 28.7347C119.734 29.4562 120.81 30.3552 122.235 30.2014L122.229 30.1955Z" fill="url(#paint1_linear_1_2470)"/>
<path d="M133.201 36.1276C133.047 36.8965 132.615 37.6535 131.852 38.3514C129.309 40.6876 123.986 41.5156 119.722 40.2322C117.451 39.5461 115.877 38.4105 115.144 37.1271C114.689 36.3346 112.808 36.2222 112.08 36.9438L100.766 48.0392L81.6982 41.5097C80.7283 41.1785 80.8525 40.3445 81.9052 40.1257C84.135 39.6644 86.0808 38.7299 87.2459 37.3933C89.31 35.0393 87.8551 31.7628 84.0758 30.2487C79.3739 28.3679 73.0159 29.2019 70.177 31.9757C68.9823 33.1467 68.6156 34.4657 68.9705 35.7136C69.1479 36.3464 67.9532 36.8018 66.9951 36.4706L47.9035 29.9352V43.2426L66.9951 49.778C67.9473 50.1033 69.1479 49.6479 68.9705 49.0209C68.6156 47.773 68.9823 46.4541 70.177 45.2831C72.4422 43.0592 76.9608 42.0893 81.0831 42.7458V53.9713C80.9589 54.2788 81.1482 54.6278 81.6982 54.8111L100.766 61.3406L112.08 50.2452C112.814 49.5296 114.689 49.636 115.144 50.4286C115.877 51.712 117.451 52.8475 119.722 53.5336C123.98 54.817 129.309 53.989 131.852 51.6528C133.023 50.5764 133.437 49.3581 133.201 48.187V36.1158V36.1276Z" fill="url(#paint2_linear_1_2470)"/>
<path d="M113.784 49.7898V36.4824C113.145 36.4292 112.459 36.5771 112.08 36.9497L100.766 48.045V61.3524L112.08 50.257C112.459 49.8844 113.145 49.7366 113.784 49.7898Z" fill="url(#paint3_linear_1_2470)"/>
<path d="M112.489 49.991C112.489 49.991 112.435 50.0087 112.412 50.0205C112.435 50.0087 112.465 50.0028 112.489 49.991Z" fill="url(#paint4_linear_1_2470)"/>
<path d="M112.873 49.8608C112.873 49.8608 112.849 49.8608 112.832 49.8668C112.843 49.8668 112.855 49.8668 112.873 49.8608Z" fill="url(#paint5_linear_1_2470)"/>
<path d="M81.6982 41.5157C80.7283 41.1845 80.8525 40.3505 81.9052 40.1317C84.135 39.6704 86.0808 38.7359 87.2459 37.3992C89.31 35.0453 87.8551 31.7688 84.0758 30.2547C79.3739 28.3739 73.0159 29.2078 70.177 31.9817C68.9823 33.1527 68.6156 34.4716 68.9705 35.7196C69.1479 36.3524 67.9532 36.8019 66.9951 36.4766L47.9035 29.9412V43.2486L66.9951 49.784C67.9473 50.1093 69.1479 49.6538 68.9705 49.0269C68.6156 47.779 68.9823 46.4601 70.177 45.289C72.4422 43.0711 76.9608 42.0953 81.0831 42.7518V53.9773C80.9589 54.2848 81.1482 54.6337 81.6982 54.8171L100.766 61.3466V48.0392L81.6982 41.5097V41.5157Z" fill="url(#paint6_linear_1_2470)"/>
<path d="M133.201 48.1989V36.1277C133.047 36.8966 132.615 37.6536 131.852 38.3515C129.309 40.6877 123.986 41.5157 119.722 40.2323C117.445 39.5462 115.877 38.4106 115.144 37.1272C114.813 36.5476 113.719 36.3347 112.867 36.5476C113.157 36.4766 113.476 36.453 113.778 36.4825V49.7899C114.369 49.8372 114.919 50.056 115.138 50.4405C115.872 51.7239 117.445 52.8595 119.716 53.5455C123.974 54.829 129.303 54.0009 131.846 51.6648C133.017 50.5883 133.431 49.37 133.195 48.1989H133.201Z" fill="url(#paint7_linear_1_2470)"/>
<path d="M65.6112 36.0093L47.9035 29.9412V29.9471L65.6112 36.0093Z" fill="url(#paint8_linear_1_2470)"/>
<path d="M66.9951 49.7898C67.1193 49.8312 67.2435 49.8608 67.3677 49.8785C67.2435 49.8608 67.1134 49.8312 66.9951 49.7898Z" fill="url(#paint9_linear_1_2470)"/>
<path d="M67.4328 49.8785C67.5393 49.8904 67.6457 49.8963 67.7522 49.8963C67.6457 49.8963 67.5393 49.8963 67.4328 49.8785Z" fill="url(#paint10_linear_1_2470)"/>
<path d="M81.0596 54.0718C81.0478 54.1309 81.0478 54.1901 81.0596 54.2433V54.0718Z" fill="url(#paint11_linear_1_2470)"/>
<path d="M81.0596 40.9774C80.9591 40.6343 81.2489 40.2617 81.9054 40.1257C84.1351 39.6644 86.0809 38.7299 87.2461 37.3933C89.3102 35.0393 87.8552 31.7628 84.0759 30.2487C79.374 28.3679 73.0161 29.2019 70.1772 31.9757C68.9825 33.1467 68.6158 34.4657 68.9706 35.7136C69.0593 36.0211 68.8169 36.2814 68.4442 36.4351V49.7366C68.5566 49.6774 69.0771 49.3876 68.9706 49.0209C68.6158 47.773 68.9825 46.4541 70.1772 45.2831C72.4365 43.0652 76.9432 42.0952 81.0596 42.7458V40.9715V40.9774Z" fill="url(#paint12_linear_1_2470)"/>
<g style="mix-blend-mode:color-dodge">
<path d="M120.414 29.0836C120.414 29.0836 120.443 29.0481 120.461 29.0304L131.775 17.935L131.107 17.7043L120.461 28.1373C120.142 28.4508 120.165 28.7997 120.414 29.0777V29.0836Z" fill="url(#paint13_linear_1_2470)"/>
<path d="M131.852 37.7659C129.309 40.1021 123.986 40.9301 119.722 39.6467C117.445 38.9606 115.877 37.8251 115.144 36.5417C114.689 35.7491 112.808 35.6368 112.08 36.3583L100.766 47.4537L81.6983 40.9242C81.5208 40.8651 81.3907 40.7823 81.2843 40.6935C80.8584 41.0366 80.9708 41.563 81.6983 41.8114L100.766 48.3408L112.08 37.2455C112.814 36.5298 114.689 36.6363 115.144 37.4288C115.877 38.7122 117.451 39.8478 119.722 40.5339C123.98 41.8173 129.309 40.9893 131.852 38.6531C132.964 37.6299 133.39 36.4825 133.23 35.3706C133.112 36.1927 132.668 37.0148 131.852 37.7659Z" fill="url(#paint14_linear_1_2470)"/>
<path d="M68.87 35.5598C68.5684 35.9383 67.7108 36.1394 66.9951 35.891L48.5719 29.5863L47.9035 30.2428L66.9951 36.7782C67.9474 37.1035 69.148 36.6481 68.9706 36.0211C68.9292 35.8674 68.8937 35.7136 68.8759 35.5598H68.87Z" fill="url(#paint15_linear_1_2470)"/>
<path d="M88.1508 34.8916C88.4229 32.9102 86.897 30.7929 84.0758 29.6632C79.3739 27.7825 73.0159 28.6164 70.177 31.3902C69.1243 32.4193 68.7162 33.5667 68.8759 34.6727C68.9883 33.8506 69.4082 33.0285 70.177 32.2774C73.01 29.4976 79.3739 28.6696 84.0758 30.5504C86.483 31.5144 87.9379 33.1941 88.1508 34.8916Z" fill="url(#paint16_linear_1_2470)"/>
</g>
<path d="M50.4468 72.5188C46.4723 70.224 46.6261 66.4565 50.92 64.3096C54.374 62.5826 60.2233 62.6063 63.6714 64.3569C65.629 65.3505 66.7232 66.6754 66.9598 68.0416C67.0721 68.6862 68.4384 68.9642 69.2309 68.5088L84.8153 59.513L68.9529 50.3576C67.9297 49.7662 68.5626 48.743 70.0057 48.6897C72.3418 48.6069 74.6248 48.0155 76.3281 46.9213C79.516 44.8631 79.4214 41.6753 76.1152 39.6585C72.4897 37.4465 66.457 37.3933 62.7724 39.5224C61.1163 40.4747 60.2233 41.7049 60.0872 42.9587C59.9985 43.7926 58.2301 44.1652 57.201 43.5738L41.3387 34.4183L1.31015 57.5258C-0.44051 58.5372 -0.428681 60.1814 1.32789 61.1986L41.6107 84.4599L57.2129 75.4523C57.9936 75.0028 57.5204 74.2162 56.4203 74.1571C54.2438 74.0388 52.1147 73.4946 50.4409 72.5306L50.4468 72.5188Z" fill="url(#paint17_linear_1_2470)"/>
<path d="M76.3278 46.9214C74.6245 48.0155 72.3415 48.607 70.0053 48.6898C68.5622 48.743 67.9235 49.7662 68.9526 50.3576L78.6048 55.929V43.905C78.4215 44.9992 77.6645 46.0579 76.3278 46.9214Z" fill="url(#paint18_linear_1_2470)"/>
<path d="M69.2306 68.5088C68.438 68.9642 67.0718 68.6863 66.9594 68.0416C66.7229 66.6754 65.6287 65.3506 63.6711 64.3569C60.2171 62.6004 54.3677 62.5826 50.9196 64.3096C46.6258 66.4565 46.472 70.2299 50.4465 72.5188C52.1203 73.4828 54.2435 74.0269 56.4259 74.1452C57.1002 74.1807 57.5378 74.4942 57.597 74.8313V74.8431C57.597 74.855 57.597 74.8668 57.597 74.8786V76.3395C59.8208 76.3809 62.0209 76.8245 63.677 77.6643C65.6346 78.6579 66.7288 79.9827 66.9654 81.3489C67.0777 81.9936 68.444 82.2716 69.2365 81.8162L84.1644 73.1989L84.8209 73.0629V59.5131L69.2365 68.5088H69.2306Z" fill="url(#paint19_linear_1_2470)"/>
<path d="M1.32759 61.1987C0.464086 60.7019 0.0205078 60.0513 0.00276468 59.3948V72.4242H0.0205078C-0.103694 73.1634 0.33397 73.9323 1.32759 74.506L41.6104 97.7673V84.4599L1.32759 61.1987Z" fill="url(#paint20_linear_1_2470)"/>
<path d="M57.2185 75.4464L41.6163 84.454V97.7613L57.2185 88.7537C57.461 88.6118 57.5733 88.4403 57.5911 88.2688H57.597V88.1919C57.597 88.1801 57.597 88.1682 57.597 88.1564V74.8845C57.6088 75.0856 57.4964 75.2867 57.2185 75.4523V75.4464Z" fill="url(#paint21_linear_1_2470)"/>
<path d="M57.2185 75.4464L41.6163 84.454V97.7613L57.2185 88.7537C57.461 88.6118 57.5733 88.4403 57.5911 88.2688H57.597V88.1919C57.597 88.1801 57.597 88.1682 57.597 88.1564V74.8845C57.6088 75.0856 57.4964 75.2867 57.2185 75.4523V75.4464Z" fill="url(#paint22_linear_1_2470)"/>
<g style="mix-blend-mode:color-dodge">
<path d="M57.1239 74.9081L41.6105 83.8625L1.32762 60.6071C0.706607 60.2463 0.310344 59.8146 0.121083 59.3533C-0.221951 60.199 0.180227 61.1276 1.32762 61.79L41.6105 85.0513L57.2126 76.0437C57.7981 75.7065 57.6798 75.1801 57.118 74.914L57.1239 74.9081Z" fill="url(#paint23_linear_1_2470)"/>
<path d="M76.3279 46.3298C74.6246 47.4299 72.3416 48.0154 70.0113 48.0982C68.651 48.1456 68.0064 49.0564 68.7989 49.6596C69.071 49.4526 69.485 49.2989 70.0113 49.2811C72.3475 49.1983 74.6305 48.6069 76.3279 47.5127C78.1318 46.3476 78.8829 44.8217 78.5931 43.349C78.3979 44.4254 77.6468 45.4782 76.3279 46.3298Z" fill="url(#paint24_linear_1_2470)"/>
<path d="M69.2307 67.9174C68.4381 68.3728 67.0719 68.0948 66.9595 67.4502C66.723 66.0839 65.6288 64.7591 63.6711 63.7655C60.2171 62.0089 54.3678 61.9912 50.9197 63.7182C48.412 64.972 47.3238 66.7818 47.6432 68.5266C47.8916 67.1781 48.9798 65.871 50.9197 64.9011C54.3737 63.1741 60.2231 63.1977 63.6711 64.9484C65.6288 65.942 66.723 67.2668 66.9595 68.633C67.0719 69.2777 68.4381 69.5557 69.2307 69.1003L84.815 60.1045L83.7919 59.5131L69.2307 67.9174Z" fill="url(#paint25_linear_1_2470)"/>
</g>
<path d="M141.215 44.9578C145.189 47.2526 145.035 51.02 140.741 53.1669C137.287 54.8939 131.438 54.8703 127.99 53.1196C126.032 52.126 124.938 50.8012 124.702 49.435C124.589 48.7903 123.223 48.5123 122.43 48.9677L106.846 57.9635L122.708 67.119C123.732 67.7104 123.099 68.7336 121.656 68.7868C119.32 68.8696 117.037 69.4611 115.333 70.5552C112.145 72.6134 112.24 75.8013 115.546 77.8181C119.172 80.0301 125.204 80.0833 128.889 77.9541C130.545 77.0019 131.438 75.7717 131.574 74.5179C131.663 73.6839 133.431 73.3113 134.46 73.9028L150.323 83.0582L190.357 59.9448C192.108 58.9335 192.096 57.2893 190.339 56.272L150.057 33.0107L134.454 42.0183C133.674 42.4678 134.147 43.2544 135.247 43.3136C137.423 43.4319 139.553 43.976 141.226 44.94L141.215 44.9578Z" fill="url(#paint26_linear_1_2470)"/>
<path d="M141.215 44.9578C145.189 47.2526 145.035 51.02 140.741 53.1669C137.287 54.8939 131.438 54.8703 127.99 53.1196C126.032 52.126 124.938 50.8012 124.702 49.435C124.589 48.7903 123.223 48.5123 122.43 48.9677L106.846 57.9635L122.708 67.119C123.732 67.7104 123.099 68.7336 121.656 68.7868C119.32 68.8696 117.037 69.4611 115.333 70.5552C112.145 72.6134 112.24 75.8013 115.546 77.8181C119.172 80.0301 125.204 80.0833 128.889 77.9541C130.545 77.0019 131.438 75.7717 131.574 74.5179C131.663 73.6839 133.431 73.3113 134.46 73.9028L150.323 83.0582L190.357 59.9448C192.108 58.9335 192.096 57.2893 190.339 56.272L150.057 33.0107L134.454 42.0183C133.674 42.4678 134.147 43.2544 135.247 43.3136C137.423 43.4319 139.553 43.976 141.226 44.94L141.215 44.9578Z" fill="url(#paint27_linear_1_2470)"/>
<path d="M140.741 53.1728C145.035 51.0259 145.189 47.2525 141.214 44.9637C139.541 43.9996 137.417 43.4555 135.235 43.3372C134.531 43.2958 134.088 42.9646 134.064 42.6097H134.04V54.4503C136.471 54.5036 138.932 54.0836 140.741 53.1787V53.1728Z" fill="url(#paint28_linear_1_2470)"/>
<path d="M191.652 71.3655H191.682V58.0522H191.652C191.682 58.7442 191.25 59.4303 190.351 59.9508L150.317 83.0642V96.3715L190.351 73.2581C191.25 72.7376 191.682 72.0516 191.652 71.3655Z" fill="url(#paint29_linear_1_2470)"/>
<path d="M191.652 71.3655H191.682V58.0522H191.652C191.682 58.7442 191.25 59.4303 190.351 59.9508L150.317 83.0642V96.3715L190.351 73.2581C191.25 72.7376 191.682 72.0516 191.652 71.3655Z" fill="url(#paint30_linear_1_2470)"/>
<path d="M115.333 70.5611C117.036 69.4669 119.319 68.8755 121.656 68.7927C123.099 68.7394 123.737 67.7163 122.708 67.1248L106.846 57.9694V71.2767L113.021 74.8431L113.092 74.8253C112.754 73.3231 113.488 71.7558 115.333 70.567V70.5611Z" fill="url(#paint31_linear_1_2470)"/>
<path d="M134.454 73.9087C133.946 73.613 133.26 73.5598 132.68 73.6781V86.9854C133.26 86.8671 133.946 86.9263 134.454 87.2161L150.317 96.3715V83.0642L134.454 73.9087Z" fill="url(#paint32_linear_1_2470)"/>
<path d="M131.568 74.5238C131.432 75.7776 130.539 77.0019 128.883 77.96C125.198 80.0892 119.166 80.0419 115.54 77.824C114.15 76.9723 113.334 75.9137 113.086 74.8195L113.015 74.8373V87.1569C112.896 88.5823 113.736 90.0254 115.54 91.1254C119.166 93.3433 125.198 93.3907 128.883 91.2615C130.539 90.3093 131.432 89.0791 131.568 87.8252C131.615 87.3994 132.089 87.0978 132.686 86.9795V73.6721C132.094 73.7904 131.615 74.098 131.568 74.5179V74.5238Z" fill="url(#paint33_linear_1_2470)"/>
<path d="M131.568 74.5238C131.432 75.7776 130.539 77.0019 128.883 77.96C125.198 80.0892 119.166 80.0419 115.54 77.824C114.15 76.9723 113.334 75.9137 113.086 74.8195L113.015 74.8373V87.1569C112.896 88.5823 113.736 90.0254 115.54 91.1254C119.166 93.3433 125.198 93.3907 128.883 91.2615C130.539 90.3093 131.432 89.0791 131.568 87.8252C131.615 87.3994 132.089 87.0978 132.686 86.9795V73.6721C132.094 73.7904 131.615 74.098 131.568 74.5179V74.5238Z" fill="url(#paint34_linear_1_2470)"/>
<g style="mix-blend-mode:color-dodge">
<path d="M122.862 67.8227C123.335 67.456 123.353 66.906 122.702 66.5334L107.869 57.9694L106.846 58.5608L122.708 67.7163C122.767 67.7517 122.821 67.7872 122.868 67.8227H122.862Z" fill="url(#paint35_linear_1_2470)"/>
<path d="M135.235 43.9227C137.411 44.041 139.541 44.5851 141.214 45.5492C142.865 46.5014 143.793 47.7138 144.018 48.9558C144.319 47.3235 143.391 45.626 141.214 44.3663C139.541 43.4022 137.417 42.8581 135.235 42.7398C134.957 42.7221 134.72 42.6629 134.531 42.5742L134.437 42.6275C133.656 43.0769 134.129 43.8636 135.229 43.9227H135.235Z" fill="url(#paint36_linear_1_2470)"/>
</g>
<g style="mix-blend-mode:color-dodge">
<path d="M134.454 73.3172C133.425 72.7257 131.657 73.0924 131.568 73.9323C131.432 75.1861 130.539 76.4104 128.883 77.3685C125.198 79.4977 119.166 79.4504 115.54 77.2325C114.109 76.3572 113.281 75.263 113.062 74.1333C112.784 75.6533 113.612 77.2384 115.54 78.4154C119.166 80.6333 125.198 80.6806 128.883 78.5514C130.539 77.5992 131.432 76.369 131.568 75.1151C131.657 74.2812 133.425 73.9086 134.454 74.5L150.204 83.5904V82.4076L134.454 73.3172Z" fill="url(#paint37_linear_1_2470)"/>
</g>
<g style="mix-blend-mode:color-dodge">
<path d="M190.351 60.5421C191.487 59.8857 191.877 58.9689 191.534 58.1232C191.351 58.5786 190.96 59.0044 190.351 59.3593L150.317 82.4727L150.204 82.4076V83.5905L150.317 83.6555L190.351 60.5421Z" fill="url(#paint38_linear_1_2470)"/>
</g>
<path d="M119.704 86.1101C116.599 88.7893 110.158 89.4044 105.651 87.3758C102.026 85.7434 100.902 82.4254 103.197 80.1425C104.498 78.8472 106.533 77.9778 108.804 77.5934C109.88 77.41 110.081 76.582 109.147 76.2212L90.7531 69.0767L78.3507 79.7699C77.5463 80.4618 75.6833 80.2903 75.3048 79.486C74.7015 78.1789 73.2406 76.996 71.0405 76.239C66.9123 74.8195 61.5124 75.4701 58.7386 77.7176C55.6986 80.1839 56.8164 83.6142 61.1635 85.2998C63.1152 86.0568 65.3804 86.3348 67.5392 86.181C68.9764 86.0746 69.9641 87.0091 69.1597 87.701L56.7573 98.3942L104.007 116.758C106.071 117.563 108.863 117.249 110.241 116.06L141.747 88.8958L123.33 81.7393C122.407 81.3845 121.165 81.7985 121.283 82.4313C121.514 83.6911 121.011 84.9923 119.704 86.1219V86.1101Z" fill="url(#paint39_linear_1_2470)"/>
<path d="M110.241 116.049C108.863 117.237 106.071 117.551 104.007 116.747L56.7573 98.3824V111.69L104.007 130.054C106.071 130.858 108.863 130.545 110.241 129.356L141.747 102.191V88.8839L110.241 116.049Z" fill="url(#paint40_linear_1_2470)"/>
<path d="M67.5392 86.1693C65.3805 86.329 63.1152 86.051 61.1635 85.288C58.6972 84.3299 57.2718 82.8099 57.053 81.2249V93.7456C56.9229 94.8634 57.396 95.9812 58.4192 96.9453L69.1538 87.6893C69.9582 86.9973 68.9764 86.0628 67.5333 86.1693H67.5392Z" fill="url(#paint41_linear_1_2470)"/>
<path d="M108.804 77.5934C106.533 77.9837 104.498 78.8472 103.197 80.1425C100.902 82.4254 102.026 85.7434 105.651 87.3758C106.888 87.9317 108.272 88.2866 109.691 88.4581V77.0433C109.59 77.2917 109.289 77.5106 108.804 77.5934Z" fill="url(#paint42_linear_1_2470)"/>
<g style="mix-blend-mode:color-dodge">
<path d="M121.319 82.7566C121.295 82.8098 121.289 82.869 121.289 82.934C121.301 82.8749 121.313 82.8157 121.319 82.7566Z" fill="url(#paint43_linear_1_2470)"/>
<path d="M103.197 79.551C102.215 80.5269 101.866 81.692 102.061 82.8394C102.186 82.1001 102.552 81.3726 103.197 80.7339C104.498 79.4386 106.533 78.5692 108.804 78.1848C109.833 78.0073 110.052 77.2444 109.247 76.8658C109.123 76.925 108.981 76.9723 108.804 77.0019C106.533 77.3922 104.498 78.2557 103.197 79.551Z" fill="url(#paint44_linear_1_2470)"/>
<path d="M61.1635 85.8853C63.1153 86.6424 65.3805 86.9203 67.5392 86.7666C68.1957 86.7192 68.7576 86.8908 69.1006 87.1569L69.1598 87.1096C69.9641 86.4176 68.9823 85.4831 67.5392 85.5896C65.3805 85.7493 63.1153 85.4713 61.1635 84.7084C58.7741 83.7798 57.3665 82.3249 57.0826 80.799C56.7041 82.733 58.165 84.7261 61.1635 85.8912V85.8853Z" fill="url(#paint45_linear_1_2470)"/>
<path d="M110.241 115.457C108.863 116.646 106.071 116.959 104.007 116.155L57.6977 98.1636L56.7514 98.9797L104.001 117.338C106.065 118.142 108.857 117.829 110.235 116.64L141.741 89.4753L140.795 89.1086L110.235 115.457H110.241Z" fill="url(#paint46_linear_1_2470)"/>
</g>
<defs>
<linearGradient id="paint0_linear_1_2470" x1="90.588" y1="0.5" x2="90.588" y2="48.0451" gradientUnits="userSpaceOnUse">
<stop stop-color="#EBEBEB"/>
<stop offset="1" stop-color="#C9C9C9"/>
</linearGradient>
<linearGradient id="paint1_linear_1_2470" x1="126.006" y1="17.6393" x2="126.006" y2="31.8752" gradientUnits="userSpaceOnUse">
<stop stop-color="#EBEBEB"/>
<stop offset="1" stop-color="#C9C9C9"/>
</linearGradient>
<linearGradient id="paint2_linear_1_2470" x1="90.584" y1="29.2366" x2="90.584" y2="61.3406" gradientUnits="userSpaceOnUse">
<stop stop-color="#EBEBEB"/>
<stop offset="1" stop-color="#C9C9C9"/>
</linearGradient>
<linearGradient id="paint3_linear_1_2470" x1="107.275" y1="36.4719" x2="107.275" y2="61.3524" gradientUnits="userSpaceOnUse">
<stop stop-color="#EBEBEB"/>
<stop offset="1" stop-color="#C9C9C9"/>
</linearGradient>
<linearGradient id="paint4_linear_1_2470" x1="112.45" y1="49.991" x2="112.45" y2="50.0205" gradientUnits="userSpaceOnUse">
<stop stop-color="#EBEBEB"/>
<stop offset="1" stop-color="#C9C9C9"/>
</linearGradient>
<linearGradient id="paint5_linear_1_2470" x1="112.852" y1="49.8608" x2="112.852" y2="49.8668" gradientUnits="userSpaceOnUse">
<stop stop-color="#EBEBEB"/>
<stop offset="1" stop-color="#C9C9C9"/>
</linearGradient>
<linearGradient id="paint6_linear_1_2470" x1="74.3348" y1="29.2426" x2="74.3348" y2="61.3466" gradientUnits="userSpaceOnUse">
<stop stop-color="#EBEBEB"/>
<stop offset="1" stop-color="#C9C9C9"/>
</linearGradient>
<linearGradient id="paint7_linear_1_2470" x1="123.063" y1="36.1277" x2="123.063" y2="54.1488" gradientUnits="userSpaceOnUse">
<stop stop-color="#EBEBEB"/>
<stop offset="1" stop-color="#C9C9C9"/>
</linearGradient>
<linearGradient id="paint8_linear_1_2470" x1="56.7574" y1="29.9412" x2="56.7574" y2="36.0093" gradientUnits="userSpaceOnUse">
<stop stop-color="#EBEBEB"/>
<stop offset="1" stop-color="#C9C9C9"/>
</linearGradient>
<linearGradient id="paint9_linear_1_2470" x1="66.4895" y1="49.3167" x2="66.4895" y2="49.8785" gradientUnits="userSpaceOnUse">
<stop stop-color="#EBEBEB"/>
<stop offset="1" stop-color="#C9C9C9"/>
</linearGradient>
<linearGradient id="paint10_linear_1_2470" x1="67.5925" y1="49.8785" x2="67.5925" y2="49.8963" gradientUnits="userSpaceOnUse">
<stop stop-color="#EBEBEB"/>
<stop offset="1" stop-color="#C9C9C9"/>
</linearGradient>
<linearGradient id="paint11_linear_1_2470" x1="81.0552" y1="54.0718" x2="81.0552" y2="54.2433" gradientUnits="userSpaceOnUse">
<stop stop-color="#EBEBEB"/>
<stop offset="1" stop-color="#C9C9C9"/>
</linearGradient>
<linearGradient id="paint12_linear_1_2470" x1="78.3155" y1="29.2366" x2="78.3155" y2="49.7366" gradientUnits="userSpaceOnUse">
<stop stop-color="#EBEBEB"/>
<stop offset="1" stop-color="#C9C9C9"/>
</linearGradient>
<linearGradient id="paint13_linear_1_2470" x1="126" y1="17.7043" x2="126" y2="29.0836" gradientUnits="userSpaceOnUse">
<stop stop-color="#EBEBEB"/>
<stop offset="1" stop-color="#C9C9C9"/>
</linearGradient>
<linearGradient id="paint14_linear_1_2470" x1="107.149" y1="35.3706" x2="107.149" y2="48.3408" gradientUnits="userSpaceOnUse">
<stop stop-color="#EBEBEB"/>
<stop offset="1" stop-color="#C9C9C9"/>
</linearGradient>
<linearGradient id="paint15_linear_1_2470" x1="58.4458" y1="29.5863" x2="58.4458" y2="36.8862" gradientUnits="userSpaceOnUse">
<stop stop-color="#EBEBEB"/>
<stop offset="1" stop-color="#C9C9C9"/>
</linearGradient>
<linearGradient id="paint16_linear_1_2470" x1="78.5122" y1="28.6511" x2="78.5122" y2="34.8916" gradientUnits="userSpaceOnUse">
<stop stop-color="#EBEBEB"/>
<stop offset="1" stop-color="#C9C9C9"/>
</linearGradient>
<linearGradient id="paint17_linear_1_2470" x1="42.4095" y1="34.4183" x2="42.4095" y2="84.4599" gradientUnits="userSpaceOnUse">
<stop stop-color="#EBEBEB"/>
<stop offset="1" stop-color="#C9C9C9"/>
</linearGradient>
<linearGradient id="paint18_linear_1_2470" x1="73.5261" y1="43.905" x2="73.5261" y2="55.929" gradientUnits="userSpaceOnUse">
<stop stop-color="#EBEBEB"/>
<stop offset="1" stop-color="#C9C9C9"/>
</linearGradient>
<linearGradient id="paint19_linear_1_2470" x1="66.1994" y1="59.5131" x2="66.1994" y2="82.0408" gradientUnits="userSpaceOnUse">
<stop stop-color="#EBEBEB"/>
<stop offset="1" stop-color="#C9C9C9"/>
</linearGradient>
<linearGradient id="paint20_linear_1_2470" x1="20.8052" y1="59.3948" x2="20.8052" y2="97.7673" gradientUnits="userSpaceOnUse">
<stop stop-color="#EBEBEB"/>
<stop offset="1" stop-color="#C9C9C9"/>
</linearGradient>
<linearGradient id="paint21_linear_1_2470" x1="49.6071" y1="74.8845" x2="49.6071" y2="97.7613" gradientUnits="userSpaceOnUse">
<stop stop-color="#EBEBEB"/>
<stop offset="1" stop-color="#C9C9C9"/>
</linearGradient>
<linearGradient id="paint22_linear_1_2470" x1="49.6071" y1="74.8845" x2="49.6071" y2="97.7613" gradientUnits="userSpaceOnUse">
<stop stop-color="#EBEBEB"/>
<stop offset="1" stop-color="#C9C9C9"/>
</linearGradient>
<linearGradient id="paint23_linear_1_2470" x1="28.8009" y1="59.3533" x2="28.8009" y2="85.0513" gradientUnits="userSpaceOnUse">
<stop stop-color="#EBEBEB"/>
<stop offset="1" stop-color="#C9C9C9"/>
</linearGradient>
<linearGradient id="paint24_linear_1_2470" x1="73.5539" y1="43.349" x2="73.5539" y2="49.6596" gradientUnits="userSpaceOnUse">
<stop stop-color="#EBEBEB"/>
<stop offset="1" stop-color="#C9C9C9"/>
</linearGradient>
<linearGradient id="paint25_linear_1_2470" x1="66.2019" y1="59.5131" x2="66.2019" y2="69.3249" gradientUnits="userSpaceOnUse">
<stop stop-color="#EBEBEB"/>
<stop offset="1" stop-color="#C9C9C9"/>
</linearGradient>
<linearGradient id="paint26_linear_1_2470" x1="149.255" y1="33.0107" x2="159.343" y2="77.3982" gradientUnits="userSpaceOnUse">
<stop stop-color="#FF6700"/>
<stop offset="1" stop-color="#FF9666"/>
</linearGradient>
<linearGradient id="paint27_linear_1_2470" x1="149.255" y1="33.0107" x2="159.343" y2="77.3982" gradientUnits="userSpaceOnUse">
<stop stop-color="#FFB685"/>
<stop offset="1" stop-color="#FF9666"/>
</linearGradient>
<linearGradient id="paint28_linear_1_2470" x1="139.062" y1="42.6097" x2="143.222" y2="51.7678" gradientUnits="userSpaceOnUse">
<stop stop-color="#FF6700"/>
<stop offset="1" stop-color="#FF9666"/>
</linearGradient>
<linearGradient id="paint29_linear_1_2470" x1="170.999" y1="58.0522" x2="182.312" y2="89.7569" gradientUnits="userSpaceOnUse">
<stop stop-color="#FF6700"/>
<stop offset="1" stop-color="#FF9666"/>
</linearGradient>
<linearGradient id="paint30_linear_1_2470" x1="170.999" y1="58.0522" x2="182.312" y2="89.7569" gradientUnits="userSpaceOnUse">
<stop stop-color="#FF6700"/>
<stop offset="1" stop-color="#FF9666"/>
</linearGradient>
<linearGradient id="paint31_linear_1_2470" x1="115.03" y1="57.9694" x2="120.428" y2="71.5643" gradientUnits="userSpaceOnUse">
<stop stop-color="#FF6700"/>
<stop offset="1" stop-color="#FF9666"/>
</linearGradient>
<linearGradient id="paint32_linear_1_2470" x1="141.498" y1="73.6195" x2="149.955" y2="90.6388" gradientUnits="userSpaceOnUse">
<stop stop-color="#FF6700"/>
<stop offset="1" stop-color="#FF9666"/>
</linearGradient>
<linearGradient id="paint33_linear_1_2470" x1="122.845" y1="73.6721" x2="128.715" y2="89.3355" gradientUnits="userSpaceOnUse">
<stop stop-color="#FF6700"/>
<stop offset="1" stop-color="#FF9666"/>
</linearGradient>
<linearGradient id="paint34_linear_1_2470" x1="122.845" y1="73.6721" x2="128.715" y2="89.3355" gradientUnits="userSpaceOnUse">
<stop stop-color="#FF6700"/>
<stop offset="1" stop-color="#FF9666"/>
</linearGradient>
<linearGradient id="paint35_linear_1_2470" x1="115.026" y1="57.9694" x2="117.049" y2="66.6904" gradientUnits="userSpaceOnUse">
<stop stop-color="#FF6700"/>
<stop offset="1" stop-color="#FF9666"/>
</linearGradient>
<linearGradient id="paint36_linear_1_2470" x1="139.062" y1="42.5742" x2="140.439" y2="48.1888" gradientUnits="userSpaceOnUse">
<stop stop-color="#FF6700"/>
<stop offset="1" stop-color="#FF9666"/>
</linearGradient>
<linearGradient id="paint37_linear_1_2470" x1="131.607" y1="73.0271" x2="132.672" y2="82.7632" gradientUnits="userSpaceOnUse">
<stop stop-color="#FF6700"/>
<stop offset="1" stop-color="#FF9666"/>
</linearGradient>
<linearGradient id="paint38_linear_1_2470" x1="170.929" y1="58.1232" x2="176.278" y2="80.6686" gradientUnits="userSpaceOnUse">
<stop stop-color="#FF6700"/>
<stop offset="1" stop-color="#FF9666"/>
</linearGradient>
<linearGradient id="paint39_linear_1_2470" x1="99.2521" y1="69.0767" x2="99.2521" y2="117.204" gradientUnits="userSpaceOnUse">
<stop stop-color="#EBEBEB"/>
<stop offset="1" stop-color="#C9C9C9"/>
</linearGradient>
<linearGradient id="paint40_linear_1_2470" x1="99.2521" y1="88.8839" x2="99.2521" y2="130.5" gradientUnits="userSpaceOnUse">
<stop stop-color="#EBEBEB"/>
<stop offset="1" stop-color="#C9C9C9"/>
</linearGradient>
<linearGradient id="paint41_linear_1_2470" x1="63.2374" y1="81.2249" x2="63.2374" y2="96.9453" gradientUnits="userSpaceOnUse">
<stop stop-color="#EBEBEB"/>
<stop offset="1" stop-color="#C9C9C9"/>
</linearGradient>
<linearGradient id="paint42_linear_1_2470" x1="105.848" y1="77.0433" x2="105.848" y2="88.4581" gradientUnits="userSpaceOnUse">
<stop stop-color="#EBEBEB"/>
<stop offset="1" stop-color="#C9C9C9"/>
</linearGradient>
<linearGradient id="paint43_linear_1_2470" x1="121.304" y1="82.7566" x2="121.304" y2="82.934" gradientUnits="userSpaceOnUse">
<stop stop-color="#EBEBEB"/>
<stop offset="1" stop-color="#C9C9C9"/>
</linearGradient>
<linearGradient id="paint44_linear_1_2470" x1="105.872" y1="76.8658" x2="105.872" y2="82.8394" gradientUnits="userSpaceOnUse">
<stop stop-color="#EBEBEB"/>
<stop offset="1" stop-color="#C9C9C9"/>
</linearGradient>
<linearGradient id="paint45_linear_1_2470" x1="63.2364" y1="80.799" x2="63.2364" y2="87.1569" gradientUnits="userSpaceOnUse">
<stop stop-color="#EBEBEB"/>
<stop offset="1" stop-color="#C9C9C9"/>
</linearGradient>
<linearGradient id="paint46_linear_1_2470" x1="99.2462" y1="89.1086" x2="99.2462" y2="117.784" gradientUnits="userSpaceOnUse">
<stop stop-color="#EBEBEB"/>
<stop offset="1" stop-color="#C9C9C9"/>
</linearGradient>
</defs>
</svg>
