<svg width="105" height="131" viewBox="0 0 105 131" fill="none" xmlns="http://www.w3.org/2000/svg">
<path opacity="0.2" d="M103.789 89.3619L34.4616 130.139C33.7188 130.575 32.6016 130.624 31.9598 130.242L21.1143 123.867C20.4725 123.491 20.5557 122.832 21.2926 122.396L90.6201 81.6182C91.3629 81.1822 92.4801 81.1338 93.122 81.5152L103.961 87.8907C104.603 88.2661 104.52 88.926 103.783 89.3619H103.789Z" fill="#8C8C8C"/>
<path d="M9.95187 112.509C9.75824 112.509 9.5703 112.475 9.38806 112.412C8.52811 112.099 7.91304 111.085 7.70802 109.627L0.0709189 55.8716C-0.276481 53.4113 0.685987 50.3075 2.22366 48.952L56.4066 1.15897C57.0843 0.560986 57.8247 0.361658 58.4853 0.595156C59.3225 0.896995 59.9262 1.84807 60.1483 3.21489L68.5656 55.3704C68.9642 57.8364 68.053 60.9516 66.5381 62.3184L11.5294 111.814C11.0169 112.276 10.4758 112.515 9.95757 112.515L9.95187 112.509ZM57.9215 1.06785C57.557 1.06785 57.1697 1.24439 56.7825 1.5861L2.59953 49.3792C1.18715 50.6207 0.310112 53.5024 0.634731 55.7918L8.27183 109.548C8.44268 110.772 8.93815 111.638 9.58169 111.877C10.0544 112.048 10.5954 111.877 11.1421 111.387L66.1509 61.8969C67.5405 60.644 68.372 57.7566 68.0018 55.4615L59.5845 3.30601C59.3965 2.14991 58.9238 1.3583 58.2917 1.13049C58.1721 1.08493 58.0468 1.06785 57.9215 1.06785Z" fill="url(#paint0_linear_1_2200)"/>
<path opacity="0.3" d="M66.3445 62.1077L11.3357 111.604C9.83794 112.953 8.34013 112.048 7.98704 109.593L0.349943 55.8317C0.013934 53.4511 0.936536 50.4669 2.41156 49.1628L56.5945 1.36968C58.0297 0.105372 59.4933 0.948243 59.8692 3.26044L68.2865 55.4159C68.6738 57.8022 67.8024 60.7978 66.3502 62.1077H66.3445Z" fill="url(#paint1_linear_1_2200)"/>
<path d="M6.98474 53.6223V53.6166C7.36061 52.4377 7.9529 51.3841 8.68187 50.7463L62.9787 3.08989C64.4139 1.82558 65.8775 2.67415 66.2363 4.97496L74.4372 56.9767C74.8131 59.3572 73.936 62.3415 72.4724 63.6513L27.2535 104.132L29.4347 118.82L15.328 113.46V113.432C14.6845 113.09 14.189 112.264 14.0182 110.994L6.59747 57.3981C6.43231 56.1965 6.59747 54.841 6.97904 53.628L6.98474 53.6223Z" fill="url(#paint2_linear_1_2200)"/>
<path d="M78.4181 7.57744L64.9891 2.68537L64.5563 2.52591C64.0665 2.43479 63.5198 2.61133 62.9787 3.08972L8.68189 50.7461C7.95292 51.384 7.36064 52.4319 6.97906 53.6164L9.01221 54.4422L20.5789 59.135L68.0986 16.775L78.4181 7.57744Z" fill="url(#paint3_linear_1_2200)"/>
<path d="M86.3229 68.7994L31.3141 118.29C29.8163 119.639 28.3185 118.734 27.9654 116.279L20.3283 62.5235C19.9923 60.1429 20.9149 57.1587 22.39 55.8545L76.5729 8.06145C78.0081 6.79714 79.4717 7.64002 79.8476 9.95222L88.2649 62.1077C88.6522 64.494 87.7808 67.4896 86.3286 68.7994H86.3229Z" fill="url(#paint4_linear_1_2200)"/>
<path d="M20.8295 113.483L13.3006 59.8126C12.9646 57.432 13.8929 54.4535 15.3736 53.155L69.6135 5.43028C70.0577 5.03732 70.5076 4.84939 70.9234 4.84369C70.3823 4.65575 69.7616 4.80952 69.1408 5.35055L14.8952 53.0753C13.4202 54.3738 12.4919 57.3523 12.8222 59.7328L20.3397 113.403C20.5789 115.095 21.3193 116.12 22.276 116.103C21.5471 115.841 21.0231 114.878 20.8238 113.483H20.8295Z" fill="white"/>
<path d="M38.114 32.8009L35.1412 31.5423C34.4692 31.2575 33.837 31.1778 33.3074 31.3145L33.0739 31.3771C32.7834 31.4512 32.6468 31.7587 32.7094 32.1858L32.7834 32.6927L41.1609 36.2407L41.0869 35.7339C41.0242 35.3067 40.7679 34.8341 40.4148 34.4867L40.1301 34.2076C39.4865 33.5754 38.7917 33.0914 38.1197 32.8066L38.114 32.8009Z" fill="url(#paint5_linear_1_2200)"/>
<path d="M37.3281 39.6122L41.1551 36.2407L32.8062 31.5651L29.0303 34.8682L37.3281 39.6122Z" fill="url(#paint6_linear_1_2200)"/>
<path d="M34.2869 36.1725L31.3084 34.9139C30.6364 34.6291 30.0042 34.5494 29.4746 34.6861L29.2411 34.7487C28.9506 34.8228 28.814 35.1303 28.8709 35.5574L28.9449 36.0643L37.3224 39.618L37.2484 39.1112C37.1857 38.684 36.9294 38.2056 36.5763 37.8582L36.2916 37.5792C35.648 36.947 34.9532 36.4629 34.2812 36.1725H34.2869Z" fill="#BDBDBD"/>
<path d="M32.5841 37.6019L32.2481 35.3068L32.5044 35.415L32.8404 37.7101L32.5841 37.6019Z" fill="white"/>
<path d="M32.2481 35.3068L36.1891 31.9866L36.4055 32.0777L32.5044 35.415L32.2481 35.3068Z" fill="white"/>
<path d="M55.3815 17.6351L52.4144 16.3878C51.7424 16.1031 51.1102 16.0291 50.5863 16.1657L50.3528 16.2227C50.068 16.2967 49.9256 16.6043 49.994 17.0257L50.068 17.5269L58.4227 21.0464L58.343 20.5453C58.2803 20.1238 58.0183 19.6511 57.6652 19.3094L57.3805 19.0304C56.7369 18.4039 56.0421 17.9255 55.3701 17.6408L55.3815 17.6351Z" fill="#BDBDBD"/>
<path d="M54.6297 24.3893L58.4226 21.0463L50.0907 16.4105L46.3434 19.6852L54.6297 24.3893Z" fill="#B0B0B0"/>
<path d="M51.5829 20.978L48.6157 19.7251C47.9437 19.4404 47.3116 19.3663 46.7876 19.503L46.5541 19.5657C46.2694 19.6397 46.127 19.9472 46.1896 20.3687L46.2637 20.8698L54.624 24.3951L54.5443 23.8939C54.4817 23.4725 54.2197 22.9998 53.8723 22.6524L53.5875 22.3733C52.944 21.7469 52.2492 21.2628 51.5772 20.978H51.5829Z" fill="#BDBDBD"/>
<path d="M49.8971 22.3961L49.5497 20.118L49.806 20.2262L50.1534 22.5043L49.8971 22.3961Z" fill="#BDBDBD"/>
<path d="M49.5497 20.1238L53.4623 16.832L53.6787 16.9232L49.806 20.2263L49.5497 20.1238Z" fill="#BDBDBD"/>
<path d="M30.2605 24.4121L31.6842 34.1336L34.247 31.8784L32.8574 22.4302C32.6524 21.052 33.2959 19.2239 34.2926 18.3526L45.3752 8.65386C46.3661 7.78821 47.3343 8.19256 47.545 9.56507L48.9688 18.9449L51.5088 16.7124L50.0395 7.08771C49.5782 4.06932 47.4368 3.1695 45.2556 5.07735L33.4326 15.4139C31.2343 17.3332 29.8106 21.3596 30.2605 24.4121Z" fill="#BDBDBD"/>
<path d="M49.3504 7.80523L44.6291 7.56604L31.4792 20.38L31.1774 27.8975L31.6842 34.1279L34.7767 35.4377L34.5773 27.6469L34.5432 22.3049L37.2198 18.3126C37.2198 18.3126 42.1689 14.1211 42.2201 14.0072C42.2657 13.8933 49.356 7.79954 49.356 7.79954L49.3504 7.80523Z" fill="#BDBDBD"/>
<path d="M52.0498 20.2433L48.9688 18.9449L47.9152 12.0367L50.8197 12.1222L51.6854 12.2247L52.0498 20.2433Z" fill="#BDBDBD"/>
<path d="M51.4347 5.55574L48.1145 4.16614C48.1145 4.16614 49.0371 5.84049 49.0485 5.8291C49.0656 5.81771 50.1363 6.14233 50.1533 6.13663L51.4347 5.55004V5.55574Z" fill="#BDBDBD"/>
<path d="M33.3415 25.7163L34.7767 35.4435L37.3395 33.1883L35.9385 23.7344C35.7335 22.3562 36.377 20.5281 37.368 19.6568L48.4449 9.94666C49.4358 9.08101 50.404 9.48536 50.6147 10.8579L52.0499 20.2434L54.5899 18.0052L53.1091 8.37482C52.6422 5.35643 50.5008 4.45661 48.3196 6.36446L36.5023 16.7067C34.304 18.6317 32.8859 22.6581 33.3358 25.7106L33.3415 25.7163Z" fill="url(#paint7_linear_1_2200)"/>
<defs>
<linearGradient id="paint0_linear_1_2200" x1="-0.00311712" y1="56.5037" x2="68.6567" y2="56.5037" gradientUnits="userSpaceOnUse">
<stop stop-color="#FCC29F"/>
<stop offset="0.3" stop-color="#FBB59C"/>
<stop offset="0.85" stop-color="#F89495"/>
<stop offset="1" stop-color="#F88B93"/>
</linearGradient>
<linearGradient id="paint1_linear_1_2200" x1="34.3297" y1="0.782227" x2="81.2224" y2="75.172" gradientUnits="userSpaceOnUse">
<stop stop-color="#FF6700"/>
<stop offset="1" stop-color="#FF9666"/>
</linearGradient>
<linearGradient id="paint2_linear_1_2200" x1="40.5289" y1="2.50342" x2="90.3743" y2="78.1486" gradientUnits="userSpaceOnUse">
<stop stop-color="#DFDFDF"/>
<stop offset="1" stop-color="#969696"/>
</linearGradient>
<linearGradient id="paint3_linear_1_2200" x1="42.6986" y1="2.50281" x2="57.4516" y2="50.82" gradientUnits="userSpaceOnUse">
<stop stop-color="#DFDFDF"/>
<stop offset="1" stop-color="#969696"/>
</linearGradient>
<linearGradient id="paint4_linear_1_2200" x1="54.3081" y1="7.474" x2="54.3081" y2="118.916" gradientUnits="userSpaceOnUse">
<stop stop-color="#EBEBEB"/>
<stop offset="1" stop-color="#C9C9C9"/>
</linearGradient>
<linearGradient id="paint5_linear_1_2200" x1="36.9277" y1="31.2494" x2="36.9277" y2="36.2407" gradientUnits="userSpaceOnUse">
<stop stop-color="#EBEBEB"/>
<stop offset="1" stop-color="#C9C9C9"/>
</linearGradient>
<linearGradient id="paint6_linear_1_2200" x1="35.0927" y1="31.5651" x2="35.0927" y2="39.6122" gradientUnits="userSpaceOnUse">
<stop stop-color="#EBEBEB"/>
<stop offset="1" stop-color="#C9C9C9"/>
</linearGradient>
<linearGradient id="paint7_linear_1_2200" x1="43.9212" y1="5.36328" x2="43.9212" y2="35.4435" gradientUnits="userSpaceOnUse">
<stop stop-color="#EBEBEB"/>
<stop offset="1" stop-color="#C9C9C9"/>
</linearGradient>
</defs>
</svg>
