<svg width="136" height="108" viewBox="0 0 136 108" fill="none" xmlns="http://www.w3.org/2000/svg">
<path d="M135.999 60.0232H131.546L74.2121 26.9214C70.2232 24.6161 65.3075 24.6278 61.3245 26.939L4.38922 60.0232H0.00146484V66.2763V66.2822C0.00733083 68.4409 1.08081 70.5995 3.21603 71.8314L61.7938 105.649C65.7826 107.954 70.6983 107.942 74.6814 105.631L132.802 71.8549C134.943 70.6113 136.004 68.4467 135.999 66.2822V60.0173V60.0232Z" fill="url(#paint0_linear_1_1419)"/>
<path d="M132.784 54.4739L74.2062 20.6506C70.2173 18.3453 65.3016 18.357 61.3186 20.6682L3.19844 54.4446C-1.072 56.9259 -1.06614 63.0969 3.21603 65.5665L61.7938 99.3839C65.7827 101.689 70.6984 101.678 74.6814 99.3663L132.802 65.59C137.072 63.1087 137.066 56.9376 132.784 54.4681V54.4739Z" fill="url(#paint1_linear_1_1419)"/>
<path d="M52.4772 15.9324C40.7163 22.7665 31.5361 31.185 25.936 40.2799V74.8953C31.5453 65.8614 40.6858 57.4977 52.3767 50.7032C64.1376 43.8691 78.6437 38.5249 94.3259 35.2495V0.5C78.6833 3.77538 64.2107 9.11044 52.4742 15.9324H52.4772Z" fill="url(#paint2_linear_1_1419)"/>
<path d="M29.0224 52.0469C28.6232 52.5709 28.2332 53.095 27.8554 53.6221L27.8432 57.8786C28.221 57.3515 28.608 56.8244 29.0102 56.3033L29.0224 52.0469Z" fill="url(#paint3_linear_1_1419)"/>
<path d="M30.8871 42.687C30.4514 43.2019 30.0279 43.7169 29.6165 44.2379L29.583 55.5661C29.9943 55.0451 30.4178 54.5302 30.8536 54.0153L30.8871 42.687Z" fill="url(#paint4_linear_1_1419)"/>
<path d="M34.9455 40.4385C34.4458 40.9321 33.9553 41.4318 33.4739 41.9314L33.4495 51.133C33.9279 50.6302 34.4184 50.1336 34.9181 49.64L34.9455 40.4385Z" fill="url(#paint5_linear_1_1419)"/>
<path d="M37.2154 42.4797C36.6822 42.9611 36.1612 43.4486 35.6494 43.9392L35.6341 48.9452C36.1033 48.5064 36.7249 47.9184 37.2002 47.4857L37.2124 42.4797H37.2154Z" fill="url(#paint6_linear_1_1419)"/>
<path d="M42.1239 30.198C41.5297 30.655 40.9478 31.1181 40.375 31.5843L40.3384 44.7894C40.9112 44.3233 41.4932 43.8601 42.0873 43.4031L42.1239 30.198Z" fill="url(#paint7_linear_1_1419)"/>
<path d="M42.9313 42.7571C43.5346 42.3031 44.147 41.8552 44.7686 41.4103L44.7808 36.8096C44.1592 37.2544 43.5468 37.7023 42.9435 38.1563L42.9313 42.7571Z" fill="url(#paint8_linear_1_1419)"/>
<path d="M37.4683 50.0847V49.6155C33.7115 52.9853 30.4757 56.5562 27.8372 60.2582V60.7274C30.4757 57.0255 33.7085 53.4576 37.4683 50.0847Z" fill="white"/>
<path d="M41.1916 48.3511V47.8818C35.4147 52.574 31.6671 56.4374 27.8311 61.6659V62.1351C31.7097 56.8609 35.4543 52.9975 41.1916 48.3511Z" fill="white"/>
<path d="M27.828 63.0737V63.5429C30.9571 59.2865 35.7042 53.5736 44.6985 47.1142V46.645C37.7547 51.6084 32.0357 57.1719 27.828 63.0737Z" fill="white"/>
<path d="M27.825 64.4812V64.9504C32.0297 59.0486 37.7517 53.485 44.6955 48.5217V48.0525C37.7517 53.0158 32.0327 58.5794 27.825 64.4812Z" fill="white"/>
<path d="M59.3722 20.0123C59.1132 20.1007 58.7811 20.253 58.5282 20.3566L58.519 23.7356C62.9705 21.9897 64.8261 25.9659 63.0162 30.3198C63.845 30.4905 64.9479 30.719 65.7736 30.8927C69.1953 23.1932 64.9327 18.0714 59.3722 20.0093V20.0123Z" fill="url(#paint9_linear_1_1419)"/>
<path d="M54.482 27.666C55.8074 25.3504 57.2943 24.4333 58.0103 23.9915L58.0194 20.6125C49.5613 25.6856 47.7728 38.5555 53.6502 39.8596C54.9604 40.1521 56.234 39.7621 56.9957 39.5275C57.1054 38.4641 57.2486 37.0473 57.3582 35.984C52.5107 37.3459 52.1359 31.761 54.479 27.663L54.482 27.666Z" fill="url(#paint10_linear_1_1419)"/>
<path d="M57.864 35.7952C57.7544 36.8585 57.6081 38.2723 57.4984 39.3356C58.9761 38.711 62.7116 36.7001 65.4842 31.496C64.6585 31.3224 63.5586 31.0938 62.7329 30.9263C61.0114 34.1712 58.7537 35.4113 57.864 35.7952Z" fill="url(#paint11_linear_1_1419)"/>
<path d="M79.9842 15.2501L79.9934 11.8711C74.6705 13.8577 72.2665 17.9557 71.1849 21.0422C72.1721 20.9873 73.4914 20.9203 74.4785 20.8746C75.1763 19.0099 76.6967 16.5237 79.9812 15.2501H79.9842Z" fill="url(#paint12_linear_1_1419)"/>
<path d="M74.3048 21.4717C73.3177 21.5174 72.0045 21.5844 71.0173 21.6423C69.2775 28.4947 73.9819 32.5196 80.8861 30.0852C80.7855 29.1071 80.6515 27.8 80.5509 26.822C76.3127 28.2875 73.2781 25.6885 74.3048 21.4747V21.4717Z" fill="url(#paint13_linear_1_1419)"/>
<path d="M86.0354 11.8223C83.7899 10.9722 81.7911 11.4201 80.5968 11.6882L80.5876 15.0672C86.1116 13.9124 88.1652 18.8331 85.3925 23.0378C83.9087 25.2864 81.8338 26.2644 81.1513 26.5874C81.2518 27.5654 81.3859 28.8725 81.4864 29.8506C91.532 25.3169 93.0097 14.4578 86.0385 11.8223H86.0354Z" fill="url(#paint14_linear_1_1419)"/>
<g style="mix-blend-mode:overlay" opacity="0.5">
<path d="M77.8302 39.5974C83.1256 37.8972 88.6465 36.4347 94.3259 35.2495V0.5C78.6833 3.77538 64.2107 9.11044 52.4742 15.9324C49.9727 17.3857 47.59 18.9122 45.3323 20.4996L77.8271 39.6004L77.8302 39.5974Z" fill="url(#paint15_linear_1_1419)"/>
</g>
<path d="M85.224 45.2265C85.224 45.2265 80.5709 44.5117 80.2711 44.4474C79.9712 44.3832 79.8882 43.8209 79.6044 43.5987C79.3207 43.3765 78.9833 43.2882 78.8789 43.2105C78.7745 43.1329 78.6995 43.0445 78.6085 43.1061C78.5201 43.1704 78.5549 43.3685 78.7504 43.4943C78.9432 43.6228 79.0904 43.7567 79.1118 43.8129C79.1306 43.8665 78.9646 43.8852 78.8628 43.8557C78.7638 43.8263 78.389 43.7433 78.2658 43.679C78.1426 43.6148 77.8214 43.3069 77.6206 43.2025C77.4198 43.0981 77.219 43.082 77.1521 43.1088C77.0851 43.1356 77.1521 43.3176 77.2672 43.4086C77.3823 43.497 77.5322 43.6094 77.5804 43.7995C77.6286 43.9896 77.8642 44.8035 78.0034 44.9802C78.1427 45.1569 78.2283 45.2452 78.3434 45.2533C78.4586 45.2613 79.7945 45.422 79.9605 45.4434C80.0864 45.4594 82.8279 46.2706 84.129 46.6535C84.7368 46.8329 85.4141 46.8275 85.4141 46.8275L86.825 45.6254L86.6269 44.3457L85.2214 45.2292L85.224 45.2265Z" fill="url(#paint16_linear_1_1419)"/>
<path d="M87.5158 40.964C85.5881 44.3187 85.1196 45.0282 85.1196 45.0282L84.0407 44.8996C83.9416 45.2423 83.8158 45.8394 83.8372 46.5783C84.6859 46.7978 85.382 46.9665 85.5132 46.9665C86.3565 46.9665 88.07 44.8247 88.07 44.8247C88.1422 44.4284 88.5545 40.7659 87.5158 40.964Z" fill="#5274AB"/>
<path fill-rule="evenodd" clip-rule="evenodd" d="M84.9857 46.8649C85.2588 46.9291 85.4516 46.9666 85.5159 46.9666C86.3592 46.9666 88.0726 44.8248 88.0726 44.8248C88.1101 44.6187 88.2413 43.5237 88.2092 42.5491L87.1677 42.4099L84.9884 46.8622L84.9857 46.8649Z" fill="#44608C"/>
<path fill-rule="evenodd" clip-rule="evenodd" d="M86.892 65.6406C86.892 65.6406 85.8987 66.674 85.5293 66.9712C85.1598 67.2684 84.7636 67.6271 84.6725 67.9002C84.5788 68.1733 84.5869 68.3179 84.6083 68.3714C84.627 68.4223 84.8921 68.781 85.4677 68.864C86.0433 68.947 86.3271 68.7784 86.6564 68.5963C86.983 68.4142 88.078 67.7904 88.311 67.6271C88.5439 67.4638 88.8571 67.2952 88.8759 67.0274C88.8946 66.7597 88.7126 65.6299 88.7126 65.6299L86.892 65.6433V65.6406Z" fill="#364C70"/>
<path fill-rule="evenodd" clip-rule="evenodd" d="M85.4809 67.0087C85.4809 67.0087 85.6335 66.998 85.7005 66.99C85.7701 66.982 85.8343 66.9579 85.9307 66.8561C86.0244 66.7544 87.0257 65.7745 87.0257 65.7745L86.7366 65.7236L85.4809 67.0087Z" fill="#5274AB"/>
<path fill-rule="evenodd" clip-rule="evenodd" d="M85.4275 67.0515C85.0901 67.3299 84.7555 67.6512 84.6698 67.9002C84.6457 67.9698 84.6296 68.0287 84.6162 68.0823C84.8063 68.3125 85.39 68.6766 85.7889 68.5829C86.2681 68.4705 86.6992 68.1251 86.6992 68.1251C86.2735 67.0569 85.4275 67.0488 85.4275 67.0488V67.0515Z" fill="url(#paint17_linear_1_1419)"/>
<path fill-rule="evenodd" clip-rule="evenodd" d="M86.7313 68.2108C86.7313 68.2108 86.5224 67.6967 86.335 67.3513C86.236 67.1693 86.3698 67.0301 86.5974 66.8025C86.8732 66.5267 87.5291 65.8708 87.5291 65.8708L88.7365 65.7021C88.7365 65.7021 88.8624 66.4116 88.857 66.6794C88.857 66.6794 88.8222 67.2255 86.7339 68.2081L86.7313 68.2108Z" fill="#5274AB"/>
<path fill-rule="evenodd" clip-rule="evenodd" d="M88.3082 67.1828C88.0753 67.3488 86.9803 67.9726 86.6536 68.1519C86.3243 68.334 86.0405 68.5027 85.4649 68.4197C85.0071 68.3527 84.7394 68.1118 84.643 67.9913C84.5654 68.2055 84.5894 68.3527 84.6055 68.4009C84.6243 68.4518 84.8893 68.8106 85.4649 68.8935C86.0405 68.9765 86.3243 68.8079 86.6536 68.6258C86.9803 68.4438 88.0753 67.82 88.3082 67.6566C88.5411 67.4933 88.8543 67.3247 88.8731 67.0543C88.8784 66.982 88.8677 66.8428 88.8517 66.6794C88.774 66.8909 88.509 67.0382 88.3082 67.1801V67.1828Z" fill="#7F92B9"/>
<path fill-rule="evenodd" clip-rule="evenodd" d="M86.6109 67.0515C86.3351 66.674 85.9549 66.6633 85.9549 66.6633L85.7755 66.832C85.7755 66.832 86.1771 66.8507 86.4502 67.2282L86.6109 67.0515Z" fill="white"/>
<path fill-rule="evenodd" clip-rule="evenodd" d="M86.8759 66.7837C86.6028 66.4062 86.22 66.3955 86.22 66.3955L86.0406 66.5642C86.0406 66.5642 86.4422 66.5829 86.7153 66.9604L86.8733 66.7837H86.8759Z" fill="white"/>
<path fill-rule="evenodd" clip-rule="evenodd" d="M87.1436 66.5135C86.8679 66.136 86.4877 66.1252 86.4877 66.1252L86.3083 66.2939C86.3083 66.2939 86.7099 66.31 86.983 66.6875L87.141 66.5108L87.1436 66.5135Z" fill="white"/>
<path fill-rule="evenodd" clip-rule="evenodd" d="M87.4087 66.2456C87.1356 65.8681 86.7528 65.8574 86.7528 65.8574L86.5734 66.0261C86.5734 66.0261 86.975 66.0448 87.2481 66.4196L87.406 66.2429L87.4087 66.2456Z" fill="white"/>
<path d="M86.7072 50.3907C86.5841 50.6638 86.6135 58.5082 86.6082 58.9258C86.5975 59.7023 86.6269 65.7984 86.6269 65.7984C86.6269 65.7984 86.9991 66.1036 87.7541 66.1438C88.509 66.1839 88.7661 65.9055 88.7661 65.9055C88.7661 65.9055 89.1355 61.994 89.2774 60.8642C89.339 60.3769 89.4193 58.6019 89.4327 58.2431C89.4327 58.2431 90.26 54.8216 90.4929 52.238C90.517 51.9623 90.6321 50.4978 90.2734 49.9382C88.4876 50.372 86.7072 50.3907 86.7072 50.3907Z" fill="url(#paint18_linear_1_1419)"/>
<path fill-rule="evenodd" clip-rule="evenodd" d="M89.6042 67.196C89.6042 67.196 88.6109 68.2294 88.2414 68.5239C87.872 68.8211 87.4757 69.1799 87.382 69.4529C87.291 69.726 87.299 69.8706 87.3178 69.9241C87.3365 69.975 87.6016 70.3338 88.1772 70.4168C88.7528 70.4998 89.0366 70.3311 89.3659 70.149C89.6952 69.967 90.7875 69.3432 91.0204 69.1799C91.2534 69.0139 91.5666 68.8479 91.5853 68.5802C91.6041 68.3124 91.422 67.1826 91.422 67.1826L89.6015 67.196H89.6042Z" fill="#364C70"/>
<path fill-rule="evenodd" clip-rule="evenodd" d="M88.1932 68.5641C88.1932 68.5641 88.3458 68.5534 88.4154 68.5454C88.485 68.5374 88.5493 68.5133 88.643 68.4115C88.7367 68.3098 89.738 67.3299 89.738 67.3299L89.4461 67.2791L88.1932 68.5641Z" fill="#5274AB"/>
<path fill-rule="evenodd" clip-rule="evenodd" d="M88.1396 68.6069C87.8023 68.8854 87.4676 69.2066 87.3819 69.4556C87.3578 69.5252 87.3418 69.5868 87.3311 69.6377C87.5211 69.8679 88.1048 70.232 88.5037 70.141C88.9829 70.0286 89.4113 69.6832 89.4113 69.6832C88.9856 68.615 88.1396 68.6069 88.1396 68.6069Z" fill="url(#paint19_linear_1_1419)"/>
<path fill-rule="evenodd" clip-rule="evenodd" d="M89.4434 69.7662C89.4434 69.7662 89.2346 69.2521 89.0445 68.9068C88.9454 68.7247 89.0793 68.5855 89.3069 68.3579C89.5826 68.0822 90.2386 67.4262 90.2386 67.4262L91.446 67.2576C91.446 67.2576 91.5718 67.967 91.5638 68.2348C91.5638 68.2348 91.5344 68.8372 89.4434 69.7635V69.7662Z" fill="#5274AB"/>
<path fill-rule="evenodd" clip-rule="evenodd" d="M91.0204 68.7406C90.7875 68.904 89.6951 69.5278 89.3658 69.7098C89.0365 69.8919 88.7527 70.0605 88.1771 69.9775C87.7193 69.9106 87.4516 69.6697 87.3525 69.5492C87.2749 69.7607 87.299 69.9106 87.3177 69.9588C87.3365 70.0097 87.6015 70.3684 88.1771 70.4514C88.7527 70.5344 89.0365 70.3657 89.3658 70.1837C89.6951 70.0016 90.7875 69.3778 91.0204 69.2145C91.2533 69.0512 91.5665 68.8825 91.5853 68.6148C91.5906 68.5398 91.5799 68.4033 91.5639 68.24C91.4862 68.4542 91.2239 68.5987 91.0204 68.7406Z" fill="#7F92B9"/>
<path fill-rule="evenodd" clip-rule="evenodd" d="M89.323 68.607C89.0499 68.2295 88.667 68.2188 88.667 68.2188L88.4876 68.3874C88.4876 68.3874 88.8892 68.4062 89.1623 68.7837L89.323 68.607Z" fill="white"/>
<path fill-rule="evenodd" clip-rule="evenodd" d="M89.588 68.3391C89.3149 67.9616 88.932 67.9509 88.932 67.9509L88.7553 68.1196C88.7553 68.1196 89.1569 68.1357 89.43 68.5132L89.5907 68.3365L89.588 68.3391Z" fill="white"/>
<path fill-rule="evenodd" clip-rule="evenodd" d="M89.8557 68.0689C89.5826 67.6914 89.1998 67.6807 89.1998 67.6807L89.0204 67.8493C89.0204 67.8493 89.422 67.8681 89.6951 68.2456L89.8557 68.0689Z" fill="white"/>
<path fill-rule="evenodd" clip-rule="evenodd" d="M90.1208 67.801C89.8477 67.4236 89.4648 67.4128 89.4648 67.4128L89.2881 67.5815C89.2881 67.5815 89.6897 67.6003 89.9628 67.9778L90.1235 67.801H90.1208Z" fill="white"/>
<path d="M88.6161 51.9651C88.5064 52.2435 88.9481 60.0772 88.9615 60.4949C88.991 61.2713 89.339 67.3567 89.339 67.3567C89.339 67.3567 89.7272 67.6432 90.4849 67.6432C91.2425 67.6432 91.4835 67.3514 91.4835 67.3514C91.4835 67.3514 91.6495 63.4238 91.7298 62.2886C91.7646 61.7987 91.7512 60.021 91.7459 59.6649C91.7459 59.6649 92.3911 56.2059 92.4928 53.6116C92.5035 53.3331 92.541 51.866 92.1528 51.3252C90.3912 51.8526 88.6135 51.9624 88.6135 51.9624L88.6161 51.9651Z" fill="url(#paint20_linear_1_1419)"/>
<path fill-rule="evenodd" clip-rule="evenodd" d="M91.0471 40.8142C91.0471 40.8142 92.4633 41.6442 92.9158 42.0324C93.5771 42.5973 93.7698 43.0792 93.6708 44.2063C93.5744 45.3308 92.5383 48.2302 92.45 49.1325C92.3616 50.0347 92.5008 51.6357 92.4071 51.8687C92.3134 52.1016 91.1675 53.1591 89.5398 52.8004C87.9093 52.4416 86.6617 51.617 86.6563 50.9878C86.6483 50.3587 86.9803 46.7792 86.9803 45.7805C86.9803 44.7819 87.0874 42.2198 87.3283 41.4835C87.5693 40.7473 87.92 40.2895 88.8115 40.4849C89.7031 40.6777 91.0444 40.8196 91.0444 40.8196L91.0471 40.8142Z" fill="#5274AB"/>
<path fill-rule="evenodd" clip-rule="evenodd" d="M93.4593 45.3039H91.8529C91.8529 45.3039 90.5812 49.1592 90.5464 52.8512C91.6281 52.728 92.3375 52.048 92.4098 51.8659C92.5035 51.633 92.3643 50.032 92.4527 49.1298C92.5169 48.4497 93.1246 46.6372 93.4593 45.3013V45.3039Z" fill="#44608C"/>
<path fill-rule="evenodd" clip-rule="evenodd" d="M90.7928 39.4648C90.7928 39.4648 90.7606 39.9441 90.8142 40.2734C90.849 40.4876 90.9909 40.7499 91.1355 40.9481C91.2131 41.0525 91.2158 41.5451 90.857 41.8449C90.4287 42.201 89.8049 42.5571 89.2533 42.533C89.0499 42.5089 88.6456 42.4982 88.6215 42.1823C88.6162 42.11 88.6215 42.035 88.6402 41.9601C88.7313 41.5531 88.7714 41.0177 88.7313 40.4581L90.7928 39.4702V39.4648Z" fill="#FDDDC8"/>
<path fill-rule="evenodd" clip-rule="evenodd" d="M90.8088 40.2252C90.766 39.8959 90.7928 39.4648 90.7928 39.4648L88.7607 40.4769C88.8143 41.0177 88.7393 41.5076 88.6536 41.9038C88.7045 42.0136 88.7982 42.0993 88.9615 42.0966C89.3631 42.0912 90.1877 41.355 90.8115 40.2252H90.8088Z" fill="url(#paint21_linear_1_1419)"/>
<path fill-rule="evenodd" clip-rule="evenodd" d="M88.6911 35.8155C88.0218 36.2546 87.7728 36.9346 87.746 37.4888C87.7166 38.043 87.7433 38.2385 87.6818 38.5249C87.6202 38.8114 87.6229 39.3281 87.6818 39.7056C87.7407 40.0831 87.9468 40.648 87.995 40.7364C88.0432 40.822 88.2895 40.9479 88.6027 40.9291C88.916 40.9104 90.0967 40.4526 90.3831 40.2357C90.6696 40.0162 90.8891 39.454 90.8891 39.454C90.8891 39.454 91.5718 38.9961 91.8128 38.0216C92.0511 37.0471 91.3817 35.7513 90.5411 35.5907C89.6977 35.43 88.9481 35.6496 88.6938 35.8155H88.6911Z" fill="#FDDDC8"/>
<path d="M89.92 37.7353C89.92 37.7353 89.7968 37.5586 89.6844 37.6255C89.5746 37.6898 89.2265 38.3055 88.675 38.4126C88.758 38.2413 88.7607 38.1342 88.7607 38.1342C88.7607 38.1342 88.3725 38.3296 87.9495 38.3912C87.5265 38.4528 87.3498 38.4689 87.3498 38.4689C87.3498 38.4689 87.3364 38.1931 87.5024 37.9762C87.1677 38.0512 86.7126 37.4408 86.7126 37.4408C86.7126 37.4408 86.9535 37.3685 87.157 37.2373C87.4354 37.0579 87.4595 36.7179 87.4595 36.7179C87.4595 36.7179 87.2186 36.6778 87.1543 36.3645C87.4622 36.41 87.7059 36.1878 88.1556 35.8665C88.6402 35.5212 89.5773 35.2294 90.1743 35.3284C90.7713 35.4275 91.114 35.7541 91.114 35.7541C91.114 35.7541 91.4246 35.7889 91.794 36.3217C92.2412 36.9696 91.8824 37.7219 92.284 37.8022C92.284 37.8022 92.1126 38.2172 91.8342 38.2306C91.7592 39.1301 90.8061 40.2251 90.8061 40.2251L90.782 39.6817L91.1247 39.2426C91.1247 39.2426 90.5893 38.9133 90.5143 38.4528C90.5143 38.4528 90.3885 38.6054 90.4313 38.75C90.2787 38.7018 90.1689 38.5144 90.1716 38.2172C90.1743 37.9173 90.2091 37.7915 90.1422 37.7219C90.0752 37.6496 89.9173 37.738 89.9173 37.738L89.92 37.7353Z" fill="#6F4D50"/>
<path fill-rule="evenodd" clip-rule="evenodd" d="M90.6428 38.782C90.6428 38.782 90.8758 38.2251 91.1756 38.3804C91.4755 38.5356 91.4273 39.3121 90.8035 39.6467H90.6428V38.7846V38.782Z" fill="#FDDDC8"/>
<path fill-rule="evenodd" clip-rule="evenodd" d="M90.9186 40.5786C90.9186 40.5786 90.849 41.7486 88.8196 42.442L89.695 43.5263C89.695 43.5263 90.6294 42.8918 91.1809 41.8396C91.1809 41.8396 91.3898 41.446 91.3576 40.9963L90.9212 40.5759L90.9186 40.5786Z" fill="#44608C"/>
<path d="M93.9547 58.045L87.9817 54.4923L89.1516 50.0266L95.1246 53.5794L93.9547 58.045Z" fill="#AF4700"/>
<path d="M93.9547 58.045L87.9817 54.4923L89.7701 50.0266L95.7404 53.5794L93.9547 58.045Z" fill="url(#paint22_linear_1_1419)"/>
<path fill-rule="evenodd" clip-rule="evenodd" d="M92.0886 47.574L92.1582 48.8082C92.1582 48.8082 91.9949 49.9755 91.9039 50.7706C91.8155 51.5631 91.3738 53.9271 91.3256 54.0744C91.2747 54.2216 90.7955 54.6821 90.7098 54.9097C90.6241 55.1373 90.6563 55.2711 90.6188 55.48C90.5813 55.6888 90.4501 56.0502 90.5358 56.0556C90.6188 56.0609 90.8838 55.9753 90.9454 55.7182C91.007 55.4612 91.0552 55.3622 91.0819 55.3702C91.106 55.3756 91.173 56.0449 91.1676 56.2028C91.1623 56.3635 91.0016 56.8588 90.9534 56.9873C90.9026 57.1158 90.849 57.4585 90.9588 57.5388C91.0686 57.6191 91.1248 57.5441 91.1301 57.5388C91.1382 57.5334 91.3872 57.006 91.4728 56.8213C91.687 56.6928 91.7807 56.6687 91.8396 56.6178C91.9012 56.5696 91.9815 56.4759 91.9815 56.4759C91.9815 56.4759 92.2573 56.4331 92.2948 56.3715C92.3322 56.3099 92.3563 56.2483 92.3563 56.2483C92.3563 56.2483 92.5411 56.2002 92.608 56.077C92.6749 55.9538 92.6803 55.7022 92.699 55.563C92.7178 55.4211 92.6187 54.4332 92.6321 54.2805C92.6455 54.1279 94.035 49.1268 94.0832 48.8082C94.1314 48.4896 94.1796 47.574 94.1796 47.574H92.0913H92.0886Z" fill="#FDDDC8"/>
<path fill-rule="evenodd" clip-rule="evenodd" d="M94.0644 44.1633C93.9011 43.1459 93.4326 42.3829 93.1461 42.2383C92.8141 42.0696 91.8476 43.3253 91.8637 45.1565C91.8824 47.467 92.0056 48.6102 92.0056 48.6102L91.9547 50.1282C91.9547 50.1282 92.8222 50.4977 93.8529 50.2648C93.8529 50.2648 94.2304 48.7253 94.2304 48.6075C94.2304 48.6075 94.2304 45.178 94.0671 44.1606L94.0644 44.1633Z" fill="#5274AB"/>
<path d="M92.0966 53.756L91.3872 53.6436L91.3309 53.9836L91.9762 54.2352L92.0966 53.756Z" fill="#965B40"/>
<path d="M92.8544 54.2567C92.7714 54.5512 92.5063 54.7333 92.2627 54.6636C92.019 54.594 91.8879 54.3022 91.9709 54.0077C92.0539 53.7132 92.3189 53.5312 92.5625 53.6008C92.8062 53.6677 92.9374 53.9622 92.8544 54.2567Z" fill="#302320"/>
<path d="M92.8168 54.2488C92.7445 54.5005 92.533 54.6584 92.3376 54.6049C92.1448 54.5513 92.0458 54.3023 92.1154 54.0533C92.185 53.8044 92.3992 53.6437 92.5919 53.7C92.7847 53.7535 92.8837 53.9998 92.8141 54.2515L92.8168 54.2488Z" fill="#B8A37A"/>
<path d="M92.1984 53.7964L91.8611 53.7214L91.9468 53.6331L92.4126 53.6625L92.1984 53.7964Z" fill="#302320"/>
<path d="M92.0056 54.2433L91.7379 54.1416L91.7486 54.2353L92.0967 54.5057L92.0056 54.2433Z" fill="#302320"/>
<path fill-rule="evenodd" clip-rule="evenodd" d="M88.8169 42.4418C88.8169 42.4418 88.7259 41.577 88.7768 40.8997L88.6001 40.9318C88.6001 40.9318 88.0619 41.6172 87.8156 42.7015L88.8169 42.4418Z" fill="#44608C"/>
<path fill-rule="evenodd" clip-rule="evenodd" d="M71.5464 62.5717C71.5813 62.8849 71.6 63.15 71.5973 63.3347C71.5839 64.3173 71.4179 65.2329 71.4608 66.1351C71.5036 67.0079 71.5063 73.3638 71.5063 73.4789C71.5063 73.6101 71.6723 73.8269 72.1676 73.835C72.4085 73.8376 72.9333 75.0692 73.0163 75.0424C73.1019 75.013 72.7378 73.7225 72.7378 73.7225C72.7378 73.7225 73.0966 70.9382 73.7632 63.6185C73.8007 63.2062 73.8489 62.7002 73.8998 62.146L71.5464 62.5717Z" fill="url(#paint23_linear_1_1419)"/>
<path fill-rule="evenodd" clip-rule="evenodd" d="M72.1729 76.1293C72.1729 76.1293 71.3751 75.4947 71.3081 75.4332C71.2412 75.3716 71.2118 75.2538 71.2091 75.1333C71.2091 75.0155 71.0859 73.9526 71.0859 73.9526C71.0859 73.9526 71.6428 74.0785 71.8115 74.2819C71.9801 74.4854 72.1729 76.1266 72.1729 76.1266V76.1293Z" fill="#4A2C27"/>
<path fill-rule="evenodd" clip-rule="evenodd" d="M71.4875 72.3945C71.4875 72.3945 72.0711 72.5766 72.296 73.1201C72.5209 73.6636 72.7913 74.6729 72.8931 74.7425C72.9948 74.8121 73.2572 74.7719 73.2572 74.7719C73.2572 74.7719 73.9292 75.0075 74.1674 75.1307C74.4057 75.2539 74.5048 75.4948 74.2959 75.6795C74.0871 75.867 73.2224 76.1347 72.8475 76.1775C72.4727 76.2203 72.1889 76.2337 72.1327 76.0651C72.0765 75.8964 71.7686 74.4989 71.691 74.4132C71.6133 74.3275 71.2787 74.4266 71.1742 74.705C71.0698 74.9834 70.8101 75.8723 70.8075 75.9526C70.8021 76.0329 70.6174 76.0918 70.4407 76.041C70.264 75.9901 70.2747 75.8589 70.2988 75.7545C70.3229 75.6501 70.5344 74.8389 70.5986 74.2981C70.6629 73.7573 70.6415 73.4708 70.7887 73.112C70.9333 72.7533 71.4928 72.3945 71.4928 72.3945H71.4875Z" fill="#663C35"/>
<path fill-rule="evenodd" clip-rule="evenodd" d="M72.063 56.3472C72.0041 58.0205 72.5128 59.1985 72.6601 59.7366C72.8046 60.2747 73.4204 63.4928 73.407 64.4754C73.3936 65.4579 73.2277 66.3736 73.2705 67.2758C73.3133 68.1486 73.316 74.5044 73.316 74.6196C73.316 74.7507 74.1379 75.8752 74.419 76.2821C74.6573 76.6275 75.5408 76.4267 75.5408 76.4267C75.5408 76.4267 74.917 75.6557 74.4806 74.2635C74.4672 72.5982 74.826 69.8594 75.5756 64.7618C75.9451 62.2559 76.3708 56.3498 76.3708 56.3498H72.0657L72.063 56.3472Z" fill="#FDDDC8"/>
<path fill-rule="evenodd" clip-rule="evenodd" d="M74.1567 77.3666C74.1567 77.3666 73.3588 76.7321 73.2919 76.6705C73.225 76.6089 73.1955 76.4911 73.1929 76.3706C73.1929 76.2528 73.0697 75.1899 73.0697 75.1899C73.0697 75.1899 73.6266 75.3158 73.7952 75.5192C73.9639 75.7227 74.1567 77.3639 74.1567 77.3639V77.3666Z" fill="#5E3831"/>
<path fill-rule="evenodd" clip-rule="evenodd" d="M73.4713 73.6292C73.4713 73.6292 74.055 73.8112 74.2799 74.3547C74.5048 74.8982 74.7752 75.9075 74.8769 75.9771C74.9786 76.0467 75.241 76.0066 75.241 76.0066C75.241 76.0066 75.913 76.2422 76.1513 76.3653C76.3896 76.4885 76.4886 76.7294 76.2798 76.9142C76.071 77.1016 75.2062 77.3693 74.8314 77.4121C74.4566 77.455 74.1728 77.4684 74.1166 77.2997C74.0603 77.131 73.7525 75.7335 73.6748 75.6478C73.5972 75.5621 73.2625 75.6612 73.1581 75.9396C73.0537 76.2181 72.794 77.1069 72.7913 77.1872C72.786 77.2676 72.6012 77.3265 72.4245 77.2756C72.2478 77.2247 72.2585 77.0935 72.2826 76.9891C72.3067 76.8847 72.5182 76.0735 72.5825 75.5327C72.6467 74.9919 72.6253 74.7054 72.7726 74.3467C72.9198 73.9879 73.4767 73.6292 73.4767 73.6292H73.4713Z" fill="#7D4A41"/>
<path fill-rule="evenodd" clip-rule="evenodd" d="M70.5799 55.5627C70.5799 55.5627 70.2961 56.2267 70.7245 57.5948C71.1555 58.9656 71.1395 58.738 71.1555 59.1316C71.1689 59.5251 71.3804 63.3322 71.3536 63.632C71.3242 63.9319 71.7017 64.4406 72.802 64.5798C73.9024 64.719 75.4177 64.5959 75.905 64.114L76.4003 56.3927L70.5799 55.5627Z" fill="url(#paint24_linear_1_1419)"/>
<path fill-rule="evenodd" clip-rule="evenodd" d="M74.0791 46.824C74.0791 46.824 75.3776 48.0046 75.8086 48.516C76.2397 49.03 76.5449 49.9349 76.4378 50.6203C76.328 51.3057 75.9425 51.7368 75.8461 52.4784C75.7524 53.22 75.8863 53.5493 75.9237 53.7019C76.3548 55.509 76.7403 56.3791 76.4431 56.6201C76.146 56.8611 75.059 57.4634 73.1581 57.2011C71.4313 56.9628 70.6094 56.0498 70.5103 55.8785C70.4086 55.7071 70.4032 55.5813 70.4728 55.3912C70.5424 55.2011 71.1341 53.8331 71.0779 53.3056C71.0216 52.7782 69.849 49.6726 69.857 48.3795C69.8651 47.0863 70.256 46.1894 70.9895 46.0047C71.7258 45.8173 72.5584 46.0449 73.0885 46.2671C73.6186 46.4866 74.0818 46.824 74.0818 46.824H74.0791Z" fill="url(#paint25_linear_1_1419)"/>
<path fill-rule="evenodd" clip-rule="evenodd" d="M76.3199 51.0781L74.2558 51.0862L73.8649 57.2653C75.3293 57.3135 76.1834 56.8316 76.4404 56.6228C76.7403 56.3818 76.3521 55.5117 75.921 53.7045C75.8862 53.5519 75.7497 53.2226 75.8434 52.481C75.9157 51.9161 76.1566 51.5306 76.3146 51.0781H76.3199Z" fill="#C4E5FF"/>
<path fill-rule="evenodd" clip-rule="evenodd" d="M74.1193 46.8615C74.1193 46.8615 74.0497 46.642 73.7659 46.4626C73.4821 46.2859 73.1501 46.1627 72.6521 46.0181C72.1836 45.8816 71.8463 45.729 71.8463 45.729C71.8463 45.729 71.6803 46.0931 71.6562 46.2939C71.6294 46.4947 72.3255 46.8508 72.8877 46.9338C73.6561 47.0462 74.1193 46.8615 74.1193 46.8615Z" fill="#C4EAFF"/>
<path fill-rule="evenodd" clip-rule="evenodd" d="M72.0256 45.8066C71.9801 45.9887 71.9105 46.3207 71.9426 46.5991C71.7605 46.492 71.6427 46.3796 71.6534 46.2939C71.6802 46.0931 71.8435 45.729 71.8435 45.729C71.8435 45.729 71.9105 45.7585 72.0229 45.804L72.0256 45.8066Z" fill="#A3DEFF"/>
<path fill-rule="evenodd" clip-rule="evenodd" d="M73.9881 40.3664C74.727 40.5592 75.1179 41.1321 75.2571 41.788C75.4258 42.5966 75.3535 42.6528 75.4632 43.1186C75.573 43.5845 75.6025 43.8254 75.5275 44.2752C75.4525 44.7277 75.2035 45.3783 75.1473 45.5389C75.0911 45.6995 75.0322 45.7638 74.7805 45.7504C74.5262 45.737 74.2022 45.6326 74.1433 45.6192C74.0844 45.6058 74.0416 45.7424 74.0416 45.8441C74.0416 45.9458 74.0871 46.9311 74.0871 46.9311H71.7097C71.7097 46.9311 71.964 45.9673 71.7873 45.2016C71.6106 44.4332 70.8557 44.045 70.7727 42.6019C70.6897 41.1428 71.5866 39.7399 73.9907 40.3664H73.9881Z" fill="#FDDDC8"/>
<path fill-rule="evenodd" clip-rule="evenodd" d="M71.5143 44.594H73.8462C74.1192 45.3035 74.7778 45.7506 74.9867 45.7345C74.9358 45.7506 74.8716 45.7559 74.7805 45.7506C74.5262 45.7372 74.2022 45.6328 74.1433 45.6194C74.0844 45.606 74.0416 45.7425 74.0416 45.8443C74.0416 45.946 74.0871 46.9313 74.0871 46.9313H71.7097C71.7097 46.9313 71.964 45.9674 71.7873 45.2017C71.7365 44.9768 71.6347 44.7868 71.5169 44.594H71.5143Z" fill="url(#paint26_linear_1_1419)"/>
<path fill-rule="evenodd" clip-rule="evenodd" d="M74.4807 47.0783C74.4807 47.0783 73.9961 46.5991 73.6962 46.492C73.3964 46.3849 71.5839 46.0288 71.5839 46.0288L71.4393 46.8829C71.4393 46.8829 71.6963 47.1051 72.5102 47.2229C73.3241 47.3407 74.5797 47.2898 74.5797 47.2898L74.478 47.0783H74.4807Z" fill="url(#paint27_linear_1_1419)"/>
<path fill-rule="evenodd" clip-rule="evenodd" d="M72.2024 40.139C72.6976 40.048 73.458 40.0935 73.9586 40.139C74.4593 40.1818 75.3589 40.1336 75.5704 40.2916C75.7792 40.4495 76.0978 42.7065 73.972 43.6194C73.8649 44.5592 73.6561 45.5203 73.6186 45.5712C73.5811 45.622 72.703 45.8603 71.8168 45.3597C71.4072 44.6582 70.5424 44.0478 70.4621 42.5539C70.3738 40.9234 71.4072 40.2836 72.205 40.139H72.2024Z" fill="#363E4F"/>
<path fill-rule="evenodd" clip-rule="evenodd" d="M71.8918 42.6234L70.4701 42.0398C70.4541 42.2004 70.446 42.3691 70.4567 42.5538C70.5371 44.0504 71.4018 44.6582 71.8114 45.3596C72.1622 45.5577 72.5102 45.6381 72.8047 45.6621C72.5075 43.9219 71.8891 42.6234 71.8891 42.6234H71.8918Z" fill="#282E3B"/>
<path fill-rule="evenodd" clip-rule="evenodd" d="M71.169 41.9541C70.505 41.8148 69.6429 42.4065 69.6188 44.2057C69.5947 46.0048 69.9588 48.0368 70.2346 49.0944C70.5103 50.1519 70.2051 50.5133 69.8678 50.7114C71.1208 50.8962 72.1676 50.4383 72.2051 48.5991C72.2452 46.7598 71.932 44.5564 72.0069 43.6916C72.0792 42.8269 71.8329 42.0933 71.169 41.9541Z" fill="#363E4F"/>
<path fill-rule="evenodd" clip-rule="evenodd" d="M74.1808 43.7586C74.1808 43.7586 74.1031 43.2285 73.8006 43.1696C73.5008 43.1081 73.3722 43.5284 73.4044 43.8229C73.4365 44.1174 73.7283 44.5458 73.8434 44.5966C73.9612 44.6475 74.2611 44.3235 74.1808 43.7586Z" fill="#FDDDC8"/>
<path fill-rule="evenodd" clip-rule="evenodd" d="M73.7953 44.3609C73.7953 44.4305 73.8328 44.4868 73.881 44.4868C73.9291 44.4868 73.9666 44.4305 73.9666 44.3609C73.9666 44.2913 73.9291 44.2351 73.881 44.2351C73.8328 44.2351 73.7953 44.2913 73.7953 44.3609Z" fill="#301D19"/>
<path fill-rule="evenodd" clip-rule="evenodd" d="M74.5102 42.9714C74.5102 42.9714 74.2826 43.863 74.5102 44.4305C74.5102 44.4305 73.9854 44.0236 74.0256 43.2017L74.5102 42.9741V42.9714Z" fill="#363E4F"/>
<path fill-rule="evenodd" clip-rule="evenodd" d="M75.8782 52.2883L76.2209 53.2173C76.2209 53.2173 76.9062 53.7474 77.3614 54.1196C77.8165 54.4917 79.6504 55.7179 79.7522 55.7715C79.8539 55.8223 80.3439 55.8197 80.5045 55.8946C80.6651 55.9696 80.7187 56.0553 80.8472 56.149C80.973 56.24 81.2274 56.3605 81.1872 56.4087C81.147 56.4542 80.9623 56.5452 80.799 56.4408C80.633 56.3364 80.558 56.3096 80.5473 56.3257C80.5366 56.3417 80.8445 56.7273 80.9302 56.8076C81.0159 56.8879 81.3532 57.0673 81.4469 57.1101C81.5379 57.1529 81.7441 57.3029 81.728 57.4019C81.7119 57.501 81.645 57.4903 81.637 57.4903C81.6316 57.4903 81.2274 57.343 81.0881 57.2895C80.9088 57.3323 80.8472 57.3671 80.791 57.3725C80.7321 57.3778 80.6437 57.3725 80.6437 57.3725C80.6437 57.3725 80.475 57.4903 80.4242 57.4769C80.3733 57.4635 80.3278 57.4448 80.3278 57.4448C80.3278 57.4448 80.2046 57.5144 80.1083 57.4849C80.0092 57.4555 79.878 57.327 79.795 57.2627C79.712 57.1985 79.2569 56.6282 79.1712 56.5532C79.0855 56.4783 75.3963 54.3498 75.2062 54.2079C75.0161 54.066 74.6306 52.7167 74.6306 52.7167L75.8755 52.291L75.8782 52.2883Z" fill="#FDDDC8"/>
<path fill-rule="evenodd" clip-rule="evenodd" d="M74.1246 49.7852C74.1059 48.7544 74.7591 48.4332 74.984 48.4439C75.3428 48.4572 76.3869 49.0034 76.4378 50.0208C76.3976 52.8051 76.3682 53.2389 76.3682 53.2389L76.9116 53.6726C76.9116 53.6726 76.3682 54.9175 75.2089 55.0755C75.2089 55.0755 74.6601 54.2884 74.6386 54.1706C74.6386 54.1706 74.1487 50.8106 74.1273 49.7825L74.1246 49.7852Z" fill="url(#paint28_linear_1_1419)"/>
<defs>
<linearGradient id="paint0_linear_1_1419" x1="40.9515" y1="31.6953" x2="138.894" y2="76.4007" gradientUnits="userSpaceOnUse">
<stop stop-color="#EAEAEA"/>
<stop offset="1" stop-color="#B0B0B0"/>
</linearGradient>
<linearGradient id="paint1_linear_1_1419" x1="15.5464" y1="31.1859" x2="128.76" y2="66.6752" gradientUnits="userSpaceOnUse">
<stop stop-color="white"/>
<stop offset="1" stop-color="#D7D7D7"/>
</linearGradient>
<linearGradient id="paint2_linear_1_1419" x1="60.1309" y1="0.5" x2="60.1309" y2="74.8953" gradientUnits="userSpaceOnUse">
<stop stop-color="#EBEBEB"/>
<stop offset="1" stop-color="#C9C9C9"/>
</linearGradient>
<linearGradient id="paint3_linear_1_1419" x1="28.4328" y1="52.0469" x2="30.6713" y2="53.222" gradientUnits="userSpaceOnUse">
<stop stop-color="white"/>
<stop offset="1" stop-color="white"/>
</linearGradient>
<linearGradient id="paint4_linear_1_1419" x1="30.235" y1="42.687" x2="33.1888" y2="43.4635" gradientUnits="userSpaceOnUse">
<stop stop-color="#FF6700"/>
<stop offset="1" stop-color="#FF9666"/>
</linearGradient>
<linearGradient id="paint5_linear_1_1419" x1="34.1975" y1="40.4385" x2="37.398" y2="41.6009" gradientUnits="userSpaceOnUse">
<stop stop-color="#FF6700"/>
<stop offset="1" stop-color="#FF9666"/>
</linearGradient>
<linearGradient id="paint6_linear_1_1419" x1="36.4248" y1="42.4797" x2="39.1537" y2="44.2126" gradientUnits="userSpaceOnUse">
<stop stop-color="#DFDFDF"/>
<stop offset="1" stop-color="#969696"/>
</linearGradient>
<linearGradient id="paint7_linear_1_1419" x1="41.2311" y1="30.198" x2="45.1584" y2="31.4456" gradientUnits="userSpaceOnUse">
<stop stop-color="#DFDFDF"/>
<stop offset="1" stop-color="#969696"/>
</linearGradient>
<linearGradient id="paint8_linear_1_1419" x1="43.8561" y1="36.8096" x2="46.5674" y2="38.9985" gradientUnits="userSpaceOnUse">
<stop stop-color="#DFDFDF"/>
<stop offset="1" stop-color="#969696"/>
</linearGradient>
<linearGradient id="paint9_linear_1_1419" x1="62.759" y1="19.5979" x2="67.0375" y2="27.9377" gradientUnits="userSpaceOnUse">
<stop stop-color="#DFDFDF"/>
<stop offset="1" stop-color="#969696"/>
</linearGradient>
<linearGradient id="paint10_linear_1_1419" x1="54.6802" y1="28.5664" x2="53.8067" y2="39.9404" gradientUnits="userSpaceOnUse">
<stop stop-color="#FFCF94"/>
<stop offset="1" stop-color="#FFA436"/>
</linearGradient>
<linearGradient id="paint11_linear_1_1419" x1="61.4913" y1="30.9263" x2="64.2232" y2="37.6618" gradientUnits="userSpaceOnUse">
<stop stop-color="#DFDFDF"/>
<stop offset="1" stop-color="#969696"/>
</linearGradient>
<linearGradient id="paint12_linear_1_1419" x1="75.5891" y1="11.8711" x2="78.5442" y2="19.24" gradientUnits="userSpaceOnUse">
<stop stop-color="#DFDFDF"/>
<stop offset="1" stop-color="#969696"/>
</linearGradient>
<linearGradient id="paint13_linear_1_1419" x1="75.7699" y1="21.4717" x2="78.4897" y2="29.2172" gradientUnits="userSpaceOnUse">
<stop stop-color="#FF6700"/>
<stop offset="1" stop-color="#FF9666"/>
</linearGradient>
<linearGradient id="paint14_linear_1_1419" x1="85.4659" y1="11.3281" x2="93.6974" y2="22.5852" gradientUnits="userSpaceOnUse">
<stop stop-color="#DFDFDF"/>
<stop offset="1" stop-color="#969696"/>
</linearGradient>
<linearGradient id="paint15_linear_1_1419" x1="69.8291" y1="0.5" x2="69.8291" y2="39.6004" gradientUnits="userSpaceOnUse">
<stop stop-color="#EBEBEB"/>
<stop offset="1" stop-color="#C9C9C9"/>
</linearGradient>
<linearGradient id="paint16_linear_1_1419" x1="80.855" y1="44.219" x2="86.7305" y2="46.3302" gradientUnits="userSpaceOnUse">
<stop stop-color="#FBDAC9"/>
<stop offset="1" stop-color="#FBBDB5"/>
</linearGradient>
<linearGradient id="paint17_linear_1_1419" x1="86.6992" y1="67.8252" x2="84.6162" y2="67.8252" gradientUnits="userSpaceOnUse">
<stop stop-color="white"/>
<stop offset="0.01" stop-color="#FEFEFE"/>
<stop offset="0.61" stop-color="#E8EBFB"/>
<stop offset="1" stop-color="#E1E5FA"/>
</linearGradient>
<linearGradient id="paint18_linear_1_1419" x1="82.8305" y1="72.0472" x2="88.3939" y2="56.2968" gradientUnits="userSpaceOnUse">
<stop stop-color="#55617D"/>
<stop offset="1" stop-color="#363E4F"/>
</linearGradient>
<linearGradient id="paint19_linear_1_1419" x1="89.4113" y1="69.3807" x2="87.3284" y2="69.3807" gradientUnits="userSpaceOnUse">
<stop stop-color="white"/>
<stop offset="0.01" stop-color="#FEFEFE"/>
<stop offset="0.61" stop-color="#E8EBFB"/>
<stop offset="1" stop-color="#E1E5FA"/>
</linearGradient>
<linearGradient id="paint20_linear_1_1419" x1="90.4929" y1="50.3667" x2="90.766" y2="62.1949" gradientUnits="userSpaceOnUse">
<stop stop-color="#55617D"/>
<stop offset="1" stop-color="#363E4F"/>
</linearGradient>
<linearGradient id="paint21_linear_1_1419" x1="91.0444" y1="40.9481" x2="89.1516" y2="40.683" gradientUnits="userSpaceOnUse">
<stop stop-color="#FBD1BE"/>
<stop offset="1" stop-color="#F8B4A8"/>
</linearGradient>
<linearGradient id="paint22_linear_1_1419" x1="91.861" y1="50.0266" x2="91.861" y2="58.045" gradientUnits="userSpaceOnUse">
<stop stop-color="#FF6700"/>
<stop offset="1" stop-color="#FF8C3F"/>
</linearGradient>
<linearGradient id="paint23_linear_1_1419" x1="72.7004" y1="74.266" x2="72.687" y2="68.2448" gradientUnits="userSpaceOnUse">
<stop stop-color="#FBD1BE"/>
<stop offset="1" stop-color="#F8B4A8"/>
</linearGradient>
<linearGradient id="paint24_linear_1_1419" x1="74.7029" y1="57.0674" x2="71.7606" y2="62.6415" gradientUnits="userSpaceOnUse">
<stop stop-color="#55617D"/>
<stop offset="1" stop-color="#363E4F"/>
</linearGradient>
<linearGradient id="paint25_linear_1_1419" x1="72.7565" y1="48.5615" x2="73.9292" y2="55.9909" gradientUnits="userSpaceOnUse">
<stop stop-color="white"/>
<stop offset="1" stop-color="#E6F4FF"/>
</linearGradient>
<linearGradient id="paint26_linear_1_1419" x1="74.3281" y1="46.7546" x2="71.9774" y2="45.2526" gradientUnits="userSpaceOnUse">
<stop stop-color="#FBD1BE"/>
<stop offset="1" stop-color="#F8B4A8"/>
</linearGradient>
<linearGradient id="paint27_linear_1_1419" x1="72.877" y1="46.243" x2="73.0483" y2="47.33" gradientUnits="userSpaceOnUse">
<stop stop-color="white"/>
<stop offset="1" stop-color="#E6F4FF"/>
</linearGradient>
<linearGradient id="paint28_linear_1_1419" x1="75.0161" y1="49.33" x2="75.8113" y2="53.5012" gradientUnits="userSpaceOnUse">
<stop stop-color="white"/>
<stop offset="1" stop-color="#E6F4FF"/>
</linearGradient>
</defs>
</svg>
