<svg width="91" height="131" viewBox="0 0 91 131" fill="none" xmlns="http://www.w3.org/2000/svg">
<path d="M84.9845 48.528C71.4568 40.872 58.2362 27.824 47.1454 11.1878L46.9919 11.0919C35.9011 14.9295 22.6805 12.7037 9.15279 4.7406L8.6347 4.43359L9.36386 29.7044C11.9351 68.8867 25.2901 85.9258 46.8 122.345L47.3181 122.652C68.8281 111.062 82.183 109.431 84.7542 73.2232L85.4834 48.7967L84.9653 48.5088L84.9845 48.528Z" fill="url(#paint0_linear_1_2231)"/>
<path d="M89.5321 44.5944C76.0044 36.9384 62.7838 23.8904 51.693 7.25424L51.5395 7.1583C40.4487 10.9959 27.2281 8.77011 13.7004 0.807011L13.1823 0.5L8.78821 4.52952L9.15278 4.74059C22.6805 12.7037 35.9011 14.9295 46.9919 11.0919L47.1454 11.1878C58.2362 27.824 71.4568 40.8719 84.9845 48.528L85.5026 48.8159L84.7734 73.2424C83.1041 96.8823 76.8295 105.766 66.679 112.329C79.3432 104.845 87.4214 95.8653 89.321 69.3088L90.0502 44.8823L89.5321 44.5944Z" fill="url(#paint1_linear_1_2231)"/>
<path d="M90.0502 44.8822L89.5321 44.5943C76.0044 36.9383 62.7838 23.8903 51.693 7.25414L51.5395 7.1582L46.9919 11.0918L47.1454 11.1877C58.2362 27.8239 71.4568 40.8718 84.9845 48.5279L85.5026 48.8158L90.0502 44.8822Z" fill="url(#paint2_linear_1_2231)"/>
<path d="M85.5026 48.8351L84.7734 73.2616C83.104 96.9015 76.8295 105.786 66.679 112.348C79.3432 104.865 87.4214 95.8845 89.321 69.328L90.0502 44.9015L85.5026 48.8351Z" fill="url(#paint3_linear_1_2231)"/>
<path d="M83.5838 49.5066C70.3631 42.0232 57.4303 29.263 46.5889 12.9915L46.4354 12.9147C35.5941 16.6564 22.6613 14.4881 9.4406 6.71692L8.94171 6.40991L4.64355 10.3435L5.00813 10.5546C18.2288 18.345 31.1616 20.5132 42.003 16.7523L42.1565 16.8291C52.9978 33.0815 65.9306 45.8608 79.1513 53.3442L79.6502 53.632L78.9402 77.5213C77.3092 100.624 71.169 109.335 61.2487 115.744C73.6251 108.433 81.5306 99.6453 83.3727 73.6837L84.0826 49.7944L83.5838 49.5066Z" fill="url(#paint4_linear_1_2231)"/>
<path d="M84.1018 49.7944L83.6029 49.5065C70.3823 42.0232 57.4494 29.263 46.6081 12.9914L46.4546 12.9147L42.0029 16.7715L42.1564 16.8482C52.9978 33.1006 65.9306 45.88 79.1513 53.3634L79.6502 53.6512L84.1018 49.7944Z" fill="url(#paint5_linear_1_2231)"/>
<path d="M79.6502 53.6511L78.9402 77.5404C77.3092 100.643 71.169 109.354 61.2487 115.763C73.6251 108.453 81.5306 99.6644 83.3727 73.7028L84.0827 49.8135L79.631 53.6703L79.6502 53.6511Z" fill="url(#paint6_linear_1_2231)"/>
<g style="mix-blend-mode:color-dodge">
<path d="M85.5217 48.1634C71.9941 40.5073 58.7734 27.4594 47.6826 10.8232L47.5291 10.7273C36.4383 14.5649 23.2177 12.3391 9.69002 4.37598L9.17194 4.06897L9.21031 5.33539C22.6037 13.1258 35.7092 15.2941 46.6848 11.4756L46.8383 11.5715C57.9291 28.2077 71.1498 41.2557 84.6774 48.9118L85.1955 49.1996L84.4664 73.6261C83.1232 92.4689 78.8634 101.929 72.0708 108.318C79.3623 101.929 83.9291 92.4689 85.3106 72.8586L86.0398 48.432L85.5217 48.1442V48.1634Z" fill="url(#paint7_linear_1_2231)"/>
</g>
<path d="M76.3498 56.3761C62.8221 48.72 49.6015 35.672 38.5107 19.0359L38.3572 18.9399C27.2664 22.7776 14.0458 20.5517 0.518081 12.5886L0 12.2816L0.729151 37.5525C3.30037 76.7347 16.6553 93.7738 38.1653 130.193L38.6834 130.5C60.1933 118.91 73.5483 117.279 76.1195 81.0713L76.8487 56.6447L76.3306 56.3569L76.3498 56.3761Z" fill="url(#paint8_linear_1_2231)"/>
<path d="M80.8974 52.4424C67.3697 44.7863 54.149 31.7383 43.0583 15.1022L42.9048 15.0062C31.814 18.8438 18.5933 16.618 5.06566 8.65491L4.54758 8.3479L0.172668 12.3966L0.537244 12.6077C14.0649 20.5708 27.2856 22.7966 38.3763 18.959L38.5299 19.0549C49.6206 35.6911 62.8413 48.739 76.369 56.3951L76.887 56.6829L76.1579 81.1095C74.4885 104.749 68.214 113.633 58.0634 120.196C70.7276 112.712 78.8059 103.732 80.7055 77.1759L81.4346 52.7494L80.9166 52.4615L80.8974 52.4424Z" fill="url(#paint9_linear_1_2231)"/>
<path d="M81.4155 52.7305L80.8974 52.4426C67.3697 44.7865 54.1491 31.7386 43.0583 15.1024L42.9048 15.0065L38.3572 18.9401L38.5107 19.036C49.6015 35.6721 62.8221 48.7201 76.3498 56.3762L76.8679 56.664L81.4155 52.7305Z" fill="url(#paint10_linear_1_2231)"/>
<path d="M76.8679 56.6638L76.1387 81.0904C74.4693 104.73 68.1948 113.614 58.0443 120.177C70.7085 112.693 78.7867 103.713 80.6863 77.1568L81.4155 52.7302L76.8679 56.6638Z" fill="url(#paint11_linear_1_2231)"/>
<path d="M35.7668 113.633C19.0731 85.9449 10.6686 72.0143 8.65388 41.6202L8.19336 25.6748C18.9196 30.5294 29.1852 32.0645 38.4531 30.2224C47.7018 42.7523 57.9867 53.0755 68.6937 60.5973L68.2332 76.0246C66.1992 104.078 57.814 108.318 41.1203 116.723C40.2376 117.164 39.355 117.605 38.4531 118.066C37.5513 116.55 36.6494 115.073 35.786 113.633H35.7668Z" fill="url(#paint12_linear_1_2231)"/>
<path d="M38.4531 30.2223C47.7018 42.7522 57.9867 53.0754 68.6937 60.5972L68.2332 76.0245C66.1992 104.078 57.814 108.318 41.1203 116.723C40.2376 117.164 39.355 117.605 38.4531 118.066V30.2031V30.2223Z" fill="url(#paint13_linear_1_2231)"/>
<g style="mix-blend-mode:color-dodge">
<path d="M76.8871 55.9921C63.3594 48.3361 50.1387 35.2881 39.048 18.6519L38.8945 18.556C27.8037 22.3936 14.583 20.1678 1.05537 12.2047L0.537292 11.8977L0.575669 13.1641C13.969 20.9545 27.0745 23.1228 38.0502 19.3043L38.2037 19.4003C49.2945 36.0364 62.5151 49.0844 76.0428 56.7405L76.5609 57.0283L75.8317 81.4549C74.4885 100.298 70.2288 109.757 63.4362 116.147C70.7277 109.757 75.2945 100.298 76.676 80.6873L77.4052 56.2608L76.8871 55.973V55.9921Z" fill="url(#paint14_linear_1_2231)"/>
</g>
<path d="M38.4531 30.2224C29.2044 32.0645 18.9196 30.5294 8.19336 25.6748V26.6534C18.6893 31.2394 28.7055 32.7169 37.7623 30.9132C47.0111 43.4431 57.2959 53.7663 68.0029 61.2881L67.5424 76.7154C66.4103 92.3921 63.2826 100.624 57.8524 106.323C63.724 100.605 67.0627 92.3537 68.2332 76.0438L68.6937 60.6165C57.9675 53.0947 47.7018 42.7715 38.4531 30.2416V30.2224Z" fill="white"/>
<defs>
<linearGradient id="paint0_linear_1_2231" x1="47.0591" y1="4.43359" x2="47.0591" y2="122.652" gradientUnits="userSpaceOnUse">
<stop stop-color="#E3E3E3"/>
<stop offset="0.576596" stop-color="#DBDBDB"/>
<stop offset="1" stop-color="#D5D5D5"/>
</linearGradient>
<linearGradient id="paint1_linear_1_2231" x1="49.4192" y1="0.5" x2="49.4192" y2="112.329" gradientUnits="userSpaceOnUse">
<stop stop-color="#E3E3E3"/>
<stop offset="0.576596" stop-color="#DBDBDB"/>
<stop offset="1" stop-color="#D5D5D5"/>
</linearGradient>
<linearGradient id="paint2_linear_1_2231" x1="68.521" y1="7.1582" x2="68.521" y2="48.8158" gradientUnits="userSpaceOnUse">
<stop stop-color="#E3E3E3"/>
<stop offset="0.576596" stop-color="#DBDBDB"/>
<stop offset="1" stop-color="#D5D5D5"/>
</linearGradient>
<linearGradient id="paint3_linear_1_2231" x1="78.3646" y1="44.9015" x2="78.3646" y2="112.348" gradientUnits="userSpaceOnUse">
<stop stop-color="#E3E3E3"/>
<stop offset="0.576596" stop-color="#DBDBDB"/>
<stop offset="1" stop-color="#D5D5D5"/>
</linearGradient>
<linearGradient id="paint4_linear_1_2231" x1="44.3631" y1="6.40991" x2="44.3631" y2="115.744" gradientUnits="userSpaceOnUse">
<stop stop-color="#E3E3E3"/>
<stop offset="0.576596" stop-color="#DBDBDB"/>
<stop offset="1" stop-color="#D5D5D5"/>
</linearGradient>
<linearGradient id="paint5_linear_1_2231" x1="63.0524" y1="12.9147" x2="63.0524" y2="53.6512" gradientUnits="userSpaceOnUse">
<stop stop-color="#E3E3E3"/>
<stop offset="0.576596" stop-color="#DBDBDB"/>
<stop offset="1" stop-color="#D5D5D5"/>
</linearGradient>
<linearGradient id="paint6_linear_1_2231" x1="72.6657" y1="49.8135" x2="72.6657" y2="115.763" gradientUnits="userSpaceOnUse">
<stop stop-color="#E3E3E3"/>
<stop offset="0.576596" stop-color="#DBDBDB"/>
<stop offset="1" stop-color="#D5D5D5"/>
</linearGradient>
<linearGradient id="paint7_linear_1_2231" x1="47.6059" y1="4.06897" x2="47.6059" y2="108.318" gradientUnits="userSpaceOnUse">
<stop stop-color="#E3E3E3"/>
<stop offset="0.576596" stop-color="#DBDBDB"/>
<stop offset="1" stop-color="#D5D5D5"/>
</linearGradient>
<linearGradient id="paint8_linear_1_2231" x1="38.4243" y1="12.2816" x2="38.4243" y2="130.5" gradientUnits="userSpaceOnUse">
<stop stop-color="#E3E3E3"/>
<stop offset="0.576596" stop-color="#DBDBDB"/>
<stop offset="1" stop-color="#D5D5D5"/>
</linearGradient>
<linearGradient id="paint9_linear_1_2231" x1="40.8037" y1="8.3479" x2="40.8037" y2="120.196" gradientUnits="userSpaceOnUse">
<stop stop-color="#E3E3E3"/>
<stop offset="0.576596" stop-color="#DBDBDB"/>
<stop offset="1" stop-color="#D5D5D5"/>
</linearGradient>
<linearGradient id="paint10_linear_1_2231" x1="59.8863" y1="15.0065" x2="59.8863" y2="56.664" gradientUnits="userSpaceOnUse">
<stop stop-color="#E3E3E3"/>
<stop offset="0.576596" stop-color="#DBDBDB"/>
<stop offset="1" stop-color="#D5D5D5"/>
</linearGradient>
<linearGradient id="paint11_linear_1_2231" x1="69.7299" y1="52.7302" x2="69.7299" y2="120.177" gradientUnits="userSpaceOnUse">
<stop stop-color="#E3E3E3"/>
<stop offset="0.576596" stop-color="#DBDBDB"/>
<stop offset="1" stop-color="#D5D5D5"/>
</linearGradient>
<linearGradient id="paint12_linear_1_2231" x1="38.4435" y1="25.6748" x2="38.4435" y2="118.066" gradientUnits="userSpaceOnUse">
<stop stop-color="#FFA76B"/>
<stop offset="1" stop-color="#FF6700"/>
</linearGradient>
<linearGradient id="paint13_linear_1_2231" x1="53.5734" y1="30.2031" x2="53.5734" y2="118.066" gradientUnits="userSpaceOnUse">
<stop stop-color="#FFA76B"/>
<stop offset="1" stop-color="#FF6700"/>
</linearGradient>
<linearGradient id="paint14_linear_1_2231" x1="38.9712" y1="11.8977" x2="38.9712" y2="116.147" gradientUnits="userSpaceOnUse">
<stop stop-color="#E3E3E3"/>
<stop offset="0.576596" stop-color="#DBDBDB"/>
<stop offset="1" stop-color="#D5D5D5"/>
</linearGradient>
</defs>
</svg>
