<svg width="136" height="130" viewBox="0 0 136 130" fill="none" xmlns="http://www.w3.org/2000/svg">
<path d="M135.952 83.9927C135.851 85.9575 134.612 87.6601 133.117 88.8544C132.611 89.2623 132.073 89.6224 131.512 89.9531L79.0599 120.435C75.8114 122.288 72.0166 123.007 68.3052 123.033C64.541 123.026 60.6911 122.304 57.3912 120.434L4.59614 89.9519C1.9393 88.3693 0.169299 86.456 0.0737554 83.6326C0.214621 88.5604 -1.28467 93.6254 4.57776 96.6265C8.79269 98.4675 60.0762 130.198 63.8269 129.338C67.471 129.951 71.2609 129.817 74.8303 128.84C77.9991 128.327 130.937 97.1507 133.854 94.8577C134.829 93.8949 135.606 92.6884 135.855 91.3287C136.194 90.6942 135.811 84.49 135.965 83.722C135.965 83.8114 135.957 83.902 135.952 83.9915V83.9927Z" fill="url(#paint0_linear_1_629)"/>
<path d="M131.44 77.4027C137.443 80.8692 137.477 86.4879 131.512 89.9544L79.0599 120.436C73.0958 123.903 63.3945 123.902 57.3912 120.436L4.59492 89.9544C-1.40716 86.4891 -1.44023 80.8704 4.52387 77.4039L56.9759 46.9219C62.94 43.4554 72.6413 43.4566 78.6434 46.9219L131.438 77.4039L131.44 77.4027Z" fill="url(#paint1_linear_1_629)"/>
<path d="M115.363 79.6847C115.287 81.1289 114.339 82.3599 113.219 83.2039C112.917 83.4366 112.598 83.6436 112.269 83.8396L75.711 105.085C73.2905 106.463 70.4451 106.946 67.6841 106.889C65.6752 106.831 63.6566 106.467 61.8021 105.679C61.3942 105.502 60.9936 105.305 60.609 105.085L23.8126 83.8396C21.9617 82.736 20.727 81.4032 20.6609 79.436C20.7589 82.8707 19.714 86.4009 23.8003 88.4918C25.9598 89.4534 63.0454 111.958 64.5851 111.193C67.2799 111.732 70.1094 111.667 72.7638 110.943C74.9723 110.586 111.868 88.8568 113.901 87.2596C116.04 85.5018 115.216 81.8675 115.372 79.4985C115.372 79.561 115.368 79.6234 115.364 79.6871L115.363 79.6847Z" fill="#BFBFBF"/>
<path d="M112.217 75.0912C116.401 77.5068 116.425 81.4228 112.267 83.8396L75.7098 105.084C71.5524 107.5 64.7921 107.5 60.6078 105.084L23.8114 83.8396C19.6283 81.424 19.605 77.508 23.7624 75.0925L60.3199 53.8475C64.4773 51.432 71.2376 51.432 75.4207 53.8475L112.217 75.0925V75.0912Z" fill="url(#paint2_linear_1_629)"/>
<path d="M102.297 79.49L99.9042 80.8803C98.5164 80.4516 68.7486 61.8219 67.8593 63.5759C67.1549 61.7545 37.3503 80.4589 36.123 80.8215L33.7319 79.441C35.1945 79.0148 66.7924 59.083 67.858 60.8052C68.9004 59.1001 100.885 79.0748 102.295 79.49H102.297Z" fill="#FF822E"/>
<path d="M99.9043 80.8803C98.5801 81.2857 68.9837 99.9081 68.1704 98.1259C67.3754 99.9155 37.4214 81.2073 36.1242 80.8203C37.4471 80.4148 67.0472 61.7937 67.8593 63.5747C68.6457 61.7814 98.612 80.4944 99.9043 80.8791V80.8803Z" fill="url(#paint3_linear_1_629)"/>
<path d="M52.6361 55.4646L52.6275 58.6188L45.5144 62.7528L45.523 59.5987L52.6361 55.4646Z" fill="#9B9B9B"/>
<path d="M45.523 59.5987L45.5144 62.7528L38.3535 58.6188L38.3633 55.4646L45.523 59.5987Z" fill="#BFBFBF"/>
<path d="M52.6362 55.4644L45.5231 59.5985L38.3635 55.4644L45.4765 51.3303L52.6362 55.4644Z" fill="#ECECEC"/>
<g style="mix-blend-mode:overlay">
<path d="M41.7221 58.5068L41.5481 58.2913L41.3742 58.3072V58.5387L41.5481 58.7543L41.7221 58.7384V58.5068ZM41.7098 58.7237L41.5481 58.7384L41.3864 58.5375V58.3219L41.5481 58.3072L41.7098 58.5081V58.7237Z" fill="white"/>
<path d="M42.0797 58.9451V58.7136L41.9058 58.498L41.7318 58.514V58.7455L41.9058 58.9611L42.0797 58.9451ZM41.7441 58.5274L41.9058 58.5127L42.0675 58.7136V58.9292L41.9058 58.9439L41.7441 58.743V58.5274Z" fill="white"/>
<path d="M41.7331 59.2344V59.4659L41.907 59.6815L42.0809 59.6656V59.4341L41.907 59.2185L41.7331 59.2344ZM42.0687 59.6521L41.907 59.6668L41.7453 59.4659V59.2504L41.907 59.2357L42.0687 59.4365V59.6521Z" fill="white"/>
<path d="M42.0907 58.72V58.9515L42.2647 59.1671L42.4386 59.1512V58.9197L42.2647 58.7041L42.0907 58.72ZM42.4264 59.1377L42.2647 59.1524L42.103 58.9515V58.7359L42.2647 58.7212L42.4264 58.9221V59.1377Z" fill="white"/>
<path d="M41.9009 58.9734L41.7269 58.7578L41.553 58.7737V59.0052L41.7269 59.2208L41.9009 59.2049V58.9734ZM41.8886 59.1902L41.7269 59.2049L41.5653 59.004V58.7884L41.7269 58.7737L41.8886 58.9746V59.1902Z" fill="white"/>
<path d="M41.9119 58.9795V59.2111L42.0859 59.4266L42.2598 59.4107V59.1792L42.0859 58.9636L41.9119 58.9795ZM42.2476 59.3972L42.0859 59.4119L41.9242 59.2111V58.9955L42.0859 58.9808L42.2476 59.1817V59.3972Z" fill="white"/>
<path d="M45.2584 60.4752V60.289L45.0967 60.1028H44.935V60.289L45.0967 60.4752H45.2584ZM44.9607 60.1322H45.0967L45.2327 60.289V60.4458H45.0967L44.9607 60.289V60.1322Z" fill="white"/>
<path d="M45.2584 60.9039V60.7177L45.0967 60.5315H44.935V60.7177L45.0967 60.9039H45.2584ZM44.9607 60.5609H45.0967L45.2327 60.7177V60.8745H45.0967L44.9607 60.7177V60.5609Z" fill="white"/>
<path d="M45.2584 61.3328V61.1466L45.0967 60.9604H44.935V61.1466L45.0967 61.3328H45.2584ZM44.9607 60.9898H45.0967L45.2327 61.1466V61.3034H45.0967L44.9607 61.1466V60.9898Z" fill="white"/>
<path d="M45.2584 61.7603V61.5741L45.0967 61.3879H44.935V61.5741L45.0967 61.7603H45.2584ZM44.9607 61.4173H45.0967L45.2327 61.5741V61.7309H45.0967L44.9607 61.5741V61.4173Z" fill="white"/>
<path d="M44.581 60.0845V59.8983L44.4193 59.7122H44.2576V59.8983L44.4193 60.0845H44.581ZM44.2834 59.7416H44.4193L44.5553 59.8983V60.0551H44.4193L44.2834 59.8983V59.7416Z" fill="white"/>
<path d="M44.581 60.5132V60.3271L44.4193 60.1409H44.2577V60.3271L44.4193 60.5132H44.581ZM44.2834 60.1703H44.4193L44.5553 60.3271V60.4838H44.4193L44.2834 60.3271V60.1703Z" fill="white"/>
<path d="M44.581 60.942V60.7558L44.4193 60.5696H44.2577V60.7558L44.4193 60.942H44.581ZM44.2834 60.599H44.4193L44.5553 60.7558V60.9126H44.4193L44.2834 60.7558V60.599Z" fill="white"/>
<path d="M44.581 61.3694V61.1833L44.4193 60.9971H44.2577V61.1833L44.4193 61.3694H44.581ZM44.2834 61.0265H44.4193L44.5553 61.1833V61.34H44.4193L44.2834 61.1833V61.0265Z" fill="white"/>
<path d="M43.9036 59.6937V59.5075L43.7419 59.3213H43.5803V59.5075L43.7419 59.6937H43.9036ZM43.606 59.3507H43.7419L43.8779 59.5075V59.6643H43.7419L43.606 59.5075V59.3507Z" fill="white"/>
<path d="M43.9036 60.1226V59.9364L43.7419 59.7502H43.5803V59.9364L43.7419 60.1226H43.9036ZM43.606 59.7796H43.7419L43.8779 59.9364V60.0932H43.7419L43.606 59.9364V59.7796Z" fill="white"/>
<path d="M43.9036 60.5501V60.3639L43.7419 60.1777H43.5803V60.3639L43.7419 60.5501H43.9036ZM43.606 60.2071H43.7419L43.8779 60.3639V60.5207H43.7419L43.606 60.3639V60.2071Z" fill="white"/>
<path d="M43.9036 60.9786V60.7924L43.7419 60.6062H43.5803V60.7924L43.7419 60.9786H43.9036ZM43.606 60.6356H43.7419L43.8779 60.7924V60.9492H43.7419L43.606 60.7924V60.6356Z" fill="white"/>
<path d="M43.2275 59.303V59.1169L43.0658 58.9307H42.9041V59.1169L43.0658 59.303H43.2275ZM42.9298 58.9601H43.0658L43.2018 59.1169V59.2736H43.0658L42.9298 59.1169V58.9601Z" fill="white"/>
<path d="M43.2275 59.7305V59.5443L43.0658 59.3582H42.9041V59.5443L43.0658 59.7305H43.2275ZM42.9298 59.3876H43.0658L43.2018 59.5443V59.7011H43.0658L42.9298 59.5443V59.3876Z" fill="white"/>
<path d="M43.2275 60.1592V59.9731L43.0658 59.7869H42.9041V59.9731L43.0658 60.1592H43.2275ZM42.9298 59.8163H43.0658L43.2018 59.9731V60.1298H43.0658L42.9298 59.9731V59.8163Z" fill="white"/>
<path d="M43.2275 60.5879V60.4018L43.0658 60.2156H42.9041V60.4018L43.0658 60.5879H43.2275ZM42.9298 60.245H43.0658L43.2018 60.4018V60.5586H43.0658L42.9298 60.4018V60.245Z" fill="white"/>
<path d="M40.9724 58.001V57.8148L40.8107 57.6287H40.649V57.8148L40.8107 58.001H40.9724ZM40.6748 57.6581H40.8107L40.9467 57.8148V57.9716H40.8107L40.6748 57.8148V57.6581Z" fill="white"/>
<path d="M40.9724 58.4297V58.2436L40.8107 58.0574H40.649V58.2436L40.8107 58.4297H40.9724ZM40.6748 58.0868H40.8107L40.9467 58.2436V58.4003H40.8107L40.6748 58.2436V58.0868Z" fill="white"/>
<path d="M40.9724 58.8585V58.6723L40.8107 58.4861H40.649V58.6723L40.8107 58.8585H40.9724ZM40.6748 58.5155H40.8107L40.9467 58.6723V58.8291H40.8107L40.6748 58.6723V58.5155Z" fill="white"/>
<path d="M40.9724 59.2872V59.101L40.8107 58.9148H40.649V59.101L40.8107 59.2872H40.9724ZM40.6748 58.9442H40.8107L40.9467 59.101V59.2578H40.8107L40.6748 59.101V58.9442Z" fill="white"/>
<path d="M40.2963 57.6104V57.4242L40.1346 57.238H39.9729V57.4242L40.1346 57.6104H40.2963ZM39.9986 57.2674H40.1346L40.2706 57.4242V57.581H40.1346L39.9986 57.4242V57.2674Z" fill="white"/>
<path d="M40.2963 58.0394V57.8532L40.1346 57.667H39.9729V57.8532L40.1346 58.0394H40.2963ZM39.9987 57.6964H40.1346L40.2706 57.8532V58.01H40.1346L39.9987 57.8532V57.6964Z" fill="white"/>
<path d="M40.2963 58.4678V58.2816L40.1346 58.0955H39.9729V58.2816L40.1346 58.4678H40.2963ZM39.9987 58.1249H40.1346L40.2706 58.2816V58.4384H40.1346L39.9987 58.2816V58.1249Z" fill="white"/>
<path d="M40.2963 58.8965V58.7104L40.1346 58.5242H39.9729V58.7104L40.1346 58.8965H40.2963ZM39.9987 58.5536H40.1346L40.2706 58.7104V58.8671H40.1346L39.9987 58.7104V58.5536Z" fill="white"/>
<path d="M39.6189 57.2195V57.0334L39.4572 56.8472H39.2955V57.0334L39.4572 57.2195H39.6189ZM39.3212 56.8766H39.4572L39.5932 57.0334V57.1901H39.4572L39.3212 57.0334V56.8766Z" fill="white"/>
<path d="M39.6189 57.6483V57.4621L39.4572 57.2759H39.2955V57.4621L39.4572 57.6483H39.6189ZM39.3212 57.3053H39.4572L39.5931 57.4621V57.6189H39.4572L39.3212 57.4621V57.3053Z" fill="white"/>
<path d="M39.6189 58.077V57.8908L39.4572 57.7046H39.2955V57.8908L39.4572 58.077H39.6189ZM39.3212 57.734H39.4572L39.5931 57.8908V58.0476H39.4572L39.3212 57.8908V57.734Z" fill="white"/>
<path d="M39.6189 58.5047V58.3185L39.4572 58.1323H39.2955V58.3185L39.4572 58.5047H39.6189ZM39.3212 58.1617H39.4572L39.5931 58.3185V58.4753H39.4572L39.3212 58.3185V58.1617Z" fill="white"/>
<path d="M38.9415 56.8289V56.6427L38.7798 56.4565H38.6181V56.6427L38.7798 56.8289H38.9415ZM38.6438 56.4859H38.7798L38.9158 56.6427V56.7995H38.7798L38.6438 56.6427V56.4859Z" fill="white"/>
<path d="M38.9415 57.2576V57.0714L38.7798 56.8853H38.6181V57.0714L38.7798 57.2576H38.9415ZM38.6439 56.9147H38.7798L38.9158 57.0714V57.2282H38.7798L38.6439 57.0714V56.9147Z" fill="white"/>
<path d="M38.9415 57.6863V57.5002L38.7798 57.314H38.6181V57.5002L38.7798 57.6863H38.9415ZM38.6439 57.3434H38.7798L38.9158 57.5002V57.6569H38.7798L38.6439 57.5002V57.3434Z" fill="white"/>
<path d="M38.9415 58.1138V57.9276L38.7798 57.7415H38.6181V57.9276L38.7798 58.1138H38.9415ZM38.6439 57.7709H38.7798L38.9158 57.9276V58.0844H38.7798L38.6439 57.9276V57.7709Z" fill="white"/>
</g>
<g style="mix-blend-mode:overlay">
<path d="M46.4832 60.7913L46.3497 60.7791L46.2162 60.9444V61.122L46.3497 61.1343L46.4832 60.9689V60.7913ZM46.4747 60.9677L46.351 61.122L46.2272 61.111V60.9456L46.351 60.7913L46.4747 60.8023V60.9677Z" fill="white"/>
<path d="M46.7576 60.811V60.6333L46.6241 60.6211L46.4906 60.7865V60.9641L46.6241 60.9763L46.7576 60.811ZM46.5004 60.7877L46.6241 60.6333L46.7478 60.6444V60.8097L46.6241 60.9641L46.5004 60.953V60.7877Z" fill="white"/>
<path d="M46.4919 61.3414V61.519L46.6254 61.5312L46.7589 61.3659V61.1883L46.6254 61.176L46.4919 61.3414ZM46.7491 61.3647L46.6254 61.519L46.5017 61.508V61.3426L46.6254 61.1883L46.7491 61.1993V61.3647Z" fill="white"/>
<path d="M46.7662 60.6285V60.8061L46.8997 60.8184L47.0332 60.653V60.4754L46.8997 60.4631L46.7662 60.6285ZM47.0234 60.6518L46.8997 60.8061L46.776 60.7951V60.6297L46.8997 60.4754L47.0234 60.4864V60.6518Z" fill="white"/>
<path d="M46.6205 60.991L46.4869 60.9788L46.3534 61.1441V61.3217L46.4869 61.334L46.6205 61.1686V60.991ZM46.6119 61.1674L46.4882 61.3217L46.3644 61.3107V61.1454L46.4882 60.991L46.6119 61.002V61.1674Z" fill="white"/>
<path d="M46.6291 60.9862V61.1638L46.7626 61.176L46.8961 61.0107V60.833L46.7626 60.8208L46.6291 60.9862ZM46.8863 61.0094L46.7626 61.1638L46.6389 61.1528V60.9874L46.7626 60.833L46.8863 60.8441V61.0094Z" fill="white"/>
<path d="M48.72 59.8666L48.6636 59.5261L48.5411 59.5972C48.5411 59.5972 48.486 59.9989 48.4848 60.0014L48.5411 60.3419L48.6636 60.2709C48.6636 60.2709 48.7187 59.8691 48.72 59.8666ZM48.5558 60.315L48.5031 59.9916L48.5558 59.607L48.6514 59.5518L48.704 59.8752L48.6514 60.2598L48.5558 60.315Z" fill="white"/>
<path d="M48.448 60.0234L48.3917 59.6829L48.2692 59.7539C48.2692 59.7539 48.2141 60.1557 48.2128 60.1581L48.2692 60.4987L48.3917 60.4276C48.3917 60.4276 48.4468 60.0258 48.448 60.0234ZM48.2827 60.4717L48.23 60.1483L48.2827 59.7637L48.3782 59.7086L48.4309 60.032L48.3782 60.4166L48.2827 60.4717Z" fill="white"/>
<path d="M48.1761 60.1801L48.1198 59.8396L47.9973 59.9106C47.9973 59.9106 47.9421 60.3124 47.9409 60.3149L47.9973 60.6554L48.1198 60.5843C48.1198 60.5843 48.1749 60.1826 48.1761 60.1801ZM48.0107 60.6284L47.9581 60.3051L48.0107 59.9204L48.1063 59.8653L48.159 60.1887L48.1063 60.5733L48.0107 60.6284Z" fill="white"/>
<path d="M47.9054 60.3369L47.8491 59.9963L47.7266 60.0674C47.7266 60.0674 47.6715 60.4692 47.6702 60.4716L47.7266 60.8121L47.8491 60.7411C47.8491 60.7411 47.9042 60.3393 47.9054 60.3369ZM47.74 60.7852L47.6874 60.4618L47.74 60.0772L47.8356 60.0221L47.8883 60.3454L47.8356 60.7301L47.74 60.7852Z" fill="white"/>
<path d="M49.7795 58.9517L49.4769 59.1268L49.325 59.5176L49.4769 59.7332L49.7795 59.558L49.9314 59.1672L49.7795 58.9517ZM49.5002 59.6707L49.3728 59.4894L49.5002 59.1599L49.755 59.0129L49.8824 59.1942L49.755 59.5237L49.5002 59.6707Z" fill="white"/>
<path d="M50.4765 58.5486L50.174 58.7237L50.0221 59.1145L50.174 59.3301L50.4765 59.1549L50.6284 58.7642L50.4765 58.5486ZM50.1972 59.2676L50.0698 59.0863L50.1972 58.7568L50.452 58.6098L50.5794 58.7911L50.452 59.1206L50.1972 59.2676Z" fill="white"/>
<path d="M51.1722 58.147L50.8697 58.3221L50.7178 58.7129L50.8697 58.9285L51.1722 58.7533L51.3241 58.3626L51.1722 58.147ZM50.893 58.866L50.7656 58.6847L50.893 58.3552L51.1478 58.2082L51.2751 58.3895L51.1478 58.719L50.893 58.866Z" fill="white"/>
<path d="M51.8692 57.7451L51.5667 57.9203L51.4148 58.311L51.5667 58.5266L51.8692 58.3515L52.0211 57.9607L51.8692 57.7451ZM51.5899 58.4641L51.4625 58.2829L51.5899 57.9534L51.8447 57.8064L51.9721 57.9877L51.8447 58.3172L51.5899 58.4641Z" fill="white"/>
<path d="M46.3962 59.733L46.2627 59.7207L46.1292 59.8861V60.0637L46.2627 60.0759L46.3962 59.9106V59.733ZM46.3877 59.9093L46.264 60.0637L46.1402 60.0527V59.8873L46.264 59.733L46.3877 59.744V59.9093Z" fill="white"/>
<path d="M46.6707 59.7526V59.575L46.5371 59.5627L46.4036 59.7281V59.9057L46.5371 59.918L46.6707 59.7526ZM46.4134 59.7293L46.5371 59.575L46.6609 59.586V59.7514L46.5371 59.9057L46.4134 59.8947V59.7293Z" fill="white"/>
<path d="M46.4036 60.2818V60.4594L46.5371 60.4717L46.6707 60.3063V60.1287L46.5371 60.1165L46.4036 60.2818ZM46.6609 60.3051L46.5371 60.4594L46.4134 60.4484V60.283L46.5371 60.1287L46.6609 60.1397V60.3051Z" fill="white"/>
<path d="M46.678 59.5701V59.7478L46.8115 59.76L46.945 59.5946V59.417L46.8115 59.4048L46.678 59.5701ZM46.9352 59.5934L46.8115 59.7478L46.6878 59.7367V59.5714L46.8115 59.417L46.9352 59.4281V59.5934Z" fill="white"/>
<path d="M46.5334 59.9327L46.3999 59.9204L46.2664 60.0858V60.2634L46.3999 60.2756L46.5334 60.1103V59.9327ZM46.5249 60.109L46.4012 60.2634L46.2774 60.2524V60.087L46.4012 59.9327L46.5249 59.9437V60.109Z" fill="white"/>
<path d="M46.5408 59.9278V60.1054L46.6743 60.1177L46.8079 59.9523V59.7747L46.6743 59.7625L46.5408 59.9278ZM46.7981 59.9511L46.6743 60.1054L46.5506 60.0944V59.929L46.6743 59.7747L46.7981 59.7857V59.9511Z" fill="white"/>
<path d="M48.633 58.8073L48.5766 58.4668L48.4541 58.5378C48.4541 58.5378 48.399 58.9396 48.3978 58.9421L48.4541 59.2826L48.5766 59.2115C48.5766 59.2115 48.6318 58.8098 48.633 58.8073ZM48.4676 59.2556L48.4149 58.9323L48.4676 58.5476L48.5632 58.4925L48.6158 58.8159L48.5632 59.2005L48.4676 59.2556Z" fill="white"/>
<path d="M48.361 58.9641L48.3047 58.6235L48.1822 58.6946C48.1822 58.6946 48.1271 59.0964 48.1259 59.0988L48.1822 59.4393L48.3047 59.3683C48.3047 59.3683 48.3598 58.9665 48.361 58.9641ZM48.1957 59.4124L48.143 59.089L48.1957 58.7044L48.2912 58.6493L48.3439 58.9726L48.2912 59.3573L48.1957 59.4124Z" fill="white"/>
<path d="M48.0891 59.1208L48.0328 58.7803L47.9103 58.8513C47.9103 58.8513 47.8551 59.2531 47.8539 59.2555L47.9103 59.5961L48.0328 59.525C48.0328 59.525 48.0879 59.1232 48.0891 59.1208ZM47.9237 59.5691L47.8711 59.2457L47.9237 58.8611L48.0193 58.806L48.0719 59.1294L48.0193 59.514L47.9237 59.5691Z" fill="white"/>
<path d="M47.8172 59.2788L47.7608 58.9382L47.6383 59.0093C47.6383 59.0093 47.5832 59.411 47.582 59.4135L47.6383 59.754L47.7608 59.683C47.7608 59.683 47.816 59.2812 47.8172 59.2788ZM47.6518 59.7271L47.5992 59.4037L47.6518 59.0191L47.7474 58.964L47.8 59.2873L47.7474 59.672L47.6518 59.7271Z" fill="white"/>
<path d="M49.6925 57.8921L49.39 58.0673L49.2381 58.458L49.39 58.6736L49.6925 58.4984L49.8444 58.1077L49.6925 57.8921ZM49.4132 58.6111L49.2858 58.4298L49.4132 58.1003L49.668 57.9533L49.7954 58.1346L49.668 58.4641L49.4132 58.6111Z" fill="white"/>
<path d="M50.3895 57.4902L50.0869 57.6654L49.935 58.0561L50.0869 58.2717L50.3895 58.0966L50.5414 57.7058L50.3895 57.4902ZM50.1102 58.2093L49.9828 58.028L50.1102 57.6985L50.365 57.5515L50.4924 57.7328L50.365 58.0623L50.1102 58.2093Z" fill="white"/>
<path d="M51.0852 57.0886L50.7827 57.2638L50.6308 57.6545L50.7827 57.8701L51.0852 57.695L51.2371 57.3042L51.0852 57.0886ZM50.806 57.8076L50.6786 57.6264L50.806 57.2969L51.0607 57.1499L51.1881 57.3312L51.0607 57.6607L50.806 57.8076Z" fill="white"/>
<path d="M51.7822 56.6868L51.4797 56.8619L51.3278 57.2527L51.4797 57.4683L51.7822 57.2931L51.9341 56.9023L51.7822 56.6868ZM51.503 57.4058L51.3756 57.2245L51.503 56.895L51.7577 56.748L51.8851 56.9293L51.7577 57.2588L51.503 57.4058Z" fill="white"/>
</g>
<path d="M88.3423 55.0527L88.3349 57.4156L83.0066 60.5122L83.0139 58.1493L88.3423 55.0527Z" fill="#9B9B9B"/>
<path d="M83.0139 58.1493L83.0066 60.5122L77.6439 57.4156L77.65 55.0527L83.0139 58.1493Z" fill="#BFBFBF"/>
<path d="M88.3425 55.0529L83.0142 58.1495L77.6503 55.0529L82.9786 51.9563L88.3425 55.0529Z" fill="#ECECEC"/>
<g style="mix-blend-mode:overlay">
<path d="M80.1659 57.3326L80.0361 57.1709L79.9062 57.1819V57.3559L80.0361 57.5176L80.1659 57.5065V57.3326ZM80.1574 57.4955L80.0361 57.5065L79.9148 57.3559V57.1942L80.0361 57.1831L80.1574 57.3338V57.4955Z" fill="white"/>
<path d="M80.4342 57.6596V57.4857L80.3043 57.324L80.1745 57.335V57.5089L80.3043 57.6706L80.4342 57.6596ZM80.183 57.3472L80.3043 57.3362L80.4256 57.4869V57.6486L80.3043 57.6596L80.183 57.5089V57.3472Z" fill="white"/>
<path d="M80.1745 57.8777V58.0517L80.3043 58.2134L80.4342 58.2023V58.0284L80.3043 57.8667L80.1745 57.8777ZM80.4256 58.1901L80.3043 58.2011L80.183 58.0504V57.8888L80.3043 57.8777L80.4256 58.0284V58.1901Z" fill="white"/>
<path d="M80.4427 57.492V57.6659L80.5725 57.8276L80.7024 57.8166V57.6426L80.5725 57.481L80.4427 57.492ZM80.6938 57.8043L80.5725 57.8154L80.4513 57.6647V57.503L80.5725 57.492L80.6938 57.6426V57.8043Z" fill="white"/>
<path d="M80.3006 57.6817L80.1708 57.52L80.0409 57.531V57.705L80.1708 57.8667L80.3006 57.8556V57.6817ZM80.292 57.8446L80.1708 57.8556L80.0495 57.705V57.5433L80.1708 57.5323L80.292 57.6829V57.8446Z" fill="white"/>
<path d="M80.308 57.6853V57.8593L80.4378 58.021L80.5677 58.0099V57.836L80.4378 57.6743L80.308 57.6853ZM80.5591 57.9977L80.4378 58.0087L80.3166 57.8581V57.6964L80.4378 57.6853L80.5591 57.836V57.9977Z" fill="white"/>
<path d="M82.8154 58.8059V58.6662L82.6942 58.5266H82.5729V58.6662L82.6942 58.8059H82.8154ZM82.5925 58.5487H82.6942L82.7958 58.6662V58.7838H82.6942L82.5925 58.6662V58.5487Z" fill="white"/>
<path d="M82.8153 59.1267V58.9871L82.6941 58.8474H82.5728V58.9871L82.6941 59.1267H82.8153ZM82.5924 58.8695H82.6941L82.7958 58.9871V59.1046H82.6941L82.5924 58.9871V58.8695Z" fill="white"/>
<path d="M82.8153 59.4477V59.3081L82.6941 59.1685H82.5728V59.3081L82.6941 59.4477H82.8153ZM82.5924 59.1905H82.6941L82.7958 59.3081V59.4257H82.6941L82.5924 59.3081V59.1905Z" fill="white"/>
<path d="M82.8153 59.7685V59.6289L82.6941 59.4893H82.5728V59.6289L82.6941 59.7685H82.8153ZM82.5924 59.5113H82.6941L82.7958 59.6289V59.7465H82.6941L82.5924 59.6289V59.5113Z" fill="white"/>
<path d="M82.3083 58.5132V58.3735L82.1871 58.2339H82.0658V58.3735L82.1871 58.5132H82.3083ZM82.0854 58.2559H82.1871L82.2887 58.3735V58.4911H82.1871L82.0854 58.3735V58.2559Z" fill="white"/>
<path d="M82.3083 58.8342V58.6946L82.1871 58.5549H82.0658V58.6946L82.1871 58.8342H82.3083ZM82.0854 58.577H82.1871L82.2887 58.6946V58.8122H82.1871L82.0854 58.6946V58.577Z" fill="white"/>
<path d="M82.3083 59.155V59.0154L82.1871 58.8757H82.0658V59.0154L82.1871 59.155H82.3083ZM82.0854 58.8978H82.1871L82.2887 59.0154V59.133H82.1871L82.0854 59.0154V58.8978Z" fill="white"/>
<path d="M82.3083 59.4758V59.3362L82.1871 59.1965H82.0658V59.3362L82.1871 59.4758H82.3083ZM82.0854 59.2186H82.1871L82.2887 59.3362V59.4538H82.1871L82.0854 59.3362V59.2186Z" fill="white"/>
<path d="M81.8 58.2207V58.081L81.6787 57.9414H81.5574V58.081L81.6787 58.2207H81.8ZM81.577 57.9635H81.6787L81.7804 58.081V58.1986H81.6787L81.577 58.081V57.9635Z" fill="white"/>
<path d="M81.8 58.5415V58.4018L81.6787 58.2622H81.5574V58.4018L81.6787 58.5415H81.8ZM81.577 58.2843H81.6787L81.7804 58.4018V58.5194H81.6787L81.577 58.4018V58.2843Z" fill="white"/>
<path d="M81.8 58.8625V58.7229L81.6787 58.5833H81.5574V58.7229L81.6787 58.8625H81.8ZM81.577 58.6053H81.6787L81.7804 58.7229V58.8405H81.6787L81.577 58.7229V58.6053Z" fill="white"/>
<path d="M81.8 59.1836V59.0439L81.6787 58.9043H81.5574V59.0439L81.6787 59.1836H81.8ZM81.577 58.9263H81.6787L81.7804 59.0439V59.1615H81.6787L81.577 59.0439V58.9263Z" fill="white"/>
<path d="M81.2929 57.9277V57.7881L81.1716 57.6484H81.0504V57.7881L81.1716 57.9277H81.2929ZM81.0699 57.6705H81.1716L81.2733 57.7881V57.9057H81.1716L81.0699 57.7881V57.6705Z" fill="white"/>
<path d="M81.2929 58.2488V58.1091L81.1716 57.9695H81.0503V58.1091L81.1716 58.2488H81.2929ZM81.0699 57.9915H81.1716L81.2733 58.1091V58.2267H81.1716L81.0699 58.1091V57.9915Z" fill="white"/>
<path d="M81.2929 58.5696V58.4299L81.1716 58.2903H81.0503V58.4299L81.1716 58.5696H81.2929ZM81.0699 58.3123H81.1716L81.2733 58.4299V58.5475H81.1716L81.0699 58.4299V58.3123Z" fill="white"/>
<path d="M81.2929 58.8904V58.7507L81.1716 58.6111H81.0503V58.7507L81.1716 58.8904H81.2929ZM81.0699 58.6331H81.1716L81.2733 58.7507V58.8683H81.1716L81.0699 58.7507V58.6331Z" fill="white"/>
<path d="M79.6049 56.9526V56.813L79.4836 56.6733H79.3624V56.813L79.4836 56.9526H79.6049ZM79.382 56.6954H79.4836L79.5853 56.813V56.9306H79.4836L79.382 56.813V56.6954Z" fill="white"/>
<path d="M79.6049 57.2737V57.134L79.4836 56.9944H79.3623V57.134L79.4836 57.2737H79.6049ZM79.3819 57.0164H79.4836L79.5853 57.134V57.2516H79.4836L79.3819 57.134V57.0164Z" fill="white"/>
<path d="M79.6049 57.5945V57.4548L79.4836 57.3152H79.3623V57.4548L79.4836 57.5945H79.6049ZM79.3819 57.3372H79.4836L79.5853 57.4548V57.5724H79.4836L79.3819 57.4548V57.3372Z" fill="white"/>
<path d="M79.6049 57.9155V57.7759L79.4836 57.6362H79.3623V57.7759L79.4836 57.9155H79.6049ZM79.3819 57.6583H79.4836L79.5853 57.7759V57.8935H79.4836L79.3819 57.7759V57.6583Z" fill="white"/>
<path d="M79.0978 56.6601V56.5205L78.9765 56.3809H78.8553V56.5205L78.9765 56.6601H79.0978ZM78.8749 56.4029H78.9765L79.0782 56.5205V56.6381H78.9765L78.8749 56.5205V56.4029Z" fill="white"/>
<path d="M79.0977 56.9812V56.8415L78.9765 56.7019H78.8552V56.8415L78.9765 56.9812H79.0977ZM78.8748 56.724H78.9765L79.0781 56.8415V56.9591H78.9765L78.8748 56.8415V56.724Z" fill="white"/>
<path d="M79.0977 57.302V57.1623L78.9765 57.0227H78.8552V57.1623L78.9765 57.302H79.0977ZM78.8748 57.0448H78.9765L79.0781 57.1623V57.2799H78.9765L78.8748 57.1623V57.0448Z" fill="white"/>
<path d="M79.0977 57.623V57.4834L78.9765 57.3438H78.8552V57.4834L78.9765 57.623H79.0977ZM78.8748 57.3658H78.9765L79.0781 57.4834V57.601H78.9765L78.8748 57.4834V57.3658Z" fill="white"/>
<path d="M78.5907 56.3672V56.2275L78.4695 56.0879H78.3482V56.2275L78.4695 56.3672H78.5907ZM78.3678 56.1099H78.4695L78.5711 56.2275V56.3451H78.4695L78.3678 56.2275V56.1099Z" fill="white"/>
<path d="M78.5908 56.688V56.5483L78.4695 56.4087H78.3482V56.5483L78.4695 56.688H78.5908ZM78.3678 56.4307H78.4695L78.5712 56.5483V56.6659H78.4695L78.3678 56.5483V56.4307Z" fill="white"/>
<path d="M78.5908 57.0088V56.8691L78.4695 56.7295H78.3482V56.8691L78.4695 57.0088H78.5908ZM78.3678 56.7515H78.4695L78.5712 56.8691V56.9867H78.4695L78.3678 56.8691V56.7515Z" fill="white"/>
<path d="M78.5908 57.3298V57.1902L78.4695 57.0505H78.3482V57.1902L78.4695 57.3298H78.5908ZM78.3678 57.0726H78.4695L78.5712 57.1902V57.3078H78.4695L78.3678 57.1902V57.0726Z" fill="white"/>
<path d="M78.0836 56.0744V55.9348L77.9624 55.7952H77.8411V55.9348L77.9624 56.0744H78.0836ZM77.8607 55.8172H77.9624L78.064 55.9348V56.0524H77.9624L77.8607 55.9348V55.8172Z" fill="white"/>
<path d="M78.0836 56.3955V56.2558L77.9623 56.1162H77.8411V56.2558L77.9623 56.3955H78.0836ZM77.8607 56.1383H77.9623L78.064 56.2558V56.3734H77.9623L77.8607 56.2558V56.1383Z" fill="white"/>
<path d="M78.0836 56.7163V56.5767L77.9623 56.437H77.8411V56.5767L77.9623 56.7163H78.0836ZM77.8607 56.4591H77.9623L78.064 56.5767V56.6942H77.9623L77.8607 56.5767V56.4591Z" fill="white"/>
<path d="M78.0836 57.0373V56.8977L77.9623 56.7581H77.8411V56.8977L77.9623 57.0373H78.0836ZM77.8607 56.7801H77.9623L78.064 56.8977V57.0153H77.9623L77.8607 56.8977V56.7801Z" fill="white"/>
</g>
<g style="mix-blend-mode:overlay">
<path d="M83.7329 59.0437L83.6337 59.0352L83.5345 59.1589V59.2924L83.6337 59.301L83.7329 59.1772V59.0437ZM83.7268 59.176L83.6337 59.2912L83.5406 59.2826V59.1589L83.6337 59.0437L83.7268 59.0523V59.176Z" fill="white"/>
<path d="M83.9387 59.0584V58.9248L83.8395 58.9163L83.7403 59.04V59.1735L83.8395 59.1821L83.9387 59.0584ZM83.7464 59.0412L83.8395 58.9261L83.9326 58.9346V59.0584L83.8395 59.1735L83.7464 59.1649V59.0412Z" fill="white"/>
<path d="M83.7391 59.4553V59.5888L83.8383 59.5973L83.9375 59.4736V59.3401L83.8383 59.3315L83.7391 59.4553ZM83.9314 59.4724L83.8383 59.5875L83.7452 59.579V59.4553L83.8383 59.3401L83.9314 59.3487V59.4724Z" fill="white"/>
<path d="M83.9436 58.9211V59.0546L84.0429 59.0632L84.1421 58.9395V58.8059L84.0429 58.7974L83.9436 58.9211ZM84.1359 58.9382L84.0429 59.0534L83.9498 59.0448V58.9211L84.0429 58.8059L84.1359 58.8145V58.9382Z" fill="white"/>
<path d="M83.8358 59.1931L83.7366 59.1846L83.6374 59.3083V59.4418L83.7366 59.4504L83.8358 59.3267V59.1931ZM83.8297 59.3254L83.7366 59.4406L83.6435 59.432V59.3083L83.7366 59.1931L83.8297 59.2017V59.3254Z" fill="white"/>
<path d="M83.8419 59.1894V59.3229L83.9412 59.3315L84.0404 59.2078V59.0742L83.9412 59.0657L83.8419 59.1894ZM84.0343 59.2065L83.9412 59.3217L83.8481 59.3131V59.1894L83.9412 59.0742L84.0343 59.0828V59.2065Z" fill="white"/>
<path d="M85.4087 58.3502L85.367 58.0955L85.2752 58.1481C85.2409 58.3 85.2298 58.5548 85.2752 58.7055L85.367 58.6528C85.367 58.6528 85.4087 58.3515 85.4087 58.3502ZM85.285 58.6859C85.2421 58.5536 85.2519 58.2902 85.285 58.1555L85.356 58.1138C85.3989 58.2461 85.3891 58.5095 85.356 58.6442L85.285 58.6859Z" fill="white"/>
<path d="M85.2041 58.4679L85.1625 58.2131L85.0706 58.2658C85.0363 58.4177 85.0253 58.6725 85.0706 58.8231L85.1625 58.7705C85.1625 58.7705 85.2041 58.4691 85.2041 58.4679ZM85.0804 58.8035C85.0375 58.6713 85.0473 58.4079 85.0804 58.2732L85.1514 58.2315C85.1943 58.3638 85.1845 58.6272 85.1514 58.7619L85.0804 58.8035Z" fill="white"/>
<path d="M85.0008 58.5854L84.9592 58.3306L84.8673 58.3832C84.833 58.5351 84.822 58.7899 84.8673 58.9406L84.9592 58.8879C84.9592 58.8879 85.0008 58.5866 85.0008 58.5854ZM84.8771 58.921C84.8342 58.7887 84.844 58.5253 84.8771 58.3906L84.9481 58.3489C84.991 58.4812 84.9812 58.7446 84.9481 58.8793L84.8771 58.921Z" fill="white"/>
<path d="M84.7974 58.703L84.7558 58.4482L84.6639 58.5009C84.6296 58.6528 84.6186 58.9076 84.6639 59.0583L84.7558 59.0056C84.7558 59.0056 84.7974 58.7043 84.7974 58.703ZM84.6737 59.0387C84.6309 58.9064 84.6407 58.643 84.6737 58.5083L84.7448 58.4666C84.7876 58.5989 84.7778 58.8623 84.7448 58.997L84.6737 59.0387Z" fill="white"/>
<path d="M86.2024 57.6646L85.9758 57.7956L85.8619 58.0884L85.9758 58.2501L86.2024 58.119L86.3163 57.8262L86.2024 57.6646ZM85.9929 58.2035L85.8974 58.0675L85.9929 57.8213L86.184 57.7111L86.2796 57.8471L86.184 58.0933L85.9929 58.2035Z" fill="white"/>
<path d="M86.7242 57.3633L86.4976 57.4943L86.3837 57.7871L86.4976 57.9488L86.7242 57.8177L86.8381 57.525L86.7242 57.3633ZM86.5147 57.9022L86.4192 57.7663L86.5147 57.5201L86.7058 57.4098L86.8014 57.5458L86.7058 57.792L86.5147 57.9022Z" fill="white"/>
<path d="M87.246 57.0632L87.0194 57.1943L86.9055 57.4871L87.0194 57.6487L87.246 57.5177L87.3599 57.2249L87.246 57.0632ZM87.0366 57.6022L86.941 57.4662L87.0366 57.22L87.2277 57.1098L87.3232 57.2457L87.2277 57.492L87.0366 57.6022Z" fill="white"/>
<path d="M87.7666 56.762L87.54 56.893L87.4261 57.1858L87.54 57.3475L87.7666 57.2164L87.8805 56.9237L87.7666 56.762ZM87.5572 57.3009L87.4616 57.165L87.5572 56.9188L87.7482 56.8085L87.8438 56.9445L87.7482 57.1907L87.5572 57.3009Z" fill="white"/>
<path d="M83.6668 58.2498L83.5676 58.2412L83.4684 58.3649V58.4984L83.5676 58.507L83.6668 58.3833V58.2498ZM83.6607 58.3821L83.5676 58.4972L83.4745 58.4886V58.3649L83.5676 58.2498L83.6607 58.2584V58.3821Z" fill="white"/>
<path d="M83.8726 58.2644V58.1309L83.7734 58.1223L83.6742 58.246V58.3795L83.7734 58.3881L83.8726 58.2644ZM83.6803 58.2473L83.7734 58.1321L83.8665 58.1407V58.2644L83.7734 58.3795L83.6803 58.371V58.2473Z" fill="white"/>
<path d="M83.6729 58.6613V58.7948L83.7722 58.8034L83.8714 58.6797V58.5462L83.7722 58.5376L83.6729 58.6613ZM83.8653 58.6785L83.7722 58.7936L83.6791 58.785V58.6613L83.7722 58.5462L83.8653 58.5547V58.6785Z" fill="white"/>
<path d="M83.8787 58.1284V58.2619L83.978 58.2704L84.0772 58.1467V58.0132L83.978 58.0046L83.8787 58.1284ZM84.071 58.1455L83.978 58.2606L83.8849 58.2521V58.1284L83.978 58.0132L84.071 58.0218V58.1455Z" fill="white"/>
<path d="M83.7698 58.3992L83.6705 58.3906L83.5713 58.5143V58.6479L83.6705 58.6564L83.7698 58.5327V58.3992ZM83.7636 58.5315L83.6705 58.6466L83.5774 58.6381V58.5143L83.6705 58.3992L83.7636 58.4078V58.5315Z" fill="white"/>
<path d="M83.7758 58.3954V58.529L83.875 58.5375L83.9743 58.4138V58.2803L83.875 58.2717L83.7758 58.3954ZM83.9681 58.4126L83.875 58.5277L83.7819 58.5192V58.3954L83.875 58.2803L83.9681 58.2889V58.4126Z" fill="white"/>
<path d="M85.3425 57.5563L85.3009 57.3015L85.209 57.3542C85.1747 57.5061 85.1637 57.7621 85.209 57.9115L85.3009 57.8588C85.3009 57.8588 85.3425 57.5575 85.3425 57.5563ZM85.2188 57.8919C85.1759 57.7596 85.1857 57.4963 85.2188 57.3615L85.2898 57.3199C85.3327 57.4522 85.3229 57.7155 85.2898 57.8503L85.2188 57.8919Z" fill="white"/>
<path d="M85.1392 57.6737L85.0975 57.4189L85.0057 57.4716C84.9714 57.6235 84.9604 57.8783 85.0057 58.029L85.0975 57.9763C85.0975 57.9763 85.1392 57.675 85.1392 57.6737ZM85.0155 58.0094C84.9726 57.8771 84.9824 57.6137 85.0155 57.479L85.0865 57.4373C85.1294 57.5696 85.1196 57.833 85.0865 57.9677L85.0155 58.0094Z" fill="white"/>
<path d="M84.9358 57.7914L84.8942 57.5366L84.8023 57.5893C84.768 57.7412 84.757 57.996 84.8023 58.1466L84.8942 58.094C84.8942 58.094 84.9358 57.7926 84.9358 57.7914ZM84.8121 58.127C84.7692 57.9947 84.779 57.7314 84.8121 57.5966L84.8831 57.555C84.926 57.6873 84.9162 57.9506 84.8831 58.0854L84.8121 58.127Z" fill="white"/>
<path d="M84.7325 57.9091L84.6909 57.6543L84.599 57.707C84.5647 57.8589 84.5537 58.1136 84.599 58.2643L84.6909 58.2116C84.6909 58.2116 84.7325 57.9103 84.7325 57.9091ZM84.6088 58.2447C84.5659 58.1124 84.5757 57.8491 84.6088 57.7143L84.6798 57.6727C84.7227 57.805 84.7129 58.0683 84.6798 58.2031L84.6088 58.2447Z" fill="white"/>
<path d="M86.1362 56.8713L85.9096 57.0024L85.7957 57.2952L85.9096 57.4568L86.1362 57.3258L86.2502 57.033L86.1362 56.8713ZM85.9268 57.4103L85.8312 57.2743L85.9268 57.0281L86.1179 56.9179L86.2134 57.0539L86.1179 57.3001L85.9268 57.4103Z" fill="white"/>
<path d="M86.6581 56.5701L86.4315 56.7011L86.3175 56.9939L86.4315 57.1556L86.6581 57.0245L86.772 56.7318L86.6581 56.5701ZM86.4486 57.109L86.3531 56.9731L86.4486 56.7269L86.6397 56.6166L86.7352 56.7526L86.6397 56.9988L86.4486 57.109Z" fill="white"/>
<path d="M87.1798 56.2686L86.9532 56.3996L86.8393 56.6924L86.9532 56.8541L87.1798 56.723L87.2937 56.4302L87.1798 56.2686ZM86.9704 56.8075L86.8748 56.6715L86.9704 56.4253L87.1615 56.3151L87.257 56.4511L87.1615 56.6973L86.9704 56.8075Z" fill="white"/>
<path d="M87.7017 55.9673L87.475 56.0984L87.3611 56.3911L87.475 56.5528L87.7017 56.4217L87.8156 56.129L87.7017 55.9673ZM87.4922 56.5063L87.3966 56.3703L87.4922 56.1241L87.6833 56.0138L87.7788 56.1498L87.6833 56.396L87.4922 56.5063Z" fill="white"/>
</g>
<path d="M92.9505 23.7073L92.9456 25.5128L88.8752 27.8781L88.8801 26.0726L92.9505 23.7073Z" fill="#9B9B9B"/>
<path d="M88.8801 26.0726L88.8752 27.8781L84.7791 25.5128L84.7839 23.7073L88.8801 26.0726Z" fill="#BFBFBF"/>
<path d="M92.9506 23.7071L88.8802 26.0724L84.7841 23.7071L88.8533 21.3418L92.9506 23.7071Z" fill="#ECECEC"/>
<g style="mix-blend-mode:overlay">
<path d="M86.7058 25.4477L86.6065 25.324L86.5073 25.3325V25.4648L86.6065 25.5886L86.7058 25.58V25.4477ZM86.6996 25.5714L86.6065 25.58L86.5134 25.4648V25.3411L86.6065 25.3325L86.6996 25.4477V25.5714Z" fill="white"/>
<path d="M86.9103 25.6989V25.5666L86.8111 25.4429L86.7119 25.4514V25.5837L86.8111 25.7075L86.9103 25.6989ZM86.718 25.46L86.8111 25.4514L86.9042 25.5666V25.6903L86.8111 25.6989L86.718 25.5837V25.46Z" fill="white"/>
<path d="M86.7119 25.864V25.9963L86.8111 26.1201L86.9103 26.1115V25.9792L86.8111 25.8555L86.7119 25.864ZM86.9042 26.1029L86.8111 26.1115L86.718 25.9963V25.8726L86.8111 25.864L86.9042 25.9792V26.1029Z" fill="white"/>
<path d="M86.9164 25.5703V25.7026L87.0156 25.8263L87.1148 25.8178V25.6855L87.0156 25.5618L86.9164 25.5703ZM87.1087 25.8092L87.0156 25.8178L86.9225 25.7026V25.5789L87.0156 25.5703L87.1087 25.6855V25.8092Z" fill="white"/>
<path d="M86.8074 25.7145L86.7082 25.5908L86.609 25.5994V25.7317L86.7082 25.8554L86.8074 25.8468V25.7145ZM86.8013 25.8383L86.7082 25.8468L86.6151 25.7317V25.608L86.7082 25.5994L86.8013 25.7145V25.8383Z" fill="white"/>
<path d="M86.8135 25.7185V25.8508L86.9128 25.9745L87.012 25.966V25.8337L86.9128 25.71L86.8135 25.7185ZM87.0059 25.9574L86.9128 25.966L86.8197 25.8508V25.7271L86.9128 25.7185L87.0059 25.8337V25.9574Z" fill="white"/>
<path d="M88.7281 26.5745V26.4679L88.6362 26.3613H88.5444V26.4679L88.6362 26.5745H88.7281ZM88.5578 26.3785H88.6362L88.7146 26.4679V26.5573H88.6362L88.5578 26.4679V26.3785Z" fill="white"/>
<path d="M88.7281 26.8196V26.713L88.6362 26.6064H88.5444V26.713L88.6362 26.8196H88.7281ZM88.5578 26.6236H88.6362L88.7146 26.713V26.8024H88.6362L88.5578 26.713V26.6236Z" fill="white"/>
<path d="M88.7281 27.0645V26.9579L88.6362 26.8513H88.5444V26.9579L88.6362 27.0645H88.7281ZM88.5578 26.8685H88.6362L88.7146 26.9579V27.0473H88.6362L88.5578 26.9579V26.8685Z" fill="white"/>
<path d="M88.7281 27.3096V27.203L88.6362 27.0964H88.5444V27.203L88.6362 27.3096H88.7281ZM88.5578 27.1136H88.6362L88.7146 27.203V27.2924H88.6362L88.5578 27.203V27.1136Z" fill="white"/>
<path d="M88.341 26.3503V26.2438L88.2492 26.1372H88.1573V26.2438L88.2492 26.3503H88.341ZM88.1708 26.1544H88.2492L88.3276 26.2438V26.3332H88.2492L88.1708 26.2438V26.1544Z" fill="white"/>
<path d="M88.341 26.5955V26.4889L88.2491 26.3823H88.1573V26.4889L88.2491 26.5955H88.341ZM88.1707 26.3995H88.2491L88.3275 26.4889V26.5783H88.2491L88.1707 26.4889V26.3995Z" fill="white"/>
<path d="M88.341 26.8418V26.7352L88.2491 26.6287H88.1573V26.7352L88.2491 26.8418H88.341ZM88.1707 26.6458H88.2491L88.3275 26.7352V26.8246H88.2491L88.1707 26.7352V26.6458Z" fill="white"/>
<path d="M88.341 27.0869V26.9803L88.2491 26.8738H88.1573V26.9803L88.2491 27.0869H88.341ZM88.1707 26.8909H88.2491L88.3275 26.9803V27.0698H88.2491L88.1707 26.9803V26.8909Z" fill="white"/>
<path d="M87.9539 26.1274V26.0209L87.8621 25.9143H87.7702V26.0209L87.8621 26.1274H87.9539ZM87.7837 25.9315H87.8621L87.9405 26.0209V26.1103H87.8621L87.7837 26.0209V25.9315Z" fill="white"/>
<path d="M87.9539 26.3726V26.266L87.8621 26.1594H87.7702V26.266L87.8621 26.3726H87.9539ZM87.7837 26.1766H87.8621L87.9405 26.266V26.3554H87.8621L87.7837 26.266V26.1766Z" fill="white"/>
<path d="M87.9539 26.6174V26.5109L87.8621 26.4043H87.7702V26.5109L87.8621 26.6174H87.9539ZM87.7837 26.4214H87.8621L87.9405 26.5109V26.6003H87.8621L87.7837 26.5109V26.4214Z" fill="white"/>
<path d="M87.9539 26.8625V26.756L87.8621 26.6494H87.7702V26.756L87.8621 26.8625H87.9539ZM87.7837 26.6666H87.8621L87.9405 26.756V26.8454H87.8621L87.7837 26.756V26.6666Z" fill="white"/>
<path d="M87.5669 25.9033V25.7968L87.475 25.6902H87.3832V25.7968L87.475 25.9033H87.5669ZM87.3966 25.7073H87.475L87.5534 25.7968V25.8862H87.475L87.3966 25.7968V25.7073Z" fill="white"/>
<path d="M87.5669 26.1484V26.0419L87.475 25.9353H87.3831V26.0419L87.475 26.1484H87.5669ZM87.3966 25.9525H87.475L87.5534 26.0419V26.1313H87.475L87.3966 26.0419V25.9525Z" fill="white"/>
<path d="M87.5669 26.3933V26.2867L87.475 26.1802H87.3831V26.2867L87.475 26.3933H87.5669ZM87.3966 26.1973H87.475L87.5534 26.2867V26.3762H87.475L87.3966 26.2867V26.1973Z" fill="white"/>
<path d="M87.5669 26.6396V26.5331L87.475 26.4265H87.3831V26.5331L87.475 26.6396H87.5669ZM87.3966 26.4437H87.475L87.5534 26.5331V26.6225H87.475L87.3966 26.5331V26.4437Z" fill="white"/>
<path d="M86.2771 25.1587V25.0521L86.1852 24.9456H86.0934V25.0521L86.1852 25.1587H86.2771ZM86.1068 24.9627H86.1852L86.2636 25.0521V25.1415H86.1852L86.1068 25.0521V24.9627Z" fill="white"/>
<path d="M86.2771 25.4038V25.2972L86.1852 25.1907H86.0934V25.2972L86.1852 25.4038H86.2771ZM86.1068 25.2078H86.1852L86.2636 25.2972V25.3867H86.1852L86.1068 25.2972V25.2078Z" fill="white"/>
<path d="M86.2771 25.6499V25.5433L86.1852 25.4368H86.0934V25.5433L86.1852 25.6499H86.2771ZM86.1068 25.4539H86.1852L86.2636 25.5433V25.6328H86.1852L86.1068 25.5433V25.4539Z" fill="white"/>
<path d="M86.2771 25.8948V25.7882L86.1852 25.6816H86.0934V25.7882L86.1852 25.8948H86.2771ZM86.1068 25.6988H86.1852L86.2636 25.7882V25.8776H86.1852L86.1068 25.7882V25.6988Z" fill="white"/>
<path d="M85.89 24.9358V24.8292L85.7981 24.7227H85.7062V24.8292L85.7981 24.9358H85.89ZM85.7197 24.7398H85.7981L85.8765 24.8292V24.9186H85.7981L85.7197 24.8292V24.7398Z" fill="white"/>
<path d="M85.89 25.1807V25.0741L85.7981 24.9675H85.7062V25.0741L85.7981 25.1807H85.89ZM85.7197 24.9847H85.7981L85.8765 25.0741V25.1635H85.7981L85.7197 25.0741V24.9847Z" fill="white"/>
<path d="M85.89 25.4258V25.3192L85.7981 25.2126H85.7062V25.3192L85.7981 25.4258H85.89ZM85.7197 25.2298H85.7981L85.8765 25.3192V25.4086H85.7981L85.7197 25.3192V25.2298Z" fill="white"/>
<path d="M85.89 25.6707V25.5641L85.7981 25.4575H85.7062V25.5641L85.7981 25.6707H85.89ZM85.7197 25.4747H85.7981L85.8765 25.5641V25.6535H85.7981L85.7197 25.5641V25.4747Z" fill="white"/>
<path d="M85.5017 24.7117V24.6051L85.4098 24.4985H85.3179V24.6051L85.4098 24.7117H85.5017ZM85.3314 24.5157H85.4098L85.4882 24.6051V24.6945H85.4098L85.3314 24.6051V24.5157Z" fill="white"/>
<path d="M85.5017 24.9565V24.85L85.4098 24.7434H85.3179V24.85L85.4098 24.9565H85.5017ZM85.3314 24.7606H85.4098L85.4882 24.85V24.9394H85.4098L85.3314 24.85V24.7606Z" fill="white"/>
<path d="M85.5017 25.2017V25.0951L85.4098 24.9885H85.3179V25.0951L85.4098 25.2017H85.5017ZM85.3314 25.0057H85.4098L85.4882 25.0951V25.1845H85.4098L85.3314 25.0951V25.0057Z" fill="white"/>
<path d="M85.5017 25.4475V25.3409L85.4098 25.2344H85.3179V25.3409L85.4098 25.4475H85.5017ZM85.3314 25.2515H85.4098L85.4882 25.3409V25.4304H85.4098L85.3314 25.3409V25.2515Z" fill="white"/>
<path d="M85.1146 24.4875V24.381L85.0227 24.2744H84.9309V24.381L85.0227 24.4875H85.1146ZM84.9443 24.2916H85.0227L85.1011 24.381V24.4704H85.0227L84.9443 24.381V24.2916Z" fill="white"/>
<path d="M85.1146 24.7336V24.6271L85.0227 24.5205H84.9309V24.6271L85.0227 24.7336H85.1146ZM84.9443 24.5377H85.0227L85.1011 24.6271V24.7165H85.0227L84.9443 24.6271V24.5377Z" fill="white"/>
<path d="M85.1146 24.9788V24.8722L85.0227 24.7656H84.9309V24.8722L85.0227 24.9788H85.1146ZM84.9443 24.7828H85.0227L85.1011 24.8722V24.9616H85.0227L84.9443 24.8722V24.7828Z" fill="white"/>
<path d="M85.1146 25.2236V25.1171L85.0227 25.0105H84.9309V25.1171L85.0227 25.2236H85.1146ZM84.9443 25.0276H85.0227L85.1011 25.1171V25.2065H85.0227L84.9443 25.1171V25.0276Z" fill="white"/>
</g>
<g style="mix-blend-mode:overlay">
<path d="M89.43 26.7561L89.3541 26.7488L89.2782 26.8431V26.9448L89.3541 26.9521L89.43 26.8578V26.7561ZM89.4251 26.8578L89.3541 26.946L89.2831 26.9399V26.8455L89.3541 26.7574L89.4251 26.7635V26.8578Z" fill="white"/>
<path d="M89.5869 26.7672V26.6656L89.5109 26.6582L89.435 26.7525V26.8542L89.5109 26.8615L89.5869 26.7672ZM89.4399 26.7537L89.5109 26.6656L89.582 26.6717V26.766L89.5109 26.8542L89.4399 26.8481V26.7537Z" fill="white"/>
<path d="M89.435 27.0697V27.1713L89.5109 27.1787L89.5869 27.0844V26.9827L89.5109 26.9753L89.435 27.0697ZM89.582 27.0831L89.5109 27.1713L89.4399 27.1652V27.0709L89.5109 26.9827L89.582 26.9888V27.0831Z" fill="white"/>
<path d="M89.5917 26.6629V26.7646L89.6677 26.7719L89.7436 26.6776V26.576L89.6677 26.5686L89.5917 26.6629ZM89.7387 26.6764L89.6677 26.7646L89.5966 26.7585V26.6641L89.6677 26.576L89.7387 26.5821V26.6764Z" fill="white"/>
<path d="M89.5085 26.8699L89.4325 26.8625L89.3566 26.9569V27.0585L89.4325 27.0659L89.5085 26.9716V26.8699ZM89.5036 26.9716L89.4325 27.0598L89.3615 27.0536V26.9593L89.4325 26.8711L89.5036 26.8772V26.9716Z" fill="white"/>
<path d="M89.5134 26.8675V26.9692L89.5893 26.9765L89.6652 26.8822V26.7805L89.5893 26.7732L89.5134 26.8675ZM89.6603 26.881L89.5893 26.9692L89.5182 26.9631V26.8687L89.5893 26.7805L89.6603 26.7867V26.881Z" fill="white"/>
<path d="M90.71 26.2255L90.6782 26.0308L90.6084 26.0712C90.5826 26.1802 90.5741 26.3897 90.6084 26.4975L90.6782 26.457C90.6782 26.457 90.71 26.2267 90.71 26.2255ZM90.6157 26.4828C90.5826 26.3811 90.5912 26.1802 90.6157 26.0785L90.6708 26.0467C90.7039 26.1484 90.6953 26.3492 90.6708 26.4509L90.6157 26.4828Z" fill="white"/>
<path d="M90.5545 26.3161L90.5226 26.1213L90.4528 26.1618C90.4271 26.2708 90.4185 26.4802 90.4528 26.588L90.5226 26.5476C90.5226 26.5476 90.5545 26.3173 90.5545 26.3161ZM90.4601 26.5733C90.4271 26.4717 90.4356 26.2708 90.4601 26.1691L90.5153 26.1373C90.5483 26.2389 90.5398 26.4398 90.5153 26.5415L90.4601 26.5733Z" fill="white"/>
<path d="M90.3989 26.4057L90.367 26.2109L90.2972 26.2514C90.2715 26.3604 90.2629 26.5698 90.2972 26.6776L90.367 26.6372C90.367 26.6372 90.3989 26.4069 90.3989 26.4057ZM90.3046 26.6629C90.2715 26.5613 90.2801 26.3604 90.3046 26.2587L90.3597 26.2269C90.3927 26.3285 90.3842 26.5294 90.3597 26.6311L90.3046 26.6629Z" fill="white"/>
<path d="M90.2433 26.4951L90.2114 26.3003L90.1416 26.3407C90.1159 26.4497 90.1073 26.6592 90.1416 26.767L90.2114 26.7266C90.2114 26.7266 90.2433 26.4963 90.2433 26.4951ZM90.149 26.7523C90.1159 26.6506 90.1245 26.4497 90.149 26.3481L90.2041 26.3162C90.2372 26.4179 90.2286 26.6188 90.2041 26.7204L90.149 26.7523Z" fill="white"/>
<path d="M91.3164 25.7026L91.1425 25.8031L91.0555 26.026L91.1425 26.1497L91.3164 26.0493L91.4034 25.8264L91.3164 25.7026ZM91.1572 26.1142L91.0837 26.0101L91.1572 25.8215L91.3029 25.7369L91.3764 25.8411L91.3029 26.0297L91.1572 26.1142Z" fill="white"/>
<path d="M91.7145 25.4724L91.5418 25.5729L91.4548 25.7958L91.5418 25.9195L91.7145 25.8191L91.8015 25.5961L91.7145 25.4724ZM91.5553 25.884L91.4818 25.7799L91.5553 25.5912L91.701 25.5067L91.7745 25.6108L91.701 25.7995L91.5553 25.884Z" fill="white"/>
<path d="M92.1126 25.2419L91.9399 25.3424L91.8529 25.5653L91.9399 25.689L92.1126 25.5886L92.1996 25.3657L92.1126 25.2419ZM91.9533 25.6535L91.8798 25.5494L91.9533 25.3608L92.0991 25.2762L92.1726 25.3804L92.0991 25.569L91.9533 25.6535Z" fill="white"/>
<path d="M92.5119 25.0117L92.338 25.1122L92.251 25.3351L92.338 25.4588L92.5119 25.3584L92.5989 25.1354L92.5119 25.0117ZM92.3527 25.4233L92.2792 25.3192L92.3527 25.1305L92.4984 25.046L92.5719 25.1501L92.4984 25.3388L92.3527 25.4233Z" fill="white"/>
<path d="M89.3797 26.1497L89.3038 26.1423L89.2279 26.2367V26.3383L89.3038 26.3457L89.3797 26.2514V26.1497ZM89.3749 26.2514L89.3038 26.3395L89.2328 26.3334V26.2391L89.3038 26.1509L89.3749 26.157V26.2514Z" fill="white"/>
<path d="M89.5366 26.1608V26.0591L89.4606 26.0518L89.3847 26.1461V26.2477L89.4606 26.2551L89.5366 26.1608ZM89.3896 26.1473L89.4606 26.0591L89.5317 26.0652V26.1595L89.4606 26.2477L89.3896 26.2416V26.1473Z" fill="white"/>
<path d="M89.3847 26.4644V26.5661L89.4606 26.5735L89.5366 26.4791V26.3775L89.4606 26.3701L89.3847 26.4644ZM89.5317 26.4779L89.4606 26.5661L89.3896 26.56V26.4657L89.4606 26.3775L89.5317 26.3836V26.4779Z" fill="white"/>
<path d="M89.5414 26.0567V26.1584L89.6174 26.1657L89.6933 26.0714V25.9698L89.6174 25.9624L89.5414 26.0567ZM89.6884 26.0702L89.6174 26.1584L89.5463 26.1523V26.0579L89.6174 25.9698L89.6884 25.9759V26.0702Z" fill="white"/>
<path d="M89.4581 26.2637L89.3822 26.2563L89.3062 26.3507V26.4523L89.3822 26.4597L89.4581 26.3654V26.2637ZM89.4532 26.3654L89.3822 26.4536L89.3111 26.4474V26.3531L89.3822 26.2649L89.4532 26.271V26.3654Z" fill="white"/>
<path d="M89.4631 26.2613V26.363L89.539 26.3703L89.6149 26.276V26.1743L89.539 26.167L89.4631 26.2613ZM89.61 26.2748L89.539 26.363L89.468 26.3569V26.2625L89.539 26.1743L89.61 26.1805V26.2748Z" fill="white"/>
<path d="M90.6599 25.6205L90.628 25.4258L90.5582 25.4662C90.5325 25.5752 90.5239 25.7847 90.5582 25.8925L90.628 25.8521C90.628 25.8521 90.6599 25.6218 90.6599 25.6205ZM90.5655 25.8778C90.5325 25.7761 90.541 25.5752 90.5655 25.4736L90.6207 25.4417C90.6537 25.5434 90.6452 25.7443 90.6207 25.8459L90.5655 25.8778Z" fill="white"/>
<path d="M90.5043 25.7099L90.4724 25.5151L90.4026 25.5556C90.3769 25.6646 90.3683 25.874 90.4026 25.9818L90.4724 25.9414C90.4724 25.9414 90.5043 25.7111 90.5043 25.7099ZM90.41 25.9671C90.3769 25.8655 90.3855 25.6646 90.41 25.5629L90.4651 25.5311C90.4982 25.6327 90.4896 25.8336 90.4651 25.9353L90.41 25.9671Z" fill="white"/>
<path d="M90.3487 25.7995L90.3169 25.6047L90.247 25.6452C90.2213 25.7542 90.2127 25.9636 90.247 26.0714L90.3169 26.031C90.3169 26.031 90.3487 25.8007 90.3487 25.7995ZM90.2544 26.0567C90.2213 25.9551 90.2299 25.7542 90.2544 25.6525L90.3095 25.6207C90.3426 25.7223 90.334 25.9232 90.3095 26.0249L90.2544 26.0567Z" fill="white"/>
<path d="M90.1931 25.8901L90.1613 25.6953L90.0915 25.7357C90.0657 25.8448 90.0572 26.0542 90.0915 26.162L90.1613 26.1216C90.1613 26.1216 90.1931 25.8913 90.1931 25.8901ZM90.0988 26.1473C90.0657 26.0456 90.0743 25.8448 90.0988 25.7431L90.1539 25.7112C90.187 25.8129 90.1784 26.0138 90.1539 26.1155L90.0988 26.1473Z" fill="white"/>
<path d="M91.2662 25.0964L91.0922 25.1969L91.0053 25.4198L91.0922 25.5435L91.2662 25.4431L91.3531 25.2202L91.2662 25.0964ZM91.1069 25.508L91.0334 25.4039L91.1069 25.2153L91.2527 25.1307L91.3262 25.2348L91.2527 25.4235L91.1069 25.508Z" fill="white"/>
<path d="M91.6643 24.8672L91.4916 24.9676L91.4046 25.1906L91.4916 25.3143L91.6643 25.2138L91.7512 24.9909L91.6643 24.8672ZM91.505 25.2788L91.4315 25.1746L91.505 24.986L91.6508 24.9015L91.7243 25.0056L91.6508 25.1942L91.505 25.2788Z" fill="white"/>
<path d="M92.0636 24.637L91.8909 24.7374L91.8039 24.9603L91.8909 25.0841L92.0636 24.9836L92.1506 24.7607L92.0636 24.637ZM91.9044 25.0485L91.8309 24.9444L91.9044 24.7558L92.0501 24.6713L92.1236 24.7754L92.0501 24.964L91.9044 25.0485Z" fill="white"/>
<path d="M92.4617 24.4067L92.2878 24.5072L92.2008 24.7301L92.2878 24.8538L92.4617 24.7534L92.5487 24.5305L92.4617 24.4067ZM92.3025 24.8183L92.229 24.7142L92.3025 24.5256L92.4482 24.441L92.5217 24.5452L92.4482 24.7338L92.3025 24.8183Z" fill="white"/>
</g>
<path d="M59.9488 34.4412L59.9427 36.2467L55.8735 38.612L55.8784 36.8065L59.9488 34.4412Z" fill="#9B9B9B"/>
<path d="M55.8784 36.8065L55.8735 38.612L51.7762 36.2467L51.7811 34.4412L55.8784 36.8065Z" fill="#BFBFBF"/>
<path d="M59.9489 34.4412L55.8785 36.8065L51.7812 34.4412L55.8516 32.0759L59.9489 34.4412Z" fill="#ECECEC"/>
<g style="mix-blend-mode:overlay">
<path d="M53.7042 36.183L53.605 36.0593L53.5057 36.0679V36.2002L53.605 36.3239L53.7042 36.3153V36.183ZM53.698 36.3068L53.605 36.3153L53.5119 36.2002V36.0765L53.605 36.0679L53.698 36.183V36.3068Z" fill="white"/>
<path d="M53.9088 36.433V36.3007L53.8095 36.177L53.7103 36.1856V36.3179L53.8095 36.4416L53.9088 36.433ZM53.7165 36.1941L53.8095 36.1856L53.9026 36.3007V36.4244L53.8095 36.433L53.7165 36.3179V36.1941Z" fill="white"/>
<path d="M53.7091 36.5982V36.7305L53.8083 36.8542L53.9075 36.8456V36.7133L53.8083 36.5896L53.7091 36.5982ZM53.9014 36.837L53.8083 36.8456L53.7152 36.7305V36.6067L53.8083 36.5982L53.9014 36.7133V36.837Z" fill="white"/>
<path d="M53.9149 36.3045V36.4368L54.0141 36.5605L54.1133 36.5519V36.4196L54.0141 36.2959L53.9149 36.3045ZM54.1072 36.5433L54.0141 36.5519L53.921 36.4368V36.313L54.0141 36.3045L54.1072 36.4196V36.5433Z" fill="white"/>
<path d="M53.8059 36.4487L53.7066 36.325L53.6074 36.3335V36.4658L53.7066 36.5895L53.8059 36.581V36.4487ZM53.7997 36.5724L53.7066 36.581L53.6135 36.4658V36.3421L53.7066 36.3335L53.7997 36.4487V36.5724Z" fill="white"/>
<path d="M53.812 36.4527V36.585L53.9112 36.7087L54.0104 36.7001V36.5678L53.9112 36.4441L53.812 36.4527ZM54.0043 36.6915L53.9112 36.7001L53.8181 36.585V36.4612L53.9112 36.4527L54.0043 36.5678V36.6915Z" fill="white"/>
<path d="M55.7266 37.3086V37.202L55.6347 37.0955H55.5428V37.202L55.6347 37.3086H55.7266ZM55.5563 37.1126H55.6347L55.7131 37.202V37.2914H55.6347L55.5563 37.202V37.1126Z" fill="white"/>
<path d="M55.7265 37.5537V37.4471L55.6347 37.3406H55.5428V37.4471L55.6347 37.5537H55.7265ZM55.5563 37.3577H55.6347L55.713 37.4471V37.5366H55.6347L55.5563 37.4471V37.3577Z" fill="white"/>
<path d="M55.7265 37.7986V37.692L55.6347 37.5854H55.5428V37.692L55.6347 37.7986H55.7265ZM55.5563 37.6026H55.6347L55.713 37.692V37.7814H55.6347L55.5563 37.692V37.6026Z" fill="white"/>
<path d="M55.7265 38.0437V37.9371L55.6347 37.8306H55.5428V37.9371L55.6347 38.0437H55.7265ZM55.5563 37.8477H55.6347L55.713 37.9371V38.0265H55.6347L55.5563 37.9371V37.8477Z" fill="white"/>
<path d="M55.3395 37.0845V36.9779L55.2476 36.8713H55.1558V36.9779L55.2476 37.0845H55.3395ZM55.1692 36.8885H55.2476L55.326 36.9779V37.0673H55.2476L55.1692 36.9779V36.8885Z" fill="white"/>
<path d="M55.3395 37.3308V37.2242L55.2476 37.1177H55.1557V37.2242L55.2476 37.3308H55.3395ZM55.1692 37.1348H55.2476L55.326 37.2242V37.3137H55.2476L55.1692 37.2242V37.1348Z" fill="white"/>
<path d="M55.3395 37.5757V37.4691L55.2476 37.3625H55.1557V37.4691L55.2476 37.5757H55.3395ZM55.1692 37.3797H55.2476L55.326 37.4691V37.5585H55.2476L55.1692 37.4691V37.3797Z" fill="white"/>
<path d="M55.3395 37.8208V37.7142L55.2476 37.6077H55.1557V37.7142L55.2476 37.8208H55.3395ZM55.1692 37.6248H55.2476L55.326 37.7142V37.8037H55.2476L55.1692 37.7142V37.6248Z" fill="white"/>
<path d="M54.9524 36.8616V36.755L54.8605 36.6484H54.7687V36.755L54.8605 36.8616H54.9524ZM54.7821 36.6656H54.8605L54.9389 36.755V36.8444H54.8605L54.7821 36.755V36.6656Z" fill="white"/>
<path d="M54.9524 37.1067V37.0001L54.8605 36.8936H54.7686V37.0001L54.8605 37.1067H54.9524ZM54.7821 36.9107H54.8605L54.9389 37.0001V37.0895H54.8605L54.7821 37.0001V36.9107Z" fill="white"/>
<path d="M54.9524 37.3516V37.245L54.8605 37.1384H54.7686V37.245L54.8605 37.3516H54.9524ZM54.7821 37.1556H54.8605L54.9389 37.245V37.3344H54.8605L54.7821 37.245V37.1556Z" fill="white"/>
<path d="M54.9524 37.5967V37.4901L54.8605 37.3835H54.7686V37.4901L54.8605 37.5967H54.9524ZM54.7821 37.4007H54.8605L54.9389 37.4901V37.5795H54.8605L54.7821 37.4901V37.4007Z" fill="white"/>
<path d="M54.5641 36.6375V36.5309L54.4722 36.4243H54.3803V36.5309L54.4722 36.6375H54.5641ZM54.3938 36.4415H54.4722L54.5506 36.5309V36.6203H54.4722L54.3938 36.5309V36.4415Z" fill="white"/>
<path d="M54.5641 36.8826V36.776L54.4722 36.6694H54.3804V36.776L54.4722 36.8826H54.5641ZM54.3938 36.6866H54.4722L54.5506 36.776V36.8654H54.4722L54.3938 36.776V36.6866Z" fill="white"/>
<path d="M54.5641 37.1287V37.0221L54.4722 36.9155H54.3804V37.0221L54.4722 37.1287H54.5641ZM54.3938 36.9327H54.4722L54.5506 37.0221V37.1115H54.4722L54.3938 37.0221V36.9327Z" fill="white"/>
<path d="M54.5641 37.3735V37.267L54.4722 37.1604H54.3804V37.267L54.4722 37.3735H54.5641ZM54.3938 37.1775H54.4722L54.5506 37.267V37.3564H54.4722L54.3938 37.267V37.1775Z" fill="white"/>
<path d="M53.2742 35.8928V35.7863L53.1824 35.6797H53.0905V35.7863L53.1824 35.8928H53.2742ZM53.104 35.6968H53.1824L53.2607 35.7863V35.8757H53.1824L53.104 35.7863V35.6968Z" fill="white"/>
<path d="M53.2742 36.1377V36.0311L53.1824 35.9246H53.0905V36.0311L53.1824 36.1377H53.2742ZM53.104 35.9417H53.1824L53.2607 36.0311V36.1205H53.1824L53.104 36.0311V35.9417Z" fill="white"/>
<path d="M53.2742 36.384V36.2775L53.1824 36.1709H53.0905V36.2775L53.1824 36.384H53.2742ZM53.104 36.188H53.1824L53.2607 36.2775V36.3669H53.1824L53.104 36.2775V36.188Z" fill="white"/>
<path d="M53.2742 36.6289V36.5223L53.1824 36.4158H53.0905V36.5223L53.1824 36.6289H53.2742ZM53.104 36.4329H53.1824L53.2607 36.5223V36.6118H53.1824L53.104 36.5223V36.4329Z" fill="white"/>
<path d="M52.8872 35.6699V35.5634L52.7953 35.4568H52.7034V35.5634L52.7953 35.6699H52.8872ZM52.7169 35.4739H52.7953L52.8737 35.5634V35.6528H52.7953L52.7169 35.5634V35.4739Z" fill="white"/>
<path d="M52.8872 35.9148V35.8082L52.7953 35.7017H52.7035V35.8082L52.7953 35.9148H52.8872ZM52.7169 35.7188H52.7953L52.8737 35.8082V35.8976H52.7953L52.7169 35.8082V35.7188Z" fill="white"/>
<path d="M52.8872 36.1599V36.0533L52.7953 35.9468H52.7035V36.0533L52.7953 36.1599H52.8872ZM52.7169 35.9639H52.7953L52.8737 36.0533V36.1428H52.7953L52.7169 36.0533V35.9639Z" fill="white"/>
<path d="M52.8872 36.4048V36.2982L52.7953 36.1917H52.7035V36.2982L52.7953 36.4048H52.8872ZM52.7169 36.2088H52.7953L52.8737 36.2982V36.3876H52.7953L52.7169 36.2982V36.2088Z" fill="white"/>
<path d="M52.5001 35.4458V35.3392L52.4082 35.2327H52.3163V35.3392L52.4082 35.4458H52.5001ZM52.3298 35.2498H52.4082L52.4866 35.3392V35.4287H52.4082L52.3298 35.3392V35.2498Z" fill="white"/>
<path d="M52.5001 35.6907V35.5841L52.4082 35.4775H52.3163V35.5841L52.4082 35.6907H52.5001ZM52.3298 35.4947H52.4082L52.4866 35.5841V35.6735H52.4082L52.3298 35.5841V35.4947Z" fill="white"/>
<path d="M52.5001 35.9358V35.8292L52.4082 35.7227H52.3163V35.8292L52.4082 35.9358H52.5001ZM52.3298 35.7398H52.4082L52.4866 35.8292V35.9186H52.4082L52.3298 35.8292V35.7398Z" fill="white"/>
<path d="M52.5001 36.1819V36.0753L52.4082 35.9688H52.3163V36.0753L52.4082 36.1819H52.5001ZM52.3298 35.9859H52.4082L52.4866 36.0753V36.1647H52.4082L52.3298 36.0753V35.9859Z" fill="white"/>
<path d="M52.113 35.2229V35.1163L52.0211 35.0098H51.9293V35.1163L52.0211 35.2229H52.113ZM51.9427 35.0269H52.0211L52.0995 35.1163V35.2057H52.0211L51.9427 35.1163V35.0269Z" fill="white"/>
<path d="M52.113 35.4678V35.3612L52.0212 35.2546H51.9293V35.3612L52.0212 35.4678H52.113ZM51.9428 35.2718H52.0212L52.0996 35.3612V35.4506H52.0212L51.9428 35.3612V35.2718Z" fill="white"/>
<path d="M52.113 35.7129V35.6063L52.0212 35.4998H51.9293V35.6063L52.0212 35.7129H52.113ZM51.9428 35.5169H52.0212L52.0996 35.6063V35.6957H52.0212L51.9428 35.6063V35.5169Z" fill="white"/>
<path d="M52.113 35.9578V35.8512L52.0212 35.7446H51.9293V35.8512L52.0212 35.9578H52.113ZM51.9428 35.7618H52.0212L52.0996 35.8512V35.9406H52.0212L51.9428 35.8512V35.7618Z" fill="white"/>
</g>
<g style="mix-blend-mode:overlay">
<path d="M56.4271 37.49L56.3512 37.4827L56.2752 37.577V37.6786L56.3512 37.686L56.4271 37.5917V37.49ZM56.4222 37.5917L56.3512 37.6799L56.2801 37.6738V37.5794L56.3512 37.4912L56.4222 37.4974V37.5917Z" fill="white"/>
<path d="M56.5851 37.5011V37.3994L56.5092 37.3921L56.4333 37.4864V37.5881L56.5092 37.5954L56.5851 37.5011ZM56.4382 37.4876L56.5092 37.3994L56.5802 37.4056V37.4999L56.5092 37.5881L56.4382 37.582V37.4876Z" fill="white"/>
<path d="M56.432 37.8035V37.9052L56.508 37.9126L56.5839 37.8182V37.7166L56.508 37.7092L56.432 37.8035ZM56.579 37.817L56.508 37.9052L56.4369 37.8991V37.8048L56.508 37.7166L56.579 37.7227V37.817Z" fill="white"/>
<path d="M56.5888 37.3968V37.4985L56.6648 37.5058L56.7407 37.4115V37.3098L56.6648 37.3025L56.5888 37.3968ZM56.7358 37.4103L56.6648 37.4985L56.5937 37.4924V37.398L56.6648 37.3098L56.7358 37.316V37.4103Z" fill="white"/>
<path d="M56.5055 37.604L56.4296 37.5967L56.3536 37.691V37.7927L56.4296 37.8L56.5055 37.7057V37.604ZM56.5006 37.7057L56.4296 37.7939L56.3585 37.7878V37.6934L56.4296 37.6053L56.5006 37.6114V37.7057Z" fill="white"/>
<path d="M56.5104 37.6016V37.7033L56.5864 37.7107L56.6623 37.6163V37.5147L56.5864 37.5073L56.5104 37.6016ZM56.6574 37.6151L56.5864 37.7033L56.5153 37.6972V37.6029L56.5864 37.5147L56.6574 37.5208V37.6151Z" fill="white"/>
<path d="M57.7072 36.9597L57.6753 36.7649L57.6055 36.8053C57.5798 36.9143 57.5712 37.1238 57.6055 37.2316L57.6753 37.1912C57.6753 37.1912 57.7072 36.9609 57.7072 36.9597ZM57.6129 37.2169C57.5798 37.1152 57.5884 36.9143 57.6129 36.8127L57.668 36.7808C57.701 36.8825 57.6925 37.0834 57.668 37.185L57.6129 37.2169Z" fill="white"/>
<path d="M57.5516 37.0502L57.5198 36.8555L57.45 36.8959C57.4242 37.0049 57.4157 37.2144 57.45 37.3222L57.5198 37.2817C57.5198 37.2817 57.5516 37.0515 57.5516 37.0502ZM57.4573 37.3075C57.4242 37.2058 57.4328 37.0049 57.4573 36.9032L57.5124 36.8714C57.5455 36.9731 57.5369 37.1739 57.5124 37.2756L57.4573 37.3075Z" fill="white"/>
<path d="M57.396 37.1396L57.3642 36.9448L57.2944 36.9852C57.2687 37.0943 57.2601 37.3037 57.2944 37.4115L57.3642 37.3711C57.3642 37.3711 57.396 37.1408 57.396 37.1396ZM57.3017 37.3968C57.2687 37.2952 57.2772 37.0943 57.3017 36.9926L57.3569 36.9607C57.3899 37.0624 57.3814 37.2633 57.3569 37.365L57.3017 37.3968Z" fill="white"/>
<path d="M57.2405 37.2292L57.2086 37.0344L57.1388 37.0748C57.1131 37.1839 57.1045 37.3933 57.1388 37.5011L57.2086 37.4607C57.2086 37.4607 57.2405 37.2304 57.2405 37.2292ZM57.1462 37.4864C57.1131 37.3847 57.1217 37.1839 57.1462 37.0822L57.2013 37.0503C57.2343 37.152 57.2258 37.3529 57.2013 37.4546L57.1462 37.4864Z" fill="white"/>
<path d="M58.3135 36.4365L58.1408 36.537L58.0539 36.7599L58.1408 36.8836L58.3135 36.7832L58.4005 36.5602L58.3135 36.4365ZM58.1543 36.8481L58.0808 36.744L58.1543 36.5553L58.3001 36.4708L58.3736 36.5749L58.3001 36.7636L58.1543 36.8481Z" fill="white"/>
<path d="M58.7128 36.2063L58.5401 36.3067L58.4532 36.5297L58.5401 36.6534L58.7128 36.5529L58.7998 36.33L58.7128 36.2063ZM58.5536 36.6179L58.4801 36.5138L58.5536 36.3251L58.6994 36.2406L58.7729 36.3447L58.6994 36.5334L58.5536 36.6179Z" fill="white"/>
<path d="M59.1109 35.9761L58.9382 36.0765L58.8513 36.2995L58.9382 36.4232L59.1109 36.3227L59.1979 36.0998L59.1109 35.9761ZM58.9517 36.3876L58.8782 36.2835L58.9517 36.0949L59.0975 36.0104L59.171 36.1145L59.0975 36.3031L58.9517 36.3876Z" fill="white"/>
<path d="M59.509 35.7471L59.3351 35.8475L59.2481 36.0704L59.3351 36.1942L59.509 36.0937L59.596 35.8708L59.509 35.7471ZM59.3498 36.1586L59.2763 36.0545L59.3498 35.8659L59.4956 35.7814L59.5691 35.8855L59.4956 36.0741L59.3498 36.1586Z" fill="white"/>
<path d="M56.3781 36.8838L56.3022 36.8765L56.2263 36.9708V37.0725L56.3022 37.0798L56.3781 36.9855V36.8838ZM56.3732 36.9855L56.3022 37.0737L56.2312 37.0676V36.9732L56.3022 36.885L56.3732 36.8912V36.9855Z" fill="white"/>
<path d="M56.5349 36.8949V36.7932L56.459 36.7859L56.3831 36.8802V36.9819L56.459 36.9892L56.5349 36.8949ZM56.388 36.8814L56.459 36.7932L56.53 36.7994V36.8937L56.459 36.9819L56.388 36.9757V36.8814Z" fill="white"/>
<path d="M56.3831 37.1983V37.3L56.459 37.3073L56.5349 37.213V37.1114L56.459 37.104L56.3831 37.1983ZM56.53 37.2118L56.459 37.3L56.388 37.2939V37.1995L56.459 37.1114L56.53 37.1175V37.2118Z" fill="white"/>
<path d="M56.5399 36.7906V36.8923L56.6158 36.8996L56.6917 36.8053V36.7036L56.6158 36.6963L56.5399 36.7906ZM56.6868 36.8041L56.6158 36.8923L56.5448 36.8861V36.7918L56.6158 36.7036L56.6868 36.7098V36.8041Z" fill="white"/>
<path d="M56.4566 36.9976L56.3806 36.9902L56.3047 37.0846V37.1862L56.3806 37.1936L56.4566 37.0993V36.9976ZM56.4517 37.0993L56.3806 37.1874L56.3096 37.1813V37.087L56.3806 36.9988L56.4517 37.0049V37.0993Z" fill="white"/>
<path d="M56.4615 36.9952V37.0969L56.5374 37.1042L56.6133 37.0099V36.9082L56.5374 36.9009L56.4615 36.9952ZM56.6084 37.0087L56.5374 37.0969L56.4664 37.0907V36.9964L56.5374 36.9082L56.6084 36.9144V37.0087Z" fill="white"/>
<path d="M57.6582 36.3544L57.6264 36.1597L57.5566 36.2001C57.5308 36.3091 57.5223 36.5186 57.5566 36.6264L57.6264 36.5859C57.6264 36.5859 57.6582 36.3557 57.6582 36.3544ZM57.5639 36.6117C57.5308 36.51 57.5394 36.3091 57.5639 36.2074L57.619 36.1756C57.6521 36.2773 57.6435 36.4781 57.619 36.5798L57.5639 36.6117Z" fill="white"/>
<path d="M57.5027 36.4438L57.4708 36.249L57.401 36.2894C57.3753 36.3985 57.3667 36.6079 57.401 36.7157L57.4708 36.6753C57.4708 36.6753 57.5027 36.445 57.5027 36.4438ZM57.4084 36.701C57.3753 36.5993 57.3839 36.3985 57.4084 36.2968L57.4635 36.2649C57.4966 36.3666 57.488 36.5675 57.4635 36.6692L57.4084 36.701Z" fill="white"/>
<path d="M57.3471 36.5334L57.3153 36.3386L57.2454 36.379C57.2197 36.4881 57.2111 36.6975 57.2454 36.8053L57.3153 36.7649C57.3153 36.7649 57.3471 36.5346 57.3471 36.5334ZM57.2528 36.7906C57.2197 36.6889 57.2283 36.4881 57.2528 36.3864L57.3079 36.3545C57.341 36.4562 57.3324 36.6571 57.3079 36.7588L57.2528 36.7906Z" fill="white"/>
<path d="M57.1916 36.624L57.1597 36.4292L57.0899 36.4696C57.0642 36.5786 57.0556 36.7881 57.0899 36.8959L57.1597 36.8555C57.1597 36.8555 57.1916 36.6252 57.1916 36.624ZM57.0972 36.8812C57.0642 36.7795 57.0727 36.5786 57.0972 36.477L57.1524 36.4451C57.1854 36.5468 57.1769 36.7477 57.1524 36.8493L57.0972 36.8812Z" fill="white"/>
<path d="M58.2645 35.8315L58.0906 35.932L58.0036 36.1549L58.0906 36.2786L58.2645 36.1782L58.3515 35.9553L58.2645 35.8315ZM58.1053 36.2431L58.0318 36.139L58.1053 35.9504L58.251 35.8658L58.3245 35.97L58.251 36.1586L58.1053 36.2431Z" fill="white"/>
<path d="M58.6626 35.6011L58.4899 35.7015L58.4029 35.9245L58.4899 36.0482L58.6626 35.9477L58.7496 35.7248L58.6626 35.6011ZM58.5034 36.0126L58.4299 35.9085L58.5034 35.7199L58.6491 35.6354L58.7226 35.7395L58.6491 35.9281L58.5034 36.0126Z" fill="white"/>
<path d="M59.0607 35.3708L58.888 35.4713L58.801 35.6942L58.888 35.8179L59.0607 35.7175L59.1477 35.4946L59.0607 35.3708ZM58.9015 35.7824L58.828 35.6783L58.9015 35.4897L59.0472 35.4051L59.1207 35.5093L59.0472 35.6979L58.9015 35.7824Z" fill="white"/>
<path d="M59.46 35.1406L59.2861 35.2411L59.1991 35.464L59.2861 35.5877L59.46 35.4873L59.547 35.2643L59.46 35.1406ZM59.3008 35.5522L59.2273 35.4481L59.3008 35.2594L59.4466 35.1749L59.5201 35.279L59.4466 35.4677L59.3008 35.5522Z" fill="white"/>
</g>
<path d="M71.4029 18.6987L71.398 20.503L67.3276 22.8683L67.3338 21.064L71.4029 18.6987Z" fill="#9B9B9B"/>
<path d="M67.3338 21.064L67.3277 22.8683L63.2315 20.503L63.2364 18.6987L67.3338 21.064Z" fill="#BFBFBF"/>
<path d="M71.403 18.6986L67.3339 21.0639L63.2365 18.6986L67.3069 16.3333L71.403 18.6986Z" fill="#ECECEC"/>
<g style="mix-blend-mode:overlay">
<path d="M65.1583 20.4391L65.0591 20.3154L64.9599 20.324V20.4563L65.0591 20.58L65.1583 20.5714V20.4391ZM65.1522 20.5629L65.0591 20.5714L64.966 20.4563V20.3326L65.0591 20.324L65.1522 20.4391V20.5629Z" fill="white"/>
<path d="M65.3629 20.6903V20.558L65.2636 20.4343L65.1644 20.4429V20.5752L65.2636 20.6989L65.3629 20.6903ZM65.1706 20.4515L65.2636 20.4429L65.3567 20.558V20.6818L65.2636 20.6903L65.1706 20.5752V20.4515Z" fill="white"/>
<path d="M65.1644 20.8555V20.9878L65.2636 21.1115L65.3629 21.1029V20.9706L65.2636 20.8469L65.1644 20.8555ZM65.3567 21.0944L65.2636 21.1029L65.1706 20.9878V20.8641L65.2636 20.8555L65.3567 20.9706V21.0944Z" fill="white"/>
<path d="M65.369 20.5603V20.6926L65.4682 20.8163L65.5674 20.8078V20.6755L65.4682 20.5518L65.369 20.5603ZM65.5613 20.7992L65.4682 20.8078L65.3751 20.6926V20.5689L65.4682 20.5603L65.5613 20.6755V20.7992Z" fill="white"/>
<path d="M65.2612 20.7062L65.162 20.5825L65.0627 20.5911V20.7234L65.162 20.8471L65.2612 20.8385V20.7062ZM65.2551 20.83L65.162 20.8385L65.0689 20.7234V20.5997L65.162 20.5911L65.2551 20.7062V20.83Z" fill="white"/>
<path d="M65.2673 20.7097V20.842L65.3666 20.9658L65.4658 20.9572V20.8249L65.3666 20.7012L65.2673 20.7097ZM65.4596 20.9486L65.3666 20.9572L65.2735 20.842V20.7183L65.3666 20.7097L65.4596 20.8249V20.9486Z" fill="white"/>
<path d="M67.1819 21.5662V21.4596L67.09 21.353H66.9981V21.4596L67.09 21.5662H67.1819ZM67.0116 21.3702H67.09L67.1684 21.4596V21.549H67.09L67.0116 21.4596V21.3702Z" fill="white"/>
<path d="M67.1819 21.811V21.7045L67.09 21.5979H66.9981V21.7045L67.09 21.811H67.1819ZM67.0116 21.615H67.09L67.1684 21.7045V21.7939H67.09L67.0116 21.7045V21.615Z" fill="white"/>
<path d="M67.1819 22.0562V21.9496L67.09 21.843H66.9981V21.9496L67.09 22.0562H67.1819ZM67.0116 21.8602H67.09L67.1684 21.9496V22.039H67.09L67.0116 21.9496V21.8602Z" fill="white"/>
<path d="M67.1819 22.301V22.1945L67.09 22.0879H66.9981V22.1945L67.09 22.301H67.1819ZM67.0116 22.105H67.09L67.1684 22.1945V22.2839H67.09L67.0116 22.1945V22.105Z" fill="white"/>
<path d="M66.7948 21.342V21.2355L66.7029 21.1289H66.6111V21.2355L66.7029 21.342H66.7948ZM66.6245 21.1461H66.7029L66.7813 21.2355V21.3249H66.7029L66.6245 21.2355V21.1461Z" fill="white"/>
<path d="M66.7948 21.5869V21.4803L66.703 21.3738H66.6111V21.4803L66.703 21.5869H66.7948ZM66.6246 21.3909H66.703L66.7813 21.4803V21.5698H66.703L66.6246 21.4803V21.3909Z" fill="white"/>
<path d="M66.7948 21.832V21.7255L66.703 21.6189H66.6111V21.7255L66.703 21.832H66.7948ZM66.6246 21.636H66.703L66.7813 21.7255V21.8149H66.703L66.6246 21.7255V21.636Z" fill="white"/>
<path d="M66.7948 22.0769V21.9703L66.703 21.8638H66.6111V21.9703L66.703 22.0769H66.7948ZM66.6246 21.8809H66.703L66.7813 21.9703V22.0598H66.703L66.6246 21.9703V21.8809Z" fill="white"/>
<path d="M66.4065 21.1179V21.0114L66.3146 20.9048H66.2227V21.0114L66.3146 21.1179H66.4065ZM66.2362 20.9219H66.3146L66.393 21.0114V21.1008H66.3146L66.2362 21.0114V20.9219Z" fill="white"/>
<path d="M66.4065 21.364V21.2574L66.3146 21.1509H66.2227V21.2574L66.3146 21.364H66.4065ZM66.2362 21.168H66.3146L66.393 21.2574V21.3469H66.3146L66.2362 21.2574V21.168Z" fill="white"/>
<path d="M66.4065 21.6091V21.5026L66.3146 21.396H66.2227V21.5026L66.3146 21.6091H66.4065ZM66.2362 21.4131H66.3146L66.393 21.5026V21.592H66.3146L66.2362 21.5026V21.4131Z" fill="white"/>
<path d="M66.4065 21.854V21.7474L66.3146 21.6409H66.2227V21.7474L66.3146 21.854H66.4065ZM66.2362 21.658H66.3146L66.393 21.7474V21.8369H66.3146L66.2362 21.7474V21.658Z" fill="white"/>
<path d="M66.0194 20.8948V20.7882L65.9276 20.6816H65.8357V20.7882L65.9276 20.8948H66.0194ZM65.8492 20.6988H65.9276L66.006 20.7882V20.8776H65.9276L65.8492 20.7882V20.6988Z" fill="white"/>
<path d="M66.0194 21.1396V21.0331L65.9275 20.9265H65.8357V21.0331L65.9275 21.1396H66.0194ZM65.8491 20.9437H65.9275L66.0059 21.0331V21.1225H65.9275L65.8491 21.0331V20.9437Z" fill="white"/>
<path d="M66.0194 21.3848V21.2782L65.9275 21.1716H65.8357V21.2782L65.9275 21.3848H66.0194ZM65.8491 21.1888H65.9275L66.0059 21.2782V21.3676H65.9275L65.8491 21.2782V21.1888Z" fill="white"/>
<path d="M66.0194 21.6296V21.5231L65.9275 21.4165H65.8357V21.5231L65.9275 21.6296H66.0194ZM65.8491 21.4337H65.9275L66.0059 21.5231V21.6125H65.9275L65.8491 21.5231V21.4337Z" fill="white"/>
<path d="M64.7296 20.1499V20.0433L64.6377 19.9368H64.5458V20.0433L64.6377 20.1499H64.7296ZM64.5593 19.9539H64.6377L64.7161 20.0433V20.1328H64.6377L64.5593 20.0433V19.9539Z" fill="white"/>
<path d="M64.7296 20.395V20.2885L64.6377 20.1819H64.5458V20.2885L64.6377 20.395H64.7296ZM64.5593 20.199H64.6377L64.7161 20.2885V20.3779H64.6377L64.5593 20.2885V20.199Z" fill="white"/>
<path d="M64.7296 20.6399V20.5333L64.6377 20.4268H64.5458V20.5333L64.6377 20.6399H64.7296ZM64.5593 20.4439H64.6377L64.7161 20.5333V20.6227H64.6377L64.5593 20.5333V20.4439Z" fill="white"/>
<path d="M64.7296 20.885V20.7784L64.6377 20.6719H64.5458V20.7784L64.6377 20.885H64.7296ZM64.5593 20.689H64.6377L64.7161 20.7784V20.8679H64.6377L64.5593 20.7784V20.689Z" fill="white"/>
<path d="M64.3425 19.9258V19.8192L64.2506 19.7126H64.1588V19.8192L64.2506 19.9258H64.3425ZM64.1722 19.7298H64.2506L64.329 19.8192V19.9086H64.2506L64.1722 19.8192V19.7298Z" fill="white"/>
<path d="M64.3425 20.1721V20.0656L64.2506 19.959H64.1588V20.0656L64.2506 20.1721H64.3425ZM64.1722 19.9761H64.2506L64.329 20.0656V20.155H64.2506L64.1722 20.0656V19.9761Z" fill="white"/>
<path d="M64.3425 20.417V20.3104L64.2506 20.2039H64.1588V20.3104L64.2506 20.417H64.3425ZM64.1722 20.221H64.2506L64.329 20.3104V20.3998H64.2506L64.1722 20.3104V20.221Z" fill="white"/>
<path d="M64.3425 20.6621V20.5555L64.2506 20.449H64.1588V20.5555L64.2506 20.6621H64.3425ZM64.1722 20.4661H64.2506L64.329 20.5555V20.645H64.2506L64.1722 20.5555V20.4661Z" fill="white"/>
<path d="M63.9554 19.7029V19.5963L63.8636 19.4897H63.7717V19.5963L63.8636 19.7029H63.9554ZM63.7852 19.5069H63.8636L63.942 19.5963V19.6857H63.8636L63.7852 19.5963V19.5069Z" fill="white"/>
<path d="M63.9554 19.948V19.8414L63.8635 19.7349H63.7717V19.8414L63.8635 19.948H63.9554ZM63.7851 19.752H63.8635L63.9419 19.8414V19.9309H63.8635L63.7851 19.8414V19.752Z" fill="white"/>
<path d="M63.9554 20.1929V20.0863L63.8635 19.9797H63.7717V20.0863L63.8635 20.1929H63.9554ZM63.7851 19.9969H63.8635L63.9419 20.0863V20.1757H63.8635L63.7851 20.0863V19.9969Z" fill="white"/>
<path d="M63.9554 20.438V20.3314L63.8635 20.2249H63.7717V20.3314L63.8635 20.438H63.9554ZM63.7851 20.242H63.8635L63.9419 20.3314V20.4208H63.8635L63.7851 20.3314V20.242Z" fill="white"/>
<path d="M63.5672 19.4788V19.3722L63.4753 19.2656H63.3834V19.3722L63.4753 19.4788H63.5672ZM63.3969 19.2828H63.4753L63.5537 19.3722V19.4616H63.4753L63.3969 19.3722V19.2828Z" fill="white"/>
<path d="M63.5671 19.7239V19.6173L63.4753 19.5107H63.3834V19.6173L63.4753 19.7239H63.5671ZM63.3969 19.5279H63.4753L63.5536 19.6173V19.7067H63.4753L63.3969 19.6173V19.5279Z" fill="white"/>
<path d="M63.5671 19.97V19.8634L63.4753 19.7568H63.3834V19.8634L63.4753 19.97H63.5671ZM63.3969 19.774H63.4753L63.5536 19.8634V19.9528H63.4753L63.3969 19.8634V19.774Z" fill="white"/>
<path d="M63.5671 20.2151V20.1085L63.4753 20.002H63.3834V20.1085L63.4753 20.2151H63.5671ZM63.3969 20.0191H63.4753L63.5536 20.1085V20.1979H63.4753L63.3969 20.1085V20.0191Z" fill="white"/>
</g>
<g style="mix-blend-mode:overlay">
<path d="M67.8825 21.7461L67.8066 21.7388L67.7306 21.8331V21.9348L67.8066 21.9421L67.8825 21.8478V21.7461ZM67.8776 21.8478L67.8066 21.936L67.7355 21.9299V21.8355L67.8066 21.7473L67.8776 21.7535V21.8478Z" fill="white"/>
<path d="M68.0393 21.7572V21.6555L67.9633 21.6482L67.8874 21.7425V21.8442L67.9633 21.8515L68.0393 21.7572ZM67.8923 21.7437L67.9633 21.6555L68.0344 21.6617V21.756L67.9633 21.8442L67.8923 21.8381V21.7437Z" fill="white"/>
<path d="M67.8874 22.0609V22.1625L67.9633 22.1699L68.0393 22.0756V21.9739L67.9633 21.9666L67.8874 22.0609ZM68.0344 22.0743L67.9633 22.1625L67.8923 22.1564V22.0621L67.9633 21.9739L68.0344 21.98V22.0743Z" fill="white"/>
<path d="M68.0442 21.6532V21.7548L68.1201 21.7622L68.196 21.6679V21.5662L68.1201 21.5588L68.0442 21.6532ZM68.1912 21.6666L68.1201 21.7548L68.0491 21.7487V21.6544L68.1201 21.5662L68.1912 21.5723V21.6666Z" fill="white"/>
<path d="M67.9609 21.8611L67.8849 21.8538L67.809 21.9481V22.0497L67.8849 22.0571L67.9609 21.9628V21.8611ZM67.956 21.9628L67.8849 22.051L67.8139 22.0448V21.9505L67.8849 21.8623L67.956 21.8685V21.9628Z" fill="white"/>
<path d="M67.9658 21.8575V21.9592L68.0417 21.9665L68.1177 21.8722V21.7705L68.0417 21.7632L67.9658 21.8575ZM68.1128 21.871L68.0417 21.9592L67.9707 21.953V21.8587L68.0417 21.7705L68.1128 21.7767V21.871Z" fill="white"/>
<path d="M69.1626 21.217L69.1307 21.0222L69.0609 21.0626C69.0352 21.1717 69.0266 21.3811 69.0609 21.4889L69.1307 21.4485C69.1307 21.4485 69.1626 21.2182 69.1626 21.217ZM69.0682 21.4742C69.0352 21.3725 69.0437 21.1717 69.0682 21.07L69.1234 21.0381C69.1564 21.1398 69.1479 21.3407 69.1234 21.4424L69.0682 21.4742Z" fill="white"/>
<path d="M69.007 21.3063L68.9752 21.1116L68.9053 21.152C68.8796 21.261 68.871 21.4705 68.9053 21.5783L68.9752 21.5378C68.9752 21.5378 69.007 21.3076 69.007 21.3063ZM68.9127 21.5636C68.8796 21.4619 68.8882 21.261 68.9127 21.1593L68.9678 21.1275C69.0009 21.2292 68.9923 21.43 68.9678 21.5317L68.9127 21.5636Z" fill="white"/>
<path d="M68.8514 21.3969L68.8196 21.2021L68.7498 21.2426C68.724 21.3516 68.7155 21.561 68.7498 21.6688L68.8196 21.6284C68.8196 21.6284 68.8514 21.3981 68.8514 21.3969ZM68.7571 21.6541C68.724 21.5525 68.7326 21.3516 68.7571 21.2499L68.8122 21.2181C68.8453 21.3197 68.8367 21.5206 68.8122 21.6223L68.7571 21.6541Z" fill="white"/>
<path d="M68.6959 21.4863L68.664 21.2915L68.5942 21.3319C68.5685 21.4409 68.5599 21.6504 68.5942 21.7582L68.664 21.7178C68.664 21.7178 68.6959 21.4875 68.6959 21.4863ZM68.6016 21.7435C68.5685 21.6418 68.5771 21.4409 68.6016 21.3393L68.6567 21.3074C68.6898 21.4091 68.6812 21.61 68.6567 21.7116L68.6016 21.7435Z" fill="white"/>
<path d="M69.7689 20.6938L69.5962 20.7943L69.5092 21.0172L69.5962 21.1409L69.7689 21.0405L69.8558 20.8176L69.7689 20.6938ZM69.6096 21.1054L69.5361 21.0013L69.6096 20.8127L69.7554 20.7281L69.8289 20.8323L69.7554 21.0209L69.6096 21.1054Z" fill="white"/>
<path d="M70.167 20.4636L69.9943 20.5641L69.9073 20.787L69.9943 20.9107L70.167 20.8103L70.2539 20.5873L70.167 20.4636ZM70.0077 20.8752L69.9342 20.7711L70.0077 20.5824L70.1535 20.4979L70.227 20.602L70.1535 20.7907L70.0077 20.8752Z" fill="white"/>
<path d="M70.5663 20.2334L70.3923 20.3338L70.3054 20.5568L70.3923 20.6805L70.5663 20.58L70.6532 20.3571L70.5663 20.2334ZM70.407 20.645L70.3335 20.5409L70.407 20.3522L70.5528 20.2677L70.6263 20.3718L70.5528 20.5605L70.407 20.645Z" fill="white"/>
<path d="M70.9644 20.0029L70.7904 20.1034L70.7035 20.3263L70.7904 20.45L70.9644 20.3496L71.0513 20.1266L70.9644 20.0029ZM70.8051 20.4145L70.7316 20.3104L70.8051 20.1217L70.9509 20.0372L71.0244 20.1413L70.9509 20.33L70.8051 20.4145Z" fill="white"/>
<path d="M67.8323 21.1409L67.7564 21.1335L67.6804 21.2279V21.3295L67.7564 21.3369L67.8323 21.2426V21.1409ZM67.8274 21.2426L67.7564 21.3308L67.6853 21.3246V21.2303L67.7564 21.1421L67.8274 21.1482V21.2426Z" fill="white"/>
<path d="M67.9903 21.152V21.0503L67.9144 21.043L67.8384 21.1373V21.239L67.9144 21.2463L67.9903 21.152ZM67.8433 21.1385L67.9144 21.0503L67.9854 21.0564V21.1508L67.9144 21.239L67.8433 21.2328V21.1385Z" fill="white"/>
<path d="M67.8372 21.4547V21.5563L67.9132 21.5637L67.9891 21.4694V21.3677L67.9132 21.3604L67.8372 21.4547ZM67.9842 21.4681L67.9132 21.5563L67.8421 21.5502V21.4559L67.9132 21.3677L67.9842 21.3738V21.4681Z" fill="white"/>
<path d="M67.994 21.0479V21.1496L68.07 21.1569L68.1459 21.0626V20.961L68.07 20.9536L67.994 21.0479ZM68.141 21.0614L68.07 21.1496L67.9989 21.1435V21.0492L68.07 20.961L68.141 20.9671V21.0614Z" fill="white"/>
<path d="M67.9119 21.2552L67.836 21.2478L67.76 21.3421V21.4438L67.836 21.4511L67.9119 21.3568V21.2552ZM67.907 21.3568L67.836 21.445L67.7649 21.4389V21.3446L67.836 21.2564L67.907 21.2625V21.3568Z" fill="white"/>
<path d="M67.9156 21.2525V21.3542L67.9916 21.3615L68.0675 21.2672V21.1656L67.9916 21.1582L67.9156 21.2525ZM68.0626 21.266L67.9916 21.3542L67.9205 21.3481V21.2537L67.9916 21.1656L68.0626 21.1717V21.266Z" fill="white"/>
<path d="M69.1124 20.6108L69.0805 20.416L69.0107 20.4564C68.985 20.5655 68.9764 20.7749 69.0107 20.8827L69.0805 20.8423C69.0805 20.8423 69.1124 20.612 69.1124 20.6108ZM69.018 20.868C68.985 20.7663 68.9935 20.5655 69.018 20.4638L69.0732 20.4319C69.1062 20.5336 69.0977 20.7345 69.0732 20.8362L69.018 20.868Z" fill="white"/>
<path d="M68.9568 20.7014L68.925 20.5066L68.8551 20.547C68.8294 20.656 68.8208 20.8655 68.8551 20.9733L68.925 20.9329C68.925 20.9329 68.9568 20.7026 68.9568 20.7014ZM68.8625 20.9586C68.8294 20.8569 68.838 20.656 68.8625 20.5544L68.9176 20.5225C68.9507 20.6242 68.9421 20.8251 68.9176 20.9267L68.8625 20.9586Z" fill="white"/>
<path d="M68.8012 20.7907L68.7694 20.5959L68.6996 20.6364C68.6738 20.7454 68.6653 20.9548 68.6996 21.0626L68.7694 21.0222C68.7694 21.0222 68.8012 20.7919 68.8012 20.7907ZM68.7069 21.0479C68.6738 20.9463 68.6824 20.7454 68.7069 20.6437L68.762 20.6119C68.7951 20.7135 68.7865 20.9144 68.762 21.0161L68.7069 21.0479Z" fill="white"/>
<path d="M68.6469 20.8801L68.615 20.6853L68.5452 20.7257C68.5195 20.8347 68.5109 21.0442 68.5452 21.152L68.615 21.1116C68.615 21.1116 68.6469 20.8813 68.6469 20.8801ZM68.5526 21.1373C68.5195 21.0356 68.5281 20.8347 68.5526 20.7331L68.6077 20.7012C68.6407 20.8029 68.6322 21.0038 68.6077 21.1054L68.5526 21.1373Z" fill="white"/>
<path d="M69.7187 20.0876L69.5447 20.1881L69.4578 20.411L69.5447 20.5347L69.7187 20.4343L69.8056 20.2114L69.7187 20.0876ZM69.5594 20.4992L69.4859 20.3951L69.5594 20.2065L69.7052 20.1219L69.7787 20.2261L69.7052 20.4147L69.5594 20.4992Z" fill="white"/>
<path d="M70.118 19.8574L69.9453 19.9579L69.8583 20.1808L69.9453 20.3045L70.118 20.2041L70.205 19.9811L70.118 19.8574ZM69.9588 20.269L69.8853 20.1649L69.9588 19.9762L70.1045 19.8917L70.178 19.9958L70.1045 20.1845L69.9588 20.269Z" fill="white"/>
<path d="M70.5161 19.6284L70.3434 19.7289L70.2564 19.9518L70.3434 20.0755L70.5161 19.9751L70.6031 19.7521L70.5161 19.6284ZM70.3569 20.04L70.2834 19.9359L70.3569 19.7472L70.5026 19.6627L70.5761 19.7668L70.5026 19.9555L70.3569 20.04Z" fill="white"/>
<path d="M70.9142 19.3979L70.7403 19.4984L70.6533 19.7213L70.7403 19.845L70.9142 19.7446L71.0012 19.5217L70.9142 19.3979ZM70.755 19.8095L70.6815 19.7054L70.755 19.5168L70.9007 19.4322L70.9742 19.5364L70.9007 19.725L70.755 19.8095Z" fill="white"/>
</g>
<path d="M76.5243 76.3345L76.512 80.8066L66.4273 86.6679L66.4396 82.1945L76.5243 76.3345Z" fill="#9B9B9B"/>
<path d="M66.4396 82.1945L66.4273 86.6679L56.2765 80.8066L56.2887 76.3345L66.4396 82.1945Z" fill="#BFBFBF"/>
<path d="M76.5244 76.3344L66.4396 82.1943L56.2888 76.3344L66.3735 70.4731L76.5244 76.3344Z" fill="#ECECEC"/>
<g style="mix-blend-mode:overlay">
<path d="M61.0513 80.6485L60.805 80.3423L60.5588 80.3643V80.6926L60.805 80.9988L61.0513 80.9768V80.6485ZM61.0341 80.956L60.805 80.9768L60.576 80.6914V80.3852L60.805 80.3643L61.0341 80.6497V80.956Z" fill="white"/>
<path d="M61.5583 81.2695V80.9412L61.3121 80.635L61.0659 80.6571V80.9853L61.3121 81.2916L61.5583 81.2695ZM61.0831 80.6779L61.3121 80.6571L61.5412 80.9425V81.2487L61.3121 81.2695L61.0831 80.9841V80.6779Z" fill="white"/>
<path d="M61.0659 81.6798V82.008L61.3121 82.3143L61.5583 82.2922V81.9639L61.3121 81.6577L61.0659 81.6798ZM61.5412 82.2714L61.3121 82.2922L61.0831 82.0068V81.7006L61.3121 81.6798L61.5412 81.9652V82.2714Z" fill="white"/>
<path d="M61.573 80.9498V81.2781L61.8192 81.5843L62.0654 81.5622V81.234L61.8192 80.9277L61.573 80.9498ZM62.0483 81.5414L61.8192 81.5622L61.5902 81.2768V80.9706L61.8192 80.9498L62.0483 81.2352V81.5414Z" fill="white"/>
<path d="M61.3048 81.3087L61.0586 81.0024L60.8123 81.0245V81.3528L61.0586 81.659L61.3048 81.6369V81.3087ZM61.2876 81.6161L61.0586 81.6369L60.8295 81.3515V81.0453L61.0586 81.0245L61.2876 81.3099V81.6161Z" fill="white"/>
<path d="M61.3195 81.3175V81.6457L61.5657 81.952L61.8119 81.9299V81.6016L61.5657 81.2954L61.3195 81.3175ZM61.7947 81.9091L61.5657 81.9299L61.3366 81.6445V81.3383L61.5657 81.3175L61.7947 81.6029V81.9091Z" fill="white"/>
<path d="M66.0636 83.4388V83.1742L65.8345 82.9097H65.6055V83.1742L65.8345 83.4388H66.0636ZM65.6422 82.9513H65.8345L66.0268 83.1742V83.3972H65.8345L65.6422 83.1742V82.9513Z" fill="white"/>
<path d="M66.0636 84.0463V83.7817L65.8345 83.5171H65.6055V83.7817L65.8345 84.0463H66.0636ZM65.6422 83.5587H65.8345L66.0268 83.7817V84.0046H65.8345L65.6422 83.7817V83.5587Z" fill="white"/>
<path d="M66.0636 84.6539V84.3893L65.8345 84.1248H65.6055V84.3893L65.8345 84.6539H66.0636ZM65.6422 84.1664H65.8345L66.0268 84.3893V84.6123H65.8345L65.6422 84.3893V84.1664Z" fill="white"/>
<path d="M66.0636 85.2613V84.9968L65.8345 84.7322H65.6055V84.9968L65.8345 85.2613H66.0636ZM65.6422 84.7738H65.8345L66.0268 84.9968V85.2197H65.8345L65.6422 84.9968V84.7738Z" fill="white"/>
<path d="M65.1045 82.8851V82.6205L64.8754 82.356H64.6464V82.6205L64.8754 82.8851H65.1045ZM64.6831 82.3976H64.8754L65.0677 82.6205V82.8435H64.8754L64.6831 82.6205V82.3976Z" fill="white"/>
<path d="M65.1045 83.4916V83.227L64.8754 82.9624H64.6464V83.227L64.8754 83.4916H65.1045ZM64.6831 83.004H64.8754L65.0677 83.227V83.4499H64.8754L64.6831 83.227V83.004Z" fill="white"/>
<path d="M65.1045 84.099V83.8344L64.8754 83.5698H64.6464V83.8344L64.8754 84.099H65.1045ZM64.6831 83.6127H64.8754L65.0677 83.8356V84.0586H64.8754L64.6831 83.8356V83.6127Z" fill="white"/>
<path d="M65.1045 84.7067V84.4421L64.8754 84.1775H64.6464V84.4421L64.8754 84.7067H65.1045ZM64.6831 84.2191H64.8754L65.0677 84.4421V84.665H64.8754L64.6831 84.4421V84.2191Z" fill="white"/>
<path d="M64.1442 82.3304V82.0659L63.9151 81.8013H63.686V82.0659L63.9151 82.3304H64.1442ZM63.7228 81.8429H63.9151L64.1074 82.0659V82.2888H63.9151L63.7228 82.0659V81.8429Z" fill="white"/>
<path d="M64.1442 82.9381V82.6735L63.9151 82.4089H63.686V82.6735L63.9151 82.9381H64.1442ZM63.7228 82.4518H63.9151L64.1074 82.6747V82.8977H63.9151L63.7228 82.6747V82.4518Z" fill="white"/>
<path d="M64.1442 83.5458V83.2812L63.9151 83.0166H63.686V83.2812L63.9151 83.5458H64.1442ZM63.7228 83.0582H63.9151L64.1074 83.2812V83.5041H63.9151L63.7228 83.2812V83.0582Z" fill="white"/>
<path d="M64.1442 84.1532V83.8886L63.9151 83.624H63.686V83.8886L63.9151 84.1532H64.1442ZM63.7228 83.6657H63.9151L64.1074 83.8886V84.1115H63.9151L63.7228 83.8886V83.6657Z" fill="white"/>
<path d="M63.1851 81.7767V81.5121L62.956 81.2476H62.7269V81.5121L62.956 81.7767H63.1851ZM62.7637 81.2892H62.956L63.1483 81.5121V81.7351H62.956L62.7637 81.5121V81.2892Z" fill="white"/>
<path d="M63.1851 82.3841V82.1196L62.956 81.855H62.7269V82.1196L62.956 82.3841H63.1851ZM62.7637 81.8979H62.956L63.1483 82.1208V82.3437H62.956L62.7637 82.1208V81.8979Z" fill="white"/>
<path d="M63.1851 82.9918V82.7272L62.956 82.4626H62.7269V82.7272L62.956 82.9918H63.1851ZM62.7637 82.5055H62.956L63.1483 82.7285V82.9514H62.956L62.7637 82.7285V82.5055Z" fill="white"/>
<path d="M63.1851 83.598V83.3334L62.956 83.0688H62.7269V83.3334L62.956 83.598H63.1851ZM62.7637 83.1105H62.956L63.1483 83.3334V83.5564H62.956L62.7637 83.3334V83.1105Z" fill="white"/>
<path d="M59.9892 79.9308V79.6662L59.7602 79.4016H59.5311V79.6662L59.7602 79.9308H59.9892ZM59.5679 79.4433H59.7602L59.9525 79.6662V79.8891H59.7602L59.5679 79.6662V79.4433Z" fill="white"/>
<path d="M59.9893 80.5382V80.2736L59.7602 80.009H59.5312V80.2736L59.7602 80.5382H59.9893ZM59.5679 80.0519H59.7602L59.9525 80.2748V80.4978H59.7602L59.5679 80.2748V80.0519Z" fill="white"/>
<path d="M59.9893 81.1459V80.8813L59.7602 80.6167H59.5312V80.8813L59.7602 81.1459H59.9893ZM59.5679 80.6596H59.7602L59.9525 80.8825V81.1054H59.7602L59.5679 80.8825V80.6596Z" fill="white"/>
<path d="M59.9893 81.7533V81.4887L59.7602 81.2241H59.5312V81.4887L59.7602 81.7533H59.9893ZM59.5679 81.2658H59.7602L59.9525 81.4887V81.7116H59.7602L59.5679 81.4887V81.2658Z" fill="white"/>
<path d="M59.0289 79.3771V79.1125L58.7999 78.8479H58.5708V79.1125L58.7999 79.3771H59.0289ZM58.6075 78.8896H58.7999L58.9922 79.1125V79.3354H58.7999L58.6075 79.1125V78.8896Z" fill="white"/>
<path d="M59.0289 79.9845V79.7199L58.7998 79.4553H58.5708V79.7199L58.7998 79.9845H59.0289ZM58.6075 79.497H58.7998L58.9921 79.7199V79.9428H58.7998L58.6075 79.7199V79.497Z" fill="white"/>
<path d="M59.0289 80.5922V80.3276L58.7998 80.063H58.5708V80.3276L58.7998 80.5922H59.0289ZM58.6075 80.1059H58.7998L58.9921 80.3288V80.5517H58.7998L58.6075 80.3288V80.1059Z" fill="white"/>
<path d="M59.0289 81.1998V80.9352L58.7998 80.6707H58.5708V80.9352L58.7998 81.1998H59.0289ZM58.6075 80.7123H58.7998L58.9921 80.9352V81.1582H58.7998L58.6075 80.9352V80.7123Z" fill="white"/>
<path d="M58.0698 78.8236V78.559L57.8407 78.2944H57.6117V78.559L57.8407 78.8236H58.0698ZM57.6484 78.3361H57.8407L58.033 78.559V78.782H57.8407L57.6484 78.559V78.3361Z" fill="white"/>
<path d="M58.0698 79.431V79.1664L57.8408 78.9019H57.6117V79.1664L57.8408 79.431H58.0698ZM57.6484 78.9435H57.8408L58.0331 79.1664V79.3894H57.8408L57.6484 79.1664V78.9435Z" fill="white"/>
<path d="M58.0698 80.0387V79.7741L57.8408 79.5095H57.6117V79.7741L57.8408 80.0387H58.0698ZM57.6484 79.5524H57.8408L58.0331 79.7753V79.9983H57.8408L57.6484 79.7753V79.5524Z" fill="white"/>
<path d="M58.0698 80.6449V80.3803L57.8408 80.1157H57.6117V80.3803L57.8408 80.6449H58.0698ZM57.6484 80.1574H57.8408L58.0331 80.3803V80.6032H57.8408L57.6484 80.3803V80.1574Z" fill="white"/>
<path d="M57.1094 78.2687V78.0041L56.8804 77.7395H56.6513V78.0041L56.8804 78.2687H57.1094ZM56.6881 77.7811H56.8804L57.0727 78.0041V78.227H56.8804L56.6881 78.0041V77.7811Z" fill="white"/>
<path d="M57.1095 78.8761V78.6115L56.8804 78.3469H56.6513V78.6115L56.8804 78.8761H57.1095ZM56.6881 78.3886H56.8804L57.0727 78.6115V78.8344H56.8804L56.6881 78.6115V78.3886Z" fill="white"/>
<path d="M57.1095 79.4838V79.2192L56.8804 78.9546H56.6513V79.2192L56.8804 79.4838H57.1095ZM56.6881 78.9962H56.8804L57.0727 79.2192V79.4421H56.8804L56.6881 79.2192V78.9962Z" fill="white"/>
<path d="M57.1095 80.0912V79.8266L56.8804 79.562H56.6513V79.8266L56.8804 80.0912H57.1095ZM56.6881 79.6037H56.8804L57.0727 79.8266V80.0495H56.8804L56.6881 79.8266V79.6037Z" fill="white"/>
</g>
<g style="mix-blend-mode:overlay">
<path d="M67.8005 83.8878L67.6119 83.8706L67.4232 84.1058V84.3569L67.6119 84.374L67.8005 84.1389V83.8865V83.8878ZM67.7883 84.1389L67.6119 84.3581L67.4355 84.3422V84.107L67.6119 83.8878L67.7883 83.9037V84.1389Z" fill="white"/>
<path d="M68.19 83.9145V83.6622L68.0014 83.645L67.8127 83.8802V84.1325L68.0014 84.1497L68.19 83.9145ZM67.825 83.8814L68.0014 83.6622L68.1778 83.6781V83.9133L68.0014 84.1325L67.825 84.1166V83.8814Z" fill="white"/>
<path d="M67.8127 84.6668V84.9191L68.0014 84.9363L68.19 84.7011V84.45L68.0014 84.4329L67.8127 84.668V84.6668ZM68.1778 84.6999L68.0014 84.9191L67.825 84.9032V84.668L68.0014 84.4488L68.1778 84.4647V84.6999Z" fill="white"/>
<path d="M68.2011 83.6561V83.9084L68.3897 83.9256L68.5784 83.6904V83.438L68.3897 83.4209L68.2011 83.6561ZM68.5661 83.6892L68.3897 83.9084L68.2133 83.8925V83.6573L68.3897 83.438L68.5661 83.454V83.6892Z" fill="white"/>
<path d="M67.9953 84.1705L67.8066 84.1533L67.618 84.3885V84.6396L67.8066 84.6568L67.9953 84.4216V84.1692V84.1705ZM67.983 84.4216L67.8066 84.6408L67.6303 84.6249V84.3897L67.8066 84.1705L67.983 84.1864V84.4216Z" fill="white"/>
<path d="M68.0075 84.1632V84.4155L68.1962 84.4326L68.3848 84.1975V83.9451L68.1962 83.928L68.0075 84.1632ZM68.3726 84.1962L68.1962 84.4155L68.0198 84.3996V84.1644L68.1962 83.9451L68.3726 83.961V84.1962Z" fill="white"/>
<path d="M70.9718 82.5751L70.8922 82.0925L70.7183 82.193C70.7183 82.193 70.6399 82.7638 70.6386 82.7662L70.7183 83.2488L70.8922 83.1484C70.8922 83.1484 70.9706 82.5776 70.9718 82.5751ZM70.7379 83.2109L70.6631 82.7528L70.7379 82.2077L70.8726 82.1293L70.9473 82.5874L70.8726 83.1325L70.7379 83.2109Z" fill="white"/>
<path d="M70.5872 82.7971L70.5076 82.3145L70.3337 82.4149C70.3337 82.4149 70.2553 82.9857 70.254 82.9882L70.3337 83.4708L70.5076 83.3703C70.5076 83.3703 70.586 82.7995 70.5872 82.7971ZM70.3532 83.4328L70.2785 82.9747L70.3532 82.4296L70.488 82.3512L70.5627 82.8093L70.488 83.3544L70.3532 83.4328Z" fill="white"/>
<path d="M70.2014 83.02L70.1217 82.5374L69.9478 82.6378C69.9478 82.6378 69.8694 83.2086 69.8682 83.2111L69.9478 83.6937L70.1217 83.5932C70.1217 83.5932 70.2001 83.0224 70.2014 83.02ZM69.9674 83.6557L69.8927 83.1976L69.9674 82.6525L70.1021 82.5741L70.1769 83.0322L70.1021 83.5773L69.9674 83.6557Z" fill="white"/>
<path d="M69.8167 83.2416L69.7371 82.759L69.5632 82.8595C69.5632 82.8595 69.4848 83.4303 69.4836 83.4327L69.5632 83.9154L69.7371 83.8149C69.7371 83.8149 69.8155 83.2441 69.8167 83.2416ZM69.5828 83.8774L69.5081 83.4193L69.5828 82.8742L69.7175 82.7958L69.7922 83.2539L69.7175 83.799L69.5828 83.8774Z" fill="white"/>
<path d="M72.4748 81.2783L72.0448 81.5257L71.8304 82.0794L72.0448 82.3844L72.4748 82.137L72.6891 81.5833L72.4748 81.2783ZM72.0791 82.2987L71.8978 82.0414L72.0791 81.5747L72.4405 81.3653L72.6217 81.6225L72.4405 82.0892L72.0791 82.2987Z" fill="white"/>
<path d="M73.4621 80.7087L73.0321 80.9562L72.8178 81.5098L73.0321 81.8148L73.4621 81.5674L73.6764 81.0137L73.4621 80.7087ZM73.0664 81.7291L72.8852 81.4719L73.0664 81.0052L73.4278 80.7957L73.6091 81.0529L73.4278 81.5196L73.0664 81.7291Z" fill="white"/>
<path d="M74.4493 80.1379L74.0194 80.3854L73.805 80.939L74.0194 81.244L74.4493 80.9966L74.6637 80.4429L74.4493 80.1379ZM74.0537 81.1583L73.8724 80.9011L74.0537 80.4344L74.415 80.2249L74.5963 80.4821L74.415 80.9488L74.0537 81.1583Z" fill="white"/>
<path d="M75.4366 79.5684L75.0067 79.8158L74.7923 80.3695L75.0067 80.6745L75.4366 80.427L75.651 79.8734L75.4366 79.5684ZM75.041 80.5887L74.8597 80.3315L75.041 79.8648L75.4023 79.6553L75.5836 79.9126L75.4023 80.3793L75.041 80.5887Z" fill="white"/>
<path d="M67.6781 82.3868L67.4894 82.3696L67.3008 82.6048V82.8559L67.4894 82.8731L67.6781 82.6379V82.3856V82.3868ZM67.6658 82.6379L67.4894 82.8571L67.313 82.8412V82.606L67.4894 82.3868L67.6658 82.4027V82.6379Z" fill="white"/>
<path d="M68.0663 82.4138V82.1614L67.8777 82.1443L67.6891 82.3795V82.6318L67.8777 82.649L68.0663 82.4138ZM67.7013 82.3807L67.8777 82.1614L68.0541 82.1774V82.4125L67.8777 82.6318L67.7013 82.6159V82.3807Z" fill="white"/>
<path d="M67.6891 83.1646V83.417L67.8777 83.4341L68.0663 83.1989V82.9466L67.8777 82.9294L67.6891 83.1646ZM68.0541 83.1977L67.8777 83.417L67.7013 83.401V83.1659L67.8777 82.9466L68.0541 82.9625V83.1977Z" fill="white"/>
<path d="M68.0786 82.1554V82.4065L68.2672 82.4236L68.4559 82.1884V81.9361L68.2672 81.9189L68.0786 82.1541V82.1554ZM68.4436 82.1884L68.2672 82.4077L68.0908 82.3918V82.1566L68.2672 81.9373L68.4436 81.9532V82.1884Z" fill="white"/>
<path d="M67.8716 82.6697L67.6829 82.6526L67.4943 82.8878V83.1401L67.6829 83.1573L67.8716 82.9221V82.6697ZM67.8593 82.9208L67.6829 83.1401L67.5065 83.1242V82.889L67.6829 82.6697L67.8593 82.6857V82.9208Z" fill="white"/>
<path d="M67.8838 82.6624V82.9148L68.0725 82.9319L68.2611 82.6967V82.4444L68.0725 82.4272L67.8838 82.6624ZM68.2488 82.6955L68.0725 82.9148L67.8961 82.8988V82.6637L68.0725 82.4444L68.2488 82.4603V82.6955Z" fill="white"/>
<path d="M70.8493 81.0737L70.7697 80.5911L70.5958 80.6915C70.5958 80.6915 70.5174 81.2623 70.5161 81.2648L70.5958 81.7474L70.7697 81.6469C70.7697 81.6469 70.8481 81.0761 70.8493 81.0737ZM70.6154 81.7094L70.5406 81.2513L70.6154 80.7062L70.7501 80.6278L70.8248 81.0859L70.7501 81.631L70.6154 81.7094Z" fill="white"/>
<path d="M70.4635 81.2968L70.3839 80.8142L70.2099 80.9147C70.2099 80.9147 70.1315 81.4855 70.1303 81.4879L70.2099 81.9705L70.3839 81.8701C70.3839 81.8701 70.4623 81.2993 70.4635 81.2968ZM70.2295 81.9326L70.1548 81.4744L70.2295 80.9294L70.3643 80.851L70.439 81.3091L70.3643 81.8542L70.2295 81.9326Z" fill="white"/>
<path d="M70.0789 81.5197L69.9992 81.0371L69.8253 81.1376C69.8253 81.1376 69.7469 81.7084 69.7457 81.7108L69.8253 82.1934L69.9992 82.093C69.9992 82.093 70.0776 81.5222 70.0789 81.5197ZM69.8449 82.1555L69.7702 81.6973L69.8449 81.1523L69.9797 81.0739L70.0544 81.532L69.9797 82.0771L69.8449 82.1555Z" fill="white"/>
<path d="M69.693 81.7414L69.6134 81.2588L69.4395 81.3592C69.4395 81.3592 69.3611 81.93 69.3598 81.9325L69.4395 82.4151L69.6134 82.3147C69.6134 82.3147 69.6918 81.7439 69.693 81.7414ZM69.4591 82.3771L69.3843 81.919L69.4591 81.3739L69.5938 81.2955L69.6685 81.7537L69.5938 82.2987L69.4591 82.3771Z" fill="white"/>
<path d="M72.3511 79.7778L71.9211 80.0253L71.7068 80.5789L71.9211 80.8839L72.3511 80.6365L72.5654 80.0828L72.3511 79.7778ZM71.9554 80.7982L71.7741 80.541L71.9554 80.0743L72.3168 79.8648L72.4981 80.122L72.3168 80.5887L71.9554 80.7982Z" fill="white"/>
<path d="M73.3383 79.207L72.9084 79.4545L72.694 80.0081L72.9084 80.3131L73.3383 80.0657L73.5527 79.512L73.3383 79.207ZM72.9427 80.2274L72.7614 79.9702L72.9427 79.5035L73.304 79.294L73.4853 79.5512L73.304 80.0179L72.9427 80.2274Z" fill="white"/>
<path d="M74.3256 78.6375L73.8957 78.8849L73.6813 79.4385L73.8957 79.7435L74.3256 79.4961L74.54 78.9425L74.3256 78.6375ZM73.93 79.6578L73.7487 79.4006L73.93 78.9339L74.2913 78.7244L74.4726 78.9817L74.2913 79.4483L73.93 79.6578Z" fill="white"/>
<path d="M75.3129 78.0667L74.883 78.3141L74.6686 78.8677L74.883 79.1728L75.3129 78.9253L75.5273 78.3717L75.3129 78.0667ZM74.9173 79.087L74.736 78.8298L74.9173 78.3631L75.2786 78.1536L75.4599 78.4109L75.2786 78.8775L74.9173 79.087Z" fill="white"/>
</g>
<defs>
<linearGradient id="paint0_linear_1_629" x1="68" y1="83.6326" x2="126.839" y2="99.9631" gradientUnits="userSpaceOnUse">
<stop stop-color="#F0F0F0"/>
<stop offset="1" stop-color="#ADADAD"/>
</linearGradient>
<linearGradient id="paint1_linear_1_629" x1="68.0185" y1="43.0365" x2="131.065" y2="92.7974" gradientUnits="userSpaceOnUse">
<stop stop-color="#F2F2F2"/>
<stop offset="1" stop-color="#C9C9C9"/>
</linearGradient>
<linearGradient id="paint2_linear_1_629" x1="68.0149" y1="51.1393" x2="68.0149" y2="107.413" gradientUnits="userSpaceOnUse">
<stop stop-color="white"/>
<stop offset="1" stop-color="#D7D7D7"/>
</linearGradient>
<linearGradient id="paint3_linear_1_629" x1="68.0142" y1="63.4536" x2="68.0142" y2="98.2465" gradientUnits="userSpaceOnUse">
<stop stop-color="#FF6700"/>
<stop offset="1" stop-color="#FF7D34"/>
</linearGradient>
</defs>
</svg>
