<svg width="200" height="211" viewBox="0 0 200 211" fill="none" xmlns="http://www.w3.org/2000/svg">
<path d="M199.258 141.605H192.734L108.732 93.1064C102.887 89.7288 95.685 89.746 89.8494 93.1322L6.43086 141.605H0.00215149V150.767V150.776C0.010746 153.939 1.58354 157.101 4.71195 158.906L90.5369 208.454C96.3812 211.831 103.583 211.814 109.419 208.428L194.574 158.941C197.711 157.118 199.266 153.947 199.258 150.776V141.597V141.605Z" fill="url(#paint0_linear_292_4023)"/>
<path d="M194.548 133.475L108.723 83.919C102.879 80.5413 95.6765 80.5585 89.8408 83.9448L4.68618 133.432C-1.57064 137.068 -1.56205 146.109 4.71196 149.727L90.5369 199.275C96.3812 202.652 103.583 202.635 109.419 199.249L194.574 149.762C200.831 146.126 200.822 137.085 194.548 133.466V133.475Z" fill="url(#paint1_linear_292_4023)"/>
<path d="M120.204 109.269L137.67 118.606V106.749C137.657 105.092 137.336 103.624 136.734 102.478L129.178 88.0484C127.547 84.936 124.043 84.3971 120.178 86.6472L120.204 109.269Z" fill="url(#paint2_linear_292_4023)"/>
<path d="M80.7521 109.323L63.3128 118.714V106.857C63.2994 105.2 63.607 103.731 64.2088 102.573L71.7248 88.1157C73.3431 85.0034 76.847 84.451 80.7119 86.6876L80.7387 109.309L80.7521 109.323Z" fill="url(#paint3_linear_292_4023)"/>
<path d="M108.823 135.461L92.2133 135.488V137.846C92.2133 137.846 92.2133 137.886 92.2133 137.913C92.2133 140.608 95.9445 142.777 100.532 142.777C105.119 142.777 108.837 140.581 108.837 137.886C108.837 137.859 108.837 137.846 108.837 137.819V135.461H108.823Z" fill="url(#paint4_linear_292_4023)"/>
<path d="M120.338 114.51L80.6451 114.564V126.447H80.6718C80.6718 126.447 80.6718 126.555 80.6718 126.609C80.6718 133.036 89.5787 138.237 100.532 138.223C111.485 138.21 120.365 132.982 120.351 126.555C120.351 126.501 120.351 126.447 120.351 126.394V114.51H120.338Z" fill="url(#paint5_linear_292_4023)"/>
<g style="mix-blend-mode:multiply" opacity="0.5">
<path d="M120.338 114.928L80.6451 114.982V124.453H80.6718C80.6718 124.494 80.6718 124.534 80.6718 124.588C80.6718 129.708 89.5653 133.858 100.532 133.844C111.485 133.831 120.365 129.654 120.365 124.534C120.365 124.494 120.365 124.453 120.365 124.413V114.941L120.338 114.928Z" fill="url(#paint6_linear_292_4023)"/>
</g>
<path d="M131.452 75.1678C133.444 58.2184 129.512 40.9859 119.883 26.9602C119.482 26.3673 119.068 25.788 118.64 25.2086L100.318 0L82.0627 25.2625C81.6481 25.8419 81.2335 26.4212 80.8323 27.0141C71.2434 41.0802 67.365 58.3261 69.4112 75.2621L74.1321 114.604C74.1321 114.672 74.1321 114.753 74.1321 114.82C74.1321 123.362 85.9544 130.26 100.505 130.247C115.056 130.22 126.851 123.281 126.838 114.753C126.838 114.685 126.838 114.604 126.838 114.537L131.452 75.1813V75.1678Z" fill="url(#paint7_linear_292_4023)"/>
<path d="M118.64 25.2086L100.318 0L82.0627 25.2625C81.9557 25.4107 81.8621 25.5455 81.7684 25.6937C84.938 29.8704 92.0662 32.7672 100.371 32.7537C108.663 32.7537 115.791 29.8165 118.947 25.6398C118.84 25.4916 118.747 25.3568 118.653 25.2086H118.64Z" fill="url(#paint8_linear_292_4023)"/>
<path opacity="0.3" d="M118.871 25.604L100.549 0.395386L82.2942 25.6579C82.1872 25.8061 82.0936 25.9409 82 26.0891C85.1696 30.2658 92.2977 33.1626 100.603 33.1491C108.894 33.1491 116.023 30.2119 119.179 26.0352C119.072 25.887 118.978 25.7522 118.885 25.604H118.871Z" fill="url(#paint9_linear_292_4023)"/>
<path style="mix-blend-mode:color-dodge" opacity="0.7" d="M112.782 53.3275C107.513 32.1205 96.6132 7.72023 99.1943 6.53457C103.728 4.44621 122.732 28.2132 128.015 49.4203C132.655 68.0808 127.52 114.577 122.719 115.79C117.931 117.003 117.423 72.0016 112.782 53.3275Z" fill="url(#paint10_radial_292_4023)"/>
<path d="M96.4527 85.6771C96.4527 89.3418 95.209 91.9422 93.1628 93.2087C93.0959 93.2491 91.1969 94.4617 91.1434 94.5021C89.017 95.7012 90.3811 92.9796 87.1447 91.1068C80.6451 87.3343 75.3625 78.1859 75.3491 70.6812C75.3491 66.9626 71.9388 66.9356 74.0251 65.6961C74.0786 65.6557 76.3922 64.3757 76.4457 64.3487C78.5588 63.19 81.4609 63.3921 84.6572 65.2515C91.1568 69.024 96.4394 78.1724 96.4527 85.6771Z" fill="url(#paint11_linear_292_4023)"/>
<path d="M94.1391 87.0648C94.1391 94.5829 88.8832 97.6144 82.3836 93.8419C75.884 90.0694 70.6014 80.921 70.5881 73.4163C70.5881 65.8982 75.8439 62.8667 82.3435 66.6392C88.8431 70.4117 94.1257 79.5601 94.1391 87.0648Z" fill="url(#paint12_linear_292_4023)"/>
<path d="M91.9191 85.7848C91.9191 91.8883 87.6529 94.3539 82.3703 91.282C77.0877 88.2235 72.7947 80.7862 72.7947 74.6963C72.7947 68.5928 77.0609 66.1272 82.3435 69.1991C87.6261 72.2576 91.9191 79.6949 91.9191 85.7848Z" fill="url(#paint13_linear_292_4023)"/>
<path d="M84.256 90.487C78.9734 87.4286 74.6804 79.9913 74.6804 73.9013C74.6804 71.0854 75.5898 69.0509 77.0743 67.9731C74.4932 68.4581 72.7947 70.8564 72.7947 74.6963C72.7947 80.7997 77.0877 88.2235 82.3703 91.282C85.2189 92.9392 87.7732 92.9796 89.5252 91.7131C88.014 91.9961 86.2085 91.6188 84.256 90.487Z" fill="url(#paint14_linear_292_4023)"/>
<path style="mix-blend-mode:color-dodge" d="M82.6779 66.3293C79.5618 64.5239 76.3387 64.6452 74.8409 65.3592C76.8068 64.8068 79.5752 65.1302 82.2232 66.6662C88.7228 70.4387 94.0054 79.5871 94.0187 87.0918C94.0187 90.999 92.2534 93.7745 89.9799 94.9333C92.3738 94.0305 94.4868 91.2146 94.4868 86.7549C94.4868 79.2368 89.1908 70.0884 82.6912 66.3293H82.6779Z" fill="url(#paint15_radial_292_4023)"/>
<path d="M80.9661 125.585L67.1109 152.397L64.3025 150.726V139.382C64.2891 137.792 64.5833 136.04 65.1584 134.262L72.34 112.044C73.8914 107.261 77.2348 102.815 80.9259 100.659L83.6274 102.303L80.9661 125.585Z" fill="url(#paint16_linear_292_4023)"/>
<path d="M83.7745 127.242L67.1109 152.384V141.039C67.0976 139.449 67.3918 137.698 67.9669 135.919L75.1485 113.702C76.6999 108.919 80.0433 104.472 83.7344 102.317L83.7745 127.229V127.242Z" fill="url(#paint17_linear_292_4023)"/>
<g style="mix-blend-mode:color-dodge">
<path d="M67.3517 141.362C67.3517 139.773 67.6459 138.021 68.2209 136.243L75.4026 114.025C76.8737 109.458 80.0031 105.2 83.507 102.95V102.276C79.8159 104.432 76.4591 108.878 74.9212 113.661L67.7395 135.879C67.1644 137.657 66.8702 139.409 66.8702 140.999V152.343L67.3784 151.602V141.362H67.3517Z" fill="url(#paint18_linear_292_4023)"/>
</g>
<path d="M120.044 125.518L133.966 152.289L136.774 150.619V139.274C136.761 137.684 136.453 135.933 135.878 134.154L128.63 111.95C127.065 107.167 123.708 102.734 120.004 100.592L117.302 102.236L120.031 125.504L120.044 125.518Z" fill="url(#paint19_linear_292_4023)"/>
<path d="M117.235 127.202L133.966 152.303V140.958C133.953 139.368 133.645 137.617 133.07 135.838L125.821 113.634C124.257 108.851 120.9 104.418 117.195 102.276L117.235 127.188V127.202Z" fill="url(#paint20_linear_292_4023)"/>
<g style="mix-blend-mode:color-dodge">
<path d="M133.431 135.838L126.182 113.634C124.618 108.851 121.261 104.418 117.556 102.276V102.424C120.9 104.728 123.869 108.824 125.3 113.217L132.548 135.421C133.123 137.199 133.431 138.951 133.431 140.541V150.982L134.327 152.303V140.958C134.314 139.368 134.006 137.617 133.431 135.838Z" fill="url(#paint21_linear_292_4023)"/>
</g>
<defs>
<linearGradient id="paint0_linear_292_4023" x1="60" y1="100.101" x2="203.5" y2="165.601" gradientUnits="userSpaceOnUse">
<stop stop-color="#EAEAEA"/>
<stop offset="1" stop-color="#B0B0B0"/>
</linearGradient>
<linearGradient id="paint1_linear_292_4023" x1="22.7777" y1="99.3547" x2="188.652" y2="151.352" gradientUnits="userSpaceOnUse">
<stop stop-color="white"/>
<stop offset="1" stop-color="#D7D7D7"/>
</linearGradient>
<linearGradient id="paint2_linear_292_4023" x1="128.924" y1="85.2712" x2="143.755" y2="105.477" gradientUnits="userSpaceOnUse">
<stop stop-color="#DFDFDF"/>
<stop offset="1" stop-color="#969696"/>
</linearGradient>
<linearGradient id="paint3_linear_292_4023" x1="72.0322" y1="85.3272" x2="86.9067" y2="105.499" gradientUnits="userSpaceOnUse">
<stop stop-color="#DFDFDF"/>
<stop offset="1" stop-color="#969696"/>
</linearGradient>
<linearGradient id="paint4_linear_292_4023" x1="100.525" y1="135.461" x2="101.649" y2="142.094" gradientUnits="userSpaceOnUse">
<stop stop-color="#FF6700"/>
<stop offset="1" stop-color="#FF9666"/>
</linearGradient>
<linearGradient id="paint5_linear_292_4023" x1="100.498" y1="114.51" x2="105.33" y2="135.516" gradientUnits="userSpaceOnUse">
<stop stop-color="#DFDFDF"/>
<stop offset="1" stop-color="#969696"/>
</linearGradient>
<linearGradient id="paint6_linear_292_4023" x1="100.505" y1="114.928" x2="103.636" y2="131.997" gradientUnits="userSpaceOnUse">
<stop stop-color="#DFDFDF"/>
<stop offset="1" stop-color="#969696"/>
</linearGradient>
<linearGradient id="paint7_linear_292_4023" x1="62.5" y1="37.8954" x2="144.5" y2="118.895" gradientUnits="userSpaceOnUse">
<stop stop-color="white"/>
<stop offset="1" stop-color="#C9C9C9"/>
</linearGradient>
<linearGradient id="paint8_linear_292_4023" x1="100.358" y1="0" x2="109.654" y2="27.3956" gradientUnits="userSpaceOnUse">
<stop stop-color="#FF6700"/>
<stop offset="1" stop-color="#FF9666"/>
</linearGradient>
<linearGradient id="paint9_linear_292_4023" x1="100.589" y1="0.395386" x2="109.885" y2="27.791" gradientUnits="userSpaceOnUse">
<stop stop-color="#FF6700"/>
<stop offset="1" stop-color="#FF9666"/>
</linearGradient>
<radialGradient id="paint10_radial_292_4023" cx="0" cy="0" r="1" gradientUnits="userSpaceOnUse" gradientTransform="translate(54.3688 66.5243) rotate(165.849) scale(12.1215 53.0481)">
<stop stop-color="#AFB6E5"/>
<stop offset="0.07" stop-color="#8C92B8"/>
<stop offset="0.14" stop-color="#6C708D"/>
<stop offset="0.22" stop-color="#4E5267"/>
<stop offset="0.31" stop-color="#363847"/>
<stop offset="0.4" stop-color="#22232D"/>
<stop offset="0.5" stop-color="#131318"/>
<stop offset="0.62" stop-color="#08080A"/>
<stop offset="0.76" stop-color="#010102"/>
<stop offset="1"/>
</radialGradient>
<linearGradient id="paint11_linear_292_4023" x1="84.901" y1="63.6302" x2="96.7947" y2="86.5202" gradientUnits="userSpaceOnUse">
<stop stop-color="#DFDFDF"/>
<stop offset="1" stop-color="#969696"/>
</linearGradient>
<linearGradient id="paint12_linear_292_4023" x1="64.5" y1="59.8954" x2="86.9628" y2="94.2397" gradientUnits="userSpaceOnUse">
<stop stop-color="#DFDFDF"/>
<stop offset="1" stop-color="#969696"/>
</linearGradient>
<linearGradient id="paint13_linear_292_4023" x1="82.3569" y1="67.8773" x2="91.5598" y2="86.3571" gradientUnits="userSpaceOnUse">
<stop stop-color="#FF6700"/>
<stop offset="1" stop-color="#FF9666"/>
</linearGradient>
<linearGradient id="paint14_linear_292_4023" x1="81.1599" y1="67.9731" x2="81.1599" y2="92.6011" gradientUnits="userSpaceOnUse">
<stop stop-color="#EBEBEB"/>
<stop offset="1" stop-color="#C9C9C9"/>
</linearGradient>
<radialGradient id="paint15_radial_292_4023" cx="0" cy="0" r="1" gradientUnits="userSpaceOnUse" gradientTransform="translate(84.6539 79.9583) rotate(-0.0906709) scale(12.6247 12.7188)">
<stop stop-color="white"/>
<stop offset="1"/>
</radialGradient>
<linearGradient id="paint16_linear_292_4023" x1="73.9647" y1="100.659" x2="73.9647" y2="152.397" gradientUnits="userSpaceOnUse">
<stop stop-color="#EBEBEB"/>
<stop offset="1" stop-color="#C9C9C9"/>
</linearGradient>
<linearGradient id="paint17_linear_292_4023" x1="75.4425" y1="102.317" x2="75.4425" y2="152.384" gradientUnits="userSpaceOnUse">
<stop stop-color="#EBEBEB"/>
<stop offset="1" stop-color="#C9C9C9"/>
</linearGradient>
<linearGradient id="paint18_linear_292_4023" x1="75.1886" y1="102.276" x2="75.1886" y2="152.343" gradientUnits="userSpaceOnUse">
<stop stop-color="#EBEBEB"/>
<stop offset="1" stop-color="#C9C9C9"/>
</linearGradient>
<linearGradient id="paint19_linear_292_4023" x1="127.038" y1="100.592" x2="127.038" y2="152.289" gradientUnits="userSpaceOnUse">
<stop stop-color="#EBEBEB"/>
<stop offset="1" stop-color="#C9C9C9"/>
</linearGradient>
<linearGradient id="paint20_linear_292_4023" x1="125.581" y1="102.276" x2="125.581" y2="152.303" gradientUnits="userSpaceOnUse">
<stop stop-color="#EBEBEB"/>
<stop offset="1" stop-color="#C9C9C9"/>
</linearGradient>
<linearGradient id="paint21_linear_292_4023" x1="125.942" y1="102.276" x2="125.942" y2="152.303" gradientUnits="userSpaceOnUse">
<stop stop-color="#EBEBEB"/>
<stop offset="1" stop-color="#C9C9C9"/>
</linearGradient>
</defs>
</svg>
