<svg width="105" height="131" viewBox="0 0 105 131" fill="none" xmlns="http://www.w3.org/2000/svg">
<path d="M50.4118 116.204V125.528L102.534 94.9602V85.6365L50.4118 116.204Z" fill="url(#paint0_linear_1_2251)"/>
<path d="M50.4384 116.204V125.528L2.00302 97.2911V88.0028L50.4384 116.204Z" fill="url(#paint1_linear_1_2251)"/>
<path opacity="0.2" d="M50.4118 126.308V130.5L102.534 99.9234V95.7401L50.4118 126.308Z" fill="url(#paint2_linear_1_2251)"/>
<path opacity="0.2" d="M50.4384 126.308V130.5L2.00302 102.263V98.1064L50.4384 126.308Z" fill="url(#paint3_linear_1_2251)"/>
<path d="M2.00302 88.0028L50.4384 116.204L102.534 85.6364L54.0456 57.3994L2.00302 88.0028Z" fill="url(#paint4_linear_1_2251)"/>
<path d="M57.4045 57.3196V117.046L104.59 89.5537V29.8359L57.4045 57.3196Z" fill="url(#paint5_linear_1_2251)"/>
<path d="M57.4311 57.3196V117.046L7.11685 87.7102V28.019L57.4311 57.3196Z" fill="url(#paint6_linear_1_2251)"/>
<path d="M7.11685 28.0191L57.4312 57.3196L104.59 29.836L54.2139 0.5L7.11685 28.0191Z" fill="url(#paint7_linear_1_2251)"/>
<path d="M56.6158 57.6475V117.365L6.29263 88.0293V28.3381L56.6158 57.6475Z" fill="url(#paint8_linear_1_2251)"/>
<path d="M50.2966 61.3699V121.088L55.9245 117.853V58.1261L50.2966 61.3699Z" fill="url(#paint9_linear_1_2251)"/>
<path d="M50.3232 61.37V121.088L0 91.7606V32.0695L50.3232 61.37Z" fill="url(#paint10_linear_1_2251)"/>
<g style="mix-blend-mode:color-dodge">
<path d="M50.3232 61.37V121.088L0 91.7606V32.0695L50.3232 61.37Z" fill="url(#paint11_linear_1_2251)"/>
</g>
<path d="M0 32.0694L50.3232 61.3699L55.9245 58.1261L5.54813 28.7902L0 32.0694Z" fill="url(#paint12_linear_1_2251)"/>
<g opacity="0.35">
<path opacity="0.3" d="M36.0274 107.51C32.6684 107.51 29.0524 106.402 25.268 104.222C12.0889 96.6086 1.3649 78.1119 1.3649 62.983C1.3649 57.7894 2.63228 53.4643 5.03411 50.4687C7.3739 47.5528 10.6886 46.0018 14.606 46.0018C17.965 46.0018 21.581 47.1097 25.3654 49.2899C38.5445 56.9031 49.2685 75.3998 49.2685 90.5287C49.2685 95.7223 48.0011 100.047 45.5993 103.043C43.2595 105.959 39.9448 107.51 36.0274 107.51ZM14.6148 46.1968C6.55852 46.1968 1.55988 52.6312 1.55988 62.983C1.55988 78.0498 12.2396 96.4757 25.3743 104.053C29.1233 106.216 32.7127 107.315 36.0363 107.315C44.0926 107.315 49.0912 100.88 49.0912 90.5287C49.0912 75.4619 38.4115 57.0361 25.2768 49.4583C21.5278 47.2958 17.9384 46.1968 14.6148 46.1968Z" fill="url(#paint13_linear_1_2251)"/>
<path opacity="0.8" d="M35.5843 106.331C32.3494 106.331 28.8663 105.268 25.2236 103.167C12.5586 95.8552 2.26004 78.0852 2.26004 63.5502C2.26004 58.5516 3.48311 54.3772 5.80517 51.4967C8.07406 48.6695 11.2735 47.1805 15.058 47.1805C18.2929 47.1805 21.776 48.2441 25.4186 50.3446C38.0836 57.6564 48.3822 75.4264 48.3822 89.9614C48.3822 94.9601 47.1591 99.1345 44.8371 102.015C42.5682 104.833 39.3687 106.331 35.5843 106.331ZM15.058 47.5616C7.40048 47.5616 2.64114 53.6859 2.64114 63.5502C2.64114 77.9612 12.86 95.5805 25.4186 102.839C28.9992 104.904 32.4203 105.959 35.5931 105.959C43.2506 105.959 48.01 99.8346 48.01 89.9703C48.01 75.5593 37.7911 57.94 25.2325 50.6814C21.6519 48.6163 18.2309 47.5616 15.058 47.5616Z" fill="url(#paint14_linear_1_2251)"/>
<path opacity="0.6" d="M25.1616 90.6528C18.6119 86.8684 13.2942 77.7042 13.2942 70.1885C13.2942 69.4441 13.3474 68.7528 13.4449 68.1058L12.6827 67.512C12.5764 68.2121 12.5143 68.9477 12.5143 69.7454C12.5143 77.7397 18.1865 87.5242 25.1527 91.548C26.6062 92.3899 28.0065 92.904 29.3094 93.1344L29.0435 92.1506C27.8204 91.9291 26.5176 91.4416 25.1527 90.6528H25.1616Z" fill="url(#paint15_linear_1_2251)"/>
<path opacity="0.6" d="M32.6507 70.8001L33.147 70.4101C31.011 67.1752 28.2901 64.3834 25.33 62.6285V63.5148C28.104 65.1633 30.6477 67.769 32.6507 70.7912V70.8001Z" fill="url(#paint16_linear_1_2251)"/>
<path d="M24.9843 63.3287V62.4424C18.9044 59.0302 13.8526 61.1573 12.7536 67.1663L13.5158 67.7601C14.5528 62.1233 19.2766 60.1381 24.9932 63.3375L24.9843 63.3287Z" fill="url(#paint17_linear_1_2251)"/>
<path d="M33.404 70.8177L32.9077 71.2077C35.4247 75.1605 37.0289 79.7692 37.0289 83.8904C37.0289 86.3011 36.4794 88.2509 35.5222 89.6601L36.1869 90.4844C37.215 88.9777 37.8 86.9038 37.8 84.3336C37.8 79.9465 36.0894 75.0276 33.404 70.8177Z" fill="url(#paint18_linear_1_2251)"/>
<path opacity="0.3" d="M29.3714 92.1949L29.6373 93.1787C32.3139 93.5598 34.565 92.6735 36.0185 90.7237L35.3538 89.8994C33.9889 91.7252 31.8884 92.5583 29.3803 92.2037L29.3714 92.1949Z" fill="url(#paint19_linear_1_2251)"/>
<path d="M42.1516 84.5906C41.7705 79.7869 40.2107 75.0542 37.3923 70.1442L36.5592 70.6228C39.1648 75.1783 40.6361 79.8756 40.9729 84.0322L42.1516 84.5906Z" fill="url(#paint20_linear_1_2251)"/>
<path opacity="0.5" d="M39.2092 95.9439C41.4338 93.5775 42.4884 89.6956 42.1871 84.9983L41.0083 84.4399C41.3451 89.7133 39.8296 94.0473 36.4528 95.9705C34.4676 97.1049 32.0835 97.2645 29.5576 96.6086L29.8589 98.0798C33.6699 99.0636 36.9846 98.3014 39.2092 95.9439Z" fill="url(#paint21_linear_1_2251)"/>
<path opacity="0.5" d="M14.1894 83.1194C8.04743 72.5283 8.04743 61.0687 14.1894 57.5679C14.8098 57.2133 15.4656 56.9563 16.1569 56.7879L15.4745 55.2812C13.0106 55.8751 11.2646 57.2842 9.98839 59.6949C6.99275 65.3406 8.34877 74.939 13.3563 83.5803C14.7123 85.9112 16.281 88.0914 18.0181 90.0501L18.5144 89.1195C16.9546 87.3558 15.4922 85.344 14.1982 83.1194H14.1894Z" fill="url(#paint22_linear_1_2251)"/>
<path d="M18.8158 89.4651L18.3195 90.3957C21.971 94.4106 25.6402 96.901 29.531 97.9911L29.2296 96.5199C25.782 95.5361 22.0951 93.0634 18.8158 89.4651Z" fill="url(#paint23_linear_1_2251)"/>
<path d="M36.3288 70.2062L37.1619 69.7276C34.3435 64.924 30.6654 60.8471 26.8012 58.2237C22.937 55.6003 19.0196 54.5367 15.7581 55.2192L16.4406 56.7258C22.5205 55.4585 30.8958 60.9623 36.3376 70.2062H36.3288Z" fill="url(#paint24_linear_1_2251)"/>
<path opacity="0.3" d="M18.5056 57.4703C20.1098 57.4703 21.838 57.8869 23.6372 58.7111L23.7258 59.9608C22.1216 59.2606 20.5795 58.8972 19.1349 58.8972C17.9118 58.8972 16.7951 59.1542 15.7936 59.6594L14.9871 58.268C16.0329 57.7362 17.2205 57.4614 18.5056 57.4614V57.4703ZM14.411 58.6047L15.2175 59.9962C13.0372 61.3877 11.699 64.0554 11.4419 67.5296C11.1849 70.9507 11.9914 74.9921 13.6931 78.9361L12.9132 79.1133C9.00465 70.1973 9.64278 61.6358 14.4021 58.6047H14.411ZM24.3905 59.0745C28.6801 61.2725 32.8545 65.5089 35.8856 70.738C37.6582 73.7868 38.961 77.066 39.67 80.2212L38.7217 79.9642C38.0747 77.0217 36.8694 73.964 35.2209 71.1191C32.4025 66.2534 28.494 62.3183 24.488 60.3153L24.3994 59.0745H24.3905ZM14.0565 79.7426C14.4819 80.6466 14.9427 81.5418 15.4391 82.3926C19.6755 89.6956 26.1365 94.6056 31.5162 94.6056C32.8545 94.6056 34.0776 94.2954 35.1411 93.6838C36.1958 93.0812 37.0644 92.2037 37.738 91.0782L38.7483 92.2037C38.0304 93.4623 37.091 94.4283 35.9477 95.0753C34.8309 95.7134 33.5547 96.0325 32.1455 96.0325C29.398 96.0325 26.1985 94.7651 23.132 92.4519C19.9414 90.0501 17.0521 86.6999 14.7655 82.7648C14.2337 81.8431 13.7285 80.8859 13.2765 79.911L14.0565 79.7337V79.7426ZM38.8901 80.8239L39.8473 81.0809C40.6272 85.1755 40.3613 88.8802 39.094 91.5656L38.0925 90.4489C39.2978 87.985 39.5814 84.5817 38.899 80.8239H38.8901ZM18.5056 57.2842C17.1496 57.2842 15.8733 57.5767 14.73 58.2059L15.7315 59.9253C16.7685 59.3669 17.9207 59.1011 19.1437 59.1011C20.6593 59.1011 22.29 59.5088 23.9474 60.271L23.8233 58.587C21.9887 57.7362 20.1895 57.2842 18.5056 57.2842ZM14.473 58.3477C9.35917 61.4054 8.80081 70.3214 12.8068 79.3438L13.959 79.0867C10.3429 70.9152 10.8481 62.85 15.4745 60.076L14.473 58.3566V58.3477ZM24.169 58.7554L24.293 60.4393C28.1484 62.336 32.1012 66.1381 35.0437 71.2166C36.7719 74.1945 37.9329 77.2433 38.5533 80.1237L39.9182 80.4871C39.2446 77.3053 37.9507 73.9374 36.0451 70.6405C32.7925 65.0392 28.432 60.8382 24.169 58.7554ZM14.1628 79.521L13.0107 79.778C13.4804 80.8061 14.0122 81.8342 14.606 82.8623C19.3476 91.0338 26.4644 96.2275 32.1544 96.2275C33.5636 96.2275 34.8753 95.9084 36.054 95.2437C37.2948 94.5347 38.2697 93.4888 38.9965 92.1772L37.7202 90.7591C37.0644 91.9378 36.187 92.8862 35.0614 93.5243C33.9978 94.127 32.8014 94.4194 31.5251 94.4194C26.3669 94.4194 19.9148 89.7133 15.6075 82.2951C15.0757 81.3734 14.5971 80.4516 14.1717 79.521H14.1628ZM38.6508 80.558C39.4042 84.431 39.1383 87.9496 37.862 90.4755L39.1383 91.8935C40.5652 89.1017 40.8488 85.2021 40.0157 80.9213L38.6508 80.558Z" fill="url(#paint25_linear_1_2251)"/>
<path opacity="0.1" d="M17.7168 53.8808L15.7316 48.3327C15.4214 48.3327 15.1023 48.2972 14.801 48.3061L16.7419 53.8631C17.061 53.8454 17.3889 53.8631 17.708 53.8808H17.7168ZM7.80819 62.8412L3.54517 59.6328C3.48313 59.9873 3.43881 60.3507 3.38564 60.7141L7.64866 63.9756C7.69297 63.5856 7.74615 63.2134 7.80819 62.8412ZM19.4451 54.067L17.8764 48.5454C17.5484 48.4922 17.2294 48.4302 16.9103 48.3947L18.4347 53.9074C18.7626 53.9429 19.1083 54.0049 19.4539 54.067H19.4451ZM27.5723 57.7805C27.9357 58.0375 28.2902 58.3034 28.6447 58.587L29.2917 54.067C28.9549 53.8011 28.6181 53.5529 28.2725 53.3047L27.5723 57.7893V57.7805ZM25.7111 56.5485C26.0745 56.7701 26.4379 56.9917 26.7924 57.231L26.9962 52.4007C26.6506 52.1703 26.3138 51.9576 25.9681 51.7449L25.72 56.5397L25.7111 56.5485ZM23.6461 50.4686L23.8499 55.5293C24.2044 55.6977 24.5678 55.8927 24.9312 56.0877L24.683 51.0004C24.3374 50.8143 23.9917 50.637 23.6549 50.4686H23.6461ZM9.68711 57.8957L5.82291 53.4377C5.66338 53.6858 5.52158 53.9783 5.37977 54.2442L9.21738 58.7377C9.36805 58.4541 9.51871 58.1616 9.69597 57.8957H9.68711ZM31.5517 55.9725C31.2238 55.6711 30.887 55.3875 30.5502 55.1039L29.4069 59.2251C29.7614 59.5265 30.1071 59.8189 30.4527 60.138L31.5429 55.9813L31.5517 55.9725ZM8.88059 59.3581L4.83914 55.2812C4.7062 55.5736 4.59984 55.8838 4.48463 56.1852L8.50835 60.3064C8.62357 59.9873 8.73879 59.6594 8.88059 59.3581ZM16.0861 53.9517L13.7108 48.4391C13.4184 48.4745 13.117 48.5011 12.8334 48.5631L15.1643 54.0935C15.4568 54.0315 15.767 53.9872 16.0772 53.9517H16.0861ZM8.26019 61.0154L4.0858 57.3551C3.98831 57.6741 3.90854 58.0198 3.82878 58.3566L7.99431 62.0701C8.07407 61.7156 8.1627 61.3611 8.26019 61.0243V61.0154ZM14.5528 54.2708L11.8142 48.8556C11.5394 48.9442 11.2736 49.024 11.0077 49.1304L13.7108 54.5633C13.9856 54.4481 14.2692 54.3594 14.5528 54.2708ZM11.8408 55.6268L8.46404 50.575C8.24247 50.7434 8.02976 50.9384 7.82591 51.1334L11.1672 56.2029C11.3888 55.999 11.6103 55.8041 11.8408 55.6268ZM10.6975 56.6549L7.05485 51.869C6.85987 52.0817 6.69147 52.3298 6.50535 52.5603L10.1125 57.3639C10.2986 57.1158 10.4848 56.8765 10.6886 56.6549H10.6975ZM21.3772 49.4849L22.0242 54.7583C22.3787 54.8823 22.7332 55.033 23.0966 55.1837L22.3964 49.8926C22.0596 49.7508 21.714 49.6089 21.3772 49.4849ZM38.3229 70.2505L41.3629 68.4779C41.1236 68.0525 40.8843 67.6359 40.6361 67.2194L37.5607 68.9299C37.8266 69.3642 38.0748 69.8073 38.3229 70.2505ZM42.1694 79.7337L46.1931 80.2566C46.0779 79.8223 45.9715 79.3792 45.8386 78.9449L41.7971 78.36C41.939 78.8208 42.0453 79.2817 42.1694 79.7426V79.7337ZM42.6923 82.0912L46.8578 83.1814C46.7781 82.7471 46.6983 82.3217 46.6008 81.8874L42.4264 80.7263C42.5328 81.1784 42.6125 81.6304 42.6923 82.0824V82.0912ZM43.0202 84.3867L47.2832 86.044C47.2389 85.6275 47.1857 85.2109 47.1237 84.7855L42.8607 83.0661C42.9316 83.5093 42.9759 83.9524 43.0202 84.3867ZM37.5518 98.7002L40.6273 103.965C40.8754 103.832 41.1147 103.699 41.354 103.548L38.3141 98.2659C38.0659 98.4254 37.8089 98.5672 37.5518 98.7002ZM12.3725 83.2877L9.33259 85.0603C9.57189 85.4857 9.81119 85.9022 10.0593 86.3188L13.1347 84.6083C12.8689 84.174 12.6207 83.7309 12.3725 83.2877ZM13.1347 54.838L10.0593 49.5735C9.81119 49.7064 9.57189 49.8394 9.33259 49.99L12.3725 55.2723C12.6207 55.1128 12.8777 54.971 13.1347 54.838ZM35.4957 65.8279L37.8266 62.9918C37.543 62.6107 37.2416 62.2385 36.9492 61.8574L34.5739 64.6314C34.8841 65.0214 35.1943 65.4202 35.4868 65.8279H35.4957ZM36.9669 67.9905L39.6701 65.6773C39.4042 65.2696 39.1383 64.8707 38.8635 64.4719L36.1249 66.7231C36.4085 67.1396 36.6922 67.5562 36.9669 67.9905ZM32.2342 61.8751L33.7586 58.1173C33.4395 57.7893 33.1116 57.4703 32.7925 57.1512L31.2238 60.8559C31.5606 61.1927 31.9062 61.5206 32.243 61.8662L32.2342 61.8751ZM33.9181 63.7806L35.859 60.4659C35.5577 60.1025 35.2387 59.7658 34.9285 59.4201L32.9432 62.6816C33.2711 63.045 33.599 63.4084 33.9092 63.7895L33.9181 63.7806ZM40.5741 74.9566L44.1812 74.3185C44.004 73.8754 43.8267 73.4411 43.6318 72.998L39.9891 73.574C40.193 74.0349 40.3791 74.4958 40.5652 74.9566H40.5741ZM39.5283 72.5814L42.8695 71.3672C42.6568 70.9329 42.453 70.4986 42.2314 70.0732L38.8547 71.2254C39.094 71.6774 39.3156 72.1294 39.5283 72.5814ZM41.4604 77.3496L45.298 77.2876C45.1473 76.8444 45.0144 76.4013 44.8548 75.967H40.9906C41.1679 76.4279 41.3097 76.8887 41.4692 77.3496H41.4604ZM19.1172 48.7936L20.2073 54.2176C20.5529 54.2974 20.8986 54.4037 21.2531 54.5101L20.1098 49.0772C19.773 48.9797 19.4362 48.8733 19.1083 48.7936H19.1172ZM25.7377 97.4328L25.9859 102.52C26.3315 102.706 26.6772 102.883 27.0139 103.052L26.8101 97.9911C26.4556 97.8228 26.0922 97.6278 25.7288 97.4328H25.7377ZM38.8458 97.9025L42.2226 102.954C42.4441 102.786 42.6568 102.591 42.8607 102.396L39.5194 97.3264C39.2978 97.5303 39.0763 97.7253 38.8458 97.9025ZM32.9432 99.6396L34.9285 105.188C35.2387 105.188 35.5577 105.223 35.859 105.214L33.9181 99.6574C33.599 99.6751 33.2711 99.6574 32.952 99.6485L32.9432 99.6396ZM36.1249 99.2585L38.8635 104.674C39.1383 104.585 39.4042 104.505 39.6701 104.399L36.9669 98.9661C36.6922 99.0813 36.4085 99.1699 36.1249 99.2585ZM27.59 98.3457L28.2902 103.637C28.6358 103.779 28.9726 103.92 29.3094 104.044L28.6624 98.7711C28.3079 98.647 27.9534 98.4963 27.59 98.3457ZM29.4246 99.0281L30.5679 104.461C30.9047 104.559 31.2415 104.665 31.5694 104.745L30.4793 99.3206C30.1337 99.2408 29.788 99.1344 29.4335 99.0281H29.4246ZM31.2149 99.4624L32.7836 104.984C33.1116 105.037 33.4306 105.099 33.7497 105.135L32.2253 99.6219C31.8974 99.5865 31.5517 99.5244 31.2061 99.4624H31.2149ZM34.5828 99.5776L36.958 105.09C37.2505 105.055 37.5518 105.028 37.8355 104.966L35.4957 99.4358C35.2032 99.4978 34.893 99.5421 34.5828 99.5776ZM43.1 88.7118L47.4073 91.4326C47.4339 91.0604 47.4516 90.6704 47.4605 90.2805L43.1532 87.5064C43.1532 87.9141 43.1266 88.3218 43.1 88.7118ZM42.8518 90.6882L47.1148 93.8965C47.1769 93.542 47.2212 93.1786 47.2744 92.8153L43.0114 89.5537C42.967 89.9437 42.9139 90.3159 42.8518 90.6882ZM39.9891 96.8744L43.6318 101.66C43.8267 101.448 43.9951 101.208 44.1812 100.969L40.5741 96.1654C40.388 96.4136 40.2018 96.6529 39.998 96.8744H39.9891ZM43.1532 86.5935L47.4605 88.7915C47.4516 88.3927 47.4339 87.985 47.4073 87.5773L43.1 85.3173C43.1266 85.7427 43.1443 86.1681 43.1532 86.5847V86.5935ZM42.4175 92.5051L46.5919 96.1743C46.6894 95.8552 46.7692 95.5096 46.849 95.1728L42.6834 91.4592C42.6037 91.8137 42.515 92.1683 42.4175 92.5051ZM40.9818 95.6159L44.846 100.074C45.0055 99.8258 45.1473 99.5333 45.2891 99.2674L41.4515 94.7739C41.3008 95.0576 41.1502 95.35 40.9729 95.6159H40.9818ZM41.7971 94.1535L45.8386 98.2304C45.9715 97.938 46.0779 97.6278 46.1931 97.3264L42.1694 93.2052C42.0542 93.5243 41.939 93.8522 41.7971 94.1535ZM15.1909 87.6925L12.86 90.5286C13.1436 90.9186 13.4449 91.282 13.7374 91.6631L16.1127 88.889C15.8025 88.4991 15.4923 88.1002 15.1998 87.7014L15.1909 87.6925ZM9.2351 76.1709L5.3975 76.2329C5.54817 76.676 5.68111 77.1192 5.84064 77.5535H9.70483C9.52758 77.0926 9.38577 76.6317 9.22624 76.1709H9.2351ZM10.1214 78.5638L6.51421 79.2019C6.69147 79.6451 6.86873 80.0794 7.06371 80.5225L10.7063 79.9464C10.5025 79.4856 10.3164 79.0247 10.1303 78.5638H10.1214ZM8.52608 73.7779L4.50235 73.255C4.61757 73.6893 4.72392 74.1324 4.85687 74.5667L8.89832 75.1516C8.75651 74.6908 8.65016 74.2299 8.52608 73.769V73.7779ZM7.67525 69.1249L3.41222 67.4676C3.45654 67.8841 3.50972 68.3095 3.57176 68.7261L7.83478 70.4455C7.76387 70.0023 7.71956 69.5592 7.67525 69.1249ZM8.00317 71.4204L3.83764 70.3302C3.91741 70.7645 3.99717 71.1899 4.09466 71.6242L8.26906 72.7852C8.1627 72.3332 8.08294 71.8812 8.00317 71.4292V71.4204ZM23.6727 101.102C24.0183 101.332 24.3551 101.545 24.7007 101.758L24.9489 96.9542C24.5855 96.7326 24.2222 96.5111 23.8676 96.2718L23.6638 101.102H23.6727ZM11.1672 80.9391L7.82591 82.1533C8.03862 82.5875 8.24247 83.0218 8.46404 83.4472L11.8408 82.2951C11.6015 81.8431 11.3799 81.3911 11.1672 80.9391ZM7.53344 66.9181L3.2261 64.7201C3.23497 65.1189 3.25269 65.5266 3.27928 65.9343L7.58662 68.1943C7.56003 67.7689 7.5423 67.3435 7.53344 66.9269V66.9181ZM13.7197 85.53L11.0165 87.8432C11.2824 88.2509 11.5483 88.6497 11.8231 89.0486L14.5617 86.7974C14.2781 86.3808 13.9944 85.9643 13.7197 85.53ZM19.1172 97.5391C19.4451 97.8405 19.7819 98.1241 20.1187 98.4077L21.262 94.2865C20.9075 93.9851 20.5618 93.6927 20.2162 93.3736L19.126 97.5391H19.1172ZM21.3772 99.4446C21.714 99.7105 22.0508 99.9587 22.3964 100.207L23.0966 95.7223C22.7332 95.4652 22.3787 95.1994 22.0242 94.9157L21.3772 99.4358V99.4446ZM18.4524 91.6454L16.928 95.4032C17.2471 95.7311 17.575 96.0502 17.8941 96.3692L19.4628 92.6646C19.126 92.3278 18.7804 91.9999 18.4436 91.6542L18.4524 91.6454ZM16.7685 89.7399L14.8275 93.0545C15.1289 93.4179 15.4479 93.7547 15.7581 94.1092L17.7434 90.8477C17.4155 90.4843 17.0876 90.121 16.7774 89.7399H16.7685ZM7.58662 64.8087L3.27928 62.0878C3.25269 62.4689 3.23497 62.85 3.2261 63.24L7.53344 66.014C7.53344 65.6064 7.56003 65.1987 7.58662 64.8087Z" fill="url(#paint26_linear_1_2251)"/>
<path opacity="0.5" d="M27.5723 57.7805C27.9357 58.0375 28.2902 58.3034 28.6447 58.587L29.2917 54.067C28.9549 53.8011 28.6181 53.5529 28.2724 53.3048L27.5723 57.7894V57.7805ZM16.0772 53.9518L13.702 48.4391C13.4095 48.4745 13.1081 48.5011 12.8245 48.5632L15.1555 54.0936C15.4479 54.0315 15.7581 53.9872 16.0683 53.9518H16.0772ZM8.25131 61.0154L4.07692 57.3551C3.97943 57.6742 3.89966 58.0198 3.8199 58.3566L7.98543 62.0701C8.06519 61.7156 8.15382 61.3611 8.25131 61.0243V61.0154ZM10.6797 56.6549L7.0371 51.869C6.84212 52.0817 6.67373 52.3299 6.48761 52.5603L10.0948 57.364C10.2809 57.1158 10.467 56.8765 10.6709 56.6549H10.6797ZM21.3594 49.4849L22.0064 54.7583C22.3609 54.8824 22.7155 55.033 23.0788 55.1837L22.3787 49.8926C22.0419 49.7508 21.6962 49.609 21.3594 49.4849ZM42.6745 82.0913L46.8401 83.1814C46.7603 82.7471 46.6805 82.3217 46.5831 81.8874L42.4087 80.7264C42.515 81.1784 42.5948 81.6304 42.6745 82.0824V82.0913ZM36.958 67.9905L39.6612 65.6773C39.3953 65.2696 39.1294 64.8708 38.8547 64.4719L36.1161 66.7231C36.3997 67.1397 36.6833 67.5562 36.958 67.9905ZM32.2253 61.8751L33.7497 58.1173C33.4306 57.7894 33.1027 57.4703 32.7836 57.1512L31.2149 60.8559C31.5517 61.1927 31.8973 61.5206 32.2341 61.8663L32.2253 61.8751ZM39.5105 72.5814L42.8518 71.3672C42.6391 70.933 42.4353 70.4987 42.2137 70.0733L38.8369 71.2254C39.0762 71.6774 39.2978 72.1294 39.5105 72.5814ZM29.4246 99.0281L30.5679 104.461C30.9047 104.559 31.2415 104.665 31.5694 104.745L30.4793 99.3206C30.1336 99.2408 29.788 99.1345 29.4335 99.0281H29.4246ZM34.5828 99.5776L36.958 105.09C37.2505 105.055 37.5518 105.028 37.8354 104.966L35.4957 99.4358C35.2032 99.4979 34.893 99.5422 34.5828 99.5776ZM43.1 88.7118L47.4073 91.4327C47.4339 91.0604 47.4516 90.6705 47.4605 90.2805L43.1531 87.5064C43.1531 87.9141 43.1266 88.3218 43.1 88.7118ZM39.9891 96.8833L43.6317 101.669C43.8267 101.457 43.9951 101.217 44.1812 100.978L40.5741 96.1743C40.3879 96.4225 40.2018 96.6618 39.998 96.8833H39.9891ZM41.7883 94.1802L45.8297 98.2571C45.9627 97.9646 46.069 97.6544 46.1842 97.353L42.1605 93.2318C42.0453 93.5509 41.9301 93.8788 41.7883 94.1802ZM8.5172 73.8045L4.49347 73.2816C4.60869 73.7159 4.71504 74.159 4.84798 74.5933L8.88944 75.1782C8.74763 74.7174 8.64128 74.2565 8.5172 73.7956V73.8045ZM23.6638 101.129C24.0094 101.359 24.3462 101.572 24.6919 101.784L24.94 96.9808C24.5766 96.7592 24.2133 96.5377 23.8588 96.2984L23.6549 101.129H23.6638ZM11.1583 80.9657L7.81703 82.1799C8.02974 82.6142 8.23359 83.0484 8.45516 83.4739L11.8319 82.3217C11.5926 81.8697 11.371 81.4177 11.1583 80.9657ZM18.4436 91.672L16.9192 95.4298C17.2382 95.7577 17.5661 96.0768 17.8852 96.3959L19.4539 92.6912C19.1171 92.3544 18.7715 92.0265 18.4347 91.6808L18.4436 91.672ZM7.57774 64.8353L3.2704 62.1144C3.24381 62.4955 3.22609 62.8766 3.21722 63.2666L7.52456 66.0407C7.52456 65.633 7.55115 65.2253 7.57774 64.8353Z" fill="url(#paint27_linear_1_2251)"/>
</g>
<path d="M34.5473 82.1621C34.5473 87.9939 30.4261 90.3425 25.3477 87.4089C20.2693 84.4753 16.1481 77.3762 16.1481 71.5444C16.1481 65.7127 20.2693 63.3641 25.3477 66.2976C30.4261 69.2312 34.5473 76.3304 34.5473 82.1621Z" fill="url(#paint28_linear_1_2251)"/>
<path d="M33.5902 82.1886C33.5902 84.9184 32.6507 86.8594 31.1174 87.79C31.0731 87.8165 29.3537 88.8712 29.3094 88.8978C27.7141 89.793 28.7333 87.7634 26.3138 86.3719C21.4392 83.5624 17.4864 76.7469 17.4864 71.1544C17.4864 68.3892 14.9339 68.3626 16.4937 67.4409C16.5381 67.4143 18.5588 66.3065 18.6031 66.2887C20.1895 65.429 22.3698 65.5886 24.7628 66.9712C29.6373 69.7807 33.5902 76.5962 33.5902 82.1886Z" fill="url(#paint29_linear_1_2251)"/>
<path d="M31.5605 83.3674C31.5605 88.9598 27.6077 91.211 22.7331 88.4015C17.8586 85.5919 13.9058 78.7764 13.9058 73.184C13.9058 67.5915 17.8586 65.3404 22.7331 68.1499C27.6077 70.9594 31.5605 77.7749 31.5605 83.3674Z" fill="url(#paint30_linear_1_2251)"/>
<g style="mix-blend-mode:color-dodge">
<path d="M23.1586 67.9373C20.8188 66.5901 18.7006 66.404 17.123 67.1928C18.5942 66.7851 20.42 67.0865 22.3964 68.2298C27.2709 71.0393 31.2237 77.8548 31.2237 83.4473C31.2237 86.3631 30.1513 88.3661 28.4408 89.217C30.5945 88.6143 31.986 86.4695 31.986 83.1459C31.986 77.5535 28.0331 70.738 23.1586 67.9284V67.9373Z" fill="url(#paint31_linear_1_2251)"/>
</g>
<g style="mix-blend-mode:multiply">
<path d="M26.8721 72.8651L26.0656 73.8046C26.1542 73.9109 26.234 74.0261 26.3226 74.1414L27.1203 73.1753C27.0583 73.0867 26.9873 72.9981 26.9164 72.9183L26.8721 72.8651Z" fill="url(#paint32_linear_1_2251)"/>
<path d="M26.3669 72.227C26.3049 72.1472 26.234 72.0763 26.1719 72.0054L26.1187 71.9434L25.4452 73.0512L25.4806 73.0867C25.5604 73.1753 25.6401 73.2639 25.7199 73.3525L26.3846 72.227H26.3669Z" fill="url(#paint33_linear_1_2251)"/>
<path d="M26.2251 89.1904C26.2251 89.1904 26.3137 89.1904 26.358 89.1904L25.6667 87.2229C25.5958 87.2229 25.5249 87.2229 25.454 87.2229L26.1542 89.1904C26.1542 89.1904 26.1985 89.1904 26.2251 89.1904Z" fill="url(#paint34_linear_1_2251)"/>
<path d="M25.5693 71.3406C25.4895 71.2609 25.4186 71.1811 25.3389 71.1102L25.3123 71.0836L24.7716 72.351L24.816 72.3953C24.8957 72.4662 24.9666 72.546 25.0464 72.6169L25.5693 71.3318V71.3406Z" fill="url(#paint35_linear_1_2251)"/>
<path d="M27.8027 88.9245L26.8367 86.9835C26.7746 87.0101 26.7126 87.0278 26.6594 87.0456L27.6343 88.9777C27.6875 88.9599 27.7496 88.9422 27.8027 88.9245Z" fill="url(#paint36_linear_1_2251)"/>
<path d="M26.9607 89.1373C27.0051 89.1373 27.0582 89.1284 27.1026 89.1195L26.2694 87.152C26.2074 87.1608 26.1365 87.1697 26.0745 87.1786L26.9164 89.1373H26.9607Z" fill="url(#paint37_linear_1_2251)"/>
<path d="M27.5811 73.8577L26.6505 74.6199C26.7303 74.7351 26.8101 74.8592 26.8898 74.9744L27.8027 74.1856C27.7318 74.0704 27.652 73.964 27.5811 73.8577Z" fill="url(#paint38_linear_1_2251)"/>
<path d="M25.4009 89.1284C25.454 89.1372 25.5072 89.1461 25.5604 89.1549L25.0198 87.2051C24.94 87.1963 24.8691 87.1785 24.7893 87.1697L25.3388 89.1195H25.392L25.4009 89.1284Z" fill="url(#paint39_linear_1_2251)"/>
<path d="M29.3005 82.6497C29.3005 82.7471 29.3005 82.8446 29.2828 82.9421L30.7806 83.8904C30.7806 83.8018 30.7806 83.7132 30.7895 83.6157L29.2916 82.6497H29.3005Z" fill="url(#paint40_linear_1_2251)"/>
<path d="M22.7598 88.1977C22.8395 88.2421 22.9193 88.2864 22.9991 88.3218L22.9282 86.5581C22.8395 86.5138 22.7598 86.4695 22.6711 86.4252L22.7598 88.1889V88.1977Z" fill="url(#paint41_linear_1_2251)"/>
<path d="M22.7598 69.0363L22.6711 70.6936C22.7598 70.7468 22.8484 70.8088 22.937 70.862L23.0079 69.1958C22.9282 69.1426 22.8395 69.0894 22.7598 69.0363Z" fill="url(#paint42_linear_1_2251)"/>
<path d="M24.7273 88.9865L24.3462 87.081C24.2664 87.0633 24.1867 87.0367 24.1069 87.0101L24.5057 88.9156C24.5766 88.9422 24.6564 88.96 24.7273 88.9777V88.9865Z" fill="url(#paint43_linear_1_2251)"/>
<path d="M24.4791 70.3125L24.0892 71.7217C24.1778 71.8015 24.2753 71.8812 24.3639 71.961L24.7362 70.5341C24.6475 70.4543 24.5678 70.3834 24.4791 70.3125Z" fill="url(#paint44_linear_1_2251)"/>
<path d="M27.2 75.4708C27.2709 75.5949 27.3418 75.719 27.4127 75.8431L28.4408 75.2404C28.3699 75.1252 28.3079 75.0011 28.237 74.8859L27.1912 75.4708H27.2Z" fill="url(#paint45_linear_1_2251)"/>
<path d="M23.8765 88.7118L23.646 86.8684C23.5663 86.8418 23.4865 86.8063 23.3979 86.7709L23.646 88.6143C23.7258 88.6498 23.8055 88.6764 23.8765 88.7118Z" fill="url(#paint46_linear_1_2251)"/>
<path d="M23.6283 69.6212L23.389 71.1634C23.4776 71.2343 23.5751 71.2963 23.6638 71.3672L23.8853 69.8162C23.7967 69.7542 23.7169 69.6833 23.6283 69.6212Z" fill="url(#paint47_linear_1_2251)"/>
<path d="M29.0524 80.0439C29.079 80.1591 29.0967 80.2832 29.1233 80.3984L30.5502 80.7707C30.5325 80.6554 30.5059 80.5491 30.4793 80.4339L29.0524 80.035V80.0439Z" fill="url(#paint48_linear_1_2251)"/>
<path d="M28.4497 88.6054L27.3684 86.7177C27.3152 86.7531 27.2621 86.7797 27.2089 86.8151L28.3079 88.6941C28.3611 88.6675 28.4142 88.6409 28.4586 88.6054H28.4497Z" fill="url(#paint49_linear_1_2251)"/>
<path d="M30.5059 85.6984C30.5236 85.6274 30.5414 85.5477 30.5591 85.4768L29.0967 84.174C29.079 84.2537 29.0613 84.3335 29.0347 84.4132L30.5059 85.6984Z" fill="url(#paint50_linear_1_2251)"/>
<path d="M30.302 86.2922L28.884 84.8387C28.8574 84.9096 28.8308 84.9805 28.8042 85.0515L30.2311 86.4961C30.2488 86.4429 30.2666 86.3986 30.2932 86.3454L30.3109 86.3011L30.302 86.2922Z" fill="url(#paint51_linear_1_2251)"/>
<path d="M29.3005 82.1356L30.7895 82.8978C30.7895 82.8004 30.7895 82.7029 30.7717 82.6054L29.2828 81.8254C29.2828 81.9318 29.2916 82.0381 29.2916 82.1356H29.3005Z" fill="url(#paint52_linear_1_2251)"/>
<path d="M30.6743 81.5418L29.2031 80.948C29.2208 81.0455 29.2297 81.1607 29.2474 81.2848L30.7186 81.852C30.7097 81.7457 30.692 81.6393 30.6832 81.5329L30.6743 81.5418Z" fill="url(#paint53_linear_1_2251)"/>
<path d="M29.1942 83.7042L30.6831 84.8298C30.692 84.7501 30.7097 84.6614 30.7186 84.5817L29.2296 83.4384C29.2208 83.5358 29.203 83.6245 29.1942 83.7042Z" fill="url(#paint54_linear_1_2251)"/>
<path d="M30.1957 79.326L28.8131 79.1222C28.8485 79.2374 28.8751 79.3526 28.9017 79.4678V79.4944L30.2843 79.6717V79.6451C30.2489 79.5387 30.2223 79.4235 30.1868 79.3172L30.1957 79.326Z" fill="url(#paint55_linear_1_2251)"/>
<path d="M29.0258 88.18L27.8382 86.3719C27.785 86.4163 27.7407 86.4606 27.6964 86.496L28.9017 88.2952C28.946 88.2597 28.9903 88.2154 29.0346 88.18H29.0258Z" fill="url(#paint56_linear_1_2251)"/>
<path d="M28.8397 75.967L27.6964 76.357C27.7584 76.4811 27.8293 76.614 27.8825 76.7381L29.0169 76.3304C28.9549 76.2063 28.9017 76.0823 28.8397 75.967Z" fill="url(#paint57_linear_1_2251)"/>
<path d="M29.5044 87.6836L29.531 87.6571L28.2459 85.9465C28.2016 85.9997 28.1661 86.0529 28.1218 86.0972L29.4158 87.7989C29.4158 87.7989 29.4778 87.7191 29.5044 87.6836Z" fill="url(#paint58_linear_1_2251)"/>
<path d="M29.3714 77.075L28.1306 77.2699C28.1838 77.4029 28.237 77.527 28.2901 77.6599L29.5132 77.4472L29.4866 77.394C29.4423 77.2877 29.4069 77.1902 29.3625 77.0838L29.3714 77.075Z" fill="url(#paint59_linear_1_2251)"/>
<path d="M29.8234 78.2004H28.5029C28.5472 78.3157 28.5826 78.4309 28.6181 78.5461V78.5815L29.9386 78.5638C29.9386 78.5372 29.9209 78.5106 29.9121 78.484C29.8855 78.3866 29.85 78.2979 29.8146 78.2004H29.8234Z" fill="url(#paint60_linear_1_2251)"/>
<path d="M29.8677 87.1962C29.8677 87.1962 29.9121 87.1253 29.9298 87.0898C29.9386 87.0721 29.9564 87.0455 29.9652 87.0278L28.6092 85.4325C28.5738 85.4945 28.5383 85.5566 28.5029 85.6186L29.8766 87.1962H29.8677Z" fill="url(#paint61_linear_1_2251)"/>
<path d="M15.8468 76.8178C15.8202 76.7026 15.8024 76.5785 15.7759 76.4633L14.3489 76.0911C14.3667 76.2063 14.3933 76.3126 14.4198 76.4278L15.8468 76.8267V76.8178Z" fill="url(#paint62_linear_1_2251)"/>
<path d="M15.0668 78.6702H16.3874C16.3519 78.5638 16.3076 78.4486 16.2722 78.3422L16.2544 78.2891L14.9427 78.3068C14.9427 78.3068 14.9605 78.3688 14.9693 78.3954C14.9959 78.484 15.0314 78.5815 15.058 78.6702H15.0668Z" fill="url(#paint63_linear_1_2251)"/>
<path d="M14.9339 69.8428L16.2899 71.4292C16.3253 71.3672 16.3608 71.3052 16.3962 71.2431L15.0225 69.6655C15.0225 69.6655 14.987 69.7364 14.9604 69.7719C14.9516 69.7985 14.9339 69.8162 14.925 69.8339L14.9339 69.8428Z" fill="url(#paint64_linear_1_2251)"/>
<path d="M15.3947 69.1693C15.3947 69.1693 15.377 69.1959 15.3681 69.2048L16.6532 70.9153C16.6976 70.8621 16.733 70.809 16.7773 70.7647L15.4833 69.063C15.4833 69.063 15.4302 69.1339 15.4036 69.1693H15.3947Z" fill="url(#paint65_linear_1_2251)"/>
<path d="M15.8733 68.6819L17.061 70.4899C17.1053 70.4456 17.1584 70.4101 17.2028 70.3658L15.9974 68.5667C15.9531 68.6021 15.9088 68.6464 15.8645 68.6819H15.8733Z" fill="url(#paint66_linear_1_2251)"/>
<path d="M17.2028 80.5048C17.1407 80.3807 17.0698 80.2477 17.0078 80.1237L15.8734 80.5314C15.9354 80.6554 15.9886 80.7706 16.0506 80.8947L17.1939 80.5048H17.2028Z" fill="url(#paint67_linear_1_2251)"/>
<path d="M14.7034 77.5358L16.086 77.7396C16.0506 77.6244 16.024 77.5092 15.9974 77.4028V77.3762L14.6148 77.199V77.2167C14.6503 77.3231 14.6768 77.4383 14.7123 77.5446L14.7034 77.5358Z" fill="url(#paint68_linear_1_2251)"/>
<path d="M15.5277 79.787L16.7685 79.592C16.7153 79.459 16.6621 79.335 16.609 79.202L15.3859 79.4236L15.4125 79.4945C15.4479 79.592 15.4922 79.6895 15.5366 79.787H15.5277Z" fill="url(#paint69_linear_1_2251)"/>
<path d="M22.1394 87.8344L22.228 86.1771C22.1305 86.115 22.0419 86.0618 21.9621 86.0087L21.8912 87.6749C21.971 87.7281 22.0596 87.7812 22.1394 87.8344Z" fill="url(#paint70_linear_1_2251)"/>
<path d="M15.5897 74.2122C15.5897 74.1147 15.5897 74.0172 15.6075 73.9198L14.1096 72.9714C14.1096 73.0601 14.1096 73.1487 14.1008 73.2462L15.5986 74.2122H15.5897Z" fill="url(#paint71_linear_1_2251)"/>
<path d="M14.1096 74.2654L15.5986 75.0453C15.5986 74.9389 15.5897 74.8326 15.5897 74.7351L14.1008 73.9729C14.1008 74.0704 14.1008 74.1679 14.1096 74.2654Z" fill="url(#paint72_linear_1_2251)"/>
<path d="M14.216 75.3289L15.6872 75.9227C15.6695 75.8075 15.6606 75.7011 15.6429 75.5859L14.1717 75.0187C14.1805 75.125 14.1983 75.2314 14.2071 75.3377L14.216 75.3289Z" fill="url(#paint73_linear_1_2251)"/>
<path d="M15.6961 73.1574L14.2071 72.0319C14.1983 72.1116 14.1805 72.2003 14.1717 72.28L15.6606 73.4233C15.6695 73.3436 15.6872 73.2461 15.6961 73.1574Z" fill="url(#paint74_linear_1_2251)"/>
<path d="M14.5971 70.5785L16.0151 72.032C16.0417 71.9611 16.0683 71.8902 16.0949 71.8193L14.668 70.3746C14.6503 70.4278 14.6325 70.4721 14.606 70.5253L14.5882 70.5696L14.5971 70.5785Z" fill="url(#paint75_linear_1_2251)"/>
<path d="M16.4494 68.2564L17.5307 70.1441C17.5839 70.1087 17.637 70.0821 17.6902 70.0466L16.5912 68.1677C16.538 68.1943 16.4937 68.2209 16.4406 68.2564H16.4494Z" fill="url(#paint76_linear_1_2251)"/>
<path d="M14.3932 71.1722C14.3755 71.2431 14.3578 71.3229 14.3401 71.3938L15.8024 72.6966C15.8201 72.6169 15.8379 72.5371 15.8645 72.4574L14.3932 71.1722Z" fill="url(#paint77_linear_1_2251)"/>
<path d="M19.4982 67.7423C19.445 67.7334 19.3919 67.7246 19.3387 67.7157L19.8793 69.6655C19.9591 69.6744 20.03 69.6921 20.1098 69.701L19.5603 67.7512H19.5071L19.4982 67.7423Z" fill="url(#paint78_linear_1_2251)"/>
<path d="M20.42 86.5492L20.8099 85.1401C20.7213 85.0603 20.6238 84.9805 20.5352 84.9008L20.1629 86.3277C20.2516 86.4074 20.3313 86.4783 20.42 86.5492Z" fill="url(#paint79_linear_1_2251)"/>
<path d="M19.3298 85.5211C19.4096 85.6009 19.4805 85.6718 19.5603 85.7516L19.5869 85.7781L20.1275 84.5108L20.092 84.4753C20.0123 84.3955 19.9325 84.3246 19.8616 84.2449L19.3387 85.53L19.3298 85.5211Z" fill="url(#paint80_linear_1_2251)"/>
<path d="M20.1718 67.8752L20.5529 69.7808C20.6327 69.7985 20.7124 69.8251 20.7922 69.8428L20.3934 67.9373C20.3225 67.9107 20.2427 67.893 20.1718 67.8752Z" fill="url(#paint81_linear_1_2251)"/>
<path d="M21.0226 68.15L21.2531 69.9935C21.3417 70.0289 21.4215 70.0555 21.5012 70.091L21.2531 68.2475C21.1733 68.2121 21.0935 68.1855 21.0226 68.15Z" fill="url(#paint82_linear_1_2251)"/>
<path d="M17.6991 81.3912C17.6282 81.2671 17.5573 81.143 17.4864 81.0189L16.4583 81.6216C16.5292 81.7368 16.5912 81.8609 16.6621 81.9761L17.7079 81.3912H17.6991Z" fill="url(#paint83_linear_1_2251)"/>
<path d="M21.2708 87.2406L21.5101 85.6985C21.4215 85.6276 21.324 85.5655 21.2353 85.4946L21.0138 87.0456C21.1024 87.1077 21.1822 87.1786 21.2708 87.2406Z" fill="url(#paint84_linear_1_2251)"/>
<path d="M21.8912 68.54L21.9621 70.3037C22.0507 70.3481 22.1305 70.3924 22.2191 70.4367L22.1305 68.673C22.0507 68.6287 21.971 68.5844 21.8912 68.5489V68.54Z" fill="url(#paint85_linear_1_2251)"/>
<path d="M17.3091 83.0042L18.2397 82.242C18.1599 82.1267 18.0802 82.0027 18.0004 81.8875L17.0787 82.6762C17.1496 82.7915 17.2293 82.8978 17.3002 83.0042H17.3091Z" fill="url(#paint86_linear_1_2251)"/>
<path d="M17.0875 67.9461L18.0536 69.8871C18.1156 69.8605 18.1777 69.8428 18.2308 69.825L17.2559 67.8929C17.2027 67.9107 17.1407 67.9284 17.0875 67.9461Z" fill="url(#paint87_linear_1_2251)"/>
<path d="M17.9295 67.7246C17.8852 67.7246 17.832 67.7335 17.7877 67.7423L18.6208 69.7099C18.6829 69.701 18.7538 69.6922 18.8158 69.6833L17.9738 67.7246H17.9295Z" fill="url(#paint88_linear_1_2251)"/>
<path d="M18.5322 84.6349C18.5942 84.7146 18.6651 84.7855 18.736 84.8564L18.7892 84.9185L19.4628 83.8106L19.4362 83.784C19.3564 83.6954 19.2678 83.5979 19.188 83.5093L18.5233 84.6349H18.5322Z" fill="url(#paint89_linear_1_2251)"/>
<path d="M18.674 67.6714C18.674 67.6714 18.5854 67.6714 18.541 67.6714L19.2323 69.6389C19.2323 69.6389 19.2678 69.6389 19.2855 69.6389C19.3387 69.6389 19.3919 69.6389 19.4451 69.6389L18.7449 67.6714C18.7449 67.6714 18.7006 67.6714 18.674 67.6714Z" fill="url(#paint90_linear_1_2251)"/>
<path d="M18.027 83.9967L18.8335 83.0573C18.7449 82.9509 18.6651 82.8357 18.5765 82.7205L17.7788 83.6865C17.8409 83.7751 17.9118 83.8549 17.9738 83.9435L18.0181 84.0056L18.027 83.9967Z" fill="url(#paint91_linear_1_2251)"/>
</g>
<path d="M26.9785 81.976C26.9785 83.6068 26.4201 84.7589 25.4984 85.3173C25.4718 85.335 22.1748 86.177 22.1482 86.1947C21.2885 86.6556 21.838 85.6098 20.544 84.8919C17.9295 83.4473 15.8113 79.9464 15.8113 77.0749C15.8113 75.6568 14.4376 75.648 15.2795 75.1694C15.3061 75.1605 18.0181 72.5017 18.0181 72.5017C18.9931 71.9699 20.287 72.0674 21.7228 72.8916C24.6298 74.5667 26.9873 78.6347 26.9873 81.9672L26.9785 81.976Z" fill="url(#paint92_linear_1_2251)"/>
<path d="M23.3713 83.3498C23.3713 86.2214 21.253 87.3735 18.6385 85.9289C16.024 84.4842 13.9058 80.9834 13.9058 78.1119C13.9058 75.2403 16.024 74.0881 18.6385 75.5328C21.253 76.9774 23.3713 80.4782 23.3713 83.3498Z" fill="url(#paint93_linear_1_2251)"/>
<g style="mix-blend-mode:color-dodge">
<path d="M18.8424 75.4175C17.5839 74.7174 16.4406 74.6287 15.5809 75.0364C16.3785 74.8237 17.3623 74.9833 18.4258 75.5682C21.0581 77.0217 23.1852 80.5402 23.1852 83.4207C23.1852 84.9273 22.6091 85.9554 21.6785 86.3986C22.8395 86.0884 23.5929 84.9805 23.5929 83.27C23.5929 80.3807 21.4569 76.871 18.8335 75.4175H18.8424Z" fill="url(#paint94_linear_1_2251)"/>
</g>
<path d="M23.1763 74.1147L26.4644 71.9255L24.7539 75.7809L23.1763 74.1147Z" fill="url(#paint95_linear_1_2251)"/>
<g style="mix-blend-mode:color-dodge">
<path d="M50.3852 95.0664L50.6511 61.4763L55.9245 58.1261L50.3852 60.9445L4.59094 34.6573L49.9864 61.4763L50.3852 95.0664Z" fill="url(#paint96_linear_1_2251)"/>
</g>
<defs>
<linearGradient id="paint0_linear_1_2251" x1="76.473" y1="85.6365" x2="86.5644" y2="119.869" gradientUnits="userSpaceOnUse">
<stop stop-color="#C4C4C4"/>
<stop offset="0.552083" stop-color="#DBD9D9"/>
<stop offset="1" stop-color="#ACABAB"/>
</linearGradient>
<linearGradient id="paint1_linear_1_2251" x1="26.2207" y1="88.0028" x2="35.8112" y2="120.141" gradientUnits="userSpaceOnUse">
<stop stop-color="#C4C4C4"/>
<stop offset="0.552083" stop-color="#DBD9D9"/>
<stop offset="1" stop-color="#ACABAB"/>
</linearGradient>
<linearGradient id="paint2_linear_1_2251" x1="76.473" y1="95.7401" x2="84.2855" y2="126.155" gradientUnits="userSpaceOnUse">
<stop stop-color="#C4C4C4"/>
<stop offset="0.552083" stop-color="#DBD9D9"/>
<stop offset="1" stop-color="#ACABAB"/>
</linearGradient>
<linearGradient id="paint3_linear_1_2251" x1="26.2207" y1="98.1064" x2="33.5196" y2="126.44" gradientUnits="userSpaceOnUse">
<stop stop-color="#C4C4C4"/>
<stop offset="0.552083" stop-color="#DBD9D9"/>
<stop offset="1" stop-color="#ACABAB"/>
</linearGradient>
<linearGradient id="paint4_linear_1_2251" x1="52.2686" y1="57.3994" x2="64.0291" y2="109.598" gradientUnits="userSpaceOnUse">
<stop stop-color="#C4C4C4"/>
<stop offset="0.552083" stop-color="#DBD9D9"/>
<stop offset="1" stop-color="#ACABAB"/>
</linearGradient>
<linearGradient id="paint5_linear_1_2251" x1="80.9974" y1="29.8359" x2="119.428" y2="83.8204" gradientUnits="userSpaceOnUse">
<stop stop-color="#C4C4C4"/>
<stop offset="0.552083" stop-color="#DBD9D9"/>
<stop offset="1" stop-color="#ACABAB"/>
</linearGradient>
<linearGradient id="paint6_linear_1_2251" x1="32.274" y1="28.019" x2="70.9172" y2="84.7199" gradientUnits="userSpaceOnUse">
<stop stop-color="#C4C4C4"/>
<stop offset="0.552083" stop-color="#DBD9D9"/>
<stop offset="1" stop-color="#ACABAB"/>
</linearGradient>
<linearGradient id="paint7_linear_1_2251" x1="55.8536" y1="0.5" x2="67.1816" y2="50.9533" gradientUnits="userSpaceOnUse">
<stop stop-color="#C4C4C4"/>
<stop offset="0.552083" stop-color="#DBD9D9"/>
<stop offset="1" stop-color="#ACABAB"/>
</linearGradient>
<linearGradient id="paint8_linear_1_2251" x1="31.4542" y1="28.3381" x2="70.0949" y2="85.0453" gradientUnits="userSpaceOnUse">
<stop stop-color="#C4C4C4"/>
<stop offset="0.552083" stop-color="#DBD9D9"/>
<stop offset="1" stop-color="#ACABAB"/>
</linearGradient>
<linearGradient id="paint9_linear_1_2251" x1="53.1105" y1="58.1261" x2="66.0424" y2="61.1272" gradientUnits="userSpaceOnUse">
<stop stop-color="#C4C4C4"/>
<stop offset="0.552083" stop-color="#DBD9D9"/>
<stop offset="1" stop-color="#ACABAB"/>
</linearGradient>
<linearGradient id="paint10_linear_1_2251" x1="25.1616" y1="32.0695" x2="63.7971" y2="88.7746" gradientUnits="userSpaceOnUse">
<stop stop-color="#C4C4C4"/>
<stop offset="0.552083" stop-color="#DBD9D9"/>
<stop offset="1" stop-color="#ACABAB"/>
</linearGradient>
<linearGradient id="paint11_linear_1_2251" x1="25.1616" y1="32.0695" x2="63.7971" y2="88.7746" gradientUnits="userSpaceOnUse">
<stop stop-color="#C4C4C4"/>
<stop offset="0.552083" stop-color="#DBD9D9"/>
<stop offset="1" stop-color="#ACABAB"/>
</linearGradient>
<linearGradient id="paint12_linear_1_2251" x1="27.9622" y1="28.7902" x2="34.454" y2="57.7212" gradientUnits="userSpaceOnUse">
<stop stop-color="#C4C4C4"/>
<stop offset="0.552083" stop-color="#DBD9D9"/>
<stop offset="1" stop-color="#ACABAB"/>
</linearGradient>
<linearGradient id="paint13_linear_1_2251" x1="25.3167" y1="46.0018" x2="48.1135" y2="92.0972" gradientUnits="userSpaceOnUse">
<stop stop-color="#FF6700"/>
<stop offset="1" stop-color="#FF9666"/>
</linearGradient>
<linearGradient id="paint14_linear_1_2251" x1="25.3211" y1="47.1805" x2="47.2284" y2="91.5298" gradientUnits="userSpaceOnUse">
<stop stop-color="#FF6700"/>
<stop offset="1" stop-color="#FF9666"/>
</linearGradient>
<linearGradient id="paint15_linear_1_2251" x1="20.9118" y1="67.512" x2="31.3506" y2="85.2766" gradientUnits="userSpaceOnUse">
<stop stop-color="#FF6700"/>
<stop offset="1" stop-color="#FF9666"/>
</linearGradient>
<linearGradient id="paint16_linear_1_2251" x1="29.2385" y1="62.6285" x2="31.8792" y2="69.187" gradientUnits="userSpaceOnUse">
<stop stop-color="#FF6700"/>
<stop offset="1" stop-color="#FF9666"/>
</linearGradient>
<linearGradient id="paint17_linear_1_2251" x1="18.8734" y1="60.8138" x2="20.225" y2="66.9973" gradientUnits="userSpaceOnUse">
<stop stop-color="#FF6700"/>
<stop offset="1" stop-color="#FF9666"/>
</linearGradient>
<linearGradient id="paint18_linear_1_2251" x1="35.3538" y1="70.8177" x2="43.7138" y2="76.217" gradientUnits="userSpaceOnUse">
<stop stop-color="#FF6700"/>
<stop offset="1" stop-color="#FF9666"/>
</linearGradient>
<linearGradient id="paint19_linear_1_2251" x1="32.695" y1="89.8994" x2="33.2848" y2="92.9238" gradientUnits="userSpaceOnUse">
<stop stop-color="#FF6700"/>
<stop offset="1" stop-color="#FF9666"/>
</linearGradient>
<linearGradient id="paint20_linear_1_2251" x1="39.3554" y1="70.1442" x2="46.0925" y2="76.9153" gradientUnits="userSpaceOnUse">
<stop stop-color="#FF6700"/>
<stop offset="1" stop-color="#FF9666"/>
</linearGradient>
<linearGradient id="paint21_linear_1_2251" x1="35.8976" y1="84.4399" x2="40.6339" y2="95.5304" gradientUnits="userSpaceOnUse">
<stop stop-color="#FF6700"/>
<stop offset="1" stop-color="#FF9666"/>
</linearGradient>
<linearGradient id="paint22_linear_1_2251" x1="13.4632" y1="55.2812" x2="29.0545" y2="67.0429" gradientUnits="userSpaceOnUse">
<stop stop-color="#FF6700"/>
<stop offset="1" stop-color="#FF9666"/>
</linearGradient>
<linearGradient id="paint23_linear_1_2251" x1="23.9252" y1="89.4651" x2="26.0705" y2="96.7891" gradientUnits="userSpaceOnUse">
<stop stop-color="#FF6700"/>
<stop offset="1" stop-color="#FF9666"/>
</linearGradient>
<linearGradient id="paint24_linear_1_2251" x1="26.46" y1="55.0177" x2="30.0629" y2="68.1995" gradientUnits="userSpaceOnUse">
<stop stop-color="#FF6700"/>
<stop offset="1" stop-color="#FF9666"/>
</linearGradient>
<linearGradient id="paint25_linear_1_2251" x1="25.3248" y1="57.2842" x2="39.7637" y2="86.4621" gradientUnits="userSpaceOnUse">
<stop stop-color="#FF6700"/>
<stop offset="1" stop-color="#FF9666"/>
</linearGradient>
<linearGradient id="paint26_linear_1_2251" x1="25.3433" y1="48.3047" x2="46.4621" y2="90.9213" gradientUnits="userSpaceOnUse">
<stop stop-color="#FF6700"/>
<stop offset="1" stop-color="#FF9666"/>
</linearGradient>
<linearGradient id="paint27_linear_1_2251" x1="25.3389" y1="48.4391" x2="46.3003" y2="90.9408" gradientUnits="userSpaceOnUse">
<stop stop-color="#FF6700"/>
<stop offset="1" stop-color="#FF9666"/>
</linearGradient>
<linearGradient id="paint28_linear_1_2251" x1="25.3477" y1="65.0342" x2="34.1118" y2="82.7451" gradientUnits="userSpaceOnUse">
<stop stop-color="#C4C4C4"/>
<stop offset="0.552083" stop-color="#DBD9D9"/>
<stop offset="1" stop-color="#ACABAB"/>
</linearGradient>
<linearGradient id="paint29_linear_1_2251" x1="24.7895" y1="65.7593" x2="33.6193" y2="83.0331" gradientUnits="userSpaceOnUse">
<stop stop-color="#C4C4C4"/>
<stop offset="0.552083" stop-color="#DBD9D9"/>
<stop offset="1" stop-color="#ACABAB"/>
</linearGradient>
<linearGradient id="paint30_linear_1_2251" x1="22.7331" y1="66.9404" x2="31.136" y2="83.9296" gradientUnits="userSpaceOnUse">
<stop stop-color="#C4C4C4"/>
<stop offset="0.552083" stop-color="#DBD9D9"/>
<stop offset="1" stop-color="#ACABAB"/>
</linearGradient>
<linearGradient id="paint31_linear_1_2251" x1="24.5545" y1="66.7258" x2="33.681" y2="82.3843" gradientUnits="userSpaceOnUse">
<stop stop-color="#C4C4C4"/>
<stop offset="0.552083" stop-color="#DBD9D9"/>
<stop offset="1" stop-color="#ACABAB"/>
</linearGradient>
<linearGradient id="paint32_linear_1_2251" x1="26.593" y1="72.8651" x2="27.0488" y2="73.843" gradientUnits="userSpaceOnUse">
<stop stop-color="#C4C4C4"/>
<stop offset="0.552083" stop-color="#DBD9D9"/>
<stop offset="1" stop-color="#ACABAB"/>
</linearGradient>
<linearGradient id="paint33_linear_1_2251" x1="25.9149" y1="71.9434" x2="26.4842" y2="72.9288" gradientUnits="userSpaceOnUse">
<stop stop-color="#C4C4C4"/>
<stop offset="0.552083" stop-color="#DBD9D9"/>
<stop offset="1" stop-color="#ACABAB"/>
</linearGradient>
<linearGradient id="paint34_linear_1_2251" x1="25.906" y1="87.2229" x2="26.8095" y2="88.3007" gradientUnits="userSpaceOnUse">
<stop stop-color="#C4C4C4"/>
<stop offset="0.552083" stop-color="#DBD9D9"/>
<stop offset="1" stop-color="#ACABAB"/>
</linearGradient>
<linearGradient id="paint35_linear_1_2251" x1="25.1705" y1="71.0836" x2="25.8544" y2="72.0074" gradientUnits="userSpaceOnUse">
<stop stop-color="#C4C4C4"/>
<stop offset="0.552083" stop-color="#DBD9D9"/>
<stop offset="1" stop-color="#ACABAB"/>
</linearGradient>
<linearGradient id="paint36_linear_1_2251" x1="27.2311" y1="86.9835" x2="28.092" y2="88.2651" gradientUnits="userSpaceOnUse">
<stop stop-color="#C4C4C4"/>
<stop offset="0.552083" stop-color="#DBD9D9"/>
<stop offset="1" stop-color="#ACABAB"/>
</linearGradient>
<linearGradient id="paint37_linear_1_2251" x1="26.5885" y1="87.152" x2="27.4752" y2="88.3442" gradientUnits="userSpaceOnUse">
<stop stop-color="#C4C4C4"/>
<stop offset="0.552083" stop-color="#DBD9D9"/>
<stop offset="1" stop-color="#ACABAB"/>
</linearGradient>
<linearGradient id="paint38_linear_1_2251" x1="27.2266" y1="73.8577" x2="27.5679" y2="74.7718" gradientUnits="userSpaceOnUse">
<stop stop-color="#C4C4C4"/>
<stop offset="0.552083" stop-color="#DBD9D9"/>
<stop offset="1" stop-color="#ACABAB"/>
</linearGradient>
<linearGradient id="paint39_linear_1_2251" x1="25.1749" y1="87.1697" x2="26.1007" y2="88.1032" gradientUnits="userSpaceOnUse">
<stop stop-color="#C4C4C4"/>
<stop offset="0.552083" stop-color="#DBD9D9"/>
<stop offset="1" stop-color="#ACABAB"/>
</linearGradient>
<linearGradient id="paint40_linear_1_2251" x1="30.0361" y1="82.6497" x2="30.3697" y2="83.7012" gradientUnits="userSpaceOnUse">
<stop stop-color="#C4C4C4"/>
<stop offset="0.552083" stop-color="#DBD9D9"/>
<stop offset="1" stop-color="#ACABAB"/>
</linearGradient>
<linearGradient id="paint41_linear_1_2251" x1="22.8351" y1="86.4252" x2="23.496" y2="86.7218" gradientUnits="userSpaceOnUse">
<stop stop-color="#C4C4C4"/>
<stop offset="0.552083" stop-color="#DBD9D9"/>
<stop offset="1" stop-color="#ACABAB"/>
</linearGradient>
<linearGradient id="paint42_linear_1_2251" x1="22.8395" y1="69.0363" x2="23.5029" y2="69.354" gradientUnits="userSpaceOnUse">
<stop stop-color="#C4C4C4"/>
<stop offset="0.552083" stop-color="#DBD9D9"/>
<stop offset="1" stop-color="#ACABAB"/>
</linearGradient>
<linearGradient id="paint43_linear_1_2251" x1="24.4171" y1="87.0101" x2="25.3199" y2="87.7458" gradientUnits="userSpaceOnUse">
<stop stop-color="#C4C4C4"/>
<stop offset="0.552083" stop-color="#DBD9D9"/>
<stop offset="1" stop-color="#ACABAB"/>
</linearGradient>
<linearGradient id="paint44_linear_1_2251" x1="24.4127" y1="70.3125" x2="25.1813" y2="71.0957" gradientUnits="userSpaceOnUse">
<stop stop-color="#C4C4C4"/>
<stop offset="0.552083" stop-color="#DBD9D9"/>
<stop offset="1" stop-color="#ACABAB"/>
</linearGradient>
<linearGradient id="paint45_linear_1_2251" x1="27.816" y1="74.8859" x2="28.0583" y2="75.7072" gradientUnits="userSpaceOnUse">
<stop stop-color="#C4C4C4"/>
<stop offset="0.552083" stop-color="#DBD9D9"/>
<stop offset="1" stop-color="#ACABAB"/>
</linearGradient>
<linearGradient id="paint46_linear_1_2251" x1="23.6372" y1="86.7709" x2="24.4592" y2="87.2971" gradientUnits="userSpaceOnUse">
<stop stop-color="#C4C4C4"/>
<stop offset="0.552083" stop-color="#DBD9D9"/>
<stop offset="1" stop-color="#ACABAB"/>
</linearGradient>
<linearGradient id="paint47_linear_1_2251" x1="23.6372" y1="69.6212" x2="24.4152" y2="70.1955" gradientUnits="userSpaceOnUse">
<stop stop-color="#C4C4C4"/>
<stop offset="0.552083" stop-color="#DBD9D9"/>
<stop offset="1" stop-color="#ACABAB"/>
</linearGradient>
<linearGradient id="paint48_linear_1_2251" x1="29.8013" y1="80.035" x2="29.9266" y2="80.6975" gradientUnits="userSpaceOnUse">
<stop stop-color="#C4C4C4"/>
<stop offset="0.552083" stop-color="#DBD9D9"/>
<stop offset="1" stop-color="#ACABAB"/>
</linearGradient>
<linearGradient id="paint49_linear_1_2251" x1="27.8337" y1="86.7177" x2="28.6528" y2="88.0622" gradientUnits="userSpaceOnUse">
<stop stop-color="#C4C4C4"/>
<stop offset="0.552083" stop-color="#DBD9D9"/>
<stop offset="1" stop-color="#ACABAB"/>
</linearGradient>
<linearGradient id="paint50_linear_1_2251" x1="29.7969" y1="84.174" x2="30.2738" y2="85.4121" gradientUnits="userSpaceOnUse">
<stop stop-color="#C4C4C4"/>
<stop offset="0.552083" stop-color="#DBD9D9"/>
<stop offset="1" stop-color="#ACABAB"/>
</linearGradient>
<linearGradient id="paint51_linear_1_2251" x1="29.5575" y1="84.8387" x2="30.1128" y2="86.1493" gradientUnits="userSpaceOnUse">
<stop stop-color="#C4C4C4"/>
<stop offset="0.552083" stop-color="#DBD9D9"/>
<stop offset="1" stop-color="#ACABAB"/>
</linearGradient>
<linearGradient id="paint52_linear_1_2251" x1="30.0361" y1="81.8254" x2="30.2912" y2="82.7558" gradientUnits="userSpaceOnUse">
<stop stop-color="#C4C4C4"/>
<stop offset="0.552083" stop-color="#DBD9D9"/>
<stop offset="1" stop-color="#ACABAB"/>
</linearGradient>
<linearGradient id="paint53_linear_1_2251" x1="29.9608" y1="80.948" x2="30.1448" y2="81.7489" gradientUnits="userSpaceOnUse">
<stop stop-color="#C4C4C4"/>
<stop offset="0.552083" stop-color="#DBD9D9"/>
<stop offset="1" stop-color="#ACABAB"/>
</linearGradient>
<linearGradient id="paint54_linear_1_2251" x1="29.9564" y1="83.4384" x2="30.3625" y2="84.5934" gradientUnits="userSpaceOnUse">
<stop stop-color="#C4C4C4"/>
<stop offset="0.552083" stop-color="#DBD9D9"/>
<stop offset="1" stop-color="#ACABAB"/>
</linearGradient>
<linearGradient id="paint55_linear_1_2251" x1="29.5487" y1="79.1222" x2="29.6209" y2="79.6243" gradientUnits="userSpaceOnUse">
<stop stop-color="#C4C4C4"/>
<stop offset="0.552083" stop-color="#DBD9D9"/>
<stop offset="1" stop-color="#ACABAB"/>
</linearGradient>
<linearGradient id="paint56_linear_1_2251" x1="28.3655" y1="86.3719" x2="29.1256" y2="87.7451" gradientUnits="userSpaceOnUse">
<stop stop-color="#C4C4C4"/>
<stop offset="0.552083" stop-color="#DBD9D9"/>
<stop offset="1" stop-color="#ACABAB"/>
</linearGradient>
<linearGradient id="paint57_linear_1_2251" x1="28.3566" y1="75.967" x2="28.5106" y2="76.6516" gradientUnits="userSpaceOnUse">
<stop stop-color="#C4C4C4"/>
<stop offset="0.552083" stop-color="#DBD9D9"/>
<stop offset="1" stop-color="#ACABAB"/>
</linearGradient>
<linearGradient id="paint58_linear_1_2251" x1="28.8264" y1="85.9465" x2="29.5226" y2="87.3217" gradientUnits="userSpaceOnUse">
<stop stop-color="#C4C4C4"/>
<stop offset="0.552083" stop-color="#DBD9D9"/>
<stop offset="1" stop-color="#ACABAB"/>
</linearGradient>
<linearGradient id="paint59_linear_1_2251" x1="28.8219" y1="77.075" x2="28.9085" y2="77.6064" gradientUnits="userSpaceOnUse">
<stop stop-color="#C4C4C4"/>
<stop offset="0.552083" stop-color="#DBD9D9"/>
<stop offset="1" stop-color="#ACABAB"/>
</linearGradient>
<linearGradient id="paint60_linear_1_2251" x1="29.2208" y1="78.2004" x2="29.2567" y2="78.5522" gradientUnits="userSpaceOnUse">
<stop stop-color="#C4C4C4"/>
<stop offset="0.552083" stop-color="#DBD9D9"/>
<stop offset="1" stop-color="#ACABAB"/>
</linearGradient>
<linearGradient id="paint61_linear_1_2251" x1="29.2341" y1="85.4325" x2="29.8626" y2="86.7855" gradientUnits="userSpaceOnUse">
<stop stop-color="#C4C4C4"/>
<stop offset="0.552083" stop-color="#DBD9D9"/>
<stop offset="1" stop-color="#ACABAB"/>
</linearGradient>
<linearGradient id="paint62_linear_1_2251" x1="15.0978" y1="76.0911" x2="15.2232" y2="76.7535" gradientUnits="userSpaceOnUse">
<stop stop-color="#C4C4C4"/>
<stop offset="0.552083" stop-color="#DBD9D9"/>
<stop offset="1" stop-color="#ACABAB"/>
</linearGradient>
<linearGradient id="paint63_linear_1_2251" x1="15.6651" y1="78.2891" x2="15.7008" y2="78.6409" gradientUnits="userSpaceOnUse">
<stop stop-color="#C4C4C4"/>
<stop offset="0.552083" stop-color="#DBD9D9"/>
<stop offset="1" stop-color="#ACABAB"/>
</linearGradient>
<linearGradient id="paint64_linear_1_2251" x1="15.6606" y1="69.6655" x2="16.2867" y2="71.0215" gradientUnits="userSpaceOnUse">
<stop stop-color="#C4C4C4"/>
<stop offset="0.552083" stop-color="#DBD9D9"/>
<stop offset="1" stop-color="#ACABAB"/>
</linearGradient>
<linearGradient id="paint65_linear_1_2251" x1="16.0727" y1="69.063" x2="16.769" y2="70.4382" gradientUnits="userSpaceOnUse">
<stop stop-color="#C4C4C4"/>
<stop offset="0.552083" stop-color="#DBD9D9"/>
<stop offset="1" stop-color="#ACABAB"/>
</linearGradient>
<linearGradient id="paint66_linear_1_2251" x1="16.5336" y1="68.5667" x2="17.2937" y2="69.9398" gradientUnits="userSpaceOnUse">
<stop stop-color="#C4C4C4"/>
<stop offset="0.552083" stop-color="#DBD9D9"/>
<stop offset="1" stop-color="#ACABAB"/>
</linearGradient>
<linearGradient id="paint67_linear_1_2251" x1="16.5381" y1="80.1237" x2="16.6911" y2="80.8087" gradientUnits="userSpaceOnUse">
<stop stop-color="#C4C4C4"/>
<stop offset="0.552083" stop-color="#DBD9D9"/>
<stop offset="1" stop-color="#ACABAB"/>
</linearGradient>
<linearGradient id="paint68_linear_1_2251" x1="15.3504" y1="77.199" x2="15.4204" y2="77.6933" gradientUnits="userSpaceOnUse">
<stop stop-color="#C4C4C4"/>
<stop offset="0.552083" stop-color="#DBD9D9"/>
<stop offset="1" stop-color="#ACABAB"/>
</linearGradient>
<linearGradient id="paint69_linear_1_2251" x1="16.0772" y1="79.202" x2="16.1638" y2="79.7335" gradientUnits="userSpaceOnUse">
<stop stop-color="#C4C4C4"/>
<stop offset="0.552083" stop-color="#DBD9D9"/>
<stop offset="1" stop-color="#ACABAB"/>
</linearGradient>
<linearGradient id="paint70_linear_1_2251" x1="22.0596" y1="86.0087" x2="22.723" y2="86.3264" gradientUnits="userSpaceOnUse">
<stop stop-color="#C4C4C4"/>
<stop offset="0.552083" stop-color="#DBD9D9"/>
<stop offset="1" stop-color="#ACABAB"/>
</linearGradient>
<linearGradient id="paint71_linear_1_2251" x1="14.8541" y1="72.9714" x2="15.1877" y2="74.023" gradientUnits="userSpaceOnUse">
<stop stop-color="#C4C4C4"/>
<stop offset="0.552083" stop-color="#DBD9D9"/>
<stop offset="1" stop-color="#ACABAB"/>
</linearGradient>
<linearGradient id="paint72_linear_1_2251" x1="14.8497" y1="73.9729" x2="15.106" y2="74.9025" gradientUnits="userSpaceOnUse">
<stop stop-color="#C4C4C4"/>
<stop offset="0.552083" stop-color="#DBD9D9"/>
<stop offset="1" stop-color="#ACABAB"/>
</linearGradient>
<linearGradient id="paint73_linear_1_2251" x1="14.9294" y1="75.0187" x2="15.1134" y2="75.8196" gradientUnits="userSpaceOnUse">
<stop stop-color="#C4C4C4"/>
<stop offset="0.552083" stop-color="#DBD9D9"/>
<stop offset="1" stop-color="#ACABAB"/>
</linearGradient>
<linearGradient id="paint74_linear_1_2251" x1="14.9339" y1="72.0319" x2="15.34" y2="73.1869" gradientUnits="userSpaceOnUse">
<stop stop-color="#C4C4C4"/>
<stop offset="0.552083" stop-color="#DBD9D9"/>
<stop offset="1" stop-color="#ACABAB"/>
</linearGradient>
<linearGradient id="paint75_linear_1_2251" x1="15.3416" y1="70.3746" x2="15.8968" y2="71.6852" gradientUnits="userSpaceOnUse">
<stop stop-color="#C4C4C4"/>
<stop offset="0.552083" stop-color="#DBD9D9"/>
<stop offset="1" stop-color="#ACABAB"/>
</linearGradient>
<linearGradient id="paint76_linear_1_2251" x1="17.0654" y1="68.1677" x2="17.8844" y2="69.5122" gradientUnits="userSpaceOnUse">
<stop stop-color="#C4C4C4"/>
<stop offset="0.552083" stop-color="#DBD9D9"/>
<stop offset="1" stop-color="#ACABAB"/>
</linearGradient>
<linearGradient id="paint77_linear_1_2251" x1="15.1023" y1="71.1722" x2="15.5792" y2="72.4104" gradientUnits="userSpaceOnUse">
<stop stop-color="#C4C4C4"/>
<stop offset="0.552083" stop-color="#DBD9D9"/>
<stop offset="1" stop-color="#ACABAB"/>
</linearGradient>
<linearGradient id="paint78_linear_1_2251" x1="19.7242" y1="67.7157" x2="20.65" y2="68.6493" gradientUnits="userSpaceOnUse">
<stop stop-color="#C4C4C4"/>
<stop offset="0.552083" stop-color="#DBD9D9"/>
<stop offset="1" stop-color="#ACABAB"/>
</linearGradient>
<linearGradient id="paint79_linear_1_2251" x1="20.4864" y1="84.9008" x2="21.2551" y2="85.684" gradientUnits="userSpaceOnUse">
<stop stop-color="#C4C4C4"/>
<stop offset="0.552083" stop-color="#DBD9D9"/>
<stop offset="1" stop-color="#ACABAB"/>
</linearGradient>
<linearGradient id="paint80_linear_1_2251" x1="19.7287" y1="84.2449" x2="20.4126" y2="85.1686" gradientUnits="userSpaceOnUse">
<stop stop-color="#C4C4C4"/>
<stop offset="0.552083" stop-color="#DBD9D9"/>
<stop offset="1" stop-color="#ACABAB"/>
</linearGradient>
<linearGradient id="paint81_linear_1_2251" x1="20.482" y1="67.8752" x2="21.3815" y2="68.6116" gradientUnits="userSpaceOnUse">
<stop stop-color="#C4C4C4"/>
<stop offset="0.552083" stop-color="#DBD9D9"/>
<stop offset="1" stop-color="#ACABAB"/>
</linearGradient>
<linearGradient id="paint82_linear_1_2251" x1="21.2619" y1="68.15" x2="22.084" y2="68.6763" gradientUnits="userSpaceOnUse">
<stop stop-color="#C4C4C4"/>
<stop offset="0.552083" stop-color="#DBD9D9"/>
<stop offset="1" stop-color="#ACABAB"/>
</linearGradient>
<linearGradient id="paint83_linear_1_2251" x1="17.0831" y1="81.0189" x2="17.3254" y2="81.8402" gradientUnits="userSpaceOnUse">
<stop stop-color="#C4C4C4"/>
<stop offset="0.552083" stop-color="#DBD9D9"/>
<stop offset="1" stop-color="#ACABAB"/>
</linearGradient>
<linearGradient id="paint84_linear_1_2251" x1="21.2619" y1="85.4946" x2="22.04" y2="86.0689" gradientUnits="userSpaceOnUse">
<stop stop-color="#C4C4C4"/>
<stop offset="0.552083" stop-color="#DBD9D9"/>
<stop offset="1" stop-color="#ACABAB"/>
</linearGradient>
<linearGradient id="paint85_linear_1_2251" x1="22.0552" y1="68.54" x2="22.7161" y2="68.8367" gradientUnits="userSpaceOnUse">
<stop stop-color="#C4C4C4"/>
<stop offset="0.552083" stop-color="#DBD9D9"/>
<stop offset="1" stop-color="#ACABAB"/>
</linearGradient>
<linearGradient id="paint86_linear_1_2251" x1="17.6592" y1="81.8875" x2="17.9985" y2="82.8033" gradientUnits="userSpaceOnUse">
<stop stop-color="#C4C4C4"/>
<stop offset="0.552083" stop-color="#DBD9D9"/>
<stop offset="1" stop-color="#ACABAB"/>
</linearGradient>
<linearGradient id="paint87_linear_1_2251" x1="17.6592" y1="67.8929" x2="18.5201" y2="69.1745" gradientUnits="userSpaceOnUse">
<stop stop-color="#C4C4C4"/>
<stop offset="0.552083" stop-color="#DBD9D9"/>
<stop offset="1" stop-color="#ACABAB"/>
</linearGradient>
<linearGradient id="paint88_linear_1_2251" x1="18.3018" y1="67.7246" x2="19.1885" y2="68.9168" gradientUnits="userSpaceOnUse">
<stop stop-color="#C4C4C4"/>
<stop offset="0.552083" stop-color="#DBD9D9"/>
<stop offset="1" stop-color="#ACABAB"/>
</linearGradient>
<linearGradient id="paint89_linear_1_2251" x1="18.993" y1="83.5093" x2="19.5624" y2="84.4947" gradientUnits="userSpaceOnUse">
<stop stop-color="#C4C4C4"/>
<stop offset="0.552083" stop-color="#DBD9D9"/>
<stop offset="1" stop-color="#ACABAB"/>
</linearGradient>
<linearGradient id="paint90_linear_1_2251" x1="18.9931" y1="67.6714" x2="19.8965" y2="68.7491" gradientUnits="userSpaceOnUse">
<stop stop-color="#C4C4C4"/>
<stop offset="0.552083" stop-color="#DBD9D9"/>
<stop offset="1" stop-color="#ACABAB"/>
</linearGradient>
<linearGradient id="paint91_linear_1_2251" x1="18.3062" y1="82.7205" x2="18.7672" y2="83.7027" gradientUnits="userSpaceOnUse">
<stop stop-color="#C4C4C4"/>
<stop offset="0.552083" stop-color="#DBD9D9"/>
<stop offset="1" stop-color="#ACABAB"/>
</linearGradient>
<linearGradient id="paint92_linear_1_2251" x1="20.9969" y1="72.1716" x2="25.9635" y2="83.0999" gradientUnits="userSpaceOnUse">
<stop stop-color="#C4C4C4"/>
<stop offset="0.552083" stop-color="#DBD9D9"/>
<stop offset="1" stop-color="#ACABAB"/>
</linearGradient>
<linearGradient id="paint93_linear_1_2251" x1="18.6385" y1="74.9097" x2="22.84" y2="83.7782" gradientUnits="userSpaceOnUse">
<stop stop-color="#C4C4C4"/>
<stop offset="0.552083" stop-color="#DBD9D9"/>
<stop offset="1" stop-color="#ACABAB"/>
</linearGradient>
<linearGradient id="paint94_linear_1_2251" x1="19.5869" y1="74.7927" x2="24.1928" y2="83.0479" gradientUnits="userSpaceOnUse">
<stop stop-color="#C4C4C4"/>
<stop offset="0.552083" stop-color="#DBD9D9"/>
<stop offset="1" stop-color="#ACABAB"/>
</linearGradient>
<linearGradient id="paint95_linear_1_2251" x1="24.8203" y1="71.9255" x2="26.1692" y2="74.9123" gradientUnits="userSpaceOnUse">
<stop stop-color="#C4C4C4"/>
<stop offset="0.552083" stop-color="#DBD9D9"/>
<stop offset="1" stop-color="#ACABAB"/>
</linearGradient>
<linearGradient id="paint96_linear_1_2251" x1="30.2577" y1="34.6573" x2="51.4441" y2="81.3989" gradientUnits="userSpaceOnUse">
<stop stop-color="#C4C4C4"/>
<stop offset="0.552083" stop-color="#DBD9D9"/>
<stop offset="1" stop-color="#ACABAB"/>
</linearGradient>
</defs>
</svg>
