<svg width="41" height="40" viewBox="0 0 41 40" fill="none" xmlns="http://www.w3.org/2000/svg">
<g clip-path="url(#clip0_265_6036)">
<rect x="0.0338745" y="-0.078125" width="40" height="40" rx="16" fill="#E4E5E1"/>
<path d="M19.9932 32.4934C17.1215 32.4934 14.2499 32.489 11.3782 32.5C11.098 32.5 10.9889 32.443 11.0009 32.1042C11.0269 31.3389 11.0049 30.5725 11.0099 29.8073C11.0199 28.4587 12.0068 27.3195 13.2369 27.2505C13.4451 27.2384 13.5282 27.188 13.5773 26.9435C14.2799 23.4427 14.9956 19.9452 15.7122 16.4477C15.7523 16.2515 15.6922 16.1122 15.5971 15.9566C14.9155 14.8459 14.2439 13.7265 13.5612 12.617C13.4511 12.4382 13.4031 12.2617 13.4041 12.0468C13.4101 10.6654 13.4151 9.28393 13.4011 7.90248C13.3981 7.61523 13.4682 7.5341 13.7324 7.53848C14.7183 7.55602 15.7052 7.55273 16.6911 7.53958C16.9283 7.53629 17.0464 7.59769 17.0034 7.87507C17.0014 7.88823 17.0034 7.90248 17.0034 7.91564C17.0124 8.93748 17.0865 9.00216 18.0304 8.86073C18.1575 8.84209 18.2115 8.79933 18.2025 8.66228C18.1995 8.60746 18.2025 8.55264 18.2025 8.49782C18.2092 7.86192 18.4978 7.54396 19.0683 7.54396C19.867 7.54396 20.6668 7.55493 21.4655 7.53739C21.7177 7.5319 21.8068 7.5922 21.8058 7.89152C21.7998 8.89252 21.8118 8.88375 22.7297 8.86292C22.9419 8.85744 23.0069 8.79494 23.0039 8.56251C22.9999 8.23798 22.8708 7.81258 23.055 7.61523C23.2552 7.40034 23.6475 7.55273 23.9558 7.54835C24.7295 7.53739 25.5042 7.55273 26.2779 7.53958C26.5082 7.53519 26.6032 7.58343 26.6002 7.86959C26.5862 9.27845 26.5902 10.6873 26.5982 12.0951C26.5992 12.3012 26.5352 12.4602 26.4351 12.6224C25.7815 13.6881 25.1399 14.7637 24.4773 15.8228C24.3091 16.0914 24.2651 16.3282 24.3332 16.655C25.0408 20.0713 25.7344 23.491 26.4181 26.9128C26.4681 27.1639 26.5402 27.2384 26.7744 27.2505C27.9805 27.3119 28.9764 28.4554 28.9904 29.7766C28.9984 30.5561 28.9784 31.3356 28.9994 32.1152C29.0075 32.4221 28.9304 32.5011 28.6491 32.5C25.7655 32.4879 22.8808 32.4923 19.9962 32.4923L19.9932 32.4934ZM25.217 27.2417C25.208 27.1671 25.206 27.1266 25.1979 27.0871C24.5163 23.7201 23.8307 20.3553 23.1591 16.9861C23.108 16.7317 22.9859 16.735 22.8168 16.735C20.944 16.7372 19.0713 16.7394 17.1976 16.7317C16.9814 16.7317 16.8803 16.7734 16.8262 17.0453C16.1716 20.3213 15.504 23.594 14.8254 26.8634C14.7513 27.2198 14.8644 27.2472 15.1387 27.2472C18.3727 27.2384 21.6066 27.2417 24.8406 27.2417C24.9627 27.2417 25.0858 27.2417 25.216 27.2417H25.217ZM20.0012 31.181C22.2843 31.181 24.5674 31.181 26.8505 31.1799C27.1477 31.1799 27.5401 31.2863 27.7183 31.1229C27.9305 30.9289 27.7843 30.4826 27.7873 30.1471C27.7963 29.0486 27.3349 28.5541 26.322 28.5541C23.1411 28.5541 19.9591 28.5541 16.7782 28.5541C15.6802 28.5541 14.5822 28.5475 13.4842 28.5563C12.7205 28.5629 12.225 29.1121 12.208 29.9465C12.202 30.2195 12.229 30.4958 12.201 30.7655C12.165 31.1142 12.2831 31.1909 12.5903 31.1887C15.0606 31.1745 17.5309 31.181 20.0012 31.181ZM15.1477 12.8099C15.6442 13.6289 16.1106 14.3832 16.56 15.1496C16.6811 15.3557 16.8142 15.4314 17.0414 15.4303C18.8371 15.4193 20.6327 15.3908 22.4264 15.4424C23.045 15.4599 23.4343 15.2954 23.7316 14.6826C24.0429 14.0423 24.4553 13.4601 24.8496 12.8099H15.1477ZM19.9611 11.4844C21.6587 11.4844 23.3563 11.4866 25.0538 11.4811C25.1899 11.4811 25.3991 11.5831 25.3961 11.2684C25.3891 10.5305 25.3921 9.79156 25.3951 9.05369C25.3951 8.91774 25.3501 8.87388 25.223 8.85525C24.2811 8.71272 24.204 8.77959 24.195 9.79924C24.195 9.8398 24.191 9.88147 24.195 9.92203C24.219 10.1238 24.133 10.1753 23.9588 10.1742C22.9098 10.1676 21.8619 10.1676 20.8129 10.1742C20.6528 10.1742 20.5897 10.1205 20.5957 9.93958C20.6057 9.65342 20.5977 9.36507 20.5977 9.07781C20.5977 8.96269 20.5957 8.85415 20.4486 8.85854C20.1143 8.8695 19.7319 8.77411 19.4617 8.92322C19.2785 9.02409 19.4236 9.478 19.3996 9.77292C19.3976 9.80033 19.3956 9.82774 19.3996 9.85515C19.4376 10.1084 19.3426 10.1797 19.1113 10.1764C18.1124 10.1632 17.1145 10.1632 16.1156 10.1764C15.8794 10.1797 15.7973 10.1194 15.7963 9.842C15.7943 8.81029 15.7843 8.81797 14.8524 8.85305C14.6552 8.86073 14.5962 8.92103 14.6002 9.13483C14.6112 9.77731 14.6222 10.4209 14.5972 11.0623C14.5842 11.3967 14.6603 11.4986 14.9805 11.4954C16.6401 11.4767 18.3006 11.4866 19.9611 11.4866V11.4844Z" fill="#ADADB0"/>
</g>
<defs>
<clipPath id="clip0_265_6036">
<rect x="0.0338745" y="-0.078125" width="40" height="40" rx="16" fill="white"/>
</clipPath>
</defs>
</svg>
