<svg width="56" height="56" viewBox="0 0 56 56" fill="none" xmlns="http://www.w3.org/2000/svg">
<rect width="56" height="56" rx="16" fill="#898D94"/>
<path d="M31.3614 27.808C33.0134 28.48 34.6094 29.936 34.6094 32.624C34.6094 35.648 31.9774 38.336 27.8894 38.336C23.6894 38.336 21.2534 35.62 20.9454 32.624H24.1934C24.3614 33.856 25.6214 35.34 27.8614 35.34C30.0734 35.34 31.3614 34.08 31.3614 32.372C31.3614 30.636 30.0734 29.376 27.7494 29.376H26.3494V26.66H27.6094C29.7094 26.66 30.9134 25.484 30.9134 23.888C30.9134 22.264 29.7094 21.06 27.7774 21.06C25.8174 21.06 24.6134 22.348 24.4734 23.664H21.2254C21.4494 20.724 24.0254 18.064 27.7494 18.064C31.6134 18.064 34.1614 20.668 34.1614 23.664C34.1614 25.68 32.8174 27.024 31.3614 27.808Z" fill="white"/>
</svg>
