<svg width="49" height="48" viewBox="0 0 49 48" fill="none" xmlns="http://www.w3.org/2000/svg">
<rect x="0.5" width="48" height="48" rx="11" fill="#F6F6F5"/>
<path d="M37.3333 15.6933V20C37.3333 22.8802 36.3486 23.9096 33.674 24.017C33.3981 24.0281 33.1733 23.8028 33.1733 23.5266V21.84C33.1733 17.68 31.32 15.8266 27.16 15.8266H25.4733C25.1972 15.8266 24.9718 15.6018 24.9829 15.3259C25.0904 12.6514 26.1198 11.6666 29 11.6666H33.3067C36.36 11.6666 37.3333 12.64 37.3333 15.6933Z" fill="url(#paint0_linear_156_470)"/>
<path d="M31.1733 21.84V26.16C31.1733 29.2 30.2 30.1733 27.16 30.1733H22.84C19.8 30.1733 18.8267 29.2 18.8267 26.16V21.84C18.8267 18.8 19.8 17.8267 22.84 17.8267H27.16C30.2 17.8267 31.1733 18.8 31.1733 21.84Z" fill="url(#paint1_linear_156_470)"/>
<path d="M24.5267 32.1734C24.8028 32.1734 25.0282 32.3982 25.0171 32.6741C24.9096 35.3487 23.8802 36.3334 21 36.3334H16.6933C13.64 36.3334 12.6667 35.3601 12.6667 32.3067V28.0001C12.6667 25.1198 13.6514 24.0904 16.326 23.983C16.6019 23.9719 16.8267 24.1972 16.8267 24.4734V26.1601C16.8267 30.3201 18.68 32.1734 22.84 32.1734H24.5267Z" fill="url(#paint2_linear_156_470)"/>
<defs>
<linearGradient id="paint0_linear_156_470" x1="24.9563" y1="24.0163" x2="37.4007" y2="11.7475" gradientUnits="userSpaceOnUse">
<stop stop-color="#F2244B"/>
<stop offset="1" stop-color="#F77248"/>
</linearGradient>
<linearGradient id="paint1_linear_156_470" x1="18.8096" y1="30.163" x2="31.2406" y2="17.9075" gradientUnits="userSpaceOnUse">
<stop stop-color="#F2244B"/>
<stop offset="1" stop-color="#F77248"/>
</linearGradient>
<linearGradient id="paint2_linear_156_470" x1="12.6496" y1="36.323" x2="25.094" y2="24.0543" gradientUnits="userSpaceOnUse">
<stop stop-color="#F2244B"/>
<stop offset="1" stop-color="#F77248"/>
</linearGradient>
</defs>
</svg>
