<svg width="49" height="48" viewBox="0 0 49 48" fill="none" xmlns="http://www.w3.org/2000/svg">
<rect x="0.5" width="48" height="48" rx="11" fill="#F6F6F5"/>
<path d="M30.5867 10.6666H19.4133C14.56 10.6666 11.6667 13.56 11.6667 18.4133V29.5733C11.6667 34.44 14.56 37.3333 19.4133 37.3333H30.5733C35.4267 37.3333 38.32 34.44 38.32 29.5866V18.4133C38.3333 13.56 35.44 10.6666 30.5867 10.6666ZM31.6667 31H18.3333C17.7867 31 17.3333 30.5466 17.3333 30C17.3333 29.4533 17.7867 29 18.3333 29H31.6667C32.2133 29 32.6667 29.4533 32.6667 30C32.6667 30.5466 32.2133 31 31.6667 31ZM31.6667 25H18.3333C17.7867 25 17.3333 24.5466 17.3333 24C17.3333 23.4533 17.7867 23 18.3333 23H31.6667C32.2133 23 32.6667 23.4533 32.6667 24C32.6667 24.5466 32.2133 25 31.6667 25ZM31.6667 19H18.3333C17.7867 19 17.3333 18.5466 17.3333 18C17.3333 17.4533 17.7867 17 18.3333 17H31.6667C32.2133 17 32.6667 17.4533 32.6667 18C32.6667 18.5466 32.2133 19 31.6667 19Z" fill="url(#paint0_linear_156_448)"/>
<defs>
<linearGradient id="paint0_linear_156_448" x1="11.6299" y1="37.3109" x2="38.4784" y2="10.8545" gradientUnits="userSpaceOnUse">
<stop stop-color="#F2244B"/>
<stop offset="1" stop-color="#F77248"/>
</linearGradient>
</defs>
</svg>
