<svg width="48" height="48" viewBox="0 0 48 48" fill="none" xmlns="http://www.w3.org/2000/svg">
<rect width="48" height="48" rx="11" fill="#F6F6F5"/>
<path d="M34 18L32.0133 19.9867L28.0133 15.9867L30 14C30.56 13.44 31.28 13.1733 32 13.1733C32.72 13.1733 33.44 13.44 34 14C35.1067 15.1067 35.1067 16.8933 34 18Z" fill="url(#paint0_linear_156_465)"/>
<path d="M31.08 20.9333L16.6667 35.3333C15.56 36.44 13.7733 36.44 12.6667 35.3333C11.56 34.2267 11.56 32.44 12.6667 31.3333L27.08 16.9333L31.08 20.9333Z" fill="url(#paint1_linear_156_465)"/>
<path d="M21.2667 12.6667L21.8133 10.8134C21.8667 10.64 21.8133 10.4534 21.6933 10.32C21.5733 10.1867 21.36 10.1334 21.1867 10.1867L19.3333 10.7334L17.48 10.1867C17.3067 10.1334 17.12 10.1867 16.9867 10.3067C16.8533 10.44 16.8133 10.6267 16.8667 10.8L17.4 12.6667L16.8533 14.52C16.8 14.6934 16.8533 14.88 16.9733 15.0134C17.1067 15.1467 17.2933 15.1867 17.4667 15.1334L19.3333 14.6L21.1867 15.1467C21.24 15.16 21.28 15.1734 21.3333 15.1734C21.4667 15.1734 21.5867 15.12 21.6933 15.0267C21.8267 14.8934 21.8667 14.7067 21.8133 14.5334L21.2667 12.6667Z" fill="url(#paint2_linear_156_465)"/>
<path d="M15.9333 20.6667L16.48 18.8134C16.5333 18.64 16.48 18.4534 16.36 18.32C16.2267 18.1867 16.04 18.1467 15.8667 18.2L14 18.7334L12.1467 18.1867C11.9733 18.1334 11.7867 18.1867 11.6533 18.3067C11.52 18.44 11.48 18.6267 11.5333 18.8L12.0667 20.6667L11.52 22.52C11.4667 22.6934 11.52 22.88 11.64 23.0134C11.7733 23.1467 11.96 23.1867 12.1333 23.1334L13.9867 22.5867L15.84 23.1334C15.88 23.1467 15.9333 23.1467 15.9867 23.1467C16.12 23.1467 16.24 23.0934 16.3467 23C16.48 22.8667 16.52 22.68 16.4667 22.5067L15.9333 20.6667Z" fill="url(#paint3_linear_156_465)"/>
<path d="M35.9333 27.3333L36.48 25.4799C36.5333 25.3066 36.48 25.1199 36.36 24.9866C36.2267 24.8533 36.04 24.8133 35.8667 24.8666L34.0133 25.4133L32.16 24.8666C31.9867 24.8133 31.8 24.8666 31.6667 24.9866C31.5333 25.1199 31.4933 25.3066 31.5467 25.4799L32.0933 27.3333L31.5467 29.1866C31.4933 29.3599 31.5467 29.5466 31.6667 29.6799C31.8 29.8133 31.9867 29.8533 32.16 29.7999L34.0133 29.2533L35.8667 29.7999C35.9067 29.8133 35.96 29.8133 36.0133 29.8133C36.1467 29.8133 36.2667 29.7599 36.3733 29.6666C36.5067 29.5333 36.5467 29.3466 36.4933 29.1733L35.9333 27.3333Z" fill="url(#paint4_linear_156_465)"/>
<defs>
<linearGradient id="paint0_linear_156_465" x1="28.0039" y1="19.981" x2="34.8638" y2="13.2146" gradientUnits="userSpaceOnUse">
<stop stop-color="#F2244B"/>
<stop offset="1" stop-color="#F77248"/>
</linearGradient>
<linearGradient id="paint1_linear_156_465" x1="11.8101" y1="36.1472" x2="31.1716" y2="17.0458" gradientUnits="userSpaceOnUse">
<stop stop-color="#F2244B"/>
<stop offset="1" stop-color="#F77248"/>
</linearGradient>
<linearGradient id="paint2_linear_156_465" x1="16.8258" y1="15.1692" x2="21.8672" y2="10.2026" gradientUnits="userSpaceOnUse">
<stop stop-color="#F2244B"/>
<stop offset="1" stop-color="#F77248"/>
</linearGradient>
<linearGradient id="paint3_linear_156_465" x1="11.4924" y1="23.152" x2="16.5168" y2="18.1875" gradientUnits="userSpaceOnUse">
<stop stop-color="#F2244B"/>
<stop offset="1" stop-color="#F77248"/>
</linearGradient>
<linearGradient id="paint4_linear_156_465" x1="31.5169" y1="29.8186" x2="36.5301" y2="24.8629" gradientUnits="userSpaceOnUse">
<stop stop-color="#F2244B"/>
<stop offset="1" stop-color="#F77248"/>
</linearGradient>
</defs>
</svg>
