<svg width="49" height="48" viewBox="0 0 49 48" fill="none" xmlns="http://www.w3.org/2000/svg">
<rect x="0.5" width="48" height="48" rx="11" fill="#F6F6F5"/>
<path d="M23.68 34.6933C30.3148 34.6933 35.6933 29.3147 35.6933 22.68C35.6933 16.0452 30.3148 10.6666 23.68 10.6666C17.0452 10.6666 11.6667 16.0452 11.6667 22.68C11.6667 29.3147 17.0452 34.6933 23.68 34.6933Z" fill="url(#paint0_linear_156_459)"/>
<path d="M38.32 33.2667C37.88 32.4533 36.9467 32 35.6933 32C34.7467 32 33.9333 32.3867 33.4533 33.0533C32.9733 33.72 32.8667 34.6133 33.16 35.5067C33.7333 37.24 34.7333 37.6267 35.28 37.6933C35.36 37.7067 35.44 37.7067 35.5333 37.7067C36.12 37.7067 37.0267 37.4533 37.9067 36.1333C38.6133 35.1067 38.7467 34.08 38.32 33.2667Z" fill="url(#paint1_linear_156_459)"/>
<defs>
<linearGradient id="paint0_linear_156_459" x1="11.6336" y1="34.6731" x2="35.8242" y2="10.8239" gradientUnits="userSpaceOnUse">
<stop stop-color="#F2244B"/>
<stop offset="1" stop-color="#F77248"/>
</linearGradient>
<linearGradient id="paint1_linear_156_459" x1="32.9897" y1="37.7019" x2="38.7314" y2="32.1809" gradientUnits="userSpaceOnUse">
<stop stop-color="#F2244B"/>
<stop offset="1" stop-color="#F77248"/>
</linearGradient>
</defs>
</svg>
