<svg width="48" height="48" viewBox="0 0 48 48" fill="none" xmlns="http://www.w3.org/2000/svg">
<rect width="48" height="48" rx="11" fill="#F6F6F5"/>
<path d="M30.6667 38.3334H17.3333C16.7867 38.3334 16.3333 37.88 16.3333 37.3334C16.3333 36.7867 16.7867 36.3334 17.3333 36.3334H30.6667C31.2133 36.3334 31.6667 36.7867 31.6667 37.3334C31.6667 37.88 31.2133 38.3334 30.6667 38.3334Z" fill="url(#paint0_linear_156_454)"/>
<path d="M32 10.6666H16C13.0533 10.6666 10.6667 13.0533 10.6667 16V28C10.6667 30.9466 13.0533 33.3333 16 33.3333H32C34.9467 33.3333 37.3333 30.9466 37.3333 28V16C37.3333 13.0533 34.9467 10.6666 32 10.6666ZM21.32 17.76C22.0667 17.76 22.6667 18.36 22.6667 19.0933C22.6667 19.8266 22.0667 20.4266 21.3333 20.4266C20.6 20.4266 20 19.8266 20 19.0933C20 18.36 20.5867 17.76 21.32 17.76ZM17.12 17.76C17.8667 17.76 18.4667 18.36 18.4667 19.0933C18.4667 19.8266 17.8667 20.4266 17.1333 20.4266C16.4 20.4266 15.8 19.8266 15.8 19.0933C15.8 18.36 16.3733 17.76 17.12 17.76ZM31.0133 27.8133H17.0133C16.4533 27.8133 16 27.36 16 26.8133C16 26.2666 16.44 25.8133 16.9867 25.8133H31.0267C31.5733 25.8133 32.0267 26.2666 32.0267 26.8133C32.0267 27.36 31.5733 27.8133 31.0133 27.8133ZM31.0133 20.0933H26.1067C25.56 20.0933 25.1067 19.64 25.1067 19.0933C25.1067 18.5466 25.56 18.0933 26.1067 18.0933H31.0133C31.56 18.0933 32.0133 18.5466 32.0133 19.0933C32.0133 19.64 31.5733 20.0933 31.0133 20.0933Z" fill="url(#paint1_linear_156_454)"/>
<defs>
<linearGradient id="paint0_linear_156_454" x1="16.3122" y1="38.3317" x2="16.8359" y2="34.3733" gradientUnits="userSpaceOnUse">
<stop stop-color="#F2244B"/>
<stop offset="1" stop-color="#F77248"/>
</linearGradient>
<linearGradient id="paint1_linear_156_454" x1="10.6299" y1="33.3143" x2="33.2049" y2="7.13032" gradientUnits="userSpaceOnUse">
<stop stop-color="#F2244B"/>
<stop offset="1" stop-color="#F77248"/>
</linearGradient>
</defs>
</svg>
