<svg width="42" height="42" viewBox="0 0 42 42" fill="none" xmlns="http://www.w3.org/2000/svg">
<path d="M20.8089 3.79675C11.2414 3.79675 3.47652 11.5617 3.47652 21.1292C3.47652 30.6966 11.2414 38.4616 20.8089 38.4616C30.3764 38.4616 38.1413 30.6966 38.1413 21.1292C38.1413 11.5617 30.3764 3.79675 20.8089 3.79675ZM25.4193 24.1277L23.2008 25.4103L20.9822 26.6929C18.1224 28.3394 15.7825 26.9875 15.7825 23.6943V21.1292V18.564C15.7825 15.2535 18.1224 13.9189 20.9822 15.5655L23.2008 16.8481L25.4193 18.1306C28.2792 19.7772 28.2792 22.4811 25.4193 24.1277Z" fill="url(#paint0_linear_156_514)"/>
<defs>
<linearGradient id="paint0_linear_156_514" x1="3.42874" y1="38.4325" x2="38.3302" y2="4.02363" gradientUnits="userSpaceOnUse">
<stop stop-color="#F2244B"/>
<stop offset="1" stop-color="#F77248"/>
</linearGradient>
</defs>
</svg>
