<svg width="32" height="32" viewBox="0 0 32 32" fill="none" xmlns="http://www.w3.org/2000/svg">
<path d="M17.852 6.94671L19.732 10.7067C19.9854 11.2267 20.6654 11.72 21.2387 11.8267L24.6387 12.3867C26.812 12.7467 27.3187 14.32 25.7587 15.8934L23.1054 18.5467C22.6654 18.9867 22.412 19.8534 22.5587 20.48L23.3187 23.76C23.9187 26.3467 22.532 27.36 20.252 26L17.0654 24.1067C16.492 23.76 15.532 23.76 14.9587 24.1067L11.772 26C9.49204 27.3467 8.10537 26.3467 8.70537 23.76L9.46537 20.48C9.58537 19.84 9.33204 18.9734 8.89204 18.5334L6.2387 15.88C4.6787 14.32 5.18537 12.7467 7.3587 12.3734L10.7587 11.8134C11.332 11.72 12.012 11.2134 12.2654 10.6934L14.1454 6.93338C15.172 4.90671 16.8254 4.90671 17.852 6.94671Z" fill="url(#paint0_linear_156_408)"/>
<defs>
<linearGradient id="paint0_linear_156_408" x1="5.30336" y1="26.5871" x2="26.6394" y2="5.41119" gradientUnits="userSpaceOnUse">
<stop stop-color="#F2244B"/>
<stop offset="1" stop-color="#F77248"/>
</linearGradient>
</defs>
</svg>
