<svg width="34" height="33" viewBox="0 0 34 33" fill="none" xmlns="http://www.w3.org/2000/svg">
<path d="M32.1638 11.8744L22.3763 10.4519L18.0011 1.58193C17.8816 1.33907 17.685 1.14248 17.4421 1.02298C16.833 0.722298 16.0929 0.972863 15.7884 1.58193L11.4131 10.4519L1.62565 11.8744C1.35581 11.9129 1.1091 12.0401 0.920212 12.2329C0.691857 12.4676 0.566023 12.7834 0.57036 13.1108C0.574697 13.4382 0.70885 13.7506 0.943341 13.9791L8.0247 20.8832L6.3517 30.6321C6.31247 30.8589 6.33756 31.0921 6.42414 31.3054C6.51072 31.5186 6.65531 31.7033 6.84153 31.8386C7.02775 31.9738 7.24813 32.0542 7.4777 32.0705C7.70727 32.0869 7.93683 32.0386 8.14035 31.9312L16.8947 27.3285L25.6491 31.9312C25.8881 32.0584 26.1656 32.1008 26.4316 32.0545C27.1024 31.9389 27.5534 31.3028 27.4377 30.6321L25.7647 20.8832L32.8461 13.9791C33.0388 13.7902 33.166 13.5435 33.2046 13.2737C33.3087 12.5991 32.8384 11.9746 32.1638 11.8744Z" fill="#FDA202"/>
</svg>
