<svg width="61" height="102" viewBox="0 0 61 102" fill="none" xmlns="http://www.w3.org/2000/svg">
<path d="M5.98369 74.5904C3.98311 73.4222 2.98957 71.8886 3.00307 70.3575C3.01638 68.8469 4.00992 67.3387 5.98369 66.1862L12.8434 62.1805L23.0056 56.2464C26.9799 53.9257 33.4236 53.9257 37.398 56.2464L49.6295 63.3889L54.4199 66.1862C56.3936 67.3387 57.3872 68.8469 57.4005 70.3575C57.414 71.8886 56.4204 73.4222 54.4198 74.5904L37.398 84.5301C33.4236 86.8509 26.9799 86.8509 23.0056 84.5301L5.98369 74.5904Z" fill="#DFDFDF"/>
<path d="M5.98369 74.5904C3.98311 73.4222 2.98957 71.8886 3.00307 70.3575C3.01638 68.8469 4.00992 67.3387 5.98369 66.1862L12.8434 62.1805L23.0056 56.2464C26.9799 53.9257 33.4236 53.9257 37.398 56.2464L49.6295 63.3889L54.4199 66.1862C56.3936 67.3387 57.3872 68.8469 57.4005 70.3575C57.414 71.8886 56.4204 73.4222 54.4198 74.5904L37.398 84.5301C33.4236 86.8509 26.9799 86.8509 23.0056 84.5301L5.98369 74.5904Z" fill="url(#paint0_linear_783_5763)" fill-opacity="0.8"/>
<path d="M3.00307 70.3575C3.01638 68.8469 4.00992 67.3387 5.98369 66.1862L12.8434 62.1805L3.00307 58.6718L3.00307 70.3575Z" fill="#DFDFDF"/>
<path d="M3.00307 70.3575C3.01638 68.8469 4.00992 67.3387 5.98369 66.1862L12.8434 62.1805L3.00307 58.6718L3.00307 70.3575Z" fill="url(#paint1_linear_783_5763)" fill-opacity="0.8"/>
<path d="M54.4199 66.1862C56.3936 67.3387 57.3872 68.8469 57.4005 70.3575L57.4005 58.6718L49.6295 63.3889L54.4199 66.1862Z" fill="#DFDFDF"/>
<path d="M54.4199 66.1862C56.3936 67.3387 57.3872 68.8469 57.4005 70.3575L57.4005 58.6718L49.6295 63.3889L54.4199 66.1862Z" fill="url(#paint2_linear_783_5763)" fill-opacity="0.8"/>
<path d="M5.98369 62.9009C2.00934 60.5802 2.00934 56.8175 5.98369 54.4967L23.0056 44.557C26.9799 42.2362 33.4236 42.2362 37.398 44.557L54.4199 54.4967C58.3942 56.8175 58.3942 60.5802 54.4198 62.9009L37.398 72.8407C33.4236 75.1614 26.9799 75.1614 23.0056 72.8407L5.98369 62.9009Z" fill="#C4C4C4"/>
<path d="M5.98369 62.9009C2.00934 60.5802 2.00934 56.8175 5.98369 54.4967L23.0056 44.557C26.9799 42.2362 33.4236 42.2362 37.398 44.557L54.4199 54.4967C58.3942 56.8175 58.3942 60.5802 54.4198 62.9009L37.398 72.8407C33.4236 75.1614 26.9799 75.1614 23.0056 72.8407L5.98369 62.9009Z" fill="white"/>
<path d="M5.98369 62.9009C2.00934 60.5802 2.00934 56.8175 5.98369 54.4967L23.0056 44.557C26.9799 42.2362 33.4236 42.2362 37.398 44.557L54.4199 54.4967C58.3942 56.8175 58.3942 60.5802 54.4198 62.9009L37.398 72.8407C33.4236 75.1614 26.9799 75.1614 23.0056 72.8407L5.98369 62.9009Z" fill="url(#paint3_linear_783_5763)" fill-opacity="0.15"/>
<path d="M5.98369 62.9009C2.00934 60.5802 2.00934 56.8175 5.98369 54.4967L23.0056 44.557C26.9799 42.2362 33.4236 42.2362 37.398 44.557L54.4199 54.4967C58.3942 56.8175 58.3942 60.5802 54.4198 62.9009L37.398 72.8407C33.4236 75.1614 26.9799 75.1614 23.0056 72.8407L5.98369 62.9009Z" fill="white"/>
<path d="M5.98369 62.9009C2.00934 60.5802 2.00934 56.8175 5.98369 54.4967L23.0056 44.557C26.9799 42.2362 33.4236 42.2362 37.398 44.557L54.4199 54.4967C58.3942 56.8175 58.3942 60.5802 54.4198 62.9009L37.398 72.8407C33.4236 75.1614 26.9799 75.1614 23.0056 72.8407L5.98369 62.9009Z" fill="url(#paint4_linear_783_5763)" fill-opacity="0.65"/>
<path d="M55.7523 68.1716C55.7523 69.5704 54.7703 71.2713 53.5589 71.9707C52.3475 72.6701 51.3655 72.1031 51.3655 70.7043C51.3655 69.3056 52.3475 67.6047 53.5589 66.9053C54.7703 66.2059 55.7523 66.7729 55.7523 68.1716Z" fill="white" fill-opacity="0.65"/>
<path fill-rule="evenodd" clip-rule="evenodd" d="M40.9482 75.7462L49.7626 70.6572L49.7626 72.6031L40.9482 77.6921L40.9482 75.7462Z" fill="white" fill-opacity="0.65"/>
<path d="M5.98369 60.1763C3.98311 59.0081 2.98957 57.4746 3.00307 55.9434C3.01638 54.4328 4.00992 52.9246 5.98369 51.7721L12.8434 47.7665L23.0056 41.8324C26.9799 39.5116 33.4236 39.5116 37.398 41.8324L49.6295 48.9748L54.4199 51.7721C56.3936 52.9246 57.3872 54.4328 57.4005 55.9434C57.414 57.4746 56.4204 59.0081 54.4198 60.1763L37.398 70.1161C33.4236 72.4368 26.9799 72.4368 23.0056 70.1161L5.98369 60.1763Z" fill="#DFDFDF"/>
<path d="M5.98369 60.1763C3.98311 59.0081 2.98957 57.4746 3.00307 55.9434C3.01638 54.4328 4.00992 52.9246 5.98369 51.7721L12.8434 47.7665L23.0056 41.8324C26.9799 39.5116 33.4236 39.5116 37.398 41.8324L49.6295 48.9748L54.4199 51.7721C56.3936 52.9246 57.3872 54.4328 57.4005 55.9434C57.414 57.4746 56.4204 59.0081 54.4198 60.1763L37.398 70.1161C33.4236 72.4368 26.9799 72.4368 23.0056 70.1161L5.98369 60.1763Z" fill="url(#paint5_linear_783_5763)" fill-opacity="0.8"/>
<path d="M3.00307 55.9434C3.01638 54.4328 4.00992 52.9246 5.98369 51.7721L12.8434 47.7665L3.00307 44.2577L3.00307 55.9434Z" fill="#DFDFDF"/>
<path d="M3.00307 55.9434C3.01638 54.4328 4.00992 52.9246 5.98369 51.7721L12.8434 47.7665L3.00307 44.2577L3.00307 55.9434Z" fill="url(#paint6_linear_783_5763)" fill-opacity="0.8"/>
<path d="M54.4199 51.7721C56.3936 52.9246 57.3872 54.4328 57.4005 55.9434L57.4005 44.2577L49.6295 48.9748L54.4199 51.7721Z" fill="#DFDFDF"/>
<path d="M54.4199 51.7721C56.3936 52.9246 57.3872 54.4328 57.4005 55.9434L57.4005 44.2577L49.6295 48.9748L54.4199 51.7721Z" fill="url(#paint7_linear_783_5763)" fill-opacity="0.8"/>
<path d="M5.98369 48.4879C2.00934 46.1671 2.00934 42.4044 5.98369 40.0836L23.0056 30.1439C26.9799 27.8231 33.4236 27.8231 37.398 30.1439L54.4199 40.0836C58.3942 42.4044 58.3942 46.1671 54.4198 48.4879L37.398 58.4276C33.4236 60.7483 26.9799 60.7483 23.0056 58.4276L5.98369 48.4879Z" fill="white"/>
<path d="M5.98369 48.4879C2.00934 46.1671 2.00934 42.4044 5.98369 40.0836L23.0056 30.1439C26.9799 27.8231 33.4236 27.8231 37.398 30.1439L54.4199 40.0836C58.3942 42.4044 58.3942 46.1671 54.4198 48.4879L37.398 58.4276C33.4236 60.7483 26.9799 60.7483 23.0056 58.4276L5.98369 48.4879Z" fill="url(#paint8_linear_783_5763)" fill-opacity="0.65"/>
<path d="M55.7523 53.7581C55.7523 55.1568 54.7703 56.8577 53.5589 57.5571C52.3475 58.2565 51.3655 57.6895 51.3655 56.2908C51.3655 54.892 52.3475 53.1911 53.5589 52.4917C54.7703 51.7923 55.7523 52.3593 55.7523 53.7581Z" fill="white" fill-opacity="0.65"/>
<path fill-rule="evenodd" clip-rule="evenodd" d="M40.9482 61.3326L49.7626 56.2436L49.7626 58.1895L40.9482 63.2785L40.9482 61.3326Z" fill="white" fill-opacity="0.65"/>
<path d="M5.98076 45.773C3.98018 44.6048 2.98664 43.0712 3.00014 41.5401C3.01345 40.0295 4.00699 38.5213 5.98076 37.3688L12.8404 33.3632L23.0026 27.4291C26.977 25.1083 33.4207 25.1083 37.395 27.4291L49.6266 34.5715L54.4169 37.3688C56.3907 38.5213 57.3842 40.0295 57.3975 41.5401C57.411 43.0712 56.4175 44.6048 54.4169 45.773L37.395 55.7127C33.4207 58.0335 26.977 58.0335 23.0026 55.7127L5.98076 45.773Z" fill="#C4C4C4"/>
<path d="M5.98076 45.773C3.98018 44.6048 2.98664 43.0712 3.00014 41.5401C3.01345 40.0295 4.00699 38.5213 5.98076 37.3688L12.8404 33.3632L23.0026 27.4291C26.977 25.1083 33.4207 25.1083 37.395 27.4291L49.6266 34.5715L54.4169 37.3688C56.3907 38.5213 57.3842 40.0295 57.3975 41.5401C57.411 43.0712 56.4175 44.6048 54.4169 45.773L37.395 55.7127C33.4207 58.0335 26.977 58.0335 23.0026 55.7127L5.98076 45.773Z" fill="white"/>
<path d="M5.98076 45.773C3.98018 44.6048 2.98664 43.0712 3.00014 41.5401C3.01345 40.0295 4.00699 38.5213 5.98076 37.3688L12.8404 33.3632L23.0026 27.4291C26.977 25.1083 33.4207 25.1083 37.395 27.4291L49.6266 34.5715L54.4169 37.3688C56.3907 38.5213 57.3842 40.0295 57.3975 41.5401C57.411 43.0712 56.4175 44.6048 54.4169 45.773L37.395 55.7127C33.4207 58.0335 26.977 58.0335 23.0026 55.7127L5.98076 45.773Z" fill="url(#paint9_linear_783_5763)" fill-opacity="0.3"/>
<path d="M5.98076 45.773C3.98018 44.6048 2.98664 43.0712 3.00014 41.5401C3.01345 40.0295 4.00699 38.5213 5.98076 37.3688L12.8404 33.3632L23.0026 27.4291C26.977 25.1083 33.4207 25.1083 37.395 27.4291L49.6266 34.5715L54.4169 37.3688C56.3907 38.5213 57.3842 40.0295 57.3975 41.5401C57.411 43.0712 56.4175 44.6048 54.4169 45.773L37.395 55.7127C33.4207 58.0335 26.977 58.0335 23.0026 55.7127L5.98076 45.773Z" fill="#DFDFDF"/>
<path d="M5.98076 45.773C3.98018 44.6048 2.98664 43.0712 3.00014 41.5401C3.01345 40.0295 4.00699 38.5213 5.98076 37.3688L12.8404 33.3632L23.0026 27.4291C26.977 25.1083 33.4207 25.1083 37.395 27.4291L49.6266 34.5715L54.4169 37.3688C56.3907 38.5213 57.3842 40.0295 57.3975 41.5401C57.411 43.0712 56.4175 44.6048 54.4169 45.773L37.395 55.7127C33.4207 58.0335 26.977 58.0335 23.0026 55.7127L5.98076 45.773Z" fill="url(#paint10_linear_783_5763)" fill-opacity="0.8"/>
<path d="M3.00014 41.5401C3.01345 40.0295 4.00699 38.5213 5.98076 37.3688L12.8404 33.3632L3.00014 29.8544L3.00014 41.5401Z" fill="#C4C4C4"/>
<path d="M3.00014 41.5401C3.01345 40.0295 4.00699 38.5213 5.98076 37.3688L12.8404 33.3632L3.00014 29.8544L3.00014 41.5401Z" fill="white"/>
<path d="M3.00014 41.5401C3.01345 40.0295 4.00699 38.5213 5.98076 37.3688L12.8404 33.3632L3.00014 29.8544L3.00014 41.5401Z" fill="url(#paint11_linear_783_5763)" fill-opacity="0.3"/>
<path d="M3.00014 41.5401C3.01345 40.0295 4.00699 38.5213 5.98076 37.3688L12.8404 33.3632L3.00014 29.8544L3.00014 41.5401Z" fill="#DFDFDF"/>
<path d="M3.00014 41.5401C3.01345 40.0295 4.00699 38.5213 5.98076 37.3688L12.8404 33.3632L3.00014 29.8544L3.00014 41.5401Z" fill="url(#paint12_linear_783_5763)" fill-opacity="0.8"/>
<path d="M54.4169 37.3688C56.3907 38.5213 57.3842 40.0295 57.3975 41.5401L57.3975 29.8544L49.6266 34.5715L54.4169 37.3688Z" fill="#C4C4C4"/>
<path d="M54.4169 37.3688C56.3907 38.5213 57.3842 40.0295 57.3975 41.5401L57.3975 29.8544L49.6266 34.5715L54.4169 37.3688Z" fill="white"/>
<path d="M54.4169 37.3688C56.3907 38.5213 57.3842 40.0295 57.3975 41.5401L57.3975 29.8544L49.6266 34.5715L54.4169 37.3688Z" fill="url(#paint13_linear_783_5763)" fill-opacity="0.3"/>
<path d="M54.4169 37.3688C56.3907 38.5213 57.3842 40.0295 57.3975 41.5401L57.3975 29.8544L49.6266 34.5715L54.4169 37.3688Z" fill="#DFDFDF"/>
<path d="M54.4169 37.3688C56.3907 38.5213 57.3842 40.0295 57.3975 41.5401L57.3975 29.8544L49.6266 34.5715L54.4169 37.3688Z" fill="url(#paint14_linear_783_5763)" fill-opacity="0.8"/>
<path d="M5.98076 34.0845C2.00641 31.7638 2.00641 28.0011 5.98076 25.6803L23.0027 15.7406C26.977 13.4198 33.4207 13.4198 37.395 15.7406L54.4169 25.6803C58.3913 28.0011 58.3913 31.7638 54.4169 34.0845L37.395 44.0243C33.4207 46.345 26.977 46.345 23.0026 44.0243L5.98076 34.0845Z" fill="white"/>
<path d="M5.98076 34.0845C2.00641 31.7638 2.00641 28.0011 5.98076 25.6803L23.0027 15.7406C26.977 13.4198 33.4207 13.4198 37.395 15.7406L54.4169 25.6803C58.3913 28.0011 58.3913 31.7638 54.4169 34.0845L37.395 44.0243C33.4207 46.345 26.977 46.345 23.0026 44.0243L5.98076 34.0845Z" fill="url(#paint15_linear_783_5763)" fill-opacity="0.65"/>
<path d="M55.7494 39.3542C55.7494 40.753 54.7673 42.4539 53.556 43.1533C52.3446 43.8527 51.3626 43.2857 51.3626 41.887C51.3626 40.4882 52.3446 38.7873 53.556 38.0879C54.7673 37.3885 55.7494 37.9555 55.7494 39.3542Z" fill="white" fill-opacity="0.65"/>
<path fill-rule="evenodd" clip-rule="evenodd" d="M40.9453 46.9288L49.7597 41.8398L49.7597 43.7857L40.9453 48.8747L40.9453 46.9288Z" fill="white" fill-opacity="0.65"/>
<defs>
<linearGradient id="paint0_linear_783_5763" x1="25.7054" y1="62.4291" x2="42.4894" y2="92.4269" gradientUnits="userSpaceOnUse">
<stop stop-color="#9EC1D5" stop-opacity="0.36"/>
<stop offset="1" stop-color="#9FB1CB"/>
</linearGradient>
<linearGradient id="paint1_linear_783_5763" x1="25.7054" y1="62.4291" x2="42.4894" y2="92.4269" gradientUnits="userSpaceOnUse">
<stop stop-color="#9EC1D5" stop-opacity="0.36"/>
<stop offset="1" stop-color="#9FB1CB"/>
</linearGradient>
<linearGradient id="paint2_linear_783_5763" x1="25.7054" y1="62.4291" x2="42.4894" y2="92.4269" gradientUnits="userSpaceOnUse">
<stop stop-color="#9EC1D5" stop-opacity="0.36"/>
<stop offset="1" stop-color="#9FB1CB"/>
</linearGradient>
<linearGradient id="paint3_linear_783_5763" x1="3.23966" y1="54.3738" x2="46.8346" y2="29.7281" gradientUnits="userSpaceOnUse">
<stop stop-color="#BDC6CB" stop-opacity="0.36"/>
<stop offset="1" stop-color="#B7BEC8"/>
</linearGradient>
<linearGradient id="paint4_linear_783_5763" x1="20.451" y1="32.2048" x2="33.8938" y2="95.5491" gradientUnits="userSpaceOnUse">
<stop stop-color="#9EC1D5" stop-opacity="0.36"/>
<stop offset="1" stop-color="#9FB1CB"/>
</linearGradient>
<linearGradient id="paint5_linear_783_5763" x1="25.7054" y1="48.015" x2="42.4894" y2="78.0128" gradientUnits="userSpaceOnUse">
<stop stop-color="#9EC1D5" stop-opacity="0.36"/>
<stop offset="1" stop-color="#9FB1CB"/>
</linearGradient>
<linearGradient id="paint6_linear_783_5763" x1="25.7054" y1="48.015" x2="42.4894" y2="78.0128" gradientUnits="userSpaceOnUse">
<stop stop-color="#9EC1D5" stop-opacity="0.36"/>
<stop offset="1" stop-color="#9FB1CB"/>
</linearGradient>
<linearGradient id="paint7_linear_783_5763" x1="25.7054" y1="48.015" x2="42.4894" y2="78.0128" gradientUnits="userSpaceOnUse">
<stop stop-color="#9EC1D5" stop-opacity="0.36"/>
<stop offset="1" stop-color="#9FB1CB"/>
</linearGradient>
<linearGradient id="paint8_linear_783_5763" x1="20.451" y1="17.7918" x2="33.8938" y2="81.136" gradientUnits="userSpaceOnUse">
<stop stop-color="#9EC1D5" stop-opacity="0.36"/>
<stop offset="1" stop-color="#9FB1CB"/>
</linearGradient>
<linearGradient id="paint9_linear_783_5763" x1="39.9734" y1="44.5767" x2="21.8461" y2="65.176" gradientUnits="userSpaceOnUse">
<stop stop-color="#CCD1D3" stop-opacity="0.36"/>
<stop offset="1" stop-color="#C3C6CA"/>
</linearGradient>
<linearGradient id="paint10_linear_783_5763" x1="25.7024" y1="33.6117" x2="42.4864" y2="63.6095" gradientUnits="userSpaceOnUse">
<stop stop-color="#9EC1D5" stop-opacity="0.36"/>
<stop offset="1" stop-color="#9FB1CB"/>
</linearGradient>
<linearGradient id="paint11_linear_783_5763" x1="39.9734" y1="44.5767" x2="21.8461" y2="65.176" gradientUnits="userSpaceOnUse">
<stop stop-color="#CCD1D3" stop-opacity="0.36"/>
<stop offset="1" stop-color="#C3C6CA"/>
</linearGradient>
<linearGradient id="paint12_linear_783_5763" x1="25.7024" y1="33.6117" x2="42.4864" y2="63.6095" gradientUnits="userSpaceOnUse">
<stop stop-color="#9EC1D5" stop-opacity="0.36"/>
<stop offset="1" stop-color="#9FB1CB"/>
</linearGradient>
<linearGradient id="paint13_linear_783_5763" x1="39.9734" y1="44.5767" x2="21.8461" y2="65.176" gradientUnits="userSpaceOnUse">
<stop stop-color="#CCD1D3" stop-opacity="0.36"/>
<stop offset="1" stop-color="#C3C6CA"/>
</linearGradient>
<linearGradient id="paint14_linear_783_5763" x1="25.7024" y1="33.6117" x2="42.4864" y2="63.6095" gradientUnits="userSpaceOnUse">
<stop stop-color="#9EC1D5" stop-opacity="0.36"/>
<stop offset="1" stop-color="#9FB1CB"/>
</linearGradient>
<linearGradient id="paint15_linear_783_5763" x1="20.4481" y1="3.38844" x2="33.8909" y2="66.7327" gradientUnits="userSpaceOnUse">
<stop stop-color="#9EC1D5" stop-opacity="0.36"/>
<stop offset="1" stop-color="#9FB1CB"/>
</linearGradient>
</defs>
</svg>
