<svg width="61" height="102" viewBox="0 0 61 102" fill="none" xmlns="http://www.w3.org/2000/svg">
<path d="M24.6852 20.1939L34.9884 26.124L33.02 32.5141L49.396 26.6458L59.6621 32.5509L29.2745 46.4275L31.2019 64.5716L22.3228 68.2806L19.7257 89.1249L9.51196 83.2289L11.2922 62.9351L4.55753e-07 55.1331L16.4512 41.776L24.6852 20.1939Z" fill="white"/>
<path d="M24.6852 20.1939L34.9884 26.124L33.02 32.5141L49.396 26.6458L59.6621 32.5509L29.2745 46.4275L31.2019 64.5716L22.3228 68.2806L19.7257 89.1249L9.51196 83.2289L11.2922 62.9351L4.55753e-07 55.1331L16.4512 41.776L24.6852 20.1939Z" fill="url(#paint0_linear_783_5762)" fill-opacity="0.75"/>
<path d="M34.9588 26.0855L43.202 38.2136L59.6583 32.5466L48.2966 53.3773L50.224 71.5214L34.9588 72.2673L19.6937 89.148L21.6211 68.7783L10.2594 61.0671L26.7157 47.732L34.9588 26.0855Z" fill="white"/>
<path d="M34.9588 26.0855L43.202 38.2136L59.6583 32.5466L48.2966 53.3773L50.224 71.5214L34.9588 72.2673L19.6937 89.148L21.6211 68.7783L10.2594 61.0671L26.7157 47.732L34.9588 26.0855Z" fill="url(#paint1_linear_783_5762)" fill-opacity="0.75"/>
<defs>
<linearGradient id="paint0_linear_783_5762" x1="13.6178" y1="8.33634" x2="58.0377" y2="41.2887" gradientUnits="userSpaceOnUse">
<stop stop-color="#FFD977"/>
<stop offset="1" stop-color="#FF8D07"/>
</linearGradient>
<linearGradient id="paint1_linear_783_5762" x1="5.99751" y1="63.1939" x2="70.4397" y2="78.3375" gradientUnits="userSpaceOnUse">
<stop stop-color="#FFD977"/>
<stop offset="1" stop-color="#FF8D07"/>
</linearGradient>
</defs>
</svg>
