<svg width="111" height="82" viewBox="0 0 111 82" fill="none" xmlns="http://www.w3.org/2000/svg">
<rect width="22.4471" height="7.61086" transform="matrix(0.866025 0.5 -0.866025 0.5 55.5615 2.50146)" fill="white"/>
<rect width="22.4471" height="7.61086" transform="matrix(0.866025 0.5 -0.866025 0.5 55.5615 2.50146)" fill="url(#paint0_linear_621_7816)" fill-opacity="0.75"/>
<path d="M75.0032 62.0144L75.0029 13.7241L68.4117 17.5296L68.412 65.8198L75.0032 62.0144Z" fill="white"/>
<path d="M75.0032 62.0144L75.0029 13.7241L68.4117 17.5296L68.412 65.8198L75.0032 62.0144Z" fill="url(#paint1_linear_621_7816)" fill-opacity="0.75"/>
<path d="M58.6914 37.2597L58.694 60.1557L68.4139 65.7675L68.4114 17.5331L48.9717 6.30957L48.9716 33.2844L58.6914 37.2597Z" fill="url(#paint2_linear_621_7816)" fill-opacity="0.4"/>
<path d="M58.6914 37.2597L58.694 60.1557L68.4139 65.7675L68.4114 17.5331L48.9717 6.30957L48.9716 33.2844L58.6914 37.2597Z" fill="white"/>
<path d="M58.6914 37.2597L58.694 60.1557L68.4139 65.7675L68.4114 17.5331L48.9717 6.30957L48.9716 33.2844L58.6914 37.2597Z" fill="url(#paint3_linear_621_7816)" fill-opacity="0.6"/>
<path d="M58.6914 37.2597L58.694 60.1557L68.4139 65.7675L68.4114 17.5331L48.9717 6.30957L48.9716 33.2844L58.6914 37.2597Z" fill="#FF835E"/>
<path d="M58.6914 37.2597L58.694 60.1557L68.4139 65.7675L68.4114 17.5331L48.9717 6.30957L48.9716 33.2844L58.6914 37.2597Z" fill="url(#paint4_linear_621_7816)" fill-opacity="0.75"/>
<path d="M58.6914 37.2597L58.694 60.1557L68.4139 65.7675L68.4114 17.5331L48.9717 6.30957L48.9716 33.2844L58.6914 37.2597Z" fill="#FAFFF2"/>
<path d="M58.6914 37.2597L58.694 60.1557L68.4139 65.7675L68.4114 17.5331L48.9717 6.30957L48.9716 33.2844L58.6914 37.2597Z" fill="url(#paint5_linear_621_7816)" fill-opacity="0.75"/>
<rect width="22.4471" height="7.61086" transform="matrix(0.866025 0.5 -0.866025 0.5 46.8359 16.7827)" fill="white"/>
<rect width="22.4471" height="7.61086" transform="matrix(0.866025 0.5 -0.866025 0.5 46.8359 16.7827)" fill="url(#paint6_linear_621_7816)" fill-opacity="0.75"/>
<path d="M66.2815 67.0324L66.2812 28.0054L59.6901 31.8108L59.6903 70.8378L66.2815 67.0324Z" fill="white"/>
<path d="M66.2815 67.0324L66.2812 28.0054L59.6901 31.8108L59.6903 70.8378L66.2815 67.0324Z" fill="url(#paint7_linear_621_7816)" fill-opacity="0.75"/>
<path d="M57.4113 69.444L59.6969 70.8266L59.6917 31.8144L40.252 20.5908L40.2519 31.0261L57.4046 40.8276L57.4113 69.444Z" fill="#FAFFF2"/>
<path d="M57.4113 69.444L59.6969 70.8266L59.6917 31.8144L40.252 20.5908L40.2519 31.0261L57.4046 40.8276L57.4113 69.444Z" fill="url(#paint8_linear_621_7816)" fill-opacity="0.75"/>
<rect width="22.4471" height="7.61086" transform="matrix(0.866025 0.5 -0.866025 0.5 37.96 29.6011)" fill="white"/>
<rect width="22.4471" height="7.61086" transform="matrix(0.866025 0.5 -0.866025 0.5 37.96 29.6011)" fill="url(#paint9_linear_621_7816)" fill-opacity="0.75"/>
<path d="M57.4016 72.1958L57.4014 40.8237L50.8102 44.6292L50.8104 76.0013L57.4016 72.1958Z" fill="url(#paint10_linear_621_7816)" fill-opacity="0.5"/>
<path d="M57.4016 72.1958L57.4014 40.8237L50.8102 44.6292L50.8104 76.0013L57.4016 72.1958Z" fill="white"/>
<path d="M57.4016 72.1958L57.4014 40.8237L50.8102 44.6292L50.8104 76.0013L57.4016 72.1958Z" fill="url(#paint11_linear_621_7816)" fill-opacity="0.75"/>
<path d="M47.4097 53.3698L47.4084 73.9957L50.8103 75.9686L50.8118 44.6327L31.3721 33.4092L31.372 44.1276L47.4097 53.3698Z" fill="#FAFFF2"/>
<path d="M47.4097 53.3698L47.4084 73.9957L50.8103 75.9686L50.8118 44.6327L31.3721 33.4092L31.372 44.1276L47.4097 53.3698Z" fill="url(#paint12_linear_621_7816)" fill-opacity="0.75"/>
<rect width="22.4471" height="7.61086" transform="matrix(0.866025 0.5 -0.866025 0.5 27.9805 42.1553)" fill="white"/>
<rect width="22.4471" height="7.61086" transform="matrix(0.866025 0.5 -0.866025 0.5 27.9805 42.1553)" fill="url(#paint13_linear_621_7816)" fill-opacity="0.75"/>
<path d="M47.4182 78.1038L47.418 53.3779L40.8268 57.1834L40.827 81.9093L47.4182 78.1038Z" fill="white"/>
<path d="M47.4182 78.1038L47.418 53.3779L40.8268 57.1834L40.827 81.9093L47.4182 78.1038Z" fill="url(#paint14_linear_621_7816)" fill-opacity="0.75"/>
<path d="M21.3874 70.6617L40.8271 81.8852L40.8313 57.1869L21.3916 45.9634L21.3874 70.6617Z" fill="#FAFFF2"/>
<path d="M21.3874 70.6617L40.8271 81.8852L40.8313 57.1869L21.3916 45.9634L21.3874 70.6617Z" fill="url(#paint15_linear_621_7816)" fill-opacity="0.75"/>
<path d="M18.0489 44.0376L38.5191 8.58221M38.5191 8.58221L28.6088 14.3039M38.5191 8.58221L38.5191 20.0256" stroke="white" stroke-width="5"/>
<defs>
<linearGradient id="paint0_linear_621_7816" x1="3.84992" y1="2.48078" x2="62.5826" y2="-28.3387" gradientUnits="userSpaceOnUse">
<stop offset="0.0001" stop-color="#BFE76C"/>
<stop offset="1" stop-color="#89C138"/>
</linearGradient>
<linearGradient id="paint1_linear_621_7816" x1="82.2126" y1="25.0693" x2="74.0008" y2="120.587" gradientUnits="userSpaceOnUse">
<stop stop-color="#C7E76C"/>
<stop offset="1" stop-color="#A9CA73"/>
</linearGradient>
<linearGradient id="paint2_linear_621_7816" x1="200.881" y1="39.3277" x2="100.666" y2="126.192" gradientUnits="userSpaceOnUse">
<stop stop-color="#CCD1D3" stop-opacity="0.36"/>
<stop offset="1" stop-color="#C3C6CA"/>
</linearGradient>
<linearGradient id="paint3_linear_621_7816" x1="67.6566" y1="6.30957" x2="58.6913" y2="48.3273" gradientUnits="userSpaceOnUse">
<stop stop-color="#CCD1D3" stop-opacity="0.36"/>
<stop offset="1" stop-color="#C3C6CA"/>
</linearGradient>
<linearGradient id="paint4_linear_621_7816" x1="76.9054" y1="63.641" x2="90.1092" y2="27.3697" gradientUnits="userSpaceOnUse">
<stop stop-color="#EE5222"/>
<stop offset="1" stop-color="#FF9559"/>
</linearGradient>
<linearGradient id="paint5_linear_621_7816" x1="35.5255" y1="-24.4465" x2="63.0116" y2="76.4032" gradientUnits="userSpaceOnUse">
<stop stop-color="#C6E07B"/>
<stop offset="1" stop-color="#9DC053"/>
</linearGradient>
<linearGradient id="paint6_linear_621_7816" x1="3.84992" y1="2.48078" x2="62.5826" y2="-28.3387" gradientUnits="userSpaceOnUse">
<stop offset="0.0001" stop-color="#BFE76C"/>
<stop offset="1" stop-color="#89C138"/>
</linearGradient>
<linearGradient id="paint7_linear_621_7816" x1="71.9455" y1="37.2681" x2="65.8859" y2="115.991" gradientUnits="userSpaceOnUse">
<stop stop-color="#C7E76C"/>
<stop offset="1" stop-color="#A9CA73"/>
</linearGradient>
<linearGradient id="paint8_linear_621_7816" x1="27.3495" y1="-5.45434" x2="49.5441" y2="81.2388" gradientUnits="userSpaceOnUse">
<stop stop-color="#C6E07B"/>
<stop offset="1" stop-color="#9DC053"/>
</linearGradient>
<linearGradient id="paint9_linear_621_7816" x1="3.84992" y1="2.48078" x2="62.5826" y2="-28.3387" gradientUnits="userSpaceOnUse">
<stop offset="0.0001" stop-color="#BFE76C"/>
<stop offset="1" stop-color="#89C138"/>
</linearGradient>
<linearGradient id="paint10_linear_621_7816" x1="71.0622" y1="36.8352" x2="90.0206" y2="115.778" gradientUnits="userSpaceOnUse">
<stop stop-color="#BDC6CB" stop-opacity="0.36"/>
<stop offset="1" stop-color="#B7BEC8"/>
</linearGradient>
<linearGradient id="paint11_linear_621_7816" x1="61.7885" y1="48.3655" x2="57.5206" y2="113.153" gradientUnits="userSpaceOnUse">
<stop stop-color="#C7E76C"/>
<stop offset="1" stop-color="#A9CA73"/>
</linearGradient>
<linearGradient id="paint12_linear_621_7816" x1="18.9268" y1="11.2855" x2="36.5458" y2="86.0031" gradientUnits="userSpaceOnUse">
<stop stop-color="#C6E07B"/>
<stop offset="1" stop-color="#9DC053"/>
</linearGradient>
<linearGradient id="paint13_linear_621_7816" x1="3.84992" y1="2.48078" x2="62.5826" y2="-28.3387" gradientUnits="userSpaceOnUse">
<stop offset="0.0001" stop-color="#BFE76C"/>
<stop offset="1" stop-color="#89C138"/>
</linearGradient>
<linearGradient id="paint14_linear_621_7816" x1="50.6963" y1="59.4256" x2="47.9993" y2="112.036" gradientUnits="userSpaceOnUse">
<stop stop-color="#C7E76C"/>
<stop offset="1" stop-color="#A9CA73"/>
</linearGradient>
<linearGradient id="paint15_linear_621_7816" x1="9.34005" y1="27.2304" x2="22.783" y2="91.3293" gradientUnits="userSpaceOnUse">
<stop stop-color="#C6E07B"/>
<stop offset="1" stop-color="#9DC053"/>
</linearGradient>
</defs>
</svg>
