<svg width="228" height="151" viewBox="0 0 228 151" fill="none" xmlns="http://www.w3.org/2000/svg">
<path d="M12.6664 102.641C4.30626 97.8192 0.154369 91.4897 0.210772 85.1704C0.26642 78.9358 4.41831 72.7111 12.6664 67.9542L41.3322 51.422L83.7988 26.9304C100.407 17.352 127.335 17.352 143.943 26.9304L195.057 56.4092L215.075 67.9542C223.323 72.7111 227.475 78.9358 227.531 85.1704C227.587 91.4897 223.435 97.8192 215.075 102.641L143.943 143.664C127.335 153.243 100.407 153.243 83.7988 143.664L12.6664 102.641Z" fill="#C4C4C4"/>
<path d="M12.6664 102.641C4.30626 97.8192 0.154369 91.4897 0.210772 85.1704C0.26642 78.9358 4.41831 72.7111 12.6664 67.9542L41.3322 51.422L83.7988 26.9304C100.407 17.352 127.335 17.352 143.943 26.9304L195.057 56.4092L215.075 67.9542C223.323 72.7111 227.475 78.9358 227.531 85.1704C227.587 91.4897 223.435 97.8192 215.075 102.641L143.943 143.664C127.335 153.243 100.407 153.243 83.7988 143.664L12.6664 102.641Z" fill="white"/>
<path d="M12.6664 102.641C4.30626 97.8192 0.154369 91.4897 0.210772 85.1704C0.26642 78.9358 4.41831 72.7111 12.6664 67.9542L41.3322 51.422L83.7988 26.9304C100.407 17.352 127.335 17.352 143.943 26.9304L195.057 56.4092L215.075 67.9542C223.323 72.7111 227.475 78.9358 227.531 85.1704C227.587 91.4897 223.435 97.8192 215.075 102.641L143.943 143.664C127.335 153.243 100.407 153.243 83.7988 143.664L12.6664 102.641Z" fill="url(#paint0_linear_0_4)" fill-opacity="0.3"/>
<path d="M0.210772 85.1704C0.26642 78.9358 4.41831 72.7111 12.6664 67.9542L41.3322 51.422L0.210772 65.5027V85.1704Z" fill="#C4C4C4"/>
<path d="M0.210772 85.1704C0.26642 78.9358 4.41831 72.7111 12.6664 67.9542L41.3322 51.422L0.210772 65.5027V85.1704Z" fill="white"/>
<path d="M0.210772 85.1704C0.26642 78.9358 4.41831 72.7111 12.6664 67.9542L41.3322 51.422L0.210772 65.5027V85.1704Z" fill="url(#paint1_linear_0_4)" fill-opacity="0.3"/>
<path d="M215.075 67.9542C223.323 72.7111 227.475 78.9358 227.531 85.1704V65.5027L195.057 56.4092L215.075 67.9542Z" fill="#C4C4C4"/>
<path d="M215.075 67.9542C223.323 72.7111 227.475 78.9358 227.531 85.1704V65.5027L195.057 56.4092L215.075 67.9542Z" fill="white"/>
<path d="M215.075 67.9542C223.323 72.7111 227.475 78.9358 227.531 85.1704V65.5027L195.057 56.4092L215.075 67.9542Z" fill="url(#paint2_linear_0_4)" fill-opacity="0.3"/>
<path d="M12.6664 83.0213C-3.94187 73.4429 -3.94187 57.9132 12.6664 48.3348L83.7988 7.311C100.407 -2.26742 127.335 -2.26742 143.943 7.311L215.075 48.3348C231.684 57.9132 231.684 73.4429 215.075 83.0213L143.943 124.045C127.335 133.623 100.407 133.623 83.7988 124.045L12.6664 83.0213Z" fill="#C4C4C4"/>
<path d="M12.6664 83.0213C-3.94187 73.4429 -3.94187 57.9132 12.6664 48.3348L83.7988 7.311C100.407 -2.26742 127.335 -2.26742 143.943 7.311L215.075 48.3348C231.684 57.9132 231.684 73.4429 215.075 83.0213L143.943 124.045C127.335 133.623 100.407 133.623 83.7988 124.045L12.6664 83.0213Z" fill="white"/>
<path d="M12.6664 83.0213C-3.94187 73.4429 -3.94187 57.9132 12.6664 48.3348L83.7988 7.311C100.407 -2.26742 127.335 -2.26742 143.943 7.311L215.075 48.3348C231.684 57.9132 231.684 73.4429 215.075 83.0213L143.943 124.045C127.335 133.623 100.407 133.623 83.7988 124.045L12.6664 83.0213Z" fill="url(#paint3_linear_0_4)" fill-opacity="0.15"/>
<defs>
<linearGradient id="paint0_linear_0_4" x1="62.1026" y1="133.098" x2="106.861" y2="181.673" gradientUnits="userSpaceOnUse">
<stop stop-color="#CCD1D3" stop-opacity="0.36"/>
<stop offset="1" stop-color="#C3C6CA"/>
</linearGradient>
<linearGradient id="paint1_linear_0_4" x1="62.1026" y1="133.098" x2="106.861" y2="181.673" gradientUnits="userSpaceOnUse">
<stop stop-color="#CCD1D3" stop-opacity="0.36"/>
<stop offset="1" stop-color="#C3C6CA"/>
</linearGradient>
<linearGradient id="paint2_linear_0_4" x1="62.1026" y1="133.098" x2="106.861" y2="181.673" gradientUnits="userSpaceOnUse">
<stop stop-color="#CCD1D3" stop-opacity="0.36"/>
<stop offset="1" stop-color="#C3C6CA"/>
</linearGradient>
<linearGradient id="paint3_linear_0_4" x1="1.19949" y1="47.8275" x2="182.273" y2="-55.82" gradientUnits="userSpaceOnUse">
<stop stop-color="#BDC6CB" stop-opacity="0.36"/>
<stop offset="1" stop-color="#B7BEC8"/>
</linearGradient>
</defs>
</svg>
