<svg width="118" height="161" viewBox="0 0 118 161" fill="none" xmlns="http://www.w3.org/2000/svg">
<path d="M1.75003 74.197C1.72848 73.0885 2.50897 71.7156 3.47992 71.1539L92.5748 19.6118C94.1017 18.7285 94.8834 20.392 93.826 22.2744L23.2562 147.907L4.94185 139.402C3.70249 138.826 2.979 137.42 2.94196 135.514L1.75003 74.197Z" fill="#2D0505"/>
<path d="M19.3139 84.1707C19.2102 81.9425 20.789 79.11 22.7733 77.9643L110.729 27.1833C112.642 26.0788 114.193 26.9742 114.193 29.1833L114.193 90.9994C114.193 93.1842 112.674 95.8413 110.783 96.9677L25.7002 147.624C23.8367 148.734 22.2842 147.955 22.1868 145.862L19.3139 84.1707Z" fill="white"/>
<path d="M19.3139 84.1707C19.2102 81.9425 20.789 79.11 22.7733 77.9643L110.729 27.1833C112.642 26.0788 114.193 26.9742 114.193 29.1833L114.193 90.9994C114.193 93.1842 112.674 95.8413 110.783 96.9677L25.7002 147.624C23.8367 148.734 22.2842 147.955 22.1868 145.862L19.3139 84.1707Z" fill="url(#paint0_linear_626_8032)" fill-opacity="0.8"/>
<path d="M22.3049 79.7479C22.336 78.6519 23.1018 77.3544 24.036 76.8151L112.46 25.7635C113.416 25.2112 114.192 25.659 114.192 26.7635L114.192 68.5092C114.192 69.6117 113.419 70.9524 112.464 71.5066L22.8277 123.534C21.8467 124.103 21.0594 123.62 21.092 122.469L22.3049 79.7479Z" fill="#15171B"/>
<path d="M1.11025 71.6978C1.04216 69.4225 2.68535 66.5763 4.68987 65.4976L92.1593 18.4254C92.8374 18.0604 93.4939 17.9374 94.0472 18.0716L116.309 23.469L25.0719 119.162C24.4779 119.785 23.7985 120.055 23.3063 119.864L4.68345 112.64C3.1718 112.053 2.26968 110.441 2.20279 108.206L1.11025 71.6978Z" fill="#474A50"/>
<path d="M48.8862 36.403C45.6046 38.2976 42.9443 42.9056 42.9443 46.6946L42.9443 53.5556L47.5184 54.6991L47.5184 46.6946C48.6619 44.4075 48.6619 42.1205 50.8668 39.8335L70.673 28.3984C72.8607 27.1353 74.6342 28.1594 74.6342 30.6854L74.6342 35.2595L79.5366 36.403L82.9672 26.1114C82.9672 22.3224 75.9352 20.7862 72.6536 22.6809L48.8862 36.403Z" fill="url(#paint1_linear_626_8032)"/>
<path d="M53.4594 37.5465C50.1778 39.4412 47.5176 44.0491 47.5176 47.8381L47.5176 54.6992L51.4788 52.4121L51.4788 47.8381C51.4788 45.3121 53.2523 42.2401 55.44 40.9771L75.2462 29.542C77.4339 28.2789 79.2074 29.303 79.2074 31.829L79.2074 36.403L83.1687 34.116L83.1687 27.2549C83.1687 23.4659 80.5084 21.9298 77.2268 23.8244L53.4594 37.5465Z" fill="white"/>
<path d="M53.4594 37.5465C50.1778 39.4412 47.5176 44.0491 47.5176 47.8381L47.5176 54.6992L51.4788 52.4121L51.4788 47.8381C51.4788 45.3121 53.2523 42.2401 55.44 40.9771L75.2462 29.542C77.4339 28.2789 79.2074 29.303 79.2074 31.829L79.2074 36.403L83.1687 34.116L83.1687 27.2549C83.1687 23.4659 80.5084 21.9298 77.2268 23.8244L53.4594 37.5465Z" fill="url(#paint2_linear_626_8032)" fill-opacity="0.75"/>
<path d="M66.165 92.6504L86.5767 81.2153L90.5561 82.153L68.4521 99.5115L66.165 92.6504Z" fill="#FFD24C"/>
<path d="M66.165 92.6504L70.7505 93.5881L71.6539 101.966L67.5807 100.869C66.6908 100.629 66.165 99.7347 66.165 98.4605L66.165 92.6504Z" fill="#D1983C"/>
<rect width="22.8702" height="11.3978" rx="2" transform="matrix(0.866025 -0.5 2.20305e-08 1 70.7383 91.3296)" fill="white"/>
<rect width="22.8702" height="11.3978" rx="2" transform="matrix(0.866025 -0.5 2.20305e-08 1 70.7383 91.3296)" fill="url(#paint3_linear_626_8032)" fill-opacity="0.75"/>
<path d="M20.2608 79.2609C20.1212 76.4091 22.19 72.7755 24.7319 71.408L113.248 23.7876C115.58 22.5327 117.43 23.6748 117.43 26.3699L117.43 62.2778C117.43 65.0392 115.492 68.3971 113.1 69.7778L26.4594 119.8C24.1603 121.127 22.262 120.149 22.1358 117.571L20.2608 79.2609Z" fill="white"/>
<path d="M20.2608 79.2609C20.1212 76.4091 22.19 72.7755 24.7319 71.408L113.248 23.7876C115.58 22.5327 117.43 23.6748 117.43 26.3699L117.43 62.2778C117.43 65.0392 115.492 68.3971 113.1 69.7778L26.4594 119.8C24.1603 121.127 22.262 120.149 22.1358 117.571L20.2608 79.2609Z" fill="url(#paint4_linear_626_8032)" fill-opacity="0.8"/>
<defs>
<linearGradient id="paint0_linear_626_8032" x1="89.0354" y1="110.947" x2="77.6003" y2="84.6458" gradientUnits="userSpaceOnUse">
<stop stop-color="#14161B"/>
<stop offset="1" stop-color="#232732"/>
</linearGradient>
<linearGradient id="paint1_linear_626_8032" x1="62.9558" y1="28.2799" x2="70.6184" y2="41.5519" gradientUnits="userSpaceOnUse">
<stop stop-color="#E3C799"/>
<stop offset="1" stop-color="#E3C799"/>
</linearGradient>
<linearGradient id="paint2_linear_626_8032" x1="74.9741" y1="34.8245" x2="56.3659" y2="21.024" gradientUnits="userSpaceOnUse">
<stop stop-color="#FFD977"/>
<stop offset="1" stop-color="#FF8D07"/>
</linearGradient>
<linearGradient id="paint3_linear_626_8032" x1="17.6134" y1="8.05657" x2="1.46149" y2="-8.12243" gradientUnits="userSpaceOnUse">
<stop stop-color="#FFD977"/>
<stop offset="1" stop-color="#FF8D07"/>
</linearGradient>
<linearGradient id="paint4_linear_626_8032" x1="95.5777" y1="66.4854" x2="36.3825" y2="28.0751" gradientUnits="userSpaceOnUse">
<stop stop-color="#5C6572"/>
<stop offset="1" stop-color="#232732"/>
</linearGradient>
</defs>
</svg>
