<svg width="83" height="142" viewBox="0 0 83 142" fill="none" xmlns="http://www.w3.org/2000/svg">
<path d="M17.8308 109.785C20.9339 105.389 17.2051 94.5948 15.9121 87.2672C22.377 86.6566 35.3068 86.9009 35.3068 92.7629C35.3068 97.342 29.7654 109.326 26.9948 114.746L17.8308 109.785Z" fill="url(#paint0_linear_247_2319)" fill-opacity="0.75"/>
<path d="M34.2407 86.1404C36.5667 84.7975 38.8386 83.2183 41.0344 81.4408C51.9453 72.6081 60.9789 58.8768 65.4526 44.8897C67.3983 38.8066 68.4815 32.675 68.4815 26.8771C68.4815 17.181 65.4522 10.05 60.4258 6.07857C54.1448 1.11585 44.7451 1.08679 34.2407 7.15151C15.3301 18.0696 3.89549e-07 44.6027 8.70083e-07 66.4149C1.07835e-06 75.8686 2.93698 82.1146 7.73988 86.1404C8.45295 86.7381 9.20841 87.2699 10.0031 87.734C16.2059 91.3563 24.7431 91.6239 34.2407 86.1404Z" fill="#FF7348"/>
<path d="M34.2407 86.1404C36.5667 84.7975 38.8386 83.2183 41.0344 81.4408C51.9453 72.6081 60.9789 58.8768 65.4526 44.8897C67.3983 38.8066 68.4815 32.675 68.4815 26.8771C68.4815 17.181 65.4522 10.05 60.4258 6.07857C54.1448 1.11585 44.7451 1.08679 34.2407 7.15151C15.3301 18.0696 3.89549e-07 44.6027 8.70083e-07 66.4149C1.07835e-06 75.8686 2.93698 82.1146 7.73988 86.1404C8.45295 86.7381 9.20841 87.2699 10.0031 87.734C16.2059 91.3563 24.7431 91.6239 34.2407 86.1404Z" fill="url(#paint1_linear_247_2319)" fill-opacity="0.75"/>
<path d="M68.4815 26.8771C68.4815 32.675 67.3983 38.8066 65.4526 44.8897L68.6546 10.5196L60.4258 6.07857C65.4522 10.05 68.4815 17.181 68.4815 26.8771Z" fill="#FF7348"/>
<path d="M68.4815 26.8771C68.4815 32.675 67.3983 38.8066 65.4526 44.8897L68.6546 10.5196L60.4258 6.07857C65.4522 10.05 68.4815 17.181 68.4815 26.8771Z" fill="url(#paint2_linear_247_2319)" fill-opacity="0.75"/>
<path d="M34.2407 86.1404C24.7431 91.6239 16.2059 91.3563 10.0031 87.734L26.3213 96.7282L24.936 95.3428L41.0344 81.4408C38.8386 83.2183 36.5667 84.7975 34.2407 86.1404Z" fill="#FF7348"/>
<path d="M34.2407 86.1404C24.7431 91.6239 16.2059 91.3563 10.0031 87.734L26.3213 96.7282L24.936 95.3428L41.0344 81.4408C38.8386 83.2183 36.5667 84.7975 34.2407 86.1404Z" fill="url(#paint3_linear_247_2319)" fill-opacity="0.75"/>
<path d="M48.7593 93.9539C67.6699 83.0358 83 56.5027 83 34.6906C83 12.8784 67.6699 4.04693 48.7593 14.965C29.8487 25.883 14.5186 52.4162 14.5186 74.2283C14.5186 96.0405 29.8487 104.872 48.7593 93.9539Z" fill="#FF7348"/>
<path d="M43.7045 66.6766C43.8787 63.752 44.5414 60.0869 45.5564 57.9639C46.6183 55.7483 48.224 53.2489 50.3736 50.4656L52.5927 47.5553C53.9827 45.7291 54.9318 44.3658 55.4401 43.4654C55.9526 42.4937 56.245 41.4015 56.3172 40.1889C56.398 38.8336 56.0527 37.8645 55.2815 37.2817C54.4663 36.744 53.1429 36.9337 51.3111 37.8508C47.4772 39.7702 45.4334 42.858 45.1799 47.1142L34.9561 52.2326C35.245 47.382 36.8526 42.7709 39.7787 38.3993C42.6182 34.0942 46.6578 30.63 51.8975 28.0068C56.7112 25.5969 60.4332 25.0369 63.0634 26.3269C65.7333 27.6431 66.9486 30.3104 66.7092 34.3288C66.4372 38.8941 64.5549 43.4351 61.0621 47.9519L58.1721 51.7172C56.4712 53.9067 55.3184 55.5681 54.7136 56.7013C54.0392 57.9617 53.5937 60.4108 53.5129 61.7661L43.7045 66.6766ZM48.0094 82.1869C46.0498 83.1679 44.6149 83.3212 43.7045 82.6466C42.77 82.0302 42.3651 80.6758 42.4897 78.5834C42.6101 76.5623 43.2063 74.7067 44.2782 73.0167C45.3458 71.3979 46.8488 70.1034 48.7871 69.133C50.6614 68.1946 52.0857 68.0467 53.06 68.6893C53.9903 69.377 54.3966 70.7077 54.279 72.6812C54.1586 74.7023 53.5625 76.5579 52.4906 78.2479C51.3775 79.9355 49.8838 81.2485 48.0094 82.1869Z" fill="white"/>
<path d="M26.9922 114.746C30.0953 110.349 28.2852 94.5948 26.9922 87.2672C33.4571 86.6566 46.3868 86.9009 46.3868 92.7629C46.3868 98.625 33.4571 109.861 26.9922 114.746Z" fill="#FF7348"/>
<defs>
<linearGradient id="paint0_linear_247_2319" x1="30.2271" y1="105.992" x2="-5.73249" y2="84.2446" gradientUnits="userSpaceOnUse">
<stop stop-color="#FF0707"/>
<stop offset="1" stop-color="#FFA877"/>
</linearGradient>
<linearGradient id="paint1_linear_247_2319" x1="50.6734" y1="55.813" x2="1.25347" y2="30.4138" gradientUnits="userSpaceOnUse">
<stop stop-color="#FF0707"/>
<stop offset="1" stop-color="#FFA877"/>
</linearGradient>
<linearGradient id="paint2_linear_247_2319" x1="50.6734" y1="55.813" x2="1.25347" y2="30.4138" gradientUnits="userSpaceOnUse">
<stop stop-color="#FF0707"/>
<stop offset="1" stop-color="#FFA877"/>
</linearGradient>
<linearGradient id="paint3_linear_247_2319" x1="50.6734" y1="55.813" x2="1.25347" y2="30.4138" gradientUnits="userSpaceOnUse">
<stop stop-color="#FF0707"/>
<stop offset="1" stop-color="#FFA877"/>
</linearGradient>
</defs>
</svg>
