<svg width="78" height="138" viewBox="0 0 78 138" fill="none" xmlns="http://www.w3.org/2000/svg">
<path d="M0.539422 46.2474C0.539693 37.749 6.50615 27.4148 13.8659 23.1653L52.0737 1.10442C56.434 -1.41321 60.3052 -1.2302 62.7362 1.10442C62.8581 1.22149 62.6216 1.01414 62.7362 1.14197C64.1929 2.76758 65.3993 5.58691 65.3992 8.79789L65.3978 50.7774C65.3976 59.2759 59.4311 69.6101 52.0714 73.8595L13.8636 95.9205C10.0581 98.1177 6.62534 98.2579 4.19724 96.7061C1.92935 95.2567 0.537955 92.3313 0.538086 88.227L0.539422 46.2474Z" fill="#FF7348"/>
<path d="M0.539422 46.2474C0.539693 37.749 6.50615 27.4148 13.8659 23.1653L52.0737 1.10442C56.434 -1.41321 60.3052 -1.2302 62.7362 1.10442C62.8581 1.22149 62.6216 1.01414 62.7362 1.14197C64.1929 2.76758 65.3993 5.58691 65.3992 8.79789L65.3978 50.7774C65.3976 59.2759 59.4311 69.6101 52.0714 73.8595L13.8636 95.9205C10.0581 98.1177 6.62534 98.2579 4.19724 96.7061C1.92935 95.2567 0.537955 92.3313 0.538086 88.227L0.539422 46.2474Z" fill="url(#paint0_linear_626_8045)" fill-opacity="0.75"/>
<path d="M13.8636 95.9205C10.0581 98.1177 6.62534 98.2579 4.19724 96.7061L16.3214 103.573L13.8636 95.9205Z" fill="#FF7348"/>
<path d="M13.8636 95.9205C10.0581 98.1177 6.62534 98.2579 4.19724 96.7061L16.3214 103.573L13.8636 95.9205Z" fill="url(#paint1_linear_626_8045)" fill-opacity="0.75"/>
<path d="M62.7362 1.14197C64.1929 2.76758 65.3993 5.58691 65.3992 8.79789L72.6539 6.65761L62.7362 1.14197Z" fill="#FF7348"/>
<path d="M62.7362 1.14197C64.1929 2.76758 65.3993 5.58691 65.3992 8.79789L72.6539 6.65761L62.7362 1.14197Z" fill="url(#paint2_linear_626_8045)" fill-opacity="0.75"/>
<path d="M34.4399 109.238C34.4405 88.3275 18.2185 91.1596 10.1074 95.1895L58.7741 67.0897L47.3516 100.907L46.9907 116.47L34.4399 109.238Z" fill="#FF7348"/>
<path d="M34.4399 109.238C34.4405 88.3275 18.2185 91.1596 10.1074 95.1895L58.7741 67.0897L47.3516 100.907L46.9907 116.47L34.4399 109.238Z" fill="url(#paint3_linear_626_8045)" fill-opacity="0.75"/>
<path d="M47.0072 117.165C47.0079 96.2547 30.7859 99.0868 22.6748 103.117L71.3415 75.0169C50.9694 86.7796 47.0072 107.967 47.0072 117.165Z" fill="#FF7348"/>
<path d="M12.7006 53.1825C12.7008 44.6841 18.6673 34.3499 26.027 30.1004L64.2349 8.03948C71.5946 3.79003 77.5606 7.23451 77.5603 15.7329L77.559 57.7125C77.5587 66.2109 71.5923 76.5451 64.2325 80.7946L26.0247 102.855C18.665 107.105 12.6989 103.66 12.6992 95.162L12.7006 53.1825Z" fill="#FF7348"/>
<g clip-path="url(#clip0_626_8045)">
<path d="M35.4326 72.6222C35.4326 72.1719 35.2894 71.8649 35.0031 71.7012C34.7167 71.5375 34.3777 71.5687 33.9858 71.795C33.594 72.0212 33.2549 72.3816 32.9685 72.8759C32.6822 73.3703 32.539 73.8427 32.539 74.293C32.5389 74.7433 32.6821 75.0503 32.9684 75.214C33.2548 75.3777 33.5939 75.3465 33.9857 75.1202C34.3775 74.894 34.7166 74.5337 35.003 74.0393C35.2894 73.5449 35.4325 73.0725 35.4326 72.6222ZM61.4753 42.6221C61.4754 41.7388 61.1815 41.1335 60.5938 40.8061C60.006 40.4787 59.3354 40.5325 58.5819 40.9676L50.6245 45.5621C50.6245 44.5576 50.9863 42.9676 51.7097 40.792C52.4332 38.6165 52.7949 37.0178 52.7949 35.996C52.795 34.2987 52.5539 33.1824 52.0717 32.6468C51.5894 32.1113 50.6249 32.2612 49.1781 33.0966C48.7863 33.7731 48.4999 34.6745 48.319 35.8007C48.1381 36.927 47.9083 38.1464 47.6294 39.4591C47.3506 40.7718 46.9022 41.9789 46.2843 43.0804C45.9527 43.6702 45.3724 44.7932 44.5435 46.4495C44.4832 46.5709 44.3099 46.9307 44.0235 47.529C43.7372 48.1273 43.4998 48.6194 43.3114 49.0053C43.123 49.3912 42.863 49.9093 42.5315 50.5597C42.1999 51.2101 41.8985 51.7651 41.6272 52.2248C41.3559 52.6846 41.0658 53.1595 40.7568 53.6496C40.4479 54.1397 40.1464 54.5476 39.8525 54.8731C39.5587 55.1987 39.2911 55.4311 39.05 55.5703L38.3266 55.988L38.3261 72.6141L39.0495 72.1964C39.2454 72.0833 39.4828 71.9722 39.7616 71.8632C40.0404 71.7542 40.2891 71.6669 40.5076 71.6013C40.7261 71.5358 41.0124 71.4657 41.3666 71.3911C41.7208 71.3165 41.9845 71.2638 42.1578 71.233C42.3311 71.2022 42.5986 71.156 42.9603 71.0944C43.322 71.0327 43.5405 70.9975 43.6159 70.9886C46.7958 70.4168 49.3729 69.5609 51.3471 68.421L54.0825 66.8416C56.9761 65.1709 58.4229 62.8894 58.423 59.9972C58.423 59.5469 58.3854 59.0837 58.31 58.6076C58.7622 58.0695 59.1201 57.4082 59.3839 56.6238C59.6476 55.8394 59.7795 55.1267 59.7795 54.4859C59.7795 53.8451 59.6439 53.326 59.3727 52.9284C60.1715 51.6013 60.5709 50.3402 60.5709 49.1452C60.5709 48.7122 60.4956 48.2751 60.3449 47.8339C60.1942 47.3927 60.0058 47.0901 59.7798 46.9263C60.262 46.6305 60.6652 45.9907 60.9892 45.007C61.3133 44.0232 61.4753 43.2282 61.4753 42.6221ZM64.3689 40.9254C64.3689 42.4667 63.9996 44.0914 63.2611 45.7994C63.3967 46.2926 63.4645 46.851 63.4645 47.4744C63.4644 48.808 63.1781 50.2203 62.6053 51.7113C62.6505 52.0489 62.6731 52.4082 62.6731 52.7892C62.6731 54.5384 62.2209 56.3409 61.3166 58.1965C61.3316 60.5952 60.691 62.8657 59.3949 65.0082C58.0988 67.1508 56.3882 68.8355 54.2632 70.0625L51.347 71.7462C49.9002 72.5816 48.4723 73.2113 47.0632 73.6352C45.6541 74.0591 44.0227 74.4339 42.169 74.7595C40.4208 75.0762 39.3809 75.3302 39.0494 75.5217L32.5388 79.2808C31.7401 79.742 31.0581 79.811 30.493 79.4879C29.9278 79.1647 29.6453 78.5442 29.6453 77.6263L29.6458 61.0002C29.6459 60.0823 29.9285 59.1354 30.4937 58.1597C31.0588 57.1839 31.7408 56.4654 32.5395 56.0042L38.7336 52.4278C39.2762 51.6989 40.3086 49.7606 41.8308 46.6129C42.705 44.8093 43.5113 43.2354 44.2498 41.8911C44.6115 41.2493 44.879 40.3544 45.0524 39.2066C45.2257 38.0587 45.4556 36.8306 45.742 35.5222C46.0283 34.2138 46.4956 33.0089 47.1436 31.9073C47.7314 30.9271 48.4096 30.2151 49.1782 29.7713C50.4442 29.0404 51.582 28.6649 52.5917 28.6447C53.6014 28.6245 54.37 29.0597 54.8975 29.9501C55.4249 30.8406 55.6886 32.2989 55.6885 34.3253C55.6885 35.9359 55.3267 37.8074 54.6033 39.9396L58.582 37.6424C60.1493 36.7374 61.5057 36.6123 62.651 37.2672C63.7963 37.9221 64.369 39.1415 64.3689 40.9254Z" fill="white"/>
</g>
<defs>
<linearGradient id="paint0_linear_626_8045" x1="40.9587" y1="72.4007" x2="-49.997" y2="40.5979" gradientUnits="userSpaceOnUse">
<stop stop-color="#FFA877"/>
<stop offset="1" stop-color="#FF0707"/>
</linearGradient>
<linearGradient id="paint1_linear_626_8045" x1="40.9587" y1="72.4007" x2="-49.997" y2="40.5979" gradientUnits="userSpaceOnUse">
<stop stop-color="#FFA877"/>
<stop offset="1" stop-color="#FF0707"/>
</linearGradient>
<linearGradient id="paint2_linear_626_8045" x1="40.9587" y1="72.4007" x2="-49.997" y2="40.5979" gradientUnits="userSpaceOnUse">
<stop stop-color="#FFA877"/>
<stop offset="1" stop-color="#FF0707"/>
</linearGradient>
<linearGradient id="paint3_linear_626_8045" x1="54.6865" y1="86.1424" x2="22.5105" y2="127.249" gradientUnits="userSpaceOnUse">
<stop stop-color="#FFA877"/>
<stop offset="1" stop-color="#FF0707"/>
</linearGradient>
<clipPath id="clip0_626_8045">
<rect width="40.0955" height="43.2279" fill="white" transform="matrix(0.86601 -0.500028 -3.18351e-05 1 29.6465 41.0488)"/>
</clipPath>
</defs>
</svg>
