<svg width="96" height="67" viewBox="0 0 96 67" fill="none" xmlns="http://www.w3.org/2000/svg">
<rect width="18.3226" height="6.21242" transform="matrix(0.865933 0.500159 -0.865933 0.500159 45.7441 2.04944)" fill="url(#paint0_linear_74_2115)" fill-opacity="0.3"/>
<rect width="18.3226" height="6.21242" transform="matrix(0.865933 0.500159 -0.865933 0.500159 45.7441 2.04944)" fill="white"/>
<rect width="18.3226" height="6.21242" transform="matrix(0.865933 0.500159 -0.865933 0.500159 45.7441 2.04944)" fill="url(#paint1_linear_74_2115)" fill-opacity="0.2"/>
<rect width="18.3226" height="6.21242" transform="matrix(0.865933 0.500159 -0.865933 0.500159 45.7441 2.04944)" fill="#FFA68A"/>
<rect width="18.3226" height="6.21242" transform="matrix(0.865933 0.500159 -0.865933 0.500159 45.7441 2.04944)" fill="url(#paint2_linear_74_2115)" fill-opacity="0.4"/>
<path d="M61.6096 50.6438L61.6094 11.214L56.2298 14.3212L56.23 53.751L61.6096 50.6438Z" fill="url(#paint3_linear_74_2115)" fill-opacity="0.5"/>
<path d="M61.6096 50.6438L61.6094 11.214L56.2298 14.3212L56.23 53.751L61.6096 50.6438Z" fill="white"/>
<path d="M61.6096 50.6438L61.6094 11.214L56.2298 14.3212L56.23 53.751L61.6096 50.6438Z" fill="url(#paint4_linear_74_2115)" fill-opacity="0.2"/>
<path d="M61.6096 50.6438L61.6094 11.214L56.2298 14.3212L56.23 53.751L61.6096 50.6438Z" fill="#FF835E"/>
<path d="M61.6096 50.6438L61.6094 11.214L56.2298 14.3212L56.23 53.751L61.6096 50.6438Z" fill="url(#paint5_linear_74_2115)" fill-opacity="0.75"/>
<path d="M48.2981 30.4278L48.3003 49.1228L56.2334 53.7049L56.2314 14.3207L40.3652 5.15649L40.3652 27.1819L48.2981 30.4278Z" fill="url(#paint6_linear_74_2115)" fill-opacity="0.4"/>
<path d="M48.2981 30.4278L48.3003 49.1228L56.2334 53.7049L56.2314 14.3207L40.3652 5.15649L40.3652 27.1819L48.2981 30.4278Z" fill="white"/>
<path d="M48.2981 30.4278L48.3003 49.1228L56.2334 53.7049L56.2314 14.3207L40.3652 5.15649L40.3652 27.1819L48.2981 30.4278Z" fill="url(#paint7_linear_74_2115)" fill-opacity="0.6"/>
<path d="M48.2981 30.4278L48.3003 49.1228L56.2334 53.7049L56.2314 14.3207L40.3652 5.15649L40.3652 27.1819L48.2981 30.4278Z" fill="#FF835E"/>
<path d="M48.2981 30.4278L48.3003 49.1228L56.2334 53.7049L56.2314 14.3207L40.3652 5.15649L40.3652 27.1819L48.2981 30.4278Z" fill="url(#paint8_linear_74_2115)" fill-opacity="0.75"/>
<rect width="18.3226" height="6.21242" transform="matrix(0.866025 0.5 -0.866025 0.5 38.6191 13.7056)" fill="#C4C4C4"/>
<rect width="18.3226" height="6.21242" transform="matrix(0.866025 0.5 -0.866025 0.5 38.6191 13.7056)" fill="white"/>
<rect width="18.3226" height="6.21242" transform="matrix(0.866025 0.5 -0.866025 0.5 38.6191 13.7056)" fill="url(#paint9_linear_74_2115)" fill-opacity="0.75"/>
<rect width="18.3226" height="6.21242" transform="matrix(0.866025 0.5 -0.866025 0.5 38.6191 13.7056)" fill="white"/>
<rect width="18.3226" height="6.21242" transform="matrix(0.866025 0.5 -0.866025 0.5 38.6191 13.7056)" fill="url(#paint10_linear_74_2115)" fill-opacity="0.2"/>
<rect width="18.3226" height="6.21242" transform="matrix(0.866025 0.5 -0.866025 0.5 38.6191 13.7056)" fill="#FFA68A"/>
<rect width="18.3226" height="6.21242" transform="matrix(0.866025 0.5 -0.866025 0.5 38.6191 13.7056)" fill="url(#paint11_linear_74_2115)" fill-opacity="0.4"/>
<path d="M54.4886 54.7364L54.4884 22.8701L49.1089 25.9773L49.1091 57.8436L54.4886 54.7364Z" fill="#C4C4C4"/>
<path d="M54.4886 54.7364L54.4884 22.8701L49.1089 25.9773L49.1091 57.8436L54.4886 54.7364Z" fill="white"/>
<path d="M54.4886 54.7364L54.4884 22.8701L49.1089 25.9773L49.1091 57.8436L54.4886 54.7364Z" fill="url(#paint12_linear_74_2115)" fill-opacity="0.75"/>
<path d="M54.4886 54.7364L54.4884 22.8701L49.1089 25.9773L49.1091 57.8436L54.4886 54.7364Z" fill="white"/>
<path d="M54.4886 54.7364L54.4884 22.8701L49.1089 25.9773L49.1091 57.8436L54.4886 54.7364Z" fill="url(#paint13_linear_74_2115)" fill-opacity="0.2"/>
<path d="M54.4886 54.7364L54.4884 22.8701L49.1089 25.9773L49.1091 57.8436L54.4886 54.7364Z" fill="#FF835E"/>
<path d="M54.4886 54.7364L54.4884 22.8701L49.1089 25.9773L49.1091 57.8436L54.4886 54.7364Z" fill="url(#paint14_linear_74_2115)" fill-opacity="0.75"/>
<path d="M47.2491 56.7021L49.1145 57.831L49.1103 25.9769L33.2441 16.8127L33.2441 25.3333L47.2436 33.3364L47.2491 56.7021Z" fill="#C4C4C4"/>
<path d="M47.2491 56.7021L49.1145 57.831L49.1103 25.9769L33.2441 16.8127L33.2441 25.3333L47.2436 33.3364L47.2491 56.7021Z" fill="#D3B5B5"/>
<path d="M47.2491 56.7021L49.1145 57.831L49.1103 25.9769L33.2441 16.8127L33.2441 25.3333L47.2436 33.3364L47.2491 56.7021Z" fill="url(#paint15_linear_74_2115)" fill-opacity="0.75"/>
<path d="M47.2491 56.7021L49.1145 57.831L49.1103 25.9769L33.2441 16.8127L33.2441 25.3333L47.2436 33.3364L47.2491 56.7021Z" fill="white"/>
<path d="M47.2491 56.7021L49.1145 57.831L49.1103 25.9769L33.2441 16.8127L33.2441 25.3333L47.2436 33.3364L47.2491 56.7021Z" fill="url(#paint16_linear_74_2115)" fill-opacity="0.6"/>
<path d="M47.2491 56.7021L49.1145 57.831L49.1103 25.9769L33.2441 16.8127L33.2441 25.3333L47.2436 33.3364L47.2491 56.7021Z" fill="#FF835E"/>
<path d="M47.2491 56.7021L49.1145 57.831L49.1103 25.9769L33.2441 16.8127L33.2441 25.3333L47.2436 33.3364L47.2491 56.7021Z" fill="url(#paint17_linear_74_2115)" fill-opacity="0.75"/>
<rect width="18.3226" height="6.21242" transform="matrix(0.865933 0.500159 -0.865933 0.500159 31.3789 24.1726)" fill="url(#paint18_linear_74_2115)" fill-opacity="0.3"/>
<rect width="18.3226" height="6.21242" transform="matrix(0.865933 0.500159 -0.865933 0.500159 31.3789 24.1726)" fill="white"/>
<rect width="18.3226" height="6.21242" transform="matrix(0.865933 0.500159 -0.865933 0.500159 31.3789 24.1726)" fill="url(#paint19_linear_74_2115)" fill-opacity="0.2"/>
<rect width="18.3226" height="6.21242" transform="matrix(0.865933 0.500159 -0.865933 0.500159 31.3789 24.1726)" fill="#FFA68A"/>
<rect width="18.3226" height="6.21242" transform="matrix(0.865933 0.500159 -0.865933 0.500159 31.3789 24.1726)" fill="url(#paint20_linear_74_2115)" fill-opacity="0.4"/>
<path d="M47.2424 58.953L47.2422 33.3372L41.8626 36.4444L41.8628 62.0602L47.2424 58.953Z" fill="url(#paint21_linear_74_2115)" fill-opacity="0.5"/>
<path d="M47.2424 58.953L47.2422 33.3372L41.8626 36.4444L41.8628 62.0602L47.2424 58.953Z" fill="white"/>
<path d="M47.2424 58.953L47.2422 33.3372L41.8626 36.4444L41.8628 62.0602L47.2424 58.953Z" fill="url(#paint22_linear_74_2115)" fill-opacity="0.2"/>
<path d="M47.2424 58.953L47.2422 33.3372L41.8626 36.4444L41.8628 62.0602L47.2424 58.953Z" fill="#FF835E"/>
<path d="M47.2424 58.953L47.2422 33.3372L41.8626 36.4444L41.8628 62.0602L47.2424 58.953Z" fill="url(#paint23_linear_74_2115)" fill-opacity="0.75"/>
<path d="M39.0895 43.5778L39.0884 60.4193L41.8649 62.0301L41.8661 36.4439L26 27.2797L25.9999 36.0314L39.0895 43.5778Z" fill="url(#paint24_linear_74_2115)" fill-opacity="0.4"/>
<path d="M39.0895 43.5778L39.0884 60.4193L41.8649 62.0301L41.8661 36.4439L26 27.2797L25.9999 36.0314L39.0895 43.5778Z" fill="white"/>
<path d="M39.0895 43.5778L39.0884 60.4193L41.8649 62.0301L41.8661 36.4439L26 27.2797L25.9999 36.0314L39.0895 43.5778Z" fill="url(#paint25_linear_74_2115)" fill-opacity="0.6"/>
<path d="M39.0895 43.5778L39.0884 60.4193L41.8649 62.0301L41.8661 36.4439L26 27.2797L25.9999 36.0314L39.0895 43.5778Z" fill="#FF835E"/>
<path d="M39.0895 43.5778L39.0884 60.4193L41.8649 62.0301L41.8661 36.4439L26 27.2797L25.9999 36.0314L39.0895 43.5778Z" fill="url(#paint26_linear_74_2115)" fill-opacity="0.75"/>
<rect width="18.3226" height="6.21242" transform="matrix(0.865933 0.500159 -0.865933 0.500159 23.2327 34.4237)" fill="url(#paint27_linear_74_2115)" fill-opacity="0.3"/>
<rect width="18.3226" height="6.21242" transform="matrix(0.865933 0.500159 -0.865933 0.500159 23.2327 34.4237)" fill="white"/>
<rect width="18.3226" height="6.21242" transform="matrix(0.865933 0.500159 -0.865933 0.500159 23.2327 34.4237)" fill="url(#paint28_linear_74_2115)" fill-opacity="0.2"/>
<rect width="18.3226" height="6.21242" transform="matrix(0.865933 0.500159 -0.865933 0.500159 23.2327 34.4237)" fill="#FFA68A"/>
<rect width="18.3226" height="6.21242" transform="matrix(0.865933 0.500159 -0.865933 0.500159 23.2327 34.4237)" fill="url(#paint29_linear_74_2115)" fill-opacity="0.4"/>
<path d="M39.0978 63.7774L39.0977 43.5883L33.7181 46.6955L33.7183 66.8846L39.0978 63.7774Z" fill="url(#paint30_linear_74_2115)" fill-opacity="0.5"/>
<path d="M39.0978 63.7774L39.0977 43.5883L33.7181 46.6955L33.7183 66.8846L39.0978 63.7774Z" fill="white"/>
<path d="M39.0978 63.7774L39.0977 43.5883L33.7181 46.6955L33.7183 66.8846L39.0978 63.7774Z" fill="url(#paint31_linear_74_2115)" fill-opacity="0.2"/>
<path d="M39.0978 63.7774L39.0977 43.5883L33.7181 46.6955L33.7183 66.8846L39.0978 63.7774Z" fill="#FF835E"/>
<path d="M39.0978 63.7774L39.0977 43.5883L33.7181 46.6955L33.7183 66.8846L39.0978 63.7774Z" fill="url(#paint32_linear_74_2115)" fill-opacity="0.75"/>
<path d="M17.8502 57.6973L33.7163 66.8615L33.7198 46.695L17.8536 37.5308L17.8502 57.6973Z" fill="url(#paint33_linear_74_2115)" fill-opacity="0.4"/>
<path d="M17.8502 57.6973L33.7163 66.8615L33.7198 46.695L17.8536 37.5308L17.8502 57.6973Z" fill="white"/>
<path d="M17.8502 57.6973L33.7163 66.8615L33.7198 46.695L17.8536 37.5308L17.8502 57.6973Z" fill="url(#paint34_linear_74_2115)" fill-opacity="0.6"/>
<path d="M17.8502 57.6973L33.7163 66.8615L33.7198 46.695L17.8536 37.5308L17.8502 57.6973Z" fill="#FF835E"/>
<path d="M17.8502 57.6973L33.7163 66.8615L33.7198 46.695L17.8536 37.5308L17.8502 57.6973Z" fill="url(#paint35_linear_74_2115)" fill-opacity="0.75"/>
<path d="M15.126 35.9578L31.8332 7.00782M31.8332 7.00782L23.7447 11.6797M31.8332 7.00782L31.8332 16.3516" stroke="#ECEDEE" stroke-width="4"/>
<defs>
<linearGradient id="paint0_linear_74_2115" x1="14.0718" y1="4.31838" x2="-33.2432" y2="-34.21" gradientUnits="userSpaceOnUse">
<stop stop-color="#C9CFD2" stop-opacity="0.36"/>
<stop offset="1" stop-color="#B5BDC8"/>
</linearGradient>
<linearGradient id="paint1_linear_74_2115" x1="1.44471" y1="-1.94796" x2="24.8664" y2="20.3544" gradientUnits="userSpaceOnUse">
<stop stop-color="#BDC6CB" stop-opacity="0.36"/>
<stop offset="1" stop-color="#B7BEC8"/>
</linearGradient>
<linearGradient id="paint2_linear_74_2115" x1="66.8231" y1="31.5048" x2="30.4465" y2="-18.3583" gradientUnits="userSpaceOnUse">
<stop stop-color="#EE5222"/>
<stop offset="1" stop-color="#FF9D66"/>
</linearGradient>
<linearGradient id="paint3_linear_74_2115" x1="72.759" y1="7.95728" x2="88.2447" y2="72.4123" gradientUnits="userSpaceOnUse">
<stop stop-color="#BDC6CB" stop-opacity="0.36"/>
<stop offset="1" stop-color="#B7BEC8"/>
</linearGradient>
<linearGradient id="paint4_linear_74_2115" x1="76.6901" y1="5.61242" x2="98.8164" y2="73.5522" gradientUnits="userSpaceOnUse">
<stop stop-color="#BDC6CB" stop-opacity="0.36"/>
<stop offset="1" stop-color="#B7BEC8"/>
</linearGradient>
<linearGradient id="paint5_linear_74_2115" x1="80.3024" y1="62.1066" x2="61.6939" y2="20.7752" gradientUnits="userSpaceOnUse">
<stop stop-color="#EE5222"/>
<stop offset="1" stop-color="#FF9D66"/>
</linearGradient>
<linearGradient id="paint6_linear_74_2115" x1="164.349" y1="32.1163" x2="82.5268" y2="103.008" gradientUnits="userSpaceOnUse">
<stop stop-color="#CCD1D3" stop-opacity="0.36"/>
<stop offset="1" stop-color="#C3C6CA"/>
</linearGradient>
<linearGradient id="paint7_linear_74_2115" x1="55.6153" y1="5.15649" x2="48.2922" y2="39.4635" gradientUnits="userSpaceOnUse">
<stop stop-color="#CCD1D3" stop-opacity="0.36"/>
<stop offset="1" stop-color="#C3C6CA"/>
</linearGradient>
<linearGradient id="paint8_linear_74_2115" x1="63.1639" y1="51.9686" x2="73.9486" y2="22.3554" gradientUnits="userSpaceOnUse">
<stop stop-color="#EE5222"/>
<stop offset="1" stop-color="#FF9559"/>
</linearGradient>
<linearGradient id="paint9_linear_74_2115" x1="5.95061" y1="1.60549" x2="24.6643" y2="29.0142" gradientUnits="userSpaceOnUse">
<stop stop-color="#FFA877"/>
<stop offset="1" stop-color="#FF0707"/>
</linearGradient>
<linearGradient id="paint10_linear_74_2115" x1="1.44471" y1="-1.94796" x2="24.8664" y2="20.3544" gradientUnits="userSpaceOnUse">
<stop stop-color="#BDC6CB" stop-opacity="0.36"/>
<stop offset="1" stop-color="#B7BEC8"/>
</linearGradient>
<linearGradient id="paint11_linear_74_2115" x1="66.8231" y1="31.5048" x2="30.4465" y2="-18.3583" gradientUnits="userSpaceOnUse">
<stop stop-color="#EE5222"/>
<stop offset="1" stop-color="#FF9D66"/>
</linearGradient>
<linearGradient id="paint12_linear_74_2115" x1="55.621" y1="36.4834" x2="16.1205" y2="49.8797" gradientUnits="userSpaceOnUse">
<stop stop-color="#FFA877"/>
<stop offset="1" stop-color="#FF0707"/>
</linearGradient>
<linearGradient id="paint13_linear_74_2115" x1="66.9998" y1="18.1562" x2="85.2804" y2="73.2376" gradientUnits="userSpaceOnUse">
<stop stop-color="#BDC6CB" stop-opacity="0.36"/>
<stop offset="1" stop-color="#B7BEC8"/>
</linearGradient>
<linearGradient id="paint14_linear_74_2115" x1="68.6892" y1="64.5239" x2="53.5194" y2="31.0946" gradientUnits="userSpaceOnUse">
<stop stop-color="#EE5222"/>
<stop offset="1" stop-color="#FF9D66"/>
</linearGradient>
<linearGradient id="paint15_linear_74_2115" x1="95.6292" y1="40.6544" x2="58.849" y2="79.191" gradientUnits="userSpaceOnUse">
<stop stop-color="#FFA877"/>
<stop offset="1" stop-color="#FF0707"/>
</linearGradient>
<linearGradient id="paint16_linear_74_2115" x1="46.0414" y1="17.0804" x2="39.5289" y2="45.2384" gradientUnits="userSpaceOnUse">
<stop stop-color="#CCD1D3" stop-opacity="0.36"/>
<stop offset="1" stop-color="#C3C6CA"/>
</linearGradient>
<linearGradient id="paint17_linear_74_2115" x1="54.8389" y1="56.4956" x2="63.9013" y2="32.4261" gradientUnits="userSpaceOnUse">
<stop stop-color="#EE5222"/>
<stop offset="1" stop-color="#FF9559"/>
</linearGradient>
<linearGradient id="paint18_linear_74_2115" x1="14.0718" y1="4.31838" x2="-33.2432" y2="-34.21" gradientUnits="userSpaceOnUse">
<stop stop-color="#C9CFD2" stop-opacity="0.36"/>
<stop offset="1" stop-color="#B5BDC8"/>
</linearGradient>
<linearGradient id="paint19_linear_74_2115" x1="1.44471" y1="-1.94796" x2="24.8664" y2="20.3544" gradientUnits="userSpaceOnUse">
<stop stop-color="#BDC6CB" stop-opacity="0.36"/>
<stop offset="1" stop-color="#B7BEC8"/>
</linearGradient>
<linearGradient id="paint20_linear_74_2115" x1="66.8231" y1="31.5048" x2="30.4465" y2="-18.3583" gradientUnits="userSpaceOnUse">
<stop stop-color="#EE5222"/>
<stop offset="1" stop-color="#FF9D66"/>
</linearGradient>
<linearGradient id="paint21_linear_74_2115" x1="58.3918" y1="30.0804" x2="73.8775" y2="94.5354" gradientUnits="userSpaceOnUse">
<stop stop-color="#BDC6CB" stop-opacity="0.36"/>
<stop offset="1" stop-color="#B7BEC8"/>
</linearGradient>
<linearGradient id="paint22_linear_74_2115" x1="57.6304" y1="29.3567" x2="72.7114" y2="73.7972" gradientUnits="userSpaceOnUse">
<stop stop-color="#BDC6CB" stop-opacity="0.36"/>
<stop offset="1" stop-color="#B7BEC8"/>
</linearGradient>
<linearGradient id="paint23_linear_74_2115" x1="57.7307" y1="67.3562" x2="45.4111" y2="40.4595" gradientUnits="userSpaceOnUse">
<stop stop-color="#EE5222"/>
<stop offset="1" stop-color="#FF9D66"/>
</linearGradient>
<linearGradient id="paint24_linear_74_2115" x1="149.983" y1="54.2395" x2="68.1616" y2="125.132" gradientUnits="userSpaceOnUse">
<stop stop-color="#CCD1D3" stop-opacity="0.36"/>
<stop offset="1" stop-color="#C3C6CA"/>
</linearGradient>
<linearGradient id="paint25_linear_74_2115" x1="36.7558" y1="27.7694" x2="30.9739" y2="50.7444" gradientUnits="userSpaceOnUse">
<stop stop-color="#CCD1D3" stop-opacity="0.36"/>
<stop offset="1" stop-color="#C3C6CA"/>
</linearGradient>
<linearGradient id="paint26_linear_74_2115" x1="46.5858" y1="61.028" x2="54.1716" y2="41.593" gradientUnits="userSpaceOnUse">
<stop stop-color="#EE5222"/>
<stop offset="1" stop-color="#FF9559"/>
</linearGradient>
<linearGradient id="paint27_linear_74_2115" x1="14.0718" y1="4.31838" x2="-33.2432" y2="-34.21" gradientUnits="userSpaceOnUse">
<stop stop-color="#C9CFD2" stop-opacity="0.36"/>
<stop offset="1" stop-color="#B5BDC8"/>
</linearGradient>
<linearGradient id="paint28_linear_74_2115" x1="1.44471" y1="-1.94796" x2="24.8664" y2="20.3544" gradientUnits="userSpaceOnUse">
<stop stop-color="#BDC6CB" stop-opacity="0.36"/>
<stop offset="1" stop-color="#B7BEC8"/>
</linearGradient>
<linearGradient id="paint29_linear_74_2115" x1="66.8231" y1="31.5048" x2="30.4465" y2="-18.3583" gradientUnits="userSpaceOnUse">
<stop stop-color="#EE5222"/>
<stop offset="1" stop-color="#FF9D66"/>
</linearGradient>
<linearGradient id="paint30_linear_74_2115" x1="50.2473" y1="40.3315" x2="65.7329" y2="104.787" gradientUnits="userSpaceOnUse">
<stop stop-color="#BDC6CB" stop-opacity="0.36"/>
<stop offset="1" stop-color="#B7BEC8"/>
</linearGradient>
<linearGradient id="paint31_linear_74_2115" x1="47.6425" y1="40.2447" x2="59.917" y2="75.4275" gradientUnits="userSpaceOnUse">
<stop stop-color="#BDC6CB" stop-opacity="0.36"/>
<stop offset="1" stop-color="#B7BEC8"/>
</linearGradient>
<linearGradient id="paint32_linear_74_2115" x1="46.3631" y1="70.9786" x2="36.5288" y2="49.7568" gradientUnits="userSpaceOnUse">
<stop stop-color="#EE5222"/>
<stop offset="1" stop-color="#FF9D66"/>
</linearGradient>
<linearGradient id="paint33_linear_74_2115" x1="141.837" y1="64.4906" x2="60.0152" y2="135.383" gradientUnits="userSpaceOnUse">
<stop stop-color="#CCD1D3" stop-opacity="0.36"/>
<stop offset="1" stop-color="#C3C6CA"/>
</linearGradient>
<linearGradient id="paint34_linear_74_2115" x1="26.8441" y1="38.2128" x2="21.7622" y2="56.6306" gradientUnits="userSpaceOnUse">
<stop stop-color="#CCD1D3" stop-opacity="0.36"/>
<stop offset="1" stop-color="#C3C6CA"/>
</linearGradient>
<linearGradient id="paint35_linear_74_2115" x1="37.5693" y1="66.1478" x2="43.8288" y2="50.7452" gradientUnits="userSpaceOnUse">
<stop stop-color="#EE5222"/>
<stop offset="1" stop-color="#FF9559"/>
</linearGradient>
</defs>
</svg>
