<svg width="92" height="149" viewBox="0 0 92 149" fill="none" xmlns="http://www.w3.org/2000/svg">
<path d="M58.3986 10.0539L20.442 31.9682C9.37822 38.3558 0.409286 53.8905 0.409286 66.6658L0.409287 110.494C0.409287 116.262 2.23764 120.482 5.26166 122.787C5.8996 123.273 6.59075 123.675 7.32918 123.987L20.4419 131.598L29.3031 122.787L25.0659 119.391L58.3986 100.146C69.4623 93.7582 78.4313 78.2236 78.4313 65.4483L78.4313 28.3767L84.9936 29.3407L84.9938 15.6417L74.8667 9.53012C70.8602 7.08549 64.9531 6.26965 58.3986 10.0539Z" fill="white"/>
<path d="M58.3986 10.0539L20.442 31.9682C9.37822 38.3558 0.409286 53.8905 0.409286 66.6658L0.409287 110.494C0.409287 116.262 2.23764 120.482 5.26166 122.787C5.8996 123.273 6.59075 123.675 7.32918 123.987L20.4419 131.598L29.3031 122.787L25.0659 119.391L58.3986 100.146C69.4623 93.7582 78.4313 78.2236 78.4313 65.4483L78.4313 28.3767L84.9936 29.3407L84.9938 15.6417L74.8667 9.53012C70.8602 7.08549 64.9531 6.26965 58.3986 10.0539Z" fill="url(#paint0_linear_687_6256)" fill-opacity="0.85"/>
<path d="M91.4019 28.662C91.4019 15.8867 82.4329 10.7085 71.3692 17.0961L33.4125 39.0104C22.3488 45.3981 13.3799 60.9327 13.3799 73.708L13.3799 117.537C13.3799 130.312 22.3488 135.49 33.4125 129.102L71.3692 107.188C82.4329 100.801 91.4019 85.2659 91.4019 72.4906L91.4019 28.662Z" fill="white"/>
<path d="M91.4019 28.662C91.4019 15.8867 82.4329 10.7085 71.3692 17.0961L33.4125 39.0104C22.3488 45.3981 13.3799 60.9327 13.3799 73.708L13.3799 117.537C13.3799 130.312 22.3488 135.49 33.4125 129.102L71.3692 107.188C82.4329 100.801 91.4019 85.2659 91.4019 72.4906L91.4019 28.662Z" fill="url(#paint1_linear_687_6256)" fill-opacity="0.75"/>
<path fill-rule="evenodd" clip-rule="evenodd" d="M67.2094 81.2316C63.2254 85.1595 57.4252 90.6692 57.4252 90.6692L57.9907 53.2932C58.0109 51.8282 58.3994 48.786 61.6518 45.6617C65.673 41.7973 71.5361 35.9995 71.5361 35.9995L70.9658 73.7202C70.9409 75.5282 69.7624 78.7135 67.2094 81.2316ZM47.7849 100.076C43.8009 104.002 38.0007 109.515 38.0007 109.515L38.2881 89.9812C38.3084 88.5162 38.6965 87.0556 41.949 83.9313C45.9702 80.067 51.835 74.2683 51.835 74.2683L51.5431 92.5652C51.5181 94.3732 50.3379 97.5594 47.7849 100.076Z" fill="#F3F4F6"/>
<defs>
<linearGradient id="paint0_linear_687_6256" x1="77.0339" y1="28.5711" x2="46.9897" y2="4.04735" gradientUnits="userSpaceOnUse">
<stop stop-color="#FF7527"/>
<stop offset="1" stop-color="#FFAE63"/>
</linearGradient>
<linearGradient id="paint1_linear_687_6256" x1="109.381" y1="74.4815" x2="51.2337" y2="11.7286" gradientUnits="userSpaceOnUse">
<stop stop-color="#FF7527"/>
<stop offset="1" stop-color="#FFAE63"/>
</linearGradient>
</defs>
</svg>
