<svg width="62" height="121" viewBox="0 0 62 121" fill="none" xmlns="http://www.w3.org/2000/svg">
<path d="M0.245243 29.2216C0.224941 25.8085 2.67138 21.8342 5.70952 20.3445L46.0505 0.564685C49.0886 -0.924964 51.568 0.634234 51.5883 4.04725L51.9681 85.5559C51.9884 88.9689 49.542 92.9433 46.5039 94.4329L6.16289 114.213C3.12475 115.702 0.645395 114.143 0.625093 110.73L0.245243 29.2216Z" fill="#FF4810" fill-opacity="0.6"/>
<path d="M0.245243 29.2216C0.224941 25.8085 2.67138 21.8342 5.70952 20.3445L46.0505 0.564685C49.0886 -0.924964 51.568 0.634234 51.5883 4.04725L51.9681 85.5559C51.9884 88.9689 49.542 92.9433 46.5039 94.4329L6.16289 114.213C3.12475 115.702 0.645395 114.143 0.625093 110.73L0.245243 29.2216Z" fill="url(#paint0_linear_94_2604)"/>
<path d="M0.245243 29.2216C0.224941 25.8085 2.67138 21.8342 5.70952 20.3445L46.0505 0.564685C49.0886 -0.924964 51.568 0.634234 51.5883 4.04725L51.9681 85.5559C51.9884 88.9689 49.542 92.9433 46.5039 94.4329L6.16289 114.213C3.12475 115.702 0.645395 114.143 0.625093 110.73L0.245243 29.2216Z" fill="#B54242"/>
<path d="M0.245243 29.2216C0.224941 25.8085 2.67138 21.8342 5.70952 20.3445L46.0505 0.564685C49.0886 -0.924964 51.568 0.634234 51.5883 4.04725L51.9681 85.5559C51.9884 88.9689 49.542 92.9433 46.5039 94.4329L6.16289 114.213C3.12475 115.702 0.645395 114.143 0.625093 110.73L0.245243 29.2216Z" fill="url(#paint1_linear_94_2604)" fill-opacity="0.75"/>
<path d="M0.245243 29.2216C0.224941 25.8085 2.67138 21.8342 5.70952 20.3445L46.0505 0.564685C49.0886 -0.924964 51.568 0.634234 51.5883 4.04725L51.9681 85.5559C51.9884 88.9689 49.542 92.9433 46.5039 94.4329L6.16289 114.213C3.12475 115.702 0.645395 114.143 0.625093 110.73L0.245243 29.2216Z" fill="white"/>
<path d="M0.245243 29.2216C0.224941 25.8085 2.67138 21.8342 5.70952 20.3445L46.0505 0.564685C49.0886 -0.924964 51.568 0.634234 51.5883 4.04725L51.9681 85.5559C51.9884 88.9689 49.542 92.9433 46.5039 94.4329L6.16289 114.213C3.12475 115.702 0.645395 114.143 0.625093 110.73L0.245243 29.2216Z" fill="url(#paint2_linear_94_2604)" fill-opacity="0.85"/>
<path d="M46.7647 0.439337C48.9318 -0.65573 52.1812 0.780692 53.1971 1.8074L56.8515 4.35168L48.9073 7.24013L46.7647 0.439337Z" fill="#FF4810" fill-opacity="0.6"/>
<path d="M46.7647 0.439337C48.9318 -0.65573 52.1812 0.780692 53.1971 1.8074L56.8515 4.35168L48.9073 7.24013L46.7647 0.439337Z" fill="url(#paint3_linear_94_2604)"/>
<path d="M46.7647 0.439337C48.9318 -0.65573 52.1812 0.780692 53.1971 1.8074L56.8515 4.35168L48.9073 7.24013L46.7647 0.439337Z" fill="#B54242"/>
<path d="M46.7647 0.439337C48.9318 -0.65573 52.1812 0.780692 53.1971 1.8074L56.8515 4.35168L48.9073 7.24013L46.7647 0.439337Z" fill="url(#paint4_linear_94_2604)" fill-opacity="0.75"/>
<path d="M46.7647 0.439337C48.9318 -0.65573 52.1812 0.780692 53.1971 1.8074L56.8515 4.35168L48.9073 7.24013L46.7647 0.439337Z" fill="white"/>
<path d="M46.7647 0.439337C48.9318 -0.65573 52.1812 0.780692 53.1971 1.8074L56.8515 4.35168L48.9073 7.24013L46.7647 0.439337Z" fill="url(#paint5_linear_94_2604)" fill-opacity="0.85"/>
<path d="M1.3887 113.24C2.71113 115.748 9.89151 119.481 10.1787 117.471L5.6638 112.749L1.3887 113.24Z" fill="#FF4810" fill-opacity="0.6"/>
<path d="M1.3887 113.24C2.71113 115.748 9.89151 119.481 10.1787 117.471L5.6638 112.749L1.3887 113.24Z" fill="url(#paint6_linear_94_2604)"/>
<path d="M1.3887 113.24C2.71113 115.748 9.89151 119.481 10.1787 117.471L5.6638 112.749L1.3887 113.24Z" fill="#B54242"/>
<path d="M1.3887 113.24C2.71113 115.748 9.89151 119.481 10.1787 117.471L5.6638 112.749L1.3887 113.24Z" fill="url(#paint7_linear_94_2604)" fill-opacity="0.75"/>
<path d="M1.3887 113.24C2.71113 115.748 9.89151 119.481 10.1787 117.471L5.6638 112.749L1.3887 113.24Z" fill="white"/>
<path d="M1.3887 113.24C2.71113 115.748 9.89151 119.481 10.1787 117.471L5.6638 112.749L1.3887 113.24Z" fill="url(#paint8_linear_94_2604)" fill-opacity="0.85"/>
<path d="M5.99444 32.5753C5.97397 29.1708 8.44061 25.2062 11.5038 23.7203L52.1778 3.98946C55.2411 2.50351 57.7409 4.05884 57.7614 7.46339L58.1443 88.8137C58.1648 92.2183 55.6982 96.1828 52.635 97.6688L11.9609 117.4C8.89772 118.886 6.39789 117.33 6.37743 113.926L5.99444 32.5753Z" fill="white"/>
<path d="M5.99444 32.5753C5.97397 29.1708 8.44061 25.2062 11.5038 23.7203L52.1778 3.98946C55.2411 2.50351 57.7409 4.05884 57.7614 7.46339L58.1443 88.8137C58.1648 92.2183 55.6982 96.1828 52.635 97.6688L11.9609 117.4C8.89772 118.886 6.39789 117.33 6.37743 113.926L5.99444 32.5753Z" fill="url(#paint9_linear_94_2604)" fill-opacity="0.75"/>
<path d="M37.2451 61.7618L42.767 64.9499L52.6869 47.7682" stroke="white" stroke-width="30"/>
<path d="M18.6414 34.292L41.5492 23.0481" stroke="white" stroke-width="10" stroke-linecap="square"/>
<path d="M18.6409 47.5835L34.0108 40.0886" stroke="white" stroke-width="10" stroke-linecap="square"/>
<defs>
<linearGradient id="paint0_linear_94_2604" x1="53.1971" y1="-0.120054" x2="2.53992" y2="17.4957" gradientUnits="userSpaceOnUse">
<stop stop-color="white"/>
<stop offset="1" stop-color="white" stop-opacity="0.36"/>
</linearGradient>
<linearGradient id="paint1_linear_94_2604" x1="45.3192" y1="10.1079" x2="-7.86595" y2="26.9024" gradientUnits="userSpaceOnUse">
<stop stop-color="#FFA877"/>
<stop offset="1" stop-color="#FF0707"/>
</linearGradient>
<linearGradient id="paint2_linear_94_2604" x1="5.57201" y1="34.6872" x2="41.5669" y2="3.29991" gradientUnits="userSpaceOnUse">
<stop stop-color="#FF7527"/>
<stop offset="1" stop-color="#FFAE63"/>
</linearGradient>
<linearGradient id="paint3_linear_94_2604" x1="53.1971" y1="-0.120054" x2="2.53992" y2="17.4957" gradientUnits="userSpaceOnUse">
<stop stop-color="white"/>
<stop offset="1" stop-color="white" stop-opacity="0.36"/>
</linearGradient>
<linearGradient id="paint4_linear_94_2604" x1="45.3192" y1="10.1079" x2="-7.86595" y2="26.9024" gradientUnits="userSpaceOnUse">
<stop stop-color="#FFA877"/>
<stop offset="1" stop-color="#FF0707"/>
</linearGradient>
<linearGradient id="paint5_linear_94_2604" x1="5.57201" y1="34.6872" x2="41.5669" y2="3.29991" gradientUnits="userSpaceOnUse">
<stop stop-color="#FF7527"/>
<stop offset="1" stop-color="#FFAE63"/>
</linearGradient>
<linearGradient id="paint6_linear_94_2604" x1="53.1971" y1="-0.120054" x2="2.53992" y2="17.4957" gradientUnits="userSpaceOnUse">
<stop stop-color="white"/>
<stop offset="1" stop-color="white" stop-opacity="0.36"/>
</linearGradient>
<linearGradient id="paint7_linear_94_2604" x1="45.3192" y1="10.1079" x2="-7.86595" y2="26.9024" gradientUnits="userSpaceOnUse">
<stop stop-color="#FFA877"/>
<stop offset="1" stop-color="#FF0707"/>
</linearGradient>
<linearGradient id="paint8_linear_94_2604" x1="5.57201" y1="34.6872" x2="41.5669" y2="3.29991" gradientUnits="userSpaceOnUse">
<stop stop-color="#FF7527"/>
<stop offset="1" stop-color="#FFAE63"/>
</linearGradient>
<linearGradient id="paint9_linear_94_2604" x1="-5.60599" y1="114.706" x2="1.71416" y2="-6.01611" gradientUnits="userSpaceOnUse">
<stop stop-color="#FF7527"/>
<stop offset="1" stop-color="#FFAE63"/>
</linearGradient>
</defs>
</svg>
