<svg width="59" height="121" viewBox="0 0 59 121" fill="none" xmlns="http://www.w3.org/2000/svg">
<path d="M0.673954 29.2216C0.653652 25.8085 3.10009 21.8342 6.13823 20.3445L46.4792 0.564685C49.5173 -0.924964 51.9967 0.634234 52.017 4.04725L52.3969 85.5559C52.4172 88.9689 49.9707 92.9433 46.9326 94.4329L6.5916 114.213C3.55346 115.702 1.07411 114.143 1.0538 110.73L0.673954 29.2216Z" fill="white"/>
<path d="M0.673954 29.2216C0.653652 25.8085 3.10009 21.8342 6.13823 20.3445L46.4792 0.564685C49.5173 -0.924964 51.9967 0.634234 52.017 4.04725L52.3969 85.5559C52.4172 88.9689 49.9707 92.9433 46.9326 94.4329L6.5916 114.213C3.55346 115.702 1.07411 114.143 1.0538 110.73L0.673954 29.2216Z" fill="url(#paint0_linear_94_2611)" fill-opacity="0.6"/>
<path d="M47.1934 0.439337C49.3605 -0.65573 52.6099 0.780692 53.6258 1.8074L57.2802 4.35168L49.336 7.24013L47.1934 0.439337Z" fill="white"/>
<path d="M47.1934 0.439337C49.3605 -0.65573 52.6099 0.780692 53.6258 1.8074L57.2802 4.35168L49.336 7.24013L47.1934 0.439337Z" fill="url(#paint1_linear_94_2611)" fill-opacity="0.6"/>
<path d="M1.81741 113.24C2.42068 115.173 9.31384 118.62 11.3243 117.758L6.09252 112.749L1.81741 113.24Z" fill="white"/>
<path d="M1.81741 113.24C2.42068 115.173 9.31384 118.62 11.3243 117.758L6.09252 112.749L1.81741 113.24Z" fill="url(#paint2_linear_94_2611)" fill-opacity="0.6"/>
<path d="M6.42315 32.5753C6.40268 29.1708 8.86932 25.2062 11.9325 23.7203L52.6066 3.98946C55.6698 2.50351 58.1696 4.05884 58.1901 7.46339L58.5731 88.8137C58.5935 92.2183 56.1269 96.1828 53.0637 97.6688L12.3896 117.4C9.32643 118.886 6.82661 117.33 6.80614 113.926L6.42315 32.5753Z" fill="#D3B5B5"/>
<path d="M6.42315 32.5753C6.40268 29.1708 8.86932 25.2062 11.9325 23.7203L52.6066 3.98946C55.6698 2.50351 58.1696 4.05884 58.1901 7.46339L58.5731 88.8137C58.5935 92.2183 56.1269 96.1828 53.0637 97.6688L12.3896 117.4C9.32643 118.886 6.82661 117.33 6.80614 113.926L6.42315 32.5753Z" fill="url(#paint3_linear_94_2611)" fill-opacity="0.75"/>
<path d="M37.6748 61.7618L43.1967 64.9499L53.1166 47.7682" stroke="white" stroke-width="10"/>
<path d="M19.0701 34.292L41.9779 23.0481" stroke="white" stroke-width="10" stroke-linecap="square"/>
<path d="M19.0696 47.5835L34.4395 40.0886" stroke="white" stroke-width="10" stroke-linecap="square"/>
<defs>
<linearGradient id="paint0_linear_94_2611" x1="223.246" y1="86.1867" x2="90.2179" y2="223.747" gradientUnits="userSpaceOnUse">
<stop stop-color="#FFA877"/>
<stop offset="1" stop-color="#FF0707"/>
</linearGradient>
<linearGradient id="paint1_linear_94_2611" x1="223.246" y1="86.1867" x2="90.2179" y2="223.747" gradientUnits="userSpaceOnUse">
<stop stop-color="#FFA877"/>
<stop offset="1" stop-color="#FF0707"/>
</linearGradient>
<linearGradient id="paint2_linear_94_2611" x1="223.246" y1="86.1867" x2="90.2179" y2="223.747" gradientUnits="userSpaceOnUse">
<stop stop-color="#FFA877"/>
<stop offset="1" stop-color="#FF0707"/>
</linearGradient>
<linearGradient id="paint3_linear_94_2611" x1="210.659" y1="-2.85704" x2="141.477" y2="186.424" gradientUnits="userSpaceOnUse">
<stop stop-color="#FFA877"/>
<stop offset="1" stop-color="#FF0707"/>
</linearGradient>
</defs>
</svg>
