<svg width="113" height="133" viewBox="0 0 113 133" fill="none" xmlns="http://www.w3.org/2000/svg">
<rect width="54.6747" height="18.5379" transform="matrix(0.865529 0.500858 -0.865529 0.500858 65.6738 6.43433)" fill="#C4C4C4"/>
<rect width="54.6747" height="18.5379" transform="matrix(0.865529 0.500858 -0.865529 0.500858 65.6738 6.43433)" fill="white"/>
<rect width="54.6747" height="18.5379" transform="matrix(0.865529 0.500858 -0.865529 0.500858 65.6738 6.43433)" fill="url(#paint0_linear_94_2669)" fill-opacity="0.75"/>
<path d="M113 102.914L113 33.8206L96.9546 43.1054L96.9552 112.199L113 102.914Z" fill="#C4C4C4"/>
<path d="M113 102.914L113 33.8206L96.9546 43.1054L96.9552 112.199L113 102.914Z" fill="white"/>
<path d="M113 102.914L113 33.8206L96.9546 43.1054L96.9552 112.199L113 102.914Z" fill="url(#paint1_linear_94_2669)" fill-opacity="0.75"/>
<path d="M50.5815 84.5916L97.9041 111.976L97.9046 43.5505L50.582 16.1663L50.5815 84.5916Z" fill="#C4C4C4"/>
<path d="M50.5815 84.5916L97.9041 111.976L97.9046 43.5505L50.582 16.1663L50.5815 84.5916Z" fill="#D3B5B5"/>
<path d="M50.5815 84.5916L97.9041 111.976L97.9046 43.5505L50.582 16.1663L50.5815 84.5916Z" fill="url(#paint2_linear_94_2669)" fill-opacity="0.75"/>
<rect width="54.6747" height="18.5379" transform="matrix(0.865529 0.500858 -0.865529 0.500858 46.2461 56.402)" fill="#C4C4C4"/>
<rect width="54.6747" height="18.5379" transform="matrix(0.865529 0.500858 -0.865529 0.500858 46.2461 56.402)" fill="white"/>
<rect width="54.6747" height="18.5379" transform="matrix(0.865529 0.500858 -0.865529 0.500858 46.2461 56.402)" fill="url(#paint3_linear_94_2669)" fill-opacity="0.75"/>
<path d="M93.5725 123.644L93.5719 83.7879L77.5269 93.0728L77.5274 132.929L93.5725 123.644Z" fill="#C4C4C4"/>
<path d="M93.5725 123.644L93.5719 83.7879L77.5269 93.0728L77.5274 132.929L93.5725 123.644Z" fill="white"/>
<path d="M93.5725 123.644L93.5719 83.7879L77.5269 93.0728L77.5274 132.929L93.5725 123.644Z" fill="url(#paint4_linear_94_2669)" fill-opacity="0.75"/>
<path d="M30.2078 105.542L77.5303 132.927L77.5308 93.0709L30.2082 65.6866L30.2078 105.542Z" fill="#C4C4C4"/>
<path d="M30.2078 105.542L77.5303 132.927L77.5308 93.0709L30.2082 65.6866L30.2078 105.542Z" fill="#D3B5B5"/>
<path d="M30.2078 105.542L77.5303 132.927L77.5308 93.0709L30.2082 65.6866L30.2078 105.542Z" fill="url(#paint5_linear_94_2669)" fill-opacity="0.75"/>
<rect width="54.6747" height="18.5379" transform="matrix(0.865529 0.500858 -0.865529 0.500858 16.0452 52.8896)" fill="white"/>
<rect width="54.6747" height="18.5379" transform="matrix(0.865529 0.500858 -0.865529 0.500858 16.0452 52.8896)" fill="url(#paint6_linear_94_2669)" fill-opacity="0.75"/>
<rect width="54.6747" height="18.5379" transform="matrix(0.865529 0.500858 -0.865529 0.500858 16.0452 52.8896)" fill="white"/>
<rect width="54.6747" height="18.5379" transform="matrix(0.865529 0.500858 -0.865529 0.500858 16.0452 52.8896)" fill="url(#paint7_linear_94_2669)" fill-opacity="0.3"/>
<path d="M63.3716 114.232L63.371 80.2754L47.3259 89.5602L47.3265 123.517L63.3716 114.232Z" fill="white"/>
<path d="M63.3716 114.232L63.371 80.2754L47.3259 89.5602L47.3265 123.517L63.3716 114.232Z" fill="url(#paint8_linear_94_2669)" fill-opacity="0.75"/>
<path d="M63.3716 114.232L63.371 80.2754L47.3259 89.5602L47.3265 123.517L63.3716 114.232Z" fill="white"/>
<path d="M63.3716 114.232L63.371 80.2754L47.3259 89.5602L47.3265 123.517L63.3716 114.232Z" fill="url(#paint9_linear_94_2669)" fill-opacity="0.8"/>
<path d="M0.00708008 95.837L47.3296 123.221L47.3301 89.5577L0.00755437 62.1735L0.00708008 95.837Z" fill="white"/>
<path d="M0.00708008 95.837L47.3296 123.221L47.3301 89.5577L0.00755437 62.1735L0.00708008 95.837Z" fill="url(#paint10_linear_94_2669)" fill-opacity="0.75"/>
<path d="M0.00708008 95.837L47.3296 123.221L47.3301 89.5577L0.00755437 62.1735L0.00708008 95.837Z" fill="white"/>
<path d="M0.00708008 95.837L47.3296 123.221L47.3301 89.5577L0.00755437 62.1735L0.00708008 95.837Z" fill="url(#paint11_linear_94_2669)" fill-opacity="0.7"/>
<line y1="-10" x2="22.46" y2="-10" transform="matrix(0.865855 0.500295 3.18123e-05 1 21.9314 67.6355)" stroke="#FFDAC5" stroke-width="20"/>
<line y1="-10" x2="22.46" y2="-10" transform="matrix(0.865855 0.500295 3.18123e-05 1 53.3699 67.6355)" stroke="#FFDAC5" stroke-width="20"/>
<line y1="-10" x2="22.46" y2="-10" transform="matrix(0.865855 0.500295 3.18123e-05 1 71.3345 18.197)" stroke="#FFDAC5" stroke-width="20"/>
<defs>
<linearGradient id="paint0_linear_94_2669" x1="17.7567" y1="4.79078" x2="73.5984" y2="86.5784" gradientUnits="userSpaceOnUse">
<stop stop-color="#FFA877"/>
<stop offset="1" stop-color="#FF0707"/>
</linearGradient>
<linearGradient id="paint1_linear_94_2669" x1="116.378" y1="74.4995" x2="-1.4821" y2="114.396" gradientUnits="userSpaceOnUse">
<stop stop-color="#FFA877"/>
<stop offset="1" stop-color="#FF0707"/>
</linearGradient>
<linearGradient id="paint2_linear_94_2669" x1="236.652" y1="87.4095" x2="126.738" y2="202.359" gradientUnits="userSpaceOnUse">
<stop stop-color="#FFA877"/>
<stop offset="1" stop-color="#FF0707"/>
</linearGradient>
<linearGradient id="paint3_linear_94_2669" x1="17.7567" y1="4.79078" x2="73.5984" y2="86.5784" gradientUnits="userSpaceOnUse">
<stop stop-color="#FFA877"/>
<stop offset="1" stop-color="#FF0707"/>
</linearGradient>
<linearGradient id="paint4_linear_94_2669" x1="96.95" y1="124.467" x2="-20.9098" y2="164.364" gradientUnits="userSpaceOnUse">
<stop stop-color="#FFA877"/>
<stop offset="1" stop-color="#FF0707"/>
</linearGradient>
<linearGradient id="paint5_linear_94_2669" x1="216.279" y1="136.93" x2="106.364" y2="251.88" gradientUnits="userSpaceOnUse">
<stop stop-color="#FFA877"/>
<stop offset="1" stop-color="#FF0707"/>
</linearGradient>
<linearGradient id="paint6_linear_94_2669" x1="41.9902" y1="12.8861" x2="-99.1978" y2="-102.083" gradientUnits="userSpaceOnUse">
<stop stop-color="#9EC1D5" stop-opacity="0.36"/>
<stop offset="1" stop-color="#9FB1CB"/>
</linearGradient>
<linearGradient id="paint7_linear_94_2669" x1="41.9902" y1="12.8861" x2="-99.1978" y2="-102.083" gradientUnits="userSpaceOnUse">
<stop stop-color="#C9CFD2" stop-opacity="0.51"/>
<stop offset="1" stop-color="#B5BDC8"/>
</linearGradient>
<linearGradient id="paint8_linear_94_2669" x1="96.6259" y1="70.5438" x2="142.977" y2="263.107" gradientUnits="userSpaceOnUse">
<stop stop-color="#9EC1D5" stop-opacity="0.36"/>
<stop offset="1" stop-color="#9FB1CB"/>
</linearGradient>
<linearGradient id="paint9_linear_94_2669" x1="96.6259" y1="70.5438" x2="142.977" y2="263.107" gradientUnits="userSpaceOnUse">
<stop stop-color="#BDC6CB" stop-opacity="0.36"/>
<stop offset="1" stop-color="#B7BEC8"/>
</linearGradient>
<linearGradient id="paint10_linear_94_2669" x1="369.802" y1="142.734" x2="125.37" y2="354.121" gradientUnits="userSpaceOnUse">
<stop stop-color="#9EC1D5" stop-opacity="0.36"/>
<stop offset="1" stop-color="#9FB1CB"/>
</linearGradient>
<linearGradient id="paint11_linear_94_2669" x1="369.802" y1="142.734" x2="125.37" y2="354.121" gradientUnits="userSpaceOnUse">
<stop stop-color="#CCD1D3" stop-opacity="0"/>
<stop offset="1" stop-color="#C3C6CA"/>
</linearGradient>
</defs>
</svg>
