<svg width="181" height="137" viewBox="0 0 181 137" fill="none" xmlns="http://www.w3.org/2000/svg">
<rect width="37.3474" height="12.6629" transform="matrix(0.865991 0.500059 -0.865992 0.500059 93.0168 4.4137)" fill="url(#paint0_linear_74_2375)" fill-opacity="0.3"/>
<rect width="37.3474" height="12.6629" transform="matrix(0.865991 0.500059 -0.865992 0.500059 93.0168 4.4137)" fill="white"/>
<rect width="37.3474" height="12.6629" transform="matrix(0.865991 0.500059 -0.865992 0.500059 93.0168 4.4137)" fill="url(#paint1_linear_74_2375)" fill-opacity="0.2"/>
<rect width="37.3474" height="12.6629" transform="matrix(0.865991 0.500059 -0.865992 0.500059 93.0168 4.4137)" fill="#FFA68A"/>
<rect width="37.3474" height="12.6629" transform="matrix(0.865991 0.500059 -0.865992 0.500059 93.0168 4.4137)" fill="url(#paint2_linear_74_2375)" fill-opacity="0.4"/>
<path d="M125.358 103.445L125.358 23.0902L114.392 29.4224L114.392 109.777L125.358 103.445Z" fill="url(#paint3_linear_74_2375)" fill-opacity="0.5"/>
<path d="M125.358 103.445L125.358 23.0902L114.392 29.4224L114.392 109.777L125.358 103.445Z" fill="white"/>
<path d="M125.358 103.445L125.358 23.0902L114.392 29.4224L114.392 109.777L125.358 103.445Z" fill="url(#paint4_linear_74_2375)" fill-opacity="0.2"/>
<path d="M125.358 103.445L125.358 23.0902L114.392 29.4224L114.392 109.777L125.358 103.445Z" fill="#FF835E"/>
<path d="M125.358 103.445L125.358 23.0902L114.392 29.4224L114.392 109.777L125.358 103.445Z" fill="url(#paint5_linear_74_2375)" fill-opacity="0.75"/>
<path d="M98.2232 62.2464L98.2276 100.345L114.399 109.683L114.395 29.4215L82.0522 10.7456L82.0521 55.6315L98.2232 62.2464Z" fill="url(#paint6_linear_74_2375)" fill-opacity="0.4"/>
<path d="M98.2232 62.2464L98.2276 100.345L114.399 109.683L114.395 29.4215L82.0522 10.7456L82.0521 55.6315L98.2232 62.2464Z" fill="white"/>
<path d="M98.2232 62.2464L98.2276 100.345L114.399 109.683L114.395 29.4215L82.0522 10.7456L82.0521 55.6315L98.2232 62.2464Z" fill="url(#paint7_linear_74_2375)" fill-opacity="0.6"/>
<path d="M98.2232 62.2464L98.2276 100.345L114.399 109.683L114.395 29.4215L82.0522 10.7456L82.0521 55.6315L98.2232 62.2464Z" fill="#FF835E"/>
<path d="M98.2232 62.2464L98.2276 100.345L114.399 109.683L114.395 29.4215L82.0522 10.7456L82.0521 55.6315L98.2232 62.2464Z" fill="url(#paint8_linear_74_2375)" fill-opacity="0.75"/>
<rect width="37.3474" height="12.6629" transform="matrix(0.866084 0.499899 -0.866084 0.499899 78.4928 28.168)" fill="#C4C4C4"/>
<rect width="37.3474" height="12.6629" transform="matrix(0.866084 0.499899 -0.866084 0.499899 78.4928 28.168)" fill="white"/>
<rect width="37.3474" height="12.6629" transform="matrix(0.866084 0.499899 -0.866084 0.499899 78.4928 28.168)" fill="url(#paint9_linear_74_2375)" fill-opacity="0.75"/>
<rect width="37.3474" height="12.6629" transform="matrix(0.866084 0.499899 -0.866084 0.499899 78.4928 28.168)" fill="white"/>
<rect width="37.3474" height="12.6629" transform="matrix(0.866084 0.499899 -0.866084 0.499899 78.4928 28.168)" fill="url(#paint10_linear_74_2375)" fill-opacity="0.2"/>
<rect width="37.3474" height="12.6629" transform="matrix(0.866084 0.499899 -0.866084 0.499899 78.4928 28.168)" fill="#FFA68A"/>
<rect width="37.3474" height="12.6629" transform="matrix(0.866084 0.499899 -0.866084 0.499899 78.4928 28.168)" fill="url(#paint11_linear_74_2375)" fill-opacity="0.4"/>
<path d="M110.842 111.785L110.842 46.8445L99.8758 53.1767L99.8762 118.117L110.842 111.785Z" fill="#C4C4C4"/>
<path d="M110.842 111.785L110.842 46.8445L99.8758 53.1767L99.8762 118.117L110.842 111.785Z" fill="white"/>
<path d="M110.842 111.785L110.842 46.8445L99.8758 53.1767L99.8762 118.117L110.842 111.785Z" fill="url(#paint12_linear_74_2375)" fill-opacity="0.75"/>
<path d="M110.842 111.785L110.842 46.8445L99.8758 53.1767L99.8762 118.117L110.842 111.785Z" fill="white"/>
<path d="M110.842 111.785L110.842 46.8445L99.8758 53.1767L99.8762 118.117L110.842 111.785Z" fill="url(#paint13_linear_74_2375)" fill-opacity="0.2"/>
<path d="M110.842 111.785L110.842 46.8445L99.8758 53.1767L99.8762 118.117L110.842 111.785Z" fill="#FF835E"/>
<path d="M110.842 111.785L110.842 46.8445L99.8758 53.1767L99.8762 118.117L110.842 111.785Z" fill="url(#paint14_linear_74_2375)" fill-opacity="0.75"/>
<path d="M96.0846 115.791L99.8873 118.092L99.8787 53.1758L67.5361 34.4999L67.536 51.8642L96.0735 68.1738L96.0846 115.791Z" fill="#C4C4C4"/>
<path d="M96.0846 115.791L99.8873 118.092L99.8787 53.1758L67.5361 34.4999L67.536 51.8642L96.0735 68.1738L96.0846 115.791Z" fill="#D3B5B5"/>
<path d="M96.0846 115.791L99.8873 118.092L99.8787 53.1758L67.5361 34.4999L67.536 51.8642L96.0735 68.1738L96.0846 115.791Z" fill="url(#paint15_linear_74_2375)" fill-opacity="0.75"/>
<path d="M96.0846 115.791L99.8873 118.092L99.8787 53.1758L67.5361 34.4999L67.536 51.8642L96.0735 68.1738L96.0846 115.791Z" fill="white"/>
<path d="M96.0846 115.791L99.8873 118.092L99.8787 53.1758L67.5361 34.4999L67.536 51.8642L96.0735 68.1738L96.0846 115.791Z" fill="url(#paint16_linear_74_2375)" fill-opacity="0.6"/>
<path d="M96.0846 115.791L99.8873 118.092L99.8787 53.1758L67.5361 34.4999L67.536 51.8642L96.0735 68.1738L96.0846 115.791Z" fill="#FF835E"/>
<path d="M96.0846 115.791L99.8873 118.092L99.8787 53.1758L67.5361 34.4999L67.536 51.8642L96.0735 68.1738L96.0846 115.791Z" fill="url(#paint17_linear_74_2375)" fill-opacity="0.75"/>
<rect width="37.3474" height="12.6629" transform="matrix(0.865991 0.500059 -0.865992 0.500059 63.734 49.4988)" fill="url(#paint18_linear_74_2375)" fill-opacity="0.3"/>
<rect width="37.3474" height="12.6629" transform="matrix(0.865991 0.500059 -0.865992 0.500059 63.734 49.4988)" fill="white"/>
<rect width="37.3474" height="12.6629" transform="matrix(0.865991 0.500059 -0.865992 0.500059 63.734 49.4988)" fill="url(#paint19_linear_74_2375)" fill-opacity="0.2"/>
<rect width="37.3474" height="12.6629" transform="matrix(0.865991 0.500059 -0.865992 0.500059 63.734 49.4988)" fill="#FFA68A"/>
<rect width="37.3474" height="12.6629" transform="matrix(0.865991 0.500059 -0.865992 0.500059 63.734 49.4988)" fill="url(#paint20_linear_74_2375)" fill-opacity="0.4"/>
<path d="M96.0711 120.378L96.0707 68.1753L85.1047 74.5075L85.1051 126.71L96.0711 120.378Z" fill="url(#paint21_linear_74_2375)" fill-opacity="0.5"/>
<path d="M96.0711 120.378L96.0707 68.1753L85.1047 74.5075L85.1051 126.71L96.0711 120.378Z" fill="white"/>
<path d="M96.0711 120.378L96.0707 68.1753L85.1047 74.5075L85.1051 126.71L96.0711 120.378Z" fill="url(#paint22_linear_74_2375)" fill-opacity="0.2"/>
<path d="M96.0711 120.378L96.0707 68.1753L85.1047 74.5075L85.1051 126.71L96.0711 120.378Z" fill="#FF835E"/>
<path d="M96.0711 120.378L96.0707 68.1753L85.1047 74.5075L85.1051 126.71L96.0711 120.378Z" fill="url(#paint23_linear_74_2375)" fill-opacity="0.75"/>
<path d="M79.4517 89.045L79.4494 123.366L85.1093 126.649L85.1118 74.5066L52.7693 55.8307L52.7691 73.6661L79.4517 89.045Z" fill="url(#paint24_linear_74_2375)" fill-opacity="0.4"/>
<path d="M79.4517 89.045L79.4494 123.366L85.1093 126.649L85.1118 74.5066L52.7693 55.8307L52.7691 73.6661L79.4517 89.045Z" fill="white"/>
<path d="M79.4517 89.045L79.4494 123.366L85.1093 126.649L85.1118 74.5066L52.7693 55.8307L52.7691 73.6661L79.4517 89.045Z" fill="url(#paint25_linear_74_2375)" fill-opacity="0.6"/>
<path d="M79.4517 89.045L79.4494 123.366L85.1093 126.649L85.1118 74.5066L52.7693 55.8307L52.7691 73.6661L79.4517 89.045Z" fill="#FF835E"/>
<path d="M79.4517 89.045L79.4494 123.366L85.1093 126.649L85.1118 74.5066L52.7693 55.8307L52.7691 73.6661L79.4517 89.045Z" fill="url(#paint26_linear_74_2375)" fill-opacity="0.75"/>
<rect width="37.3474" height="12.6629" transform="matrix(0.865991 0.500059 -0.865992 0.500059 47.1281 70.3896)" fill="url(#paint27_linear_74_2375)" fill-opacity="0.3"/>
<rect width="37.3474" height="12.6629" transform="matrix(0.865991 0.500059 -0.865992 0.500059 47.1281 70.3896)" fill="white"/>
<rect width="37.3474" height="12.6629" transform="matrix(0.865991 0.500059 -0.865992 0.500059 47.1281 70.3896)" fill="url(#paint28_linear_74_2375)" fill-opacity="0.2"/>
<rect width="37.3474" height="12.6629" transform="matrix(0.865991 0.500059 -0.865992 0.500059 47.1281 70.3896)" fill="#FFA68A"/>
<rect width="37.3474" height="12.6629" transform="matrix(0.865991 0.500059 -0.865992 0.500059 47.1281 70.3896)" fill="url(#paint29_linear_74_2375)" fill-opacity="0.4"/>
<path d="M79.4686 130.21L79.4683 89.0662L68.5023 95.3984L68.5027 136.542L79.4686 130.21Z" fill="url(#paint30_linear_74_2375)" fill-opacity="0.5"/>
<path d="M79.4686 130.21L79.4683 89.0662L68.5023 95.3984L68.5027 136.542L79.4686 130.21Z" fill="white"/>
<path d="M79.4686 130.21L79.4683 89.0662L68.5023 95.3984L68.5027 136.542L79.4686 130.21Z" fill="url(#paint31_linear_74_2375)" fill-opacity="0.2"/>
<path d="M79.4686 130.21L79.4683 89.0662L68.5023 95.3984L68.5027 136.542L79.4686 130.21Z" fill="#FF835E"/>
<path d="M79.4686 130.21L79.4683 89.0662L68.5023 95.3984L68.5027 136.542L79.4686 130.21Z" fill="url(#paint32_linear_74_2375)" fill-opacity="0.75"/>
<path d="M36.156 117.819L68.4986 136.495L68.5056 95.3974L36.1631 76.7216L36.156 117.819Z" fill="url(#paint33_linear_74_2375)" fill-opacity="0.4"/>
<path d="M36.156 117.819L68.4986 136.495L68.5056 95.3974L36.1631 76.7216L36.156 117.819Z" fill="white"/>
<path d="M36.156 117.819L68.4986 136.495L68.5056 95.3974L36.1631 76.7216L36.156 117.819Z" fill="url(#paint34_linear_74_2375)" fill-opacity="0.6"/>
<path d="M36.156 117.819L68.4986 136.495L68.5056 95.3974L36.1631 76.7216L36.156 117.819Z" fill="#FF835E"/>
<path d="M36.156 117.819L68.4986 136.495L68.5056 95.3974L36.1631 76.7216L36.156 117.819Z" fill="url(#paint35_linear_74_2375)" fill-opacity="0.75"/>
<path d="M30.6032 73.5159L64.6601 14.5184M64.6601 14.5184L48.172 24.0393M64.6601 14.5184L64.6601 33.5602" stroke="white" stroke-width="7"/>
<defs>
<linearGradient id="paint0_linear_74_2375" x1="28.6828" y1="8.80227" x2="-67.7604" y2="-69.7311" gradientUnits="userSpaceOnUse">
<stop stop-color="#C9CFD2" stop-opacity="0.36"/>
<stop offset="1" stop-color="#B5BDC8"/>
</linearGradient>
<linearGradient id="paint1_linear_74_2375" x1="2.94479" y1="-3.97058" x2="50.6859" y2="41.4889" gradientUnits="userSpaceOnUse">
<stop stop-color="#BDC6CB" stop-opacity="0.36"/>
<stop offset="1" stop-color="#B7BEC8"/>
</linearGradient>
<linearGradient id="paint2_linear_74_2375" x1="136.207" y1="64.2171" x2="62.0599" y2="-37.4201" gradientUnits="userSpaceOnUse">
<stop stop-color="#EE5222"/>
<stop offset="1" stop-color="#FF9D66"/>
</linearGradient>
<linearGradient id="paint3_linear_74_2375" x1="148.086" y1="16.4533" x2="179.637" y2="147.811" gradientUnits="userSpaceOnUse">
<stop stop-color="#BDC6CB" stop-opacity="0.36"/>
<stop offset="1" stop-color="#B7BEC8"/>
</linearGradient>
<linearGradient id="paint4_linear_74_2375" x1="156.099" y1="11.6747" x2="201.181" y2="150.137" gradientUnits="userSpaceOnUse">
<stop stop-color="#BDC6CB" stop-opacity="0.36"/>
<stop offset="1" stop-color="#B7BEC8"/>
</linearGradient>
<linearGradient id="paint5_linear_74_2375" x1="163.463" y1="126.805" x2="125.547" y2="42.5676" gradientUnits="userSpaceOnUse">
<stop stop-color="#EE5222"/>
<stop offset="1" stop-color="#FF9D66"/>
</linearGradient>
<linearGradient id="paint6_linear_74_2375" x1="334.788" y1="65.6874" x2="168.035" y2="210.204" gradientUnits="userSpaceOnUse">
<stop stop-color="#CCD1D3" stop-opacity="0.36"/>
<stop offset="1" stop-color="#C3C6CA"/>
</linearGradient>
<linearGradient id="paint7_linear_74_2375" x1="113.139" y1="10.7456" x2="98.2186" y2="80.6619" gradientUnits="userSpaceOnUse">
<stop stop-color="#CCD1D3" stop-opacity="0.36"/>
<stop offset="1" stop-color="#C3C6CA"/>
</linearGradient>
<linearGradient id="paint8_linear_74_2375" x1="128.526" y1="106.145" x2="150.5" y2="45.7917" gradientUnits="userSpaceOnUse">
<stop stop-color="#EE5222"/>
<stop offset="1" stop-color="#FF9559"/>
</linearGradient>
<linearGradient id="paint9_linear_74_2375" x1="12.1293" y1="3.2725" x2="50.2739" y2="59.1403" gradientUnits="userSpaceOnUse">
<stop stop-color="#FFA877"/>
<stop offset="1" stop-color="#FF0707"/>
</linearGradient>
<linearGradient id="paint10_linear_74_2375" x1="2.94479" y1="-3.97058" x2="50.6859" y2="41.4889" gradientUnits="userSpaceOnUse">
<stop stop-color="#BDC6CB" stop-opacity="0.36"/>
<stop offset="1" stop-color="#B7BEC8"/>
</linearGradient>
<linearGradient id="paint11_linear_74_2375" x1="136.207" y1="64.2171" x2="62.0599" y2="-37.4201" gradientUnits="userSpaceOnUse">
<stop stop-color="#EE5222"/>
<stop offset="1" stop-color="#FF9D66"/>
</linearGradient>
<linearGradient id="paint12_linear_74_2375" x1="113.151" y1="74.5873" x2="32.6348" y2="101.901" gradientUnits="userSpaceOnUse">
<stop stop-color="#FFA877"/>
<stop offset="1" stop-color="#FF0707"/>
</linearGradient>
<linearGradient id="paint13_linear_74_2375" x1="136.346" y1="37.2379" x2="173.592" y2="149.495" gradientUnits="userSpaceOnUse">
<stop stop-color="#BDC6CB" stop-opacity="0.36"/>
<stop offset="1" stop-color="#B7BEC8"/>
</linearGradient>
<linearGradient id="paint14_linear_74_2375" x1="139.79" y1="131.731" x2="108.88" y2="63.5991" gradientUnits="userSpaceOnUse">
<stop stop-color="#EE5222"/>
<stop offset="1" stop-color="#FF9D66"/>
</linearGradient>
<linearGradient id="paint15_linear_74_2375" x1="194.706" y1="83.0873" x2="119.752" y2="161.642" gradientUnits="userSpaceOnUse">
<stop stop-color="#FFA877"/>
<stop offset="1" stop-color="#FF0707"/>
</linearGradient>
<linearGradient id="paint16_linear_74_2375" x1="93.6228" y1="35.0454" x2="80.3541" y2="92.4306" gradientUnits="userSpaceOnUse">
<stop stop-color="#CCD1D3" stop-opacity="0.36"/>
<stop offset="1" stop-color="#C3C6CA"/>
</linearGradient>
<linearGradient id="paint17_linear_74_2375" x1="111.556" y1="115.37" x2="130.021" y2="66.3154" gradientUnits="userSpaceOnUse">
<stop stop-color="#EE5222"/>
<stop offset="1" stop-color="#FF9559"/>
</linearGradient>
<linearGradient id="paint18_linear_74_2375" x1="28.6828" y1="8.80227" x2="-67.7604" y2="-69.7311" gradientUnits="userSpaceOnUse">
<stop stop-color="#C9CFD2" stop-opacity="0.36"/>
<stop offset="1" stop-color="#B5BDC8"/>
</linearGradient>
<linearGradient id="paint19_linear_74_2375" x1="2.94479" y1="-3.97058" x2="50.6859" y2="41.4889" gradientUnits="userSpaceOnUse">
<stop stop-color="#BDC6CB" stop-opacity="0.36"/>
<stop offset="1" stop-color="#B7BEC8"/>
</linearGradient>
<linearGradient id="paint20_linear_74_2375" x1="136.207" y1="64.2171" x2="62.0599" y2="-37.4201" gradientUnits="userSpaceOnUse">
<stop stop-color="#EE5222"/>
<stop offset="1" stop-color="#FF9D66"/>
</linearGradient>
<linearGradient id="paint21_linear_74_2375" x1="118.799" y1="61.5384" x2="150.35" y2="192.896" gradientUnits="userSpaceOnUse">
<stop stop-color="#BDC6CB" stop-opacity="0.36"/>
<stop offset="1" stop-color="#B7BEC8"/>
</linearGradient>
<linearGradient id="paint22_linear_74_2375" x1="117.247" y1="60.0635" x2="147.974" y2="150.635" gradientUnits="userSpaceOnUse">
<stop stop-color="#BDC6CB" stop-opacity="0.36"/>
<stop offset="1" stop-color="#B7BEC8"/>
</linearGradient>
<linearGradient id="paint23_linear_74_2375" x1="117.451" y1="137.503" x2="92.3491" y2="82.685" gradientUnits="userSpaceOnUse">
<stop stop-color="#EE5222"/>
<stop offset="1" stop-color="#FF9D66"/>
</linearGradient>
<linearGradient id="paint24_linear_74_2375" x1="305.505" y1="110.773" x2="138.752" y2="255.289" gradientUnits="userSpaceOnUse">
<stop stop-color="#CCD1D3" stop-opacity="0.36"/>
<stop offset="1" stop-color="#C3C6CA"/>
</linearGradient>
<linearGradient id="paint25_linear_74_2375" x1="74.6945" y1="56.8287" x2="62.9143" y2="103.651" gradientUnits="userSpaceOnUse">
<stop stop-color="#CCD1D3" stop-opacity="0.36"/>
<stop offset="1" stop-color="#C3C6CA"/>
</linearGradient>
<linearGradient id="paint26_linear_74_2375" x1="94.7326" y1="124.607" x2="110.189" y2="84.9972" gradientUnits="userSpaceOnUse">
<stop stop-color="#EE5222"/>
<stop offset="1" stop-color="#FF9559"/>
</linearGradient>
<linearGradient id="paint27_linear_74_2375" x1="28.6828" y1="8.80227" x2="-67.7604" y2="-69.7311" gradientUnits="userSpaceOnUse">
<stop stop-color="#C9CFD2" stop-opacity="0.36"/>
<stop offset="1" stop-color="#B5BDC8"/>
</linearGradient>
<linearGradient id="paint28_linear_74_2375" x1="2.94479" y1="-3.97058" x2="50.6859" y2="41.4889" gradientUnits="userSpaceOnUse">
<stop stop-color="#BDC6CB" stop-opacity="0.36"/>
<stop offset="1" stop-color="#B7BEC8"/>
</linearGradient>
<linearGradient id="paint29_linear_74_2375" x1="136.207" y1="64.2171" x2="62.0599" y2="-37.4201" gradientUnits="userSpaceOnUse">
<stop stop-color="#EE5222"/>
<stop offset="1" stop-color="#FF9D66"/>
</linearGradient>
<linearGradient id="paint30_linear_74_2375" x1="102.196" y1="82.4293" x2="133.747" y2="213.787" gradientUnits="userSpaceOnUse">
<stop stop-color="#BDC6CB" stop-opacity="0.36"/>
<stop offset="1" stop-color="#B7BEC8"/>
</linearGradient>
<linearGradient id="paint31_linear_74_2375" x1="96.8866" y1="82.2522" x2="121.896" y2="153.956" gradientUnits="userSpaceOnUse">
<stop stop-color="#BDC6CB" stop-opacity="0.36"/>
<stop offset="1" stop-color="#B7BEC8"/>
</linearGradient>
<linearGradient id="paint32_linear_74_2375" x1="94.2786" y1="144.885" x2="74.2406" y2="101.633" gradientUnits="userSpaceOnUse">
<stop stop-color="#EE5222"/>
<stop offset="1" stop-color="#FF9D66"/>
</linearGradient>
<linearGradient id="paint33_linear_74_2375" x1="288.899" y1="131.663" x2="122.146" y2="276.18" gradientUnits="userSpaceOnUse">
<stop stop-color="#CCD1D3" stop-opacity="0.36"/>
<stop offset="1" stop-color="#C3C6CA"/>
</linearGradient>
<linearGradient id="paint34_linear_74_2375" x1="54.4899" y1="78.1114" x2="44.1357" y2="115.647" gradientUnits="userSpaceOnUse">
<stop stop-color="#CCD1D3" stop-opacity="0.36"/>
<stop offset="1" stop-color="#C3C6CA"/>
</linearGradient>
<linearGradient id="paint35_linear_74_2375" x1="76.3528" y1="135.041" x2="89.1066" y2="103.649" gradientUnits="userSpaceOnUse">
<stop stop-color="#EE5222"/>
<stop offset="1" stop-color="#FF9559"/>
</linearGradient>
</defs>
</svg>
