<svg width="58" height="118" viewBox="0 0 58 118" fill="none" xmlns="http://www.w3.org/2000/svg">
<path d="M48.0402 8.70069C48.0402 5.46843 47.0321 3.1001 45.3632 1.79854C43.319 0.204296 40.2834 0.21056 36.8945 2.19012L11.2587 17.1649C5.10312 20.7606 0.113048 29.5053 0.113048 36.6967L0.113048 107.132C0.113048 110.548 1.23907 112.999 3.08116 114.246C3.27302 114.375 3.47264 114.492 3.67957 114.596C5.66832 115.59 9.06019 114.78 11.9871 113.07L36.8946 98.6674C43.0501 95.0717 48.0402 86.3271 48.0402 79.1357L48.0402 8.70069Z" fill="white"/>
<path d="M48.0402 8.70069C48.0402 5.46843 47.0321 3.1001 45.3632 1.79854C43.319 0.204296 40.2834 0.21056 36.8945 2.19012L11.2587 17.1649C5.10312 20.7606 0.113048 29.5053 0.113048 36.6967L0.113048 107.132C0.113048 110.548 1.23907 112.999 3.08116 114.246C3.27302 114.375 3.47264 114.492 3.67957 114.596C5.66832 115.59 9.06019 114.78 11.9871 113.07L36.8946 98.6674C43.0501 95.0717 48.0402 86.3271 48.0402 79.1357L48.0402 8.70069Z" fill="url(#paint0_linear_92_2360)" fill-opacity="0.6"/>
<path d="M48.0402 8.70069C48.0402 5.46843 47.0321 3.1001 45.3632 1.79854L55.0723 7.36116L48.0402 8.70069Z" fill="white"/>
<path d="M48.0402 8.70069C48.0402 5.46843 47.0321 3.1001 45.3632 1.79854L55.0723 7.36116L48.0402 8.70069Z" fill="url(#paint1_linear_92_2360)" fill-opacity="0.6"/>
<path d="M3.67957 114.596C5.66832 115.59 9.06019 114.78 11.9871 113.07L14.2852 117.305C10.8381 117.305 5.38919 115.588 3.67957 114.596Z" fill="white"/>
<path d="M3.67957 114.596C5.66832 115.59 9.06019 114.78 11.9871 113.07L14.2852 117.305C10.8381 117.305 5.38919 115.588 3.67957 114.596Z" fill="url(#paint2_linear_92_2360)" fill-opacity="0.6"/>
<path d="M57.5664 14.182C57.5664 6.99067 52.5763 4.07579 46.4208 7.67147L20.7849 22.6463C14.6293 26.242 9.63926 34.9866 9.63926 42.178L9.63926 109.496C9.63926 116.687 14.6293 119.602 20.7849 116.007L46.4208 101.032C52.5763 97.436 57.5664 88.6914 57.5664 81.5L57.5664 14.182Z" fill="white"/>
<path d="M57.5664 14.182C57.5664 6.99067 52.5763 4.07579 46.4208 7.67147L20.7849 22.6463C14.6293 26.242 9.63926 34.9866 9.63926 42.178L9.63926 109.496C9.63926 116.687 14.6293 119.602 20.7849 116.007L46.4208 101.032C52.5763 97.436 57.5664 88.6914 57.5664 81.5L57.5664 14.182Z" fill="url(#paint3_linear_92_2360)" fill-opacity="0.2"/>
<path d="M54.2771 16.3044C54.2771 11.0405 50.419 10.0966 46.8979 12.2891L22.0243 26.9458C17.5186 29.5778 13.866 35.9786 13.866 41.2425L13.866 104.926C13.866 110.19 17.5186 110.808 22.0243 108.176L46.2567 93.7262C50.7624 91.0943 54.415 84.0925 54.415 78.2245L54.2771 16.3044Z" fill="white" fill-opacity="0.65"/>
<path d="M54.2771 16.3044C54.2771 11.0405 50.419 10.0966 46.8979 12.2891L22.0243 26.9458C17.5186 29.5778 13.866 35.9786 13.866 41.2425L13.866 104.926C13.866 110.19 17.5186 110.808 22.0243 108.176L46.2567 93.7262C50.7624 91.0943 54.415 84.0925 54.415 78.2245L54.2771 16.3044Z" fill="#FF835E"/>
<path d="M54.2771 16.3044C54.2771 11.0405 50.419 10.0966 46.8979 12.2891L22.0243 26.9458C17.5186 29.5778 13.866 35.9786 13.866 41.2425L13.866 104.926C13.866 110.19 17.5186 110.808 22.0243 108.176L46.2567 93.7262C50.7624 91.0943 54.415 84.0925 54.415 78.2245L54.2771 16.3044Z" fill="url(#paint4_linear_92_2360)" fill-opacity="0.75"/>
<path fill-rule="evenodd" clip-rule="evenodd" d="M43.0015 64.6796C40.495 67.1509 36.8459 70.6172 36.8459 70.6172L37.2017 47.1024C37.2144 46.1807 37.4588 44.2668 39.505 42.3011C42.035 39.8699 45.7236 36.2223 45.7236 36.2223L45.3649 59.9539C45.3492 61.0914 44.6078 63.0954 43.0015 64.6796ZM30.7808 76.5352C28.2743 79.0054 24.6252 82.4739 24.6252 82.4739L24.806 70.1844C24.8187 69.2627 25.0629 68.3437 27.1092 66.3781C29.6391 63.9469 33.3289 60.2987 33.3289 60.2987L33.1452 71.8101C33.1295 72.9475 32.387 74.9521 30.7808 76.5352Z" fill="#F3F4F6"/>
<defs>
<linearGradient id="paint0_linear_92_2360" x1="27.5928" y1="1.74366" x2="7.42731" y2="124.552" gradientUnits="userSpaceOnUse">
<stop stop-color="#CCD1D3" stop-opacity="0.36"/>
<stop offset="1" stop-color="#C3C6CA"/>
</linearGradient>
<linearGradient id="paint1_linear_92_2360" x1="27.5928" y1="1.74366" x2="7.42731" y2="124.552" gradientUnits="userSpaceOnUse">
<stop stop-color="#CCD1D3" stop-opacity="0.36"/>
<stop offset="1" stop-color="#C3C6CA"/>
</linearGradient>
<linearGradient id="paint2_linear_92_2360" x1="27.5928" y1="1.74366" x2="7.42731" y2="124.552" gradientUnits="userSpaceOnUse">
<stop stop-color="#CCD1D3" stop-opacity="0.36"/>
<stop offset="1" stop-color="#C3C6CA"/>
</linearGradient>
<linearGradient id="paint3_linear_92_2360" x1="19.7995" y1="6.13133" x2="-5.90175" y2="33.6074" gradientUnits="userSpaceOnUse">
<stop stop-color="#BDC6CB" stop-opacity="0.36"/>
<stop offset="1" stop-color="#B7BEC8"/>
</linearGradient>
<linearGradient id="paint4_linear_92_2360" x1="37.4575" y1="112.796" x2="16.4441" y2="59.7209" gradientUnits="userSpaceOnUse">
<stop stop-color="#EE5222"/>
<stop offset="1" stop-color="#FF9D66"/>
</linearGradient>
</defs>
</svg>
