<svg width="142" height="149" viewBox="0 0 142 149" fill="none" xmlns="http://www.w3.org/2000/svg">
<path d="M27.6566 50.1064C12.5544 79.2795 15.8165 110.81 33.8333 120.62C49.1842 128.566 70.5283 118.631 85.9866 98.4708C89.1578 94.3348 92.0804 89.7538 94.6512 84.7877C129.671 60.5119 135.029 34.792 88.4988 14.6244C69.9987 5.04742 42.7587 20.9332 27.6566 50.1064Z" fill="#FFD076"/>
<path d="M33.8333 120.62C49.1842 128.566 70.5283 118.631 85.9866 98.4708L91.7456 99.2948L54.0303 131.502L33.8333 120.62Z" fill="#FFD076"/>
<ellipse cx="37.7196" cy="59.4809" rx="37.7196" ry="59.4809" transform="matrix(-0.888061 -0.459726 -0.459726 0.888061 141.075 42.5822)" fill="white"/>
<ellipse cx="37.7196" cy="59.4809" rx="37.7196" ry="59.4809" transform="matrix(-0.888061 -0.459726 -0.459726 0.888061 141.075 42.5822)" fill="url(#paint0_linear_80_564)"/>
<ellipse cx="27.5643" cy="47.8749" rx="27.5643" ry="47.8749" transform="matrix(-0.888061 -0.459726 -0.459726 0.888061 128.015 48.884)" fill="white" fill-opacity="0.2"/>
<path d="M66.446 61.2201L66.4443 112.721L81.0913 104.264C85.0476 101.979 88.6884 98.7247 92.0135 94.4996C95.3806 90.2502 98.0323 85.5801 99.9686 80.4893C101.947 75.4232 102.936 70.5604 102.936 65.9008C102.936 61.1921 101.947 57.447 99.9694 54.6653C97.9913 51.8836 95.3188 50.3122 91.9517 49.9511C88.6268 49.5656 85.0072 50.5029 81.0929 52.763L66.446 61.2201ZM81.0926 62.916C83.3654 61.6037 85.4698 61.0753 87.4059 61.3308C89.384 61.562 90.9623 62.5145 92.1407 64.1884C93.3191 65.9113 93.9083 68.2197 93.9082 71.1135C93.9081 74.0074 93.3188 76.9717 92.1402 80.0065C90.9616 83.0903 89.3832 85.89 87.405 88.4055C85.4689 90.8968 83.3644 92.7985 81.0916 94.1108L75.4727 97.3551L75.4737 66.1603L81.0926 62.916Z" fill="#F3F4F6"/>
<defs>
<linearGradient id="paint0_linear_80_564" x1="36.7729" y1="-20.0199" x2="30.8523" y2="151.66" gradientUnits="userSpaceOnUse">
<stop stop-color="#FFD777"/>
<stop offset="1" stop-color="#FF8D07"/>
</linearGradient>
</defs>
</svg>
