<svg width="48" height="48" viewBox="0 0 48 48" fill="none" xmlns="http://www.w3.org/2000/svg">
<g clip-path="url(#clip0_8295_8640)">
<path d="M0 24C0 10.7452 10.7452 0 24 0C37.2548 0 48 10.7452 48 24C48 37.2548 37.2548 48 24 48C10.7452 48 0 37.2548 0 24Z" fill="#F6F6F5"/>
<path d="M11.2623 21.7329V46.2138C11.2623 50.6244 15.192 53.9983 19.5517 53.3309L47.2165 49.0963C51.2856 48.4734 54.0052 44.5717 53.1814 40.5384L47.1707 11.1082C46.2602 6.64999 41.494 4.14379 37.305 5.92044L15.651 15.1044C12.9904 16.2329 11.2623 18.8428 11.2623 21.7329Z" fill="#BEBEB6" fill-opacity="0.4"/>
<path d="M21.4211 28.334L52.7188 15.0599" stroke="#F6F6F5" stroke-width="4.8" stroke-linecap="round"/>
<path d="M21.4211 39.6115L33.6631 34.4194" stroke="#F6F6F5" stroke-width="4.8" stroke-linecap="round"/>
</g>
<defs>
<clipPath id="clip0_8295_8640">
<path d="M0 24C0 10.7452 10.7452 0 24 0C37.2548 0 48 10.7452 48 24C48 37.2548 37.2548 48 24 48C10.7452 48 0 37.2548 0 24Z" fill="white"/>
</clipPath>
</defs>
</svg>
