<svg width="182" height="48" viewBox="0 0 182 48" fill="none" xmlns="http://www.w3.org/2000/svg">
<g clip-path="url(#clip0_8294_5764)">
<path d="M60.1074 33.9922H61.978V44.0975H60.1074V33.9922ZM70.7632 37.1548C71.3495 37.7255 71.638 38.5676 71.638 39.6811V44.0975H69.8419V39.915C69.8419 39.2413 69.6837 38.736 69.3673 38.3898C69.0509 38.053 68.6042 37.8752 68.0179 37.8752C67.3571 37.8752 66.8359 38.0717 66.4544 38.4741C66.0728 38.8764 65.8774 39.4472 65.8774 40.1957V44.0975H64.0812V36.3875H65.7936V37.3793C66.0914 37.0238 66.4637 36.7524 66.9104 36.5653C67.3571 36.3875 67.8689 36.2939 68.4366 36.2939C69.4045 36.2939 70.1769 36.5746 70.7632 37.1454V37.1548ZM80.5256 36.3875L77.2405 44.0975H75.3885L72.1034 36.3875H73.9739L76.3564 42.1045L78.8133 36.3875H80.5349H80.5256ZM88.1755 40.8226H82.1636C82.2659 41.3934 82.5451 41.8425 82.9918 42.17C83.4385 42.5068 83.9876 42.6659 84.6484 42.6659C85.4859 42.6659 86.1839 42.3852 86.733 41.8238L87.6916 42.9372C87.3472 43.3489 86.9098 43.667 86.3887 43.8729C85.8582 44.0881 85.2719 44.191 84.6111 44.191C83.7643 44.191 83.0291 44.0226 82.3869 43.6858C81.7448 43.3489 81.2515 42.8811 80.8979 42.2822C80.5443 41.6834 80.3767 41.0004 80.3767 40.2425C80.3767 39.4846 80.5443 38.8109 80.8886 38.2121C81.2236 37.6132 81.6982 37.1454 82.3032 36.8086C82.9081 36.4717 83.5874 36.3033 84.3413 36.3033C85.0951 36.3033 85.7558 36.4717 86.3421 36.7992C86.9284 37.1267 87.3938 37.5945 87.7195 38.2027C88.0452 38.8109 88.2127 39.5033 88.2127 40.2893C88.2127 40.4109 88.2034 40.5887 88.1848 40.8226H88.1755ZM82.8709 38.2589C82.4707 38.6051 82.2287 39.0542 82.145 39.6249H86.491C86.4166 39.0635 86.1746 38.6144 85.7838 38.2682C85.3929 37.922 84.8996 37.7442 84.3226 37.7442C83.7457 37.7442 83.2617 37.9127 82.8615 38.2589H82.8709ZM90.0368 43.9571C89.4412 43.7887 88.9665 43.5828 88.6129 43.3396L89.3016 41.9641C89.6459 42.198 90.0647 42.3852 90.5393 42.5162C91.0232 42.6565 91.4979 42.722 91.9725 42.722C93.0427 42.722 93.5825 42.4413 93.5825 41.8705C93.5825 41.5992 93.4429 41.4121 93.173 41.3091C92.9031 41.2062 92.4657 41.1033 91.8608 41.0097C91.228 40.9162 90.7161 40.8039 90.316 40.6822C89.9158 40.5606 89.5715 40.336 89.283 40.0273C88.9945 39.7185 88.8456 39.2787 88.8456 38.7173C88.8456 37.9875 89.1527 37.398 89.7576 36.9583C90.3625 36.5185 91.1908 36.3033 92.2238 36.3033C92.7542 36.3033 93.2754 36.3594 93.8059 36.4811C94.3363 36.6027 94.7644 36.7618 95.0994 36.9676L94.4108 38.3431C93.7593 37.9594 93.0241 37.7629 92.2145 37.7629C91.684 37.7629 91.2838 37.8378 91.0139 37.9969C90.7441 38.1559 90.6045 38.3618 90.6045 38.6238C90.6045 38.9138 90.7534 39.1197 91.0419 39.2413C91.3304 39.3629 91.7864 39.4752 92.4006 39.5782C93.0148 39.6717 93.5174 39.784 93.9082 39.915C94.2991 40.0366 94.6341 40.2518 94.9226 40.5513C95.2018 40.8507 95.3414 41.2717 95.3414 41.8238C95.3414 42.5442 95.0343 43.1243 94.4108 43.5548C93.7873 43.9852 92.9404 44.2004 91.8701 44.2004C91.2466 44.2004 90.6417 44.1162 90.0461 43.9571H90.0368ZM101.065 43.6858C100.851 43.8635 100.6 43.9852 100.302 44.0787C100.004 44.1629 99.6782 44.2097 99.3432 44.2097C98.4963 44.2097 97.8541 43.9852 97.3888 43.5454C96.9328 43.1056 96.7001 42.46 96.7001 41.6086V37.9033H95.4345V36.4624H96.7001V34.7033H98.4963V36.4624H100.553V37.9033H98.4963V41.5711C98.4963 41.9454 98.5893 42.2355 98.7662 42.432C98.943 42.6284 99.2129 42.7314 99.5572 42.7314C99.9574 42.7314 100.292 42.6284 100.562 42.4132L101.065 43.6951V43.6858Z" fill="white" fill-opacity="0.65"/>
<path d="M37.2602 0H11.4815C5.41377 0 0.5 4.94035 0.5 11.0409V36.9591C0.5 43.0596 5.41377 48 11.4815 48C17.5493 48 37.2602 48 37.2602 48C43.328 48 48.2418 43.0596 48.2418 36.9591V11.0409C48.2418 4.94035 43.328 0 37.2602 0ZM22.3793 33.5251C22.3793 35.0409 21.5324 36.4257 20.183 37.0994L14.4224 39.9906V31.4667C14.4224 29.9509 15.2692 28.5661 16.6187 27.8924L22.3793 25.0012V33.5251ZM34.3194 27.5275C34.3194 29.0433 33.4632 30.4281 32.1231 31.1111L26.3625 34.0023V14.4749C26.3625 12.9591 27.2093 11.5743 28.5588 10.9006L34.3194 8.00936V27.5275ZM70.5771 13.1368V7.6538C70.5771 6.3345 71.3216 5.12749 72.4942 4.53801L77.5104 2.02105C77.5104 8.44912 77.5104 14.8772 77.5104 21.2959C77.5104 22.7462 77.3522 24.1684 76.7752 25.5064C75.8818 27.6023 74.2438 28.8094 72.1127 29.4269C71.1076 29.717 70.0839 29.8667 69.0509 29.8854C67.5246 29.9134 66.3706 29.8947 64.8444 29.8947C64.7885 29.8947 60.2656 29.8947 60.1819 29.8854V23.8035H67.7201C69.3673 23.6912 70.3072 22.6152 70.4934 20.9591C70.5492 20.4725 70.5771 19.9766 70.5771 19.4901V13.1462V13.1368ZM127.365 18.7134C127.784 20.1825 127.858 21.7637 127.709 23.2889C127.476 25.6842 126.294 27.462 124.219 28.6316C122.432 29.6421 120.469 29.9977 118.468 30.1567C117.221 30.2503 115.815 30.2503 114.559 30.1567C112.549 30.007 110.595 29.6421 108.808 28.6316C106.732 27.462 105.541 25.6936 105.318 23.2889C105.243 22.5216 105.253 21.9415 105.253 21.1462H112.037C112.037 21.4082 112.037 21.4456 112.037 21.6889C112.056 23.186 112.614 23.9813 114.057 24.3275C115.62 24.7111 117.416 24.7111 118.98 24.3275C120.459 23.9626 121.008 23.0643 121.036 21.6795C121.036 21.455 120.999 21.2304 120.953 20.9871C120.813 20.3696 120.366 19.986 119.827 19.6959C118.989 19.2468 117.556 19.0596 116.634 18.8725C114.876 18.5076 113.117 18.1801 111.376 17.7591C110.12 17.4596 108.947 16.9544 107.896 16.1778C107.747 16.0655 107.607 15.9532 107.468 15.8316C106.611 15.0643 105.997 14.1099 105.672 12.9591C105.383 11.9579 105.253 10.9754 105.271 9.9462C105.271 9.51579 105.281 9.10409 105.327 8.61754C105.56 6.21286 106.742 4.44444 108.817 3.27485C110.604 2.26433 112.568 1.90877 114.568 1.74971C115.815 1.65614 117.221 1.65614 118.477 1.74971C120.487 1.89942 122.442 2.26433 124.228 3.27485C126.304 4.44444 127.495 6.21286 127.718 8.61754C127.793 9.3848 127.784 9.96491 127.784 10.7602H120.999C120.999 10.4982 120.999 10.4608 120.999 10.2175C120.981 8.72047 120.413 7.9345 118.98 7.57895C117.407 7.19532 115.629 7.19532 114.057 7.57895C112.996 7.84094 112.409 8.3462 112.177 9.19766C112.056 9.63743 112.065 10.1708 112.177 10.6854C112.316 11.3029 112.763 11.6865 113.303 11.9766C114.14 12.4257 115.49 12.6129 116.402 12.8C118.161 13.1649 119.92 13.4924 121.66 13.9135C122.916 14.2129 124.089 14.7275 125.14 15.4947C125.289 15.607 125.429 15.7193 125.569 15.8409C126.425 16.6082 127.039 17.5626 127.365 18.7134ZM138.644 21.0339L142.506 11.2749L146.368 21.0339H138.635H138.644ZM149.886 29.9041H157.248L146.21 2.02105H138.83L127.793 29.9041H135.154L136.662 26.1053H148.406L149.914 29.9041H149.886ZM95.7137 19.6678V2.0117H102.647V17.7029C102.647 20.8094 102.293 23.9813 100.33 26.4982C99.6038 27.4246 98.7476 28.2386 97.7425 28.8281C96.1418 29.7544 93.2568 30.2035 91.3769 30.2035C89.497 30.2035 86.612 29.7544 85.0113 28.8281C83.9969 28.2386 83.1407 27.4246 82.4242 26.4982C80.4605 23.9813 80.1069 20.8187 80.1069 17.7029V2.0117H87.0401V19.6585C87.0401 22.3251 88.585 24.4491 91.3769 24.4491C94.1688 24.4491 95.7137 22.3158 95.7137 19.6585V19.6678ZM181.5 2.0117V29.8947H174.567C174.25 29.3427 165.996 14.3251 165.902 14.1661V29.8947H158.969V2.0117H165.902C165.902 2.0117 174.232 17.1602 174.567 17.7403V2.0117H181.5Z" fill="white"/>
</g>
<defs>
<clipPath id="clip0_8294_5764">
<rect width="181" height="48" fill="white" transform="translate(0.5)"/>
</clipPath>
</defs>
</svg>
